G04 #@! TF.GenerationSoftware,KiCad,Pcbnew,7.0.10*
G04 #@! TF.CreationDate,2024-03-06T03:44:09-08:00*
G04 #@! TF.ProjectId,Tracker_Band_V1,54726163-6b65-4725-9f42-616e645f5631,1*
G04 #@! TF.SameCoordinates,Original*
G04 #@! TF.FileFunction,Copper,L4,Bot*
G04 #@! TF.FilePolarity,Positive*
%FSLAX46Y46*%
G04 Gerber Fmt 4.6, Leading zero omitted, Abs format (unit mm)*
G04 Created by KiCad (PCBNEW 7.0.10) date 2024-03-06 03:44:09*
%MOMM*%
%LPD*%
G01*
G04 APERTURE LIST*
G04 #@! TA.AperFunction,ComponentPad*
%ADD10O,2.100000X1.000000*%
G04 #@! TD*
G04 #@! TA.AperFunction,ComponentPad*
%ADD11O,1.800000X1.000000*%
G04 #@! TD*
G04 #@! TA.AperFunction,SMDPad,CuDef*
%ADD12C,1.000000*%
G04 #@! TD*
G04 #@! TA.AperFunction,SMDPad,CuDef*
%ADD13C,1.500000*%
G04 #@! TD*
G04 #@! TA.AperFunction,ViaPad*
%ADD14C,0.420000*%
G04 #@! TD*
G04 #@! TA.AperFunction,Conductor*
%ADD15C,0.127000*%
G04 #@! TD*
G04 APERTURE END LIST*
D10*
X135810000Y-100370000D03*
D11*
X140010000Y-100370000D03*
D10*
X135810000Y-91730000D03*
D11*
X140010000Y-91730000D03*
D12*
X128250000Y-84050000D03*
X124400000Y-97700000D03*
X134100000Y-99150000D03*
X128575000Y-92250000D03*
D13*
X128280000Y-100375000D03*
X123250000Y-79500000D03*
D12*
X137400000Y-89225000D03*
X124450000Y-92050000D03*
D13*
X123250000Y-76975000D03*
D12*
X138225000Y-97950000D03*
X124225000Y-94450000D03*
D13*
X130819999Y-100375000D03*
D12*
X123675000Y-82175000D03*
X126450000Y-92100000D03*
X130225000Y-84475000D03*
X125875000Y-95650000D03*
X128925000Y-90175000D03*
X134825000Y-84300000D03*
X126100000Y-84050000D03*
D13*
X125740000Y-100374999D03*
X123200000Y-100375000D03*
D14*
X130550000Y-96700000D03*
X134075000Y-94575000D03*
X127700000Y-77200000D03*
X130900000Y-93800000D03*
X139775000Y-81575000D03*
X127475000Y-93575000D03*
X127850000Y-89025000D03*
X131700000Y-81225000D03*
X135800000Y-89400000D03*
X125500000Y-98025000D03*
X130450000Y-91250000D03*
X129700000Y-79200000D03*
X122975000Y-83700000D03*
X127250000Y-100950000D03*
X132450000Y-89200000D03*
X122975000Y-77224980D03*
X128225000Y-98025000D03*
X132600000Y-92075000D03*
X131350000Y-97300000D03*
X131700000Y-79200000D03*
X130550000Y-97300000D03*
X129100000Y-84750000D03*
X131350000Y-96100000D03*
X134100000Y-77200000D03*
X140375000Y-76275000D03*
X123925000Y-85675000D03*
X122700000Y-99130000D03*
X132500000Y-77200000D03*
X135225000Y-92850000D03*
X140375000Y-85650000D03*
X124825000Y-86675000D03*
X135700000Y-77200000D03*
X139625000Y-78275000D03*
X134375000Y-91025000D03*
X125200000Y-77650000D03*
X129300000Y-77200000D03*
X133675000Y-81225000D03*
X122975000Y-82750000D03*
X129700000Y-81250000D03*
X130450000Y-89850000D03*
X131350000Y-96700000D03*
X124575000Y-90850000D03*
X130550000Y-96100000D03*
X122700000Y-94875000D03*
X132650000Y-97375000D03*
X128475000Y-88475000D03*
X134475000Y-89150000D03*
X130900000Y-77200000D03*
X137650000Y-86155100D03*
X130450000Y-90500000D03*
X135850000Y-83950000D03*
X129675000Y-96150000D03*
X130850000Y-99250000D03*
X133675000Y-79200000D03*
X128975000Y-95425000D03*
X122625000Y-80725000D03*
X128575000Y-92250000D03*
X122925000Y-79500000D03*
X129100000Y-93550000D03*
X128325000Y-93550000D03*
X126675000Y-89575000D03*
X123550003Y-79500000D03*
X138225000Y-97950000D03*
X133150000Y-100750000D03*
X140325000Y-88400000D03*
X126800000Y-93425000D03*
X137525000Y-91775000D03*
X136400000Y-95350000D03*
X140400000Y-82000000D03*
X136400000Y-94725000D03*
X139900000Y-90775000D03*
X137100000Y-92650000D03*
X132650000Y-95300000D03*
X136406062Y-84475288D03*
X136625000Y-85050000D03*
X132625000Y-96300000D03*
X122675000Y-93925000D03*
X127600000Y-99425000D03*
X122950000Y-86625000D03*
X130700000Y-87800000D03*
X132250000Y-100200000D03*
X126525000Y-99475000D03*
X126400000Y-96700000D03*
X131900000Y-88500000D03*
X126600000Y-78800000D03*
X122775000Y-100375000D03*
X138575000Y-76775000D03*
X122725000Y-96150000D03*
X124600000Y-89750000D03*
X124675000Y-76275000D03*
X122725000Y-98175000D03*
X139150000Y-87050000D03*
X122925000Y-87950000D03*
X123875000Y-82750000D03*
X138775000Y-89150000D03*
X125600000Y-82800000D03*
X122950000Y-88700000D03*
X123775000Y-78250000D03*
X139390000Y-83075000D03*
X123925000Y-84650000D03*
X131300000Y-91950000D03*
X136250000Y-87650000D03*
X130225000Y-84475000D03*
X128250000Y-84050000D03*
X129900000Y-98875000D03*
X126075000Y-95850000D03*
X133300000Y-85000000D03*
X127800000Y-94625000D03*
X133162500Y-86962500D03*
X127000000Y-100375000D03*
X126300000Y-98050000D03*
X124050000Y-99250000D03*
X131700000Y-86950000D03*
X125800000Y-93025000D03*
X135100000Y-84300000D03*
X125184101Y-93441338D03*
X124850000Y-92925000D03*
X134100000Y-85000000D03*
X123900000Y-93650000D03*
X132500000Y-85000000D03*
X124875000Y-76900000D03*
X139425000Y-76250000D03*
X140375000Y-77225000D03*
X139925000Y-84900000D03*
X140000000Y-87225000D03*
X125000000Y-84100000D03*
X124400000Y-97700000D03*
X126950000Y-84625000D03*
X138290000Y-90150000D03*
X138725000Y-80575000D03*
X139375000Y-89325000D03*
D15*
X128575000Y-92250000D02*
X127888500Y-92936500D01*
X130094060Y-99343500D02*
X128843500Y-99343500D01*
X126225000Y-93296288D02*
X126225000Y-94525000D01*
X126225000Y-94525000D02*
X130368500Y-98668500D01*
X122435500Y-80914500D02*
X122625000Y-80725000D01*
X127888500Y-92936500D02*
X126584788Y-92936500D01*
X123172500Y-95147500D02*
X123172500Y-93759940D01*
X130368500Y-98668500D02*
X130368500Y-99069060D01*
X125550000Y-97525000D02*
X123172500Y-95147500D01*
X123172500Y-93759940D02*
X122435500Y-93022940D01*
X126584788Y-92936500D02*
X126225000Y-93296288D01*
X122435500Y-93022940D02*
X122435500Y-80914500D01*
X127025000Y-97525000D02*
X125550000Y-97525000D01*
X128843500Y-99343500D02*
X127025000Y-97525000D01*
X130368500Y-99069060D02*
X130094060Y-99343500D01*
X126800000Y-93425000D02*
X126800000Y-94575000D01*
X140325000Y-89050000D02*
X138800000Y-90575000D01*
X131175000Y-98100000D02*
X133150000Y-100075000D01*
X130325000Y-98100000D02*
X131175000Y-98100000D01*
X138800000Y-94425000D02*
X133150000Y-100075000D01*
X140325000Y-88400000D02*
X140325000Y-89050000D01*
X126800000Y-94575000D02*
X130325000Y-98100000D01*
X133150000Y-100075000D02*
X133150000Y-100750000D01*
X138800000Y-90575000D02*
X138800000Y-94425000D01*
X136400000Y-95350000D02*
X136437560Y-95350000D01*
X137575000Y-91800000D02*
X137550000Y-91775000D01*
X137575000Y-94212560D02*
X137575000Y-91800000D01*
X136437560Y-95350000D02*
X137575000Y-94212560D01*
X140400000Y-83700000D02*
X140400000Y-82000000D01*
X140825000Y-89850000D02*
X140825000Y-86775000D01*
X137100000Y-94025000D02*
X137100000Y-92650000D01*
X136400000Y-94725000D02*
X137100000Y-94025000D01*
X139325000Y-85275000D02*
X139325000Y-84775000D01*
X139900000Y-90775000D02*
X140825000Y-89850000D01*
X140825000Y-86775000D02*
X139325000Y-85275000D01*
X139325000Y-84775000D02*
X140400000Y-83700000D01*
X136156500Y-84724850D02*
X136156500Y-85093500D01*
X136156500Y-85093500D02*
X133200000Y-88050000D01*
X136406062Y-84475288D02*
X136156500Y-84724850D01*
X133200000Y-88050000D02*
X133200000Y-94750000D01*
X133200000Y-94750000D02*
X132650000Y-95300000D01*
X136625000Y-85050000D02*
X136600000Y-85050000D01*
X133475000Y-88175000D02*
X133475000Y-95450000D01*
X136600000Y-85050000D02*
X133475000Y-88175000D01*
X133475000Y-95450000D02*
X132625000Y-96300000D01*
X123875000Y-82750000D02*
X123875000Y-83350000D01*
X123875000Y-83350000D02*
X123450000Y-83775000D01*
X123675000Y-82550000D02*
X123875000Y-82750000D01*
X123675000Y-82175000D02*
X123675000Y-82550000D01*
X123450000Y-83775000D02*
X123450000Y-87425000D01*
X123450000Y-87425000D02*
X122925000Y-87950000D01*
X125600000Y-82831784D02*
X124527500Y-83904284D01*
X136750000Y-82675000D02*
X138000000Y-83925000D01*
X126100000Y-84050000D02*
X127475000Y-82675000D01*
X122975000Y-88650000D02*
X123050000Y-88650000D01*
X124527500Y-84302500D02*
X124875000Y-84650000D01*
X138375000Y-86100000D02*
X138375000Y-88750000D01*
X125000000Y-84650000D02*
X125000000Y-85625000D01*
X124527500Y-83904284D02*
X124527500Y-84302500D01*
X127475000Y-82675000D02*
X136750000Y-82675000D01*
X126200000Y-84050000D02*
X126100000Y-84050000D01*
X125500000Y-84650000D02*
X126100000Y-84050000D01*
X138000000Y-85725000D02*
X138375000Y-86100000D01*
X125000000Y-84650000D02*
X125500000Y-84650000D01*
X124000000Y-86625000D02*
X124000000Y-87700000D01*
X123050000Y-88650000D02*
X124000000Y-87700000D01*
X138000000Y-83925000D02*
X138000000Y-85725000D01*
X125000000Y-85625000D02*
X124000000Y-86625000D01*
X138375000Y-88750000D02*
X138775000Y-89150000D01*
X124875000Y-84650000D02*
X125000000Y-84650000D01*
X125600000Y-82800000D02*
X125600000Y-82831784D01*
X123925000Y-83900000D02*
X124525000Y-83300000D01*
X125725000Y-78250000D02*
X124550000Y-78250000D01*
X123925000Y-84650000D02*
X123925000Y-83900000D01*
X127315000Y-76660000D02*
X125725000Y-78250000D01*
X139300000Y-78790000D02*
X137170000Y-76660000D01*
X124525000Y-83300000D02*
X124525000Y-78275000D01*
X139300000Y-82985000D02*
X139300000Y-78790000D01*
X139390000Y-83075000D02*
X139300000Y-82985000D01*
X137170000Y-76660000D02*
X127315000Y-76660000D01*
X124525000Y-78275000D02*
X124550000Y-78250000D01*
X124550000Y-78250000D02*
X123775000Y-78250000D01*
X136800000Y-87100000D02*
X136800000Y-85750000D01*
X136300000Y-87700000D02*
X136300000Y-89775000D01*
X138013500Y-91488500D02*
X138013500Y-94561500D01*
X138013500Y-94561500D02*
X135750000Y-96825000D01*
X132481784Y-96825000D02*
X132000000Y-96343216D01*
X136375000Y-83450000D02*
X131250000Y-83450000D01*
X137175000Y-85375000D02*
X137175000Y-84250000D01*
X136250000Y-87650000D02*
X136300000Y-87700000D01*
X137175000Y-84250000D02*
X136375000Y-83450000D01*
X136800000Y-85750000D02*
X137175000Y-85375000D01*
X136250000Y-87650000D02*
X136800000Y-87100000D01*
X131250000Y-83450000D02*
X130225000Y-84475000D01*
X135750000Y-96825000D02*
X132481784Y-96825000D01*
X132000000Y-92650000D02*
X131300000Y-91950000D01*
X132000000Y-96343216D02*
X132000000Y-92650000D01*
X136300000Y-89775000D02*
X138013500Y-91488500D01*
X122800000Y-92925000D02*
X123425000Y-93550000D01*
X128250000Y-84050000D02*
X128250000Y-84150000D01*
X125618500Y-97168500D02*
X128143500Y-97168500D01*
X128250000Y-84150000D02*
X122800000Y-89600000D01*
X129850000Y-98875000D02*
X129900000Y-98875000D01*
X128143500Y-97168500D02*
X129850000Y-98875000D01*
X122800000Y-89600000D02*
X122800000Y-92925000D01*
X123425000Y-94975000D02*
X125618500Y-97168500D01*
X123425000Y-93550000D02*
X123425000Y-94975000D01*
X129850000Y-98875000D02*
X129925000Y-98875000D01*
X126075000Y-95850000D02*
X125900000Y-95675000D01*
X132925000Y-85675000D02*
X133300000Y-85300000D01*
X123650000Y-90000000D02*
X127975000Y-85675000D01*
X125900000Y-95675000D02*
X125900000Y-94875000D01*
X123650000Y-92625000D02*
X123650000Y-90000000D01*
X127975000Y-85675000D02*
X132925000Y-85675000D01*
X125900000Y-94875000D02*
X123650000Y-92625000D01*
X133300000Y-85300000D02*
X133300000Y-85000000D01*
X131550000Y-87850000D02*
X131546288Y-87850000D01*
X133200000Y-86925000D02*
X133225000Y-86925000D01*
X132275000Y-87850000D02*
X131550000Y-87850000D01*
X128925000Y-90175000D02*
X129775000Y-90175000D01*
X129775000Y-93800000D02*
X128950000Y-94625000D01*
X129775000Y-89621288D02*
X129775000Y-90175000D01*
X133200000Y-86925000D02*
X133175000Y-86925000D01*
X131546288Y-87850000D02*
X129775000Y-89621288D01*
X133200000Y-86925000D02*
X132275000Y-87850000D01*
X128950000Y-94625000D02*
X127800000Y-94625000D01*
X129775000Y-90175000D02*
X129775000Y-93800000D01*
X127000000Y-98750000D02*
X127000000Y-100375000D01*
X127937500Y-100032500D02*
X128280000Y-100375000D01*
X126300000Y-98050000D02*
X127000000Y-98750000D01*
X128275000Y-100370000D02*
X128280000Y-100375000D01*
X127000000Y-100375000D02*
X128280000Y-100375000D01*
X124050000Y-99250000D02*
X124615001Y-99250000D01*
X124615001Y-99250000D02*
X125740000Y-100374999D01*
X125900000Y-89647460D02*
X128597460Y-86950000D01*
X128597460Y-86950000D02*
X131700000Y-86950000D01*
X126450000Y-92100000D02*
X125900000Y-91550000D01*
X125825000Y-92900000D02*
X126450000Y-92275000D01*
X125825000Y-93025000D02*
X125825000Y-92900000D01*
X126450000Y-92275000D02*
X126450000Y-92100000D01*
X125900000Y-91550000D02*
X125900000Y-89647460D01*
X125318500Y-93306939D02*
X125318500Y-92775220D01*
X135100000Y-84900000D02*
X135100000Y-84300000D01*
X125184101Y-93441338D02*
X125318500Y-93306939D01*
X133525000Y-86475000D02*
X135100000Y-84900000D01*
X125318500Y-92775220D02*
X125625000Y-92468720D01*
X125625000Y-89275000D02*
X128425000Y-86475000D01*
X128425000Y-86475000D02*
X133525000Y-86475000D01*
X125625000Y-92468720D02*
X125625000Y-89275000D01*
X124850000Y-92925000D02*
X124850000Y-92500000D01*
X124850000Y-92500000D02*
X124450000Y-92100000D01*
X134100000Y-85000000D02*
X134100000Y-85225000D01*
X133250000Y-86075000D02*
X128175000Y-86075000D01*
X125350000Y-88900000D02*
X125350000Y-91150000D01*
X125350000Y-91150000D02*
X124450000Y-92050000D01*
X128175000Y-86075000D02*
X125350000Y-88900000D01*
X134100000Y-85225000D02*
X133250000Y-86075000D01*
X124450000Y-92100000D02*
X124450000Y-92050000D01*
X127675000Y-85350000D02*
X132150000Y-85350000D01*
X124225000Y-93850000D02*
X124025000Y-93650000D01*
X124025000Y-93650000D02*
X123900000Y-93650000D01*
X123900000Y-93650000D02*
X123900000Y-93525000D01*
X132150000Y-85350000D02*
X132500000Y-85000000D01*
X123200000Y-92825000D02*
X123200000Y-89825000D01*
X123900000Y-93525000D02*
X123200000Y-92825000D01*
X124225000Y-94450000D02*
X124225000Y-93850000D01*
X123200000Y-89825000D02*
X127675000Y-85350000D01*
X125525000Y-76250000D02*
X139425000Y-76250000D01*
X124875000Y-76900000D02*
X125525000Y-76250000D01*
X140900000Y-77750000D02*
X140375000Y-77225000D01*
X140900000Y-83925000D02*
X140900000Y-77750000D01*
X139925000Y-84900000D02*
X140900000Y-83925000D01*
X126800000Y-82300000D02*
X125000000Y-84100000D01*
X140000000Y-87075000D02*
X138350000Y-85425000D01*
X136950000Y-82300000D02*
X126800000Y-82300000D01*
X138350000Y-83700000D02*
X136950000Y-82300000D01*
X140000000Y-87225000D02*
X140000000Y-87075000D01*
X138350000Y-85425000D02*
X138350000Y-83700000D01*
X137181500Y-89006500D02*
X137400000Y-89225000D01*
X128000000Y-83050000D02*
X136525000Y-83050000D01*
X138290000Y-90150000D02*
X138290000Y-90115000D01*
X137600000Y-85500000D02*
X137181500Y-85918500D01*
X138290000Y-90115000D02*
X137400000Y-89225000D01*
X126950000Y-84625000D02*
X126950000Y-84100000D01*
X136525000Y-83050000D02*
X137600000Y-84125000D01*
X126950000Y-84100000D02*
X128000000Y-83050000D01*
X137181500Y-85918500D02*
X137181500Y-89006500D01*
X137600000Y-84125000D02*
X137600000Y-85500000D01*
X140468500Y-87494000D02*
X140468500Y-86968500D01*
X139375000Y-88587500D02*
X140468500Y-87494000D01*
X138725000Y-85225000D02*
X138725000Y-80575000D01*
X140468500Y-86968500D02*
X138725000Y-85225000D01*
X139375000Y-89325000D02*
X139375000Y-88587500D01*
G04 #@! TA.AperFunction,Conductor*
G36*
X127425914Y-100614871D02*
G01*
X127455734Y-100655169D01*
X127472622Y-100707144D01*
X127480378Y-100731016D01*
X127480380Y-100731019D01*
X127571867Y-100889479D01*
X127571870Y-100889484D01*
X127571871Y-100889485D01*
X127663563Y-100991320D01*
X127694315Y-101025473D01*
X127694676Y-101025798D01*
X127694774Y-101025982D01*
X127697084Y-101028548D01*
X127696444Y-101029124D01*
X127720040Y-101073516D01*
X127708797Y-101126372D01*
X127666210Y-101159637D01*
X127641807Y-101163500D01*
X126378191Y-101163500D01*
X126327411Y-101145018D01*
X126300391Y-101098218D01*
X126309775Y-101045000D01*
X126323021Y-101028642D01*
X126322916Y-101028547D01*
X126324734Y-101026527D01*
X126325330Y-101025792D01*
X126325681Y-101025475D01*
X126325682Y-101025473D01*
X126325687Y-101025470D01*
X126448129Y-100889484D01*
X126539622Y-100731014D01*
X126559359Y-100670266D01*
X126592629Y-100627684D01*
X126645488Y-100616449D01*
X126690354Y-100638819D01*
X126758679Y-100707144D01*
X126758681Y-100707145D01*
X126758682Y-100707146D01*
X126873132Y-100765461D01*
X126873137Y-100765461D01*
X126873138Y-100765462D01*
X126999998Y-100785555D01*
X127000000Y-100785555D01*
X127000002Y-100785555D01*
X127094451Y-100770595D01*
X127126868Y-100765461D01*
X127241318Y-100707146D01*
X127324741Y-100623722D01*
X127373716Y-100600885D01*
X127425914Y-100614871D01*
G37*
G04 #@! TD.AperFunction*
G04 #@! TA.AperFunction,Conductor*
G36*
X131116843Y-98302482D02*
G01*
X131121924Y-98307139D01*
X132528697Y-99713912D01*
X132551535Y-99762888D01*
X132537549Y-99815086D01*
X132493283Y-99846081D01*
X132439449Y-99841371D01*
X132436971Y-99840163D01*
X132436944Y-99840149D01*
X132376868Y-99809539D01*
X132376864Y-99809538D01*
X132376861Y-99809537D01*
X132250002Y-99789445D01*
X132249998Y-99789445D01*
X132123138Y-99809537D01*
X132123133Y-99809538D01*
X132123132Y-99809539D01*
X132105987Y-99818275D01*
X132008679Y-99867855D01*
X131917855Y-99958679D01*
X131917492Y-99959392D01*
X131859539Y-100073132D01*
X131859539Y-100073133D01*
X131859537Y-100073138D01*
X131839445Y-100199997D01*
X131839445Y-100200002D01*
X131859537Y-100326861D01*
X131859538Y-100326864D01*
X131859539Y-100326868D01*
X131902216Y-100410626D01*
X131917855Y-100441320D01*
X132008679Y-100532144D01*
X132008681Y-100532145D01*
X132008682Y-100532146D01*
X132123132Y-100590461D01*
X132123137Y-100590461D01*
X132123138Y-100590462D01*
X132249998Y-100610555D01*
X132250000Y-100610555D01*
X132250002Y-100610555D01*
X132344451Y-100595595D01*
X132376868Y-100590461D01*
X132491318Y-100532146D01*
X132582146Y-100441318D01*
X132640461Y-100326868D01*
X132645595Y-100294451D01*
X132660555Y-100200002D01*
X132660555Y-100199997D01*
X132640462Y-100073138D01*
X132640461Y-100073133D01*
X132640461Y-100073132D01*
X132609835Y-100013026D01*
X132603251Y-99959392D01*
X132632683Y-99914071D01*
X132684361Y-99898271D01*
X132734104Y-99919386D01*
X132736087Y-99921302D01*
X132942861Y-100128076D01*
X132965699Y-100177052D01*
X132966000Y-100183937D01*
X132966000Y-100340237D01*
X132947518Y-100391017D01*
X132922867Y-100410626D01*
X132908679Y-100417855D01*
X132817855Y-100508679D01*
X132793243Y-100556983D01*
X132759539Y-100623132D01*
X132759539Y-100623133D01*
X132759537Y-100623138D01*
X132739445Y-100749997D01*
X132739445Y-100750002D01*
X132759537Y-100876861D01*
X132759538Y-100876864D01*
X132759539Y-100876868D01*
X132803278Y-100962711D01*
X132817855Y-100991320D01*
X132855174Y-101028639D01*
X132878012Y-101077615D01*
X132864026Y-101129813D01*
X132819760Y-101160808D01*
X132799313Y-101163500D01*
X128918193Y-101163500D01*
X128867413Y-101145018D01*
X128840393Y-101098218D01*
X128849777Y-101045000D01*
X128863020Y-101028642D01*
X128862916Y-101028548D01*
X128864716Y-101026548D01*
X128865324Y-101025798D01*
X128865684Y-101025473D01*
X128865683Y-101025473D01*
X128865687Y-101025471D01*
X128988129Y-100889485D01*
X129079622Y-100731015D01*
X129136168Y-100556984D01*
X129155295Y-100375000D01*
X129154885Y-100371103D01*
X129150235Y-100326861D01*
X129136168Y-100193016D01*
X129136164Y-100193005D01*
X129107500Y-100104784D01*
X129079622Y-100018985D01*
X129009928Y-99898271D01*
X128988132Y-99860520D01*
X128988129Y-99860515D01*
X128865687Y-99724529D01*
X128865678Y-99724521D01*
X128791391Y-99670549D01*
X128761173Y-99625749D01*
X128766821Y-99572006D01*
X128805694Y-99534467D01*
X128842594Y-99527781D01*
X128877659Y-99529902D01*
X128877662Y-99529900D01*
X128883707Y-99528794D01*
X128897946Y-99527500D01*
X130070161Y-99527500D01*
X130084400Y-99528793D01*
X130105502Y-99532661D01*
X130141230Y-99521526D01*
X130145769Y-99520261D01*
X130182128Y-99511300D01*
X130182132Y-99511296D01*
X130187201Y-99508635D01*
X130192093Y-99505677D01*
X130192099Y-99505676D01*
X130218555Y-99479218D01*
X130222014Y-99475963D01*
X130223101Y-99475000D01*
X130250021Y-99451152D01*
X130250023Y-99451145D01*
X130253513Y-99446091D01*
X130262665Y-99435108D01*
X130481713Y-99216061D01*
X130492686Y-99206916D01*
X130510348Y-99194726D01*
X130527740Y-99161585D01*
X130530052Y-99157487D01*
X130549426Y-99125439D01*
X130549426Y-99125435D01*
X130551127Y-99119977D01*
X130552500Y-99114411D01*
X130552500Y-99077012D01*
X130552644Y-99072242D01*
X130552857Y-99068720D01*
X130554903Y-99034900D01*
X130554901Y-99034896D01*
X130553793Y-99028843D01*
X130552500Y-99014606D01*
X130552500Y-98692398D01*
X130553794Y-98678157D01*
X130557661Y-98657058D01*
X130546529Y-98621336D01*
X130545259Y-98616782D01*
X130536300Y-98580432D01*
X130536298Y-98580430D01*
X130533643Y-98575370D01*
X130530676Y-98570461D01*
X130525675Y-98565460D01*
X130504217Y-98544002D01*
X130500962Y-98540544D01*
X130491220Y-98529548D01*
X130476152Y-98512539D01*
X130476151Y-98512538D01*
X130471081Y-98509038D01*
X130460101Y-98499886D01*
X130379076Y-98418861D01*
X130356238Y-98369885D01*
X130370224Y-98317687D01*
X130414490Y-98286692D01*
X130434937Y-98284000D01*
X131066063Y-98284000D01*
X131116843Y-98302482D01*
G37*
G04 #@! TD.AperFunction*
G04 #@! TA.AperFunction,Conductor*
G36*
X140590510Y-89092650D02*
G01*
X140631198Y-89128213D01*
X140641000Y-89166326D01*
X140641000Y-89741061D01*
X140622518Y-89791841D01*
X140617861Y-89796922D01*
X140058245Y-90356537D01*
X140009269Y-90379375D01*
X139990026Y-90378703D01*
X139900002Y-90364445D01*
X139899998Y-90364445D01*
X139773138Y-90384537D01*
X139773133Y-90384538D01*
X139773132Y-90384539D01*
X139716956Y-90413161D01*
X139658679Y-90442855D01*
X139567855Y-90533679D01*
X139549636Y-90569436D01*
X139509539Y-90648132D01*
X139509539Y-90648133D01*
X139509537Y-90648138D01*
X139489445Y-90774997D01*
X139489445Y-90775002D01*
X139509537Y-90901861D01*
X139509538Y-90901864D01*
X139509539Y-90901868D01*
X139566784Y-91014219D01*
X139567855Y-91016320D01*
X139658679Y-91107144D01*
X139658681Y-91107145D01*
X139658682Y-91107146D01*
X139773132Y-91165461D01*
X139773137Y-91165461D01*
X139773138Y-91165462D01*
X139899998Y-91185555D01*
X139900000Y-91185555D01*
X139900002Y-91185555D01*
X139994451Y-91170595D01*
X140026868Y-91165461D01*
X140141318Y-91107146D01*
X140232146Y-91016318D01*
X140290461Y-90901868D01*
X140307308Y-90795500D01*
X140310555Y-90775002D01*
X140310555Y-90774997D01*
X140296296Y-90684970D01*
X140306607Y-90631924D01*
X140318458Y-90616755D01*
X140838639Y-90096575D01*
X140887615Y-90073737D01*
X140939813Y-90087723D01*
X140970808Y-90131989D01*
X140973500Y-90152436D01*
X140973500Y-101084500D01*
X140955018Y-101135280D01*
X140908218Y-101162300D01*
X140894500Y-101163500D01*
X133500687Y-101163500D01*
X133449907Y-101145018D01*
X133422887Y-101098218D01*
X133432271Y-101045000D01*
X133444826Y-101028639D01*
X133482144Y-100991320D01*
X133482146Y-100991318D01*
X133540461Y-100876868D01*
X133558106Y-100765461D01*
X133560555Y-100750002D01*
X133560555Y-100749997D01*
X133540462Y-100623138D01*
X133540461Y-100623137D01*
X133540461Y-100623132D01*
X133482146Y-100508682D01*
X133482145Y-100508681D01*
X133482144Y-100508679D01*
X133391320Y-100417855D01*
X133377133Y-100410626D01*
X133340279Y-100371103D01*
X133334000Y-100340237D01*
X133334000Y-100183936D01*
X133352482Y-100133156D01*
X133357116Y-100128098D01*
X133753585Y-99731628D01*
X133802559Y-99708792D01*
X133846156Y-99717540D01*
X133865610Y-99727750D01*
X133878353Y-99734439D01*
X134013598Y-99767774D01*
X134024658Y-99770500D01*
X134175342Y-99770500D01*
X134321648Y-99734438D01*
X134455073Y-99664412D01*
X134567862Y-99564489D01*
X134653460Y-99440478D01*
X134656344Y-99432876D01*
X134688482Y-99348133D01*
X134706894Y-99299586D01*
X134725057Y-99150000D01*
X134724190Y-99142855D01*
X134706894Y-99000413D01*
X134697189Y-98974825D01*
X134683981Y-98940000D01*
X135749534Y-98940000D01*
X135769312Y-99090233D01*
X135769315Y-99090242D01*
X135827299Y-99230228D01*
X135827301Y-99230230D01*
X135827302Y-99230233D01*
X135867352Y-99282428D01*
X135919548Y-99350451D01*
X135953976Y-99376868D01*
X136039767Y-99442698D01*
X136039769Y-99442699D01*
X136039771Y-99442700D01*
X136127977Y-99479236D01*
X136179764Y-99500687D01*
X136236022Y-99508093D01*
X136292278Y-99515500D01*
X136292280Y-99515500D01*
X136367722Y-99515500D01*
X136419865Y-99508635D01*
X136480236Y-99500687D01*
X136620233Y-99442698D01*
X136740451Y-99350451D01*
X136832698Y-99230233D01*
X136890687Y-99090236D01*
X136910466Y-98940000D01*
X136890687Y-98789764D01*
X136854685Y-98702848D01*
X136832700Y-98649771D01*
X136832699Y-98649769D01*
X136832698Y-98649767D01*
X136768008Y-98565462D01*
X136740451Y-98529548D01*
X136655559Y-98464409D01*
X136620233Y-98437302D01*
X136620230Y-98437301D01*
X136620228Y-98437299D01*
X136480242Y-98379315D01*
X136480233Y-98379312D01*
X136367722Y-98364500D01*
X136367720Y-98364500D01*
X136292280Y-98364500D01*
X136292278Y-98364500D01*
X136179766Y-98379312D01*
X136179757Y-98379315D01*
X136039771Y-98437299D01*
X136039767Y-98437302D01*
X135919548Y-98529548D01*
X135827302Y-98649767D01*
X135827299Y-98649771D01*
X135769315Y-98789757D01*
X135769312Y-98789766D01*
X135749534Y-98939999D01*
X135749534Y-98940000D01*
X134683981Y-98940000D01*
X134663935Y-98887144D01*
X134663210Y-98833114D01*
X134681939Y-98803274D01*
X135535213Y-97950000D01*
X137599943Y-97950000D01*
X137618106Y-98099587D01*
X137671537Y-98240474D01*
X137703439Y-98286692D01*
X137757138Y-98364489D01*
X137869927Y-98464412D01*
X138003352Y-98534438D01*
X138149658Y-98570500D01*
X138300342Y-98570500D01*
X138446648Y-98534438D01*
X138580073Y-98464412D01*
X138692862Y-98364489D01*
X138778460Y-98240478D01*
X138786877Y-98218286D01*
X138816557Y-98140025D01*
X138831894Y-98099586D01*
X138850057Y-97950000D01*
X138831894Y-97800414D01*
X138818253Y-97764445D01*
X138778462Y-97659525D01*
X138763748Y-97638208D01*
X138692862Y-97535511D01*
X138580073Y-97435588D01*
X138485946Y-97386187D01*
X138446647Y-97365561D01*
X138300345Y-97329500D01*
X138300342Y-97329500D01*
X138149658Y-97329500D01*
X138149654Y-97329500D01*
X138003353Y-97365561D01*
X138003352Y-97365561D01*
X137869927Y-97435588D01*
X137869924Y-97435590D01*
X137757138Y-97535510D01*
X137671537Y-97659525D01*
X137618106Y-97800412D01*
X137599943Y-97949999D01*
X137599943Y-97950000D01*
X135535213Y-97950000D01*
X138913208Y-94572005D01*
X138924188Y-94562855D01*
X138941848Y-94550666D01*
X138959226Y-94517553D01*
X138961563Y-94513407D01*
X138980926Y-94481379D01*
X138980926Y-94481376D01*
X138982628Y-94475911D01*
X138984000Y-94470351D01*
X138984000Y-94432952D01*
X138984144Y-94428182D01*
X138984461Y-94422947D01*
X138986403Y-94390840D01*
X138986401Y-94390836D01*
X138985293Y-94384783D01*
X138984000Y-94370546D01*
X138984000Y-90683937D01*
X139002482Y-90633157D01*
X139007139Y-90628076D01*
X139704256Y-89930959D01*
X140438211Y-89197003D01*
X140449191Y-89187853D01*
X140466848Y-89175666D01*
X140484240Y-89142525D01*
X140486564Y-89138407D01*
X140494394Y-89125455D01*
X140536482Y-89091561D01*
X140590510Y-89092650D01*
G37*
G04 #@! TD.AperFunction*
G04 #@! TA.AperFunction,Conductor*
G36*
X122972592Y-94301740D02*
G01*
X122988500Y-94349283D01*
X122988500Y-95123600D01*
X122987206Y-95137840D01*
X122983338Y-95158942D01*
X122983339Y-95158944D01*
X122994464Y-95194648D01*
X122995745Y-95199241D01*
X123004699Y-95235568D01*
X123007351Y-95240620D01*
X123010323Y-95245537D01*
X123010324Y-95245539D01*
X123036780Y-95271995D01*
X123040035Y-95275453D01*
X123064847Y-95303460D01*
X123069913Y-95306957D01*
X123080897Y-95316112D01*
X124799060Y-97034276D01*
X124821898Y-97083252D01*
X124807912Y-97135450D01*
X124763646Y-97166445D01*
X124709812Y-97161735D01*
X124706486Y-97160088D01*
X124621647Y-97115561D01*
X124475345Y-97079500D01*
X124475342Y-97079500D01*
X124324658Y-97079500D01*
X124324654Y-97079500D01*
X124178353Y-97115561D01*
X124178352Y-97115561D01*
X124044927Y-97185588D01*
X124044924Y-97185590D01*
X123932138Y-97285510D01*
X123846537Y-97409525D01*
X123793106Y-97550412D01*
X123774943Y-97699999D01*
X123774943Y-97700000D01*
X123793106Y-97849587D01*
X123846537Y-97990474D01*
X123887623Y-98049997D01*
X123932138Y-98114489D01*
X124044927Y-98214412D01*
X124178352Y-98284438D01*
X124324658Y-98320500D01*
X124475342Y-98320500D01*
X124621648Y-98284438D01*
X124755073Y-98214412D01*
X124867862Y-98114489D01*
X124953460Y-97990478D01*
X124956785Y-97981713D01*
X124982197Y-97914706D01*
X125006894Y-97849586D01*
X125025057Y-97700000D01*
X125023276Y-97685336D01*
X125018888Y-97649191D01*
X125006894Y-97550414D01*
X124953460Y-97409522D01*
X124951242Y-97405296D01*
X124953162Y-97404288D01*
X124941533Y-97359724D01*
X124964691Y-97310899D01*
X125013815Y-97288381D01*
X125065921Y-97302709D01*
X125076047Y-97311263D01*
X125402992Y-97638208D01*
X125412146Y-97649191D01*
X125424334Y-97666848D01*
X125457447Y-97684227D01*
X125461602Y-97686570D01*
X125493621Y-97705926D01*
X125493622Y-97705926D01*
X125499077Y-97707625D01*
X125504645Y-97708998D01*
X125504648Y-97709000D01*
X125542048Y-97709000D01*
X125546816Y-97709143D01*
X125584160Y-97711403D01*
X125584162Y-97711402D01*
X125590214Y-97710294D01*
X125604453Y-97709000D01*
X125889728Y-97709000D01*
X125940508Y-97727482D01*
X125967528Y-97774282D01*
X125960118Y-97823864D01*
X125909539Y-97923132D01*
X125909539Y-97923133D01*
X125909537Y-97923138D01*
X125889445Y-98049997D01*
X125889445Y-98050002D01*
X125909537Y-98176861D01*
X125909538Y-98176864D01*
X125909539Y-98176868D01*
X125965350Y-98286403D01*
X125967855Y-98291320D01*
X126058679Y-98382144D01*
X126058681Y-98382145D01*
X126058682Y-98382146D01*
X126173132Y-98440461D01*
X126173137Y-98440461D01*
X126173138Y-98440462D01*
X126299998Y-98460555D01*
X126300000Y-98460555D01*
X126300001Y-98460555D01*
X126390027Y-98446296D01*
X126443074Y-98456607D01*
X126458247Y-98468462D01*
X126792861Y-98803076D01*
X126815699Y-98852052D01*
X126816000Y-98858937D01*
X126816000Y-99039252D01*
X126797518Y-99090032D01*
X126750718Y-99117052D01*
X126701135Y-99109642D01*
X126651868Y-99084539D01*
X126651864Y-99084538D01*
X126651861Y-99084537D01*
X126525002Y-99064445D01*
X126524998Y-99064445D01*
X126398138Y-99084537D01*
X126398133Y-99084538D01*
X126398132Y-99084539D01*
X126341956Y-99113161D01*
X126283679Y-99142855D01*
X126192855Y-99233679D01*
X126163161Y-99291956D01*
X126134539Y-99348132D01*
X126134539Y-99348133D01*
X126134537Y-99348137D01*
X126113651Y-99480007D01*
X126087452Y-99527270D01*
X126037002Y-99546636D01*
X126014557Y-99543280D01*
X126014531Y-99543405D01*
X126012497Y-99542972D01*
X126011208Y-99542780D01*
X126010484Y-99542544D01*
X125925242Y-99524426D01*
X125831493Y-99504499D01*
X125648507Y-99504499D01*
X125574400Y-99520251D01*
X125469520Y-99542543D01*
X125469515Y-99542545D01*
X125310322Y-99613422D01*
X125256414Y-99617192D01*
X125222329Y-99597113D01*
X125002084Y-99376868D01*
X124762009Y-99136792D01*
X124752854Y-99125808D01*
X124748829Y-99119977D01*
X124740667Y-99108152D01*
X124740666Y-99108151D01*
X124707549Y-99090769D01*
X124703396Y-99088427D01*
X124671378Y-99069073D01*
X124665926Y-99067373D01*
X124660353Y-99066000D01*
X124622953Y-99066000D01*
X124618184Y-99065856D01*
X124580841Y-99063597D01*
X124580840Y-99063597D01*
X124580838Y-99063597D01*
X124574787Y-99064706D01*
X124560548Y-99066000D01*
X124459762Y-99066000D01*
X124408982Y-99047518D01*
X124389372Y-99022864D01*
X124382145Y-99008680D01*
X124291320Y-98917855D01*
X124289219Y-98916784D01*
X124176868Y-98859539D01*
X124176864Y-98859538D01*
X124176861Y-98859537D01*
X124050002Y-98839445D01*
X124049998Y-98839445D01*
X123923138Y-98859537D01*
X123923133Y-98859538D01*
X123923132Y-98859539D01*
X123868946Y-98887148D01*
X123808679Y-98917855D01*
X123717855Y-99008679D01*
X123710628Y-99022864D01*
X123659539Y-99123132D01*
X123659539Y-99123133D01*
X123659537Y-99123138D01*
X123639445Y-99249997D01*
X123639445Y-99250002D01*
X123659537Y-99376861D01*
X123659538Y-99376864D01*
X123659539Y-99376868D01*
X123710628Y-99477136D01*
X123720677Y-99496858D01*
X123719599Y-99497407D01*
X123732745Y-99543266D01*
X123710762Y-99592631D01*
X123662190Y-99616317D01*
X123621806Y-99609919D01*
X123536652Y-99572006D01*
X123470484Y-99542546D01*
X123470479Y-99542544D01*
X123386898Y-99524779D01*
X123291493Y-99504500D01*
X123108507Y-99504500D01*
X123028420Y-99521522D01*
X122929520Y-99542544D01*
X122929515Y-99542546D01*
X122762357Y-99616970D01*
X122762347Y-99616975D01*
X122614316Y-99724525D01*
X122614313Y-99724529D01*
X122515951Y-99833772D01*
X122510209Y-99840149D01*
X122462495Y-99865519D01*
X122409636Y-99854284D01*
X122376367Y-99811700D01*
X122372500Y-99787288D01*
X122372500Y-98579412D01*
X122390982Y-98528632D01*
X122437782Y-98501612D01*
X122487363Y-98509021D01*
X122598132Y-98565461D01*
X122598136Y-98565461D01*
X122598138Y-98565462D01*
X122724998Y-98585555D01*
X122725000Y-98585555D01*
X122725002Y-98585555D01*
X122820299Y-98570461D01*
X122851868Y-98565461D01*
X122966318Y-98507146D01*
X123057146Y-98416318D01*
X123115461Y-98301868D01*
X123129313Y-98214409D01*
X123135555Y-98175002D01*
X123135555Y-98174997D01*
X123115462Y-98048138D01*
X123115461Y-98048137D01*
X123115461Y-98048132D01*
X123057146Y-97933682D01*
X123057145Y-97933681D01*
X123057144Y-97933679D01*
X122966320Y-97842855D01*
X122962634Y-97840977D01*
X122851868Y-97784539D01*
X122851864Y-97784538D01*
X122851861Y-97784537D01*
X122725002Y-97764445D01*
X122724998Y-97764445D01*
X122598138Y-97784537D01*
X122598133Y-97784538D01*
X122598132Y-97784539D01*
X122550749Y-97808682D01*
X122487365Y-97840977D01*
X122433728Y-97847562D01*
X122388407Y-97818130D01*
X122372500Y-97770587D01*
X122372500Y-96554412D01*
X122390982Y-96503632D01*
X122437782Y-96476612D01*
X122487363Y-96484021D01*
X122598132Y-96540461D01*
X122598136Y-96540461D01*
X122598138Y-96540462D01*
X122724998Y-96560555D01*
X122725000Y-96560555D01*
X122725002Y-96560555D01*
X122846457Y-96541318D01*
X122851868Y-96540461D01*
X122966318Y-96482146D01*
X123057146Y-96391318D01*
X123115461Y-96276868D01*
X123132246Y-96170894D01*
X123135555Y-96150002D01*
X123135555Y-96149997D01*
X123115462Y-96023138D01*
X123115461Y-96023137D01*
X123115461Y-96023132D01*
X123057146Y-95908682D01*
X123057145Y-95908681D01*
X123057144Y-95908679D01*
X122966320Y-95817855D01*
X122939269Y-95804072D01*
X122851868Y-95759539D01*
X122851864Y-95759538D01*
X122851861Y-95759537D01*
X122725002Y-95739445D01*
X122724998Y-95739445D01*
X122598138Y-95759537D01*
X122598133Y-95759538D01*
X122598132Y-95759539D01*
X122550937Y-95783586D01*
X122487365Y-95815977D01*
X122433728Y-95822562D01*
X122388407Y-95793130D01*
X122372500Y-95745587D01*
X122372500Y-94354888D01*
X122390982Y-94304108D01*
X122437782Y-94277088D01*
X122487362Y-94284497D01*
X122548132Y-94315461D01*
X122548136Y-94315461D01*
X122548138Y-94315462D01*
X122674998Y-94335555D01*
X122675000Y-94335555D01*
X122675002Y-94335555D01*
X122769451Y-94320595D01*
X122801868Y-94315461D01*
X122873635Y-94278893D01*
X122927271Y-94272308D01*
X122972592Y-94301740D01*
G37*
G04 #@! TD.AperFunction*
G04 #@! TA.AperFunction,Conductor*
G36*
X136316843Y-83652482D02*
G01*
X136321924Y-83657139D01*
X136622017Y-83957232D01*
X136644855Y-84006208D01*
X136630869Y-84058406D01*
X136586603Y-84089401D01*
X136539322Y-84085264D01*
X136538840Y-84086748D01*
X136532931Y-84084827D01*
X136532930Y-84084827D01*
X136532928Y-84084826D01*
X136532923Y-84084825D01*
X136406064Y-84064733D01*
X136406060Y-84064733D01*
X136279200Y-84084825D01*
X136279195Y-84084826D01*
X136279194Y-84084827D01*
X136226423Y-84111715D01*
X136164741Y-84143143D01*
X136073917Y-84233967D01*
X136061972Y-84257411D01*
X136015601Y-84348420D01*
X136015601Y-84348421D01*
X136015599Y-84348426D01*
X135995507Y-84475285D01*
X135995507Y-84475290D01*
X136010920Y-84572608D01*
X136002845Y-84621677D01*
X135997271Y-84632298D01*
X135994927Y-84636454D01*
X135975573Y-84668471D01*
X135973869Y-84673939D01*
X135972500Y-84679496D01*
X135972500Y-84716896D01*
X135972356Y-84721666D01*
X135970097Y-84759010D01*
X135971206Y-84765062D01*
X135972500Y-84779302D01*
X135972500Y-84984561D01*
X135954018Y-85035341D01*
X135949361Y-85040422D01*
X133086789Y-87902993D01*
X133075808Y-87912146D01*
X133058151Y-87924334D01*
X133040769Y-87957452D01*
X133038427Y-87961604D01*
X133019073Y-87993621D01*
X133017369Y-87999089D01*
X133016000Y-88004646D01*
X133016000Y-88042046D01*
X133015856Y-88046816D01*
X133013597Y-88084160D01*
X133014706Y-88090212D01*
X133016000Y-88104452D01*
X133016000Y-94641062D01*
X132997518Y-94691842D01*
X132992871Y-94696912D01*
X132899649Y-94790135D01*
X132808246Y-94881538D01*
X132759270Y-94904375D01*
X132740027Y-94903703D01*
X132650002Y-94889445D01*
X132649998Y-94889445D01*
X132523138Y-94909537D01*
X132523133Y-94909538D01*
X132523132Y-94909539D01*
X132504142Y-94919215D01*
X132408679Y-94967855D01*
X132318861Y-95057674D01*
X132269885Y-95080512D01*
X132217687Y-95066526D01*
X132186692Y-95022260D01*
X132184000Y-95001813D01*
X132184000Y-92673897D01*
X132185294Y-92659656D01*
X132189161Y-92638557D01*
X132178033Y-92602848D01*
X132176752Y-92598250D01*
X132167801Y-92561934D01*
X132165143Y-92556870D01*
X132162176Y-92551961D01*
X132150689Y-92540474D01*
X132135717Y-92525502D01*
X132132462Y-92522044D01*
X132107651Y-92494037D01*
X132102590Y-92490544D01*
X132091604Y-92481389D01*
X131718461Y-92108245D01*
X131695624Y-92059269D01*
X131696296Y-92040025D01*
X131710555Y-91950001D01*
X131710555Y-91949997D01*
X131690462Y-91823138D01*
X131690461Y-91823137D01*
X131690461Y-91823132D01*
X131632146Y-91708682D01*
X131632145Y-91708681D01*
X131632144Y-91708679D01*
X131541320Y-91617855D01*
X131499616Y-91596606D01*
X131426868Y-91559539D01*
X131426864Y-91559538D01*
X131426861Y-91559537D01*
X131300002Y-91539445D01*
X131299998Y-91539445D01*
X131173138Y-91559537D01*
X131173133Y-91559538D01*
X131173132Y-91559539D01*
X131122008Y-91585588D01*
X131058679Y-91617855D01*
X130967855Y-91708679D01*
X130946171Y-91751238D01*
X130909539Y-91823132D01*
X130909539Y-91823133D01*
X130909537Y-91823138D01*
X130889445Y-91949997D01*
X130889445Y-91950002D01*
X130909537Y-92076861D01*
X130909538Y-92076864D01*
X130909539Y-92076868D01*
X130941629Y-92139848D01*
X130967855Y-92191320D01*
X131058679Y-92282144D01*
X131058681Y-92282145D01*
X131058682Y-92282146D01*
X131173132Y-92340461D01*
X131173137Y-92340461D01*
X131173138Y-92340462D01*
X131299998Y-92360555D01*
X131300000Y-92360555D01*
X131300001Y-92360555D01*
X131390027Y-92346296D01*
X131443074Y-92356607D01*
X131458247Y-92368462D01*
X131792861Y-92703076D01*
X131815699Y-92752052D01*
X131816000Y-92758937D01*
X131816000Y-96319316D01*
X131814706Y-96333556D01*
X131810838Y-96354658D01*
X131810839Y-96354660D01*
X131821964Y-96390364D01*
X131823245Y-96394957D01*
X131832199Y-96431284D01*
X131834851Y-96436336D01*
X131837823Y-96441253D01*
X131837824Y-96441255D01*
X131837825Y-96441256D01*
X131837827Y-96441259D01*
X131864263Y-96467695D01*
X131867533Y-96471168D01*
X131892346Y-96499176D01*
X131897413Y-96502673D01*
X131908397Y-96511828D01*
X132334774Y-96938205D01*
X132343927Y-96949187D01*
X132356118Y-96966848D01*
X132389237Y-96984230D01*
X132393387Y-96986571D01*
X132425402Y-97005925D01*
X132430863Y-97007626D01*
X132436430Y-97008999D01*
X132436432Y-97009000D01*
X132473841Y-97009000D01*
X132478609Y-97009143D01*
X132515943Y-97011402D01*
X132515943Y-97011401D01*
X132515944Y-97011402D01*
X132521991Y-97010294D01*
X132536230Y-97009000D01*
X135726101Y-97009000D01*
X135740340Y-97010293D01*
X135761442Y-97014161D01*
X135770877Y-97015890D01*
X135770282Y-97019135D01*
X135806661Y-97029925D01*
X135836471Y-97074999D01*
X135830334Y-97128688D01*
X135815508Y-97149274D01*
X134413624Y-98551158D01*
X134364648Y-98573996D01*
X134326465Y-98566333D01*
X134326116Y-98567256D01*
X134321646Y-98565561D01*
X134175345Y-98529500D01*
X134175342Y-98529500D01*
X134024658Y-98529500D01*
X134024654Y-98529500D01*
X133878353Y-98565561D01*
X133878352Y-98565561D01*
X133744927Y-98635588D01*
X133744924Y-98635590D01*
X133632138Y-98735510D01*
X133546537Y-98859525D01*
X133493106Y-99000412D01*
X133474943Y-99149999D01*
X133474943Y-99150000D01*
X133493106Y-99299587D01*
X133522313Y-99376598D01*
X133523039Y-99430632D01*
X133504309Y-99460473D01*
X133205861Y-99758922D01*
X133156884Y-99781760D01*
X133104687Y-99767774D01*
X133094138Y-99758922D01*
X131322008Y-97986792D01*
X131312853Y-97975808D01*
X131300665Y-97958151D01*
X131267548Y-97940769D01*
X131263395Y-97938427D01*
X131231377Y-97919073D01*
X131225925Y-97917373D01*
X131220352Y-97916000D01*
X131182952Y-97916000D01*
X131178183Y-97915856D01*
X131140840Y-97913597D01*
X131140839Y-97913597D01*
X131140837Y-97913597D01*
X131134786Y-97914706D01*
X131120547Y-97916000D01*
X130433937Y-97916000D01*
X130383157Y-97897518D01*
X130378076Y-97892861D01*
X127640145Y-95154929D01*
X127617307Y-95105953D01*
X127631293Y-95053755D01*
X127675559Y-95022760D01*
X127708363Y-95021041D01*
X127768810Y-95030615D01*
X127799999Y-95035555D01*
X127800000Y-95035555D01*
X127800002Y-95035555D01*
X127894451Y-95020595D01*
X127926868Y-95015461D01*
X128041318Y-94957146D01*
X128132146Y-94866318D01*
X128139372Y-94852135D01*
X128178893Y-94815281D01*
X128209762Y-94809000D01*
X128926101Y-94809000D01*
X128940340Y-94810293D01*
X128961442Y-94814161D01*
X128997170Y-94803026D01*
X129001709Y-94801761D01*
X129038068Y-94792800D01*
X129038072Y-94792796D01*
X129043141Y-94790135D01*
X129048033Y-94787177D01*
X129048039Y-94787176D01*
X129074494Y-94760719D01*
X129077953Y-94757464D01*
X129084270Y-94751868D01*
X129105961Y-94732652D01*
X129105961Y-94732649D01*
X129109458Y-94727585D01*
X129118608Y-94716605D01*
X129888208Y-93947005D01*
X129899188Y-93937855D01*
X129916848Y-93925666D01*
X129934239Y-93892528D01*
X129936568Y-93888399D01*
X129955926Y-93856379D01*
X129955926Y-93856377D01*
X129957626Y-93850922D01*
X129959000Y-93845351D01*
X129959000Y-93807943D01*
X129959144Y-93803174D01*
X129959302Y-93800566D01*
X129961402Y-93765841D01*
X129961400Y-93765837D01*
X129960293Y-93759789D01*
X129959000Y-93745552D01*
X129959000Y-90223196D01*
X129962098Y-90206285D01*
X129963122Y-90197848D01*
X129963125Y-90197843D01*
X129959576Y-90168612D01*
X129959000Y-90159091D01*
X129959000Y-89730225D01*
X129977482Y-89679445D01*
X129982139Y-89674364D01*
X130682719Y-88973784D01*
X131391799Y-88264703D01*
X131440774Y-88241866D01*
X131492972Y-88255852D01*
X131523967Y-88300118D01*
X131519257Y-88353952D01*
X131518050Y-88356428D01*
X131509539Y-88373132D01*
X131509537Y-88373138D01*
X131489445Y-88499997D01*
X131489445Y-88500002D01*
X131509537Y-88626861D01*
X131509538Y-88626864D01*
X131509539Y-88626868D01*
X131562870Y-88731537D01*
X131567855Y-88741320D01*
X131658679Y-88832144D01*
X131658681Y-88832145D01*
X131658682Y-88832146D01*
X131773132Y-88890461D01*
X131773137Y-88890461D01*
X131773138Y-88890462D01*
X131899998Y-88910555D01*
X131900000Y-88910555D01*
X131900002Y-88910555D01*
X132007794Y-88893482D01*
X132026868Y-88890461D01*
X132141318Y-88832146D01*
X132232146Y-88741318D01*
X132290461Y-88626868D01*
X132297956Y-88579546D01*
X132310555Y-88500002D01*
X132310555Y-88499997D01*
X132290462Y-88373138D01*
X132290461Y-88373137D01*
X132290461Y-88373132D01*
X132232146Y-88258682D01*
X132232145Y-88258681D01*
X132232144Y-88258679D01*
X132142326Y-88168861D01*
X132119488Y-88119885D01*
X132133474Y-88067687D01*
X132177740Y-88036692D01*
X132198187Y-88034000D01*
X132251101Y-88034000D01*
X132265340Y-88035293D01*
X132286442Y-88039161D01*
X132322170Y-88028026D01*
X132326709Y-88026761D01*
X132363068Y-88017800D01*
X132363072Y-88017796D01*
X132368141Y-88015135D01*
X132373033Y-88012177D01*
X132373039Y-88012176D01*
X132399494Y-87985719D01*
X132402953Y-87982464D01*
X132411427Y-87974957D01*
X132430961Y-87957652D01*
X132430961Y-87957649D01*
X132434458Y-87952585D01*
X132443608Y-87941605D01*
X133004252Y-87380961D01*
X133053227Y-87358124D01*
X133072470Y-87358796D01*
X133162498Y-87373055D01*
X133162500Y-87373055D01*
X133162502Y-87373055D01*
X133256951Y-87358095D01*
X133289368Y-87352961D01*
X133403818Y-87294646D01*
X133494646Y-87203818D01*
X133552961Y-87089368D01*
X133559512Y-87048009D01*
X133573055Y-86962502D01*
X133573055Y-86962497D01*
X133552962Y-86835638D01*
X133552961Y-86835637D01*
X133552961Y-86835632D01*
X133517810Y-86766644D01*
X133511224Y-86713008D01*
X133540656Y-86667687D01*
X133564688Y-86655359D01*
X133568137Y-86654283D01*
X133572151Y-86653032D01*
X133576709Y-86651761D01*
X133613068Y-86642800D01*
X133613072Y-86642796D01*
X133618141Y-86640135D01*
X133623033Y-86637177D01*
X133623039Y-86637176D01*
X133649494Y-86610719D01*
X133652953Y-86607464D01*
X133680961Y-86582652D01*
X133680961Y-86582649D01*
X133684458Y-86577585D01*
X133693608Y-86566605D01*
X135213208Y-85047005D01*
X135224188Y-85037855D01*
X135241848Y-85025666D01*
X135259239Y-84992528D01*
X135261568Y-84988399D01*
X135280926Y-84956379D01*
X135280926Y-84956377D01*
X135282626Y-84950922D01*
X135284000Y-84945351D01*
X135284000Y-84907943D01*
X135284144Y-84903174D01*
X135284861Y-84891318D01*
X135286402Y-84865841D01*
X135286400Y-84865837D01*
X135285293Y-84859789D01*
X135284000Y-84845552D01*
X135284000Y-84751944D01*
X135297983Y-84707069D01*
X135364296Y-84610996D01*
X135373451Y-84600012D01*
X135394107Y-84579356D01*
X135432146Y-84541318D01*
X135490461Y-84426868D01*
X135497301Y-84383682D01*
X135510555Y-84300002D01*
X135510555Y-84299997D01*
X135490462Y-84173138D01*
X135490461Y-84173137D01*
X135490461Y-84173132D01*
X135432146Y-84058682D01*
X135373447Y-83999983D01*
X135364298Y-83989005D01*
X135355470Y-83976215D01*
X135292862Y-83885511D01*
X135180073Y-83785588D01*
X135175045Y-83782949D01*
X135138673Y-83742986D01*
X135136498Y-83688991D01*
X135169539Y-83646230D01*
X135211761Y-83634000D01*
X136266063Y-83634000D01*
X136316843Y-83652482D01*
G37*
G04 #@! TD.AperFunction*
G04 #@! TA.AperFunction,Conductor*
G36*
X128085343Y-97370982D02*
G01*
X128090424Y-97375639D01*
X129474701Y-98759916D01*
X129497539Y-98808892D01*
X129496867Y-98828135D01*
X129489445Y-98874997D01*
X129489445Y-98875003D01*
X129509537Y-99001861D01*
X129509538Y-99001864D01*
X129509539Y-99001868D01*
X129523649Y-99029560D01*
X129531330Y-99044635D01*
X129537915Y-99098272D01*
X129508483Y-99143593D01*
X129460940Y-99159500D01*
X128952437Y-99159500D01*
X128901657Y-99141018D01*
X128896576Y-99136361D01*
X127247577Y-97487361D01*
X127224739Y-97438385D01*
X127238725Y-97386187D01*
X127282991Y-97355192D01*
X127303438Y-97352500D01*
X128034563Y-97352500D01*
X128085343Y-97370982D01*
G37*
G04 #@! TD.AperFunction*
G04 #@! TA.AperFunction,Conductor*
G36*
X136513388Y-85442878D02*
G01*
X136585800Y-85454346D01*
X136625000Y-85460555D01*
X136627515Y-85460156D01*
X136629566Y-85460555D01*
X136631217Y-85460555D01*
X136631217Y-85460875D01*
X136680560Y-85470464D01*
X136714570Y-85512458D01*
X136713631Y-85566490D01*
X136695737Y-85594044D01*
X136686786Y-85602995D01*
X136675805Y-85612148D01*
X136658151Y-85624334D01*
X136640769Y-85657452D01*
X136638427Y-85661604D01*
X136619073Y-85693621D01*
X136617369Y-85699089D01*
X136616000Y-85704646D01*
X136616000Y-85742046D01*
X136615856Y-85746816D01*
X136613597Y-85784160D01*
X136614706Y-85790212D01*
X136616000Y-85804452D01*
X136616000Y-86991062D01*
X136597518Y-87041842D01*
X136592871Y-87046912D01*
X136494432Y-87145352D01*
X136408246Y-87231538D01*
X136359270Y-87254375D01*
X136340027Y-87253703D01*
X136250002Y-87239445D01*
X136249998Y-87239445D01*
X136123138Y-87259537D01*
X136123133Y-87259538D01*
X136123132Y-87259539D01*
X136090003Y-87276419D01*
X136008679Y-87317855D01*
X135917855Y-87408679D01*
X135905493Y-87432942D01*
X135859539Y-87523132D01*
X135859539Y-87523133D01*
X135859537Y-87523138D01*
X135839445Y-87649997D01*
X135839445Y-87650002D01*
X135859537Y-87776861D01*
X135859538Y-87776864D01*
X135859539Y-87776868D01*
X135916784Y-87889219D01*
X135917855Y-87891320D01*
X136008679Y-87982144D01*
X136008681Y-87982145D01*
X136008682Y-87982146D01*
X136072866Y-88014849D01*
X136109720Y-88054370D01*
X136116000Y-88085238D01*
X136116000Y-89751100D01*
X136114706Y-89765340D01*
X136110838Y-89786442D01*
X136110839Y-89786444D01*
X136121964Y-89822148D01*
X136123245Y-89826741D01*
X136132199Y-89863068D01*
X136134851Y-89868120D01*
X136137823Y-89873037D01*
X136137824Y-89873039D01*
X136164280Y-89899495D01*
X136167535Y-89902953D01*
X136172610Y-89908682D01*
X136192348Y-89930961D01*
X136192349Y-89930961D01*
X136197412Y-89934456D01*
X136208394Y-89943610D01*
X137505343Y-91240559D01*
X137528181Y-91289535D01*
X137514195Y-91341733D01*
X137469929Y-91372728D01*
X137461841Y-91374447D01*
X137398138Y-91384537D01*
X137398133Y-91384538D01*
X137398132Y-91384539D01*
X137341956Y-91413161D01*
X137283679Y-91442855D01*
X137192855Y-91533679D01*
X137179680Y-91559537D01*
X137134539Y-91648132D01*
X137134539Y-91648133D01*
X137134537Y-91648138D01*
X137114445Y-91774997D01*
X137114445Y-91775002D01*
X137134537Y-91901861D01*
X137134538Y-91901864D01*
X137134539Y-91901868D01*
X137191784Y-92014219D01*
X137192855Y-92016320D01*
X137283679Y-92107144D01*
X137283681Y-92107145D01*
X137283682Y-92107146D01*
X137347866Y-92139849D01*
X137384720Y-92179370D01*
X137391000Y-92210238D01*
X137391000Y-92214252D01*
X137372518Y-92265032D01*
X137325718Y-92292052D01*
X137276135Y-92284642D01*
X137226868Y-92259539D01*
X137226864Y-92259538D01*
X137226861Y-92259537D01*
X137100002Y-92239445D01*
X137099998Y-92239445D01*
X136973138Y-92259537D01*
X136973133Y-92259538D01*
X136973132Y-92259539D01*
X136916956Y-92288161D01*
X136858679Y-92317855D01*
X136767855Y-92408679D01*
X136759237Y-92425593D01*
X136709539Y-92523132D01*
X136709539Y-92523133D01*
X136709537Y-92523138D01*
X136699774Y-92584779D01*
X136673575Y-92632042D01*
X136623125Y-92651408D01*
X136591515Y-92645406D01*
X136480242Y-92599315D01*
X136480233Y-92599312D01*
X136367722Y-92584500D01*
X136367720Y-92584500D01*
X136292280Y-92584500D01*
X136292278Y-92584500D01*
X136179766Y-92599312D01*
X136179757Y-92599315D01*
X136039771Y-92657299D01*
X136039767Y-92657302D01*
X135919548Y-92749548D01*
X135827302Y-92869767D01*
X135827299Y-92869771D01*
X135769315Y-93009757D01*
X135769312Y-93009766D01*
X135749534Y-93159999D01*
X135749534Y-93160000D01*
X135769312Y-93310233D01*
X135769315Y-93310242D01*
X135827299Y-93450228D01*
X135827301Y-93450230D01*
X135827302Y-93450233D01*
X135851675Y-93481996D01*
X135919548Y-93570451D01*
X135948745Y-93592854D01*
X136039767Y-93662698D01*
X136039769Y-93662699D01*
X136039771Y-93662700D01*
X136115430Y-93694039D01*
X136179764Y-93720687D01*
X136236022Y-93728093D01*
X136292278Y-93735500D01*
X136292280Y-93735500D01*
X136367722Y-93735500D01*
X136412726Y-93729574D01*
X136480236Y-93720687D01*
X136620233Y-93662698D01*
X136740451Y-93570451D01*
X136774326Y-93526304D01*
X136819901Y-93497270D01*
X136873478Y-93504323D01*
X136909986Y-93544164D01*
X136916000Y-93574397D01*
X136916000Y-93916060D01*
X136897518Y-93966840D01*
X136892861Y-93971922D01*
X136558244Y-94306538D01*
X136509268Y-94329375D01*
X136490025Y-94328703D01*
X136400002Y-94314445D01*
X136399998Y-94314445D01*
X136273138Y-94334537D01*
X136273133Y-94334538D01*
X136273132Y-94334539D01*
X136241972Y-94350416D01*
X136158679Y-94392855D01*
X136067855Y-94483679D01*
X136040971Y-94536443D01*
X136009539Y-94598132D01*
X136009539Y-94598133D01*
X136009537Y-94598138D01*
X135989445Y-94724997D01*
X135989445Y-94725002D01*
X136009537Y-94851861D01*
X136009538Y-94851864D01*
X136009539Y-94851868D01*
X136036293Y-94904375D01*
X136067855Y-94966320D01*
X136083174Y-94981639D01*
X136106012Y-95030615D01*
X136092026Y-95082813D01*
X136083174Y-95093361D01*
X136067855Y-95108679D01*
X136044290Y-95154929D01*
X136009539Y-95223132D01*
X136009539Y-95223133D01*
X136009537Y-95223138D01*
X135989445Y-95349997D01*
X135989445Y-95350002D01*
X136009537Y-95476861D01*
X136009538Y-95476864D01*
X136009539Y-95476868D01*
X136059879Y-95575666D01*
X136067855Y-95591320D01*
X136158679Y-95682144D01*
X136158681Y-95682145D01*
X136158682Y-95682146D01*
X136273132Y-95740461D01*
X136273137Y-95740461D01*
X136273138Y-95740462D01*
X136380003Y-95757388D01*
X136427267Y-95783586D01*
X136446633Y-95834036D01*
X136429040Y-95885131D01*
X136423507Y-95891276D01*
X135696922Y-96617861D01*
X135647947Y-96640699D01*
X135641062Y-96641000D01*
X133035272Y-96641000D01*
X132984492Y-96622518D01*
X132957472Y-96575718D01*
X132964882Y-96526135D01*
X133015461Y-96426868D01*
X133034044Y-96309539D01*
X133035555Y-96300002D01*
X133035555Y-96299997D01*
X133021296Y-96209970D01*
X133031607Y-96156924D01*
X133043458Y-96141755D01*
X133588208Y-95597005D01*
X133599188Y-95587855D01*
X133616848Y-95575666D01*
X133634226Y-95542553D01*
X133636563Y-95538407D01*
X133655926Y-95506379D01*
X133655926Y-95506376D01*
X133657628Y-95500911D01*
X133659000Y-95495351D01*
X133659000Y-95457952D01*
X133659144Y-95453182D01*
X133661403Y-95415840D01*
X133661401Y-95415836D01*
X133660293Y-95409783D01*
X133659000Y-95395546D01*
X133659000Y-88283936D01*
X133677482Y-88233156D01*
X133682128Y-88228086D01*
X136445170Y-85465043D01*
X136494145Y-85442206D01*
X136513388Y-85442878D01*
G37*
G04 #@! TD.AperFunction*
G04 #@! TA.AperFunction,Conductor*
G36*
X132783901Y-86677482D02*
G01*
X132810921Y-86724282D01*
X132803511Y-86773864D01*
X132772039Y-86835632D01*
X132772039Y-86835633D01*
X132772037Y-86835638D01*
X132751945Y-86962497D01*
X132751945Y-86962502D01*
X132766203Y-87052526D01*
X132755892Y-87105572D01*
X132744037Y-87120745D01*
X132221922Y-87642861D01*
X132172947Y-87665699D01*
X132166062Y-87666000D01*
X131570188Y-87666000D01*
X131555949Y-87664706D01*
X131553682Y-87664290D01*
X131534845Y-87660838D01*
X131534842Y-87660839D01*
X131499136Y-87671965D01*
X131494542Y-87673246D01*
X131458218Y-87682199D01*
X131453147Y-87684861D01*
X131448249Y-87687821D01*
X131421798Y-87714273D01*
X131418325Y-87717542D01*
X131390325Y-87742348D01*
X131386830Y-87747412D01*
X131377679Y-87758391D01*
X131240038Y-87896032D01*
X131191062Y-87918870D01*
X131138864Y-87904884D01*
X131107869Y-87860618D01*
X131106150Y-87827812D01*
X131110555Y-87800001D01*
X131110555Y-87799997D01*
X131090462Y-87673138D01*
X131090461Y-87673137D01*
X131090461Y-87673132D01*
X131032146Y-87558682D01*
X131032145Y-87558681D01*
X131032144Y-87558679D01*
X130941320Y-87467855D01*
X130926993Y-87460555D01*
X130826868Y-87409539D01*
X130826864Y-87409538D01*
X130826861Y-87409537D01*
X130700002Y-87389445D01*
X130699998Y-87389445D01*
X130573138Y-87409537D01*
X130573133Y-87409538D01*
X130573132Y-87409539D01*
X130536561Y-87428173D01*
X130458679Y-87467855D01*
X130367855Y-87558679D01*
X130351356Y-87591061D01*
X130309539Y-87673132D01*
X130309539Y-87673133D01*
X130309537Y-87673138D01*
X130289445Y-87799997D01*
X130289445Y-87800002D01*
X130309537Y-87926861D01*
X130309538Y-87926864D01*
X130309539Y-87926868D01*
X130364125Y-88034000D01*
X130367855Y-88041320D01*
X130458679Y-88132144D01*
X130458681Y-88132145D01*
X130458682Y-88132146D01*
X130573132Y-88190461D01*
X130573137Y-88190461D01*
X130573138Y-88190462D01*
X130699998Y-88210555D01*
X130700000Y-88210555D01*
X130700001Y-88210555D01*
X130727812Y-88206150D01*
X130780859Y-88216461D01*
X130814867Y-88258457D01*
X130813924Y-88312488D01*
X130796032Y-88340038D01*
X129661789Y-89474281D01*
X129650808Y-89483434D01*
X129633151Y-89495622D01*
X129615769Y-89528740D01*
X129613427Y-89532892D01*
X129594073Y-89564909D01*
X129592369Y-89570377D01*
X129591000Y-89575934D01*
X129591000Y-89613334D01*
X129590856Y-89618104D01*
X129588597Y-89655448D01*
X129589706Y-89661500D01*
X129591000Y-89675740D01*
X129591000Y-89794044D01*
X129572518Y-89844824D01*
X129525718Y-89871844D01*
X129472500Y-89862460D01*
X129446984Y-89838921D01*
X129392862Y-89760511D01*
X129280073Y-89660588D01*
X129190037Y-89613334D01*
X129146647Y-89590561D01*
X129000345Y-89554500D01*
X129000342Y-89554500D01*
X128849658Y-89554500D01*
X128849654Y-89554500D01*
X128703353Y-89590561D01*
X128703352Y-89590561D01*
X128569927Y-89660588D01*
X128569924Y-89660590D01*
X128457138Y-89760510D01*
X128371537Y-89884525D01*
X128318106Y-90025412D01*
X128299943Y-90174999D01*
X128299943Y-90175000D01*
X128318106Y-90324587D01*
X128371537Y-90465474D01*
X128445119Y-90572076D01*
X128457138Y-90589489D01*
X128569927Y-90689412D01*
X128703352Y-90759438D01*
X128849658Y-90795500D01*
X129000342Y-90795500D01*
X129146648Y-90759438D01*
X129280073Y-90689412D01*
X129392862Y-90589489D01*
X129446985Y-90511076D01*
X129491041Y-90479786D01*
X129544905Y-90484134D01*
X129583372Y-90522088D01*
X129591000Y-90555955D01*
X129591000Y-93291391D01*
X129572518Y-93342171D01*
X129525718Y-93369191D01*
X129472500Y-93359807D01*
X129441611Y-93327257D01*
X129435600Y-93315461D01*
X129432146Y-93308682D01*
X129432145Y-93308681D01*
X129432145Y-93308680D01*
X129341320Y-93217855D01*
X129337942Y-93216134D01*
X129226868Y-93159539D01*
X129226864Y-93159538D01*
X129226861Y-93159537D01*
X129100002Y-93139445D01*
X129099998Y-93139445D01*
X128973138Y-93159537D01*
X128973133Y-93159538D01*
X128973132Y-93159539D01*
X128929582Y-93181729D01*
X128858679Y-93217855D01*
X128768361Y-93308174D01*
X128719385Y-93331012D01*
X128667187Y-93317026D01*
X128656639Y-93308174D01*
X128566320Y-93217855D01*
X128562942Y-93216134D01*
X128451868Y-93159539D01*
X128451864Y-93159538D01*
X128451861Y-93159537D01*
X128325002Y-93139445D01*
X128324998Y-93139445D01*
X128198138Y-93159537D01*
X128198133Y-93159538D01*
X128198132Y-93159539D01*
X128154582Y-93181729D01*
X128087057Y-93216134D01*
X128079737Y-93217032D01*
X128076510Y-93224901D01*
X128073944Y-93227591D01*
X127992854Y-93308681D01*
X127975643Y-93342461D01*
X127934539Y-93423132D01*
X127934539Y-93423133D01*
X127934537Y-93423138D01*
X127914445Y-93549997D01*
X127914445Y-93550002D01*
X127934537Y-93676861D01*
X127934538Y-93676864D01*
X127934539Y-93676868D01*
X127983766Y-93773482D01*
X127992855Y-93791320D01*
X128083679Y-93882144D01*
X128083681Y-93882145D01*
X128083682Y-93882146D01*
X128198132Y-93940461D01*
X128198137Y-93940461D01*
X128198138Y-93940462D01*
X128324998Y-93960555D01*
X128325000Y-93960555D01*
X128325002Y-93960555D01*
X128419451Y-93945595D01*
X128451868Y-93940461D01*
X128566318Y-93882146D01*
X128609906Y-93838558D01*
X128656639Y-93791826D01*
X128705615Y-93768988D01*
X128757813Y-93782974D01*
X128768361Y-93791826D01*
X128858679Y-93882144D01*
X128858681Y-93882145D01*
X128858682Y-93882146D01*
X128973132Y-93940461D01*
X128973137Y-93940461D01*
X128973138Y-93940462D01*
X129099998Y-93960555D01*
X129100000Y-93960555D01*
X129100001Y-93960555D01*
X129118579Y-93957612D01*
X129161930Y-93950746D01*
X129214975Y-93961056D01*
X129248984Y-94003052D01*
X129248041Y-94057083D01*
X129230150Y-94084634D01*
X128896922Y-94417861D01*
X128847947Y-94440699D01*
X128841062Y-94441000D01*
X128209762Y-94441000D01*
X128158982Y-94422518D01*
X128139372Y-94397864D01*
X128132145Y-94383680D01*
X128041320Y-94292855D01*
X128024918Y-94284498D01*
X127926868Y-94234539D01*
X127926864Y-94234538D01*
X127926861Y-94234537D01*
X127800002Y-94214445D01*
X127799998Y-94214445D01*
X127673138Y-94234537D01*
X127673133Y-94234538D01*
X127673132Y-94234539D01*
X127628763Y-94257146D01*
X127558679Y-94292855D01*
X127467855Y-94383679D01*
X127445180Y-94428182D01*
X127409539Y-94498132D01*
X127409539Y-94498133D01*
X127409537Y-94498138D01*
X127389445Y-94624997D01*
X127389445Y-94625002D01*
X127403958Y-94716635D01*
X127393647Y-94769681D01*
X127351651Y-94803689D01*
X127297620Y-94802746D01*
X127270070Y-94784854D01*
X127007139Y-94521923D01*
X126984301Y-94472947D01*
X126984000Y-94466062D01*
X126984000Y-93834761D01*
X127002482Y-93783981D01*
X127027132Y-93764373D01*
X127041318Y-93757146D01*
X127132146Y-93666318D01*
X127190461Y-93551868D01*
X127199124Y-93497173D01*
X127210555Y-93425002D01*
X127210555Y-93424997D01*
X127190462Y-93298138D01*
X127190461Y-93298133D01*
X127190461Y-93298132D01*
X127158478Y-93235363D01*
X127151894Y-93181729D01*
X127181326Y-93136408D01*
X127228869Y-93120500D01*
X127864601Y-93120500D01*
X127878840Y-93121793D01*
X127899942Y-93125661D01*
X127935670Y-93114526D01*
X127940209Y-93113261D01*
X127976568Y-93104300D01*
X127976570Y-93104297D01*
X127981364Y-93101782D01*
X127989683Y-93100657D01*
X127993416Y-93091866D01*
X127995311Y-93089903D01*
X128012979Y-93072235D01*
X128016453Y-93068964D01*
X128044461Y-93044152D01*
X128044461Y-93044149D01*
X128047958Y-93039085D01*
X128057108Y-93028105D01*
X128244979Y-92840234D01*
X128293954Y-92817397D01*
X128337551Y-92826145D01*
X128353352Y-92834438D01*
X128353354Y-92834438D01*
X128353355Y-92834439D01*
X128426034Y-92852353D01*
X128499658Y-92870500D01*
X128650342Y-92870500D01*
X128796648Y-92834438D01*
X128930073Y-92764412D01*
X129042862Y-92664489D01*
X129128460Y-92540478D01*
X129135037Y-92523138D01*
X129163438Y-92448250D01*
X129181894Y-92399586D01*
X129200057Y-92250000D01*
X129181894Y-92100414D01*
X129150001Y-92016320D01*
X129128462Y-91959525D01*
X129121885Y-91949997D01*
X129042862Y-91835511D01*
X128930073Y-91735588D01*
X128834658Y-91685511D01*
X128796647Y-91665561D01*
X128650345Y-91629500D01*
X128650342Y-91629500D01*
X128499658Y-91629500D01*
X128499654Y-91629500D01*
X128353353Y-91665561D01*
X128353352Y-91665561D01*
X128219927Y-91735588D01*
X128219924Y-91735590D01*
X128107138Y-91835510D01*
X128021537Y-91959525D01*
X127968106Y-92100412D01*
X127949943Y-92249999D01*
X127949943Y-92250000D01*
X127968106Y-92399587D01*
X128004187Y-92494724D01*
X128004913Y-92548758D01*
X127986183Y-92578599D01*
X127835423Y-92729361D01*
X127786447Y-92752199D01*
X127779561Y-92752500D01*
X126857510Y-92752500D01*
X126806730Y-92734018D01*
X126779710Y-92687218D01*
X126789094Y-92634000D01*
X126805123Y-92614368D01*
X126836729Y-92586367D01*
X126917862Y-92514489D01*
X127003460Y-92390478D01*
X127014809Y-92360555D01*
X127031003Y-92317854D01*
X127056894Y-92249586D01*
X127075057Y-92100000D01*
X127056894Y-91950414D01*
X127037931Y-91900414D01*
X127003462Y-91809525D01*
X126941126Y-91719215D01*
X126917862Y-91685511D01*
X126805073Y-91585588D01*
X126709805Y-91535588D01*
X126671647Y-91515561D01*
X126525345Y-91479500D01*
X126525342Y-91479500D01*
X126374658Y-91479500D01*
X126374654Y-91479500D01*
X126228355Y-91515560D01*
X126212550Y-91523855D01*
X126158997Y-91531086D01*
X126119977Y-91509761D01*
X126107136Y-91496920D01*
X126084300Y-91447943D01*
X126084000Y-91441061D01*
X126084000Y-89756397D01*
X126102482Y-89705617D01*
X126107139Y-89700536D01*
X126150467Y-89657208D01*
X126199443Y-89634370D01*
X126251641Y-89648356D01*
X126282636Y-89692622D01*
X126284355Y-89700710D01*
X126284537Y-89701861D01*
X126284538Y-89701864D01*
X126284539Y-89701868D01*
X126339948Y-89810615D01*
X126342855Y-89816320D01*
X126433679Y-89907144D01*
X126433681Y-89907145D01*
X126433682Y-89907146D01*
X126548132Y-89965461D01*
X126548137Y-89965461D01*
X126548138Y-89965462D01*
X126674998Y-89985555D01*
X126675000Y-89985555D01*
X126675002Y-89985555D01*
X126769451Y-89970595D01*
X126801868Y-89965461D01*
X126916318Y-89907146D01*
X127007146Y-89816318D01*
X127065461Y-89701868D01*
X127071999Y-89660588D01*
X127085555Y-89575002D01*
X127085555Y-89574997D01*
X127065462Y-89448138D01*
X127065461Y-89448137D01*
X127065461Y-89448132D01*
X127007146Y-89333682D01*
X127007145Y-89333681D01*
X127007144Y-89333679D01*
X126916320Y-89242855D01*
X126891589Y-89230254D01*
X126801868Y-89184539D01*
X126801865Y-89184538D01*
X126801860Y-89184536D01*
X126800700Y-89184353D01*
X126799858Y-89183886D01*
X126795952Y-89182617D01*
X126796198Y-89181857D01*
X126753439Y-89158148D01*
X126734080Y-89107696D01*
X126751680Y-89056603D01*
X126757197Y-89050476D01*
X128650536Y-87157139D01*
X128699512Y-87134301D01*
X128706397Y-87134000D01*
X131290238Y-87134000D01*
X131341018Y-87152482D01*
X131360628Y-87177136D01*
X131367854Y-87191319D01*
X131458679Y-87282144D01*
X131458681Y-87282145D01*
X131458682Y-87282146D01*
X131573132Y-87340461D01*
X131573137Y-87340461D01*
X131573138Y-87340462D01*
X131699998Y-87360555D01*
X131700000Y-87360555D01*
X131700002Y-87360555D01*
X131812378Y-87342756D01*
X131826868Y-87340461D01*
X131941318Y-87282146D01*
X132032146Y-87191318D01*
X132090461Y-87076868D01*
X132103186Y-86996525D01*
X132110555Y-86950002D01*
X132110555Y-86949997D01*
X132090462Y-86823138D01*
X132090461Y-86823137D01*
X132090461Y-86823132D01*
X132065357Y-86773864D01*
X132058773Y-86720228D01*
X132088205Y-86674907D01*
X132135748Y-86659000D01*
X132733121Y-86659000D01*
X132783901Y-86677482D01*
G37*
G04 #@! TD.AperFunction*
G04 #@! TA.AperFunction,Conductor*
G36*
X125129551Y-88872984D02*
G01*
X125160546Y-88917250D01*
X125161313Y-88924826D01*
X125161868Y-88924725D01*
X125164706Y-88940212D01*
X125166000Y-88954452D01*
X125166000Y-89727651D01*
X125158738Y-89747603D01*
X125164549Y-89757274D01*
X125166000Y-89772348D01*
X125166000Y-91041062D01*
X125147518Y-91091842D01*
X125142871Y-91096912D01*
X124950249Y-91289535D01*
X124780020Y-91459764D01*
X124731044Y-91482601D01*
X124687446Y-91473853D01*
X124671647Y-91465561D01*
X124525345Y-91429500D01*
X124525342Y-91429500D01*
X124374658Y-91429500D01*
X124374654Y-91429500D01*
X124228353Y-91465561D01*
X124228352Y-91465561D01*
X124094927Y-91535588D01*
X124094924Y-91535590D01*
X123982138Y-91635510D01*
X123978016Y-91641483D01*
X123933958Y-91672775D01*
X123880094Y-91668427D01*
X123841627Y-91630472D01*
X123834000Y-91596606D01*
X123834000Y-90108937D01*
X123852482Y-90058157D01*
X123857127Y-90053087D01*
X124075815Y-89834398D01*
X124124790Y-89811562D01*
X124176987Y-89825548D01*
X124207983Y-89869814D01*
X124209376Y-89876365D01*
X124209538Y-89876864D01*
X124209539Y-89876868D01*
X124253421Y-89962991D01*
X124267855Y-89991320D01*
X124358679Y-90082144D01*
X124358681Y-90082145D01*
X124358682Y-90082146D01*
X124473132Y-90140461D01*
X124473137Y-90140461D01*
X124473138Y-90140462D01*
X124599998Y-90160555D01*
X124600000Y-90160555D01*
X124600002Y-90160555D01*
X124694451Y-90145595D01*
X124726868Y-90140461D01*
X124841318Y-90082146D01*
X124932146Y-89991318D01*
X124990461Y-89876868D01*
X125000223Y-89815236D01*
X125008973Y-89759990D01*
X125012495Y-89753634D01*
X125008973Y-89740009D01*
X124990462Y-89623138D01*
X124990461Y-89623137D01*
X124990461Y-89623132D01*
X124932146Y-89508682D01*
X124932145Y-89508681D01*
X124932144Y-89508679D01*
X124841320Y-89417855D01*
X124839219Y-89416784D01*
X124726868Y-89359539D01*
X124726864Y-89359538D01*
X124720952Y-89357617D01*
X124721438Y-89356120D01*
X124680637Y-89333502D01*
X124661272Y-89283052D01*
X124678867Y-89231957D01*
X124684389Y-89225824D01*
X125028379Y-88881834D01*
X125077353Y-88858998D01*
X125129551Y-88872984D01*
G37*
G04 #@! TD.AperFunction*
G04 #@! TA.AperFunction,Conductor*
G36*
X137777223Y-85675312D02*
G01*
X137808219Y-85719578D01*
X137810767Y-85735255D01*
X137810838Y-85736444D01*
X137821964Y-85772148D01*
X137823245Y-85776741D01*
X137832199Y-85813068D01*
X137834851Y-85818120D01*
X137837823Y-85823037D01*
X137837824Y-85823039D01*
X137837825Y-85823040D01*
X137837827Y-85823043D01*
X137864263Y-85849479D01*
X137867533Y-85852952D01*
X137892346Y-85880960D01*
X137897413Y-85884457D01*
X137908397Y-85893612D01*
X138167861Y-86153076D01*
X138190699Y-86202052D01*
X138191000Y-86208937D01*
X138191000Y-88696000D01*
X138172518Y-88746780D01*
X138125718Y-88773800D01*
X138112000Y-88775000D01*
X137857740Y-88775000D01*
X137806960Y-88756518D01*
X137805353Y-88755132D01*
X137755075Y-88710590D01*
X137755076Y-88710590D01*
X137755073Y-88710588D01*
X137665763Y-88663715D01*
X137621647Y-88640561D01*
X137475345Y-88604500D01*
X137475342Y-88604500D01*
X137444500Y-88604500D01*
X137393720Y-88586018D01*
X137366700Y-88539218D01*
X137365500Y-88525500D01*
X137365500Y-86027437D01*
X137383982Y-85976657D01*
X137388627Y-85971587D01*
X137676051Y-85684163D01*
X137725026Y-85661326D01*
X137777223Y-85675312D01*
G37*
G04 #@! TD.AperFunction*
G04 #@! TA.AperFunction,Conductor*
G36*
X126525823Y-84601004D02*
G01*
X126541337Y-84636949D01*
X126559537Y-84751861D01*
X126559538Y-84751864D01*
X126559539Y-84751868D01*
X126610159Y-84851215D01*
X126617855Y-84866320D01*
X126708679Y-84957144D01*
X126708681Y-84957145D01*
X126708682Y-84957146D01*
X126823132Y-85015461D01*
X126823137Y-85015461D01*
X126823138Y-85015462D01*
X126930004Y-85032388D01*
X126977268Y-85058586D01*
X126996634Y-85109036D01*
X126979041Y-85160131D01*
X126973507Y-85166276D01*
X124315551Y-87824231D01*
X124266575Y-87847069D01*
X124214377Y-87833083D01*
X124183382Y-87788817D01*
X124182988Y-87749456D01*
X124184000Y-87745352D01*
X124184000Y-87707952D01*
X124184144Y-87703182D01*
X124185073Y-87687821D01*
X124186403Y-87665840D01*
X124186401Y-87665836D01*
X124185293Y-87659783D01*
X124184000Y-87645546D01*
X124184000Y-86733936D01*
X124202482Y-86683156D01*
X124207128Y-86678086D01*
X125113208Y-85772005D01*
X125124188Y-85762855D01*
X125141848Y-85750666D01*
X125159226Y-85717553D01*
X125161563Y-85713407D01*
X125180926Y-85681379D01*
X125180926Y-85681376D01*
X125182628Y-85675911D01*
X125184000Y-85670351D01*
X125184000Y-85632952D01*
X125184144Y-85628182D01*
X125185114Y-85612148D01*
X125186403Y-85590840D01*
X125186401Y-85590836D01*
X125185293Y-85584783D01*
X125184000Y-85570546D01*
X125184000Y-84913000D01*
X125202482Y-84862220D01*
X125249282Y-84835200D01*
X125263000Y-84834000D01*
X125476101Y-84834000D01*
X125490340Y-84835293D01*
X125511442Y-84839161D01*
X125547170Y-84828026D01*
X125551709Y-84826761D01*
X125588068Y-84817800D01*
X125588072Y-84817796D01*
X125593141Y-84815135D01*
X125598033Y-84812177D01*
X125598039Y-84812176D01*
X125624494Y-84785719D01*
X125627953Y-84782464D01*
X125634272Y-84776866D01*
X125655961Y-84757652D01*
X125655961Y-84757649D01*
X125659458Y-84752585D01*
X125668608Y-84741605D01*
X125769979Y-84640234D01*
X125818954Y-84617397D01*
X125862551Y-84626145D01*
X125878352Y-84634438D01*
X125878354Y-84634438D01*
X125878355Y-84634439D01*
X125971344Y-84657359D01*
X126024658Y-84670500D01*
X126175342Y-84670500D01*
X126280453Y-84644592D01*
X126321645Y-84634439D01*
X126321645Y-84634438D01*
X126321648Y-84634438D01*
X126426600Y-84579355D01*
X126480149Y-84572123D01*
X126525823Y-84601004D01*
G37*
G04 #@! TD.AperFunction*
G04 #@! TA.AperFunction,Conductor*
G36*
X140939813Y-84237723D02*
G01*
X140970808Y-84281989D01*
X140973500Y-84302436D01*
X140973500Y-86472562D01*
X140955018Y-86523342D01*
X140908218Y-86550362D01*
X140855000Y-86540978D01*
X140838639Y-86528423D01*
X139735441Y-85425225D01*
X139712603Y-85376249D01*
X139726589Y-85324051D01*
X139770855Y-85293056D01*
X139803660Y-85291337D01*
X139924998Y-85310555D01*
X139925000Y-85310555D01*
X139925002Y-85310555D01*
X140046457Y-85291318D01*
X140051868Y-85290461D01*
X140166318Y-85232146D01*
X140257146Y-85141318D01*
X140315461Y-85026868D01*
X140326504Y-84957144D01*
X140335555Y-84900002D01*
X140335555Y-84899997D01*
X140321296Y-84809970D01*
X140331607Y-84756924D01*
X140343458Y-84741755D01*
X140838640Y-84246574D01*
X140887615Y-84223737D01*
X140939813Y-84237723D01*
G37*
G04 #@! TD.AperFunction*
G04 #@! TA.AperFunction,Conductor*
G36*
X124427379Y-84472252D02*
G01*
X124454929Y-84490144D01*
X124727990Y-84763205D01*
X124737144Y-84774188D01*
X124749333Y-84791846D01*
X124749332Y-84791846D01*
X124749334Y-84791848D01*
X124773714Y-84804643D01*
X124810087Y-84844605D01*
X124816000Y-84874593D01*
X124816000Y-85516061D01*
X124797518Y-85566841D01*
X124792861Y-85571922D01*
X123886789Y-86477993D01*
X123875808Y-86487146D01*
X123850260Y-86504782D01*
X123849424Y-86503572D01*
X123811484Y-86524140D01*
X123799859Y-86525000D01*
X123713000Y-86525000D01*
X123662220Y-86506518D01*
X123635200Y-86459718D01*
X123634000Y-86446000D01*
X123634000Y-85085747D01*
X123652482Y-85034967D01*
X123699282Y-85007947D01*
X123748863Y-85015357D01*
X123798132Y-85040461D01*
X123798137Y-85040461D01*
X123798138Y-85040462D01*
X123924998Y-85060555D01*
X123925000Y-85060555D01*
X123925002Y-85060555D01*
X124019451Y-85045595D01*
X124051868Y-85040461D01*
X124166318Y-84982146D01*
X124257146Y-84891318D01*
X124315461Y-84776868D01*
X124324581Y-84719286D01*
X124335555Y-84650002D01*
X124335555Y-84649998D01*
X124321999Y-84564411D01*
X124321041Y-84558363D01*
X124331352Y-84505317D01*
X124373348Y-84471309D01*
X124427379Y-84472252D01*
G37*
G04 #@! TD.AperFunction*
G04 #@! TA.AperFunction,Conductor*
G36*
X123030735Y-82193482D02*
G01*
X123057755Y-82240282D01*
X123058379Y-82244478D01*
X123068106Y-82324587D01*
X123121537Y-82465474D01*
X123185874Y-82558682D01*
X123207138Y-82589489D01*
X123319927Y-82689412D01*
X123431969Y-82748215D01*
X123468343Y-82788179D01*
X123473283Y-82805807D01*
X123484537Y-82876861D01*
X123484538Y-82876864D01*
X123484539Y-82876868D01*
X123538857Y-82983474D01*
X123542855Y-82991320D01*
X123633675Y-83082140D01*
X123633680Y-83082144D01*
X123633682Y-83082146D01*
X123647865Y-83089372D01*
X123684719Y-83128891D01*
X123691000Y-83159761D01*
X123691000Y-83241060D01*
X123672518Y-83291840D01*
X123667861Y-83296922D01*
X123336786Y-83627996D01*
X123325805Y-83637148D01*
X123308151Y-83649334D01*
X123290769Y-83682452D01*
X123288427Y-83686604D01*
X123269073Y-83718621D01*
X123267369Y-83724089D01*
X123266000Y-83729646D01*
X123266000Y-83767046D01*
X123265856Y-83771816D01*
X123263597Y-83809160D01*
X123264706Y-83815212D01*
X123266000Y-83829452D01*
X123266000Y-86201990D01*
X123247518Y-86252770D01*
X123200718Y-86279790D01*
X123151135Y-86272380D01*
X123076868Y-86234539D01*
X123076864Y-86234538D01*
X123076861Y-86234537D01*
X122950002Y-86214445D01*
X122949998Y-86214445D01*
X122823138Y-86234537D01*
X122823133Y-86234538D01*
X122823132Y-86234539D01*
X122748865Y-86272380D01*
X122734365Y-86279768D01*
X122680728Y-86286353D01*
X122635407Y-86256921D01*
X122619500Y-86209378D01*
X122619500Y-82254000D01*
X122637982Y-82203220D01*
X122684782Y-82176200D01*
X122698500Y-82175000D01*
X122979955Y-82175000D01*
X123030735Y-82193482D01*
G37*
G04 #@! TD.AperFunction*
G04 #@! TA.AperFunction,Conductor*
G36*
X140945280Y-75910982D02*
G01*
X140972300Y-75957782D01*
X140973500Y-75971500D01*
X140973500Y-77372561D01*
X140955018Y-77423341D01*
X140908218Y-77450361D01*
X140855000Y-77440977D01*
X140838639Y-77428423D01*
X140793462Y-77383247D01*
X140770624Y-77334271D01*
X140771296Y-77315026D01*
X140785555Y-77225001D01*
X140785555Y-77224997D01*
X140765462Y-77098138D01*
X140765461Y-77098137D01*
X140765461Y-77098132D01*
X140707146Y-76983682D01*
X140707145Y-76983681D01*
X140707144Y-76983679D01*
X140616320Y-76892855D01*
X140614219Y-76891784D01*
X140501868Y-76834539D01*
X140501864Y-76834538D01*
X140501861Y-76834537D01*
X140375002Y-76814445D01*
X140374998Y-76814445D01*
X140248138Y-76834537D01*
X140248133Y-76834538D01*
X140248132Y-76834539D01*
X140193291Y-76862482D01*
X140133679Y-76892855D01*
X140042855Y-76983679D01*
X140026225Y-77016318D01*
X139984539Y-77098132D01*
X139984539Y-77098133D01*
X139984537Y-77098138D01*
X139964445Y-77224997D01*
X139964445Y-77225002D01*
X139984537Y-77351861D01*
X139984538Y-77351864D01*
X139984539Y-77351868D01*
X140023546Y-77428423D01*
X140042855Y-77466320D01*
X140133679Y-77557144D01*
X140133681Y-77557145D01*
X140133682Y-77557146D01*
X140248132Y-77615461D01*
X140248137Y-77615461D01*
X140248138Y-77615462D01*
X140374998Y-77635555D01*
X140375000Y-77635555D01*
X140375001Y-77635555D01*
X140465027Y-77621296D01*
X140518074Y-77631607D01*
X140533247Y-77643462D01*
X140692861Y-77803076D01*
X140715699Y-77852052D01*
X140716000Y-77858937D01*
X140716000Y-81576990D01*
X140697518Y-81627770D01*
X140650718Y-81654790D01*
X140601135Y-81647380D01*
X140526868Y-81609539D01*
X140526864Y-81609538D01*
X140526861Y-81609537D01*
X140400002Y-81589445D01*
X140399998Y-81589445D01*
X140273138Y-81609537D01*
X140273133Y-81609538D01*
X140273132Y-81609539D01*
X140237352Y-81627770D01*
X140158679Y-81667855D01*
X140067855Y-81758679D01*
X140066922Y-81760511D01*
X140009539Y-81873132D01*
X140009539Y-81873133D01*
X140009537Y-81873138D01*
X139989445Y-81999997D01*
X139989445Y-82000002D01*
X140009537Y-82126861D01*
X140009538Y-82126864D01*
X140009539Y-82126868D01*
X140066784Y-82239219D01*
X140067855Y-82241320D01*
X140158675Y-82332140D01*
X140158680Y-82332144D01*
X140158682Y-82332146D01*
X140172865Y-82339372D01*
X140209719Y-82378891D01*
X140216000Y-82409761D01*
X140216000Y-83591061D01*
X140197518Y-83641841D01*
X140192861Y-83646922D01*
X139211789Y-84627993D01*
X139200808Y-84637146D01*
X139183151Y-84649334D01*
X139165769Y-84682452D01*
X139163427Y-84686604D01*
X139144073Y-84718621D01*
X139142369Y-84724089D01*
X139141000Y-84729646D01*
X139141000Y-84767046D01*
X139140856Y-84771816D01*
X139138597Y-84809160D01*
X139139706Y-84815212D01*
X139141000Y-84829452D01*
X139141000Y-85190062D01*
X139122518Y-85240842D01*
X139075718Y-85267862D01*
X139022500Y-85258478D01*
X139006139Y-85245923D01*
X138932139Y-85171923D01*
X138909301Y-85122947D01*
X138909000Y-85116062D01*
X138909000Y-83353234D01*
X138927482Y-83302454D01*
X138974282Y-83275434D01*
X139027500Y-83284818D01*
X139053263Y-83311968D01*
X139054199Y-83311288D01*
X139057854Y-83316319D01*
X139148679Y-83407144D01*
X139148681Y-83407145D01*
X139148682Y-83407146D01*
X139263132Y-83465461D01*
X139263137Y-83465461D01*
X139263138Y-83465462D01*
X139389998Y-83485555D01*
X139390000Y-83485555D01*
X139390002Y-83485555D01*
X139516230Y-83465562D01*
X139516868Y-83465461D01*
X139631318Y-83407146D01*
X139722146Y-83316318D01*
X139780461Y-83201868D01*
X139787130Y-83159761D01*
X139800555Y-83075002D01*
X139800555Y-83074997D01*
X139780462Y-82948138D01*
X139780461Y-82948137D01*
X139780461Y-82948132D01*
X139722146Y-82833682D01*
X139722145Y-82833681D01*
X139722144Y-82833679D01*
X139631319Y-82742854D01*
X139631316Y-82742852D01*
X139527135Y-82689769D01*
X139490280Y-82650248D01*
X139484000Y-82619380D01*
X139484000Y-78813898D01*
X139485294Y-78799657D01*
X139485490Y-78798589D01*
X139489161Y-78778558D01*
X139478029Y-78742836D01*
X139476759Y-78738282D01*
X139467800Y-78701932D01*
X139467798Y-78701930D01*
X139465143Y-78696870D01*
X139462176Y-78691961D01*
X139435717Y-78665502D01*
X139432462Y-78662044D01*
X139427683Y-78656650D01*
X139407652Y-78634039D01*
X139402582Y-78630539D01*
X139391604Y-78621388D01*
X137339077Y-76568861D01*
X137316239Y-76519885D01*
X137330225Y-76467687D01*
X137374491Y-76436692D01*
X137394938Y-76434000D01*
X138164728Y-76434000D01*
X138215508Y-76452482D01*
X138242528Y-76499282D01*
X138235118Y-76548864D01*
X138184539Y-76648132D01*
X138184539Y-76648133D01*
X138184537Y-76648138D01*
X138164445Y-76774997D01*
X138164445Y-76775002D01*
X138184537Y-76901861D01*
X138184538Y-76901864D01*
X138184539Y-76901868D01*
X138226224Y-76983679D01*
X138242855Y-77016320D01*
X138333679Y-77107144D01*
X138333681Y-77107145D01*
X138333682Y-77107146D01*
X138448132Y-77165461D01*
X138448137Y-77165461D01*
X138448138Y-77165462D01*
X138574998Y-77185555D01*
X138575000Y-77185555D01*
X138575002Y-77185555D01*
X138669451Y-77170595D01*
X138701868Y-77165461D01*
X138816318Y-77107146D01*
X138907146Y-77016318D01*
X138965461Y-76901868D01*
X138974579Y-76844301D01*
X138985555Y-76775002D01*
X138985555Y-76774997D01*
X138965462Y-76648138D01*
X138965461Y-76648137D01*
X138965461Y-76648132D01*
X138914881Y-76548864D01*
X138908297Y-76495228D01*
X138937729Y-76449907D01*
X138985272Y-76434000D01*
X139015238Y-76434000D01*
X139066018Y-76452482D01*
X139085628Y-76477136D01*
X139092854Y-76491319D01*
X139183679Y-76582144D01*
X139183681Y-76582145D01*
X139183682Y-76582146D01*
X139298132Y-76640461D01*
X139298137Y-76640461D01*
X139298138Y-76640462D01*
X139424998Y-76660555D01*
X139425000Y-76660555D01*
X139425002Y-76660555D01*
X139519451Y-76645595D01*
X139551868Y-76640461D01*
X139666318Y-76582146D01*
X139757146Y-76491318D01*
X139815461Y-76376868D01*
X139826470Y-76307358D01*
X139835555Y-76250002D01*
X139835555Y-76249997D01*
X139815462Y-76123138D01*
X139815461Y-76123137D01*
X139815461Y-76123132D01*
X139757146Y-76008682D01*
X139756475Y-76007365D01*
X139749890Y-75953728D01*
X139779322Y-75908407D01*
X139826865Y-75892500D01*
X140894500Y-75892500D01*
X140945280Y-75910982D01*
G37*
G04 #@! TD.AperFunction*
G04 #@! TA.AperFunction,Conductor*
G36*
X131065841Y-83252482D02*
G01*
X131092861Y-83299282D01*
X131083477Y-83352500D01*
X131070922Y-83368861D01*
X130555020Y-83884763D01*
X130506044Y-83907601D01*
X130462446Y-83898853D01*
X130446647Y-83890561D01*
X130300345Y-83854500D01*
X130300342Y-83854500D01*
X130149658Y-83854500D01*
X130149654Y-83854500D01*
X130003353Y-83890561D01*
X130003352Y-83890561D01*
X129869927Y-83960588D01*
X129869924Y-83960590D01*
X129757138Y-84060510D01*
X129671537Y-84184525D01*
X129618106Y-84325412D01*
X129599943Y-84474999D01*
X129599943Y-84475000D01*
X129618106Y-84624587D01*
X129671537Y-84765474D01*
X129738316Y-84862220D01*
X129757138Y-84889489D01*
X129869927Y-84989412D01*
X129919364Y-85015358D01*
X129922586Y-85017049D01*
X129958960Y-85057013D01*
X129961137Y-85111008D01*
X129928096Y-85153770D01*
X129885873Y-85166000D01*
X127698899Y-85166000D01*
X127684655Y-85164705D01*
X127672855Y-85162542D01*
X127626240Y-85135207D01*
X127608101Y-85084303D01*
X127626926Y-85033649D01*
X127631226Y-85028988D01*
X127994780Y-84665434D01*
X128043755Y-84642597D01*
X128069546Y-84644592D01*
X128140246Y-84662018D01*
X128174658Y-84670500D01*
X128325342Y-84670500D01*
X128471648Y-84634438D01*
X128605073Y-84564412D01*
X128717862Y-84464489D01*
X128803460Y-84340478D01*
X128808870Y-84326215D01*
X128834235Y-84259332D01*
X128856894Y-84199586D01*
X128875057Y-84050000D01*
X128874282Y-84043621D01*
X128865869Y-83974334D01*
X128856894Y-83900414D01*
X128836980Y-83847905D01*
X128803462Y-83759525D01*
X128802330Y-83757885D01*
X128717862Y-83635511D01*
X128716156Y-83634000D01*
X128614612Y-83544039D01*
X128605073Y-83535588D01*
X128509742Y-83485555D01*
X128471647Y-83465561D01*
X128325345Y-83429500D01*
X128325342Y-83429500D01*
X128174658Y-83429500D01*
X128174654Y-83429500D01*
X128059716Y-83457830D01*
X128005988Y-83452037D01*
X127968554Y-83413064D01*
X127964929Y-83359147D01*
X127984946Y-83325268D01*
X128053077Y-83257137D01*
X128102052Y-83234301D01*
X128108937Y-83234000D01*
X131015061Y-83234000D01*
X131065841Y-83252482D01*
G37*
G04 #@! TD.AperFunction*
G04 #@! TA.AperFunction,Conductor*
G36*
X137111843Y-76862482D02*
G01*
X137116924Y-76867139D01*
X139092861Y-78843076D01*
X139115699Y-78892052D01*
X139116000Y-78898937D01*
X139116000Y-80201813D01*
X139097518Y-80252593D01*
X139050718Y-80279613D01*
X138997500Y-80270229D01*
X138981139Y-80257674D01*
X138966320Y-80242855D01*
X138964219Y-80241784D01*
X138851868Y-80184539D01*
X138851864Y-80184538D01*
X138851861Y-80184537D01*
X138725002Y-80164445D01*
X138724998Y-80164445D01*
X138598138Y-80184537D01*
X138598133Y-80184538D01*
X138598132Y-80184539D01*
X138564230Y-80201813D01*
X138483679Y-80242855D01*
X138392855Y-80333679D01*
X138374095Y-80370499D01*
X138334539Y-80448132D01*
X138334539Y-80448133D01*
X138334537Y-80448138D01*
X138314445Y-80574997D01*
X138314445Y-80575002D01*
X138334537Y-80701861D01*
X138334538Y-80701864D01*
X138334539Y-80701868D01*
X138391784Y-80814219D01*
X138392855Y-80816320D01*
X138483675Y-80907140D01*
X138483680Y-80907144D01*
X138483682Y-80907146D01*
X138497865Y-80914372D01*
X138534719Y-80953891D01*
X138541000Y-80984761D01*
X138541000Y-83440062D01*
X138522518Y-83490842D01*
X138475718Y-83517862D01*
X138422500Y-83508478D01*
X138406139Y-83495923D01*
X137097008Y-82186792D01*
X137087853Y-82175808D01*
X137087295Y-82175000D01*
X137075666Y-82158152D01*
X137075665Y-82158151D01*
X137042548Y-82140769D01*
X137038395Y-82138427D01*
X137006377Y-82119073D01*
X137000925Y-82117373D01*
X136995352Y-82116000D01*
X136957952Y-82116000D01*
X136953183Y-82115856D01*
X136915840Y-82113597D01*
X136915839Y-82113597D01*
X136915837Y-82113597D01*
X136909786Y-82114706D01*
X136895547Y-82116000D01*
X126823899Y-82116000D01*
X126809659Y-82114706D01*
X126788557Y-82110839D01*
X126762130Y-82119074D01*
X126752849Y-82121966D01*
X126748253Y-82123247D01*
X126711929Y-82132200D01*
X126706865Y-82134857D01*
X126701964Y-82137821D01*
X126675517Y-82164267D01*
X126672045Y-82167535D01*
X126644037Y-82192348D01*
X126640539Y-82197416D01*
X126631390Y-82208392D01*
X126124185Y-82715598D01*
X126075209Y-82738436D01*
X126023012Y-82724450D01*
X125992016Y-82680184D01*
X125990625Y-82673639D01*
X125990462Y-82673138D01*
X125990461Y-82673132D01*
X125932146Y-82558682D01*
X125932145Y-82558681D01*
X125932144Y-82558679D01*
X125841320Y-82467855D01*
X125836647Y-82465474D01*
X125726868Y-82409539D01*
X125726864Y-82409538D01*
X125726861Y-82409537D01*
X125600002Y-82389445D01*
X125599998Y-82389445D01*
X125473138Y-82409537D01*
X125473133Y-82409538D01*
X125473132Y-82409539D01*
X125416956Y-82438161D01*
X125358679Y-82467855D01*
X125267855Y-82558679D01*
X125263438Y-82567348D01*
X125209539Y-82673132D01*
X125209539Y-82673133D01*
X125209537Y-82673138D01*
X125189445Y-82799997D01*
X125189445Y-82800002D01*
X125208049Y-82917465D01*
X125197738Y-82970511D01*
X125185883Y-82985685D01*
X124846184Y-83325383D01*
X124797208Y-83348220D01*
X124745010Y-83334234D01*
X124714015Y-83289968D01*
X124711795Y-83267990D01*
X124711401Y-83265842D01*
X124711402Y-83265840D01*
X124711400Y-83265837D01*
X124710293Y-83259788D01*
X124709000Y-83245551D01*
X124709000Y-78800002D01*
X126189445Y-78800002D01*
X126209537Y-78926861D01*
X126209538Y-78926864D01*
X126209539Y-78926868D01*
X126239424Y-78985520D01*
X126267855Y-79041320D01*
X126358679Y-79132144D01*
X126358681Y-79132145D01*
X126358682Y-79132146D01*
X126473132Y-79190461D01*
X126473137Y-79190461D01*
X126473138Y-79190462D01*
X126599998Y-79210555D01*
X126600000Y-79210555D01*
X126600002Y-79210555D01*
X126694451Y-79195595D01*
X126726868Y-79190461D01*
X126841318Y-79132146D01*
X126932146Y-79041318D01*
X126990461Y-78926868D01*
X127002712Y-78849521D01*
X127010555Y-78800002D01*
X127010555Y-78799997D01*
X126990462Y-78673138D01*
X126990461Y-78673137D01*
X126990461Y-78673132D01*
X126932146Y-78558682D01*
X126932145Y-78558681D01*
X126932144Y-78558679D01*
X126841320Y-78467855D01*
X126839219Y-78466784D01*
X126726868Y-78409539D01*
X126726864Y-78409538D01*
X126726861Y-78409537D01*
X126600002Y-78389445D01*
X126599998Y-78389445D01*
X126473138Y-78409537D01*
X126473133Y-78409538D01*
X126473132Y-78409539D01*
X126422769Y-78435200D01*
X126358679Y-78467855D01*
X126267855Y-78558679D01*
X126243362Y-78606750D01*
X126209539Y-78673132D01*
X126209539Y-78673133D01*
X126209537Y-78673138D01*
X126189445Y-78799997D01*
X126189445Y-78800002D01*
X124709000Y-78800002D01*
X124709000Y-78513000D01*
X124727482Y-78462220D01*
X124774282Y-78435200D01*
X124788000Y-78434000D01*
X125701101Y-78434000D01*
X125715340Y-78435293D01*
X125736442Y-78439161D01*
X125772170Y-78428026D01*
X125776709Y-78426761D01*
X125813068Y-78417800D01*
X125813072Y-78417796D01*
X125818141Y-78415135D01*
X125823033Y-78412177D01*
X125823039Y-78412176D01*
X125849494Y-78385719D01*
X125852953Y-78382464D01*
X125859272Y-78376866D01*
X125880961Y-78357652D01*
X125880961Y-78357649D01*
X125884458Y-78352585D01*
X125893608Y-78341605D01*
X127368076Y-76867139D01*
X127417052Y-76844301D01*
X127423937Y-76844000D01*
X137061063Y-76844000D01*
X137111843Y-76862482D01*
G37*
G04 #@! TD.AperFunction*
G04 #@! TA.AperFunction,Conductor*
G36*
X124344093Y-75910982D02*
G01*
X124371113Y-75957782D01*
X124361729Y-76011000D01*
X124349174Y-76027361D01*
X124342855Y-76033679D01*
X124326387Y-76066000D01*
X124284539Y-76148132D01*
X124284539Y-76148133D01*
X124284537Y-76148138D01*
X124264445Y-76274997D01*
X124264445Y-76275002D01*
X124284537Y-76401861D01*
X124284538Y-76401864D01*
X124284539Y-76401868D01*
X124333837Y-76498621D01*
X124342855Y-76516320D01*
X124433680Y-76607145D01*
X124433683Y-76607147D01*
X124470809Y-76626064D01*
X124507664Y-76665585D01*
X124510492Y-76719550D01*
X124505334Y-76732316D01*
X124484541Y-76773127D01*
X124484537Y-76773138D01*
X124464445Y-76899997D01*
X124464445Y-76900002D01*
X124484537Y-77026861D01*
X124484538Y-77026864D01*
X124484539Y-77026868D01*
X124520853Y-77098138D01*
X124542855Y-77141320D01*
X124633679Y-77232144D01*
X124633681Y-77232145D01*
X124633682Y-77232146D01*
X124748132Y-77290461D01*
X124748137Y-77290461D01*
X124748138Y-77290462D01*
X124874998Y-77310555D01*
X124875000Y-77310555D01*
X124875002Y-77310555D01*
X124969451Y-77295595D01*
X125001868Y-77290461D01*
X125116318Y-77232146D01*
X125207146Y-77141318D01*
X125265461Y-77026868D01*
X125272301Y-76983682D01*
X125285555Y-76900002D01*
X125285555Y-76899997D01*
X125271296Y-76809971D01*
X125281607Y-76756925D01*
X125293457Y-76741756D01*
X125578078Y-76457138D01*
X125627054Y-76434301D01*
X125633939Y-76434000D01*
X127090061Y-76434000D01*
X127140841Y-76452482D01*
X127167861Y-76499282D01*
X127158477Y-76552500D01*
X127145921Y-76568861D01*
X126404229Y-77310555D01*
X125671923Y-78042861D01*
X125622947Y-78065699D01*
X125616062Y-78066000D01*
X124573899Y-78066000D01*
X124559659Y-78064706D01*
X124538556Y-78060838D01*
X124538554Y-78060839D01*
X124533475Y-78062422D01*
X124509971Y-78066000D01*
X124184762Y-78066000D01*
X124133982Y-78047518D01*
X124114372Y-78022864D01*
X124107145Y-78008680D01*
X124016320Y-77917855D01*
X124014219Y-77916784D01*
X123901868Y-77859539D01*
X123901864Y-77859538D01*
X123901861Y-77859537D01*
X123775002Y-77839445D01*
X123774998Y-77839445D01*
X123731467Y-77846339D01*
X123714501Y-77849027D01*
X123702144Y-77850000D01*
X122732722Y-77850000D01*
X122681942Y-77831518D01*
X122676861Y-77826861D01*
X122395639Y-77545639D01*
X122372801Y-77496663D01*
X122372500Y-77489778D01*
X122372500Y-75971500D01*
X122390982Y-75920720D01*
X122437782Y-75893700D01*
X122451500Y-75892500D01*
X124293313Y-75892500D01*
X124344093Y-75910982D01*
G37*
G04 #@! TD.AperFunction*
M02*
