%TF.GenerationSoftware,KiCad,Pcbnew,7.0.10*%
%TF.CreationDate,2024-03-06T03:44:26-08:00*%
%TF.ProjectId,Tracker_Band_V1,54726163-6b65-4725-9f42-616e645f5631,1*%
%TF.SameCoordinates,Original*%
%TF.FileFunction,Drillmap*%
%TF.FilePolarity,Positive*%
%FSLAX45Y45*%
G04 Gerber Fmt 4.5, Leading zero omitted, Abs format (unit mm)*
G04 Created by KiCad (PCBNEW 7.0.10) date 2024-03-06 03:44:26*
%MOMM*%
%LPD*%
G01*
G04 APERTURE LIST*
%ADD10C,0.100000*%
%ADD11C,0.200000*%
G04 APERTURE END LIST*
D10*
X12207200Y-7559200D02*
X14127400Y-7559200D01*
X14127400Y-10146400D01*
X12207200Y-10146400D01*
X12207200Y-7559200D01*
D11*
D10*
X13600500Y-9283500D02*
X13665500Y-9348500D01*
X13665500Y-9283500D02*
X13600500Y-9348500D01*
X13600500Y-9861500D02*
X13665500Y-9926500D01*
X13665500Y-9861500D02*
X13600500Y-9926500D01*
D11*
X12462977Y-10462884D02*
X12462977Y-10262884D01*
X12462977Y-10262884D02*
X12510596Y-10262884D01*
X12510596Y-10262884D02*
X12539167Y-10272408D01*
X12539167Y-10272408D02*
X12558215Y-10291455D01*
X12558215Y-10291455D02*
X12567739Y-10310503D01*
X12567739Y-10310503D02*
X12577262Y-10348598D01*
X12577262Y-10348598D02*
X12577262Y-10377170D01*
X12577262Y-10377170D02*
X12567739Y-10415265D01*
X12567739Y-10415265D02*
X12558215Y-10434312D01*
X12558215Y-10434312D02*
X12539167Y-10453360D01*
X12539167Y-10453360D02*
X12510596Y-10462884D01*
X12510596Y-10462884D02*
X12462977Y-10462884D01*
X12662977Y-10462884D02*
X12662977Y-10329550D01*
X12662977Y-10367646D02*
X12672501Y-10348598D01*
X12672501Y-10348598D02*
X12682024Y-10339074D01*
X12682024Y-10339074D02*
X12701072Y-10329550D01*
X12701072Y-10329550D02*
X12720120Y-10329550D01*
X12786786Y-10462884D02*
X12786786Y-10329550D01*
X12786786Y-10262884D02*
X12777262Y-10272408D01*
X12777262Y-10272408D02*
X12786786Y-10281931D01*
X12786786Y-10281931D02*
X12796310Y-10272408D01*
X12796310Y-10272408D02*
X12786786Y-10262884D01*
X12786786Y-10262884D02*
X12786786Y-10281931D01*
X12910596Y-10462884D02*
X12891548Y-10453360D01*
X12891548Y-10453360D02*
X12882024Y-10434312D01*
X12882024Y-10434312D02*
X12882024Y-10262884D01*
X13015358Y-10462884D02*
X12996310Y-10453360D01*
X12996310Y-10453360D02*
X12986786Y-10434312D01*
X12986786Y-10434312D02*
X12986786Y-10262884D01*
X13243929Y-10462884D02*
X13243929Y-10262884D01*
X13243929Y-10262884D02*
X13310596Y-10405741D01*
X13310596Y-10405741D02*
X13377262Y-10262884D01*
X13377262Y-10262884D02*
X13377262Y-10462884D01*
X13558215Y-10462884D02*
X13558215Y-10358122D01*
X13558215Y-10358122D02*
X13548691Y-10339074D01*
X13548691Y-10339074D02*
X13529643Y-10329550D01*
X13529643Y-10329550D02*
X13491548Y-10329550D01*
X13491548Y-10329550D02*
X13472501Y-10339074D01*
X13558215Y-10453360D02*
X13539167Y-10462884D01*
X13539167Y-10462884D02*
X13491548Y-10462884D01*
X13491548Y-10462884D02*
X13472501Y-10453360D01*
X13472501Y-10453360D02*
X13462977Y-10434312D01*
X13462977Y-10434312D02*
X13462977Y-10415265D01*
X13462977Y-10415265D02*
X13472501Y-10396217D01*
X13472501Y-10396217D02*
X13491548Y-10386693D01*
X13491548Y-10386693D02*
X13539167Y-10386693D01*
X13539167Y-10386693D02*
X13558215Y-10377170D01*
X13653453Y-10329550D02*
X13653453Y-10529550D01*
X13653453Y-10339074D02*
X13672501Y-10329550D01*
X13672501Y-10329550D02*
X13710596Y-10329550D01*
X13710596Y-10329550D02*
X13729643Y-10339074D01*
X13729643Y-10339074D02*
X13739167Y-10348598D01*
X13739167Y-10348598D02*
X13748691Y-10367646D01*
X13748691Y-10367646D02*
X13748691Y-10424789D01*
X13748691Y-10424789D02*
X13739167Y-10443836D01*
X13739167Y-10443836D02*
X13729643Y-10453360D01*
X13729643Y-10453360D02*
X13710596Y-10462884D01*
X13710596Y-10462884D02*
X13672501Y-10462884D01*
X13672501Y-10462884D02*
X13653453Y-10453360D01*
X13834405Y-10443836D02*
X13843929Y-10453360D01*
X13843929Y-10453360D02*
X13834405Y-10462884D01*
X13834405Y-10462884D02*
X13824882Y-10453360D01*
X13824882Y-10453360D02*
X13834405Y-10443836D01*
X13834405Y-10443836D02*
X13834405Y-10462884D01*
X13834405Y-10339074D02*
X13843929Y-10348598D01*
X13843929Y-10348598D02*
X13834405Y-10358122D01*
X13834405Y-10358122D02*
X13824882Y-10348598D01*
X13824882Y-10348598D02*
X13834405Y-10339074D01*
X13834405Y-10339074D02*
X13834405Y-10358122D01*
D10*
X12137200Y-10758900D02*
X12202200Y-10823900D01*
X12202200Y-10758900D02*
X12137200Y-10823900D01*
D11*
X12501072Y-10682884D02*
X12520120Y-10682884D01*
X12520120Y-10682884D02*
X12539167Y-10692408D01*
X12539167Y-10692408D02*
X12548691Y-10701931D01*
X12548691Y-10701931D02*
X12558215Y-10720979D01*
X12558215Y-10720979D02*
X12567739Y-10759074D01*
X12567739Y-10759074D02*
X12567739Y-10806693D01*
X12567739Y-10806693D02*
X12558215Y-10844789D01*
X12558215Y-10844789D02*
X12548691Y-10863836D01*
X12548691Y-10863836D02*
X12539167Y-10873360D01*
X12539167Y-10873360D02*
X12520120Y-10882884D01*
X12520120Y-10882884D02*
X12501072Y-10882884D01*
X12501072Y-10882884D02*
X12482024Y-10873360D01*
X12482024Y-10873360D02*
X12472501Y-10863836D01*
X12472501Y-10863836D02*
X12462977Y-10844789D01*
X12462977Y-10844789D02*
X12453453Y-10806693D01*
X12453453Y-10806693D02*
X12453453Y-10759074D01*
X12453453Y-10759074D02*
X12462977Y-10720979D01*
X12462977Y-10720979D02*
X12472501Y-10701931D01*
X12472501Y-10701931D02*
X12482024Y-10692408D01*
X12482024Y-10692408D02*
X12501072Y-10682884D01*
X12653453Y-10863836D02*
X12662977Y-10873360D01*
X12662977Y-10873360D02*
X12653453Y-10882884D01*
X12653453Y-10882884D02*
X12643929Y-10873360D01*
X12643929Y-10873360D02*
X12653453Y-10863836D01*
X12653453Y-10863836D02*
X12653453Y-10882884D01*
X12834405Y-10682884D02*
X12796310Y-10682884D01*
X12796310Y-10682884D02*
X12777262Y-10692408D01*
X12777262Y-10692408D02*
X12767739Y-10701931D01*
X12767739Y-10701931D02*
X12748691Y-10730503D01*
X12748691Y-10730503D02*
X12739167Y-10768598D01*
X12739167Y-10768598D02*
X12739167Y-10844789D01*
X12739167Y-10844789D02*
X12748691Y-10863836D01*
X12748691Y-10863836D02*
X12758215Y-10873360D01*
X12758215Y-10873360D02*
X12777262Y-10882884D01*
X12777262Y-10882884D02*
X12815358Y-10882884D01*
X12815358Y-10882884D02*
X12834405Y-10873360D01*
X12834405Y-10873360D02*
X12843929Y-10863836D01*
X12843929Y-10863836D02*
X12853453Y-10844789D01*
X12853453Y-10844789D02*
X12853453Y-10797170D01*
X12853453Y-10797170D02*
X12843929Y-10778122D01*
X12843929Y-10778122D02*
X12834405Y-10768598D01*
X12834405Y-10768598D02*
X12815358Y-10759074D01*
X12815358Y-10759074D02*
X12777262Y-10759074D01*
X12777262Y-10759074D02*
X12758215Y-10768598D01*
X12758215Y-10768598D02*
X12748691Y-10778122D01*
X12748691Y-10778122D02*
X12739167Y-10797170D01*
X13034405Y-10682884D02*
X12939167Y-10682884D01*
X12939167Y-10682884D02*
X12929643Y-10778122D01*
X12929643Y-10778122D02*
X12939167Y-10768598D01*
X12939167Y-10768598D02*
X12958215Y-10759074D01*
X12958215Y-10759074D02*
X13005834Y-10759074D01*
X13005834Y-10759074D02*
X13024882Y-10768598D01*
X13024882Y-10768598D02*
X13034405Y-10778122D01*
X13034405Y-10778122D02*
X13043929Y-10797170D01*
X13043929Y-10797170D02*
X13043929Y-10844789D01*
X13043929Y-10844789D02*
X13034405Y-10863836D01*
X13034405Y-10863836D02*
X13024882Y-10873360D01*
X13024882Y-10873360D02*
X13005834Y-10882884D01*
X13005834Y-10882884D02*
X12958215Y-10882884D01*
X12958215Y-10882884D02*
X12939167Y-10873360D01*
X12939167Y-10873360D02*
X12929643Y-10863836D01*
X13167739Y-10682884D02*
X13186786Y-10682884D01*
X13186786Y-10682884D02*
X13205834Y-10692408D01*
X13205834Y-10692408D02*
X13215358Y-10701931D01*
X13215358Y-10701931D02*
X13224882Y-10720979D01*
X13224882Y-10720979D02*
X13234405Y-10759074D01*
X13234405Y-10759074D02*
X13234405Y-10806693D01*
X13234405Y-10806693D02*
X13224882Y-10844789D01*
X13224882Y-10844789D02*
X13215358Y-10863836D01*
X13215358Y-10863836D02*
X13205834Y-10873360D01*
X13205834Y-10873360D02*
X13186786Y-10882884D01*
X13186786Y-10882884D02*
X13167739Y-10882884D01*
X13167739Y-10882884D02*
X13148691Y-10873360D01*
X13148691Y-10873360D02*
X13139167Y-10863836D01*
X13139167Y-10863836D02*
X13129643Y-10844789D01*
X13129643Y-10844789D02*
X13120120Y-10806693D01*
X13120120Y-10806693D02*
X13120120Y-10759074D01*
X13120120Y-10759074D02*
X13129643Y-10720979D01*
X13129643Y-10720979D02*
X13139167Y-10701931D01*
X13139167Y-10701931D02*
X13148691Y-10692408D01*
X13148691Y-10692408D02*
X13167739Y-10682884D01*
X13320120Y-10882884D02*
X13320120Y-10749550D01*
X13320120Y-10768598D02*
X13329643Y-10759074D01*
X13329643Y-10759074D02*
X13348691Y-10749550D01*
X13348691Y-10749550D02*
X13377263Y-10749550D01*
X13377263Y-10749550D02*
X13396310Y-10759074D01*
X13396310Y-10759074D02*
X13405834Y-10778122D01*
X13405834Y-10778122D02*
X13405834Y-10882884D01*
X13405834Y-10778122D02*
X13415358Y-10759074D01*
X13415358Y-10759074D02*
X13434405Y-10749550D01*
X13434405Y-10749550D02*
X13462977Y-10749550D01*
X13462977Y-10749550D02*
X13482024Y-10759074D01*
X13482024Y-10759074D02*
X13491548Y-10778122D01*
X13491548Y-10778122D02*
X13491548Y-10882884D01*
X13586786Y-10882884D02*
X13586786Y-10749550D01*
X13586786Y-10768598D02*
X13596310Y-10759074D01*
X13596310Y-10759074D02*
X13615358Y-10749550D01*
X13615358Y-10749550D02*
X13643929Y-10749550D01*
X13643929Y-10749550D02*
X13662977Y-10759074D01*
X13662977Y-10759074D02*
X13672501Y-10778122D01*
X13672501Y-10778122D02*
X13672501Y-10882884D01*
X13672501Y-10778122D02*
X13682024Y-10759074D01*
X13682024Y-10759074D02*
X13701072Y-10749550D01*
X13701072Y-10749550D02*
X13729643Y-10749550D01*
X13729643Y-10749550D02*
X13748691Y-10759074D01*
X13748691Y-10759074D02*
X13758215Y-10778122D01*
X13758215Y-10778122D02*
X13758215Y-10882884D01*
X14148691Y-10673360D02*
X13977263Y-10930503D01*
X14405834Y-10682884D02*
X14424882Y-10682884D01*
X14424882Y-10682884D02*
X14443929Y-10692408D01*
X14443929Y-10692408D02*
X14453453Y-10701931D01*
X14453453Y-10701931D02*
X14462977Y-10720979D01*
X14462977Y-10720979D02*
X14472501Y-10759074D01*
X14472501Y-10759074D02*
X14472501Y-10806693D01*
X14472501Y-10806693D02*
X14462977Y-10844789D01*
X14462977Y-10844789D02*
X14453453Y-10863836D01*
X14453453Y-10863836D02*
X14443929Y-10873360D01*
X14443929Y-10873360D02*
X14424882Y-10882884D01*
X14424882Y-10882884D02*
X14405834Y-10882884D01*
X14405834Y-10882884D02*
X14386786Y-10873360D01*
X14386786Y-10873360D02*
X14377263Y-10863836D01*
X14377263Y-10863836D02*
X14367739Y-10844789D01*
X14367739Y-10844789D02*
X14358215Y-10806693D01*
X14358215Y-10806693D02*
X14358215Y-10759074D01*
X14358215Y-10759074D02*
X14367739Y-10720979D01*
X14367739Y-10720979D02*
X14377263Y-10701931D01*
X14377263Y-10701931D02*
X14386786Y-10692408D01*
X14386786Y-10692408D02*
X14405834Y-10682884D01*
X14558215Y-10863836D02*
X14567739Y-10873360D01*
X14567739Y-10873360D02*
X14558215Y-10882884D01*
X14558215Y-10882884D02*
X14548691Y-10873360D01*
X14548691Y-10873360D02*
X14558215Y-10863836D01*
X14558215Y-10863836D02*
X14558215Y-10882884D01*
X14691548Y-10682884D02*
X14710596Y-10682884D01*
X14710596Y-10682884D02*
X14729644Y-10692408D01*
X14729644Y-10692408D02*
X14739167Y-10701931D01*
X14739167Y-10701931D02*
X14748691Y-10720979D01*
X14748691Y-10720979D02*
X14758215Y-10759074D01*
X14758215Y-10759074D02*
X14758215Y-10806693D01*
X14758215Y-10806693D02*
X14748691Y-10844789D01*
X14748691Y-10844789D02*
X14739167Y-10863836D01*
X14739167Y-10863836D02*
X14729644Y-10873360D01*
X14729644Y-10873360D02*
X14710596Y-10882884D01*
X14710596Y-10882884D02*
X14691548Y-10882884D01*
X14691548Y-10882884D02*
X14672501Y-10873360D01*
X14672501Y-10873360D02*
X14662977Y-10863836D01*
X14662977Y-10863836D02*
X14653453Y-10844789D01*
X14653453Y-10844789D02*
X14643929Y-10806693D01*
X14643929Y-10806693D02*
X14643929Y-10759074D01*
X14643929Y-10759074D02*
X14653453Y-10720979D01*
X14653453Y-10720979D02*
X14662977Y-10701931D01*
X14662977Y-10701931D02*
X14672501Y-10692408D01*
X14672501Y-10692408D02*
X14691548Y-10682884D01*
X14834406Y-10701931D02*
X14843929Y-10692408D01*
X14843929Y-10692408D02*
X14862977Y-10682884D01*
X14862977Y-10682884D02*
X14910596Y-10682884D01*
X14910596Y-10682884D02*
X14929644Y-10692408D01*
X14929644Y-10692408D02*
X14939167Y-10701931D01*
X14939167Y-10701931D02*
X14948691Y-10720979D01*
X14948691Y-10720979D02*
X14948691Y-10740027D01*
X14948691Y-10740027D02*
X14939167Y-10768598D01*
X14939167Y-10768598D02*
X14824882Y-10882884D01*
X14824882Y-10882884D02*
X14948691Y-10882884D01*
X15129644Y-10682884D02*
X15034406Y-10682884D01*
X15034406Y-10682884D02*
X15024882Y-10778122D01*
X15024882Y-10778122D02*
X15034406Y-10768598D01*
X15034406Y-10768598D02*
X15053453Y-10759074D01*
X15053453Y-10759074D02*
X15101072Y-10759074D01*
X15101072Y-10759074D02*
X15120120Y-10768598D01*
X15120120Y-10768598D02*
X15129644Y-10778122D01*
X15129644Y-10778122D02*
X15139167Y-10797170D01*
X15139167Y-10797170D02*
X15139167Y-10844789D01*
X15139167Y-10844789D02*
X15129644Y-10863836D01*
X15129644Y-10863836D02*
X15120120Y-10873360D01*
X15120120Y-10873360D02*
X15101072Y-10882884D01*
X15101072Y-10882884D02*
X15053453Y-10882884D01*
X15053453Y-10882884D02*
X15034406Y-10873360D01*
X15034406Y-10873360D02*
X15024882Y-10863836D01*
X15310596Y-10682884D02*
X15272501Y-10682884D01*
X15272501Y-10682884D02*
X15253453Y-10692408D01*
X15253453Y-10692408D02*
X15243929Y-10701931D01*
X15243929Y-10701931D02*
X15224882Y-10730503D01*
X15224882Y-10730503D02*
X15215358Y-10768598D01*
X15215358Y-10768598D02*
X15215358Y-10844789D01*
X15215358Y-10844789D02*
X15224882Y-10863836D01*
X15224882Y-10863836D02*
X15234406Y-10873360D01*
X15234406Y-10873360D02*
X15253453Y-10882884D01*
X15253453Y-10882884D02*
X15291548Y-10882884D01*
X15291548Y-10882884D02*
X15310596Y-10873360D01*
X15310596Y-10873360D02*
X15320120Y-10863836D01*
X15320120Y-10863836D02*
X15329644Y-10844789D01*
X15329644Y-10844789D02*
X15329644Y-10797170D01*
X15329644Y-10797170D02*
X15320120Y-10778122D01*
X15320120Y-10778122D02*
X15310596Y-10768598D01*
X15310596Y-10768598D02*
X15291548Y-10759074D01*
X15291548Y-10759074D02*
X15253453Y-10759074D01*
X15253453Y-10759074D02*
X15234406Y-10768598D01*
X15234406Y-10768598D02*
X15224882Y-10778122D01*
X15224882Y-10778122D02*
X15215358Y-10797170D01*
X15405834Y-10682884D02*
X15405834Y-10720979D01*
X15482025Y-10682884D02*
X15482025Y-10720979D01*
X15777263Y-10959074D02*
X15767739Y-10949550D01*
X15767739Y-10949550D02*
X15748691Y-10920979D01*
X15748691Y-10920979D02*
X15739168Y-10901931D01*
X15739168Y-10901931D02*
X15729644Y-10873360D01*
X15729644Y-10873360D02*
X15720120Y-10825741D01*
X15720120Y-10825741D02*
X15720120Y-10787646D01*
X15720120Y-10787646D02*
X15729644Y-10740027D01*
X15729644Y-10740027D02*
X15739168Y-10711455D01*
X15739168Y-10711455D02*
X15748691Y-10692408D01*
X15748691Y-10692408D02*
X15767739Y-10663836D01*
X15767739Y-10663836D02*
X15777263Y-10654312D01*
X15843929Y-10701931D02*
X15853453Y-10692408D01*
X15853453Y-10692408D02*
X15872501Y-10682884D01*
X15872501Y-10682884D02*
X15920120Y-10682884D01*
X15920120Y-10682884D02*
X15939168Y-10692408D01*
X15939168Y-10692408D02*
X15948691Y-10701931D01*
X15948691Y-10701931D02*
X15958215Y-10720979D01*
X15958215Y-10720979D02*
X15958215Y-10740027D01*
X15958215Y-10740027D02*
X15948691Y-10768598D01*
X15948691Y-10768598D02*
X15834406Y-10882884D01*
X15834406Y-10882884D02*
X15958215Y-10882884D01*
X16196310Y-10882884D02*
X16196310Y-10682884D01*
X16282025Y-10882884D02*
X16282025Y-10778122D01*
X16282025Y-10778122D02*
X16272501Y-10759074D01*
X16272501Y-10759074D02*
X16253453Y-10749550D01*
X16253453Y-10749550D02*
X16224882Y-10749550D01*
X16224882Y-10749550D02*
X16205834Y-10759074D01*
X16205834Y-10759074D02*
X16196310Y-10768598D01*
X16405834Y-10882884D02*
X16386787Y-10873360D01*
X16386787Y-10873360D02*
X16377263Y-10863836D01*
X16377263Y-10863836D02*
X16367739Y-10844789D01*
X16367739Y-10844789D02*
X16367739Y-10787646D01*
X16367739Y-10787646D02*
X16377263Y-10768598D01*
X16377263Y-10768598D02*
X16386787Y-10759074D01*
X16386787Y-10759074D02*
X16405834Y-10749550D01*
X16405834Y-10749550D02*
X16434406Y-10749550D01*
X16434406Y-10749550D02*
X16453453Y-10759074D01*
X16453453Y-10759074D02*
X16462977Y-10768598D01*
X16462977Y-10768598D02*
X16472501Y-10787646D01*
X16472501Y-10787646D02*
X16472501Y-10844789D01*
X16472501Y-10844789D02*
X16462977Y-10863836D01*
X16462977Y-10863836D02*
X16453453Y-10873360D01*
X16453453Y-10873360D02*
X16434406Y-10882884D01*
X16434406Y-10882884D02*
X16405834Y-10882884D01*
X16586787Y-10882884D02*
X16567739Y-10873360D01*
X16567739Y-10873360D02*
X16558215Y-10854312D01*
X16558215Y-10854312D02*
X16558215Y-10682884D01*
X16739168Y-10873360D02*
X16720120Y-10882884D01*
X16720120Y-10882884D02*
X16682025Y-10882884D01*
X16682025Y-10882884D02*
X16662977Y-10873360D01*
X16662977Y-10873360D02*
X16653453Y-10854312D01*
X16653453Y-10854312D02*
X16653453Y-10778122D01*
X16653453Y-10778122D02*
X16662977Y-10759074D01*
X16662977Y-10759074D02*
X16682025Y-10749550D01*
X16682025Y-10749550D02*
X16720120Y-10749550D01*
X16720120Y-10749550D02*
X16739168Y-10759074D01*
X16739168Y-10759074D02*
X16748691Y-10778122D01*
X16748691Y-10778122D02*
X16748691Y-10797170D01*
X16748691Y-10797170D02*
X16653453Y-10816217D01*
X16824882Y-10873360D02*
X16843930Y-10882884D01*
X16843930Y-10882884D02*
X16882025Y-10882884D01*
X16882025Y-10882884D02*
X16901073Y-10873360D01*
X16901073Y-10873360D02*
X16910596Y-10854312D01*
X16910596Y-10854312D02*
X16910596Y-10844789D01*
X16910596Y-10844789D02*
X16901073Y-10825741D01*
X16901073Y-10825741D02*
X16882025Y-10816217D01*
X16882025Y-10816217D02*
X16853453Y-10816217D01*
X16853453Y-10816217D02*
X16834406Y-10806693D01*
X16834406Y-10806693D02*
X16824882Y-10787646D01*
X16824882Y-10787646D02*
X16824882Y-10778122D01*
X16824882Y-10778122D02*
X16834406Y-10759074D01*
X16834406Y-10759074D02*
X16853453Y-10749550D01*
X16853453Y-10749550D02*
X16882025Y-10749550D01*
X16882025Y-10749550D02*
X16901073Y-10759074D01*
X16977263Y-10959074D02*
X16986787Y-10949550D01*
X16986787Y-10949550D02*
X17005834Y-10920979D01*
X17005834Y-10920979D02*
X17015358Y-10901931D01*
X17015358Y-10901931D02*
X17024882Y-10873360D01*
X17024882Y-10873360D02*
X17034406Y-10825741D01*
X17034406Y-10825741D02*
X17034406Y-10787646D01*
X17034406Y-10787646D02*
X17024882Y-10740027D01*
X17024882Y-10740027D02*
X17015358Y-10711455D01*
X17015358Y-10711455D02*
X17005834Y-10692408D01*
X17005834Y-10692408D02*
X16986787Y-10663836D01*
X16986787Y-10663836D02*
X16977263Y-10654312D01*
X17339168Y-10959074D02*
X17329644Y-10949550D01*
X17329644Y-10949550D02*
X17310596Y-10920979D01*
X17310596Y-10920979D02*
X17301073Y-10901931D01*
X17301073Y-10901931D02*
X17291549Y-10873360D01*
X17291549Y-10873360D02*
X17282025Y-10825741D01*
X17282025Y-10825741D02*
X17282025Y-10787646D01*
X17282025Y-10787646D02*
X17291549Y-10740027D01*
X17291549Y-10740027D02*
X17301073Y-10711455D01*
X17301073Y-10711455D02*
X17310596Y-10692408D01*
X17310596Y-10692408D02*
X17329644Y-10663836D01*
X17329644Y-10663836D02*
X17339168Y-10654312D01*
X17415358Y-10749550D02*
X17415358Y-10882884D01*
X17415358Y-10768598D02*
X17424882Y-10759074D01*
X17424882Y-10759074D02*
X17443930Y-10749550D01*
X17443930Y-10749550D02*
X17472501Y-10749550D01*
X17472501Y-10749550D02*
X17491549Y-10759074D01*
X17491549Y-10759074D02*
X17501073Y-10778122D01*
X17501073Y-10778122D02*
X17501073Y-10882884D01*
X17624882Y-10882884D02*
X17605834Y-10873360D01*
X17605834Y-10873360D02*
X17596311Y-10863836D01*
X17596311Y-10863836D02*
X17586787Y-10844789D01*
X17586787Y-10844789D02*
X17586787Y-10787646D01*
X17586787Y-10787646D02*
X17596311Y-10768598D01*
X17596311Y-10768598D02*
X17605834Y-10759074D01*
X17605834Y-10759074D02*
X17624882Y-10749550D01*
X17624882Y-10749550D02*
X17653454Y-10749550D01*
X17653454Y-10749550D02*
X17672501Y-10759074D01*
X17672501Y-10759074D02*
X17682025Y-10768598D01*
X17682025Y-10768598D02*
X17691549Y-10787646D01*
X17691549Y-10787646D02*
X17691549Y-10844789D01*
X17691549Y-10844789D02*
X17682025Y-10863836D01*
X17682025Y-10863836D02*
X17672501Y-10873360D01*
X17672501Y-10873360D02*
X17653454Y-10882884D01*
X17653454Y-10882884D02*
X17624882Y-10882884D01*
X17748692Y-10749550D02*
X17824882Y-10749550D01*
X17777263Y-10682884D02*
X17777263Y-10854312D01*
X17777263Y-10854312D02*
X17786787Y-10873360D01*
X17786787Y-10873360D02*
X17805834Y-10882884D01*
X17805834Y-10882884D02*
X17824882Y-10882884D01*
X18043930Y-10749550D02*
X18043930Y-10949550D01*
X18043930Y-10759074D02*
X18062977Y-10749550D01*
X18062977Y-10749550D02*
X18101073Y-10749550D01*
X18101073Y-10749550D02*
X18120120Y-10759074D01*
X18120120Y-10759074D02*
X18129644Y-10768598D01*
X18129644Y-10768598D02*
X18139168Y-10787646D01*
X18139168Y-10787646D02*
X18139168Y-10844789D01*
X18139168Y-10844789D02*
X18129644Y-10863836D01*
X18129644Y-10863836D02*
X18120120Y-10873360D01*
X18120120Y-10873360D02*
X18101073Y-10882884D01*
X18101073Y-10882884D02*
X18062977Y-10882884D01*
X18062977Y-10882884D02*
X18043930Y-10873360D01*
X18253454Y-10882884D02*
X18234406Y-10873360D01*
X18234406Y-10873360D02*
X18224882Y-10854312D01*
X18224882Y-10854312D02*
X18224882Y-10682884D01*
X18415358Y-10882884D02*
X18415358Y-10778122D01*
X18415358Y-10778122D02*
X18405835Y-10759074D01*
X18405835Y-10759074D02*
X18386787Y-10749550D01*
X18386787Y-10749550D02*
X18348692Y-10749550D01*
X18348692Y-10749550D02*
X18329644Y-10759074D01*
X18415358Y-10873360D02*
X18396311Y-10882884D01*
X18396311Y-10882884D02*
X18348692Y-10882884D01*
X18348692Y-10882884D02*
X18329644Y-10873360D01*
X18329644Y-10873360D02*
X18320120Y-10854312D01*
X18320120Y-10854312D02*
X18320120Y-10835265D01*
X18320120Y-10835265D02*
X18329644Y-10816217D01*
X18329644Y-10816217D02*
X18348692Y-10806693D01*
X18348692Y-10806693D02*
X18396311Y-10806693D01*
X18396311Y-10806693D02*
X18415358Y-10797170D01*
X18482025Y-10749550D02*
X18558215Y-10749550D01*
X18510596Y-10682884D02*
X18510596Y-10854312D01*
X18510596Y-10854312D02*
X18520120Y-10873360D01*
X18520120Y-10873360D02*
X18539168Y-10882884D01*
X18539168Y-10882884D02*
X18558215Y-10882884D01*
X18701073Y-10873360D02*
X18682025Y-10882884D01*
X18682025Y-10882884D02*
X18643930Y-10882884D01*
X18643930Y-10882884D02*
X18624882Y-10873360D01*
X18624882Y-10873360D02*
X18615358Y-10854312D01*
X18615358Y-10854312D02*
X18615358Y-10778122D01*
X18615358Y-10778122D02*
X18624882Y-10759074D01*
X18624882Y-10759074D02*
X18643930Y-10749550D01*
X18643930Y-10749550D02*
X18682025Y-10749550D01*
X18682025Y-10749550D02*
X18701073Y-10759074D01*
X18701073Y-10759074D02*
X18710596Y-10778122D01*
X18710596Y-10778122D02*
X18710596Y-10797170D01*
X18710596Y-10797170D02*
X18615358Y-10816217D01*
X18882025Y-10882884D02*
X18882025Y-10682884D01*
X18882025Y-10873360D02*
X18862977Y-10882884D01*
X18862977Y-10882884D02*
X18824882Y-10882884D01*
X18824882Y-10882884D02*
X18805835Y-10873360D01*
X18805835Y-10873360D02*
X18796311Y-10863836D01*
X18796311Y-10863836D02*
X18786787Y-10844789D01*
X18786787Y-10844789D02*
X18786787Y-10787646D01*
X18786787Y-10787646D02*
X18796311Y-10768598D01*
X18796311Y-10768598D02*
X18805835Y-10759074D01*
X18805835Y-10759074D02*
X18824882Y-10749550D01*
X18824882Y-10749550D02*
X18862977Y-10749550D01*
X18862977Y-10749550D02*
X18882025Y-10759074D01*
X18958216Y-10959074D02*
X18967739Y-10949550D01*
X18967739Y-10949550D02*
X18986787Y-10920979D01*
X18986787Y-10920979D02*
X18996311Y-10901931D01*
X18996311Y-10901931D02*
X19005835Y-10873360D01*
X19005835Y-10873360D02*
X19015358Y-10825741D01*
X19015358Y-10825741D02*
X19015358Y-10787646D01*
X19015358Y-10787646D02*
X19005835Y-10740027D01*
X19005835Y-10740027D02*
X18996311Y-10711455D01*
X18996311Y-10711455D02*
X18986787Y-10692408D01*
X18986787Y-10692408D02*
X18967739Y-10663836D01*
X18967739Y-10663836D02*
X18958216Y-10654312D01*
M02*
