%TF.GenerationSoftware,KiCad,Pcbnew,7.0.10*%
%TF.CreationDate,2024-03-03T23:10:43-08:00*%
%TF.ProjectId,Tracker_Band_V1,54726163-6b65-4725-9f42-616e645f5631,1*%
%TF.SameCoordinates,Original*%
%TF.FileFunction,Drillmap*%
%TF.FilePolarity,Positive*%
%FSLAX45Y45*%
G04 Gerber Fmt 4.5, Leading zero omitted, Abs format (unit mm)*
G04 Created by KiCad (PCBNEW 7.0.10) date 2024-03-03 23:10:43*
%MOMM*%
%LPD*%
G01*
G04 APERTURE LIST*
%ADD10C,0.100000*%
%ADD11C,0.200000*%
G04 APERTURE END LIST*
D10*
X12207200Y-7559200D02*
X14127400Y-7559200D01*
X14127400Y-10146400D01*
X12207200Y-10146400D01*
X12207200Y-7559200D01*
D11*
D10*
X12260000Y-10030000D02*
X12275000Y-10045000D01*
X12275000Y-10030000D02*
X12260000Y-10045000D01*
X12261000Y-9536500D02*
X12276000Y-9551500D01*
X12276000Y-9536500D02*
X12261000Y-9551500D01*
X12290000Y-8712500D02*
X12305000Y-8727500D01*
X12305000Y-8712500D02*
X12290000Y-8727500D01*
X12290000Y-8865000D02*
X12305000Y-8880000D01*
X12305000Y-8865000D02*
X12290000Y-8880000D01*
X12300000Y-8065000D02*
X12315000Y-8080000D01*
X12315000Y-8065000D02*
X12300000Y-8080000D01*
X12300000Y-9767500D02*
X12315000Y-9782500D01*
X12315000Y-9767500D02*
X12300000Y-9782500D01*
X12302500Y-7765500D02*
X12317500Y-7780500D01*
X12317500Y-7765500D02*
X12302500Y-7780500D01*
X12302500Y-9565000D02*
X12317500Y-9580000D01*
X12317500Y-9565000D02*
X12302500Y-9580000D01*
X12307500Y-9350000D02*
X12322500Y-9365000D01*
X12322500Y-9350000D02*
X12307500Y-9365000D01*
X12310000Y-9657500D02*
X12325000Y-9672500D01*
X12325000Y-9657500D02*
X12310000Y-9672500D01*
X12317500Y-9907500D02*
X12332500Y-9922500D01*
X12332500Y-9907500D02*
X12317500Y-9922500D01*
X12327500Y-8217500D02*
X12342500Y-8232500D01*
X12342500Y-8217500D02*
X12327500Y-8232500D01*
X12327500Y-8317500D02*
X12342500Y-8332500D01*
X12342500Y-8317500D02*
X12327500Y-8332500D01*
X12337500Y-8730000D02*
X12352500Y-8745000D01*
X12352500Y-8730000D02*
X12337500Y-8745000D01*
X12370000Y-9357500D02*
X12385000Y-9372500D01*
X12385000Y-9357500D02*
X12370000Y-9372500D01*
X12397500Y-9917500D02*
X12412500Y-9932500D01*
X12412500Y-9917500D02*
X12397500Y-9932500D01*
X12428500Y-7844500D02*
X12443500Y-7859500D01*
X12443500Y-7844500D02*
X12428500Y-7859500D01*
X12432500Y-9102500D02*
X12447500Y-9117500D01*
X12447500Y-9102500D02*
X12432500Y-9117500D01*
X12432500Y-9762500D02*
X12447500Y-9777500D01*
X12447500Y-9762500D02*
X12432500Y-9777500D01*
X12435000Y-8457500D02*
X12450000Y-8472500D01*
X12450000Y-8457500D02*
X12435000Y-8472500D01*
X12440000Y-8267500D02*
X12455000Y-8282500D01*
X12455000Y-8267500D02*
X12440000Y-8282500D01*
X12442500Y-8560000D02*
X12457500Y-8575000D01*
X12457500Y-8560000D02*
X12442500Y-8575000D01*
X12445000Y-7620000D02*
X12460000Y-7635000D01*
X12460000Y-7620000D02*
X12445000Y-7635000D01*
X12445000Y-8975000D02*
X12460000Y-8990000D01*
X12460000Y-8975000D02*
X12445000Y-8990000D01*
X12447500Y-9032500D02*
X12462500Y-9047500D01*
X12462500Y-9032500D02*
X12447500Y-9047500D01*
X12455000Y-7667500D02*
X12470000Y-7682500D01*
X12470000Y-7667500D02*
X12455000Y-7682500D01*
X12455000Y-8362500D02*
X12470000Y-8377500D01*
X12470000Y-8362500D02*
X12455000Y-8377500D01*
X12460000Y-8672500D02*
X12475000Y-8687500D01*
X12475000Y-8672500D02*
X12460000Y-8687500D01*
X12472500Y-9305000D02*
X12487500Y-9320000D01*
X12487500Y-9305000D02*
X12472500Y-9320000D01*
X12482500Y-9522500D02*
X12497500Y-9537500D01*
X12497500Y-9522500D02*
X12482500Y-9537500D01*
X12492500Y-8402500D02*
X12507500Y-8417500D01*
X12507500Y-8402500D02*
X12492500Y-8417500D01*
X12502500Y-8610000D02*
X12517500Y-8625000D01*
X12517500Y-8610000D02*
X12502500Y-8625000D01*
X12515000Y-9602500D02*
X12530000Y-9617500D01*
X12530000Y-9602500D02*
X12515000Y-9617500D01*
X12515000Y-9800000D02*
X12530000Y-9815000D01*
X12530000Y-9800000D02*
X12515000Y-9815000D01*
X12527500Y-9305000D02*
X12542500Y-9320000D01*
X12542500Y-9305000D02*
X12527500Y-9320000D01*
X12582500Y-9305000D02*
X12597500Y-9320000D01*
X12597500Y-9305000D02*
X12582500Y-9320000D01*
X12630000Y-9805000D02*
X12645000Y-9820000D01*
X12645000Y-9805000D02*
X12630000Y-9820000D01*
X12637500Y-9612500D02*
X12652500Y-9627500D01*
X12652500Y-9612500D02*
X12637500Y-9627500D01*
X12637500Y-9662500D02*
X12652500Y-9677500D01*
X12652500Y-9662500D02*
X12637500Y-9677500D01*
X12642500Y-9937500D02*
X12657500Y-9952500D01*
X12657500Y-9937500D02*
X12642500Y-9952500D01*
X12650000Y-8950000D02*
X12665000Y-8965000D01*
X12665000Y-8950000D02*
X12650000Y-8965000D01*
X12662500Y-10082500D02*
X12677500Y-10097500D01*
X12677500Y-10082500D02*
X12662500Y-10097500D01*
X12665000Y-9320000D02*
X12680000Y-9335000D01*
X12680000Y-9320000D02*
X12665000Y-9335000D01*
X12682500Y-8462500D02*
X12697500Y-8477500D01*
X12697500Y-8462500D02*
X12682500Y-8477500D01*
X12692500Y-9097500D02*
X12707500Y-9112500D01*
X12707500Y-9097500D02*
X12692500Y-9112500D01*
X12692500Y-10030000D02*
X12707500Y-10045000D01*
X12707500Y-10030000D02*
X12692500Y-10045000D01*
X12705000Y-9362500D02*
X12720000Y-9377500D01*
X12720000Y-9362500D02*
X12705000Y-9377500D01*
X12735000Y-9960000D02*
X12750000Y-9975000D01*
X12750000Y-9960000D02*
X12735000Y-9975000D01*
X12750000Y-9905000D02*
X12765000Y-9920000D01*
X12765000Y-9905000D02*
X12750000Y-9920000D01*
X12762500Y-8462500D02*
X12777500Y-8477500D01*
X12777500Y-8462500D02*
X12762500Y-8477500D01*
X12767500Y-9462500D02*
X12782500Y-9477500D01*
X12782500Y-9462500D02*
X12767500Y-9477500D01*
X12842500Y-8492500D02*
X12857500Y-8507500D01*
X12857500Y-8492500D02*
X12842500Y-8507500D01*
X12857500Y-9837500D02*
X12872500Y-9852500D01*
X12872500Y-9837500D02*
X12857500Y-9852500D01*
X12860000Y-9445000D02*
X12875000Y-9460000D01*
X12875000Y-9445000D02*
X12860000Y-9460000D01*
X12895000Y-9612500D02*
X12910000Y-9627500D01*
X12910000Y-9612500D02*
X12895000Y-9627500D01*
X12922500Y-9240000D02*
X12937500Y-9255000D01*
X12937500Y-9240000D02*
X12922500Y-9255000D01*
X12932500Y-8442500D02*
X12947500Y-8457500D01*
X12947500Y-8442500D02*
X12932500Y-8457500D01*
X12965000Y-9587500D02*
X12980000Y-9602500D01*
X12980000Y-9587500D02*
X12965000Y-9602500D01*
X12965000Y-9635000D02*
X12980000Y-9650000D01*
X12980000Y-9635000D02*
X12965000Y-9650000D01*
X12977500Y-9880000D02*
X12992500Y-9895000D01*
X12992500Y-9880000D02*
X12977500Y-9895000D01*
X13002500Y-8467500D02*
X13017500Y-8482500D01*
X13017500Y-8467500D02*
X13002500Y-8482500D01*
X13011941Y-9005397D02*
X13026941Y-9020397D01*
X13026941Y-9005397D02*
X13011941Y-9020397D01*
X13012104Y-9096197D02*
X13027104Y-9111197D01*
X13027104Y-9096197D02*
X13012104Y-9111197D01*
X13012149Y-9050797D02*
X13027149Y-9065797D01*
X13027149Y-9050797D02*
X13012149Y-9065797D01*
X13012500Y-8960000D02*
X13027500Y-8975000D01*
X13027500Y-8960000D02*
X13012500Y-8975000D01*
X13012500Y-9152500D02*
X13027500Y-9167500D01*
X13027500Y-9152500D02*
X13012500Y-9167500D01*
X13039441Y-9634199D02*
X13054441Y-9649199D01*
X13054441Y-9634199D02*
X13039441Y-9649199D01*
X13039604Y-9724999D02*
X13054604Y-9739999D01*
X13054604Y-9724999D02*
X13039604Y-9739999D01*
X13039649Y-9679599D02*
X13054649Y-9694599D01*
X13054649Y-9679599D02*
X13039649Y-9694599D01*
X13040000Y-9588802D02*
X13055000Y-9603802D01*
X13055000Y-9588802D02*
X13040000Y-9603802D01*
X13057381Y-9005397D02*
X13072381Y-9020397D01*
X13072381Y-9005397D02*
X13057381Y-9020397D01*
X13057494Y-9096198D02*
X13072494Y-9111198D01*
X13072494Y-9096198D02*
X13057494Y-9111198D01*
X13057500Y-9152500D02*
X13072500Y-9167500D01*
X13072500Y-9152500D02*
X13057500Y-9167500D01*
X13057527Y-9050797D02*
X13072527Y-9065797D01*
X13072527Y-9050797D02*
X13057527Y-9065797D01*
X13057900Y-8960000D02*
X13072900Y-8975000D01*
X13072900Y-8960000D02*
X13057900Y-8975000D01*
X13062500Y-8422500D02*
X13077500Y-8437500D01*
X13077500Y-8422500D02*
X13062500Y-8437500D01*
X13084881Y-9634200D02*
X13099881Y-9649200D01*
X13099881Y-9634200D02*
X13084881Y-9649200D01*
X13084994Y-9725000D02*
X13099994Y-9740000D01*
X13099994Y-9725000D02*
X13084994Y-9740000D01*
X13085027Y-9679600D02*
X13100027Y-9694600D01*
X13100027Y-9679600D02*
X13085027Y-9694600D01*
X13085400Y-9588802D02*
X13100400Y-9603802D01*
X13100400Y-9588802D02*
X13085400Y-9603802D01*
X13092500Y-9202500D02*
X13107500Y-9217500D01*
X13107500Y-9202500D02*
X13092500Y-9217500D01*
X13127494Y-9680400D02*
X13142494Y-9695400D01*
X13142494Y-9680400D02*
X13127494Y-9695400D01*
X13130271Y-9635166D02*
X13145271Y-9650166D01*
X13145271Y-9635166D02*
X13130271Y-9650166D01*
X13130384Y-9725969D02*
X13145384Y-9740969D01*
X13145384Y-9725969D02*
X13130384Y-9740969D01*
X13130791Y-9589720D02*
X13145791Y-9604720D01*
X13145791Y-9589720D02*
X13130791Y-9604720D01*
X13162500Y-8687500D02*
X13177500Y-8702500D01*
X13177500Y-8687500D02*
X13162500Y-8702500D01*
X13207500Y-10077500D02*
X13222500Y-10092500D01*
X13222500Y-10077500D02*
X13207500Y-10092500D01*
X13212500Y-8977500D02*
X13227500Y-8992500D01*
X13227500Y-8977500D02*
X13212500Y-8992500D01*
X13227500Y-9980000D02*
X13242500Y-9995000D01*
X13242500Y-9980000D02*
X13227500Y-9995000D01*
X13242500Y-8515000D02*
X13257500Y-8530000D01*
X13257500Y-8515000D02*
X13242500Y-8530000D01*
X13252500Y-8687500D02*
X13267500Y-8702500D01*
X13267500Y-8687500D02*
X13252500Y-8702500D01*
X13252500Y-9255000D02*
X13267500Y-9270000D01*
X13267500Y-9255000D02*
X13252500Y-9270000D01*
X13260000Y-8912500D02*
X13275000Y-8927500D01*
X13275000Y-8912500D02*
X13260000Y-8927500D01*
X13262500Y-8442500D02*
X13277500Y-8457500D01*
X13277500Y-8442500D02*
X13262500Y-8457500D01*
X13297500Y-9480000D02*
X13312500Y-9495000D01*
X13312500Y-9480000D02*
X13297500Y-9495000D01*
X13297500Y-9582500D02*
X13312500Y-9597500D01*
X13312500Y-9582500D02*
X13297500Y-9597500D01*
X13307500Y-10000000D02*
X13322500Y-10015000D01*
X13322500Y-10000000D02*
X13307500Y-10015000D01*
X13312500Y-8685000D02*
X13327500Y-8700000D01*
X13327500Y-8685000D02*
X13312500Y-8700000D01*
X13322500Y-8515000D02*
X13337500Y-8530000D01*
X13337500Y-8515000D02*
X13322500Y-8530000D01*
X13362500Y-8442500D02*
X13377500Y-8457500D01*
X13377500Y-8442500D02*
X13362500Y-8457500D01*
X13390000Y-8912500D02*
X13405000Y-8927500D01*
X13405000Y-8912500D02*
X13390000Y-8927500D01*
X13402500Y-8515000D02*
X13417500Y-8530000D01*
X13417500Y-8515000D02*
X13402500Y-8530000D01*
X13417500Y-9422500D02*
X13432500Y-9437500D01*
X13432500Y-9422500D02*
X13417500Y-9437500D01*
X13417500Y-9482500D02*
X13432500Y-9497500D01*
X13432500Y-9482500D02*
X13417500Y-9497500D01*
X13422500Y-9087500D02*
X13437500Y-9102500D01*
X13437500Y-9087500D02*
X13422500Y-9102500D01*
X13422500Y-9172500D02*
X13437500Y-9187500D01*
X13437500Y-9172500D02*
X13422500Y-9187500D01*
X13422500Y-9265000D02*
X13437500Y-9280000D01*
X13437500Y-9265000D02*
X13422500Y-9280000D01*
X13467500Y-8912500D02*
X13482500Y-8927500D01*
X13482500Y-8912500D02*
X13467500Y-8927500D01*
X13470000Y-8515000D02*
X13485000Y-8530000D01*
X13485000Y-8515000D02*
X13470000Y-8530000D01*
X13545000Y-8912500D02*
X13560000Y-8927500D01*
X13560000Y-8912500D02*
X13545000Y-8927500D01*
X13600000Y-9472500D02*
X13615000Y-9487500D01*
X13615000Y-9472500D02*
X13600000Y-9487500D01*
X13610000Y-8387500D02*
X13625000Y-8402500D01*
X13625000Y-8387500D02*
X13610000Y-8402500D01*
X13637500Y-8430000D02*
X13652500Y-8445000D01*
X13652500Y-8430000D02*
X13637500Y-8445000D01*
X13646250Y-8475000D02*
X13661250Y-8490000D01*
X13661250Y-8475000D02*
X13646250Y-8490000D01*
X13655000Y-8800000D02*
X13670000Y-8815000D01*
X13670000Y-8800000D02*
X13655000Y-8815000D01*
X13670000Y-8522500D02*
X13685000Y-8537500D01*
X13685000Y-8522500D02*
X13670000Y-8537500D01*
X13717500Y-9267500D02*
X13732500Y-9282500D01*
X13732500Y-9267500D02*
X13717500Y-9282500D01*
X13751350Y-9158850D02*
X13766350Y-9173850D01*
X13766350Y-9158850D02*
X13751350Y-9173850D01*
X13820000Y-9065000D02*
X13835000Y-9080000D01*
X13835000Y-9065000D02*
X13820000Y-9080000D01*
X13842500Y-7667500D02*
X13857500Y-7682500D01*
X13857500Y-7667500D02*
X13842500Y-7682500D01*
X13862500Y-8910000D02*
X13877500Y-8925000D01*
X13877500Y-8910000D02*
X13862500Y-8925000D01*
X13864500Y-8050500D02*
X13879500Y-8065500D01*
X13879500Y-8050500D02*
X13864500Y-8065500D01*
X13875000Y-8957500D02*
X13890000Y-8972500D01*
X13890000Y-8957500D02*
X13875000Y-8972500D01*
X13877500Y-7620000D02*
X13892500Y-7635000D01*
X13892500Y-7620000D02*
X13877500Y-7635000D01*
X13877500Y-7715000D02*
X13892500Y-7730000D01*
X13892500Y-7715000D02*
X13877500Y-7730000D01*
X13935000Y-8712500D02*
X13950000Y-8727500D01*
X13950000Y-8712500D02*
X13935000Y-8727500D01*
X13963500Y-7940500D02*
X13978500Y-7955500D01*
X13978500Y-7940500D02*
X13963500Y-7955500D01*
X13971500Y-8358500D02*
X13986500Y-8373500D01*
X13986500Y-8358500D02*
X13971500Y-8373500D01*
X13972500Y-8141500D02*
X13987500Y-8156500D01*
X13987500Y-8141500D02*
X13972500Y-8156500D01*
X13982500Y-8237500D02*
X13997500Y-8252500D01*
X13997500Y-8237500D02*
X13982500Y-8252500D01*
X13982500Y-9070000D02*
X13997500Y-9085000D01*
X13997500Y-9070000D02*
X13982500Y-9085000D01*
X13985000Y-8472500D02*
X14000000Y-8487500D01*
X14000000Y-8472500D02*
X13985000Y-8487500D01*
X13997500Y-8717500D02*
X14012500Y-8732500D01*
X14012500Y-8717500D02*
X13997500Y-8732500D01*
X14007500Y-8842500D02*
X14022500Y-8857500D01*
X14022500Y-8842500D02*
X14007500Y-8857500D01*
X14019500Y-7766500D02*
X14034500Y-7781500D01*
X14034500Y-7766500D02*
X14019500Y-7781500D01*
X14032500Y-8495000D02*
X14047500Y-8510000D01*
X14047500Y-8495000D02*
X14032500Y-8510000D01*
X12810000Y-8900000D02*
G75*
G03*
X12790000Y-8900000I-10000J0D01*
G01*
X12790000Y-8900000D02*
G75*
G03*
X12810000Y-8900000I10000J0D01*
G01*
X12870000Y-8840000D02*
G75*
G03*
X12850000Y-8840000I-10000J0D01*
G01*
X12850000Y-8840000D02*
G75*
G03*
X12870000Y-8840000I10000J0D01*
G01*
X12870000Y-8900000D02*
G75*
G03*
X12850000Y-8900000I-10000J0D01*
G01*
X12850000Y-8900000D02*
G75*
G03*
X12870000Y-8900000I10000J0D01*
G01*
X13065000Y-8762100D02*
G75*
G03*
X13045000Y-8762100I-10000J0D01*
G01*
X13045000Y-8762100D02*
G75*
G03*
X13065000Y-8762100I10000J0D01*
G01*
X13065000Y-8815000D02*
G75*
G03*
X13045000Y-8815000I-10000J0D01*
G01*
X13045000Y-8815000D02*
G75*
G03*
X13065000Y-8815000I10000J0D01*
G01*
X13100000Y-9360000D02*
G75*
G03*
X13080000Y-9360000I-10000J0D01*
G01*
X13080000Y-9360000D02*
G75*
G03*
X13100000Y-9360000I10000J0D01*
G01*
X13215000Y-8860000D02*
G75*
G03*
X13195000Y-8860000I-10000J0D01*
G01*
X13195000Y-8860000D02*
G75*
G03*
X13215000Y-8860000I10000J0D01*
G01*
X13755000Y-9795000D02*
G75*
G03*
X13735000Y-9795000I-10000J0D01*
G01*
X13735000Y-9795000D02*
G75*
G03*
X13755000Y-9795000I10000J0D01*
G01*
X12297500Y-7935000D02*
X12297500Y-7965000D01*
X12282500Y-7950000D02*
X12312500Y-7950000D01*
X12372500Y-7935000D02*
X12372500Y-7965000D01*
X12357500Y-7950000D02*
X12387500Y-7950000D01*
X12660000Y-7865000D02*
X12660000Y-7895000D01*
X12645000Y-7880000D02*
X12675000Y-7880000D01*
X12770000Y-7705000D02*
X12770000Y-7735000D01*
X12755000Y-7720000D02*
X12785000Y-7720000D01*
X12870000Y-8007500D02*
X12870000Y-8037500D01*
X12855000Y-8022500D02*
X12885000Y-8022500D01*
X12870000Y-8205000D02*
X12870000Y-8235000D01*
X12855000Y-8220000D02*
X12885000Y-8220000D01*
X12930000Y-7705000D02*
X12930000Y-7735000D01*
X12915000Y-7720000D02*
X12945000Y-7720000D01*
X12957939Y-9403346D02*
X12957939Y-9433346D01*
X12942939Y-9418346D02*
X12972939Y-9418346D01*
X13008633Y-9430482D02*
X13008633Y-9460482D01*
X12993633Y-9445482D02*
X13023633Y-9445482D01*
X13072500Y-8007500D02*
X13072500Y-8037500D01*
X13057500Y-8022500D02*
X13087500Y-8022500D01*
X13072500Y-8205000D02*
X13072500Y-8235000D01*
X13057500Y-8220000D02*
X13087500Y-8220000D01*
X13090000Y-7705000D02*
X13090000Y-7735000D01*
X13075000Y-7720000D02*
X13105000Y-7720000D01*
X13250000Y-7705000D02*
X13250000Y-7735000D01*
X13235000Y-7720000D02*
X13265000Y-7720000D01*
X13270000Y-8007500D02*
X13270000Y-8037500D01*
X13255000Y-8022500D02*
X13285000Y-8022500D01*
X13270000Y-8205000D02*
X13270000Y-8235000D01*
X13255000Y-8220000D02*
X13285000Y-8220000D01*
X13410000Y-7705000D02*
X13410000Y-7735000D01*
X13395000Y-7720000D02*
X13425000Y-7720000D01*
X13467500Y-8007500D02*
X13467500Y-8037500D01*
X13452500Y-8022500D02*
X13482500Y-8022500D01*
X13467500Y-8205000D02*
X13467500Y-8235000D01*
X13452500Y-8220000D02*
X13482500Y-8220000D01*
X13570000Y-7705000D02*
X13570000Y-7735000D01*
X13555000Y-7720000D02*
X13585000Y-7720000D01*
X13602213Y-9194213D02*
X13602213Y-9151787D01*
X13559787Y-9151787D01*
X13559787Y-9194213D01*
X13602213Y-9194213D01*
X13526000Y-9203000D02*
X13636000Y-9203000D01*
X13636000Y-9203000D02*
G75*
G03*
X13636000Y-9143000I0J30000D01*
G01*
X13636000Y-9143000D02*
X13526000Y-9143000D01*
X13526000Y-9143000D02*
G75*
G03*
X13526000Y-9203000I0J-30000D01*
G01*
X13602213Y-10058213D02*
X13602213Y-10015787D01*
X13559787Y-10015787D01*
X13559787Y-10058213D01*
X13602213Y-10058213D01*
X13526000Y-10067000D02*
X13636000Y-10067000D01*
X13636000Y-10067000D02*
G75*
G03*
X13636000Y-10007000I0J30000D01*
G01*
X13636000Y-10007000D02*
X13526000Y-10007000D01*
X13526000Y-10007000D02*
G75*
G03*
X13526000Y-10067000I0J-30000D01*
G01*
X14022213Y-9194213D02*
X14022213Y-9151787D01*
X13979787Y-9151787D01*
X13979787Y-9194213D01*
X14022213Y-9194213D01*
X13961000Y-9203000D02*
X14041000Y-9203000D01*
X14041000Y-9203000D02*
G75*
G03*
X14041000Y-9143000I0J30000D01*
G01*
X14041000Y-9143000D02*
X13961000Y-9143000D01*
X13961000Y-9143000D02*
G75*
G03*
X13961000Y-9203000I0J-30000D01*
G01*
X14022213Y-10058213D02*
X14022213Y-10015787D01*
X13979787Y-10015787D01*
X13979787Y-10058213D01*
X14022213Y-10058213D01*
X13961000Y-10067000D02*
X14041000Y-10067000D01*
X14041000Y-10067000D02*
G75*
G03*
X14041000Y-10007000I0J30000D01*
G01*
X14041000Y-10007000D02*
X13961000Y-10007000D01*
X13961000Y-10007000D02*
G75*
G03*
X13961000Y-10067000I0J-30000D01*
G01*
D11*
X12462977Y-10462884D02*
X12462977Y-10262884D01*
X12462977Y-10262884D02*
X12510596Y-10262884D01*
X12510596Y-10262884D02*
X12539167Y-10272408D01*
X12539167Y-10272408D02*
X12558215Y-10291455D01*
X12558215Y-10291455D02*
X12567739Y-10310503D01*
X12567739Y-10310503D02*
X12577262Y-10348598D01*
X12577262Y-10348598D02*
X12577262Y-10377170D01*
X12577262Y-10377170D02*
X12567739Y-10415265D01*
X12567739Y-10415265D02*
X12558215Y-10434312D01*
X12558215Y-10434312D02*
X12539167Y-10453360D01*
X12539167Y-10453360D02*
X12510596Y-10462884D01*
X12510596Y-10462884D02*
X12462977Y-10462884D01*
X12662977Y-10462884D02*
X12662977Y-10329550D01*
X12662977Y-10367646D02*
X12672501Y-10348598D01*
X12672501Y-10348598D02*
X12682024Y-10339074D01*
X12682024Y-10339074D02*
X12701072Y-10329550D01*
X12701072Y-10329550D02*
X12720120Y-10329550D01*
X12786786Y-10462884D02*
X12786786Y-10329550D01*
X12786786Y-10262884D02*
X12777262Y-10272408D01*
X12777262Y-10272408D02*
X12786786Y-10281931D01*
X12786786Y-10281931D02*
X12796310Y-10272408D01*
X12796310Y-10272408D02*
X12786786Y-10262884D01*
X12786786Y-10262884D02*
X12786786Y-10281931D01*
X12910596Y-10462884D02*
X12891548Y-10453360D01*
X12891548Y-10453360D02*
X12882024Y-10434312D01*
X12882024Y-10434312D02*
X12882024Y-10262884D01*
X13015358Y-10462884D02*
X12996310Y-10453360D01*
X12996310Y-10453360D02*
X12986786Y-10434312D01*
X12986786Y-10434312D02*
X12986786Y-10262884D01*
X13243929Y-10462884D02*
X13243929Y-10262884D01*
X13243929Y-10262884D02*
X13310596Y-10405741D01*
X13310596Y-10405741D02*
X13377262Y-10262884D01*
X13377262Y-10262884D02*
X13377262Y-10462884D01*
X13558215Y-10462884D02*
X13558215Y-10358122D01*
X13558215Y-10358122D02*
X13548691Y-10339074D01*
X13548691Y-10339074D02*
X13529643Y-10329550D01*
X13529643Y-10329550D02*
X13491548Y-10329550D01*
X13491548Y-10329550D02*
X13472501Y-10339074D01*
X13558215Y-10453360D02*
X13539167Y-10462884D01*
X13539167Y-10462884D02*
X13491548Y-10462884D01*
X13491548Y-10462884D02*
X13472501Y-10453360D01*
X13472501Y-10453360D02*
X13462977Y-10434312D01*
X13462977Y-10434312D02*
X13462977Y-10415265D01*
X13462977Y-10415265D02*
X13472501Y-10396217D01*
X13472501Y-10396217D02*
X13491548Y-10386693D01*
X13491548Y-10386693D02*
X13539167Y-10386693D01*
X13539167Y-10386693D02*
X13558215Y-10377170D01*
X13653453Y-10329550D02*
X13653453Y-10529550D01*
X13653453Y-10339074D02*
X13672501Y-10329550D01*
X13672501Y-10329550D02*
X13710596Y-10329550D01*
X13710596Y-10329550D02*
X13729643Y-10339074D01*
X13729643Y-10339074D02*
X13739167Y-10348598D01*
X13739167Y-10348598D02*
X13748691Y-10367646D01*
X13748691Y-10367646D02*
X13748691Y-10424789D01*
X13748691Y-10424789D02*
X13739167Y-10443836D01*
X13739167Y-10443836D02*
X13729643Y-10453360D01*
X13729643Y-10453360D02*
X13710596Y-10462884D01*
X13710596Y-10462884D02*
X13672501Y-10462884D01*
X13672501Y-10462884D02*
X13653453Y-10453360D01*
X13834405Y-10443836D02*
X13843929Y-10453360D01*
X13843929Y-10453360D02*
X13834405Y-10462884D01*
X13834405Y-10462884D02*
X13824882Y-10453360D01*
X13824882Y-10453360D02*
X13834405Y-10443836D01*
X13834405Y-10443836D02*
X13834405Y-10462884D01*
X13834405Y-10339074D02*
X13843929Y-10348598D01*
X13843929Y-10348598D02*
X13834405Y-10358122D01*
X13834405Y-10358122D02*
X13824882Y-10348598D01*
X13824882Y-10348598D02*
X13834405Y-10339074D01*
X13834405Y-10339074D02*
X13834405Y-10358122D01*
D10*
X12187200Y-10783900D02*
X12202200Y-10798900D01*
X12202200Y-10783900D02*
X12187200Y-10798900D01*
D11*
X12501072Y-10682884D02*
X12520120Y-10682884D01*
X12520120Y-10682884D02*
X12539167Y-10692408D01*
X12539167Y-10692408D02*
X12548691Y-10701931D01*
X12548691Y-10701931D02*
X12558215Y-10720979D01*
X12558215Y-10720979D02*
X12567739Y-10759074D01*
X12567739Y-10759074D02*
X12567739Y-10806693D01*
X12567739Y-10806693D02*
X12558215Y-10844789D01*
X12558215Y-10844789D02*
X12548691Y-10863836D01*
X12548691Y-10863836D02*
X12539167Y-10873360D01*
X12539167Y-10873360D02*
X12520120Y-10882884D01*
X12520120Y-10882884D02*
X12501072Y-10882884D01*
X12501072Y-10882884D02*
X12482024Y-10873360D01*
X12482024Y-10873360D02*
X12472501Y-10863836D01*
X12472501Y-10863836D02*
X12462977Y-10844789D01*
X12462977Y-10844789D02*
X12453453Y-10806693D01*
X12453453Y-10806693D02*
X12453453Y-10759074D01*
X12453453Y-10759074D02*
X12462977Y-10720979D01*
X12462977Y-10720979D02*
X12472501Y-10701931D01*
X12472501Y-10701931D02*
X12482024Y-10692408D01*
X12482024Y-10692408D02*
X12501072Y-10682884D01*
X12653453Y-10863836D02*
X12662977Y-10873360D01*
X12662977Y-10873360D02*
X12653453Y-10882884D01*
X12653453Y-10882884D02*
X12643929Y-10873360D01*
X12643929Y-10873360D02*
X12653453Y-10863836D01*
X12653453Y-10863836D02*
X12653453Y-10882884D01*
X12853453Y-10882884D02*
X12739167Y-10882884D01*
X12796310Y-10882884D02*
X12796310Y-10682884D01*
X12796310Y-10682884D02*
X12777262Y-10711455D01*
X12777262Y-10711455D02*
X12758215Y-10730503D01*
X12758215Y-10730503D02*
X12739167Y-10740027D01*
X13034405Y-10682884D02*
X12939167Y-10682884D01*
X12939167Y-10682884D02*
X12929643Y-10778122D01*
X12929643Y-10778122D02*
X12939167Y-10768598D01*
X12939167Y-10768598D02*
X12958215Y-10759074D01*
X12958215Y-10759074D02*
X13005834Y-10759074D01*
X13005834Y-10759074D02*
X13024882Y-10768598D01*
X13024882Y-10768598D02*
X13034405Y-10778122D01*
X13034405Y-10778122D02*
X13043929Y-10797170D01*
X13043929Y-10797170D02*
X13043929Y-10844789D01*
X13043929Y-10844789D02*
X13034405Y-10863836D01*
X13034405Y-10863836D02*
X13024882Y-10873360D01*
X13024882Y-10873360D02*
X13005834Y-10882884D01*
X13005834Y-10882884D02*
X12958215Y-10882884D01*
X12958215Y-10882884D02*
X12939167Y-10873360D01*
X12939167Y-10873360D02*
X12929643Y-10863836D01*
X13167739Y-10682884D02*
X13186786Y-10682884D01*
X13186786Y-10682884D02*
X13205834Y-10692408D01*
X13205834Y-10692408D02*
X13215358Y-10701931D01*
X13215358Y-10701931D02*
X13224882Y-10720979D01*
X13224882Y-10720979D02*
X13234405Y-10759074D01*
X13234405Y-10759074D02*
X13234405Y-10806693D01*
X13234405Y-10806693D02*
X13224882Y-10844789D01*
X13224882Y-10844789D02*
X13215358Y-10863836D01*
X13215358Y-10863836D02*
X13205834Y-10873360D01*
X13205834Y-10873360D02*
X13186786Y-10882884D01*
X13186786Y-10882884D02*
X13167739Y-10882884D01*
X13167739Y-10882884D02*
X13148691Y-10873360D01*
X13148691Y-10873360D02*
X13139167Y-10863836D01*
X13139167Y-10863836D02*
X13129643Y-10844789D01*
X13129643Y-10844789D02*
X13120120Y-10806693D01*
X13120120Y-10806693D02*
X13120120Y-10759074D01*
X13120120Y-10759074D02*
X13129643Y-10720979D01*
X13129643Y-10720979D02*
X13139167Y-10701931D01*
X13139167Y-10701931D02*
X13148691Y-10692408D01*
X13148691Y-10692408D02*
X13167739Y-10682884D01*
X13320120Y-10882884D02*
X13320120Y-10749550D01*
X13320120Y-10768598D02*
X13329643Y-10759074D01*
X13329643Y-10759074D02*
X13348691Y-10749550D01*
X13348691Y-10749550D02*
X13377263Y-10749550D01*
X13377263Y-10749550D02*
X13396310Y-10759074D01*
X13396310Y-10759074D02*
X13405834Y-10778122D01*
X13405834Y-10778122D02*
X13405834Y-10882884D01*
X13405834Y-10778122D02*
X13415358Y-10759074D01*
X13415358Y-10759074D02*
X13434405Y-10749550D01*
X13434405Y-10749550D02*
X13462977Y-10749550D01*
X13462977Y-10749550D02*
X13482024Y-10759074D01*
X13482024Y-10759074D02*
X13491548Y-10778122D01*
X13491548Y-10778122D02*
X13491548Y-10882884D01*
X13586786Y-10882884D02*
X13586786Y-10749550D01*
X13586786Y-10768598D02*
X13596310Y-10759074D01*
X13596310Y-10759074D02*
X13615358Y-10749550D01*
X13615358Y-10749550D02*
X13643929Y-10749550D01*
X13643929Y-10749550D02*
X13662977Y-10759074D01*
X13662977Y-10759074D02*
X13672501Y-10778122D01*
X13672501Y-10778122D02*
X13672501Y-10882884D01*
X13672501Y-10778122D02*
X13682024Y-10759074D01*
X13682024Y-10759074D02*
X13701072Y-10749550D01*
X13701072Y-10749550D02*
X13729643Y-10749550D01*
X13729643Y-10749550D02*
X13748691Y-10759074D01*
X13748691Y-10759074D02*
X13758215Y-10778122D01*
X13758215Y-10778122D02*
X13758215Y-10882884D01*
X14148691Y-10673360D02*
X13977263Y-10930503D01*
X14405834Y-10682884D02*
X14424882Y-10682884D01*
X14424882Y-10682884D02*
X14443929Y-10692408D01*
X14443929Y-10692408D02*
X14453453Y-10701931D01*
X14453453Y-10701931D02*
X14462977Y-10720979D01*
X14462977Y-10720979D02*
X14472501Y-10759074D01*
X14472501Y-10759074D02*
X14472501Y-10806693D01*
X14472501Y-10806693D02*
X14462977Y-10844789D01*
X14462977Y-10844789D02*
X14453453Y-10863836D01*
X14453453Y-10863836D02*
X14443929Y-10873360D01*
X14443929Y-10873360D02*
X14424882Y-10882884D01*
X14424882Y-10882884D02*
X14405834Y-10882884D01*
X14405834Y-10882884D02*
X14386786Y-10873360D01*
X14386786Y-10873360D02*
X14377263Y-10863836D01*
X14377263Y-10863836D02*
X14367739Y-10844789D01*
X14367739Y-10844789D02*
X14358215Y-10806693D01*
X14358215Y-10806693D02*
X14358215Y-10759074D01*
X14358215Y-10759074D02*
X14367739Y-10720979D01*
X14367739Y-10720979D02*
X14377263Y-10701931D01*
X14377263Y-10701931D02*
X14386786Y-10692408D01*
X14386786Y-10692408D02*
X14405834Y-10682884D01*
X14558215Y-10863836D02*
X14567739Y-10873360D01*
X14567739Y-10873360D02*
X14558215Y-10882884D01*
X14558215Y-10882884D02*
X14548691Y-10873360D01*
X14548691Y-10873360D02*
X14558215Y-10863836D01*
X14558215Y-10863836D02*
X14558215Y-10882884D01*
X14691548Y-10682884D02*
X14710596Y-10682884D01*
X14710596Y-10682884D02*
X14729644Y-10692408D01*
X14729644Y-10692408D02*
X14739167Y-10701931D01*
X14739167Y-10701931D02*
X14748691Y-10720979D01*
X14748691Y-10720979D02*
X14758215Y-10759074D01*
X14758215Y-10759074D02*
X14758215Y-10806693D01*
X14758215Y-10806693D02*
X14748691Y-10844789D01*
X14748691Y-10844789D02*
X14739167Y-10863836D01*
X14739167Y-10863836D02*
X14729644Y-10873360D01*
X14729644Y-10873360D02*
X14710596Y-10882884D01*
X14710596Y-10882884D02*
X14691548Y-10882884D01*
X14691548Y-10882884D02*
X14672501Y-10873360D01*
X14672501Y-10873360D02*
X14662977Y-10863836D01*
X14662977Y-10863836D02*
X14653453Y-10844789D01*
X14653453Y-10844789D02*
X14643929Y-10806693D01*
X14643929Y-10806693D02*
X14643929Y-10759074D01*
X14643929Y-10759074D02*
X14653453Y-10720979D01*
X14653453Y-10720979D02*
X14662977Y-10701931D01*
X14662977Y-10701931D02*
X14672501Y-10692408D01*
X14672501Y-10692408D02*
X14691548Y-10682884D01*
X14882025Y-10682884D02*
X14901072Y-10682884D01*
X14901072Y-10682884D02*
X14920120Y-10692408D01*
X14920120Y-10692408D02*
X14929644Y-10701931D01*
X14929644Y-10701931D02*
X14939167Y-10720979D01*
X14939167Y-10720979D02*
X14948691Y-10759074D01*
X14948691Y-10759074D02*
X14948691Y-10806693D01*
X14948691Y-10806693D02*
X14939167Y-10844789D01*
X14939167Y-10844789D02*
X14929644Y-10863836D01*
X14929644Y-10863836D02*
X14920120Y-10873360D01*
X14920120Y-10873360D02*
X14901072Y-10882884D01*
X14901072Y-10882884D02*
X14882025Y-10882884D01*
X14882025Y-10882884D02*
X14862977Y-10873360D01*
X14862977Y-10873360D02*
X14853453Y-10863836D01*
X14853453Y-10863836D02*
X14843929Y-10844789D01*
X14843929Y-10844789D02*
X14834406Y-10806693D01*
X14834406Y-10806693D02*
X14834406Y-10759074D01*
X14834406Y-10759074D02*
X14843929Y-10720979D01*
X14843929Y-10720979D02*
X14853453Y-10701931D01*
X14853453Y-10701931D02*
X14862977Y-10692408D01*
X14862977Y-10692408D02*
X14882025Y-10682884D01*
X15129644Y-10682884D02*
X15034406Y-10682884D01*
X15034406Y-10682884D02*
X15024882Y-10778122D01*
X15024882Y-10778122D02*
X15034406Y-10768598D01*
X15034406Y-10768598D02*
X15053453Y-10759074D01*
X15053453Y-10759074D02*
X15101072Y-10759074D01*
X15101072Y-10759074D02*
X15120120Y-10768598D01*
X15120120Y-10768598D02*
X15129644Y-10778122D01*
X15129644Y-10778122D02*
X15139167Y-10797170D01*
X15139167Y-10797170D02*
X15139167Y-10844789D01*
X15139167Y-10844789D02*
X15129644Y-10863836D01*
X15129644Y-10863836D02*
X15120120Y-10873360D01*
X15120120Y-10873360D02*
X15101072Y-10882884D01*
X15101072Y-10882884D02*
X15053453Y-10882884D01*
X15053453Y-10882884D02*
X15034406Y-10873360D01*
X15034406Y-10873360D02*
X15024882Y-10863836D01*
X15234406Y-10882884D02*
X15272501Y-10882884D01*
X15272501Y-10882884D02*
X15291548Y-10873360D01*
X15291548Y-10873360D02*
X15301072Y-10863836D01*
X15301072Y-10863836D02*
X15320120Y-10835265D01*
X15320120Y-10835265D02*
X15329644Y-10797170D01*
X15329644Y-10797170D02*
X15329644Y-10720979D01*
X15329644Y-10720979D02*
X15320120Y-10701931D01*
X15320120Y-10701931D02*
X15310596Y-10692408D01*
X15310596Y-10692408D02*
X15291548Y-10682884D01*
X15291548Y-10682884D02*
X15253453Y-10682884D01*
X15253453Y-10682884D02*
X15234406Y-10692408D01*
X15234406Y-10692408D02*
X15224882Y-10701931D01*
X15224882Y-10701931D02*
X15215358Y-10720979D01*
X15215358Y-10720979D02*
X15215358Y-10768598D01*
X15215358Y-10768598D02*
X15224882Y-10787646D01*
X15224882Y-10787646D02*
X15234406Y-10797170D01*
X15234406Y-10797170D02*
X15253453Y-10806693D01*
X15253453Y-10806693D02*
X15291548Y-10806693D01*
X15291548Y-10806693D02*
X15310596Y-10797170D01*
X15310596Y-10797170D02*
X15320120Y-10787646D01*
X15320120Y-10787646D02*
X15329644Y-10768598D01*
X15405834Y-10682884D02*
X15405834Y-10720979D01*
X15482025Y-10682884D02*
X15482025Y-10720979D01*
X15777263Y-10959074D02*
X15767739Y-10949550D01*
X15767739Y-10949550D02*
X15748691Y-10920979D01*
X15748691Y-10920979D02*
X15739168Y-10901931D01*
X15739168Y-10901931D02*
X15729644Y-10873360D01*
X15729644Y-10873360D02*
X15720120Y-10825741D01*
X15720120Y-10825741D02*
X15720120Y-10787646D01*
X15720120Y-10787646D02*
X15729644Y-10740027D01*
X15729644Y-10740027D02*
X15739168Y-10711455D01*
X15739168Y-10711455D02*
X15748691Y-10692408D01*
X15748691Y-10692408D02*
X15767739Y-10663836D01*
X15767739Y-10663836D02*
X15777263Y-10654312D01*
X15958215Y-10882884D02*
X15843929Y-10882884D01*
X15901072Y-10882884D02*
X15901072Y-10682884D01*
X15901072Y-10682884D02*
X15882025Y-10711455D01*
X15882025Y-10711455D02*
X15862977Y-10730503D01*
X15862977Y-10730503D02*
X15843929Y-10740027D01*
X16024882Y-10682884D02*
X16148691Y-10682884D01*
X16148691Y-10682884D02*
X16082025Y-10759074D01*
X16082025Y-10759074D02*
X16110596Y-10759074D01*
X16110596Y-10759074D02*
X16129644Y-10768598D01*
X16129644Y-10768598D02*
X16139168Y-10778122D01*
X16139168Y-10778122D02*
X16148691Y-10797170D01*
X16148691Y-10797170D02*
X16148691Y-10844789D01*
X16148691Y-10844789D02*
X16139168Y-10863836D01*
X16139168Y-10863836D02*
X16129644Y-10873360D01*
X16129644Y-10873360D02*
X16110596Y-10882884D01*
X16110596Y-10882884D02*
X16053453Y-10882884D01*
X16053453Y-10882884D02*
X16034406Y-10873360D01*
X16034406Y-10873360D02*
X16024882Y-10863836D01*
X16320120Y-10682884D02*
X16282025Y-10682884D01*
X16282025Y-10682884D02*
X16262977Y-10692408D01*
X16262977Y-10692408D02*
X16253453Y-10701931D01*
X16253453Y-10701931D02*
X16234406Y-10730503D01*
X16234406Y-10730503D02*
X16224882Y-10768598D01*
X16224882Y-10768598D02*
X16224882Y-10844789D01*
X16224882Y-10844789D02*
X16234406Y-10863836D01*
X16234406Y-10863836D02*
X16243929Y-10873360D01*
X16243929Y-10873360D02*
X16262977Y-10882884D01*
X16262977Y-10882884D02*
X16301072Y-10882884D01*
X16301072Y-10882884D02*
X16320120Y-10873360D01*
X16320120Y-10873360D02*
X16329644Y-10863836D01*
X16329644Y-10863836D02*
X16339168Y-10844789D01*
X16339168Y-10844789D02*
X16339168Y-10797170D01*
X16339168Y-10797170D02*
X16329644Y-10778122D01*
X16329644Y-10778122D02*
X16320120Y-10768598D01*
X16320120Y-10768598D02*
X16301072Y-10759074D01*
X16301072Y-10759074D02*
X16262977Y-10759074D01*
X16262977Y-10759074D02*
X16243929Y-10768598D01*
X16243929Y-10768598D02*
X16234406Y-10778122D01*
X16234406Y-10778122D02*
X16224882Y-10797170D01*
X16577263Y-10882884D02*
X16577263Y-10682884D01*
X16662977Y-10882884D02*
X16662977Y-10778122D01*
X16662977Y-10778122D02*
X16653453Y-10759074D01*
X16653453Y-10759074D02*
X16634406Y-10749550D01*
X16634406Y-10749550D02*
X16605834Y-10749550D01*
X16605834Y-10749550D02*
X16586787Y-10759074D01*
X16586787Y-10759074D02*
X16577263Y-10768598D01*
X16786787Y-10882884D02*
X16767739Y-10873360D01*
X16767739Y-10873360D02*
X16758215Y-10863836D01*
X16758215Y-10863836D02*
X16748691Y-10844789D01*
X16748691Y-10844789D02*
X16748691Y-10787646D01*
X16748691Y-10787646D02*
X16758215Y-10768598D01*
X16758215Y-10768598D02*
X16767739Y-10759074D01*
X16767739Y-10759074D02*
X16786787Y-10749550D01*
X16786787Y-10749550D02*
X16815358Y-10749550D01*
X16815358Y-10749550D02*
X16834406Y-10759074D01*
X16834406Y-10759074D02*
X16843930Y-10768598D01*
X16843930Y-10768598D02*
X16853453Y-10787646D01*
X16853453Y-10787646D02*
X16853453Y-10844789D01*
X16853453Y-10844789D02*
X16843930Y-10863836D01*
X16843930Y-10863836D02*
X16834406Y-10873360D01*
X16834406Y-10873360D02*
X16815358Y-10882884D01*
X16815358Y-10882884D02*
X16786787Y-10882884D01*
X16967739Y-10882884D02*
X16948692Y-10873360D01*
X16948692Y-10873360D02*
X16939168Y-10854312D01*
X16939168Y-10854312D02*
X16939168Y-10682884D01*
X17120120Y-10873360D02*
X17101073Y-10882884D01*
X17101073Y-10882884D02*
X17062977Y-10882884D01*
X17062977Y-10882884D02*
X17043930Y-10873360D01*
X17043930Y-10873360D02*
X17034406Y-10854312D01*
X17034406Y-10854312D02*
X17034406Y-10778122D01*
X17034406Y-10778122D02*
X17043930Y-10759074D01*
X17043930Y-10759074D02*
X17062977Y-10749550D01*
X17062977Y-10749550D02*
X17101073Y-10749550D01*
X17101073Y-10749550D02*
X17120120Y-10759074D01*
X17120120Y-10759074D02*
X17129644Y-10778122D01*
X17129644Y-10778122D02*
X17129644Y-10797170D01*
X17129644Y-10797170D02*
X17034406Y-10816217D01*
X17205834Y-10873360D02*
X17224882Y-10882884D01*
X17224882Y-10882884D02*
X17262977Y-10882884D01*
X17262977Y-10882884D02*
X17282025Y-10873360D01*
X17282025Y-10873360D02*
X17291549Y-10854312D01*
X17291549Y-10854312D02*
X17291549Y-10844789D01*
X17291549Y-10844789D02*
X17282025Y-10825741D01*
X17282025Y-10825741D02*
X17262977Y-10816217D01*
X17262977Y-10816217D02*
X17234406Y-10816217D01*
X17234406Y-10816217D02*
X17215358Y-10806693D01*
X17215358Y-10806693D02*
X17205834Y-10787646D01*
X17205834Y-10787646D02*
X17205834Y-10778122D01*
X17205834Y-10778122D02*
X17215358Y-10759074D01*
X17215358Y-10759074D02*
X17234406Y-10749550D01*
X17234406Y-10749550D02*
X17262977Y-10749550D01*
X17262977Y-10749550D02*
X17282025Y-10759074D01*
X17358215Y-10959074D02*
X17367739Y-10949550D01*
X17367739Y-10949550D02*
X17386787Y-10920979D01*
X17386787Y-10920979D02*
X17396311Y-10901931D01*
X17396311Y-10901931D02*
X17405834Y-10873360D01*
X17405834Y-10873360D02*
X17415358Y-10825741D01*
X17415358Y-10825741D02*
X17415358Y-10787646D01*
X17415358Y-10787646D02*
X17405834Y-10740027D01*
X17405834Y-10740027D02*
X17396311Y-10711455D01*
X17396311Y-10711455D02*
X17386787Y-10692408D01*
X17386787Y-10692408D02*
X17367739Y-10663836D01*
X17367739Y-10663836D02*
X17358215Y-10654312D01*
D10*
X12202200Y-11055400D02*
G75*
G03*
X12182200Y-11055400I-10000J0D01*
G01*
X12182200Y-11055400D02*
G75*
G03*
X12202200Y-11055400I10000J0D01*
G01*
D11*
X12501072Y-10946884D02*
X12520120Y-10946884D01*
X12520120Y-10946884D02*
X12539167Y-10956408D01*
X12539167Y-10956408D02*
X12548691Y-10965931D01*
X12548691Y-10965931D02*
X12558215Y-10984979D01*
X12558215Y-10984979D02*
X12567739Y-11023074D01*
X12567739Y-11023074D02*
X12567739Y-11070693D01*
X12567739Y-11070693D02*
X12558215Y-11108789D01*
X12558215Y-11108789D02*
X12548691Y-11127836D01*
X12548691Y-11127836D02*
X12539167Y-11137360D01*
X12539167Y-11137360D02*
X12520120Y-11146884D01*
X12520120Y-11146884D02*
X12501072Y-11146884D01*
X12501072Y-11146884D02*
X12482024Y-11137360D01*
X12482024Y-11137360D02*
X12472501Y-11127836D01*
X12472501Y-11127836D02*
X12462977Y-11108789D01*
X12462977Y-11108789D02*
X12453453Y-11070693D01*
X12453453Y-11070693D02*
X12453453Y-11023074D01*
X12453453Y-11023074D02*
X12462977Y-10984979D01*
X12462977Y-10984979D02*
X12472501Y-10965931D01*
X12472501Y-10965931D02*
X12482024Y-10956408D01*
X12482024Y-10956408D02*
X12501072Y-10946884D01*
X12653453Y-11127836D02*
X12662977Y-11137360D01*
X12662977Y-11137360D02*
X12653453Y-11146884D01*
X12653453Y-11146884D02*
X12643929Y-11137360D01*
X12643929Y-11137360D02*
X12653453Y-11127836D01*
X12653453Y-11127836D02*
X12653453Y-11146884D01*
X12739167Y-10965931D02*
X12748691Y-10956408D01*
X12748691Y-10956408D02*
X12767739Y-10946884D01*
X12767739Y-10946884D02*
X12815358Y-10946884D01*
X12815358Y-10946884D02*
X12834405Y-10956408D01*
X12834405Y-10956408D02*
X12843929Y-10965931D01*
X12843929Y-10965931D02*
X12853453Y-10984979D01*
X12853453Y-10984979D02*
X12853453Y-11004027D01*
X12853453Y-11004027D02*
X12843929Y-11032598D01*
X12843929Y-11032598D02*
X12729643Y-11146884D01*
X12729643Y-11146884D02*
X12853453Y-11146884D01*
X12977262Y-10946884D02*
X12996310Y-10946884D01*
X12996310Y-10946884D02*
X13015358Y-10956408D01*
X13015358Y-10956408D02*
X13024882Y-10965931D01*
X13024882Y-10965931D02*
X13034405Y-10984979D01*
X13034405Y-10984979D02*
X13043929Y-11023074D01*
X13043929Y-11023074D02*
X13043929Y-11070693D01*
X13043929Y-11070693D02*
X13034405Y-11108789D01*
X13034405Y-11108789D02*
X13024882Y-11127836D01*
X13024882Y-11127836D02*
X13015358Y-11137360D01*
X13015358Y-11137360D02*
X12996310Y-11146884D01*
X12996310Y-11146884D02*
X12977262Y-11146884D01*
X12977262Y-11146884D02*
X12958215Y-11137360D01*
X12958215Y-11137360D02*
X12948691Y-11127836D01*
X12948691Y-11127836D02*
X12939167Y-11108789D01*
X12939167Y-11108789D02*
X12929643Y-11070693D01*
X12929643Y-11070693D02*
X12929643Y-11023074D01*
X12929643Y-11023074D02*
X12939167Y-10984979D01*
X12939167Y-10984979D02*
X12948691Y-10965931D01*
X12948691Y-10965931D02*
X12958215Y-10956408D01*
X12958215Y-10956408D02*
X12977262Y-10946884D01*
X13167739Y-10946884D02*
X13186786Y-10946884D01*
X13186786Y-10946884D02*
X13205834Y-10956408D01*
X13205834Y-10956408D02*
X13215358Y-10965931D01*
X13215358Y-10965931D02*
X13224882Y-10984979D01*
X13224882Y-10984979D02*
X13234405Y-11023074D01*
X13234405Y-11023074D02*
X13234405Y-11070693D01*
X13234405Y-11070693D02*
X13224882Y-11108789D01*
X13224882Y-11108789D02*
X13215358Y-11127836D01*
X13215358Y-11127836D02*
X13205834Y-11137360D01*
X13205834Y-11137360D02*
X13186786Y-11146884D01*
X13186786Y-11146884D02*
X13167739Y-11146884D01*
X13167739Y-11146884D02*
X13148691Y-11137360D01*
X13148691Y-11137360D02*
X13139167Y-11127836D01*
X13139167Y-11127836D02*
X13129643Y-11108789D01*
X13129643Y-11108789D02*
X13120120Y-11070693D01*
X13120120Y-11070693D02*
X13120120Y-11023074D01*
X13120120Y-11023074D02*
X13129643Y-10984979D01*
X13129643Y-10984979D02*
X13139167Y-10965931D01*
X13139167Y-10965931D02*
X13148691Y-10956408D01*
X13148691Y-10956408D02*
X13167739Y-10946884D01*
X13320120Y-11146884D02*
X13320120Y-11013550D01*
X13320120Y-11032598D02*
X13329643Y-11023074D01*
X13329643Y-11023074D02*
X13348691Y-11013550D01*
X13348691Y-11013550D02*
X13377263Y-11013550D01*
X13377263Y-11013550D02*
X13396310Y-11023074D01*
X13396310Y-11023074D02*
X13405834Y-11042122D01*
X13405834Y-11042122D02*
X13405834Y-11146884D01*
X13405834Y-11042122D02*
X13415358Y-11023074D01*
X13415358Y-11023074D02*
X13434405Y-11013550D01*
X13434405Y-11013550D02*
X13462977Y-11013550D01*
X13462977Y-11013550D02*
X13482024Y-11023074D01*
X13482024Y-11023074D02*
X13491548Y-11042122D01*
X13491548Y-11042122D02*
X13491548Y-11146884D01*
X13586786Y-11146884D02*
X13586786Y-11013550D01*
X13586786Y-11032598D02*
X13596310Y-11023074D01*
X13596310Y-11023074D02*
X13615358Y-11013550D01*
X13615358Y-11013550D02*
X13643929Y-11013550D01*
X13643929Y-11013550D02*
X13662977Y-11023074D01*
X13662977Y-11023074D02*
X13672501Y-11042122D01*
X13672501Y-11042122D02*
X13672501Y-11146884D01*
X13672501Y-11042122D02*
X13682024Y-11023074D01*
X13682024Y-11023074D02*
X13701072Y-11013550D01*
X13701072Y-11013550D02*
X13729643Y-11013550D01*
X13729643Y-11013550D02*
X13748691Y-11023074D01*
X13748691Y-11023074D02*
X13758215Y-11042122D01*
X13758215Y-11042122D02*
X13758215Y-11146884D01*
X14148691Y-10937360D02*
X13977263Y-11194503D01*
X14405834Y-10946884D02*
X14424882Y-10946884D01*
X14424882Y-10946884D02*
X14443929Y-10956408D01*
X14443929Y-10956408D02*
X14453453Y-10965931D01*
X14453453Y-10965931D02*
X14462977Y-10984979D01*
X14462977Y-10984979D02*
X14472501Y-11023074D01*
X14472501Y-11023074D02*
X14472501Y-11070693D01*
X14472501Y-11070693D02*
X14462977Y-11108789D01*
X14462977Y-11108789D02*
X14453453Y-11127836D01*
X14453453Y-11127836D02*
X14443929Y-11137360D01*
X14443929Y-11137360D02*
X14424882Y-11146884D01*
X14424882Y-11146884D02*
X14405834Y-11146884D01*
X14405834Y-11146884D02*
X14386786Y-11137360D01*
X14386786Y-11137360D02*
X14377263Y-11127836D01*
X14377263Y-11127836D02*
X14367739Y-11108789D01*
X14367739Y-11108789D02*
X14358215Y-11070693D01*
X14358215Y-11070693D02*
X14358215Y-11023074D01*
X14358215Y-11023074D02*
X14367739Y-10984979D01*
X14367739Y-10984979D02*
X14377263Y-10965931D01*
X14377263Y-10965931D02*
X14386786Y-10956408D01*
X14386786Y-10956408D02*
X14405834Y-10946884D01*
X14558215Y-11127836D02*
X14567739Y-11137360D01*
X14567739Y-11137360D02*
X14558215Y-11146884D01*
X14558215Y-11146884D02*
X14548691Y-11137360D01*
X14548691Y-11137360D02*
X14558215Y-11127836D01*
X14558215Y-11127836D02*
X14558215Y-11146884D01*
X14691548Y-10946884D02*
X14710596Y-10946884D01*
X14710596Y-10946884D02*
X14729644Y-10956408D01*
X14729644Y-10956408D02*
X14739167Y-10965931D01*
X14739167Y-10965931D02*
X14748691Y-10984979D01*
X14748691Y-10984979D02*
X14758215Y-11023074D01*
X14758215Y-11023074D02*
X14758215Y-11070693D01*
X14758215Y-11070693D02*
X14748691Y-11108789D01*
X14748691Y-11108789D02*
X14739167Y-11127836D01*
X14739167Y-11127836D02*
X14729644Y-11137360D01*
X14729644Y-11137360D02*
X14710596Y-11146884D01*
X14710596Y-11146884D02*
X14691548Y-11146884D01*
X14691548Y-11146884D02*
X14672501Y-11137360D01*
X14672501Y-11137360D02*
X14662977Y-11127836D01*
X14662977Y-11127836D02*
X14653453Y-11108789D01*
X14653453Y-11108789D02*
X14643929Y-11070693D01*
X14643929Y-11070693D02*
X14643929Y-11023074D01*
X14643929Y-11023074D02*
X14653453Y-10984979D01*
X14653453Y-10984979D02*
X14662977Y-10965931D01*
X14662977Y-10965931D02*
X14672501Y-10956408D01*
X14672501Y-10956408D02*
X14691548Y-10946884D01*
X14882025Y-10946884D02*
X14901072Y-10946884D01*
X14901072Y-10946884D02*
X14920120Y-10956408D01*
X14920120Y-10956408D02*
X14929644Y-10965931D01*
X14929644Y-10965931D02*
X14939167Y-10984979D01*
X14939167Y-10984979D02*
X14948691Y-11023074D01*
X14948691Y-11023074D02*
X14948691Y-11070693D01*
X14948691Y-11070693D02*
X14939167Y-11108789D01*
X14939167Y-11108789D02*
X14929644Y-11127836D01*
X14929644Y-11127836D02*
X14920120Y-11137360D01*
X14920120Y-11137360D02*
X14901072Y-11146884D01*
X14901072Y-11146884D02*
X14882025Y-11146884D01*
X14882025Y-11146884D02*
X14862977Y-11137360D01*
X14862977Y-11137360D02*
X14853453Y-11127836D01*
X14853453Y-11127836D02*
X14843929Y-11108789D01*
X14843929Y-11108789D02*
X14834406Y-11070693D01*
X14834406Y-11070693D02*
X14834406Y-11023074D01*
X14834406Y-11023074D02*
X14843929Y-10984979D01*
X14843929Y-10984979D02*
X14853453Y-10965931D01*
X14853453Y-10965931D02*
X14862977Y-10956408D01*
X14862977Y-10956408D02*
X14882025Y-10946884D01*
X15015358Y-10946884D02*
X15148691Y-10946884D01*
X15148691Y-10946884D02*
X15062977Y-11146884D01*
X15234406Y-11146884D02*
X15272501Y-11146884D01*
X15272501Y-11146884D02*
X15291548Y-11137360D01*
X15291548Y-11137360D02*
X15301072Y-11127836D01*
X15301072Y-11127836D02*
X15320120Y-11099265D01*
X15320120Y-11099265D02*
X15329644Y-11061170D01*
X15329644Y-11061170D02*
X15329644Y-10984979D01*
X15329644Y-10984979D02*
X15320120Y-10965931D01*
X15320120Y-10965931D02*
X15310596Y-10956408D01*
X15310596Y-10956408D02*
X15291548Y-10946884D01*
X15291548Y-10946884D02*
X15253453Y-10946884D01*
X15253453Y-10946884D02*
X15234406Y-10956408D01*
X15234406Y-10956408D02*
X15224882Y-10965931D01*
X15224882Y-10965931D02*
X15215358Y-10984979D01*
X15215358Y-10984979D02*
X15215358Y-11032598D01*
X15215358Y-11032598D02*
X15224882Y-11051646D01*
X15224882Y-11051646D02*
X15234406Y-11061170D01*
X15234406Y-11061170D02*
X15253453Y-11070693D01*
X15253453Y-11070693D02*
X15291548Y-11070693D01*
X15291548Y-11070693D02*
X15310596Y-11061170D01*
X15310596Y-11061170D02*
X15320120Y-11051646D01*
X15320120Y-11051646D02*
X15329644Y-11032598D01*
X15405834Y-10946884D02*
X15405834Y-10984979D01*
X15482025Y-10946884D02*
X15482025Y-10984979D01*
X15777263Y-11223074D02*
X15767739Y-11213550D01*
X15767739Y-11213550D02*
X15748691Y-11184979D01*
X15748691Y-11184979D02*
X15739168Y-11165931D01*
X15739168Y-11165931D02*
X15729644Y-11137360D01*
X15729644Y-11137360D02*
X15720120Y-11089741D01*
X15720120Y-11089741D02*
X15720120Y-11051646D01*
X15720120Y-11051646D02*
X15729644Y-11004027D01*
X15729644Y-11004027D02*
X15739168Y-10975455D01*
X15739168Y-10975455D02*
X15748691Y-10956408D01*
X15748691Y-10956408D02*
X15767739Y-10927836D01*
X15767739Y-10927836D02*
X15777263Y-10918312D01*
X15882025Y-11032598D02*
X15862977Y-11023074D01*
X15862977Y-11023074D02*
X15853453Y-11013550D01*
X15853453Y-11013550D02*
X15843929Y-10994503D01*
X15843929Y-10994503D02*
X15843929Y-10984979D01*
X15843929Y-10984979D02*
X15853453Y-10965931D01*
X15853453Y-10965931D02*
X15862977Y-10956408D01*
X15862977Y-10956408D02*
X15882025Y-10946884D01*
X15882025Y-10946884D02*
X15920120Y-10946884D01*
X15920120Y-10946884D02*
X15939168Y-10956408D01*
X15939168Y-10956408D02*
X15948691Y-10965931D01*
X15948691Y-10965931D02*
X15958215Y-10984979D01*
X15958215Y-10984979D02*
X15958215Y-10994503D01*
X15958215Y-10994503D02*
X15948691Y-11013550D01*
X15948691Y-11013550D02*
X15939168Y-11023074D01*
X15939168Y-11023074D02*
X15920120Y-11032598D01*
X15920120Y-11032598D02*
X15882025Y-11032598D01*
X15882025Y-11032598D02*
X15862977Y-11042122D01*
X15862977Y-11042122D02*
X15853453Y-11051646D01*
X15853453Y-11051646D02*
X15843929Y-11070693D01*
X15843929Y-11070693D02*
X15843929Y-11108789D01*
X15843929Y-11108789D02*
X15853453Y-11127836D01*
X15853453Y-11127836D02*
X15862977Y-11137360D01*
X15862977Y-11137360D02*
X15882025Y-11146884D01*
X15882025Y-11146884D02*
X15920120Y-11146884D01*
X15920120Y-11146884D02*
X15939168Y-11137360D01*
X15939168Y-11137360D02*
X15948691Y-11127836D01*
X15948691Y-11127836D02*
X15958215Y-11108789D01*
X15958215Y-11108789D02*
X15958215Y-11070693D01*
X15958215Y-11070693D02*
X15948691Y-11051646D01*
X15948691Y-11051646D02*
X15939168Y-11042122D01*
X15939168Y-11042122D02*
X15920120Y-11032598D01*
X16196310Y-11146884D02*
X16196310Y-10946884D01*
X16282025Y-11146884D02*
X16282025Y-11042122D01*
X16282025Y-11042122D02*
X16272501Y-11023074D01*
X16272501Y-11023074D02*
X16253453Y-11013550D01*
X16253453Y-11013550D02*
X16224882Y-11013550D01*
X16224882Y-11013550D02*
X16205834Y-11023074D01*
X16205834Y-11023074D02*
X16196310Y-11032598D01*
X16405834Y-11146884D02*
X16386787Y-11137360D01*
X16386787Y-11137360D02*
X16377263Y-11127836D01*
X16377263Y-11127836D02*
X16367739Y-11108789D01*
X16367739Y-11108789D02*
X16367739Y-11051646D01*
X16367739Y-11051646D02*
X16377263Y-11032598D01*
X16377263Y-11032598D02*
X16386787Y-11023074D01*
X16386787Y-11023074D02*
X16405834Y-11013550D01*
X16405834Y-11013550D02*
X16434406Y-11013550D01*
X16434406Y-11013550D02*
X16453453Y-11023074D01*
X16453453Y-11023074D02*
X16462977Y-11032598D01*
X16462977Y-11032598D02*
X16472501Y-11051646D01*
X16472501Y-11051646D02*
X16472501Y-11108789D01*
X16472501Y-11108789D02*
X16462977Y-11127836D01*
X16462977Y-11127836D02*
X16453453Y-11137360D01*
X16453453Y-11137360D02*
X16434406Y-11146884D01*
X16434406Y-11146884D02*
X16405834Y-11146884D01*
X16586787Y-11146884D02*
X16567739Y-11137360D01*
X16567739Y-11137360D02*
X16558215Y-11118312D01*
X16558215Y-11118312D02*
X16558215Y-10946884D01*
X16739168Y-11137360D02*
X16720120Y-11146884D01*
X16720120Y-11146884D02*
X16682025Y-11146884D01*
X16682025Y-11146884D02*
X16662977Y-11137360D01*
X16662977Y-11137360D02*
X16653453Y-11118312D01*
X16653453Y-11118312D02*
X16653453Y-11042122D01*
X16653453Y-11042122D02*
X16662977Y-11023074D01*
X16662977Y-11023074D02*
X16682025Y-11013550D01*
X16682025Y-11013550D02*
X16720120Y-11013550D01*
X16720120Y-11013550D02*
X16739168Y-11023074D01*
X16739168Y-11023074D02*
X16748691Y-11042122D01*
X16748691Y-11042122D02*
X16748691Y-11061170D01*
X16748691Y-11061170D02*
X16653453Y-11080217D01*
X16824882Y-11137360D02*
X16843930Y-11146884D01*
X16843930Y-11146884D02*
X16882025Y-11146884D01*
X16882025Y-11146884D02*
X16901073Y-11137360D01*
X16901073Y-11137360D02*
X16910596Y-11118312D01*
X16910596Y-11118312D02*
X16910596Y-11108789D01*
X16910596Y-11108789D02*
X16901073Y-11089741D01*
X16901073Y-11089741D02*
X16882025Y-11080217D01*
X16882025Y-11080217D02*
X16853453Y-11080217D01*
X16853453Y-11080217D02*
X16834406Y-11070693D01*
X16834406Y-11070693D02*
X16824882Y-11051646D01*
X16824882Y-11051646D02*
X16824882Y-11042122D01*
X16824882Y-11042122D02*
X16834406Y-11023074D01*
X16834406Y-11023074D02*
X16853453Y-11013550D01*
X16853453Y-11013550D02*
X16882025Y-11013550D01*
X16882025Y-11013550D02*
X16901073Y-11023074D01*
X16977263Y-11223074D02*
X16986787Y-11213550D01*
X16986787Y-11213550D02*
X17005834Y-11184979D01*
X17005834Y-11184979D02*
X17015358Y-11165931D01*
X17015358Y-11165931D02*
X17024882Y-11137360D01*
X17024882Y-11137360D02*
X17034406Y-11089741D01*
X17034406Y-11089741D02*
X17034406Y-11051646D01*
X17034406Y-11051646D02*
X17024882Y-11004027D01*
X17024882Y-11004027D02*
X17015358Y-10975455D01*
X17015358Y-10975455D02*
X17005834Y-10956408D01*
X17005834Y-10956408D02*
X16986787Y-10927836D01*
X16986787Y-10927836D02*
X16977263Y-10918312D01*
D10*
X12187200Y-11304400D02*
X12187200Y-11334400D01*
X12172200Y-11319400D02*
X12202200Y-11319400D01*
D11*
X12501072Y-11210884D02*
X12520120Y-11210884D01*
X12520120Y-11210884D02*
X12539167Y-11220408D01*
X12539167Y-11220408D02*
X12548691Y-11229931D01*
X12548691Y-11229931D02*
X12558215Y-11248979D01*
X12558215Y-11248979D02*
X12567739Y-11287074D01*
X12567739Y-11287074D02*
X12567739Y-11334693D01*
X12567739Y-11334693D02*
X12558215Y-11372788D01*
X12558215Y-11372788D02*
X12548691Y-11391836D01*
X12548691Y-11391836D02*
X12539167Y-11401360D01*
X12539167Y-11401360D02*
X12520120Y-11410884D01*
X12520120Y-11410884D02*
X12501072Y-11410884D01*
X12501072Y-11410884D02*
X12482024Y-11401360D01*
X12482024Y-11401360D02*
X12472501Y-11391836D01*
X12472501Y-11391836D02*
X12462977Y-11372788D01*
X12462977Y-11372788D02*
X12453453Y-11334693D01*
X12453453Y-11334693D02*
X12453453Y-11287074D01*
X12453453Y-11287074D02*
X12462977Y-11248979D01*
X12462977Y-11248979D02*
X12472501Y-11229931D01*
X12472501Y-11229931D02*
X12482024Y-11220408D01*
X12482024Y-11220408D02*
X12501072Y-11210884D01*
X12653453Y-11391836D02*
X12662977Y-11401360D01*
X12662977Y-11401360D02*
X12653453Y-11410884D01*
X12653453Y-11410884D02*
X12643929Y-11401360D01*
X12643929Y-11401360D02*
X12653453Y-11391836D01*
X12653453Y-11391836D02*
X12653453Y-11410884D01*
X12729643Y-11210884D02*
X12853453Y-11210884D01*
X12853453Y-11210884D02*
X12786786Y-11287074D01*
X12786786Y-11287074D02*
X12815358Y-11287074D01*
X12815358Y-11287074D02*
X12834405Y-11296598D01*
X12834405Y-11296598D02*
X12843929Y-11306122D01*
X12843929Y-11306122D02*
X12853453Y-11325169D01*
X12853453Y-11325169D02*
X12853453Y-11372788D01*
X12853453Y-11372788D02*
X12843929Y-11391836D01*
X12843929Y-11391836D02*
X12834405Y-11401360D01*
X12834405Y-11401360D02*
X12815358Y-11410884D01*
X12815358Y-11410884D02*
X12758215Y-11410884D01*
X12758215Y-11410884D02*
X12739167Y-11401360D01*
X12739167Y-11401360D02*
X12729643Y-11391836D01*
X12977262Y-11210884D02*
X12996310Y-11210884D01*
X12996310Y-11210884D02*
X13015358Y-11220408D01*
X13015358Y-11220408D02*
X13024882Y-11229931D01*
X13024882Y-11229931D02*
X13034405Y-11248979D01*
X13034405Y-11248979D02*
X13043929Y-11287074D01*
X13043929Y-11287074D02*
X13043929Y-11334693D01*
X13043929Y-11334693D02*
X13034405Y-11372788D01*
X13034405Y-11372788D02*
X13024882Y-11391836D01*
X13024882Y-11391836D02*
X13015358Y-11401360D01*
X13015358Y-11401360D02*
X12996310Y-11410884D01*
X12996310Y-11410884D02*
X12977262Y-11410884D01*
X12977262Y-11410884D02*
X12958215Y-11401360D01*
X12958215Y-11401360D02*
X12948691Y-11391836D01*
X12948691Y-11391836D02*
X12939167Y-11372788D01*
X12939167Y-11372788D02*
X12929643Y-11334693D01*
X12929643Y-11334693D02*
X12929643Y-11287074D01*
X12929643Y-11287074D02*
X12939167Y-11248979D01*
X12939167Y-11248979D02*
X12948691Y-11229931D01*
X12948691Y-11229931D02*
X12958215Y-11220408D01*
X12958215Y-11220408D02*
X12977262Y-11210884D01*
X13167739Y-11210884D02*
X13186786Y-11210884D01*
X13186786Y-11210884D02*
X13205834Y-11220408D01*
X13205834Y-11220408D02*
X13215358Y-11229931D01*
X13215358Y-11229931D02*
X13224882Y-11248979D01*
X13224882Y-11248979D02*
X13234405Y-11287074D01*
X13234405Y-11287074D02*
X13234405Y-11334693D01*
X13234405Y-11334693D02*
X13224882Y-11372788D01*
X13224882Y-11372788D02*
X13215358Y-11391836D01*
X13215358Y-11391836D02*
X13205834Y-11401360D01*
X13205834Y-11401360D02*
X13186786Y-11410884D01*
X13186786Y-11410884D02*
X13167739Y-11410884D01*
X13167739Y-11410884D02*
X13148691Y-11401360D01*
X13148691Y-11401360D02*
X13139167Y-11391836D01*
X13139167Y-11391836D02*
X13129643Y-11372788D01*
X13129643Y-11372788D02*
X13120120Y-11334693D01*
X13120120Y-11334693D02*
X13120120Y-11287074D01*
X13120120Y-11287074D02*
X13129643Y-11248979D01*
X13129643Y-11248979D02*
X13139167Y-11229931D01*
X13139167Y-11229931D02*
X13148691Y-11220408D01*
X13148691Y-11220408D02*
X13167739Y-11210884D01*
X13320120Y-11410884D02*
X13320120Y-11277550D01*
X13320120Y-11296598D02*
X13329643Y-11287074D01*
X13329643Y-11287074D02*
X13348691Y-11277550D01*
X13348691Y-11277550D02*
X13377263Y-11277550D01*
X13377263Y-11277550D02*
X13396310Y-11287074D01*
X13396310Y-11287074D02*
X13405834Y-11306122D01*
X13405834Y-11306122D02*
X13405834Y-11410884D01*
X13405834Y-11306122D02*
X13415358Y-11287074D01*
X13415358Y-11287074D02*
X13434405Y-11277550D01*
X13434405Y-11277550D02*
X13462977Y-11277550D01*
X13462977Y-11277550D02*
X13482024Y-11287074D01*
X13482024Y-11287074D02*
X13491548Y-11306122D01*
X13491548Y-11306122D02*
X13491548Y-11410884D01*
X13586786Y-11410884D02*
X13586786Y-11277550D01*
X13586786Y-11296598D02*
X13596310Y-11287074D01*
X13596310Y-11287074D02*
X13615358Y-11277550D01*
X13615358Y-11277550D02*
X13643929Y-11277550D01*
X13643929Y-11277550D02*
X13662977Y-11287074D01*
X13662977Y-11287074D02*
X13672501Y-11306122D01*
X13672501Y-11306122D02*
X13672501Y-11410884D01*
X13672501Y-11306122D02*
X13682024Y-11287074D01*
X13682024Y-11287074D02*
X13701072Y-11277550D01*
X13701072Y-11277550D02*
X13729643Y-11277550D01*
X13729643Y-11277550D02*
X13748691Y-11287074D01*
X13748691Y-11287074D02*
X13758215Y-11306122D01*
X13758215Y-11306122D02*
X13758215Y-11410884D01*
X14148691Y-11201360D02*
X13977263Y-11458503D01*
X14405834Y-11210884D02*
X14424882Y-11210884D01*
X14424882Y-11210884D02*
X14443929Y-11220408D01*
X14443929Y-11220408D02*
X14453453Y-11229931D01*
X14453453Y-11229931D02*
X14462977Y-11248979D01*
X14462977Y-11248979D02*
X14472501Y-11287074D01*
X14472501Y-11287074D02*
X14472501Y-11334693D01*
X14472501Y-11334693D02*
X14462977Y-11372788D01*
X14462977Y-11372788D02*
X14453453Y-11391836D01*
X14453453Y-11391836D02*
X14443929Y-11401360D01*
X14443929Y-11401360D02*
X14424882Y-11410884D01*
X14424882Y-11410884D02*
X14405834Y-11410884D01*
X14405834Y-11410884D02*
X14386786Y-11401360D01*
X14386786Y-11401360D02*
X14377263Y-11391836D01*
X14377263Y-11391836D02*
X14367739Y-11372788D01*
X14367739Y-11372788D02*
X14358215Y-11334693D01*
X14358215Y-11334693D02*
X14358215Y-11287074D01*
X14358215Y-11287074D02*
X14367739Y-11248979D01*
X14367739Y-11248979D02*
X14377263Y-11229931D01*
X14377263Y-11229931D02*
X14386786Y-11220408D01*
X14386786Y-11220408D02*
X14405834Y-11210884D01*
X14558215Y-11391836D02*
X14567739Y-11401360D01*
X14567739Y-11401360D02*
X14558215Y-11410884D01*
X14558215Y-11410884D02*
X14548691Y-11401360D01*
X14548691Y-11401360D02*
X14558215Y-11391836D01*
X14558215Y-11391836D02*
X14558215Y-11410884D01*
X14691548Y-11210884D02*
X14710596Y-11210884D01*
X14710596Y-11210884D02*
X14729644Y-11220408D01*
X14729644Y-11220408D02*
X14739167Y-11229931D01*
X14739167Y-11229931D02*
X14748691Y-11248979D01*
X14748691Y-11248979D02*
X14758215Y-11287074D01*
X14758215Y-11287074D02*
X14758215Y-11334693D01*
X14758215Y-11334693D02*
X14748691Y-11372788D01*
X14748691Y-11372788D02*
X14739167Y-11391836D01*
X14739167Y-11391836D02*
X14729644Y-11401360D01*
X14729644Y-11401360D02*
X14710596Y-11410884D01*
X14710596Y-11410884D02*
X14691548Y-11410884D01*
X14691548Y-11410884D02*
X14672501Y-11401360D01*
X14672501Y-11401360D02*
X14662977Y-11391836D01*
X14662977Y-11391836D02*
X14653453Y-11372788D01*
X14653453Y-11372788D02*
X14643929Y-11334693D01*
X14643929Y-11334693D02*
X14643929Y-11287074D01*
X14643929Y-11287074D02*
X14653453Y-11248979D01*
X14653453Y-11248979D02*
X14662977Y-11229931D01*
X14662977Y-11229931D02*
X14672501Y-11220408D01*
X14672501Y-11220408D02*
X14691548Y-11210884D01*
X14948691Y-11410884D02*
X14834406Y-11410884D01*
X14891548Y-11410884D02*
X14891548Y-11210884D01*
X14891548Y-11210884D02*
X14872501Y-11239455D01*
X14872501Y-11239455D02*
X14853453Y-11258503D01*
X14853453Y-11258503D02*
X14834406Y-11268027D01*
X15139167Y-11410884D02*
X15024882Y-11410884D01*
X15082025Y-11410884D02*
X15082025Y-11210884D01*
X15082025Y-11210884D02*
X15062977Y-11239455D01*
X15062977Y-11239455D02*
X15043929Y-11258503D01*
X15043929Y-11258503D02*
X15024882Y-11268027D01*
X15253453Y-11296598D02*
X15234406Y-11287074D01*
X15234406Y-11287074D02*
X15224882Y-11277550D01*
X15224882Y-11277550D02*
X15215358Y-11258503D01*
X15215358Y-11258503D02*
X15215358Y-11248979D01*
X15215358Y-11248979D02*
X15224882Y-11229931D01*
X15224882Y-11229931D02*
X15234406Y-11220408D01*
X15234406Y-11220408D02*
X15253453Y-11210884D01*
X15253453Y-11210884D02*
X15291548Y-11210884D01*
X15291548Y-11210884D02*
X15310596Y-11220408D01*
X15310596Y-11220408D02*
X15320120Y-11229931D01*
X15320120Y-11229931D02*
X15329644Y-11248979D01*
X15329644Y-11248979D02*
X15329644Y-11258503D01*
X15329644Y-11258503D02*
X15320120Y-11277550D01*
X15320120Y-11277550D02*
X15310596Y-11287074D01*
X15310596Y-11287074D02*
X15291548Y-11296598D01*
X15291548Y-11296598D02*
X15253453Y-11296598D01*
X15253453Y-11296598D02*
X15234406Y-11306122D01*
X15234406Y-11306122D02*
X15224882Y-11315646D01*
X15224882Y-11315646D02*
X15215358Y-11334693D01*
X15215358Y-11334693D02*
X15215358Y-11372788D01*
X15215358Y-11372788D02*
X15224882Y-11391836D01*
X15224882Y-11391836D02*
X15234406Y-11401360D01*
X15234406Y-11401360D02*
X15253453Y-11410884D01*
X15253453Y-11410884D02*
X15291548Y-11410884D01*
X15291548Y-11410884D02*
X15310596Y-11401360D01*
X15310596Y-11401360D02*
X15320120Y-11391836D01*
X15320120Y-11391836D02*
X15329644Y-11372788D01*
X15329644Y-11372788D02*
X15329644Y-11334693D01*
X15329644Y-11334693D02*
X15320120Y-11315646D01*
X15320120Y-11315646D02*
X15310596Y-11306122D01*
X15310596Y-11306122D02*
X15291548Y-11296598D01*
X15405834Y-11210884D02*
X15405834Y-11248979D01*
X15482025Y-11210884D02*
X15482025Y-11248979D01*
X15777263Y-11487074D02*
X15767739Y-11477550D01*
X15767739Y-11477550D02*
X15748691Y-11448979D01*
X15748691Y-11448979D02*
X15739168Y-11429931D01*
X15739168Y-11429931D02*
X15729644Y-11401360D01*
X15729644Y-11401360D02*
X15720120Y-11353741D01*
X15720120Y-11353741D02*
X15720120Y-11315646D01*
X15720120Y-11315646D02*
X15729644Y-11268027D01*
X15729644Y-11268027D02*
X15739168Y-11239455D01*
X15739168Y-11239455D02*
X15748691Y-11220408D01*
X15748691Y-11220408D02*
X15767739Y-11191836D01*
X15767739Y-11191836D02*
X15777263Y-11182312D01*
X15958215Y-11410884D02*
X15843929Y-11410884D01*
X15901072Y-11410884D02*
X15901072Y-11210884D01*
X15901072Y-11210884D02*
X15882025Y-11239455D01*
X15882025Y-11239455D02*
X15862977Y-11258503D01*
X15862977Y-11258503D02*
X15843929Y-11268027D01*
X16053453Y-11410884D02*
X16091548Y-11410884D01*
X16091548Y-11410884D02*
X16110596Y-11401360D01*
X16110596Y-11401360D02*
X16120120Y-11391836D01*
X16120120Y-11391836D02*
X16139168Y-11363265D01*
X16139168Y-11363265D02*
X16148691Y-11325169D01*
X16148691Y-11325169D02*
X16148691Y-11248979D01*
X16148691Y-11248979D02*
X16139168Y-11229931D01*
X16139168Y-11229931D02*
X16129644Y-11220408D01*
X16129644Y-11220408D02*
X16110596Y-11210884D01*
X16110596Y-11210884D02*
X16072501Y-11210884D01*
X16072501Y-11210884D02*
X16053453Y-11220408D01*
X16053453Y-11220408D02*
X16043929Y-11229931D01*
X16043929Y-11229931D02*
X16034406Y-11248979D01*
X16034406Y-11248979D02*
X16034406Y-11296598D01*
X16034406Y-11296598D02*
X16043929Y-11315646D01*
X16043929Y-11315646D02*
X16053453Y-11325169D01*
X16053453Y-11325169D02*
X16072501Y-11334693D01*
X16072501Y-11334693D02*
X16110596Y-11334693D01*
X16110596Y-11334693D02*
X16129644Y-11325169D01*
X16129644Y-11325169D02*
X16139168Y-11315646D01*
X16139168Y-11315646D02*
X16148691Y-11296598D01*
X16386787Y-11410884D02*
X16386787Y-11210884D01*
X16472501Y-11410884D02*
X16472501Y-11306122D01*
X16472501Y-11306122D02*
X16462977Y-11287074D01*
X16462977Y-11287074D02*
X16443930Y-11277550D01*
X16443930Y-11277550D02*
X16415358Y-11277550D01*
X16415358Y-11277550D02*
X16396310Y-11287074D01*
X16396310Y-11287074D02*
X16386787Y-11296598D01*
X16596310Y-11410884D02*
X16577263Y-11401360D01*
X16577263Y-11401360D02*
X16567739Y-11391836D01*
X16567739Y-11391836D02*
X16558215Y-11372788D01*
X16558215Y-11372788D02*
X16558215Y-11315646D01*
X16558215Y-11315646D02*
X16567739Y-11296598D01*
X16567739Y-11296598D02*
X16577263Y-11287074D01*
X16577263Y-11287074D02*
X16596310Y-11277550D01*
X16596310Y-11277550D02*
X16624882Y-11277550D01*
X16624882Y-11277550D02*
X16643930Y-11287074D01*
X16643930Y-11287074D02*
X16653453Y-11296598D01*
X16653453Y-11296598D02*
X16662977Y-11315646D01*
X16662977Y-11315646D02*
X16662977Y-11372788D01*
X16662977Y-11372788D02*
X16653453Y-11391836D01*
X16653453Y-11391836D02*
X16643930Y-11401360D01*
X16643930Y-11401360D02*
X16624882Y-11410884D01*
X16624882Y-11410884D02*
X16596310Y-11410884D01*
X16777263Y-11410884D02*
X16758215Y-11401360D01*
X16758215Y-11401360D02*
X16748691Y-11382312D01*
X16748691Y-11382312D02*
X16748691Y-11210884D01*
X16929644Y-11401360D02*
X16910596Y-11410884D01*
X16910596Y-11410884D02*
X16872501Y-11410884D01*
X16872501Y-11410884D02*
X16853453Y-11401360D01*
X16853453Y-11401360D02*
X16843930Y-11382312D01*
X16843930Y-11382312D02*
X16843930Y-11306122D01*
X16843930Y-11306122D02*
X16853453Y-11287074D01*
X16853453Y-11287074D02*
X16872501Y-11277550D01*
X16872501Y-11277550D02*
X16910596Y-11277550D01*
X16910596Y-11277550D02*
X16929644Y-11287074D01*
X16929644Y-11287074D02*
X16939168Y-11306122D01*
X16939168Y-11306122D02*
X16939168Y-11325169D01*
X16939168Y-11325169D02*
X16843930Y-11344217D01*
X17015358Y-11401360D02*
X17034406Y-11410884D01*
X17034406Y-11410884D02*
X17072501Y-11410884D01*
X17072501Y-11410884D02*
X17091549Y-11401360D01*
X17091549Y-11401360D02*
X17101073Y-11382312D01*
X17101073Y-11382312D02*
X17101073Y-11372788D01*
X17101073Y-11372788D02*
X17091549Y-11353741D01*
X17091549Y-11353741D02*
X17072501Y-11344217D01*
X17072501Y-11344217D02*
X17043930Y-11344217D01*
X17043930Y-11344217D02*
X17024882Y-11334693D01*
X17024882Y-11334693D02*
X17015358Y-11315646D01*
X17015358Y-11315646D02*
X17015358Y-11306122D01*
X17015358Y-11306122D02*
X17024882Y-11287074D01*
X17024882Y-11287074D02*
X17043930Y-11277550D01*
X17043930Y-11277550D02*
X17072501Y-11277550D01*
X17072501Y-11277550D02*
X17091549Y-11287074D01*
X17167739Y-11487074D02*
X17177263Y-11477550D01*
X17177263Y-11477550D02*
X17196311Y-11448979D01*
X17196311Y-11448979D02*
X17205834Y-11429931D01*
X17205834Y-11429931D02*
X17215358Y-11401360D01*
X17215358Y-11401360D02*
X17224882Y-11353741D01*
X17224882Y-11353741D02*
X17224882Y-11315646D01*
X17224882Y-11315646D02*
X17215358Y-11268027D01*
X17215358Y-11268027D02*
X17205834Y-11239455D01*
X17205834Y-11239455D02*
X17196311Y-11220408D01*
X17196311Y-11220408D02*
X17177263Y-11191836D01*
X17177263Y-11191836D02*
X17167739Y-11182312D01*
D10*
X12193413Y-11604613D02*
X12193413Y-11562187D01*
X12150987Y-11562187D01*
X12150987Y-11604613D01*
X12193413Y-11604613D01*
D11*
X12501072Y-11474884D02*
X12520120Y-11474884D01*
X12520120Y-11474884D02*
X12539167Y-11484408D01*
X12539167Y-11484408D02*
X12548691Y-11493931D01*
X12548691Y-11493931D02*
X12558215Y-11512979D01*
X12558215Y-11512979D02*
X12567739Y-11551074D01*
X12567739Y-11551074D02*
X12567739Y-11598693D01*
X12567739Y-11598693D02*
X12558215Y-11636788D01*
X12558215Y-11636788D02*
X12548691Y-11655836D01*
X12548691Y-11655836D02*
X12539167Y-11665360D01*
X12539167Y-11665360D02*
X12520120Y-11674884D01*
X12520120Y-11674884D02*
X12501072Y-11674884D01*
X12501072Y-11674884D02*
X12482024Y-11665360D01*
X12482024Y-11665360D02*
X12472501Y-11655836D01*
X12472501Y-11655836D02*
X12462977Y-11636788D01*
X12462977Y-11636788D02*
X12453453Y-11598693D01*
X12453453Y-11598693D02*
X12453453Y-11551074D01*
X12453453Y-11551074D02*
X12462977Y-11512979D01*
X12462977Y-11512979D02*
X12472501Y-11493931D01*
X12472501Y-11493931D02*
X12482024Y-11484408D01*
X12482024Y-11484408D02*
X12501072Y-11474884D01*
X12653453Y-11655836D02*
X12662977Y-11665360D01*
X12662977Y-11665360D02*
X12653453Y-11674884D01*
X12653453Y-11674884D02*
X12643929Y-11665360D01*
X12643929Y-11665360D02*
X12653453Y-11655836D01*
X12653453Y-11655836D02*
X12653453Y-11674884D01*
X12834405Y-11474884D02*
X12796310Y-11474884D01*
X12796310Y-11474884D02*
X12777262Y-11484408D01*
X12777262Y-11484408D02*
X12767739Y-11493931D01*
X12767739Y-11493931D02*
X12748691Y-11522503D01*
X12748691Y-11522503D02*
X12739167Y-11560598D01*
X12739167Y-11560598D02*
X12739167Y-11636788D01*
X12739167Y-11636788D02*
X12748691Y-11655836D01*
X12748691Y-11655836D02*
X12758215Y-11665360D01*
X12758215Y-11665360D02*
X12777262Y-11674884D01*
X12777262Y-11674884D02*
X12815358Y-11674884D01*
X12815358Y-11674884D02*
X12834405Y-11665360D01*
X12834405Y-11665360D02*
X12843929Y-11655836D01*
X12843929Y-11655836D02*
X12853453Y-11636788D01*
X12853453Y-11636788D02*
X12853453Y-11589169D01*
X12853453Y-11589169D02*
X12843929Y-11570122D01*
X12843929Y-11570122D02*
X12834405Y-11560598D01*
X12834405Y-11560598D02*
X12815358Y-11551074D01*
X12815358Y-11551074D02*
X12777262Y-11551074D01*
X12777262Y-11551074D02*
X12758215Y-11560598D01*
X12758215Y-11560598D02*
X12748691Y-11570122D01*
X12748691Y-11570122D02*
X12739167Y-11589169D01*
X12977262Y-11474884D02*
X12996310Y-11474884D01*
X12996310Y-11474884D02*
X13015358Y-11484408D01*
X13015358Y-11484408D02*
X13024882Y-11493931D01*
X13024882Y-11493931D02*
X13034405Y-11512979D01*
X13034405Y-11512979D02*
X13043929Y-11551074D01*
X13043929Y-11551074D02*
X13043929Y-11598693D01*
X13043929Y-11598693D02*
X13034405Y-11636788D01*
X13034405Y-11636788D02*
X13024882Y-11655836D01*
X13024882Y-11655836D02*
X13015358Y-11665360D01*
X13015358Y-11665360D02*
X12996310Y-11674884D01*
X12996310Y-11674884D02*
X12977262Y-11674884D01*
X12977262Y-11674884D02*
X12958215Y-11665360D01*
X12958215Y-11665360D02*
X12948691Y-11655836D01*
X12948691Y-11655836D02*
X12939167Y-11636788D01*
X12939167Y-11636788D02*
X12929643Y-11598693D01*
X12929643Y-11598693D02*
X12929643Y-11551074D01*
X12929643Y-11551074D02*
X12939167Y-11512979D01*
X12939167Y-11512979D02*
X12948691Y-11493931D01*
X12948691Y-11493931D02*
X12958215Y-11484408D01*
X12958215Y-11484408D02*
X12977262Y-11474884D01*
X13167739Y-11474884D02*
X13186786Y-11474884D01*
X13186786Y-11474884D02*
X13205834Y-11484408D01*
X13205834Y-11484408D02*
X13215358Y-11493931D01*
X13215358Y-11493931D02*
X13224882Y-11512979D01*
X13224882Y-11512979D02*
X13234405Y-11551074D01*
X13234405Y-11551074D02*
X13234405Y-11598693D01*
X13234405Y-11598693D02*
X13224882Y-11636788D01*
X13224882Y-11636788D02*
X13215358Y-11655836D01*
X13215358Y-11655836D02*
X13205834Y-11665360D01*
X13205834Y-11665360D02*
X13186786Y-11674884D01*
X13186786Y-11674884D02*
X13167739Y-11674884D01*
X13167739Y-11674884D02*
X13148691Y-11665360D01*
X13148691Y-11665360D02*
X13139167Y-11655836D01*
X13139167Y-11655836D02*
X13129643Y-11636788D01*
X13129643Y-11636788D02*
X13120120Y-11598693D01*
X13120120Y-11598693D02*
X13120120Y-11551074D01*
X13120120Y-11551074D02*
X13129643Y-11512979D01*
X13129643Y-11512979D02*
X13139167Y-11493931D01*
X13139167Y-11493931D02*
X13148691Y-11484408D01*
X13148691Y-11484408D02*
X13167739Y-11474884D01*
X13320120Y-11674884D02*
X13320120Y-11541550D01*
X13320120Y-11560598D02*
X13329643Y-11551074D01*
X13329643Y-11551074D02*
X13348691Y-11541550D01*
X13348691Y-11541550D02*
X13377263Y-11541550D01*
X13377263Y-11541550D02*
X13396310Y-11551074D01*
X13396310Y-11551074D02*
X13405834Y-11570122D01*
X13405834Y-11570122D02*
X13405834Y-11674884D01*
X13405834Y-11570122D02*
X13415358Y-11551074D01*
X13415358Y-11551074D02*
X13434405Y-11541550D01*
X13434405Y-11541550D02*
X13462977Y-11541550D01*
X13462977Y-11541550D02*
X13482024Y-11551074D01*
X13482024Y-11551074D02*
X13491548Y-11570122D01*
X13491548Y-11570122D02*
X13491548Y-11674884D01*
X13586786Y-11674884D02*
X13586786Y-11541550D01*
X13586786Y-11560598D02*
X13596310Y-11551074D01*
X13596310Y-11551074D02*
X13615358Y-11541550D01*
X13615358Y-11541550D02*
X13643929Y-11541550D01*
X13643929Y-11541550D02*
X13662977Y-11551074D01*
X13662977Y-11551074D02*
X13672501Y-11570122D01*
X13672501Y-11570122D02*
X13672501Y-11674884D01*
X13672501Y-11570122D02*
X13682024Y-11551074D01*
X13682024Y-11551074D02*
X13701072Y-11541550D01*
X13701072Y-11541550D02*
X13729643Y-11541550D01*
X13729643Y-11541550D02*
X13748691Y-11551074D01*
X13748691Y-11551074D02*
X13758215Y-11570122D01*
X13758215Y-11570122D02*
X13758215Y-11674884D01*
X14148691Y-11465360D02*
X13977263Y-11722503D01*
X14405834Y-11474884D02*
X14424882Y-11474884D01*
X14424882Y-11474884D02*
X14443929Y-11484408D01*
X14443929Y-11484408D02*
X14453453Y-11493931D01*
X14453453Y-11493931D02*
X14462977Y-11512979D01*
X14462977Y-11512979D02*
X14472501Y-11551074D01*
X14472501Y-11551074D02*
X14472501Y-11598693D01*
X14472501Y-11598693D02*
X14462977Y-11636788D01*
X14462977Y-11636788D02*
X14453453Y-11655836D01*
X14453453Y-11655836D02*
X14443929Y-11665360D01*
X14443929Y-11665360D02*
X14424882Y-11674884D01*
X14424882Y-11674884D02*
X14405834Y-11674884D01*
X14405834Y-11674884D02*
X14386786Y-11665360D01*
X14386786Y-11665360D02*
X14377263Y-11655836D01*
X14377263Y-11655836D02*
X14367739Y-11636788D01*
X14367739Y-11636788D02*
X14358215Y-11598693D01*
X14358215Y-11598693D02*
X14358215Y-11551074D01*
X14358215Y-11551074D02*
X14367739Y-11512979D01*
X14367739Y-11512979D02*
X14377263Y-11493931D01*
X14377263Y-11493931D02*
X14386786Y-11484408D01*
X14386786Y-11484408D02*
X14405834Y-11474884D01*
X14558215Y-11655836D02*
X14567739Y-11665360D01*
X14567739Y-11665360D02*
X14558215Y-11674884D01*
X14558215Y-11674884D02*
X14548691Y-11665360D01*
X14548691Y-11665360D02*
X14558215Y-11655836D01*
X14558215Y-11655836D02*
X14558215Y-11674884D01*
X14691548Y-11474884D02*
X14710596Y-11474884D01*
X14710596Y-11474884D02*
X14729644Y-11484408D01*
X14729644Y-11484408D02*
X14739167Y-11493931D01*
X14739167Y-11493931D02*
X14748691Y-11512979D01*
X14748691Y-11512979D02*
X14758215Y-11551074D01*
X14758215Y-11551074D02*
X14758215Y-11598693D01*
X14758215Y-11598693D02*
X14748691Y-11636788D01*
X14748691Y-11636788D02*
X14739167Y-11655836D01*
X14739167Y-11655836D02*
X14729644Y-11665360D01*
X14729644Y-11665360D02*
X14710596Y-11674884D01*
X14710596Y-11674884D02*
X14691548Y-11674884D01*
X14691548Y-11674884D02*
X14672501Y-11665360D01*
X14672501Y-11665360D02*
X14662977Y-11655836D01*
X14662977Y-11655836D02*
X14653453Y-11636788D01*
X14653453Y-11636788D02*
X14643929Y-11598693D01*
X14643929Y-11598693D02*
X14643929Y-11551074D01*
X14643929Y-11551074D02*
X14653453Y-11512979D01*
X14653453Y-11512979D02*
X14662977Y-11493931D01*
X14662977Y-11493931D02*
X14672501Y-11484408D01*
X14672501Y-11484408D02*
X14691548Y-11474884D01*
X14834406Y-11493931D02*
X14843929Y-11484408D01*
X14843929Y-11484408D02*
X14862977Y-11474884D01*
X14862977Y-11474884D02*
X14910596Y-11474884D01*
X14910596Y-11474884D02*
X14929644Y-11484408D01*
X14929644Y-11484408D02*
X14939167Y-11493931D01*
X14939167Y-11493931D02*
X14948691Y-11512979D01*
X14948691Y-11512979D02*
X14948691Y-11532027D01*
X14948691Y-11532027D02*
X14939167Y-11560598D01*
X14939167Y-11560598D02*
X14824882Y-11674884D01*
X14824882Y-11674884D02*
X14948691Y-11674884D01*
X15015358Y-11474884D02*
X15139167Y-11474884D01*
X15139167Y-11474884D02*
X15072501Y-11551074D01*
X15072501Y-11551074D02*
X15101072Y-11551074D01*
X15101072Y-11551074D02*
X15120120Y-11560598D01*
X15120120Y-11560598D02*
X15129644Y-11570122D01*
X15129644Y-11570122D02*
X15139167Y-11589169D01*
X15139167Y-11589169D02*
X15139167Y-11636788D01*
X15139167Y-11636788D02*
X15129644Y-11655836D01*
X15129644Y-11655836D02*
X15120120Y-11665360D01*
X15120120Y-11665360D02*
X15101072Y-11674884D01*
X15101072Y-11674884D02*
X15043929Y-11674884D01*
X15043929Y-11674884D02*
X15024882Y-11665360D01*
X15024882Y-11665360D02*
X15015358Y-11655836D01*
X15310596Y-11474884D02*
X15272501Y-11474884D01*
X15272501Y-11474884D02*
X15253453Y-11484408D01*
X15253453Y-11484408D02*
X15243929Y-11493931D01*
X15243929Y-11493931D02*
X15224882Y-11522503D01*
X15224882Y-11522503D02*
X15215358Y-11560598D01*
X15215358Y-11560598D02*
X15215358Y-11636788D01*
X15215358Y-11636788D02*
X15224882Y-11655836D01*
X15224882Y-11655836D02*
X15234406Y-11665360D01*
X15234406Y-11665360D02*
X15253453Y-11674884D01*
X15253453Y-11674884D02*
X15291548Y-11674884D01*
X15291548Y-11674884D02*
X15310596Y-11665360D01*
X15310596Y-11665360D02*
X15320120Y-11655836D01*
X15320120Y-11655836D02*
X15329644Y-11636788D01*
X15329644Y-11636788D02*
X15329644Y-11589169D01*
X15329644Y-11589169D02*
X15320120Y-11570122D01*
X15320120Y-11570122D02*
X15310596Y-11560598D01*
X15310596Y-11560598D02*
X15291548Y-11551074D01*
X15291548Y-11551074D02*
X15253453Y-11551074D01*
X15253453Y-11551074D02*
X15234406Y-11560598D01*
X15234406Y-11560598D02*
X15224882Y-11570122D01*
X15224882Y-11570122D02*
X15215358Y-11589169D01*
X15405834Y-11474884D02*
X15405834Y-11512979D01*
X15482025Y-11474884D02*
X15482025Y-11512979D01*
X15777263Y-11751074D02*
X15767739Y-11741550D01*
X15767739Y-11741550D02*
X15748691Y-11712979D01*
X15748691Y-11712979D02*
X15739168Y-11693931D01*
X15739168Y-11693931D02*
X15729644Y-11665360D01*
X15729644Y-11665360D02*
X15720120Y-11617741D01*
X15720120Y-11617741D02*
X15720120Y-11579646D01*
X15720120Y-11579646D02*
X15729644Y-11532027D01*
X15729644Y-11532027D02*
X15739168Y-11503455D01*
X15739168Y-11503455D02*
X15748691Y-11484408D01*
X15748691Y-11484408D02*
X15767739Y-11455836D01*
X15767739Y-11455836D02*
X15777263Y-11446312D01*
X15891548Y-11474884D02*
X15910596Y-11474884D01*
X15910596Y-11474884D02*
X15929644Y-11484408D01*
X15929644Y-11484408D02*
X15939168Y-11493931D01*
X15939168Y-11493931D02*
X15948691Y-11512979D01*
X15948691Y-11512979D02*
X15958215Y-11551074D01*
X15958215Y-11551074D02*
X15958215Y-11598693D01*
X15958215Y-11598693D02*
X15948691Y-11636788D01*
X15948691Y-11636788D02*
X15939168Y-11655836D01*
X15939168Y-11655836D02*
X15929644Y-11665360D01*
X15929644Y-11665360D02*
X15910596Y-11674884D01*
X15910596Y-11674884D02*
X15891548Y-11674884D01*
X15891548Y-11674884D02*
X15872501Y-11665360D01*
X15872501Y-11665360D02*
X15862977Y-11655836D01*
X15862977Y-11655836D02*
X15853453Y-11636788D01*
X15853453Y-11636788D02*
X15843929Y-11598693D01*
X15843929Y-11598693D02*
X15843929Y-11551074D01*
X15843929Y-11551074D02*
X15853453Y-11512979D01*
X15853453Y-11512979D02*
X15862977Y-11493931D01*
X15862977Y-11493931D02*
X15872501Y-11484408D01*
X15872501Y-11484408D02*
X15891548Y-11474884D01*
X16196310Y-11674884D02*
X16196310Y-11474884D01*
X16282025Y-11674884D02*
X16282025Y-11570122D01*
X16282025Y-11570122D02*
X16272501Y-11551074D01*
X16272501Y-11551074D02*
X16253453Y-11541550D01*
X16253453Y-11541550D02*
X16224882Y-11541550D01*
X16224882Y-11541550D02*
X16205834Y-11551074D01*
X16205834Y-11551074D02*
X16196310Y-11560598D01*
X16405834Y-11674884D02*
X16386787Y-11665360D01*
X16386787Y-11665360D02*
X16377263Y-11655836D01*
X16377263Y-11655836D02*
X16367739Y-11636788D01*
X16367739Y-11636788D02*
X16367739Y-11579646D01*
X16367739Y-11579646D02*
X16377263Y-11560598D01*
X16377263Y-11560598D02*
X16386787Y-11551074D01*
X16386787Y-11551074D02*
X16405834Y-11541550D01*
X16405834Y-11541550D02*
X16434406Y-11541550D01*
X16434406Y-11541550D02*
X16453453Y-11551074D01*
X16453453Y-11551074D02*
X16462977Y-11560598D01*
X16462977Y-11560598D02*
X16472501Y-11579646D01*
X16472501Y-11579646D02*
X16472501Y-11636788D01*
X16472501Y-11636788D02*
X16462977Y-11655836D01*
X16462977Y-11655836D02*
X16453453Y-11665360D01*
X16453453Y-11665360D02*
X16434406Y-11674884D01*
X16434406Y-11674884D02*
X16405834Y-11674884D01*
X16586787Y-11674884D02*
X16567739Y-11665360D01*
X16567739Y-11665360D02*
X16558215Y-11646312D01*
X16558215Y-11646312D02*
X16558215Y-11474884D01*
X16739168Y-11665360D02*
X16720120Y-11674884D01*
X16720120Y-11674884D02*
X16682025Y-11674884D01*
X16682025Y-11674884D02*
X16662977Y-11665360D01*
X16662977Y-11665360D02*
X16653453Y-11646312D01*
X16653453Y-11646312D02*
X16653453Y-11570122D01*
X16653453Y-11570122D02*
X16662977Y-11551074D01*
X16662977Y-11551074D02*
X16682025Y-11541550D01*
X16682025Y-11541550D02*
X16720120Y-11541550D01*
X16720120Y-11541550D02*
X16739168Y-11551074D01*
X16739168Y-11551074D02*
X16748691Y-11570122D01*
X16748691Y-11570122D02*
X16748691Y-11589169D01*
X16748691Y-11589169D02*
X16653453Y-11608217D01*
X16824882Y-11665360D02*
X16843930Y-11674884D01*
X16843930Y-11674884D02*
X16882025Y-11674884D01*
X16882025Y-11674884D02*
X16901073Y-11665360D01*
X16901073Y-11665360D02*
X16910596Y-11646312D01*
X16910596Y-11646312D02*
X16910596Y-11636788D01*
X16910596Y-11636788D02*
X16901073Y-11617741D01*
X16901073Y-11617741D02*
X16882025Y-11608217D01*
X16882025Y-11608217D02*
X16853453Y-11608217D01*
X16853453Y-11608217D02*
X16834406Y-11598693D01*
X16834406Y-11598693D02*
X16824882Y-11579646D01*
X16824882Y-11579646D02*
X16824882Y-11570122D01*
X16824882Y-11570122D02*
X16834406Y-11551074D01*
X16834406Y-11551074D02*
X16853453Y-11541550D01*
X16853453Y-11541550D02*
X16882025Y-11541550D01*
X16882025Y-11541550D02*
X16901073Y-11551074D01*
X17148692Y-11598693D02*
X17301073Y-11598693D01*
X17224882Y-11674884D02*
X17224882Y-11522503D01*
X17634406Y-11541550D02*
X17634406Y-11674884D01*
X17586787Y-11465360D02*
X17539168Y-11608217D01*
X17539168Y-11608217D02*
X17662977Y-11608217D01*
X17882025Y-11665360D02*
X17901073Y-11674884D01*
X17901073Y-11674884D02*
X17939168Y-11674884D01*
X17939168Y-11674884D02*
X17958216Y-11665360D01*
X17958216Y-11665360D02*
X17967739Y-11646312D01*
X17967739Y-11646312D02*
X17967739Y-11636788D01*
X17967739Y-11636788D02*
X17958216Y-11617741D01*
X17958216Y-11617741D02*
X17939168Y-11608217D01*
X17939168Y-11608217D02*
X17910596Y-11608217D01*
X17910596Y-11608217D02*
X17891549Y-11598693D01*
X17891549Y-11598693D02*
X17882025Y-11579646D01*
X17882025Y-11579646D02*
X17882025Y-11570122D01*
X17882025Y-11570122D02*
X17891549Y-11551074D01*
X17891549Y-11551074D02*
X17910596Y-11541550D01*
X17910596Y-11541550D02*
X17939168Y-11541550D01*
X17939168Y-11541550D02*
X17958216Y-11551074D01*
X18082025Y-11674884D02*
X18062977Y-11665360D01*
X18062977Y-11665360D02*
X18053454Y-11646312D01*
X18053454Y-11646312D02*
X18053454Y-11474884D01*
X18186787Y-11674884D02*
X18167739Y-11665360D01*
X18167739Y-11665360D02*
X18158216Y-11655836D01*
X18158216Y-11655836D02*
X18148692Y-11636788D01*
X18148692Y-11636788D02*
X18148692Y-11579646D01*
X18148692Y-11579646D02*
X18158216Y-11560598D01*
X18158216Y-11560598D02*
X18167739Y-11551074D01*
X18167739Y-11551074D02*
X18186787Y-11541550D01*
X18186787Y-11541550D02*
X18215358Y-11541550D01*
X18215358Y-11541550D02*
X18234406Y-11551074D01*
X18234406Y-11551074D02*
X18243930Y-11560598D01*
X18243930Y-11560598D02*
X18253454Y-11579646D01*
X18253454Y-11579646D02*
X18253454Y-11636788D01*
X18253454Y-11636788D02*
X18243930Y-11655836D01*
X18243930Y-11655836D02*
X18234406Y-11665360D01*
X18234406Y-11665360D02*
X18215358Y-11674884D01*
X18215358Y-11674884D02*
X18186787Y-11674884D01*
X18310597Y-11541550D02*
X18386787Y-11541550D01*
X18339168Y-11474884D02*
X18339168Y-11646312D01*
X18339168Y-11646312D02*
X18348692Y-11665360D01*
X18348692Y-11665360D02*
X18367739Y-11674884D01*
X18367739Y-11674884D02*
X18386787Y-11674884D01*
X18443930Y-11665360D02*
X18462977Y-11674884D01*
X18462977Y-11674884D02*
X18501073Y-11674884D01*
X18501073Y-11674884D02*
X18520120Y-11665360D01*
X18520120Y-11665360D02*
X18529644Y-11646312D01*
X18529644Y-11646312D02*
X18529644Y-11636788D01*
X18529644Y-11636788D02*
X18520120Y-11617741D01*
X18520120Y-11617741D02*
X18501073Y-11608217D01*
X18501073Y-11608217D02*
X18472501Y-11608217D01*
X18472501Y-11608217D02*
X18453454Y-11598693D01*
X18453454Y-11598693D02*
X18443930Y-11579646D01*
X18443930Y-11579646D02*
X18443930Y-11570122D01*
X18443930Y-11570122D02*
X18453454Y-11551074D01*
X18453454Y-11551074D02*
X18472501Y-11541550D01*
X18472501Y-11541550D02*
X18501073Y-11541550D01*
X18501073Y-11541550D02*
X18520120Y-11551074D01*
X18596311Y-11751074D02*
X18605835Y-11741550D01*
X18605835Y-11741550D02*
X18624882Y-11712979D01*
X18624882Y-11712979D02*
X18634406Y-11693931D01*
X18634406Y-11693931D02*
X18643930Y-11665360D01*
X18643930Y-11665360D02*
X18653454Y-11617741D01*
X18653454Y-11617741D02*
X18653454Y-11579646D01*
X18653454Y-11579646D02*
X18643930Y-11532027D01*
X18643930Y-11532027D02*
X18634406Y-11503455D01*
X18634406Y-11503455D02*
X18624882Y-11484408D01*
X18624882Y-11484408D02*
X18605835Y-11455836D01*
X18605835Y-11455836D02*
X18596311Y-11446312D01*
M02*
