M48
; DRILL file {KiCad 7.0.10} date Sun Mar  3 23:10:42 2024
; FORMAT={-:-/ absolute / metric / decimal}
; #@! TF.CreationDate,2024-03-03T23:10:42-08:00
; #@! TF.GenerationSoftware,Kicad,Pcbnew,7.0.10
; #@! TF.FileFunction,Plated,1,4,PTH
FMAT,2
METRIC
; #@! TA.AperFunction,Plated,PTH,ViaDrill
T1C0.150
; #@! TA.AperFunction,Plated,PTH,ViaDrill
T2C0.200
; #@! TA.AperFunction,Plated,PTH,ViaDrill
T3C0.300
; #@! TA.AperFunction,Plated,PTH,ComponentDrill
T4C0.600
%
G90
G05
T1
X122.675Y-100.375
X122.685Y-95.44
X122.975Y-87.2
X122.975Y-88.725
X123.075Y-80.725
X123.075Y-97.75
X123.1Y-77.73
X123.1Y-95.725
X123.15Y-93.575
X123.175Y-96.65
X123.25Y-99.15
X123.35Y-82.25
X123.35Y-83.25
X123.45Y-87.375
X123.775Y-93.65
X124.05Y-99.25
X124.36Y-78.52
X124.4Y-91.1
X124.4Y-97.7
X124.425Y-84.65
X124.475Y-82.75
X124.5Y-85.675
X124.525Y-76.275
X124.525Y-89.825
X124.55Y-90.4
X124.625Y-76.75
X124.625Y-83.7
X124.675Y-86.8
X124.8Y-93.125
X124.9Y-95.3
X125.0Y-84.1
X125.1Y-86.175
X125.225Y-96.1
X125.225Y-98.075
X125.35Y-93.125
X125.9Y-93.125
X126.375Y-98.125
X126.45Y-96.2
X126.45Y-96.7
X126.5Y-99.45
X126.575Y-89.575
X126.7Y-100.9
X126.725Y-93.275
X126.9Y-84.7
X127.0Y-91.05
X127.0Y-100.375
X127.125Y-93.7
X127.425Y-99.675
X127.575Y-99.125
X127.7Y-84.7
X127.75Y-94.7
X128.5Y-85.0
X128.65Y-98.45
X128.675Y-94.525
X129.025Y-96.2
X129.3Y-92.475
X129.4Y-84.5
X129.725Y-95.95
X129.725Y-96.425
X129.85Y-98.875
X130.1Y-84.75
X130.194Y-90.129
X130.196Y-91.037
X130.196Y-90.583
X130.2Y-89.675
X130.2Y-91.6
X130.469Y-96.417
X130.471Y-97.325
X130.471Y-96.871
X130.475Y-95.963
X130.649Y-90.129
X130.65Y-91.037
X130.65Y-91.6
X130.65Y-90.583
X130.654Y-89.675
X130.7Y-84.3
X130.924Y-96.417
X130.925Y-97.325
X130.925Y-96.871
X130.929Y-95.963
X131.0Y-92.1
X131.35Y-96.879
X131.378Y-96.427
X131.379Y-97.335
X131.383Y-95.972
X131.7Y-86.95
X132.15Y-100.85
X132.2Y-89.85
X132.35Y-99.875
X132.5Y-85.225
X132.6Y-86.95
X132.6Y-92.625
X132.675Y-89.2
X132.7Y-84.5
X133.05Y-94.875
X133.05Y-95.9
X133.15Y-100.075
X133.2Y-86.925
X133.3Y-85.225
X133.7Y-84.5
X133.975Y-89.2
X134.1Y-85.225
X134.25Y-94.3
X134.25Y-94.9
X134.3Y-90.95
X134.3Y-91.8
X134.3Y-92.725
X134.75Y-89.2
X134.775Y-85.225
X135.525Y-89.2
X136.075Y-94.8
X136.175Y-83.95
X136.45Y-84.375
X136.537Y-84.825
X136.625Y-88.075
X136.775Y-85.3
X137.25Y-92.75
X137.588Y-91.663
X138.275Y-90.725
X138.5Y-76.75
X138.7Y-89.175
X138.72Y-80.58
X138.825Y-89.65
X138.85Y-76.275
X138.85Y-77.225
X139.425Y-87.2
X139.71Y-79.48
X139.79Y-83.66
X139.8Y-81.49
X139.9Y-82.45
X139.9Y-90.775
X139.925Y-84.8
X140.05Y-87.25
X140.15Y-88.5
X140.27Y-77.74
X140.4Y-85.025
T2
X128.0Y-89.0
X128.6Y-88.4
X128.6Y-89.0
X130.55Y-87.621
X130.55Y-88.15
X130.9Y-93.6
X132.05Y-88.6
X137.45Y-97.95
T3
X122.975Y-79.5
X123.725Y-79.5
X126.6Y-78.8
X127.7Y-77.2
X128.7Y-80.225
X128.7Y-82.2
X129.3Y-77.2
X129.579Y-94.183
X130.086Y-94.455
X130.725Y-80.225
X130.725Y-82.2
X130.9Y-77.2
X132.5Y-77.2
X132.7Y-80.225
X132.7Y-82.2
X134.1Y-77.2
X134.675Y-80.225
X134.675Y-82.2
X135.7Y-77.2
T4
X135.26Y-91.73G85X136.36Y-91.73
G05
X135.26Y-100.37G85X136.36Y-100.37
G05
X139.61Y-91.73G85X140.41Y-91.73
G05
X139.61Y-100.37G85X140.41Y-100.37
G05
M30
