G04 #@! TF.GenerationSoftware,KiCad,Pcbnew,7.0.10*
G04 #@! TF.CreationDate,2024-03-06T03:44:09-08:00*
G04 #@! TF.ProjectId,Tracker_Band_V1,54726163-6b65-4725-9f42-616e645f5631,1*
G04 #@! TF.SameCoordinates,Original*
G04 #@! TF.FileFunction,Copper,L1,Top*
G04 #@! TF.FilePolarity,Positive*
%FSLAX46Y46*%
G04 Gerber Fmt 4.6, Leading zero omitted, Abs format (unit mm)*
G04 Created by KiCad (PCBNEW 7.0.10) date 2024-03-06 03:44:09*
%MOMM*%
%LPD*%
G01*
G04 APERTURE LIST*
G04 Aperture macros list*
%AMRoundRect*
0 Rectangle with rounded corners*
0 $1 Rounding radius*
0 $2 $3 $4 $5 $6 $7 $8 $9 X,Y pos of 4 corners*
0 Add a 4 corners polygon primitive as box body*
4,1,4,$2,$3,$4,$5,$6,$7,$8,$9,$2,$3,0*
0 Add four circle primitives for the rounded corners*
1,1,$1+$1,$2,$3*
1,1,$1+$1,$4,$5*
1,1,$1+$1,$6,$7*
1,1,$1+$1,$8,$9*
0 Add four rect primitives between the rounded corners*
20,1,$1+$1,$2,$3,$4,$5,0*
20,1,$1+$1,$4,$5,$6,$7,0*
20,1,$1+$1,$6,$7,$8,$9,0*
20,1,$1+$1,$8,$9,$2,$3,0*%
%AMOutline4P*
0 Free polygon, 4 corners , with rotation*
0 The origin of the aperture is its center*
0 number of corners: always 4*
0 $1 to $8 corner X, Y*
0 $9 Rotation angle, in degrees counterclockwise*
0 create outline with 4 corners*
4,1,4,$1,$2,$3,$4,$5,$6,$7,$8,$1,$2,$9*%
%AMOutline5P*
0 Free polygon, 5 corners , with rotation*
0 The origin of the aperture is its center*
0 number of corners: always 5*
0 $1 to $10 corner X, Y*
0 $11 Rotation angle, in degrees counterclockwise*
0 create outline with 5 corners*
4,1,5,$1,$2,$3,$4,$5,$6,$7,$8,$9,$10,$1,$2,$11*%
%AMOutline6P*
0 Free polygon, 6 corners , with rotation*
0 The origin of the aperture is its center*
0 number of corners: always 6*
0 $1 to $12 corner X, Y*
0 $13 Rotation angle, in degrees counterclockwise*
0 create outline with 6 corners*
4,1,6,$1,$2,$3,$4,$5,$6,$7,$8,$9,$10,$11,$12,$1,$2,$13*%
%AMOutline7P*
0 Free polygon, 7 corners , with rotation*
0 The origin of the aperture is its center*
0 number of corners: always 7*
0 $1 to $14 corner X, Y*
0 $15 Rotation angle, in degrees counterclockwise*
0 create outline with 7 corners*
4,1,7,$1,$2,$3,$4,$5,$6,$7,$8,$9,$10,$11,$12,$13,$14,$1,$2,$15*%
%AMOutline8P*
0 Free polygon, 8 corners , with rotation*
0 The origin of the aperture is its center*
0 number of corners: always 8*
0 $1 to $16 corner X, Y*
0 $17 Rotation angle, in degrees counterclockwise*
0 create outline with 8 corners*
4,1,8,$1,$2,$3,$4,$5,$6,$7,$8,$9,$10,$11,$12,$13,$14,$15,$16,$1,$2,$17*%
G04 Aperture macros list end*
G04 #@! TA.AperFunction,SMDPad,CuDef*
%ADD10RoundRect,0.150000X-0.150000X-0.200000X0.150000X-0.200000X0.150000X0.200000X-0.150000X0.200000X0*%
G04 #@! TD*
G04 #@! TA.AperFunction,SMDPad,CuDef*
%ADD11RoundRect,0.135000X0.135000X0.185000X-0.135000X0.185000X-0.135000X-0.185000X0.135000X-0.185000X0*%
G04 #@! TD*
G04 #@! TA.AperFunction,SMDPad,CuDef*
%ADD12R,0.558800X0.558800*%
G04 #@! TD*
G04 #@! TA.AperFunction,SMDPad,CuDef*
%ADD13RoundRect,0.135000X0.185000X-0.135000X0.185000X0.135000X-0.185000X0.135000X-0.185000X-0.135000X0*%
G04 #@! TD*
G04 #@! TA.AperFunction,SMDPad,CuDef*
%ADD14RoundRect,0.250000X0.475000X-0.250000X0.475000X0.250000X-0.475000X0.250000X-0.475000X-0.250000X0*%
G04 #@! TD*
G04 #@! TA.AperFunction,SMDPad,CuDef*
%ADD15R,0.340000X0.700000*%
G04 #@! TD*
G04 #@! TA.AperFunction,SMDPad,CuDef*
%ADD16RoundRect,0.135000X-0.135000X-0.185000X0.135000X-0.185000X0.135000X0.185000X-0.135000X0.185000X0*%
G04 #@! TD*
G04 #@! TA.AperFunction,SMDPad,CuDef*
%ADD17RoundRect,0.140000X-0.170000X0.140000X-0.170000X-0.140000X0.170000X-0.140000X0.170000X0.140000X0*%
G04 #@! TD*
G04 #@! TA.AperFunction,SMDPad,CuDef*
%ADD18RoundRect,0.150000X-0.200000X0.150000X-0.200000X-0.150000X0.200000X-0.150000X0.200000X0.150000X0*%
G04 #@! TD*
G04 #@! TA.AperFunction,SMDPad,CuDef*
%ADD19RoundRect,0.135000X-0.185000X0.135000X-0.185000X-0.135000X0.185000X-0.135000X0.185000X0.135000X0*%
G04 #@! TD*
G04 #@! TA.AperFunction,SMDPad,CuDef*
%ADD20R,0.457200X0.838200*%
G04 #@! TD*
G04 #@! TA.AperFunction,SMDPad,CuDef*
%ADD21R,0.711200X1.143000*%
G04 #@! TD*
G04 #@! TA.AperFunction,SMDPad,CuDef*
%ADD22RoundRect,0.062500X-0.062500X0.337500X-0.062500X-0.337500X0.062500X-0.337500X0.062500X0.337500X0*%
G04 #@! TD*
G04 #@! TA.AperFunction,SMDPad,CuDef*
%ADD23R,1.400000X1.700000*%
G04 #@! TD*
G04 #@! TA.AperFunction,SMDPad,CuDef*
%ADD24RoundRect,0.140000X0.140000X0.170000X-0.140000X0.170000X-0.140000X-0.170000X0.140000X-0.170000X0*%
G04 #@! TD*
G04 #@! TA.AperFunction,SMDPad,CuDef*
%ADD25RoundRect,0.050000X-0.285000X-0.100000X0.285000X-0.100000X0.285000X0.100000X-0.285000X0.100000X0*%
G04 #@! TD*
G04 #@! TA.AperFunction,SMDPad,CuDef*
%ADD26R,0.700000X0.800000*%
G04 #@! TD*
G04 #@! TA.AperFunction,SMDPad,CuDef*
%ADD27R,0.812800X0.406400*%
G04 #@! TD*
G04 #@! TA.AperFunction,SMDPad,CuDef*
%ADD28R,0.406400X0.812800*%
G04 #@! TD*
G04 #@! TA.AperFunction,SMDPad,CuDef*
%ADD29R,1.447800X1.447800*%
G04 #@! TD*
G04 #@! TA.AperFunction,SMDPad,CuDef*
%ADD30R,0.711200X0.711200*%
G04 #@! TD*
G04 #@! TA.AperFunction,SMDPad,CuDef*
%ADD31Outline5P,-0.723900X0.289560X-0.289560X0.723900X0.723900X0.723900X0.723900X-0.723900X-0.723900X-0.723900X0.000000*%
G04 #@! TD*
G04 #@! TA.AperFunction,SMDPad,CuDef*
%ADD32R,2.700000X0.800000*%
G04 #@! TD*
G04 #@! TA.AperFunction,SMDPad,CuDef*
%ADD33R,1.000000X0.600000*%
G04 #@! TD*
G04 #@! TA.AperFunction,SMDPad,CuDef*
%ADD34Outline5P,-0.300000X0.620000X0.300000X0.620000X0.300000X-0.620000X-0.180000X-0.620000X-0.300000X-0.500000X90.000000*%
G04 #@! TD*
G04 #@! TA.AperFunction,SMDPad,CuDef*
%ADD35R,1.240000X0.300000*%
G04 #@! TD*
G04 #@! TA.AperFunction,SMDPad,CuDef*
%ADD36Outline5P,-0.300000X0.620000X0.300000X0.620000X0.300000X-0.500000X0.180000X-0.620000X-0.300000X-0.620000X90.000000*%
G04 #@! TD*
G04 #@! TA.AperFunction,SMDPad,CuDef*
%ADD37Outline4P,-0.300000X-0.285000X0.300000X-0.515000X0.300000X0.515000X-0.300000X0.285000X90.000000*%
G04 #@! TD*
G04 #@! TA.AperFunction,SMDPad,CuDef*
%ADD38Outline4P,-0.300000X-0.515000X0.300000X-0.285000X0.300000X0.285000X-0.300000X0.515000X90.000000*%
G04 #@! TD*
G04 #@! TA.AperFunction,ComponentPad*
%ADD39O,2.100000X1.000000*%
G04 #@! TD*
G04 #@! TA.AperFunction,ComponentPad*
%ADD40O,1.800000X1.000000*%
G04 #@! TD*
G04 #@! TA.AperFunction,SMDPad,CuDef*
%ADD41R,0.675000X0.254000*%
G04 #@! TD*
G04 #@! TA.AperFunction,SMDPad,CuDef*
%ADD42R,0.254000X0.675000*%
G04 #@! TD*
G04 #@! TA.AperFunction,SMDPad,CuDef*
%ADD43RoundRect,0.250000X0.250000X0.475000X-0.250000X0.475000X-0.250000X-0.475000X0.250000X-0.475000X0*%
G04 #@! TD*
G04 #@! TA.AperFunction,SMDPad,CuDef*
%ADD44R,0.650000X0.350000*%
G04 #@! TD*
G04 #@! TA.AperFunction,SMDPad,CuDef*
%ADD45R,1.000000X1.600000*%
G04 #@! TD*
G04 #@! TA.AperFunction,SMDPad,CuDef*
%ADD46RoundRect,0.218750X-0.218750X-0.256250X0.218750X-0.256250X0.218750X0.256250X-0.218750X0.256250X0*%
G04 #@! TD*
G04 #@! TA.AperFunction,SMDPad,CuDef*
%ADD47RoundRect,0.250000X-0.475000X0.250000X-0.475000X-0.250000X0.475000X-0.250000X0.475000X0.250000X0*%
G04 #@! TD*
G04 #@! TA.AperFunction,ViaPad*
%ADD48C,0.420000*%
G04 #@! TD*
G04 #@! TA.AperFunction,Conductor*
%ADD49C,0.127000*%
G04 #@! TD*
G04 #@! TA.AperFunction,Conductor*
%ADD50C,0.250000*%
G04 #@! TD*
G04 #@! TA.AperFunction,Conductor*
%ADD51C,0.400000*%
G04 #@! TD*
G04 #@! TA.AperFunction,Conductor*
%ADD52C,0.380000*%
G04 #@! TD*
G04 #@! TA.AperFunction,Conductor*
%ADD53C,0.500000*%
G04 #@! TD*
G04 #@! TA.AperFunction,Conductor*
%ADD54C,0.375000*%
G04 #@! TD*
G04 #@! TA.AperFunction,Conductor*
%ADD55C,0.300000*%
G04 #@! TD*
G04 APERTURE END LIST*
D10*
X140600000Y-84250000D03*
X139200000Y-84250000D03*
D11*
X133660000Y-98300000D03*
X132640000Y-98300000D03*
D12*
X139425000Y-85675020D03*
X139425000Y-86624980D03*
X140375000Y-86624980D03*
X140375000Y-85675020D03*
D13*
X136250000Y-88660000D03*
X136250000Y-87640000D03*
D14*
X127800000Y-91850000D03*
X127800000Y-89950000D03*
D13*
X123700000Y-100890000D03*
X123700000Y-99870000D03*
D15*
X125200000Y-90200000D03*
X125700000Y-90200000D03*
X126200000Y-90200000D03*
X126200000Y-88700000D03*
X125700000Y-88700000D03*
X125200000Y-88700000D03*
D16*
X139390000Y-83075000D03*
X140410000Y-83075000D03*
D11*
X128035000Y-87600000D03*
X127015000Y-87600000D03*
D17*
X122685000Y-93920000D03*
X122685000Y-94880000D03*
D11*
X126160000Y-87600000D03*
X125140000Y-87600000D03*
D18*
X133150000Y-100750000D03*
X133150000Y-99350000D03*
D19*
X124700000Y-99870000D03*
X124700000Y-100890000D03*
D20*
X122613201Y-78375001D03*
D21*
X123708200Y-78520000D03*
X123708200Y-80580000D03*
D20*
X122613201Y-80724999D03*
D11*
X126210000Y-91300000D03*
X125190000Y-91300000D03*
D22*
X131685000Y-95200000D03*
X131185000Y-95200000D03*
X130685000Y-95200000D03*
X130185000Y-95200000D03*
X130185000Y-98100000D03*
X130685000Y-98100000D03*
X131185000Y-98100000D03*
X131685000Y-98100000D03*
D23*
X130935000Y-96650000D03*
D11*
X139310000Y-90150000D03*
X138290000Y-90150000D03*
X133660000Y-95300000D03*
X132640000Y-95300000D03*
D17*
X125875000Y-99870000D03*
X125875000Y-100830000D03*
D10*
X140600000Y-88050000D03*
X139200000Y-88050000D03*
D20*
X140726799Y-80724999D03*
D21*
X139631800Y-80580000D03*
X139631800Y-78520000D03*
D20*
X140726799Y-78375001D03*
D17*
X128200000Y-97070000D03*
X128200000Y-98030000D03*
D13*
X122850000Y-90310000D03*
X122850000Y-89290000D03*
D12*
X123925000Y-77224980D03*
X123925000Y-76275020D03*
X122975000Y-76275020D03*
X122975000Y-77224980D03*
D11*
X123910000Y-81800000D03*
X122890000Y-81800000D03*
D13*
X140550000Y-90210000D03*
X140550000Y-89190000D03*
D24*
X123880000Y-83700000D03*
X122920000Y-83700000D03*
D14*
X133100000Y-93750000D03*
X133100000Y-91850000D03*
D13*
X137200000Y-88660000D03*
X137200000Y-87640000D03*
D25*
X130150700Y-92099811D03*
X130150700Y-92599937D03*
X130150700Y-93100063D03*
X130150700Y-93600189D03*
X131649300Y-93600189D03*
X131649300Y-93100063D03*
X131649300Y-92599937D03*
X131649300Y-92099811D03*
D11*
X133660000Y-96300000D03*
X132640000Y-96300000D03*
X131694999Y-100200000D03*
X130674999Y-100200000D03*
X140410000Y-82000000D03*
X139390000Y-82000000D03*
D24*
X126180000Y-92250000D03*
X125220000Y-92250000D03*
D26*
X123835000Y-92800000D03*
X123835000Y-91500000D03*
X122835000Y-91500000D03*
X122835000Y-92800000D03*
D12*
X139425000Y-76275020D03*
X139425000Y-77224980D03*
X140375000Y-77224980D03*
X140375000Y-76275020D03*
D19*
X129165000Y-97040000D03*
X129165000Y-98060000D03*
D11*
X131694999Y-99250000D03*
X130674999Y-99250000D03*
D12*
X122975000Y-85675020D03*
X122975000Y-86624980D03*
X123925000Y-86624980D03*
X123925000Y-85675020D03*
D11*
X133660000Y-97300000D03*
X132640000Y-97300000D03*
D27*
X125800002Y-77205100D03*
X125800002Y-78005101D03*
X125800002Y-78805100D03*
X125800002Y-79605101D03*
X125800002Y-80405099D03*
X125800002Y-81205100D03*
X125800002Y-82005101D03*
X125800002Y-82805099D03*
X125800002Y-83605100D03*
X125800002Y-84405099D03*
X125800002Y-85205100D03*
D28*
X126899999Y-86105100D03*
X127700000Y-86105100D03*
X128500001Y-86105100D03*
X129300000Y-86105100D03*
X130100001Y-86105100D03*
X130899999Y-86105100D03*
X131700000Y-86105100D03*
X132500001Y-86105100D03*
X133299999Y-86105100D03*
X134100000Y-86105100D03*
X134899999Y-86105100D03*
X135700000Y-86105100D03*
X136499998Y-86105100D03*
D27*
X137599998Y-85205100D03*
X137599998Y-84405099D03*
X137599998Y-83605100D03*
X137599998Y-82805099D03*
X137599998Y-82005101D03*
X137599998Y-81205100D03*
X137599998Y-80405099D03*
X137599998Y-79605101D03*
X137599998Y-78805100D03*
X137599998Y-78005101D03*
X137599998Y-77205100D03*
D28*
X136500001Y-76305100D03*
X135700000Y-76305100D03*
X134899999Y-76305100D03*
X134100000Y-76305100D03*
X133299999Y-76305100D03*
X132500001Y-76305100D03*
X131700000Y-76305100D03*
X130899999Y-76305100D03*
X130100001Y-76305100D03*
X129300000Y-76305100D03*
X128500001Y-76305100D03*
X127700000Y-76305100D03*
X126900002Y-76305100D03*
D29*
X131700000Y-81205100D03*
D30*
X137650000Y-76255100D03*
X137650000Y-86155100D03*
X125750000Y-86155100D03*
X125750000Y-76255100D03*
D29*
X133675000Y-79230100D03*
X133675000Y-81205100D03*
X133675000Y-83180100D03*
X131700000Y-83180100D03*
X129725000Y-83180100D03*
X129725000Y-81205100D03*
D31*
X129725000Y-79230100D03*
D29*
X131700000Y-79230100D03*
D19*
X123950000Y-89290000D03*
X123950000Y-90310000D03*
D24*
X123880000Y-82750000D03*
X122920000Y-82750000D03*
D11*
X137260000Y-90150000D03*
X136240000Y-90150000D03*
D32*
X133935000Y-90000000D03*
X133935000Y-87800000D03*
D17*
X122700000Y-98170000D03*
X122700000Y-99130000D03*
D11*
X123910000Y-84650000D03*
X122890000Y-84650000D03*
D33*
X135090000Y-99250000D03*
D34*
X135210000Y-98450000D03*
D35*
X135210000Y-97300000D03*
X135210000Y-96300000D03*
X135210000Y-95800000D03*
X135210000Y-94800000D03*
D36*
X135210000Y-93650000D03*
D37*
X135430000Y-92850000D03*
D33*
X135090000Y-92850000D03*
D36*
X135210000Y-93650000D03*
D35*
X135210000Y-94300000D03*
X135210000Y-95300000D03*
X135210000Y-96800000D03*
X135210000Y-97800000D03*
D34*
X135210000Y-98450000D03*
D38*
X135430000Y-99250000D03*
D39*
X135810000Y-100370000D03*
D40*
X140010000Y-100370000D03*
D39*
X135810000Y-91730000D03*
D40*
X140010000Y-91730000D03*
D41*
X123772500Y-98700000D03*
D42*
X124685000Y-98837500D03*
X125185000Y-98837500D03*
X125685000Y-98837500D03*
X126185000Y-98837500D03*
D41*
X127097500Y-98700000D03*
X127097500Y-98200000D03*
X127097500Y-97700000D03*
X127097500Y-97200000D03*
X127097500Y-96700000D03*
X127097500Y-96200000D03*
X127097500Y-95700000D03*
X127097500Y-95200000D03*
X127097500Y-94700000D03*
X127097500Y-94200000D03*
D42*
X126185000Y-94062500D03*
X125685000Y-94062500D03*
X125185000Y-94062500D03*
X124685000Y-94062500D03*
D41*
X123772500Y-94200000D03*
X123772500Y-94700000D03*
X123772500Y-95200000D03*
X123772500Y-95700000D03*
X123772500Y-96200000D03*
X123772500Y-96700000D03*
X123772500Y-97200000D03*
X123772500Y-97700000D03*
X123772500Y-98200000D03*
D43*
X131350000Y-88100000D03*
X129450000Y-88100000D03*
D13*
X138150000Y-88660000D03*
X138150000Y-87640000D03*
D16*
X128140000Y-99000000D03*
X129160000Y-99000000D03*
D19*
X122700000Y-96140000D03*
X122700000Y-97160000D03*
D44*
X129400000Y-89700000D03*
X129400000Y-90350000D03*
X129400000Y-91000000D03*
X131500000Y-91000000D03*
X131500000Y-90350000D03*
X131500000Y-89700000D03*
D45*
X130450000Y-90350000D03*
D46*
X127912500Y-100400000D03*
X129487500Y-100400000D03*
D47*
X128685000Y-93500000D03*
X128685000Y-95400000D03*
D11*
X123960000Y-87950000D03*
X122940000Y-87950000D03*
D48*
X130550000Y-96700000D03*
X134075000Y-94575000D03*
X127700000Y-77200000D03*
X130900000Y-93800000D03*
X139775000Y-81575000D03*
X127475000Y-93575000D03*
X127850000Y-89025000D03*
X131700000Y-81225000D03*
X135800000Y-89400000D03*
X125500000Y-98025000D03*
X130450000Y-91250000D03*
X129700000Y-79200000D03*
X122975000Y-83700000D03*
X127250000Y-100950000D03*
X132450000Y-89200000D03*
X122975000Y-77224980D03*
X128225000Y-98025000D03*
X132600000Y-92075000D03*
X131350000Y-97300000D03*
X131700000Y-79200000D03*
X130550000Y-97300000D03*
X129100000Y-84750000D03*
X131350000Y-96100000D03*
X134100000Y-77200000D03*
X140375000Y-76275000D03*
X123925000Y-85675000D03*
X122700000Y-99130000D03*
X132500000Y-77200000D03*
X135225000Y-92850000D03*
X140375000Y-85650000D03*
X124825000Y-86675000D03*
X135700000Y-77200000D03*
X139625000Y-78275000D03*
X134375000Y-91025000D03*
X125200000Y-77650000D03*
X129300000Y-77200000D03*
X133675000Y-81225000D03*
X122975000Y-82750000D03*
X129700000Y-81250000D03*
X130450000Y-89850000D03*
X131350000Y-96700000D03*
X124575000Y-90850000D03*
X130550000Y-96100000D03*
X122700000Y-94875000D03*
X132650000Y-97375000D03*
X128475000Y-88475000D03*
X134475000Y-89150000D03*
X130900000Y-77200000D03*
X137650000Y-86155100D03*
X130450000Y-90500000D03*
X135850000Y-83950000D03*
X129675000Y-96150000D03*
X130850000Y-99250000D03*
X133675000Y-79200000D03*
X128975000Y-95425000D03*
X122625000Y-80725000D03*
X128575000Y-92250000D03*
X122925000Y-79500000D03*
X129100000Y-93550000D03*
X128325000Y-93550000D03*
X126675000Y-89575000D03*
X123550003Y-79500000D03*
X138225000Y-97950000D03*
X133150000Y-100750000D03*
X140325000Y-88400000D03*
X126800000Y-93425000D03*
X137525000Y-91775000D03*
X136400000Y-95350000D03*
X140400000Y-82000000D03*
X136400000Y-94725000D03*
X139900000Y-90775000D03*
X137100000Y-92650000D03*
X132650000Y-95300000D03*
X136406062Y-84475288D03*
X136625000Y-85050000D03*
X132625000Y-96300000D03*
X122675000Y-93925000D03*
X127600000Y-99425000D03*
X122950000Y-86625000D03*
X130700000Y-87800000D03*
X132250000Y-100200000D03*
X126525000Y-99475000D03*
X126400000Y-96700000D03*
X131900000Y-88500000D03*
X126600000Y-78800000D03*
X122775000Y-100375000D03*
X138575000Y-76775000D03*
X122725000Y-96150000D03*
X124600000Y-89750000D03*
X124675000Y-76275000D03*
X122725000Y-98175000D03*
X139150000Y-87050000D03*
X122925000Y-87950000D03*
X123875000Y-82750000D03*
X138775000Y-89150000D03*
X125600000Y-82800000D03*
X122950000Y-88700000D03*
X123775000Y-78250000D03*
X139390000Y-83075000D03*
X123925000Y-84650000D03*
X131300000Y-91950000D03*
X136250000Y-87650000D03*
X130225000Y-84475000D03*
X128250000Y-84050000D03*
X129900000Y-98875000D03*
X126075000Y-95850000D03*
X133300000Y-85000000D03*
X127800000Y-94625000D03*
X133162500Y-86962500D03*
X127000000Y-100375000D03*
X126300000Y-98050000D03*
X124050000Y-99250000D03*
X131700000Y-86950000D03*
X125800000Y-93025000D03*
X135100000Y-84300000D03*
X125184101Y-93441338D03*
X124850000Y-92925000D03*
X134100000Y-85000000D03*
X123900000Y-93650000D03*
X132500000Y-85000000D03*
X124875000Y-76900000D03*
X139425000Y-76250000D03*
X140375000Y-77225000D03*
X139925000Y-84900000D03*
X140000000Y-87225000D03*
X125000000Y-84100000D03*
X124400000Y-97700000D03*
X126950000Y-84625000D03*
X138290000Y-90150000D03*
X138725000Y-80575000D03*
X139375000Y-89325000D03*
D49*
X122920000Y-83700000D02*
X122975000Y-83700000D01*
X122920000Y-82750000D02*
X122975000Y-82750000D01*
D50*
X125705000Y-100825000D02*
X125700000Y-100830000D01*
D49*
X122975000Y-83700000D02*
X122920000Y-83680000D01*
X122890000Y-81800000D02*
X122900000Y-81800000D01*
X122890000Y-81800000D02*
X122890000Y-81840000D01*
X122975000Y-82750000D02*
X122920000Y-82680000D01*
D51*
X122624999Y-80724999D02*
X122625000Y-80725000D01*
X122613201Y-80724999D02*
X122624999Y-80724999D01*
X122625001Y-80724999D02*
X123563201Y-80724999D01*
X122625000Y-80725000D02*
X122625001Y-80724999D01*
X123563201Y-80724999D02*
X123708200Y-80580000D01*
D49*
X126160000Y-87600000D02*
X126160000Y-88660000D01*
X126575000Y-89575000D02*
X126200000Y-89200000D01*
X126160000Y-88660000D02*
X126200000Y-88700000D01*
X126200000Y-89200000D02*
X126200000Y-88700000D01*
X126575000Y-89575000D02*
X126675000Y-89575000D01*
D52*
X136526310Y-93925000D02*
X136000000Y-93925000D01*
D49*
X135210000Y-98450000D02*
X133810000Y-98450000D01*
X133810000Y-98450000D02*
X133660000Y-98300000D01*
D52*
X136738155Y-94136845D02*
X136526310Y-93925000D01*
D53*
X137055000Y-94453690D02*
X137055000Y-97145000D01*
D54*
X136175000Y-98000000D02*
X135725000Y-98450000D01*
D55*
X132900000Y-93750000D02*
X133100000Y-93750000D01*
X135725000Y-98450000D02*
X135210000Y-98450000D01*
D53*
X136738155Y-94136845D02*
X137055000Y-94453690D01*
X137850000Y-97950000D02*
X138225000Y-97950000D01*
X136200000Y-98000000D02*
X137050000Y-97150000D01*
D55*
X135725000Y-93650000D02*
X135210000Y-93650000D01*
D53*
X137055000Y-97145000D02*
X136200000Y-98000000D01*
X137050000Y-97150000D02*
X137850000Y-97950000D01*
D55*
X136200000Y-98000000D02*
X136175000Y-98000000D01*
D52*
X136000000Y-93925000D02*
X135725000Y-93650000D01*
D50*
X128070000Y-97200000D02*
X128200000Y-97070000D01*
X127097500Y-97200000D02*
X128070000Y-97200000D01*
D49*
X126210000Y-92220000D02*
X126180000Y-92250000D01*
X140600000Y-84250000D02*
X140910500Y-84560500D01*
X140600000Y-88000000D02*
X140600000Y-88050000D01*
X126210000Y-91300000D02*
X126210000Y-92220000D01*
X128750000Y-90350000D02*
X128460000Y-90640000D01*
X126870000Y-90640000D02*
X126210000Y-91300000D01*
X140910500Y-87689500D02*
X140600000Y-88000000D01*
X126800000Y-93350000D02*
X126800000Y-93425000D01*
X126180000Y-92250000D02*
X126180000Y-92730000D01*
X128460000Y-90640000D02*
X126870000Y-90640000D01*
X140600000Y-88125000D02*
X140325000Y-88400000D01*
X140600000Y-88050000D02*
X140600000Y-88125000D01*
X129400000Y-90350000D02*
X128750000Y-90350000D01*
X140910500Y-84560500D02*
X140910500Y-87689500D01*
X126180000Y-92730000D02*
X126800000Y-93350000D01*
X139310000Y-90240000D02*
X139310000Y-90150000D01*
X137550000Y-91775000D02*
X137685000Y-91775000D01*
X136325000Y-95375000D02*
X136400000Y-95375000D01*
X135750000Y-94800000D02*
X136325000Y-95375000D01*
X137685000Y-91775000D02*
X139310000Y-90150000D01*
X135210000Y-94800000D02*
X135750000Y-94800000D01*
X135210000Y-94300000D02*
X135975000Y-94300000D01*
X135975000Y-94300000D02*
X136400000Y-94725000D01*
X139450000Y-90775000D02*
X139900000Y-90775000D01*
X137575000Y-92650000D02*
X137100000Y-92650000D01*
X139450000Y-90775000D02*
X137575000Y-92650000D01*
X132640000Y-95300000D02*
X132650000Y-95300000D01*
X137319900Y-83605100D02*
X137599998Y-83605100D01*
X136406062Y-84475288D02*
X136449712Y-84475288D01*
X136449712Y-84475288D02*
X137319900Y-83605100D01*
X132650000Y-95300000D02*
X132640000Y-95285000D01*
X136625000Y-85050000D02*
X136675000Y-85050000D01*
X132625000Y-96300000D02*
X132650000Y-96300000D01*
X136675000Y-85050000D02*
X137319901Y-84405099D01*
X132640000Y-96300000D02*
X132625000Y-96300000D01*
X137319901Y-84405099D02*
X137599998Y-84405099D01*
X135210000Y-97300000D02*
X133660000Y-97300000D01*
X133010000Y-88660000D02*
X132850000Y-88500000D01*
X127097500Y-98922500D02*
X127600000Y-99425000D01*
X123835000Y-92800000D02*
X122835000Y-92800000D01*
X139425000Y-86775000D02*
X139425000Y-86624980D01*
D50*
X125930000Y-99870000D02*
X125700000Y-99870000D01*
D49*
X125680000Y-99890000D02*
X125700000Y-99870000D01*
D50*
X125875000Y-99870000D02*
X126030000Y-99870000D01*
D49*
X127097500Y-96700000D02*
X126400000Y-96700000D01*
D50*
X122685000Y-93920000D02*
X122680000Y-93920000D01*
D49*
X139150000Y-87050000D02*
X139425000Y-86775000D01*
X136250000Y-88660000D02*
X133010000Y-88660000D01*
D51*
X125800002Y-78805100D02*
X126594900Y-78805100D01*
D49*
X125575000Y-89650000D02*
X125700000Y-89775000D01*
X124700000Y-99890000D02*
X125680000Y-99890000D01*
X123950000Y-89290000D02*
X124140000Y-89290000D01*
D50*
X125185000Y-99210000D02*
X125700000Y-99725000D01*
X125700000Y-99870000D02*
X125680000Y-99870000D01*
D49*
X124700000Y-89650000D02*
X124600000Y-89750000D01*
X123870000Y-89290000D02*
X122850000Y-90310000D01*
X139024980Y-77224980D02*
X138575000Y-76775000D01*
X126185000Y-98700000D02*
X126960000Y-98700000D01*
D51*
X126594900Y-78805100D02*
X126600000Y-78800000D01*
D49*
X124140000Y-89290000D02*
X124600000Y-89750000D01*
D50*
X125700000Y-99725000D02*
X125700000Y-99870000D01*
D49*
X125700000Y-89775000D02*
X125700000Y-90200000D01*
D50*
X122725000Y-98175000D02*
X122715000Y-98200000D01*
D49*
X122975000Y-86624980D02*
X122950000Y-86625000D01*
X139425000Y-77224980D02*
X139024980Y-77224980D01*
X131500000Y-89700000D02*
X131350000Y-89550000D01*
X127097500Y-98700000D02*
X127097500Y-98922500D01*
D50*
X125185000Y-98837500D02*
X125185000Y-99210000D01*
X123772500Y-98200000D02*
X122725000Y-98175000D01*
D49*
X124700000Y-99890000D02*
X124700000Y-99910000D01*
D50*
X126425000Y-99475000D02*
X126525000Y-99475000D01*
D49*
X136250000Y-88660000D02*
X136160000Y-88750000D01*
X124700000Y-99910000D02*
X123700000Y-100910000D01*
D50*
X122675000Y-93925000D02*
X122690000Y-93920000D01*
D49*
X128535000Y-87100000D02*
X129950000Y-87100000D01*
X128100000Y-99000000D02*
X127675000Y-99425000D01*
X128140000Y-99000000D02*
X128100000Y-99000000D01*
X125685000Y-98837500D02*
X126185000Y-98837500D01*
X127675000Y-99425000D02*
X127600000Y-99425000D01*
X128035000Y-87600000D02*
X128535000Y-87100000D01*
X123950000Y-89300000D02*
X123950000Y-89290000D01*
X132250000Y-100200000D02*
X131694999Y-100200000D01*
X128015000Y-99125000D02*
X128140000Y-99000000D01*
X129950000Y-87100000D02*
X130425000Y-87575000D01*
D50*
X122680000Y-93920000D02*
X122675000Y-93925000D01*
D49*
X125575000Y-89650000D02*
X124700000Y-89650000D01*
X123990000Y-89290000D02*
X123950000Y-89290000D01*
X123950000Y-89290000D02*
X123870000Y-89290000D01*
X131350000Y-89550000D02*
X131350000Y-88100000D01*
D50*
X122685000Y-93920000D02*
X122685000Y-92950000D01*
X122685000Y-92950000D02*
X122835000Y-92800000D01*
D49*
X124674980Y-76275020D02*
X124675000Y-76275000D01*
X138150000Y-88660000D02*
X136250000Y-88660000D01*
D50*
X126030000Y-99870000D02*
X126425000Y-99475000D01*
D49*
X123925000Y-76275020D02*
X124674980Y-76275020D01*
X123910000Y-81800000D02*
X124550000Y-81800000D01*
X122925000Y-87950000D02*
X122940000Y-87885000D01*
X124550000Y-81800000D02*
X125144900Y-81205100D01*
X123880000Y-81830000D02*
X123910000Y-81800000D01*
X125144900Y-81205100D02*
X125800002Y-81205100D01*
X123880000Y-82750000D02*
X123875000Y-82750000D01*
X122940000Y-87950000D02*
X122925000Y-87950000D01*
X123875000Y-82750000D02*
X123880000Y-81830000D01*
X132640000Y-98300000D02*
X132640000Y-98840000D01*
X132640000Y-98840000D02*
X133150000Y-99350000D01*
X122850000Y-89290000D02*
X122850000Y-88775000D01*
X124625000Y-83700000D02*
X123880000Y-83700000D01*
X122850000Y-88775000D02*
X122975000Y-88650000D01*
X136240000Y-90150000D02*
X137190000Y-89200000D01*
X138725000Y-89200000D02*
X138775000Y-89150000D01*
X125605099Y-82805099D02*
X125800002Y-82805099D01*
X137190000Y-89200000D02*
X138725000Y-89200000D01*
X124625000Y-83700000D02*
X125519901Y-82805099D01*
X125594901Y-82805099D02*
X125600000Y-82800000D01*
X125519901Y-82805099D02*
X125594901Y-82805099D01*
X125600000Y-82800000D02*
X125605099Y-82805099D01*
X122850000Y-89290000D02*
X122975000Y-89165000D01*
X123910000Y-83730000D02*
X123880000Y-83700000D01*
X140350000Y-89000000D02*
X140200000Y-89000000D01*
X139250000Y-88050000D02*
X139200000Y-88050000D01*
X140200000Y-89000000D02*
X139250000Y-88050000D01*
X140540000Y-89190000D02*
X140350000Y-89000000D01*
X140550000Y-89190000D02*
X140540000Y-89190000D01*
X126200000Y-90200000D02*
X126200000Y-89723000D01*
X126200000Y-89723000D02*
X125802000Y-89325000D01*
X123960000Y-88385000D02*
X123960000Y-87950000D01*
X125802000Y-89325000D02*
X124900000Y-89325000D01*
X124900000Y-89325000D02*
X123960000Y-88385000D01*
X125200000Y-88700000D02*
X125700000Y-88700000D01*
X125140000Y-88640000D02*
X125200000Y-88700000D01*
X125140000Y-87600000D02*
X125140000Y-88640000D01*
X138725000Y-82250000D02*
X139025000Y-82550000D01*
X139025000Y-82550000D02*
X139885000Y-82550000D01*
X137830099Y-80405099D02*
X138725000Y-81300000D01*
X140410000Y-82950000D02*
X140410000Y-83040000D01*
X139885000Y-82550000D02*
X140410000Y-83075000D01*
X138725000Y-81300000D02*
X138725000Y-82250000D01*
X137599998Y-80405099D02*
X137830099Y-80405099D01*
D51*
X123775000Y-78586800D02*
X123708200Y-78520000D01*
D49*
X123910000Y-84650000D02*
X123925000Y-84650000D01*
X139300000Y-83165000D02*
X139300000Y-84150000D01*
X139200000Y-84250000D02*
X139200000Y-84250000D01*
X139390000Y-82950000D02*
X139390000Y-82915000D01*
X123820000Y-78520000D02*
X123708200Y-78520000D01*
X123830000Y-78520000D02*
X123825000Y-78525000D01*
X139390000Y-83075000D02*
X139300000Y-83165000D01*
D51*
X122613201Y-78375001D02*
X123563201Y-78375001D01*
X123775000Y-78250000D02*
X123775000Y-78586800D01*
D49*
X139300000Y-84150000D02*
X139200000Y-84250000D01*
X123825000Y-78525000D02*
X123820000Y-78520000D01*
X131649300Y-92099811D02*
X131449811Y-92099811D01*
X130100001Y-86105100D02*
X130100001Y-84599999D01*
X131449811Y-92099811D02*
X131300000Y-91950000D01*
X136250000Y-87650000D02*
X136210000Y-87640000D01*
X130100001Y-84599999D02*
X130225000Y-84475000D01*
X136250000Y-87640000D02*
X136250000Y-87650000D01*
X129900000Y-99425001D02*
X129900000Y-98875000D01*
X129925000Y-98875000D02*
X129850000Y-98875000D01*
X127700000Y-84600000D02*
X128250000Y-84050000D01*
X130674999Y-100200000D02*
X129900000Y-99425001D01*
X130185000Y-98590000D02*
X129900000Y-98875000D01*
X130185000Y-98100000D02*
X130185000Y-98590000D01*
X127700000Y-86105100D02*
X127700000Y-84600000D01*
X131685000Y-98100000D02*
X131685000Y-99240001D01*
X131685000Y-99240001D02*
X131694999Y-99250000D01*
X122725000Y-97200000D02*
X122685000Y-97160000D01*
X123772500Y-97200000D02*
X122725000Y-97200000D01*
X127900000Y-96550000D02*
X127550000Y-96200000D01*
X129165000Y-97040000D02*
X128675000Y-96550000D01*
X133300000Y-85225000D02*
X133299999Y-86105100D01*
X128675000Y-96550000D02*
X127900000Y-96550000D01*
X133300000Y-85225000D02*
X133300000Y-85000000D01*
X126425000Y-96200000D02*
X126075000Y-95850000D01*
X127097500Y-96200000D02*
X126425000Y-96200000D01*
X127550000Y-96200000D02*
X127097500Y-96200000D01*
X135691699Y-87100000D02*
X135270850Y-86679150D01*
X127750000Y-94700000D02*
X127825000Y-94625000D01*
X137200000Y-87640000D02*
X136660000Y-87100000D01*
X135270850Y-86679150D02*
X134899999Y-86308300D01*
X135025000Y-86925000D02*
X135270850Y-86679150D01*
X134899999Y-86308300D02*
X134899999Y-86105100D01*
X133200000Y-86925000D02*
X135025000Y-86925000D01*
X136660000Y-87100000D02*
X135691699Y-87100000D01*
X127097500Y-94700000D02*
X127750000Y-94700000D01*
X125260000Y-100350000D02*
X126975000Y-100350000D01*
X126300000Y-98050000D02*
X125500000Y-97250000D01*
X126800000Y-94200000D02*
X127097500Y-94200000D01*
X124700000Y-100910000D02*
X125260000Y-100350000D01*
X125500000Y-95500000D02*
X126800000Y-94200000D01*
X126975000Y-100350000D02*
X127000000Y-100375000D01*
X125500000Y-97250000D02*
X125500000Y-95500000D01*
X124325000Y-98450000D02*
X124325000Y-98975000D01*
X126185000Y-94349500D02*
X124950000Y-95584500D01*
X124050000Y-99525000D02*
X124050000Y-99250000D01*
X126185000Y-94062500D02*
X126185000Y-94349500D01*
X124950000Y-95584500D02*
X124950000Y-97825000D01*
X124950000Y-97825000D02*
X124325000Y-98450000D01*
X123700000Y-99875000D02*
X124050000Y-99525000D01*
X124325000Y-98975000D02*
X124050000Y-99250000D01*
X123700000Y-99890000D02*
X123700000Y-99875000D01*
X131700000Y-86105100D02*
X131700000Y-86850000D01*
X125750000Y-93100000D02*
X125825000Y-93025000D01*
X125685000Y-94062500D02*
X125750000Y-93997500D01*
X125750000Y-93997500D02*
X125750000Y-93100000D01*
X131700000Y-86850000D02*
X131700000Y-86950000D01*
X135700000Y-85901900D02*
X135100000Y-85301900D01*
X135100000Y-85301900D02*
X135100000Y-84300000D01*
X135700000Y-86105100D02*
X135700000Y-85901900D01*
X125175000Y-93450439D02*
X125184101Y-93441338D01*
X125175000Y-94052500D02*
X125175000Y-93450439D01*
X138150000Y-87640000D02*
X137335000Y-86825000D01*
X135700000Y-86275000D02*
X135700000Y-86105100D01*
X125185000Y-94062500D02*
X125175000Y-94052500D01*
X136250000Y-86825000D02*
X135700000Y-86275000D01*
X137335000Y-86825000D02*
X136250000Y-86825000D01*
X134100000Y-85225000D02*
X134100000Y-85000000D01*
X124715601Y-93059399D02*
X124850000Y-92925000D01*
X124685000Y-94062500D02*
X124715601Y-94031899D01*
X134100000Y-85225000D02*
X134100000Y-86105100D01*
X124715601Y-94031899D02*
X124715601Y-93059399D01*
X123772500Y-93777500D02*
X123900000Y-93650000D01*
X123772500Y-94200000D02*
X123772500Y-93777500D01*
X132500000Y-85225000D02*
X132500000Y-85000000D01*
X132500000Y-85225000D02*
X132500001Y-86105100D01*
X139925000Y-89585000D02*
X140550000Y-90210000D01*
X138375000Y-86925750D02*
X138675000Y-87225750D01*
X138375000Y-81775000D02*
X138375000Y-86925750D01*
X139033316Y-88725000D02*
X139475000Y-88725000D01*
X138675000Y-87225750D02*
X138675000Y-88366684D01*
X139475000Y-88725000D02*
X139925000Y-89175000D01*
X137805100Y-81205100D02*
X138375000Y-81775000D01*
X138675000Y-88366684D02*
X139033316Y-88725000D01*
X137599998Y-81205100D02*
X137805100Y-81205100D01*
X139925000Y-89175000D02*
X139925000Y-89585000D01*
X125800002Y-80405099D02*
X125596802Y-80405099D01*
X126425000Y-80826897D02*
X126425000Y-87010000D01*
X125800002Y-80405099D02*
X126003202Y-80405099D01*
X126425000Y-87010000D02*
X127015000Y-87600000D01*
X124750000Y-79558297D02*
X124750000Y-78049980D01*
X125596802Y-80405099D02*
X124750000Y-79558297D01*
X124750000Y-78049980D02*
X123925000Y-77224980D01*
X126003202Y-80405099D02*
X126425000Y-80826897D01*
X123449980Y-76750000D02*
X124725000Y-76750000D01*
X122975000Y-76275020D02*
X123449980Y-76750000D01*
X124725000Y-76750000D02*
X124875000Y-76900000D01*
X139825000Y-84900000D02*
X139925000Y-84900000D01*
X139425000Y-85675020D02*
X139425000Y-85300000D01*
X139425000Y-85300000D02*
X139825000Y-84900000D01*
X125000000Y-85675000D02*
X124525000Y-86150000D01*
X123449980Y-86150000D02*
X122975000Y-85675020D01*
X140000000Y-87225000D02*
X140000000Y-86999980D01*
X140000000Y-86999980D02*
X140375000Y-86624980D01*
X125000000Y-84100000D02*
X125000000Y-85675000D01*
X124525000Y-86150000D02*
X123449980Y-86150000D01*
X124375000Y-97675000D02*
X124400000Y-97700000D01*
X122835000Y-91585000D02*
X123400000Y-92150000D01*
X124375000Y-92350000D02*
X124375000Y-97675000D01*
X123772500Y-97700000D02*
X124400000Y-97700000D01*
X123400000Y-92150000D02*
X124175000Y-92150000D01*
X122835000Y-91500000D02*
X122835000Y-91585000D01*
X124175000Y-92150000D02*
X124375000Y-92350000D01*
X126899999Y-84675001D02*
X126950000Y-84625000D01*
X138320000Y-90205000D02*
X138320000Y-90150000D01*
X126899999Y-86105100D02*
X126899999Y-84675001D01*
X138290000Y-90150000D02*
X138290000Y-90140000D01*
X137260000Y-90090000D02*
X137260000Y-90150000D01*
X139631800Y-80580000D02*
X138730000Y-80580000D01*
D51*
X139631800Y-80580000D02*
X139771800Y-80720000D01*
D49*
X138730000Y-80580000D02*
X138725000Y-80575000D01*
X139075000Y-89625000D02*
X137725000Y-89625000D01*
D51*
X139771800Y-80720000D02*
X140721800Y-80720000D01*
X140721800Y-80720000D02*
X140726799Y-80724999D01*
D49*
X137725000Y-89625000D02*
X137260000Y-90090000D01*
X139375000Y-89325000D02*
X139075000Y-89625000D01*
X137300000Y-90150000D02*
X137300000Y-90100000D01*
X129160000Y-99000000D02*
X129250000Y-99090000D01*
X129250000Y-100162500D02*
X129487500Y-100400000D01*
X129250000Y-99090000D02*
X129250000Y-100162500D01*
X134300000Y-96400000D02*
X134700000Y-96800000D01*
X134700000Y-95800000D02*
X134300000Y-96200000D01*
X135210000Y-95800000D02*
X134700000Y-95800000D01*
X134300000Y-96300000D02*
X134300000Y-96400000D01*
X134700000Y-96800000D02*
X135210000Y-96800000D01*
X133660000Y-96300000D02*
X134300000Y-96300000D01*
X134300000Y-96200000D02*
X134300000Y-96300000D01*
X135700000Y-96300000D02*
X135210000Y-96300000D01*
X135983500Y-96016500D02*
X135700000Y-96300000D01*
X135210000Y-95300000D02*
X135700000Y-95300000D01*
X135983500Y-95583500D02*
X135983500Y-96016500D01*
X135700000Y-95300000D02*
X135983500Y-95583500D01*
X135210000Y-95300000D02*
X133660000Y-95300000D01*
G04 #@! TA.AperFunction,Conductor*
G36*
X133517183Y-92968907D02*
G01*
X133528995Y-92978996D01*
X133731593Y-93181593D01*
X133900000Y-93350000D01*
X135719634Y-93350000D01*
X135777825Y-93368907D01*
X135811098Y-93411114D01*
X135827301Y-93450232D01*
X135827301Y-93450233D01*
X135829538Y-93453147D01*
X135830416Y-93455628D01*
X135830546Y-93455852D01*
X135830504Y-93455875D01*
X135849966Y-93510822D01*
X135850000Y-93513419D01*
X135850000Y-93851000D01*
X135831093Y-93909191D01*
X135781593Y-93945155D01*
X135751000Y-93950000D01*
X133974999Y-93950000D01*
X133703995Y-94221004D01*
X133649479Y-94248781D01*
X133633992Y-94250000D01*
X132700000Y-94250000D01*
X131850000Y-95100000D01*
X131850000Y-95100001D01*
X131850000Y-95501000D01*
X131831093Y-95559191D01*
X131781593Y-95595155D01*
X131751000Y-95600000D01*
X131149000Y-95600000D01*
X131090809Y-95581093D01*
X131054845Y-95531593D01*
X131050000Y-95501000D01*
X131050000Y-94866007D01*
X131068907Y-94807816D01*
X131078990Y-94796009D01*
X132008888Y-93866111D01*
X132023868Y-93853818D01*
X132062270Y-93828159D01*
X132087928Y-93789757D01*
X132099956Y-93775105D01*
X132099999Y-93775000D01*
X132100000Y-93775000D01*
X132100000Y-93774998D01*
X132101516Y-93771336D01*
X132101901Y-93767432D01*
X132111800Y-93717669D01*
X132111800Y-93482709D01*
X132101901Y-93432946D01*
X132101468Y-93428545D01*
X132100000Y-93425001D01*
X132100000Y-93425000D01*
X132099465Y-93424465D01*
X132087164Y-93409475D01*
X132062270Y-93372219D01*
X132062266Y-93372216D01*
X132025019Y-93347328D01*
X132010018Y-93335017D01*
X131925000Y-93250000D01*
X131424000Y-93250000D01*
X131365809Y-93231093D01*
X131329845Y-93181593D01*
X131325000Y-93151000D01*
X131325000Y-93049000D01*
X131343907Y-92990809D01*
X131393407Y-92954845D01*
X131424000Y-92950000D01*
X133458992Y-92950000D01*
X133517183Y-92968907D01*
G37*
G04 #@! TD.AperFunction*
G04 #@! TA.AperFunction,Conductor*
G36*
X130434191Y-92968907D02*
G01*
X130470155Y-93018407D01*
X130475000Y-93049000D01*
X130475000Y-93151000D01*
X130456093Y-93209191D01*
X130406593Y-93245155D01*
X130376000Y-93250000D01*
X129900000Y-93250000D01*
X129871677Y-93278323D01*
X129843353Y-93306646D01*
X129804655Y-93327333D01*
X129805452Y-93329256D01*
X129796443Y-93332987D01*
X129737732Y-93372217D01*
X129737727Y-93372222D01*
X129698498Y-93430931D01*
X129688200Y-93482706D01*
X129688200Y-93717671D01*
X129698498Y-93769446D01*
X129729818Y-93816318D01*
X129737730Y-93828159D01*
X129737733Y-93828161D01*
X129796442Y-93867390D01*
X129852990Y-93878638D01*
X129852622Y-93880485D01*
X129901708Y-93901952D01*
X129905956Y-93905956D01*
X130796004Y-94796004D01*
X130823781Y-94850521D01*
X130825000Y-94866008D01*
X130825000Y-95501000D01*
X130806093Y-95559191D01*
X130756593Y-95595155D01*
X130726000Y-95600000D01*
X130149000Y-95600000D01*
X130090809Y-95581093D01*
X130054845Y-95531593D01*
X130050000Y-95501000D01*
X130050000Y-95050001D01*
X130050000Y-95050000D01*
X129050000Y-94050000D01*
X129049999Y-94050000D01*
X128191008Y-94050000D01*
X128132817Y-94031093D01*
X128121004Y-94021004D01*
X127953996Y-93853996D01*
X127926219Y-93799479D01*
X127925000Y-93783992D01*
X127925000Y-93216008D01*
X127943907Y-93157817D01*
X127953996Y-93146004D01*
X128121004Y-92978996D01*
X128175521Y-92951219D01*
X128191008Y-92950000D01*
X130376000Y-92950000D01*
X130434191Y-92968907D01*
G37*
G04 #@! TD.AperFunction*
G04 #@! TA.AperFunction,Conductor*
G36*
X135233645Y-87393907D02*
G01*
X135269609Y-87443407D01*
X135274454Y-87473730D01*
X135276161Y-88100300D01*
X135257412Y-88158542D01*
X135208010Y-88194641D01*
X135177182Y-88199570D01*
X133175001Y-88199999D01*
X133174999Y-88200000D01*
X132602687Y-88772310D01*
X132548171Y-88800087D01*
X132517198Y-88800087D01*
X132450002Y-88789445D01*
X132449999Y-88789445D01*
X132323132Y-88809539D01*
X132313965Y-88814210D01*
X132269020Y-88825000D01*
X130891008Y-88825000D01*
X130832817Y-88806093D01*
X130821004Y-88796004D01*
X130328996Y-88303996D01*
X130301219Y-88249479D01*
X130300000Y-88233992D01*
X130300000Y-87566008D01*
X130318907Y-87507817D01*
X130328996Y-87496004D01*
X130421004Y-87403996D01*
X130475521Y-87376219D01*
X130491008Y-87375000D01*
X135175454Y-87375000D01*
X135233645Y-87393907D01*
G37*
G04 #@! TD.AperFunction*
G04 #@! TA.AperFunction,Conductor*
G36*
X135239191Y-89618907D02*
G01*
X135275155Y-89668407D01*
X135280000Y-89699000D01*
X135280000Y-90301000D01*
X135261093Y-90359191D01*
X135211593Y-90395155D01*
X135181000Y-90400000D01*
X133530077Y-90400000D01*
X132789034Y-91145780D01*
X132734606Y-91173731D01*
X132718808Y-91175000D01*
X131600000Y-91175000D01*
X131274000Y-91175000D01*
X131215809Y-91156093D01*
X131179845Y-91106593D01*
X131175000Y-91076000D01*
X131175000Y-90814000D01*
X131193907Y-90755809D01*
X131243407Y-90719845D01*
X131274000Y-90715000D01*
X131884999Y-90715000D01*
X131885000Y-90715000D01*
X132590000Y-90010000D01*
X132590000Y-89699000D01*
X132608907Y-89640809D01*
X132658407Y-89604845D01*
X132689000Y-89600000D01*
X135181000Y-89600000D01*
X135239191Y-89618907D01*
G37*
G04 #@! TD.AperFunction*
G04 #@! TA.AperFunction,Conductor*
G36*
X129684191Y-90718907D02*
G01*
X129720155Y-90768407D01*
X129725000Y-90799000D01*
X129725000Y-91860860D01*
X129708316Y-91915860D01*
X129698499Y-91930551D01*
X129698498Y-91930553D01*
X129688200Y-91982328D01*
X129688200Y-92217293D01*
X129698498Y-92269068D01*
X129707237Y-92282146D01*
X129737730Y-92327781D01*
X129737733Y-92327783D01*
X129796442Y-92367012D01*
X129823872Y-92372468D01*
X129874561Y-92399562D01*
X129924999Y-92449999D01*
X129925000Y-92450000D01*
X131876000Y-92450000D01*
X131934191Y-92468907D01*
X131970155Y-92518407D01*
X131975000Y-92549000D01*
X131975000Y-92651000D01*
X131956093Y-92709191D01*
X131906593Y-92745155D01*
X131876000Y-92750000D01*
X127666008Y-92750000D01*
X127607817Y-92731093D01*
X127596004Y-92721004D01*
X127103996Y-92228996D01*
X127076219Y-92174479D01*
X127075000Y-92158992D01*
X127075000Y-91541008D01*
X127093907Y-91482817D01*
X127103996Y-91471004D01*
X127715004Y-90859996D01*
X127769521Y-90832219D01*
X127785008Y-90831000D01*
X128410726Y-90831000D01*
X128426940Y-90833754D01*
X128426977Y-90833431D01*
X128438061Y-90834678D01*
X128438065Y-90834680D01*
X128462074Y-90831974D01*
X128465207Y-90831622D01*
X128476289Y-90831000D01*
X128481517Y-90831000D01*
X128481521Y-90831000D01*
X128486632Y-90829832D01*
X128497561Y-90827975D01*
X128524706Y-90824918D01*
X128524708Y-90824917D01*
X128535088Y-90821285D01*
X128545000Y-90816512D01*
X128545000Y-90816511D01*
X128545003Y-90816511D01*
X128566365Y-90799473D01*
X128575405Y-90793060D01*
X128579840Y-90790275D01*
X128583540Y-90786573D01*
X128591817Y-90779176D01*
X128613170Y-90762149D01*
X128613170Y-90762148D01*
X128613171Y-90762148D01*
X128620125Y-90753428D01*
X128620381Y-90753632D01*
X128629902Y-90740212D01*
X128641122Y-90728993D01*
X128695639Y-90701218D01*
X128711122Y-90700000D01*
X129626000Y-90700000D01*
X129684191Y-90718907D01*
G37*
G04 #@! TD.AperFunction*
G04 #@! TA.AperFunction,Conductor*
G36*
X140952954Y-90588617D02*
G01*
X140973342Y-90634949D01*
X140973500Y-90639790D01*
X140973500Y-101089500D01*
X140956187Y-101137066D01*
X140912350Y-101162376D01*
X140899500Y-101163500D01*
X133650568Y-101163500D01*
X133603002Y-101146187D01*
X133577692Y-101102350D01*
X133582873Y-101059611D01*
X133595213Y-101031661D01*
X133624808Y-100964634D01*
X133627500Y-100941432D01*
X133627500Y-100558568D01*
X133624808Y-100535366D01*
X133582903Y-100440458D01*
X133509542Y-100367097D01*
X133414634Y-100325192D01*
X133414635Y-100325192D01*
X133409993Y-100324653D01*
X133391432Y-100322500D01*
X132908568Y-100322500D01*
X132890006Y-100324653D01*
X132885365Y-100325192D01*
X132790457Y-100367097D01*
X132765703Y-100391851D01*
X132719826Y-100413243D01*
X132670932Y-100400141D01*
X132641899Y-100358675D01*
X132640289Y-100327947D01*
X132640459Y-100326871D01*
X132640461Y-100326868D01*
X132660555Y-100200000D01*
X132640461Y-100073132D01*
X132640459Y-100073129D01*
X132640459Y-100073126D01*
X132582147Y-99958683D01*
X132491316Y-99867852D01*
X132376873Y-99809540D01*
X132376868Y-99809539D01*
X132250000Y-99789445D01*
X132123131Y-99809539D01*
X132123129Y-99809539D01*
X132089074Y-99826891D01*
X132038832Y-99833059D01*
X132014368Y-99822485D01*
X131960555Y-99786528D01*
X131930623Y-99745706D01*
X131933934Y-99695195D01*
X131960551Y-99663474D01*
X132019251Y-99624252D01*
X132077269Y-99537423D01*
X132092499Y-99460856D01*
X132092499Y-99039144D01*
X132077269Y-98962577D01*
X132019251Y-98875748D01*
X131968629Y-98841923D01*
X131932421Y-98817729D01*
X131925689Y-98814941D01*
X131926541Y-98812883D01*
X131892278Y-98792081D01*
X131876000Y-98745776D01*
X131876000Y-98609623D01*
X131888472Y-98568510D01*
X131926476Y-98511634D01*
X131926631Y-98510856D01*
X132242500Y-98510856D01*
X132257730Y-98587423D01*
X132315748Y-98674252D01*
X132355330Y-98700700D01*
X132408638Y-98736320D01*
X132407788Y-98737591D01*
X132438812Y-98766016D01*
X132444550Y-98809585D01*
X132446253Y-98809777D01*
X132445319Y-98818062D01*
X132448535Y-98846598D01*
X132449000Y-98854883D01*
X132449000Y-98861521D01*
X132450478Y-98867995D01*
X132451867Y-98876172D01*
X132455082Y-98904707D01*
X132456494Y-98908742D01*
X132461638Y-98921162D01*
X132463488Y-98925002D01*
X132481390Y-98947451D01*
X132486191Y-98954216D01*
X132489724Y-98959839D01*
X132494420Y-98964535D01*
X132499949Y-98970722D01*
X132516394Y-98991344D01*
X132517851Y-98993170D01*
X132517852Y-98993170D01*
X132521206Y-98995844D01*
X132536779Y-99006894D01*
X132650826Y-99120941D01*
X132672218Y-99166817D01*
X132672500Y-99173267D01*
X132672500Y-99541432D01*
X132675192Y-99564634D01*
X132717097Y-99659542D01*
X132790458Y-99732903D01*
X132885366Y-99774808D01*
X132908568Y-99777500D01*
X132908572Y-99777500D01*
X133391428Y-99777500D01*
X133391432Y-99777500D01*
X133414634Y-99774808D01*
X133509542Y-99732903D01*
X133582903Y-99659542D01*
X133624808Y-99564634D01*
X133627500Y-99541432D01*
X133627500Y-99158568D01*
X133624808Y-99135366D01*
X133582903Y-99040458D01*
X133509542Y-98967097D01*
X133414634Y-98925192D01*
X133414635Y-98925192D01*
X133409993Y-98924653D01*
X133391432Y-98922500D01*
X133391428Y-98922500D01*
X133023267Y-98922500D01*
X132975701Y-98905187D01*
X132970941Y-98900826D01*
X132896199Y-98826084D01*
X132874807Y-98780208D01*
X132887908Y-98731313D01*
X132907406Y-98712235D01*
X132964252Y-98674252D01*
X133022270Y-98587423D01*
X133037500Y-98510856D01*
X133037500Y-98089144D01*
X133022270Y-98012577D01*
X132964252Y-97925748D01*
X132877423Y-97867730D01*
X132800856Y-97852500D01*
X132479144Y-97852500D01*
X132456295Y-97857045D01*
X132402576Y-97867730D01*
X132315749Y-97925747D01*
X132315747Y-97925749D01*
X132257730Y-98012576D01*
X132250286Y-98049999D01*
X132242500Y-98089144D01*
X132242500Y-98510856D01*
X131926631Y-98510856D01*
X131937500Y-98456212D01*
X131937500Y-97743788D01*
X131926476Y-97688366D01*
X131884482Y-97625518D01*
X131821634Y-97583524D01*
X131766212Y-97572500D01*
X131603788Y-97572500D01*
X131576077Y-97578012D01*
X131548365Y-97583524D01*
X131523335Y-97600249D01*
X131485518Y-97625518D01*
X131485517Y-97625518D01*
X131479459Y-97629567D01*
X131478344Y-97627899D01*
X131441450Y-97645103D01*
X131392555Y-97632002D01*
X131386181Y-97626653D01*
X131321634Y-97583524D01*
X131266212Y-97572500D01*
X131103788Y-97572500D01*
X131076077Y-97578012D01*
X131048365Y-97583524D01*
X130985519Y-97625517D01*
X130985517Y-97625519D01*
X130943524Y-97688365D01*
X130936190Y-97725237D01*
X130932500Y-97743788D01*
X130932500Y-98456212D01*
X130943524Y-98511634D01*
X130985518Y-98574482D01*
X131048366Y-98616476D01*
X131103788Y-98627500D01*
X131103789Y-98627500D01*
X131266211Y-98627500D01*
X131266212Y-98627500D01*
X131321634Y-98616476D01*
X131378888Y-98578219D01*
X131428055Y-98566188D01*
X131473454Y-98588575D01*
X131493842Y-98634907D01*
X131494000Y-98639748D01*
X131494000Y-98753837D01*
X131476687Y-98801403D01*
X131461113Y-98815365D01*
X131370749Y-98875746D01*
X131370746Y-98875749D01*
X131312729Y-98962576D01*
X131305087Y-99000994D01*
X131297499Y-99039144D01*
X131297499Y-99460856D01*
X131312729Y-99537423D01*
X131370747Y-99624252D01*
X131401559Y-99644840D01*
X131429443Y-99663472D01*
X131459374Y-99704293D01*
X131456063Y-99754804D01*
X131429443Y-99786528D01*
X131370748Y-99825747D01*
X131370746Y-99825749D01*
X131312729Y-99912576D01*
X131312729Y-99912577D01*
X131297499Y-99989144D01*
X131297499Y-100410856D01*
X131312729Y-100487423D01*
X131370747Y-100574252D01*
X131457576Y-100632270D01*
X131534143Y-100647500D01*
X131534144Y-100647500D01*
X131855854Y-100647500D01*
X131855855Y-100647500D01*
X131932422Y-100632270D01*
X132014369Y-100577513D01*
X132063536Y-100565482D01*
X132089072Y-100573106D01*
X132123132Y-100590461D01*
X132250000Y-100610555D01*
X132376868Y-100590461D01*
X132376871Y-100590459D01*
X132376873Y-100590459D01*
X132491316Y-100532147D01*
X132491319Y-100532145D01*
X132549412Y-100474052D01*
X132595288Y-100452659D01*
X132644182Y-100465759D01*
X132673216Y-100507224D01*
X132675245Y-100534903D01*
X132672500Y-100558568D01*
X132672500Y-100941428D01*
X132675192Y-100964635D01*
X132675193Y-100964636D01*
X132717127Y-101059611D01*
X132720502Y-101110117D01*
X132690622Y-101150976D01*
X132649432Y-101163500D01*
X125215263Y-101163500D01*
X125167697Y-101146187D01*
X125142387Y-101102350D01*
X125142685Y-101075064D01*
X125145275Y-101062039D01*
X125147500Y-101050856D01*
X125147500Y-100763266D01*
X125164813Y-100715700D01*
X125169174Y-100710940D01*
X125317440Y-100562674D01*
X125363316Y-100541282D01*
X125369766Y-100541000D01*
X126584130Y-100541000D01*
X126631696Y-100558313D01*
X126650064Y-100581405D01*
X126667852Y-100616316D01*
X126758683Y-100707147D01*
X126873126Y-100765459D01*
X126873129Y-100765459D01*
X126873132Y-100765461D01*
X127000000Y-100785555D01*
X127126868Y-100765461D01*
X127126871Y-100765459D01*
X127126873Y-100765459D01*
X127241316Y-100707147D01*
X127241315Y-100707147D01*
X127241318Y-100707146D01*
X127332146Y-100616318D01*
X127359479Y-100562674D01*
X127390459Y-100501873D01*
X127390459Y-100501871D01*
X127390461Y-100501868D01*
X127410555Y-100375000D01*
X127390461Y-100248132D01*
X127390459Y-100248129D01*
X127390459Y-100248126D01*
X127332147Y-100133683D01*
X127317726Y-100119262D01*
X127296334Y-100073386D01*
X127309435Y-100024491D01*
X127313187Y-100019583D01*
X127455198Y-99849171D01*
X127498948Y-99823714D01*
X127523618Y-99823457D01*
X127600000Y-99835555D01*
X127726868Y-99815461D01*
X127726871Y-99815459D01*
X127726873Y-99815459D01*
X127841316Y-99757147D01*
X127841315Y-99757147D01*
X127841318Y-99757146D01*
X127932146Y-99666318D01*
X127949338Y-99632577D01*
X127990459Y-99551873D01*
X127990459Y-99551871D01*
X127990461Y-99551868D01*
X127997104Y-99509923D01*
X128021644Y-99465652D01*
X128068901Y-99447511D01*
X128070193Y-99447500D01*
X128300855Y-99447500D01*
X128300856Y-99447500D01*
X128377423Y-99432270D01*
X128464252Y-99374252D01*
X128522270Y-99287423D01*
X128537500Y-99210856D01*
X128762500Y-99210856D01*
X128777730Y-99287423D01*
X128835748Y-99374252D01*
X128922577Y-99432270D01*
X128999144Y-99447500D01*
X128999149Y-99447500D01*
X128999436Y-99447557D01*
X129042711Y-99473816D01*
X129059000Y-99520135D01*
X129059000Y-99833178D01*
X129041687Y-99880744D01*
X129037326Y-99885504D01*
X128980743Y-99942086D01*
X128929138Y-100052753D01*
X128922500Y-100103182D01*
X128922500Y-100696817D01*
X128929139Y-100747249D01*
X128980743Y-100857913D01*
X128980744Y-100857914D01*
X129067086Y-100944256D01*
X129177752Y-100995861D01*
X129228181Y-101002500D01*
X129746818Y-101002499D01*
X129797248Y-100995861D01*
X129907914Y-100944256D01*
X129994256Y-100857914D01*
X130045861Y-100747248D01*
X130052500Y-100696819D01*
X130052499Y-100103182D01*
X130045861Y-100052752D01*
X130045860Y-100052750D01*
X130045860Y-100052748D01*
X130045860Y-100052747D01*
X130038189Y-100036297D01*
X130033776Y-99985871D01*
X130062810Y-99944406D01*
X130111704Y-99931305D01*
X130157580Y-99952697D01*
X130157581Y-99952697D01*
X130255825Y-100050941D01*
X130277217Y-100096817D01*
X130277499Y-100103267D01*
X130277499Y-100410856D01*
X130292729Y-100487423D01*
X130350747Y-100574252D01*
X130437576Y-100632270D01*
X130514143Y-100647500D01*
X130514144Y-100647500D01*
X130835854Y-100647500D01*
X130835855Y-100647500D01*
X130912422Y-100632270D01*
X130999251Y-100574252D01*
X131057269Y-100487423D01*
X131072499Y-100410856D01*
X131072499Y-99989144D01*
X131057269Y-99912577D01*
X130999251Y-99825748D01*
X130912422Y-99767730D01*
X130835855Y-99752500D01*
X130528266Y-99752500D01*
X130480700Y-99735187D01*
X130475940Y-99730826D01*
X130112674Y-99367560D01*
X130091282Y-99321684D01*
X130091000Y-99315234D01*
X130091000Y-99278131D01*
X130108313Y-99230565D01*
X130131406Y-99212195D01*
X130141318Y-99207146D01*
X130232146Y-99116318D01*
X130243092Y-99094836D01*
X130290459Y-99001873D01*
X130290459Y-99001871D01*
X130290461Y-99001868D01*
X130310555Y-98875000D01*
X130297672Y-98793664D01*
X130307330Y-98743976D01*
X130312894Y-98735965D01*
X130325060Y-98720709D01*
X130330573Y-98714541D01*
X130335275Y-98709840D01*
X130338808Y-98704215D01*
X130343607Y-98697452D01*
X130361511Y-98675003D01*
X130361511Y-98675000D01*
X130363374Y-98671133D01*
X130368494Y-98658771D01*
X130369914Y-98654710D01*
X130369918Y-98654706D01*
X130373132Y-98626170D01*
X130374521Y-98617994D01*
X130376000Y-98611521D01*
X130376000Y-98609623D01*
X130376340Y-98608502D01*
X130376465Y-98607393D01*
X130376669Y-98607416D01*
X130388472Y-98568510D01*
X130426476Y-98511634D01*
X130437500Y-98456212D01*
X130437500Y-97743788D01*
X130426476Y-97688366D01*
X130384482Y-97625518D01*
X130321634Y-97583524D01*
X130266212Y-97572500D01*
X130103788Y-97572500D01*
X130076077Y-97578012D01*
X130048365Y-97583524D01*
X129985519Y-97625517D01*
X129985517Y-97625519D01*
X129943524Y-97688365D01*
X129932500Y-97743788D01*
X129932500Y-98396095D01*
X129915187Y-98443661D01*
X129871350Y-98468971D01*
X129870077Y-98469184D01*
X129773130Y-98484539D01*
X129773126Y-98484540D01*
X129658683Y-98542852D01*
X129582066Y-98619469D01*
X129536189Y-98640861D01*
X129488628Y-98628672D01*
X129397422Y-98567729D01*
X129336085Y-98555529D01*
X129320856Y-98552500D01*
X128999144Y-98552500D01*
X128962615Y-98559766D01*
X128922576Y-98567730D01*
X128835749Y-98625747D01*
X128835747Y-98625749D01*
X128777730Y-98712576D01*
X128774003Y-98731313D01*
X128762500Y-98789144D01*
X128762500Y-99210856D01*
X128537500Y-99210856D01*
X128537500Y-98789144D01*
X128522270Y-98712577D01*
X128464252Y-98625748D01*
X128377423Y-98567730D01*
X128300856Y-98552500D01*
X127979144Y-98552500D01*
X127942615Y-98559766D01*
X127902576Y-98567730D01*
X127815749Y-98625747D01*
X127815747Y-98625749D01*
X127757730Y-98712576D01*
X127742500Y-98789144D01*
X127742500Y-98950371D01*
X127725187Y-98997937D01*
X127681350Y-99023247D01*
X127656925Y-99023460D01*
X127594249Y-99013534D01*
X127594509Y-99011886D01*
X127553974Y-98997132D01*
X127528664Y-98953295D01*
X127537454Y-98903445D01*
X127540012Y-98899332D01*
X127546805Y-98889164D01*
X127555102Y-98876748D01*
X127562500Y-98839558D01*
X127562500Y-98560442D01*
X127555102Y-98523252D01*
X127533626Y-98491111D01*
X127521595Y-98441946D01*
X127533625Y-98408888D01*
X127555102Y-98376748D01*
X127562500Y-98339558D01*
X127562500Y-98060442D01*
X127555102Y-98023252D01*
X127533626Y-97991111D01*
X127521595Y-97941946D01*
X127533625Y-97908888D01*
X127555102Y-97876748D01*
X127562500Y-97839558D01*
X127562500Y-97560442D01*
X127558620Y-97540937D01*
X127566320Y-97490907D01*
X127604377Y-97457532D01*
X127631198Y-97452500D01*
X127888992Y-97452500D01*
X127918016Y-97461306D01*
X127918893Y-97459191D01*
X127925624Y-97461978D01*
X127925627Y-97461980D01*
X128003652Y-97477500D01*
X128003653Y-97477500D01*
X128396347Y-97477500D01*
X128396348Y-97477500D01*
X128474373Y-97461980D01*
X128562857Y-97402857D01*
X128621980Y-97314373D01*
X128621980Y-97314372D01*
X128626029Y-97308313D01*
X128627827Y-97309514D01*
X128655021Y-97279832D01*
X128705206Y-97273220D01*
X128747901Y-97300413D01*
X128750724Y-97304352D01*
X128790748Y-97364252D01*
X128877577Y-97422270D01*
X128954144Y-97437500D01*
X128954145Y-97437500D01*
X129375855Y-97437500D01*
X129375856Y-97437500D01*
X129452423Y-97422270D01*
X129539252Y-97364252D01*
X129597270Y-97277423D01*
X129612500Y-97200856D01*
X129612500Y-96879144D01*
X129597270Y-96802577D01*
X129539252Y-96715748D01*
X129452423Y-96657730D01*
X129375856Y-96642500D01*
X129375855Y-96642500D01*
X129068267Y-96642500D01*
X129020701Y-96625187D01*
X129015941Y-96620826D01*
X128841894Y-96446779D01*
X128830844Y-96431206D01*
X128828168Y-96427849D01*
X128805722Y-96409949D01*
X128799535Y-96404420D01*
X128794839Y-96399724D01*
X128789216Y-96396191D01*
X128782451Y-96391390D01*
X128760002Y-96373488D01*
X128756162Y-96371638D01*
X128743742Y-96366494D01*
X128739707Y-96365082D01*
X128711172Y-96361867D01*
X128703001Y-96360479D01*
X128696521Y-96359000D01*
X128696518Y-96359000D01*
X128689884Y-96359000D01*
X128681600Y-96358535D01*
X128653066Y-96355320D01*
X128653065Y-96355320D01*
X128653064Y-96355320D01*
X128648817Y-96355799D01*
X128629976Y-96359000D01*
X128009767Y-96359000D01*
X127962201Y-96341687D01*
X127957441Y-96337326D01*
X127716894Y-96096779D01*
X127705844Y-96081206D01*
X127703168Y-96077849D01*
X127680722Y-96059949D01*
X127674535Y-96054420D01*
X127669839Y-96049724D01*
X127664216Y-96046191D01*
X127657451Y-96041390D01*
X127635002Y-96023488D01*
X127631162Y-96021638D01*
X127618742Y-96016494D01*
X127614707Y-96015082D01*
X127604353Y-96013915D01*
X127594069Y-96012756D01*
X127548741Y-95990226D01*
X127528500Y-95943831D01*
X127540828Y-95898110D01*
X127555102Y-95876748D01*
X127562500Y-95839558D01*
X127562500Y-95560442D01*
X127555102Y-95523252D01*
X127533626Y-95491111D01*
X127521595Y-95441946D01*
X127533625Y-95408888D01*
X127555102Y-95376748D01*
X127562500Y-95339558D01*
X127562500Y-95079848D01*
X127579813Y-95032282D01*
X127623650Y-95006972D01*
X127670099Y-95013916D01*
X127673128Y-95015459D01*
X127673132Y-95015461D01*
X127800000Y-95035555D01*
X127926868Y-95015461D01*
X127926871Y-95015459D01*
X127926873Y-95015459D01*
X128041316Y-94957147D01*
X128041315Y-94957147D01*
X128041318Y-94957146D01*
X128132146Y-94866318D01*
X128167408Y-94797113D01*
X128190459Y-94751873D01*
X128190459Y-94751871D01*
X128190461Y-94751868D01*
X128210555Y-94625000D01*
X128190461Y-94498132D01*
X128190459Y-94498129D01*
X128190459Y-94498126D01*
X128132147Y-94383683D01*
X128041316Y-94292852D01*
X128040414Y-94292197D01*
X128039901Y-94291437D01*
X128037200Y-94288736D01*
X128037725Y-94288210D01*
X128017175Y-94257749D01*
X127972710Y-94257362D01*
X127965030Y-94253983D01*
X127926868Y-94234539D01*
X127800000Y-94214445D01*
X127673131Y-94234539D01*
X127670093Y-94236087D01*
X127619851Y-94242254D01*
X127577399Y-94214683D01*
X127562500Y-94170151D01*
X127562500Y-94060442D01*
X127555102Y-94023252D01*
X127526922Y-93981078D01*
X127508999Y-93969102D01*
X127484749Y-93952898D01*
X127458542Y-93947685D01*
X127447558Y-93945500D01*
X126979885Y-93945500D01*
X126932319Y-93928187D01*
X126907009Y-93884350D01*
X126915799Y-93834500D01*
X126946290Y-93805565D01*
X126968224Y-93794389D01*
X127041318Y-93757146D01*
X127132146Y-93666318D01*
X127165588Y-93600684D01*
X127190459Y-93551873D01*
X127190459Y-93551871D01*
X127190461Y-93551868D01*
X127210555Y-93425000D01*
X127190461Y-93298132D01*
X127190460Y-93298130D01*
X127190460Y-93298129D01*
X127148843Y-93216452D01*
X127142674Y-93166210D01*
X127157927Y-93135485D01*
X127409083Y-92834099D01*
X127452832Y-92808643D01*
X127502711Y-92817264D01*
X127513989Y-92825206D01*
X127521765Y-92831848D01*
X127544678Y-92844679D01*
X127566873Y-92857108D01*
X127588915Y-92864269D01*
X127625053Y-92876012D01*
X127625057Y-92876012D01*
X127625064Y-92876015D01*
X127659088Y-92881404D01*
X127666007Y-92882500D01*
X127666008Y-92882500D01*
X127851464Y-92882500D01*
X127899030Y-92899813D01*
X127924340Y-92943650D01*
X127915550Y-92993500D01*
X127903790Y-93008826D01*
X127860302Y-93052313D01*
X127853236Y-93059958D01*
X127843152Y-93071765D01*
X127817892Y-93116871D01*
X127798987Y-93175053D01*
X127798985Y-93175064D01*
X127792500Y-93216007D01*
X127792500Y-93783989D01*
X127792908Y-93794389D01*
X127794127Y-93809874D01*
X127808160Y-93859631D01*
X127835937Y-93914148D01*
X127835936Y-93914148D01*
X127852271Y-93936631D01*
X127860304Y-93947688D01*
X127860307Y-93947691D01*
X128027313Y-94114697D01*
X128034955Y-94121761D01*
X128046684Y-94131778D01*
X128064887Y-94163951D01*
X128104300Y-94161194D01*
X128106774Y-94161950D01*
X128150053Y-94176012D01*
X128150057Y-94176012D01*
X128150064Y-94176015D01*
X128183078Y-94181244D01*
X128191007Y-94182500D01*
X128191008Y-94182500D01*
X128964463Y-94182500D01*
X129012029Y-94199813D01*
X129016789Y-94204174D01*
X129895826Y-95083210D01*
X129917218Y-95129086D01*
X129917500Y-95135536D01*
X129917500Y-95501000D01*
X129919130Y-95521717D01*
X129919131Y-95521727D01*
X129923974Y-95552314D01*
X129923976Y-95552321D01*
X129936096Y-95581584D01*
X129940305Y-95595459D01*
X129943523Y-95611633D01*
X129943523Y-95611634D01*
X129972432Y-95654897D01*
X129985518Y-95674482D01*
X130048366Y-95716476D01*
X130103788Y-95727500D01*
X130111607Y-95727500D01*
X130123184Y-95728411D01*
X130148999Y-95732500D01*
X130149000Y-95732500D01*
X130726001Y-95732500D01*
X130728072Y-95732336D01*
X130746726Y-95730869D01*
X130777319Y-95726024D01*
X130777327Y-95726020D01*
X130781518Y-95724839D01*
X130781591Y-95725099D01*
X130787869Y-95723191D01*
X130821634Y-95716476D01*
X130884482Y-95674482D01*
X130884482Y-95674481D01*
X130890541Y-95670433D01*
X130891655Y-95672100D01*
X130928550Y-95654897D01*
X130977445Y-95667998D01*
X130983818Y-95673346D01*
X130985517Y-95674481D01*
X130985518Y-95674482D01*
X131048366Y-95716476D01*
X131103788Y-95727500D01*
X131111607Y-95727500D01*
X131123184Y-95728411D01*
X131148999Y-95732500D01*
X131149000Y-95732500D01*
X131751001Y-95732500D01*
X131753072Y-95732336D01*
X131771726Y-95730869D01*
X131802319Y-95726024D01*
X131859475Y-95702350D01*
X131908975Y-95666386D01*
X131914968Y-95661764D01*
X131919664Y-95654897D01*
X131957108Y-95600135D01*
X131976012Y-95541954D01*
X131976012Y-95541952D01*
X131976015Y-95541944D01*
X131982500Y-95501000D01*
X131982500Y-95185536D01*
X131999813Y-95137970D01*
X132004174Y-95133210D01*
X132057536Y-95079848D01*
X132118241Y-95019142D01*
X132164116Y-94997751D01*
X132213010Y-95010852D01*
X132242044Y-95052316D01*
X132243145Y-95085902D01*
X132242500Y-95089145D01*
X132242500Y-95274886D01*
X132241589Y-95286461D01*
X132239445Y-95299998D01*
X132239445Y-95299999D01*
X132241589Y-95313536D01*
X132242500Y-95325112D01*
X132242500Y-95510856D01*
X132257730Y-95587423D01*
X132315748Y-95674252D01*
X132388892Y-95723126D01*
X132408638Y-95736320D01*
X132407694Y-95737731D01*
X132438360Y-95765832D01*
X132444965Y-95816018D01*
X132417767Y-95858709D01*
X132405342Y-95865882D01*
X132315749Y-95925747D01*
X132315747Y-95925749D01*
X132257730Y-96012576D01*
X132242500Y-96089144D01*
X132242500Y-96139741D01*
X132235852Y-96167435D01*
X132236338Y-96167593D01*
X132234539Y-96173128D01*
X132214445Y-96300000D01*
X132234538Y-96426869D01*
X132236338Y-96432405D01*
X132235850Y-96432563D01*
X132242500Y-96460257D01*
X132242500Y-96510856D01*
X132257730Y-96587423D01*
X132315748Y-96674252D01*
X132402577Y-96732270D01*
X132479144Y-96747500D01*
X132479145Y-96747500D01*
X132800855Y-96747500D01*
X132800856Y-96747500D01*
X132877423Y-96732270D01*
X132964252Y-96674252D01*
X133022270Y-96587423D01*
X133037500Y-96510856D01*
X133037500Y-96089144D01*
X133022270Y-96012577D01*
X132964252Y-95925748D01*
X132877423Y-95867730D01*
X132871362Y-95863680D01*
X132872305Y-95862267D01*
X132841642Y-95834172D01*
X132835032Y-95783986D01*
X132862228Y-95741294D01*
X132874659Y-95734116D01*
X132877421Y-95732270D01*
X132877423Y-95732270D01*
X132964252Y-95674252D01*
X133022270Y-95587423D01*
X133037500Y-95510856D01*
X133037500Y-95447701D01*
X133039881Y-95432673D01*
X133039550Y-95432621D01*
X133048399Y-95376747D01*
X133060555Y-95300000D01*
X133040461Y-95173132D01*
X133040460Y-95173131D01*
X133039550Y-95167381D01*
X133039880Y-95167328D01*
X133037500Y-95152299D01*
X133037500Y-95089144D01*
X133031791Y-95060442D01*
X133022270Y-95012577D01*
X132964252Y-94925748D01*
X132877423Y-94867730D01*
X132800856Y-94852500D01*
X132479144Y-94852500D01*
X132475901Y-94853144D01*
X132425872Y-94845442D01*
X132392499Y-94807383D01*
X132391398Y-94756776D01*
X132409141Y-94728242D01*
X132733210Y-94404174D01*
X132779087Y-94382782D01*
X132785536Y-94382500D01*
X133633990Y-94382500D01*
X133633992Y-94382500D01*
X133644389Y-94382091D01*
X133659876Y-94380872D01*
X133709632Y-94366840D01*
X133764148Y-94339063D01*
X133797687Y-94314696D01*
X134008209Y-94104174D01*
X134054085Y-94082782D01*
X134060535Y-94082500D01*
X134388500Y-94082500D01*
X134436066Y-94099813D01*
X134461376Y-94143650D01*
X134462500Y-94156500D01*
X134462500Y-94462557D01*
X134469898Y-94499750D01*
X134476005Y-94508890D01*
X134488035Y-94558058D01*
X134476005Y-94591110D01*
X134469898Y-94600249D01*
X134462500Y-94637442D01*
X134462500Y-94962557D01*
X134469898Y-94999750D01*
X134472687Y-95006483D01*
X134469395Y-95007846D01*
X134478014Y-95043048D01*
X134455631Y-95088449D01*
X134409301Y-95108841D01*
X134404453Y-95109000D01*
X134122180Y-95109000D01*
X134074614Y-95091687D01*
X134049602Y-95049437D01*
X134047227Y-95037500D01*
X134042270Y-95012577D01*
X133984252Y-94925748D01*
X133897423Y-94867730D01*
X133820856Y-94852500D01*
X133499144Y-94852500D01*
X133460860Y-94860115D01*
X133422576Y-94867730D01*
X133335749Y-94925747D01*
X133335747Y-94925749D01*
X133277730Y-95012576D01*
X133271893Y-95041922D01*
X133262500Y-95089144D01*
X133262500Y-95510856D01*
X133277730Y-95587423D01*
X133335748Y-95674252D01*
X133408892Y-95723126D01*
X133428638Y-95736320D01*
X133427694Y-95737731D01*
X133458360Y-95765832D01*
X133464965Y-95816018D01*
X133437767Y-95858709D01*
X133425342Y-95865882D01*
X133335749Y-95925747D01*
X133335747Y-95925749D01*
X133277730Y-96012576D01*
X133265805Y-96072526D01*
X133262500Y-96089144D01*
X133262500Y-96510856D01*
X133277730Y-96587423D01*
X133335748Y-96674252D01*
X133397852Y-96715749D01*
X133428638Y-96736320D01*
X133427694Y-96737731D01*
X133458360Y-96765832D01*
X133464965Y-96816018D01*
X133437767Y-96858709D01*
X133425342Y-96865882D01*
X133335749Y-96925747D01*
X133335747Y-96925749D01*
X133277730Y-97012576D01*
X133273837Y-97032147D01*
X133262500Y-97089144D01*
X133262500Y-97510856D01*
X133277730Y-97587423D01*
X133335748Y-97674252D01*
X133396430Y-97714799D01*
X133428638Y-97736320D01*
X133427694Y-97737731D01*
X133458360Y-97765832D01*
X133464965Y-97816018D01*
X133437767Y-97858709D01*
X133425342Y-97865882D01*
X133335749Y-97925747D01*
X133335747Y-97925749D01*
X133277730Y-98012576D01*
X133270286Y-98049999D01*
X133262500Y-98089144D01*
X133262500Y-98510856D01*
X133277730Y-98587423D01*
X133335748Y-98674252D01*
X133422577Y-98732270D01*
X133499144Y-98747500D01*
X133499145Y-98747500D01*
X133820855Y-98747500D01*
X133820856Y-98747500D01*
X133897423Y-98732270D01*
X133984252Y-98674252D01*
X133984495Y-98673887D01*
X133984950Y-98673553D01*
X133989408Y-98669097D01*
X133990093Y-98669782D01*
X134025316Y-98643956D01*
X134046024Y-98641000D01*
X134388500Y-98641000D01*
X134436066Y-98658313D01*
X134461376Y-98702150D01*
X134462500Y-98715000D01*
X134462500Y-98762557D01*
X134469898Y-98799749D01*
X134481913Y-98817730D01*
X134498078Y-98841922D01*
X134505076Y-98846598D01*
X134540250Y-98870101D01*
X134540252Y-98870102D01*
X134577442Y-98877500D01*
X134577443Y-98877500D01*
X135676409Y-98877500D01*
X135723975Y-98894813D01*
X135749285Y-98938650D01*
X135749776Y-98941841D01*
X135769312Y-99090234D01*
X135769312Y-99090235D01*
X135815743Y-99202327D01*
X135827302Y-99230233D01*
X135919549Y-99350451D01*
X136039767Y-99442698D01*
X136179764Y-99500687D01*
X136292280Y-99515500D01*
X136292282Y-99515500D01*
X136367718Y-99515500D01*
X136367720Y-99515500D01*
X136480236Y-99500687D01*
X136620233Y-99442698D01*
X136740451Y-99350451D01*
X136832698Y-99230233D01*
X136890687Y-99090236D01*
X136910466Y-98940000D01*
X136890687Y-98789764D01*
X136832698Y-98649767D01*
X136740451Y-98529549D01*
X136620233Y-98437302D01*
X136575860Y-98418922D01*
X136493682Y-98384882D01*
X136456362Y-98350684D01*
X136449755Y-98300498D01*
X136469673Y-98264191D01*
X136997674Y-97736190D01*
X137043549Y-97714799D01*
X137092444Y-97727900D01*
X137102325Y-97736191D01*
X137549956Y-98183822D01*
X137559579Y-98195672D01*
X137568421Y-98209205D01*
X137568424Y-98209209D01*
X137596010Y-98230680D01*
X137602884Y-98236750D01*
X137605186Y-98239052D01*
X137623073Y-98251823D01*
X137625473Y-98253613D01*
X137667845Y-98286592D01*
X137667846Y-98286592D01*
X137667847Y-98286593D01*
X137673234Y-98289508D01*
X137673102Y-98289751D01*
X137676276Y-98291385D01*
X137676398Y-98291137D01*
X137681908Y-98293830D01*
X137681911Y-98293832D01*
X137733349Y-98309145D01*
X137736250Y-98310074D01*
X137787006Y-98327500D01*
X137787008Y-98327500D01*
X137793056Y-98328510D01*
X137793010Y-98328780D01*
X137796542Y-98329295D01*
X137796577Y-98329022D01*
X137802653Y-98329779D01*
X137802660Y-98329781D01*
X137856281Y-98327563D01*
X137859339Y-98327500D01*
X138054930Y-98327500D01*
X138088524Y-98335565D01*
X138098132Y-98340461D01*
X138225000Y-98360555D01*
X138351868Y-98340461D01*
X138351871Y-98340459D01*
X138351873Y-98340459D01*
X138466316Y-98282147D01*
X138466315Y-98282147D01*
X138466318Y-98282146D01*
X138557146Y-98191318D01*
X138598692Y-98109779D01*
X138615459Y-98076873D01*
X138615459Y-98076871D01*
X138615461Y-98076868D01*
X138635555Y-97950000D01*
X138615461Y-97823132D01*
X138615459Y-97823129D01*
X138615459Y-97823126D01*
X138557147Y-97708683D01*
X138466316Y-97617852D01*
X138351873Y-97559540D01*
X138351868Y-97559539D01*
X138225000Y-97539445D01*
X138098135Y-97559538D01*
X138098131Y-97559539D01*
X138092880Y-97562214D01*
X138088524Y-97564434D01*
X138054930Y-97572500D01*
X138037017Y-97572500D01*
X137989451Y-97555187D01*
X137984691Y-97550826D01*
X137454174Y-97020308D01*
X137432782Y-96974431D01*
X137432500Y-96967982D01*
X137432500Y-94500511D01*
X137434075Y-94485326D01*
X137434966Y-94481078D01*
X137437392Y-94469506D01*
X137433068Y-94434814D01*
X137432500Y-94425662D01*
X137432500Y-94422413D01*
X137432499Y-94422404D01*
X137428887Y-94400761D01*
X137428445Y-94397732D01*
X137426694Y-94383682D01*
X137421809Y-94344486D01*
X137421807Y-94344481D01*
X137420059Y-94338607D01*
X137420325Y-94338527D01*
X137419238Y-94335134D01*
X137418976Y-94335225D01*
X137416984Y-94329423D01*
X137391442Y-94282225D01*
X137390042Y-94279505D01*
X137366476Y-94231300D01*
X137362912Y-94226308D01*
X137363136Y-94226147D01*
X137361004Y-94223288D01*
X137360786Y-94223458D01*
X137357021Y-94218621D01*
X137357020Y-94218619D01*
X137357017Y-94218616D01*
X137317540Y-94182274D01*
X137315333Y-94180157D01*
X136982967Y-93847791D01*
X136906246Y-93793014D01*
X136906240Y-93793011D01*
X136834625Y-93771690D01*
X136803415Y-93753093D01*
X136762906Y-93712584D01*
X136758545Y-93707824D01*
X136731025Y-93675027D01*
X136713712Y-93627461D01*
X136731025Y-93579895D01*
X136737157Y-93574025D01*
X136737017Y-93573885D01*
X136740448Y-93570453D01*
X136740447Y-93570453D01*
X136740451Y-93570451D01*
X136832698Y-93450233D01*
X136890687Y-93310236D01*
X136910466Y-93160000D01*
X136905993Y-93126027D01*
X136916949Y-93076609D01*
X136957107Y-93045794D01*
X136990932Y-93043280D01*
X137100000Y-93060555D01*
X137226868Y-93040461D01*
X137226871Y-93040459D01*
X137226873Y-93040459D01*
X137341316Y-92982147D01*
X137341315Y-92982147D01*
X137341318Y-92982146D01*
X137432146Y-92891318D01*
X137436639Y-92882500D01*
X137437198Y-92881404D01*
X137474218Y-92846882D01*
X137503132Y-92841000D01*
X137529976Y-92841000D01*
X137548817Y-92844200D01*
X137553060Y-92844678D01*
X137553065Y-92844680D01*
X137578381Y-92841827D01*
X137581600Y-92841465D01*
X137589884Y-92841000D01*
X137596520Y-92841000D01*
X137596521Y-92841000D01*
X137602994Y-92839521D01*
X137611170Y-92838132D01*
X137639706Y-92834918D01*
X137639710Y-92834914D01*
X137643771Y-92833494D01*
X137656133Y-92828374D01*
X137660000Y-92826511D01*
X137660003Y-92826511D01*
X137682452Y-92808607D01*
X137689215Y-92803808D01*
X137694840Y-92800275D01*
X137699541Y-92795573D01*
X137705717Y-92790053D01*
X137728170Y-92772149D01*
X137728173Y-92772142D01*
X137730843Y-92768796D01*
X137741892Y-92753221D01*
X139471000Y-91024114D01*
X139516875Y-91002723D01*
X139565770Y-91015824D01*
X139575651Y-91024115D01*
X139658683Y-91107147D01*
X139773126Y-91165459D01*
X139773129Y-91165459D01*
X139773132Y-91165461D01*
X139900000Y-91185555D01*
X140026868Y-91165461D01*
X140026871Y-91165459D01*
X140026873Y-91165459D01*
X140141316Y-91107147D01*
X140141315Y-91107147D01*
X140141318Y-91107146D01*
X140232146Y-91016318D01*
X140236344Y-91008078D01*
X140290459Y-90901873D01*
X140290459Y-90901871D01*
X140290461Y-90901868D01*
X140310555Y-90775000D01*
X140297579Y-90693075D01*
X140307237Y-90643388D01*
X140346576Y-90611532D01*
X140370668Y-90607500D01*
X140760855Y-90607500D01*
X140760856Y-90607500D01*
X140837423Y-90592270D01*
X140858387Y-90578261D01*
X140907555Y-90566230D01*
X140952954Y-90588617D01*
G37*
G04 #@! TD.AperFunction*
G04 #@! TA.AperFunction,Conductor*
G36*
X123243072Y-98439935D02*
G01*
X123290210Y-98458378D01*
X123314467Y-98502807D01*
X123313883Y-98528350D01*
X123307634Y-98559766D01*
X123307500Y-98560442D01*
X123307500Y-98839558D01*
X123309722Y-98850726D01*
X123314898Y-98876749D01*
X123333579Y-98904706D01*
X123343078Y-98918922D01*
X123352179Y-98925003D01*
X123385250Y-98947101D01*
X123385252Y-98947102D01*
X123422442Y-98954500D01*
X123624704Y-98954500D01*
X123672270Y-98971813D01*
X123697580Y-99015650D01*
X123690638Y-99062095D01*
X123659540Y-99123127D01*
X123659539Y-99123131D01*
X123639445Y-99250000D01*
X123660450Y-99382620D01*
X123658883Y-99382868D01*
X123657375Y-99426213D01*
X123623508Y-99463834D01*
X123588760Y-99472500D01*
X123489144Y-99472500D01*
X123476576Y-99475000D01*
X123412576Y-99487730D01*
X123325749Y-99545747D01*
X123325747Y-99545749D01*
X123267730Y-99632576D01*
X123252500Y-99709144D01*
X123252500Y-99926000D01*
X123235187Y-99973566D01*
X123191350Y-99998876D01*
X123178500Y-100000000D01*
X122949979Y-100000000D01*
X122916384Y-99991935D01*
X122901868Y-99984539D01*
X122775000Y-99964445D01*
X122648131Y-99984539D01*
X122648126Y-99984540D01*
X122533683Y-100042852D01*
X122498826Y-100077710D01*
X122452950Y-100099102D01*
X122404055Y-100086001D01*
X122375021Y-100044537D01*
X122372500Y-100025384D01*
X122372500Y-98641581D01*
X122389813Y-98594015D01*
X122433650Y-98568705D01*
X122460934Y-98569002D01*
X122503652Y-98577500D01*
X122668319Y-98577500D01*
X122679894Y-98578410D01*
X122725000Y-98585555D01*
X122770105Y-98578410D01*
X122781681Y-98577500D01*
X122896347Y-98577500D01*
X122896348Y-98577500D01*
X122974373Y-98561980D01*
X123062857Y-98502857D01*
X123084459Y-98470525D01*
X123125276Y-98440596D01*
X123147745Y-98437660D01*
X123243072Y-98439935D01*
G37*
G04 #@! TD.AperFunction*
G04 #@! TA.AperFunction,Conductor*
G36*
X125471799Y-97492313D02*
G01*
X125476559Y-97496674D01*
X125881985Y-97902100D01*
X125903377Y-97947976D01*
X125902748Y-97966001D01*
X125895372Y-98012576D01*
X125889445Y-98050000D01*
X125895956Y-98091110D01*
X125909539Y-98176868D01*
X125962381Y-98280578D01*
X125968549Y-98330820D01*
X125940980Y-98373272D01*
X125892573Y-98388072D01*
X125868128Y-98382540D01*
X125861750Y-98379898D01*
X125836954Y-98374966D01*
X125824558Y-98372500D01*
X125545442Y-98372500D01*
X125526847Y-98376199D01*
X125508251Y-98379898D01*
X125476112Y-98401373D01*
X125426944Y-98413404D01*
X125393888Y-98401373D01*
X125361748Y-98379898D01*
X125358807Y-98379313D01*
X125324558Y-98372500D01*
X125045442Y-98372500D01*
X125033045Y-98374966D01*
X125008250Y-98379898D01*
X124966080Y-98408076D01*
X124966076Y-98408080D01*
X124937898Y-98450250D01*
X124930500Y-98487442D01*
X124930500Y-99187891D01*
X124929078Y-99202327D01*
X124928120Y-99207146D01*
X124927552Y-99210000D01*
X124940428Y-99274726D01*
X124947150Y-99308521D01*
X124980068Y-99357787D01*
X124992099Y-99406954D01*
X124969711Y-99452353D01*
X124923379Y-99472740D01*
X124911298Y-99472543D01*
X124910861Y-99472500D01*
X124910856Y-99472500D01*
X124511241Y-99472500D01*
X124463675Y-99455187D01*
X124438365Y-99411350D01*
X124440364Y-99382748D01*
X124439550Y-99382620D01*
X124441935Y-99367560D01*
X124460555Y-99250000D01*
X124447336Y-99166543D01*
X124456994Y-99116857D01*
X124462554Y-99108850D01*
X124465062Y-99105706D01*
X124470567Y-99099546D01*
X124475275Y-99094840D01*
X124478807Y-99089218D01*
X124483608Y-99082451D01*
X124501511Y-99060003D01*
X124503382Y-99056116D01*
X124508498Y-99043764D01*
X124509918Y-99039707D01*
X124509917Y-99039707D01*
X124509919Y-99039706D01*
X124513134Y-99011163D01*
X124514524Y-99002986D01*
X124514780Y-99001868D01*
X124516000Y-98996521D01*
X124516000Y-98989886D01*
X124516465Y-98981602D01*
X124517568Y-98971813D01*
X124519680Y-98953065D01*
X124519678Y-98953059D01*
X124519200Y-98948818D01*
X124516000Y-98929976D01*
X124516000Y-98559766D01*
X124533313Y-98512200D01*
X124537663Y-98507451D01*
X125053221Y-97991892D01*
X125068796Y-97980843D01*
X125072142Y-97978173D01*
X125072149Y-97978170D01*
X125090053Y-97955717D01*
X125095573Y-97949541D01*
X125100275Y-97944840D01*
X125103808Y-97939215D01*
X125108607Y-97932452D01*
X125126511Y-97910003D01*
X125126511Y-97910000D01*
X125128374Y-97906133D01*
X125133494Y-97893771D01*
X125134914Y-97889710D01*
X125134918Y-97889706D01*
X125138132Y-97861170D01*
X125139521Y-97852994D01*
X125141000Y-97846521D01*
X125141000Y-97839883D01*
X125141465Y-97831598D01*
X125142419Y-97823131D01*
X125144680Y-97803065D01*
X125144678Y-97803060D01*
X125144200Y-97798817D01*
X125141000Y-97779976D01*
X125141000Y-97549000D01*
X125158313Y-97501434D01*
X125202150Y-97476124D01*
X125215000Y-97475000D01*
X125424233Y-97475000D01*
X125471799Y-97492313D01*
G37*
G04 #@! TD.AperFunction*
G04 #@! TA.AperFunction,Conductor*
G36*
X123286468Y-94317313D02*
G01*
X123311480Y-94359564D01*
X123314898Y-94376748D01*
X123336373Y-94408888D01*
X123348404Y-94458056D01*
X123336373Y-94491112D01*
X123314898Y-94523251D01*
X123314053Y-94527500D01*
X123307500Y-94560442D01*
X123307500Y-94839558D01*
X123310203Y-94853145D01*
X123314898Y-94876748D01*
X123336373Y-94908888D01*
X123348404Y-94958056D01*
X123336373Y-94991112D01*
X123314898Y-95023251D01*
X123307500Y-95060442D01*
X123307500Y-95339557D01*
X123314898Y-95376748D01*
X123336373Y-95408888D01*
X123348404Y-95458056D01*
X123336373Y-95491112D01*
X123314898Y-95523251D01*
X123314898Y-95523252D01*
X123307500Y-95560442D01*
X123307500Y-95839558D01*
X123313104Y-95867730D01*
X123314898Y-95876748D01*
X123336373Y-95908888D01*
X123348404Y-95958056D01*
X123336373Y-95991112D01*
X123314898Y-96023251D01*
X123307500Y-96060442D01*
X123307500Y-96339557D01*
X123314898Y-96376749D01*
X123330250Y-96399724D01*
X123343078Y-96418922D01*
X123356438Y-96427849D01*
X123385250Y-96447101D01*
X123385252Y-96447102D01*
X123422442Y-96454500D01*
X123422443Y-96454500D01*
X124110000Y-96454500D01*
X124157566Y-96471813D01*
X124182876Y-96515650D01*
X124184000Y-96528500D01*
X124184000Y-96871500D01*
X124166687Y-96919066D01*
X124122850Y-96944376D01*
X124110000Y-96945500D01*
X123422442Y-96945500D01*
X123414389Y-96947102D01*
X123385250Y-96952898D01*
X123343080Y-96981076D01*
X123337925Y-96986232D01*
X123335670Y-96983977D01*
X123305575Y-97006044D01*
X123284868Y-97009000D01*
X123210191Y-97009000D01*
X123162625Y-96991687D01*
X123137613Y-96949437D01*
X123133987Y-96931211D01*
X123132270Y-96922577D01*
X123074252Y-96835748D01*
X122987423Y-96777730D01*
X122910856Y-96762500D01*
X122489144Y-96762500D01*
X122472393Y-96765832D01*
X122460934Y-96768111D01*
X122410905Y-96760409D01*
X122377531Y-96722350D01*
X122372500Y-96695532D01*
X122372500Y-96604467D01*
X122389813Y-96556901D01*
X122433650Y-96531591D01*
X122460935Y-96531888D01*
X122489144Y-96537500D01*
X122577298Y-96537500D01*
X122592326Y-96539880D01*
X122592379Y-96539550D01*
X122613501Y-96542895D01*
X122725000Y-96560555D01*
X122836498Y-96542895D01*
X122857621Y-96539550D01*
X122857673Y-96539880D01*
X122872702Y-96537500D01*
X122910855Y-96537500D01*
X122910856Y-96537500D01*
X122987423Y-96522270D01*
X123074252Y-96464252D01*
X123132270Y-96377423D01*
X123147500Y-96300856D01*
X123147500Y-95979144D01*
X123132270Y-95902577D01*
X123074252Y-95815748D01*
X122987423Y-95757730D01*
X122910856Y-95742500D01*
X122910855Y-95742500D01*
X122750112Y-95742500D01*
X122738536Y-95741589D01*
X122731414Y-95740461D01*
X122725000Y-95739445D01*
X122718586Y-95740461D01*
X122711464Y-95741589D01*
X122699888Y-95742500D01*
X122489144Y-95742500D01*
X122469778Y-95746352D01*
X122460934Y-95748111D01*
X122410905Y-95740409D01*
X122377531Y-95702350D01*
X122372500Y-95675532D01*
X122372500Y-94394564D01*
X122389813Y-94346998D01*
X122433650Y-94321688D01*
X122460930Y-94321985D01*
X122488652Y-94327500D01*
X122618319Y-94327500D01*
X122629894Y-94328410D01*
X122675000Y-94335555D01*
X122720105Y-94328410D01*
X122731681Y-94327500D01*
X122881347Y-94327500D01*
X122881348Y-94327500D01*
X122959373Y-94311980D01*
X122959375Y-94311978D01*
X122966110Y-94309190D01*
X122966483Y-94310091D01*
X122999751Y-94300000D01*
X123238902Y-94300000D01*
X123286468Y-94317313D01*
G37*
G04 #@! TD.AperFunction*
G04 #@! TA.AperFunction,Conductor*
G36*
X131164105Y-92899813D02*
G01*
X131189415Y-92943650D01*
X131189117Y-92970934D01*
X131186800Y-92982583D01*
X131186800Y-93217543D01*
X131197099Y-93269320D01*
X131236330Y-93328033D01*
X131295043Y-93367264D01*
X131346820Y-93377563D01*
X131387005Y-93377563D01*
X131398582Y-93378474D01*
X131423999Y-93382500D01*
X131424000Y-93382500D01*
X131839466Y-93382500D01*
X131887032Y-93399813D01*
X131891784Y-93404167D01*
X131916327Y-93428709D01*
X131925961Y-93437441D01*
X131932079Y-93442462D01*
X131940960Y-93449751D01*
X131949380Y-93455995D01*
X131977274Y-93498235D01*
X131979300Y-93515433D01*
X131979300Y-93684858D01*
X131961987Y-93732424D01*
X131949385Y-93744293D01*
X131939817Y-93751389D01*
X131939814Y-93751391D01*
X131924844Y-93763675D01*
X131924810Y-93763704D01*
X131915197Y-93772417D01*
X130989825Y-94697789D01*
X130943948Y-94719181D01*
X130895054Y-94706080D01*
X130885173Y-94697789D01*
X129999665Y-93812281D01*
X129999648Y-93812264D01*
X129996838Y-93809536D01*
X129992590Y-93805532D01*
X129954800Y-93780554D01*
X129954798Y-93780553D01*
X129954795Y-93780551D01*
X129884286Y-93749715D01*
X129881942Y-93749771D01*
X129881000Y-93749446D01*
X129873855Y-93746926D01*
X129874391Y-93745406D01*
X129836983Y-93722700D01*
X129820700Y-93676389D01*
X129820700Y-93515689D01*
X129838013Y-93468123D01*
X129853586Y-93454162D01*
X129860186Y-93449752D01*
X129870059Y-93443155D01*
X129870058Y-93443154D01*
X129871095Y-93442462D01*
X129877305Y-93438738D01*
X129905819Y-93423497D01*
X129937044Y-93400338D01*
X129937046Y-93400335D01*
X129939233Y-93398714D01*
X129939733Y-93399389D01*
X129984222Y-93382507D01*
X129985230Y-93382500D01*
X130376001Y-93382500D01*
X130378072Y-93382336D01*
X130396726Y-93380869D01*
X130411849Y-93378473D01*
X130423423Y-93377563D01*
X130453179Y-93377563D01*
X130453180Y-93377563D01*
X130504957Y-93367264D01*
X130563670Y-93328033D01*
X130602901Y-93269320D01*
X130613200Y-93217543D01*
X130613200Y-92982583D01*
X130610883Y-92970935D01*
X130618583Y-92920907D01*
X130656640Y-92887532D01*
X130683461Y-92882500D01*
X131116539Y-92882500D01*
X131164105Y-92899813D01*
G37*
G04 #@! TD.AperFunction*
G04 #@! TA.AperFunction,Conductor*
G36*
X138993511Y-75909813D02*
G01*
X139018821Y-75953650D01*
X139018523Y-75980935D01*
X139018100Y-75983062D01*
X139018100Y-75983065D01*
X139018100Y-76221098D01*
X139017189Y-76232674D01*
X139014445Y-76249999D01*
X139017189Y-76267325D01*
X139018100Y-76278901D01*
X139018100Y-76465984D01*
X139000787Y-76513550D01*
X138956950Y-76538860D01*
X138907100Y-76530070D01*
X138891774Y-76518310D01*
X138816316Y-76442852D01*
X138701873Y-76384540D01*
X138701868Y-76384539D01*
X138575000Y-76364445D01*
X138448131Y-76384539D01*
X138448126Y-76384540D01*
X138333683Y-76442852D01*
X138242852Y-76533683D01*
X138184540Y-76648126D01*
X138184539Y-76648131D01*
X138164445Y-76775000D01*
X138164445Y-76775001D01*
X138169714Y-76808271D01*
X138160055Y-76857960D01*
X138120716Y-76889815D01*
X138070105Y-76888931D01*
X138057066Y-76882178D01*
X138056148Y-76881798D01*
X138031352Y-76876866D01*
X138018956Y-76874400D01*
X137181040Y-76874400D01*
X137168643Y-76876866D01*
X137143848Y-76881798D01*
X137101678Y-76909976D01*
X137101674Y-76909980D01*
X137073496Y-76952150D01*
X137066098Y-76989342D01*
X137066098Y-77420857D01*
X137073496Y-77458049D01*
X137086707Y-77477820D01*
X137101676Y-77500222D01*
X137122763Y-77514312D01*
X137143848Y-77528401D01*
X137143850Y-77528402D01*
X137164563Y-77532522D01*
X137207838Y-77558781D01*
X137224109Y-77606714D01*
X137205764Y-77653891D01*
X137164565Y-77677678D01*
X137143848Y-77681799D01*
X137101678Y-77709977D01*
X137101674Y-77709981D01*
X137073496Y-77752151D01*
X137066098Y-77789343D01*
X137066098Y-78220858D01*
X137073496Y-78258050D01*
X137101483Y-78299934D01*
X137101676Y-78300223D01*
X137122763Y-78314313D01*
X137143848Y-78328402D01*
X137143850Y-78328403D01*
X137164558Y-78332522D01*
X137207833Y-78358781D01*
X137224104Y-78406714D01*
X137205759Y-78453891D01*
X137164560Y-78477678D01*
X137143848Y-78481798D01*
X137101678Y-78509976D01*
X137101674Y-78509980D01*
X137073496Y-78552150D01*
X137066098Y-78589342D01*
X137066098Y-79020857D01*
X137073496Y-79058049D01*
X137094475Y-79089445D01*
X137101676Y-79100222D01*
X137107417Y-79104058D01*
X137143848Y-79128401D01*
X137143850Y-79128402D01*
X137164563Y-79132522D01*
X137207838Y-79158781D01*
X137224109Y-79206714D01*
X137205764Y-79253891D01*
X137164565Y-79277678D01*
X137143848Y-79281799D01*
X137101678Y-79309977D01*
X137101674Y-79309981D01*
X137073496Y-79352151D01*
X137073496Y-79352153D01*
X137066098Y-79389343D01*
X137066098Y-79820859D01*
X137069556Y-79838240D01*
X137073496Y-79858050D01*
X137095153Y-79890461D01*
X137101676Y-79900223D01*
X137117137Y-79910554D01*
X137143848Y-79928402D01*
X137143850Y-79928403D01*
X137162385Y-79932090D01*
X137164556Y-79932522D01*
X137207831Y-79958782D01*
X137224101Y-80006715D01*
X137205755Y-80053892D01*
X137164556Y-80077678D01*
X137143848Y-80081797D01*
X137101678Y-80109975D01*
X137101674Y-80109979D01*
X137073496Y-80152149D01*
X137066098Y-80189341D01*
X137066098Y-80620856D01*
X137073496Y-80658048D01*
X137083973Y-80673727D01*
X137101676Y-80700221D01*
X137104873Y-80702357D01*
X137143848Y-80728400D01*
X137143850Y-80728401D01*
X137164563Y-80732521D01*
X137207838Y-80758780D01*
X137224109Y-80806713D01*
X137205764Y-80853890D01*
X137164565Y-80877677D01*
X137143848Y-80881798D01*
X137101678Y-80909976D01*
X137101674Y-80909980D01*
X137073496Y-80952150D01*
X137066098Y-80989342D01*
X137066098Y-81420857D01*
X137073496Y-81458049D01*
X137095748Y-81491350D01*
X137101676Y-81500222D01*
X137120165Y-81512576D01*
X137143848Y-81528401D01*
X137143850Y-81528402D01*
X137164563Y-81532522D01*
X137207838Y-81558781D01*
X137224109Y-81606714D01*
X137205764Y-81653891D01*
X137164565Y-81677678D01*
X137143848Y-81681799D01*
X137101678Y-81709977D01*
X137101674Y-81709981D01*
X137073496Y-81752151D01*
X137073496Y-81752153D01*
X137066098Y-81789343D01*
X137066098Y-82220859D01*
X137069797Y-82239454D01*
X137073496Y-82258050D01*
X137085856Y-82276547D01*
X137101676Y-82300223D01*
X137114141Y-82308552D01*
X137143848Y-82328402D01*
X137143850Y-82328403D01*
X137162385Y-82332090D01*
X137164556Y-82332522D01*
X137207831Y-82358782D01*
X137224101Y-82406715D01*
X137205755Y-82453892D01*
X137164556Y-82477678D01*
X137143848Y-82481797D01*
X137101678Y-82509975D01*
X137101674Y-82509979D01*
X137073496Y-82552149D01*
X137072196Y-82558686D01*
X137066098Y-82589341D01*
X137066098Y-83020857D01*
X137069797Y-83039452D01*
X137073496Y-83058048D01*
X137101483Y-83099932D01*
X137101676Y-83100221D01*
X137120587Y-83112857D01*
X137143848Y-83128400D01*
X137143850Y-83128401D01*
X137164563Y-83132521D01*
X137207838Y-83158780D01*
X137224109Y-83206713D01*
X137205764Y-83253890D01*
X137164565Y-83277677D01*
X137143848Y-83281798D01*
X137101678Y-83309976D01*
X137101674Y-83309980D01*
X137073496Y-83352150D01*
X137066098Y-83389342D01*
X137066098Y-83558134D01*
X137048785Y-83605700D01*
X137044424Y-83610460D01*
X136591642Y-84063241D01*
X136545765Y-84084633D01*
X136527740Y-84084004D01*
X136406062Y-84064733D01*
X136279193Y-84084827D01*
X136279188Y-84084828D01*
X136164745Y-84143140D01*
X136073914Y-84233971D01*
X136015602Y-84348414D01*
X136015601Y-84348419D01*
X135995507Y-84475288D01*
X136015601Y-84602156D01*
X136015602Y-84602161D01*
X136073914Y-84716604D01*
X136164745Y-84807435D01*
X136201019Y-84825918D01*
X136235541Y-84862938D01*
X136238191Y-84913488D01*
X136235536Y-84920059D01*
X136234539Y-84923128D01*
X136214445Y-85050000D01*
X136234539Y-85176868D01*
X136234540Y-85176873D01*
X136292852Y-85291316D01*
X136292854Y-85291318D01*
X136383682Y-85382146D01*
X136476371Y-85429373D01*
X136480084Y-85431265D01*
X136514606Y-85468286D01*
X136517256Y-85518835D01*
X136486792Y-85559262D01*
X136446489Y-85571200D01*
X136284240Y-85571200D01*
X136271843Y-85573666D01*
X136247048Y-85578598D01*
X136204878Y-85606776D01*
X136204874Y-85606780D01*
X136176696Y-85648950D01*
X136172577Y-85669658D01*
X136146317Y-85712933D01*
X136098384Y-85729203D01*
X136051207Y-85710857D01*
X136027421Y-85669658D01*
X136024120Y-85653065D01*
X136023302Y-85648952D01*
X135995122Y-85606778D01*
X135978820Y-85595885D01*
X135952949Y-85578598D01*
X135934353Y-85574899D01*
X135915758Y-85571200D01*
X135915757Y-85571200D01*
X135670067Y-85571200D01*
X135622501Y-85553887D01*
X135617741Y-85549526D01*
X135312674Y-85244459D01*
X135291282Y-85198583D01*
X135291000Y-85192133D01*
X135291000Y-84703131D01*
X135308313Y-84655565D01*
X135331406Y-84637195D01*
X135341318Y-84632146D01*
X135432146Y-84541318D01*
X135441417Y-84523122D01*
X135490459Y-84426873D01*
X135490459Y-84426871D01*
X135490461Y-84426868D01*
X135510555Y-84300000D01*
X135490461Y-84173132D01*
X135490459Y-84173129D01*
X135490459Y-84173126D01*
X135432147Y-84058683D01*
X135341316Y-83967852D01*
X135226873Y-83909540D01*
X135226868Y-83909539D01*
X135100000Y-83889445D01*
X134973131Y-83909539D01*
X134973126Y-83909540D01*
X134858683Y-83967852D01*
X134767852Y-84058683D01*
X134709540Y-84173126D01*
X134709539Y-84173131D01*
X134689445Y-84300000D01*
X134709539Y-84426868D01*
X134709540Y-84426873D01*
X134767852Y-84541316D01*
X134767854Y-84541318D01*
X134858682Y-84632146D01*
X134868592Y-84637195D01*
X134903116Y-84674214D01*
X134909000Y-84703131D01*
X134909000Y-85256874D01*
X134905796Y-85275728D01*
X134905319Y-85279962D01*
X134908535Y-85308498D01*
X134909000Y-85316783D01*
X134909000Y-85323421D01*
X134910478Y-85329895D01*
X134911867Y-85338072D01*
X134915082Y-85366607D01*
X134916494Y-85370642D01*
X134921638Y-85383062D01*
X134923488Y-85386902D01*
X134941390Y-85409351D01*
X134946191Y-85416116D01*
X134949724Y-85421739D01*
X134954420Y-85426435D01*
X134959949Y-85432622D01*
X134974654Y-85451061D01*
X134990776Y-85499044D01*
X134972283Y-85546164D01*
X134927829Y-85570373D01*
X134916799Y-85571200D01*
X134684241Y-85571200D01*
X134671844Y-85573666D01*
X134647049Y-85578598D01*
X134604879Y-85606776D01*
X134604875Y-85606780D01*
X134576697Y-85648950D01*
X134572577Y-85669662D01*
X134546316Y-85712937D01*
X134498383Y-85729206D01*
X134451206Y-85710859D01*
X134427421Y-85669660D01*
X134424120Y-85653065D01*
X134423302Y-85648952D01*
X134395122Y-85606778D01*
X134378820Y-85595885D01*
X134352948Y-85578597D01*
X134350559Y-85578122D01*
X134347890Y-85576502D01*
X134346216Y-85575809D01*
X134346322Y-85575551D01*
X134307286Y-85551860D01*
X134291000Y-85505545D01*
X134291000Y-85403131D01*
X134308313Y-85355565D01*
X134331406Y-85337195D01*
X134341318Y-85332146D01*
X134432146Y-85241318D01*
X134451655Y-85203029D01*
X134490459Y-85126873D01*
X134490459Y-85126871D01*
X134490461Y-85126868D01*
X134510555Y-85000000D01*
X134490461Y-84873132D01*
X134490459Y-84873129D01*
X134490459Y-84873126D01*
X134432147Y-84758683D01*
X134341316Y-84667852D01*
X134226873Y-84609540D01*
X134226868Y-84609539D01*
X134100000Y-84589445D01*
X133973131Y-84609539D01*
X133973126Y-84609540D01*
X133858683Y-84667852D01*
X133767852Y-84758683D01*
X133765934Y-84762449D01*
X133728913Y-84796971D01*
X133678363Y-84799619D01*
X133637938Y-84769155D01*
X133634066Y-84762449D01*
X133632147Y-84758683D01*
X133541316Y-84667852D01*
X133426873Y-84609540D01*
X133426868Y-84609539D01*
X133300000Y-84589445D01*
X133173131Y-84609539D01*
X133173126Y-84609540D01*
X133058683Y-84667852D01*
X132967852Y-84758683D01*
X132965934Y-84762449D01*
X132928913Y-84796971D01*
X132878363Y-84799619D01*
X132837938Y-84769155D01*
X132834066Y-84762449D01*
X132832147Y-84758683D01*
X132741316Y-84667852D01*
X132626873Y-84609540D01*
X132626868Y-84609539D01*
X132500000Y-84589445D01*
X132373131Y-84609539D01*
X132373126Y-84609540D01*
X132258683Y-84667852D01*
X132167852Y-84758683D01*
X132109540Y-84873126D01*
X132109539Y-84873131D01*
X132089445Y-85000000D01*
X132109539Y-85126868D01*
X132109540Y-85126873D01*
X132167852Y-85241316D01*
X132167854Y-85241318D01*
X132258682Y-85332146D01*
X132268592Y-85337195D01*
X132303116Y-85374214D01*
X132309000Y-85403131D01*
X132309000Y-85505545D01*
X132291687Y-85553111D01*
X132253699Y-85575601D01*
X132253785Y-85575809D01*
X132252332Y-85576410D01*
X132249442Y-85578122D01*
X132247052Y-85578597D01*
X132204881Y-85606776D01*
X132204877Y-85606780D01*
X132176699Y-85648950D01*
X132172578Y-85669667D01*
X132146317Y-85712942D01*
X132098384Y-85729211D01*
X132051207Y-85710864D01*
X132027422Y-85669665D01*
X132023302Y-85648952D01*
X131995122Y-85606778D01*
X131978820Y-85595885D01*
X131952949Y-85578598D01*
X131934353Y-85574899D01*
X131915758Y-85571200D01*
X131484242Y-85571200D01*
X131471845Y-85573666D01*
X131447050Y-85578598D01*
X131404880Y-85606776D01*
X131404876Y-85606780D01*
X131376698Y-85648950D01*
X131372577Y-85669667D01*
X131346316Y-85712942D01*
X131298383Y-85729211D01*
X131251206Y-85710864D01*
X131227421Y-85669665D01*
X131223301Y-85648952D01*
X131195121Y-85606778D01*
X131178819Y-85595885D01*
X131152948Y-85578598D01*
X131134352Y-85574899D01*
X131115757Y-85571200D01*
X130684241Y-85571200D01*
X130671844Y-85573666D01*
X130647049Y-85578598D01*
X130604879Y-85606776D01*
X130604875Y-85606780D01*
X130576697Y-85648950D01*
X130572578Y-85669658D01*
X130546318Y-85712933D01*
X130498385Y-85729203D01*
X130451208Y-85710857D01*
X130427422Y-85669658D01*
X130424121Y-85653065D01*
X130423303Y-85648952D01*
X130395123Y-85606778D01*
X130378821Y-85595885D01*
X130352949Y-85578597D01*
X130350560Y-85578122D01*
X130347891Y-85576502D01*
X130346217Y-85575809D01*
X130346323Y-85575551D01*
X130307287Y-85551860D01*
X130291001Y-85505545D01*
X130291001Y-84938303D01*
X130308314Y-84890737D01*
X130346748Y-84868546D01*
X130346331Y-84867260D01*
X130351865Y-84865461D01*
X130351868Y-84865461D01*
X130351870Y-84865459D01*
X130351873Y-84865459D01*
X130466316Y-84807147D01*
X130466315Y-84807147D01*
X130466318Y-84807146D01*
X130557146Y-84716318D01*
X130563865Y-84703131D01*
X130615459Y-84601873D01*
X130615459Y-84601871D01*
X130615461Y-84601868D01*
X130635555Y-84475000D01*
X130615461Y-84348132D01*
X130615459Y-84348129D01*
X130615459Y-84348126D01*
X130557147Y-84233683D01*
X130466316Y-84142852D01*
X130351873Y-84084540D01*
X130351868Y-84084539D01*
X130225000Y-84064445D01*
X130098131Y-84084539D01*
X130098126Y-84084540D01*
X129983683Y-84142852D01*
X129892852Y-84233683D01*
X129834540Y-84348126D01*
X129834539Y-84348131D01*
X129814445Y-84475000D01*
X129834539Y-84601868D01*
X129834540Y-84601873D01*
X129892850Y-84716313D01*
X129894866Y-84719087D01*
X129909001Y-84762586D01*
X129909001Y-85505545D01*
X129891688Y-85553111D01*
X129853699Y-85575601D01*
X129853785Y-85575809D01*
X129852333Y-85576410D01*
X129849442Y-85578122D01*
X129847053Y-85578597D01*
X129847052Y-85578597D01*
X129804881Y-85606776D01*
X129804877Y-85606780D01*
X129776699Y-85648950D01*
X129772578Y-85669667D01*
X129746317Y-85712942D01*
X129698384Y-85729211D01*
X129651207Y-85710864D01*
X129627422Y-85669665D01*
X129623302Y-85648952D01*
X129595122Y-85606778D01*
X129578820Y-85595885D01*
X129552949Y-85578598D01*
X129534353Y-85574899D01*
X129515758Y-85571200D01*
X129084242Y-85571200D01*
X129071845Y-85573666D01*
X129047050Y-85578598D01*
X129004880Y-85606776D01*
X129004876Y-85606780D01*
X128976698Y-85648950D01*
X128969300Y-85686142D01*
X128969300Y-86524057D01*
X128976698Y-86561249D01*
X128998468Y-86593829D01*
X129004878Y-86603422D01*
X129011242Y-86607674D01*
X129047050Y-86631601D01*
X129047052Y-86631602D01*
X129084242Y-86639000D01*
X129084243Y-86639000D01*
X129515757Y-86639000D01*
X129515758Y-86639000D01*
X129552948Y-86631602D01*
X129595122Y-86603422D01*
X129623302Y-86561248D01*
X129627422Y-86540534D01*
X129653681Y-86497259D01*
X129701613Y-86480988D01*
X129748791Y-86499333D01*
X129772578Y-86540532D01*
X129776699Y-86561249D01*
X129798469Y-86593829D01*
X129804879Y-86603422D01*
X129811243Y-86607674D01*
X129847051Y-86631601D01*
X129847053Y-86631602D01*
X129884243Y-86639000D01*
X129884244Y-86639000D01*
X130315758Y-86639000D01*
X130315759Y-86639000D01*
X130352949Y-86631602D01*
X130395123Y-86603422D01*
X130423303Y-86561248D01*
X130427422Y-86540540D01*
X130453682Y-86497266D01*
X130501615Y-86480996D01*
X130548792Y-86499342D01*
X130572578Y-86540541D01*
X130576697Y-86561249D01*
X130598467Y-86593829D01*
X130604877Y-86603422D01*
X130611241Y-86607674D01*
X130647049Y-86631601D01*
X130647051Y-86631602D01*
X130684241Y-86639000D01*
X130684242Y-86639000D01*
X131115756Y-86639000D01*
X131115757Y-86639000D01*
X131152947Y-86631602D01*
X131195121Y-86603422D01*
X131223301Y-86561248D01*
X131227421Y-86540534D01*
X131253680Y-86497259D01*
X131301612Y-86480988D01*
X131348790Y-86499333D01*
X131372577Y-86540532D01*
X131376698Y-86561248D01*
X131398469Y-86593831D01*
X131410501Y-86642998D01*
X131389268Y-86687268D01*
X131367851Y-86708684D01*
X131367850Y-86708686D01*
X131309540Y-86823126D01*
X131309539Y-86823131D01*
X131289445Y-86950000D01*
X131309539Y-87076868D01*
X131339110Y-87134905D01*
X131345278Y-87185147D01*
X131317709Y-87227599D01*
X131273175Y-87242500D01*
X130491008Y-87242500D01*
X130490278Y-87242528D01*
X130480610Y-87242908D01*
X130465124Y-87244127D01*
X130428178Y-87254547D01*
X130377698Y-87250795D01*
X130355766Y-87235651D01*
X130116894Y-86996779D01*
X130105844Y-86981206D01*
X130103168Y-86977849D01*
X130080722Y-86959949D01*
X130074535Y-86954420D01*
X130069839Y-86949724D01*
X130064216Y-86946191D01*
X130057451Y-86941390D01*
X130035002Y-86923488D01*
X130031162Y-86921638D01*
X130018742Y-86916494D01*
X130014707Y-86915082D01*
X129986172Y-86911867D01*
X129978001Y-86910479D01*
X129971521Y-86909000D01*
X129971518Y-86909000D01*
X129964884Y-86909000D01*
X129956600Y-86908535D01*
X129928066Y-86905320D01*
X129928065Y-86905320D01*
X129928064Y-86905320D01*
X129923817Y-86905799D01*
X129904976Y-86909000D01*
X128580024Y-86909000D01*
X128561182Y-86905799D01*
X128556935Y-86905320D01*
X128556933Y-86905320D01*
X128528400Y-86908535D01*
X128520116Y-86909000D01*
X128513478Y-86909000D01*
X128507007Y-86910477D01*
X128498829Y-86911866D01*
X128490143Y-86912845D01*
X128470292Y-86915082D01*
X128466276Y-86916487D01*
X128453831Y-86921642D01*
X128449993Y-86923490D01*
X128427543Y-86941393D01*
X128420786Y-86946188D01*
X128415164Y-86949721D01*
X128415161Y-86949724D01*
X128410461Y-86954423D01*
X128404283Y-86959944D01*
X128381828Y-86977852D01*
X128379171Y-86981184D01*
X128368106Y-86996777D01*
X128234058Y-87130826D01*
X128188182Y-87152218D01*
X128181732Y-87152500D01*
X127874144Y-87152500D01*
X127835860Y-87160115D01*
X127797576Y-87167730D01*
X127710749Y-87225747D01*
X127710747Y-87225749D01*
X127652730Y-87312576D01*
X127640938Y-87371860D01*
X127637500Y-87389144D01*
X127637500Y-87810856D01*
X127652730Y-87887423D01*
X127710748Y-87974252D01*
X127797577Y-88032270D01*
X127874144Y-88047500D01*
X127874145Y-88047500D01*
X128195855Y-88047500D01*
X128195856Y-88047500D01*
X128272423Y-88032270D01*
X128359252Y-87974252D01*
X128417270Y-87887423D01*
X128432500Y-87810856D01*
X128432500Y-87503267D01*
X128449813Y-87455701D01*
X128454174Y-87450941D01*
X128592441Y-87312674D01*
X128638317Y-87291282D01*
X128644767Y-87291000D01*
X129840233Y-87291000D01*
X129887799Y-87308313D01*
X129892559Y-87312674D01*
X130145826Y-87565941D01*
X130167218Y-87611817D01*
X130167500Y-87618267D01*
X130167500Y-88233989D01*
X130167908Y-88244389D01*
X130169127Y-88259874D01*
X130183160Y-88309631D01*
X130210937Y-88364148D01*
X130210936Y-88364148D01*
X130230741Y-88391407D01*
X130235304Y-88397688D01*
X130727312Y-88889696D01*
X130734953Y-88896759D01*
X130746766Y-88906848D01*
X130791873Y-88932108D01*
X130813915Y-88939269D01*
X130850053Y-88951012D01*
X130850057Y-88951012D01*
X130850064Y-88951015D01*
X130885408Y-88956613D01*
X130891007Y-88957500D01*
X130891008Y-88957500D01*
X131085000Y-88957500D01*
X131132566Y-88974813D01*
X131157876Y-89018650D01*
X131159000Y-89031500D01*
X131159000Y-89342794D01*
X131141687Y-89390360D01*
X131126113Y-89404322D01*
X131083080Y-89433076D01*
X131083076Y-89433080D01*
X131054898Y-89475250D01*
X131047500Y-89512442D01*
X131047500Y-89887557D01*
X131054898Y-89924749D01*
X131068824Y-89945590D01*
X131083078Y-89966922D01*
X131090790Y-89972075D01*
X131125250Y-89995101D01*
X131125252Y-89995102D01*
X131162442Y-90002500D01*
X131162443Y-90002500D01*
X131837557Y-90002500D01*
X131837558Y-90002500D01*
X131874748Y-89995102D01*
X131916922Y-89966922D01*
X131945102Y-89924748D01*
X131952500Y-89887558D01*
X131952500Y-89512442D01*
X131945102Y-89475252D01*
X131944499Y-89474350D01*
X131916923Y-89433080D01*
X131916922Y-89433078D01*
X131908459Y-89427423D01*
X131874749Y-89404898D01*
X131840996Y-89398184D01*
X131837558Y-89397500D01*
X131837557Y-89397500D01*
X131615000Y-89397500D01*
X131567434Y-89380187D01*
X131542124Y-89336350D01*
X131541000Y-89323500D01*
X131541000Y-89031500D01*
X131558313Y-88983934D01*
X131602150Y-88958624D01*
X131615000Y-88957500D01*
X132269019Y-88957500D01*
X132269020Y-88957500D01*
X132299951Y-88953839D01*
X132344896Y-88943049D01*
X132351379Y-88940657D01*
X132365418Y-88936992D01*
X132438428Y-88925429D01*
X132461575Y-88925429D01*
X132496473Y-88930956D01*
X132517198Y-88932587D01*
X132548169Y-88932587D01*
X132548171Y-88932587D01*
X132608324Y-88918146D01*
X132662840Y-88890369D01*
X132696378Y-88866002D01*
X132767454Y-88794924D01*
X132813328Y-88773533D01*
X132862223Y-88786633D01*
X132865903Y-88789384D01*
X132879282Y-88800054D01*
X132885460Y-88805575D01*
X132890160Y-88810275D01*
X132895777Y-88813804D01*
X132902549Y-88818609D01*
X132924997Y-88836511D01*
X132924999Y-88836511D01*
X132928863Y-88838372D01*
X132941246Y-88843501D01*
X132945291Y-88844916D01*
X132945294Y-88844918D01*
X132972128Y-88847940D01*
X132973817Y-88848131D01*
X132982003Y-88849521D01*
X132988479Y-88851000D01*
X132995116Y-88851000D01*
X133003400Y-88851465D01*
X133007027Y-88851873D01*
X133031935Y-88854680D01*
X133031940Y-88854678D01*
X133036182Y-88854200D01*
X133055024Y-88851000D01*
X135749056Y-88851000D01*
X135796622Y-88868313D01*
X135813574Y-88891432D01*
X135813680Y-88891362D01*
X135815298Y-88893784D01*
X135817424Y-88896683D01*
X135817731Y-88897425D01*
X135840136Y-88930956D01*
X135875748Y-88984252D01*
X135962577Y-89042270D01*
X136039144Y-89057500D01*
X136039145Y-89057500D01*
X136460855Y-89057500D01*
X136460856Y-89057500D01*
X136537423Y-89042270D01*
X136624252Y-88984252D01*
X136663472Y-88925554D01*
X136704293Y-88895624D01*
X136754804Y-88898935D01*
X136786526Y-88925554D01*
X136825748Y-88984252D01*
X136912577Y-89042270D01*
X136914448Y-89042642D01*
X136916540Y-89043912D01*
X136919310Y-89045059D01*
X136919133Y-89045485D01*
X136957722Y-89068902D01*
X136973993Y-89116834D01*
X136955647Y-89164012D01*
X136952337Y-89167546D01*
X136439058Y-89680826D01*
X136393182Y-89702218D01*
X136386732Y-89702500D01*
X136079144Y-89702500D01*
X136045591Y-89709174D01*
X136002576Y-89717730D01*
X135915749Y-89775747D01*
X135915747Y-89775749D01*
X135857730Y-89862576D01*
X135845363Y-89924749D01*
X135842500Y-89939144D01*
X135842500Y-90360856D01*
X135857730Y-90437423D01*
X135915748Y-90524252D01*
X136002577Y-90582270D01*
X136079144Y-90597500D01*
X136079145Y-90597500D01*
X136400855Y-90597500D01*
X136400856Y-90597500D01*
X136477423Y-90582270D01*
X136564252Y-90524252D01*
X136622270Y-90437423D01*
X136637500Y-90360856D01*
X136637500Y-90053267D01*
X136654813Y-90005701D01*
X136659174Y-90000941D01*
X136736174Y-89923941D01*
X136782050Y-89902549D01*
X136830945Y-89915650D01*
X136859979Y-89957114D01*
X136862500Y-89976267D01*
X136862500Y-90360856D01*
X136877730Y-90437423D01*
X136935748Y-90524252D01*
X137022577Y-90582270D01*
X137099144Y-90597500D01*
X137099145Y-90597500D01*
X137420855Y-90597500D01*
X137420856Y-90597500D01*
X137497423Y-90582270D01*
X137584252Y-90524252D01*
X137642270Y-90437423D01*
X137657500Y-90360856D01*
X137657500Y-89993267D01*
X137674813Y-89945701D01*
X137679174Y-89940941D01*
X137717965Y-89902150D01*
X137772529Y-89847585D01*
X137818404Y-89826194D01*
X137867298Y-89839295D01*
X137896332Y-89880759D01*
X137897432Y-89914348D01*
X137892500Y-89939144D01*
X137892500Y-90061749D01*
X137891589Y-90073325D01*
X137879581Y-90149144D01*
X137879445Y-90150000D01*
X137886001Y-90191393D01*
X137891589Y-90226673D01*
X137892500Y-90238249D01*
X137892500Y-90360856D01*
X137907730Y-90437423D01*
X137965748Y-90524252D01*
X138052577Y-90582270D01*
X138129144Y-90597500D01*
X138129145Y-90597500D01*
X138413733Y-90597500D01*
X138461299Y-90614813D01*
X138486609Y-90658650D01*
X138477819Y-90708500D01*
X138466060Y-90723824D01*
X138288016Y-90901868D01*
X137791557Y-91398326D01*
X137745680Y-91419718D01*
X137705637Y-91411935D01*
X137691565Y-91404765D01*
X137651868Y-91384538D01*
X137525000Y-91364445D01*
X137398131Y-91384539D01*
X137398126Y-91384540D01*
X137283683Y-91442852D01*
X137192852Y-91533683D01*
X137134540Y-91648126D01*
X137134539Y-91648131D01*
X137114445Y-91775000D01*
X137134539Y-91901868D01*
X137134540Y-91901873D01*
X137192852Y-92016316D01*
X137283683Y-92107147D01*
X137398126Y-92165459D01*
X137398129Y-92165459D01*
X137398132Y-92165461D01*
X137525000Y-92185555D01*
X137590365Y-92175202D01*
X137640054Y-92184861D01*
X137671909Y-92224199D01*
X137671026Y-92274810D01*
X137654267Y-92300617D01*
X137541407Y-92413477D01*
X137495531Y-92434869D01*
X137446636Y-92421768D01*
X137436885Y-92412178D01*
X137436264Y-92412800D01*
X137341316Y-92317852D01*
X137226873Y-92259540D01*
X137226868Y-92259539D01*
X137100000Y-92239445D01*
X136973131Y-92259539D01*
X136973126Y-92259540D01*
X136858683Y-92317852D01*
X136767852Y-92408683D01*
X136709540Y-92523126D01*
X136709539Y-92523130D01*
X136698782Y-92591043D01*
X136674241Y-92635315D01*
X136626983Y-92653455D01*
X136597375Y-92647833D01*
X136480238Y-92599313D01*
X136480234Y-92599312D01*
X136397344Y-92588400D01*
X136367720Y-92584500D01*
X136292280Y-92584500D01*
X136266102Y-92587946D01*
X136179765Y-92599312D01*
X136179764Y-92599312D01*
X136039766Y-92657302D01*
X135919549Y-92749549D01*
X135827302Y-92869766D01*
X135769312Y-93009764D01*
X135769312Y-93009765D01*
X135758374Y-93092854D01*
X135754007Y-93126029D01*
X135750435Y-93153159D01*
X135727062Y-93198058D01*
X135680296Y-93217430D01*
X135677068Y-93217500D01*
X133985536Y-93217500D01*
X133937970Y-93200187D01*
X133933210Y-93195826D01*
X133622683Y-92885300D01*
X133615048Y-92878242D01*
X133605123Y-92869766D01*
X133603238Y-92868156D01*
X133603235Y-92868154D01*
X133603231Y-92868151D01*
X133558126Y-92842891D01*
X133499946Y-92823987D01*
X133499937Y-92823985D01*
X133499936Y-92823985D01*
X133479464Y-92820742D01*
X133458993Y-92817500D01*
X133458992Y-92817500D01*
X132182061Y-92817500D01*
X132134495Y-92800187D01*
X132109185Y-92756350D01*
X132109483Y-92729063D01*
X132111800Y-92717415D01*
X132111800Y-92482457D01*
X132107134Y-92459000D01*
X132101501Y-92430680D01*
X132074977Y-92390985D01*
X132062946Y-92341819D01*
X132074977Y-92308763D01*
X132101501Y-92269068D01*
X132111800Y-92217291D01*
X132111800Y-91982331D01*
X132101501Y-91930554D01*
X132062270Y-91871841D01*
X132003557Y-91832610D01*
X131951780Y-91822311D01*
X131951779Y-91822311D01*
X131735390Y-91822311D01*
X131687824Y-91804998D01*
X131669456Y-91781907D01*
X131651717Y-91747093D01*
X131632146Y-91708682D01*
X131541318Y-91617854D01*
X131541316Y-91617852D01*
X131426873Y-91559540D01*
X131426868Y-91559539D01*
X131300000Y-91539445D01*
X131173131Y-91559539D01*
X131173126Y-91559540D01*
X131058683Y-91617852D01*
X130967852Y-91708683D01*
X130909540Y-91823126D01*
X130909539Y-91823131D01*
X130889445Y-91950000D01*
X130909539Y-92076868D01*
X130909540Y-92076873D01*
X130967852Y-92191316D01*
X130971277Y-92196030D01*
X130970303Y-92196736D01*
X130989102Y-92237050D01*
X130976001Y-92285945D01*
X130934537Y-92314979D01*
X130915384Y-92317500D01*
X130008381Y-92317500D01*
X129964301Y-92302939D01*
X129950415Y-92292641D01*
X129937021Y-92282708D01*
X129937018Y-92282706D01*
X129937015Y-92282704D01*
X129937013Y-92282702D01*
X129886340Y-92255617D01*
X129886333Y-92255614D01*
X129886332Y-92255614D01*
X129869768Y-92249687D01*
X129830816Y-92217360D01*
X129820700Y-92180013D01*
X129820700Y-92002665D01*
X129822119Y-91988243D01*
X129822550Y-91986074D01*
X129828237Y-91968854D01*
X129835111Y-91954323D01*
X129836423Y-91950000D01*
X129851791Y-91899336D01*
X129851790Y-91899336D01*
X129851795Y-91899323D01*
X129857500Y-91860860D01*
X129857500Y-91076000D01*
X131019500Y-91076000D01*
X131021413Y-91100314D01*
X131021414Y-91100324D01*
X131026258Y-91130914D01*
X131026260Y-91130919D01*
X131042659Y-91170510D01*
X131046870Y-91184391D01*
X131054898Y-91224749D01*
X131075367Y-91255382D01*
X131083078Y-91266922D01*
X131104165Y-91281012D01*
X131125250Y-91295101D01*
X131125252Y-91295102D01*
X131160109Y-91302036D01*
X131168516Y-91304229D01*
X131210751Y-91317951D01*
X131225945Y-91322889D01*
X131225946Y-91322889D01*
X131225949Y-91322890D01*
X131259499Y-91328203D01*
X131273999Y-91330500D01*
X131274000Y-91330500D01*
X132718798Y-91330500D01*
X132718808Y-91330500D01*
X132731259Y-91330001D01*
X132747057Y-91328732D01*
X132805642Y-91312057D01*
X132860070Y-91284106D01*
X132899339Y-91255384D01*
X133498045Y-90652851D01*
X133573076Y-90577341D01*
X133618884Y-90555803D01*
X133625568Y-90555500D01*
X135181001Y-90555500D01*
X135183432Y-90555308D01*
X135205323Y-90553586D01*
X135235916Y-90548741D01*
X135273831Y-90533036D01*
X135294893Y-90527762D01*
X135297549Y-90527500D01*
X135297558Y-90527500D01*
X135334748Y-90520102D01*
X135376922Y-90491922D01*
X135405102Y-90449748D01*
X135412500Y-90412558D01*
X135412500Y-90408136D01*
X135416122Y-90385268D01*
X135416941Y-90382750D01*
X135427890Y-90349051D01*
X135435500Y-90301000D01*
X135435500Y-89699000D01*
X135433586Y-89674677D01*
X135428741Y-89644084D01*
X135420617Y-89624469D01*
X135418132Y-89618469D01*
X135412500Y-89590153D01*
X135412500Y-89587442D01*
X135405102Y-89550252D01*
X135376922Y-89508078D01*
X135367193Y-89501577D01*
X135334749Y-89479898D01*
X135297550Y-89472498D01*
X135297270Y-89472471D01*
X135294554Y-89471902D01*
X135293993Y-89471791D01*
X135293994Y-89471785D01*
X135281674Y-89469207D01*
X135229056Y-89452111D01*
X135229052Y-89452110D01*
X135229051Y-89452110D01*
X135201766Y-89447788D01*
X135181001Y-89444500D01*
X135181000Y-89444500D01*
X132689000Y-89444500D01*
X132688999Y-89444500D01*
X132664685Y-89446413D01*
X132664675Y-89446414D01*
X132634085Y-89451258D01*
X132634080Y-89451260D01*
X132596177Y-89466960D01*
X132575119Y-89472236D01*
X132572444Y-89472499D01*
X132535250Y-89479898D01*
X132493080Y-89508076D01*
X132493076Y-89508080D01*
X132464898Y-89550250D01*
X132457500Y-89587442D01*
X132457500Y-89591862D01*
X132453878Y-89614729D01*
X132442112Y-89650939D01*
X132442109Y-89650952D01*
X132434500Y-89698999D01*
X132434500Y-89914938D01*
X132417187Y-89962504D01*
X132412826Y-89967264D01*
X131842264Y-90537826D01*
X131796388Y-90559218D01*
X131789938Y-90559500D01*
X131273999Y-90559500D01*
X131249685Y-90561413D01*
X131249675Y-90561414D01*
X131219085Y-90566258D01*
X131219080Y-90566260D01*
X131152006Y-90594042D01*
X131152004Y-90594043D01*
X131102523Y-90629993D01*
X131102497Y-90630013D01*
X131090634Y-90639621D01*
X131089856Y-90640251D01*
X131059678Y-90686721D01*
X131046015Y-90707761D01*
X131046014Y-90707763D01*
X131027111Y-90765943D01*
X131019500Y-90813999D01*
X131019500Y-91076000D01*
X129857500Y-91076000D01*
X129857500Y-90799000D01*
X129855869Y-90778274D01*
X129851024Y-90747681D01*
X129828073Y-90692270D01*
X129827352Y-90690529D01*
X129827351Y-90690527D01*
X129827350Y-90690525D01*
X129826614Y-90689513D01*
X129826438Y-90688898D01*
X129825219Y-90686721D01*
X129825731Y-90686433D01*
X129812660Y-90640860D01*
X129824952Y-90604903D01*
X129845102Y-90574748D01*
X129852500Y-90537558D01*
X129852500Y-90162442D01*
X129845102Y-90125252D01*
X129816922Y-90083078D01*
X129816918Y-90083075D01*
X129811768Y-90077925D01*
X129814083Y-90075609D01*
X129792159Y-90045727D01*
X129795456Y-89995215D01*
X129813456Y-89973763D01*
X129811768Y-89972075D01*
X129816915Y-89966926D01*
X129816922Y-89966922D01*
X129845102Y-89924748D01*
X129852500Y-89887558D01*
X129852500Y-89512442D01*
X129845102Y-89475252D01*
X129844499Y-89474350D01*
X129816923Y-89433080D01*
X129816922Y-89433078D01*
X129808459Y-89427423D01*
X129774749Y-89404898D01*
X129740996Y-89398184D01*
X129737558Y-89397500D01*
X129062442Y-89397500D01*
X129059004Y-89398184D01*
X129025250Y-89404898D01*
X128983080Y-89433076D01*
X128983076Y-89433080D01*
X128954898Y-89475250D01*
X128947500Y-89512442D01*
X128947500Y-89887557D01*
X128954898Y-89924749D01*
X128968824Y-89945590D01*
X128983078Y-89966922D01*
X128983081Y-89966924D01*
X128988232Y-89972075D01*
X128985920Y-89974386D01*
X129007851Y-90004310D01*
X129004528Y-90054820D01*
X128986550Y-90076243D01*
X128988232Y-90077925D01*
X128983077Y-90083079D01*
X128968131Y-90105446D01*
X128954900Y-90125250D01*
X128954323Y-90126113D01*
X128913502Y-90156044D01*
X128892795Y-90159000D01*
X128795024Y-90159000D01*
X128776182Y-90155799D01*
X128771935Y-90155320D01*
X128771933Y-90155320D01*
X128743400Y-90158535D01*
X128735116Y-90159000D01*
X128728478Y-90159000D01*
X128722007Y-90160477D01*
X128713829Y-90161866D01*
X128708724Y-90162442D01*
X128685292Y-90165082D01*
X128681276Y-90166487D01*
X128668831Y-90171642D01*
X128664993Y-90173490D01*
X128642543Y-90191393D01*
X128635786Y-90196188D01*
X128630164Y-90199721D01*
X128630161Y-90199724D01*
X128625461Y-90204423D01*
X128619283Y-90209944D01*
X128596828Y-90227852D01*
X128594171Y-90231184D01*
X128583106Y-90246777D01*
X128402559Y-90427326D01*
X128356683Y-90448718D01*
X128350233Y-90449000D01*
X126915024Y-90449000D01*
X126896182Y-90445799D01*
X126891935Y-90445320D01*
X126891933Y-90445320D01*
X126863400Y-90448535D01*
X126855116Y-90449000D01*
X126848478Y-90449000D01*
X126842007Y-90450477D01*
X126833829Y-90451866D01*
X126825143Y-90452845D01*
X126805292Y-90455082D01*
X126801276Y-90456487D01*
X126788831Y-90461642D01*
X126784993Y-90463490D01*
X126762543Y-90481393D01*
X126755786Y-90486188D01*
X126750164Y-90489721D01*
X126750161Y-90489724D01*
X126745461Y-90494423D01*
X126739283Y-90499944D01*
X126716828Y-90517852D01*
X126714171Y-90521184D01*
X126703106Y-90536777D01*
X126623826Y-90616058D01*
X126577950Y-90637450D01*
X126529056Y-90624350D01*
X126500022Y-90582885D01*
X126497500Y-90563732D01*
X126497500Y-90044084D01*
X126514813Y-89996518D01*
X126558650Y-89971208D01*
X126583072Y-89970995D01*
X126675000Y-89985555D01*
X126801868Y-89965461D01*
X126801871Y-89965459D01*
X126801873Y-89965459D01*
X126916316Y-89907147D01*
X126916315Y-89907147D01*
X126916318Y-89907146D01*
X127007146Y-89816318D01*
X127020135Y-89790826D01*
X127065460Y-89701872D01*
X127065460Y-89701869D01*
X127065461Y-89701868D01*
X127085555Y-89575000D01*
X127065461Y-89448132D01*
X127065459Y-89448129D01*
X127065459Y-89448126D01*
X127007147Y-89333683D01*
X126916316Y-89242852D01*
X126801873Y-89184540D01*
X126801868Y-89184539D01*
X126675000Y-89164445D01*
X126575667Y-89180177D01*
X126525978Y-89170518D01*
X126494122Y-89131180D01*
X126491513Y-89092653D01*
X126497500Y-89062558D01*
X126497500Y-88337442D01*
X126490102Y-88300252D01*
X126461922Y-88258078D01*
X126449457Y-88249749D01*
X126419748Y-88229897D01*
X126410559Y-88228069D01*
X126367286Y-88201807D01*
X126351000Y-88155492D01*
X126351000Y-88100944D01*
X126368313Y-88053378D01*
X126391432Y-88036425D01*
X126391362Y-88036320D01*
X126393784Y-88034701D01*
X126396683Y-88032576D01*
X126397417Y-88032271D01*
X126397423Y-88032270D01*
X126484252Y-87974252D01*
X126525972Y-87911813D01*
X126566793Y-87881883D01*
X126617304Y-87885194D01*
X126649027Y-87911813D01*
X126690748Y-87974252D01*
X126777577Y-88032270D01*
X126854144Y-88047500D01*
X126854145Y-88047500D01*
X127175855Y-88047500D01*
X127175856Y-88047500D01*
X127252423Y-88032270D01*
X127339252Y-87974252D01*
X127397270Y-87887423D01*
X127412500Y-87810856D01*
X127412500Y-87389144D01*
X127397270Y-87312577D01*
X127339252Y-87225748D01*
X127252423Y-87167730D01*
X127175856Y-87152500D01*
X126868267Y-87152500D01*
X126820701Y-87135187D01*
X126815941Y-87130826D01*
X126637674Y-86952559D01*
X126616282Y-86906683D01*
X126616000Y-86900233D01*
X126616000Y-86713000D01*
X126633313Y-86665434D01*
X126677150Y-86640124D01*
X126690000Y-86639000D01*
X127115756Y-86639000D01*
X127115757Y-86639000D01*
X127152947Y-86631602D01*
X127195121Y-86603422D01*
X127223301Y-86561248D01*
X127227421Y-86540534D01*
X127253680Y-86497259D01*
X127301612Y-86480988D01*
X127348790Y-86499333D01*
X127372577Y-86540532D01*
X127376698Y-86561249D01*
X127398468Y-86593829D01*
X127404878Y-86603422D01*
X127411242Y-86607674D01*
X127447050Y-86631601D01*
X127447052Y-86631602D01*
X127484242Y-86639000D01*
X127484243Y-86639000D01*
X127915757Y-86639000D01*
X127915758Y-86639000D01*
X127952948Y-86631602D01*
X127995122Y-86603422D01*
X128023302Y-86561248D01*
X128030700Y-86524058D01*
X128030700Y-85686142D01*
X128023302Y-85648952D01*
X127995122Y-85606778D01*
X127978820Y-85595885D01*
X127952948Y-85578597D01*
X127950559Y-85578122D01*
X127947890Y-85576502D01*
X127946216Y-85575809D01*
X127946322Y-85575551D01*
X127907286Y-85551860D01*
X127891000Y-85505545D01*
X127891000Y-84709766D01*
X127908313Y-84662200D01*
X127912664Y-84657450D01*
X128102102Y-84468012D01*
X128147976Y-84446621D01*
X128165997Y-84447249D01*
X128250000Y-84460555D01*
X128376868Y-84440461D01*
X128376871Y-84440459D01*
X128376873Y-84440459D01*
X128491316Y-84382147D01*
X128491315Y-84382147D01*
X128491318Y-84382146D01*
X128582146Y-84291318D01*
X128611076Y-84234540D01*
X128640459Y-84176873D01*
X128640459Y-84176871D01*
X128640461Y-84176868D01*
X128660555Y-84050000D01*
X128640461Y-83923132D01*
X128640459Y-83923129D01*
X128640459Y-83923126D01*
X128582147Y-83808683D01*
X128491316Y-83717852D01*
X128376873Y-83659540D01*
X128376868Y-83659539D01*
X128250000Y-83639445D01*
X128123131Y-83659539D01*
X128123126Y-83659540D01*
X128008683Y-83717852D01*
X127917852Y-83808683D01*
X127859540Y-83923126D01*
X127859539Y-83923131D01*
X127839445Y-84050000D01*
X127852748Y-84133996D01*
X127843089Y-84183685D01*
X127831985Y-84197898D01*
X127651559Y-84378326D01*
X127605683Y-84399718D01*
X127599233Y-84400000D01*
X127329115Y-84400000D01*
X127281549Y-84382687D01*
X127276800Y-84378336D01*
X127191318Y-84292854D01*
X127191317Y-84292853D01*
X127191316Y-84292852D01*
X127076873Y-84234540D01*
X127076868Y-84234539D01*
X126950000Y-84214445D01*
X126823131Y-84234539D01*
X126723595Y-84285255D01*
X126673353Y-84291423D01*
X126630901Y-84263854D01*
X126616000Y-84219320D01*
X126616000Y-80871922D01*
X126619200Y-80853085D01*
X126619678Y-80848836D01*
X126619680Y-80848832D01*
X126616465Y-80820296D01*
X126616000Y-80812012D01*
X126616000Y-80805378D01*
X126616000Y-80805376D01*
X126614521Y-80798900D01*
X126613131Y-80790714D01*
X126609918Y-80762193D01*
X126609918Y-80762191D01*
X126609916Y-80762188D01*
X126608501Y-80758143D01*
X126603372Y-80745760D01*
X126601511Y-80741896D01*
X126601511Y-80741894D01*
X126583609Y-80719446D01*
X126578804Y-80712674D01*
X126575275Y-80707057D01*
X126570575Y-80702357D01*
X126565045Y-80696168D01*
X126547150Y-80673727D01*
X126543809Y-80671064D01*
X126528221Y-80660003D01*
X126355576Y-80487358D01*
X126334184Y-80441482D01*
X126333902Y-80435032D01*
X126333902Y-80189341D01*
X126332947Y-80184539D01*
X126326504Y-80152151D01*
X126298324Y-80109977D01*
X126289976Y-80104399D01*
X126256151Y-80081797D01*
X126243566Y-80079293D01*
X126235442Y-80077677D01*
X126192168Y-80051418D01*
X126175898Y-80003485D01*
X126194244Y-79956308D01*
X126235442Y-79932522D01*
X126256150Y-79928403D01*
X126298324Y-79900223D01*
X126326504Y-79858049D01*
X126333902Y-79820859D01*
X126333902Y-79389343D01*
X126326504Y-79352153D01*
X126298324Y-79309979D01*
X126298035Y-79309786D01*
X126256151Y-79281799D01*
X126242974Y-79279178D01*
X126199699Y-79252918D01*
X126183429Y-79204985D01*
X126201775Y-79157808D01*
X126246154Y-79133461D01*
X126257411Y-79132600D01*
X126341806Y-79132600D01*
X126375401Y-79140665D01*
X126473131Y-79190461D01*
X126490477Y-79193208D01*
X126600000Y-79210555D01*
X126726868Y-79190461D01*
X126726871Y-79190459D01*
X126726873Y-79190459D01*
X126841316Y-79132147D01*
X126841315Y-79132147D01*
X126841318Y-79132146D01*
X126932146Y-79041318D01*
X126979676Y-78948035D01*
X126990459Y-78926873D01*
X126990459Y-78926871D01*
X126990461Y-78926868D01*
X127010555Y-78800000D01*
X126990461Y-78673132D01*
X126990459Y-78673129D01*
X126990459Y-78673126D01*
X126932147Y-78558683D01*
X126841316Y-78467852D01*
X126726873Y-78409540D01*
X126726868Y-78409539D01*
X126600000Y-78389445D01*
X126473131Y-78409539D01*
X126473126Y-78409540D01*
X126355383Y-78469534D01*
X126321788Y-78477600D01*
X126242335Y-78477600D01*
X126227899Y-78476178D01*
X126218960Y-78474400D01*
X125381044Y-78474400D01*
X125374874Y-78475627D01*
X125343854Y-78481797D01*
X125335279Y-78487528D01*
X125294165Y-78500000D01*
X125015000Y-78500000D01*
X124967434Y-78482687D01*
X124942124Y-78438850D01*
X124941000Y-78426000D01*
X124941000Y-78095004D01*
X124944200Y-78076167D01*
X124944678Y-78071919D01*
X124944680Y-78071915D01*
X124941465Y-78043379D01*
X124941000Y-78035095D01*
X124941000Y-78028461D01*
X124941000Y-78028459D01*
X124939521Y-78021983D01*
X124938131Y-78013797D01*
X124934918Y-77985276D01*
X124934918Y-77985274D01*
X124934916Y-77985271D01*
X124933501Y-77981226D01*
X124928372Y-77968843D01*
X124926511Y-77964979D01*
X124926511Y-77964977D01*
X124908609Y-77942529D01*
X124903804Y-77935757D01*
X124900275Y-77930140D01*
X124895575Y-77925440D01*
X124890045Y-77919251D01*
X124872150Y-77896810D01*
X124868809Y-77894147D01*
X124853221Y-77883086D01*
X124353574Y-77383439D01*
X124332182Y-77337563D01*
X124331900Y-77331113D01*
X124331900Y-77015000D01*
X124349213Y-76967434D01*
X124393050Y-76942124D01*
X124405900Y-76941000D01*
X124407737Y-76941000D01*
X124455303Y-76958313D01*
X124480613Y-77002150D01*
X124480826Y-77003424D01*
X124484539Y-77026868D01*
X124484540Y-77026873D01*
X124542852Y-77141316D01*
X124633683Y-77232147D01*
X124748126Y-77290459D01*
X124748129Y-77290459D01*
X124748132Y-77290461D01*
X124875000Y-77310555D01*
X125001868Y-77290461D01*
X125001871Y-77290459D01*
X125001873Y-77290459D01*
X125116316Y-77232147D01*
X125116315Y-77232147D01*
X125116318Y-77232146D01*
X125207146Y-77141318D01*
X125224557Y-77107147D01*
X125265459Y-77026873D01*
X125265459Y-77026871D01*
X125265461Y-77026868D01*
X125285555Y-76900000D01*
X125265461Y-76773132D01*
X125265459Y-76773129D01*
X125265459Y-76773126D01*
X125207147Y-76658683D01*
X125116318Y-76567854D01*
X125074734Y-76546666D01*
X125040212Y-76509645D01*
X125037562Y-76459096D01*
X125042390Y-76447146D01*
X125065461Y-76401868D01*
X125085555Y-76275000D01*
X125065461Y-76148132D01*
X125065459Y-76148129D01*
X125065459Y-76148126D01*
X125007147Y-76033683D01*
X124992290Y-76018826D01*
X124970898Y-75972950D01*
X124983999Y-75924055D01*
X125025463Y-75895021D01*
X125044616Y-75892500D01*
X138945945Y-75892500D01*
X138993511Y-75909813D01*
G37*
G04 #@! TD.AperFunction*
G04 #@! TA.AperFunction,Conductor*
G36*
X124163910Y-89704813D02*
G01*
X124189220Y-89748650D01*
X124189433Y-89749924D01*
X124209539Y-89876868D01*
X124209540Y-89876873D01*
X124267852Y-89991316D01*
X124358683Y-90082147D01*
X124473126Y-90140459D01*
X124473129Y-90140459D01*
X124473132Y-90140461D01*
X124600000Y-90160555D01*
X124726868Y-90140461D01*
X124726871Y-90140459D01*
X124726873Y-90140459D01*
X124841316Y-90082147D01*
X124841315Y-90082147D01*
X124841318Y-90082146D01*
X124932146Y-89991318D01*
X124988149Y-89881404D01*
X125025170Y-89846883D01*
X125054084Y-89841000D01*
X125328500Y-89841000D01*
X125376066Y-89858313D01*
X125401376Y-89902150D01*
X125402500Y-89915000D01*
X125402500Y-90562558D01*
X125403483Y-90567500D01*
X125409898Y-90599749D01*
X125436653Y-90639790D01*
X125438078Y-90641922D01*
X125438463Y-90642179D01*
X125480250Y-90670101D01*
X125480252Y-90670102D01*
X125517442Y-90677500D01*
X125517443Y-90677500D01*
X125882557Y-90677500D01*
X125882558Y-90677500D01*
X125919748Y-90670102D01*
X125919749Y-90670100D01*
X125921679Y-90669302D01*
X125924358Y-90669184D01*
X125926897Y-90668680D01*
X125926974Y-90669070D01*
X125972249Y-90667092D01*
X125978321Y-90669302D01*
X125980252Y-90670102D01*
X126017442Y-90677500D01*
X126017443Y-90677500D01*
X126383732Y-90677500D01*
X126431298Y-90694813D01*
X126456608Y-90738650D01*
X126447818Y-90788500D01*
X126436058Y-90803826D01*
X126409058Y-90830826D01*
X126363182Y-90852218D01*
X126356732Y-90852500D01*
X126049144Y-90852500D01*
X126010860Y-90860115D01*
X125972576Y-90867730D01*
X125885749Y-90925747D01*
X125885747Y-90925749D01*
X125827730Y-91012576D01*
X125827730Y-91012577D01*
X125812500Y-91089144D01*
X125812500Y-91510856D01*
X125827730Y-91587423D01*
X125885748Y-91674252D01*
X125933669Y-91706272D01*
X125963600Y-91747093D01*
X125960289Y-91797604D01*
X125933668Y-91829329D01*
X125847143Y-91887142D01*
X125847142Y-91887143D01*
X125788019Y-91975627D01*
X125775635Y-92037889D01*
X125772500Y-92053652D01*
X125772500Y-92446348D01*
X125786045Y-92514445D01*
X125789442Y-92531522D01*
X125788189Y-92531771D01*
X125790053Y-92574533D01*
X125759235Y-92614689D01*
X125731057Y-92625364D01*
X125673130Y-92634539D01*
X125673126Y-92634540D01*
X125558683Y-92692852D01*
X125467852Y-92783683D01*
X125409540Y-92898126D01*
X125409539Y-92898130D01*
X125406008Y-92920425D01*
X125381467Y-92964697D01*
X125334210Y-92982837D01*
X125286349Y-92966356D01*
X125260278Y-92922967D01*
X125259830Y-92920424D01*
X125240461Y-92798132D01*
X125240459Y-92798129D01*
X125240459Y-92798126D01*
X125182147Y-92683683D01*
X125091316Y-92592852D01*
X124976873Y-92534540D01*
X124976868Y-92534539D01*
X124850000Y-92514445D01*
X124723131Y-92534539D01*
X124673595Y-92559779D01*
X124623353Y-92565947D01*
X124580901Y-92538378D01*
X124566000Y-92493844D01*
X124566000Y-92395024D01*
X124569200Y-92376186D01*
X124569678Y-92371939D01*
X124569680Y-92371935D01*
X124566465Y-92343396D01*
X124566000Y-92335113D01*
X124566000Y-92328482D01*
X124566000Y-92328479D01*
X124564520Y-92321997D01*
X124563135Y-92313841D01*
X124559919Y-92285294D01*
X124559917Y-92285291D01*
X124558497Y-92281234D01*
X124553384Y-92268887D01*
X124551510Y-92264995D01*
X124533610Y-92242550D01*
X124528807Y-92235781D01*
X124525275Y-92230160D01*
X124520575Y-92225460D01*
X124515045Y-92219271D01*
X124497150Y-92196830D01*
X124493809Y-92194167D01*
X124478221Y-92183106D01*
X124341894Y-92046779D01*
X124330844Y-92031206D01*
X124328168Y-92027849D01*
X124305722Y-92009949D01*
X124299535Y-92004420D01*
X124294839Y-91999724D01*
X124289216Y-91996191D01*
X124282451Y-91991390D01*
X124260002Y-91973488D01*
X124256162Y-91971638D01*
X124243742Y-91966494D01*
X124239707Y-91965082D01*
X124211172Y-91961867D01*
X124203001Y-91960479D01*
X124196521Y-91959000D01*
X124196518Y-91959000D01*
X124189884Y-91959000D01*
X124181600Y-91958535D01*
X124153066Y-91955320D01*
X124153065Y-91955320D01*
X124153064Y-91955320D01*
X124148817Y-91955799D01*
X124129976Y-91959000D01*
X123509767Y-91959000D01*
X123462201Y-91941687D01*
X123457441Y-91937326D01*
X123334174Y-91814059D01*
X123312782Y-91768183D01*
X123312500Y-91761733D01*
X123312500Y-91087442D01*
X123310224Y-91076000D01*
X123305102Y-91050252D01*
X123297499Y-91038874D01*
X123282428Y-91016318D01*
X123276922Y-91008078D01*
X123268908Y-91002723D01*
X123234749Y-90979898D01*
X123209065Y-90974789D01*
X123197558Y-90972500D01*
X122472442Y-90972500D01*
X122465062Y-90973968D01*
X122460934Y-90974789D01*
X122410904Y-90967086D01*
X122377530Y-90929028D01*
X122372500Y-90902210D01*
X122372500Y-90703707D01*
X122389813Y-90656141D01*
X122433650Y-90630831D01*
X122483500Y-90639621D01*
X122487590Y-90642165D01*
X122562577Y-90692270D01*
X122639144Y-90707500D01*
X122639145Y-90707500D01*
X123060855Y-90707500D01*
X123060856Y-90707500D01*
X123137423Y-90692270D01*
X123224252Y-90634252D01*
X123282270Y-90547423D01*
X123297500Y-90470856D01*
X123297500Y-90163266D01*
X123314813Y-90115700D01*
X123319174Y-90110940D01*
X123720941Y-89709174D01*
X123766818Y-89687782D01*
X123773267Y-89687500D01*
X124116344Y-89687500D01*
X124163910Y-89704813D01*
G37*
G04 #@! TD.AperFunction*
G04 #@! TA.AperFunction,Conductor*
G36*
X123198666Y-81069812D02*
G01*
X123223976Y-81113649D01*
X123225100Y-81126499D01*
X123225100Y-81164058D01*
X123227368Y-81175460D01*
X123232498Y-81201249D01*
X123260485Y-81243133D01*
X123260678Y-81243422D01*
X123281765Y-81257512D01*
X123302850Y-81271601D01*
X123302852Y-81271602D01*
X123340042Y-81279000D01*
X123340043Y-81279000D01*
X123561427Y-81279000D01*
X123608993Y-81296313D01*
X123634303Y-81340150D01*
X123625513Y-81390000D01*
X123602540Y-81414528D01*
X123585749Y-81425747D01*
X123585747Y-81425749D01*
X123527730Y-81512576D01*
X123516759Y-81567730D01*
X123512500Y-81589144D01*
X123512500Y-82010856D01*
X123527730Y-82087423D01*
X123585748Y-82174252D01*
X123633669Y-82206272D01*
X123663600Y-82247093D01*
X123660289Y-82297604D01*
X123633668Y-82329329D01*
X123547143Y-82387142D01*
X123547142Y-82387143D01*
X123488019Y-82475627D01*
X123472500Y-82553652D01*
X123472500Y-82693317D01*
X123471589Y-82704893D01*
X123465463Y-82743575D01*
X123464445Y-82750000D01*
X123470397Y-82787577D01*
X123471589Y-82795105D01*
X123472500Y-82806681D01*
X123472500Y-82946347D01*
X123488019Y-83024372D01*
X123547142Y-83112856D01*
X123547143Y-83112857D01*
X123622892Y-83163471D01*
X123652824Y-83204293D01*
X123649513Y-83254803D01*
X123622892Y-83286529D01*
X123547143Y-83337142D01*
X123547142Y-83337143D01*
X123488019Y-83425627D01*
X123472500Y-83503652D01*
X123472500Y-83896347D01*
X123488019Y-83974372D01*
X123495365Y-83985365D01*
X123547143Y-84062857D01*
X123633669Y-84120672D01*
X123663599Y-84161491D01*
X123660289Y-84212002D01*
X123633670Y-84243727D01*
X123585748Y-84275748D01*
X123585747Y-84275749D01*
X123527730Y-84362576D01*
X123514942Y-84426868D01*
X123512500Y-84439144D01*
X123512500Y-84860856D01*
X123527730Y-84937423D01*
X123585748Y-85024252D01*
X123672577Y-85082270D01*
X123749144Y-85097500D01*
X123749145Y-85097500D01*
X124070855Y-85097500D01*
X124070856Y-85097500D01*
X124147423Y-85082270D01*
X124234252Y-85024252D01*
X124292270Y-84937423D01*
X124307500Y-84860856D01*
X124307500Y-84810257D01*
X124314149Y-84782563D01*
X124313662Y-84782405D01*
X124315461Y-84776869D01*
X124321966Y-84735799D01*
X124335555Y-84650000D01*
X124315461Y-84523132D01*
X124315460Y-84523130D01*
X124315460Y-84523128D01*
X124313662Y-84517593D01*
X124314147Y-84517435D01*
X124307500Y-84489741D01*
X124307500Y-84439144D01*
X124301178Y-84407362D01*
X124292270Y-84362577D01*
X124234252Y-84275748D01*
X124171297Y-84233682D01*
X124156331Y-84223682D01*
X124126400Y-84182861D01*
X124129711Y-84132350D01*
X124156330Y-84100626D01*
X124212857Y-84062857D01*
X124271980Y-83974373D01*
X124276716Y-83950562D01*
X124302976Y-83907288D01*
X124349294Y-83891000D01*
X124535904Y-83891000D01*
X124583470Y-83908313D01*
X124608780Y-83952150D01*
X124608993Y-83976576D01*
X124591879Y-84084633D01*
X124589445Y-84100000D01*
X124607184Y-84212002D01*
X124609539Y-84226868D01*
X124609540Y-84226873D01*
X124667852Y-84341316D01*
X124667854Y-84341318D01*
X124758682Y-84432146D01*
X124768592Y-84437195D01*
X124803116Y-84474214D01*
X124809000Y-84503131D01*
X124809000Y-85565233D01*
X124791687Y-85612799D01*
X124787326Y-85617559D01*
X124467559Y-85937326D01*
X124421683Y-85958718D01*
X124415233Y-85959000D01*
X123559747Y-85959000D01*
X123512181Y-85941687D01*
X123507421Y-85937326D01*
X123403574Y-85833479D01*
X123382182Y-85787603D01*
X123381900Y-85781153D01*
X123381900Y-85383062D01*
X123380503Y-85376039D01*
X123374502Y-85345872D01*
X123368703Y-85337194D01*
X123355065Y-85316783D01*
X123346322Y-85303698D01*
X123341388Y-85300401D01*
X123304149Y-85275518D01*
X123285553Y-85271819D01*
X123266958Y-85268120D01*
X122683042Y-85268120D01*
X122674672Y-85269785D01*
X122645850Y-85275518D01*
X122603680Y-85303696D01*
X122603676Y-85303700D01*
X122575498Y-85345870D01*
X122568100Y-85383062D01*
X122568100Y-85966977D01*
X122575498Y-86004169D01*
X122587527Y-86022171D01*
X122603678Y-86046342D01*
X122624765Y-86060432D01*
X122645850Y-86074521D01*
X122645852Y-86074522D01*
X122658729Y-86077083D01*
X122660430Y-86077422D01*
X122703705Y-86103682D01*
X122719975Y-86151615D01*
X122701629Y-86198792D01*
X122660430Y-86222578D01*
X122645850Y-86225478D01*
X122603680Y-86253656D01*
X122603676Y-86253660D01*
X122575498Y-86295830D01*
X122568100Y-86333022D01*
X122568100Y-86463563D01*
X122561146Y-86492528D01*
X122561339Y-86492591D01*
X122560542Y-86495041D01*
X122560035Y-86497157D01*
X122559539Y-86498128D01*
X122559539Y-86498131D01*
X122539445Y-86625000D01*
X122559538Y-86751866D01*
X122560033Y-86752837D01*
X122560540Y-86754951D01*
X122561338Y-86757405D01*
X122561144Y-86757467D01*
X122568100Y-86786435D01*
X122568100Y-86916937D01*
X122575498Y-86954129D01*
X122598172Y-86988062D01*
X122603678Y-86996302D01*
X122619557Y-87006912D01*
X122645850Y-87024481D01*
X122645852Y-87024482D01*
X122683042Y-87031880D01*
X122920973Y-87031880D01*
X122932548Y-87032790D01*
X122950000Y-87035555D01*
X122967451Y-87032790D01*
X122979027Y-87031880D01*
X123266957Y-87031880D01*
X123266958Y-87031880D01*
X123304148Y-87024482D01*
X123346322Y-86996302D01*
X123374502Y-86954128D01*
X123377422Y-86939448D01*
X123403682Y-86896174D01*
X123451614Y-86879903D01*
X123498791Y-86898249D01*
X123522578Y-86939449D01*
X123525497Y-86954128D01*
X123548172Y-86988062D01*
X123553678Y-86996302D01*
X123569557Y-87006912D01*
X123595850Y-87024481D01*
X123595852Y-87024482D01*
X123633042Y-87031880D01*
X123633043Y-87031880D01*
X124216957Y-87031880D01*
X124216958Y-87031880D01*
X124254148Y-87024482D01*
X124296322Y-86996302D01*
X124324502Y-86954128D01*
X124331900Y-86916938D01*
X124331900Y-86415000D01*
X124349213Y-86367434D01*
X124393050Y-86342124D01*
X124405900Y-86341000D01*
X124479976Y-86341000D01*
X124498817Y-86344200D01*
X124503060Y-86344678D01*
X124503065Y-86344680D01*
X124528381Y-86341827D01*
X124531600Y-86341465D01*
X124539884Y-86341000D01*
X124546520Y-86341000D01*
X124546521Y-86341000D01*
X124552994Y-86339521D01*
X124561170Y-86338132D01*
X124589706Y-86334918D01*
X124589710Y-86334914D01*
X124593771Y-86333494D01*
X124606133Y-86328374D01*
X124610000Y-86326511D01*
X124610003Y-86326511D01*
X124632452Y-86308607D01*
X124639215Y-86303808D01*
X124644840Y-86300275D01*
X124649541Y-86295573D01*
X124655717Y-86290053D01*
X124678170Y-86272149D01*
X124678173Y-86272142D01*
X124680843Y-86268796D01*
X124691892Y-86253221D01*
X125103221Y-85841892D01*
X125118796Y-85830843D01*
X125122142Y-85828173D01*
X125122149Y-85828170D01*
X125140053Y-85805717D01*
X125145573Y-85799541D01*
X125150275Y-85794840D01*
X125153808Y-85789215D01*
X125158607Y-85782452D01*
X125176511Y-85760003D01*
X125176511Y-85760000D01*
X125178374Y-85756133D01*
X125183494Y-85743771D01*
X125184914Y-85739710D01*
X125184918Y-85739706D01*
X125188132Y-85711170D01*
X125189521Y-85702994D01*
X125191000Y-85696521D01*
X125191000Y-85689883D01*
X125191465Y-85681598D01*
X125192809Y-85669667D01*
X125194680Y-85653065D01*
X125194678Y-85653060D01*
X125194200Y-85648817D01*
X125191000Y-85629976D01*
X125191000Y-84764710D01*
X125208313Y-84717144D01*
X125252150Y-84691834D01*
X125302000Y-84700624D01*
X125306098Y-84703173D01*
X125324880Y-84715723D01*
X125343852Y-84728400D01*
X125343854Y-84728401D01*
X125381044Y-84735799D01*
X125381045Y-84735799D01*
X126160000Y-84735799D01*
X126207566Y-84753112D01*
X126232876Y-84796949D01*
X126234000Y-84809799D01*
X126234000Y-86964974D01*
X126230796Y-86983828D01*
X126230319Y-86988062D01*
X126233535Y-87016598D01*
X126234000Y-87024883D01*
X126234000Y-87031521D01*
X126235478Y-87037995D01*
X126236867Y-87046172D01*
X126239576Y-87070214D01*
X126227698Y-87119420D01*
X126186970Y-87149479D01*
X126166041Y-87152500D01*
X125999144Y-87152500D01*
X125960860Y-87160115D01*
X125922576Y-87167730D01*
X125835749Y-87225747D01*
X125835747Y-87225749D01*
X125777730Y-87312576D01*
X125765938Y-87371860D01*
X125762500Y-87389144D01*
X125762500Y-87810856D01*
X125777730Y-87887423D01*
X125835748Y-87974252D01*
X125922577Y-88032270D01*
X125922580Y-88032270D01*
X125923317Y-88032576D01*
X125924076Y-88033272D01*
X125928638Y-88036320D01*
X125928169Y-88037021D01*
X125960638Y-88066773D01*
X125969000Y-88100944D01*
X125969000Y-88149525D01*
X125951687Y-88197091D01*
X125907850Y-88222401D01*
X125886241Y-88222167D01*
X125886174Y-88222856D01*
X125882561Y-88222500D01*
X125882558Y-88222500D01*
X125517442Y-88222500D01*
X125510045Y-88223971D01*
X125480253Y-88229897D01*
X125478319Y-88230699D01*
X125475637Y-88230816D01*
X125473104Y-88231320D01*
X125473026Y-88230930D01*
X125427748Y-88232907D01*
X125421681Y-88230699D01*
X125419749Y-88229899D01*
X125419748Y-88229898D01*
X125404866Y-88226937D01*
X125390562Y-88224092D01*
X125347287Y-88197831D01*
X125331000Y-88151514D01*
X125331000Y-88100944D01*
X125348313Y-88053378D01*
X125371432Y-88036425D01*
X125371362Y-88036320D01*
X125373784Y-88034701D01*
X125376683Y-88032576D01*
X125377417Y-88032271D01*
X125377423Y-88032270D01*
X125464252Y-87974252D01*
X125522270Y-87887423D01*
X125537500Y-87810856D01*
X125537500Y-87389144D01*
X125522270Y-87312577D01*
X125464252Y-87225748D01*
X125377423Y-87167730D01*
X125300856Y-87152500D01*
X124979144Y-87152500D01*
X124940860Y-87160115D01*
X124902576Y-87167730D01*
X124815749Y-87225747D01*
X124815747Y-87225749D01*
X124757730Y-87312576D01*
X124745938Y-87371860D01*
X124742500Y-87389144D01*
X124742500Y-87810856D01*
X124757730Y-87887423D01*
X124815748Y-87974252D01*
X124902577Y-88032270D01*
X124902580Y-88032270D01*
X124903317Y-88032576D01*
X124904076Y-88033272D01*
X124908638Y-88036320D01*
X124908169Y-88037021D01*
X124940638Y-88066773D01*
X124949000Y-88100944D01*
X124949000Y-88219283D01*
X124936529Y-88260395D01*
X124909898Y-88300251D01*
X124902500Y-88337442D01*
X124902500Y-88878733D01*
X124885187Y-88926299D01*
X124841350Y-88951609D01*
X124791500Y-88942819D01*
X124776174Y-88931059D01*
X124279135Y-88434020D01*
X124257743Y-88388144D01*
X124270844Y-88339249D01*
X124279138Y-88329366D01*
X124284248Y-88324255D01*
X124284248Y-88324254D01*
X124284252Y-88324252D01*
X124342270Y-88237423D01*
X124357500Y-88160856D01*
X124357500Y-87739144D01*
X124342270Y-87662577D01*
X124284252Y-87575748D01*
X124197423Y-87517730D01*
X124120856Y-87502500D01*
X123799144Y-87502500D01*
X123760860Y-87510115D01*
X123722576Y-87517730D01*
X123635749Y-87575747D01*
X123635747Y-87575749D01*
X123574699Y-87667113D01*
X123533878Y-87697044D01*
X123513171Y-87700000D01*
X123386829Y-87700000D01*
X123339263Y-87682687D01*
X123325301Y-87667113D01*
X123304214Y-87635555D01*
X123264252Y-87575748D01*
X123177423Y-87517730D01*
X123100856Y-87502500D01*
X122779144Y-87502500D01*
X122740860Y-87510115D01*
X122702576Y-87517730D01*
X122615749Y-87575747D01*
X122615747Y-87575749D01*
X122554699Y-87667113D01*
X122513878Y-87697044D01*
X122493171Y-87700000D01*
X122446500Y-87700000D01*
X122398934Y-87682687D01*
X122373624Y-87638850D01*
X122372500Y-87626000D01*
X122372500Y-81345599D01*
X122389813Y-81298033D01*
X122433650Y-81272723D01*
X122446500Y-81271599D01*
X122854358Y-81271599D01*
X122854359Y-81271599D01*
X122891549Y-81264201D01*
X122933723Y-81236021D01*
X122961903Y-81193847D01*
X122969301Y-81156657D01*
X122969301Y-81126499D01*
X122986614Y-81078933D01*
X123030451Y-81053623D01*
X123043301Y-81052499D01*
X123151100Y-81052499D01*
X123198666Y-81069812D01*
G37*
G04 #@! TD.AperFunction*
G04 #@! TA.AperFunction,Conductor*
G36*
X137034543Y-85300401D02*
G01*
X137063577Y-85341865D01*
X137066098Y-85361018D01*
X137066098Y-85420858D01*
X137067792Y-85429373D01*
X137073496Y-85458049D01*
X137097096Y-85493368D01*
X137101676Y-85500222D01*
X137122763Y-85514312D01*
X137143848Y-85528401D01*
X137143850Y-85528402D01*
X137181040Y-85535800D01*
X137181041Y-85535800D01*
X138018955Y-85535800D01*
X138018956Y-85535800D01*
X138056146Y-85528402D01*
X138062488Y-85524163D01*
X138068887Y-85519889D01*
X138118055Y-85507857D01*
X138163454Y-85530244D01*
X138183841Y-85576576D01*
X138184000Y-85581417D01*
X138184000Y-86880724D01*
X138180796Y-86899578D01*
X138180319Y-86903812D01*
X138183535Y-86932348D01*
X138184000Y-86940633D01*
X138184000Y-86947271D01*
X138185207Y-86952559D01*
X138185478Y-86953745D01*
X138186867Y-86961922D01*
X138190082Y-86990457D01*
X138191494Y-86994492D01*
X138196638Y-87006912D01*
X138198488Y-87010752D01*
X138216390Y-87033201D01*
X138221191Y-87039966D01*
X138224724Y-87045589D01*
X138229420Y-87050285D01*
X138234949Y-87056472D01*
X138251214Y-87076868D01*
X138252851Y-87078920D01*
X138252852Y-87078920D01*
X138256206Y-87081594D01*
X138271779Y-87092644D01*
X138295309Y-87116174D01*
X138316701Y-87162050D01*
X138303600Y-87210945D01*
X138262136Y-87239979D01*
X138242983Y-87242500D01*
X138053267Y-87242500D01*
X138005701Y-87225187D01*
X138000941Y-87220826D01*
X137501894Y-86721779D01*
X137490844Y-86706206D01*
X137488168Y-86702849D01*
X137465722Y-86684949D01*
X137459535Y-86679420D01*
X137454839Y-86674724D01*
X137449216Y-86671191D01*
X137442451Y-86666390D01*
X137420002Y-86648488D01*
X137416162Y-86646638D01*
X137403742Y-86641494D01*
X137399707Y-86640082D01*
X137371172Y-86636867D01*
X137363001Y-86635479D01*
X137356521Y-86634000D01*
X137356518Y-86634000D01*
X137349884Y-86634000D01*
X137341600Y-86633535D01*
X137313066Y-86630320D01*
X137313065Y-86630320D01*
X137313064Y-86630320D01*
X137308817Y-86630799D01*
X137289976Y-86634000D01*
X136898998Y-86634000D01*
X136851432Y-86616687D01*
X136826122Y-86572850D01*
X136826420Y-86545563D01*
X136830698Y-86524057D01*
X136830698Y-85686142D01*
X136829794Y-85681598D01*
X136823300Y-85648952D01*
X136795120Y-85606778D01*
X136757165Y-85581417D01*
X136752948Y-85578599D01*
X136750901Y-85577751D01*
X136748804Y-85575829D01*
X136746886Y-85574548D01*
X136747083Y-85574252D01*
X136713580Y-85543554D01*
X136706972Y-85493368D01*
X136734168Y-85450676D01*
X136747076Y-85443885D01*
X136746679Y-85443106D01*
X136866316Y-85382147D01*
X136866315Y-85382147D01*
X136866318Y-85382146D01*
X136939772Y-85308692D01*
X136985648Y-85287300D01*
X137034543Y-85300401D01*
G37*
G04 #@! TD.AperFunction*
G04 #@! TA.AperFunction,Conductor*
G36*
X140408568Y-84727500D02*
G01*
X140645500Y-84727500D01*
X140693066Y-84744813D01*
X140718376Y-84788650D01*
X140719500Y-84801500D01*
X140719500Y-86144080D01*
X140702187Y-86191646D01*
X140658350Y-86216956D01*
X140645500Y-86218080D01*
X140083042Y-86218080D01*
X140070645Y-86220546D01*
X140045850Y-86225478D01*
X140003680Y-86253656D01*
X140003679Y-86253657D01*
X140003678Y-86253658D01*
X139994686Y-86267115D01*
X139953867Y-86297044D01*
X139933160Y-86300000D01*
X139874000Y-86300000D01*
X139826434Y-86282687D01*
X139801124Y-86238850D01*
X139800000Y-86226000D01*
X139800000Y-86063285D01*
X139812471Y-86022172D01*
X139824502Y-86004168D01*
X139831900Y-85966978D01*
X139831900Y-85383062D01*
X139831900Y-85382452D01*
X139849213Y-85334886D01*
X139893050Y-85309576D01*
X139917474Y-85309363D01*
X139925000Y-85310555D01*
X140051868Y-85290461D01*
X140051871Y-85290459D01*
X140051873Y-85290459D01*
X140166316Y-85232147D01*
X140166315Y-85232147D01*
X140166318Y-85232146D01*
X140257146Y-85141318D01*
X140264509Y-85126868D01*
X140315459Y-85026873D01*
X140315459Y-85026871D01*
X140315461Y-85026868D01*
X140335555Y-84900000D01*
X140321611Y-84811962D01*
X140331270Y-84762274D01*
X140370608Y-84730419D01*
X140403227Y-84726880D01*
X140408568Y-84727500D01*
G37*
G04 #@! TD.AperFunction*
G04 #@! TA.AperFunction,Conductor*
G36*
X139117145Y-80842799D02*
G01*
X139146179Y-80884263D01*
X139148700Y-80903416D01*
X139148700Y-81164058D01*
X139150968Y-81175460D01*
X139156098Y-81201249D01*
X139184085Y-81243133D01*
X139184278Y-81243422D01*
X139205365Y-81257512D01*
X139226450Y-81271601D01*
X139226452Y-81271602D01*
X139263642Y-81279000D01*
X139263643Y-81279000D01*
X139999955Y-81279000D01*
X139999958Y-81279000D01*
X140011563Y-81276691D01*
X140061591Y-81284390D01*
X140094968Y-81322446D01*
X140100000Y-81349269D01*
X140100000Y-81581971D01*
X140087528Y-81623084D01*
X140027730Y-81712576D01*
X140012500Y-81789144D01*
X140012500Y-81852299D01*
X140010119Y-81867328D01*
X140010450Y-81867381D01*
X140009539Y-81873131D01*
X140009539Y-81873132D01*
X139998941Y-81940047D01*
X139989445Y-82000000D01*
X140010450Y-82132621D01*
X140010118Y-82132673D01*
X140012500Y-82147701D01*
X140012500Y-82210855D01*
X140025566Y-82276547D01*
X140017865Y-82326577D01*
X139979808Y-82359952D01*
X139944703Y-82364518D01*
X139921173Y-82361867D01*
X139913001Y-82360479D01*
X139906521Y-82359000D01*
X139906518Y-82359000D01*
X139899884Y-82359000D01*
X139891600Y-82358535D01*
X139863066Y-82355320D01*
X139863065Y-82355320D01*
X139863064Y-82355320D01*
X139858817Y-82355799D01*
X139839976Y-82359000D01*
X139134767Y-82359000D01*
X139087201Y-82341687D01*
X139082441Y-82337326D01*
X138937674Y-82192559D01*
X138916282Y-82146683D01*
X138916000Y-82140233D01*
X138916000Y-81345024D01*
X138919200Y-81326187D01*
X138919678Y-81321939D01*
X138919680Y-81321935D01*
X138916465Y-81293399D01*
X138916000Y-81285115D01*
X138916000Y-81278481D01*
X138916000Y-81278479D01*
X138914521Y-81272003D01*
X138913131Y-81263817D01*
X138910834Y-81243423D01*
X138909918Y-81235294D01*
X138909916Y-81235291D01*
X138908501Y-81231246D01*
X138903372Y-81218863D01*
X138901511Y-81214999D01*
X138901511Y-81214997D01*
X138883609Y-81192549D01*
X138878804Y-81185777D01*
X138875275Y-81180160D01*
X138870575Y-81175460D01*
X138865045Y-81169271D01*
X138847150Y-81146830D01*
X138843809Y-81144167D01*
X138828221Y-81133106D01*
X138789426Y-81094311D01*
X138768034Y-81048435D01*
X138781135Y-80999540D01*
X138822599Y-80970506D01*
X138830171Y-80968897D01*
X138851868Y-80965461D01*
X138851869Y-80965460D01*
X138851873Y-80965459D01*
X138966316Y-80907147D01*
X138966315Y-80907147D01*
X138966318Y-80907146D01*
X139022374Y-80851090D01*
X139068250Y-80829698D01*
X139117145Y-80842799D01*
G37*
G04 #@! TD.AperFunction*
G04 #@! TA.AperFunction,Conductor*
G36*
X140947066Y-75909813D02*
G01*
X140972376Y-75953650D01*
X140973500Y-75966500D01*
X140973500Y-80104399D01*
X140956187Y-80151965D01*
X140912350Y-80177275D01*
X140899500Y-80178399D01*
X140485641Y-80178399D01*
X140473244Y-80180865D01*
X140448449Y-80185797D01*
X140406279Y-80213975D01*
X140406275Y-80213979D01*
X140378097Y-80256149D01*
X140370699Y-80293341D01*
X140370699Y-80318500D01*
X140353386Y-80366066D01*
X140309549Y-80391376D01*
X140296699Y-80392500D01*
X140188900Y-80392500D01*
X140141334Y-80375187D01*
X140116024Y-80331350D01*
X140114900Y-80318500D01*
X140114900Y-79995942D01*
X140107502Y-79958752D01*
X140079322Y-79916578D01*
X140054847Y-79900224D01*
X140037149Y-79888398D01*
X140018553Y-79884699D01*
X139999958Y-79881000D01*
X139263642Y-79881000D01*
X139251245Y-79883466D01*
X139226450Y-79888398D01*
X139184280Y-79916576D01*
X139184276Y-79916580D01*
X139156098Y-79958750D01*
X139148700Y-79995942D01*
X139148700Y-80246584D01*
X139131387Y-80294150D01*
X139087550Y-80319460D01*
X139037700Y-80310670D01*
X139022374Y-80298910D01*
X138966316Y-80242852D01*
X138851873Y-80184540D01*
X138851868Y-80184539D01*
X138725000Y-80164445D01*
X138598131Y-80184539D01*
X138598126Y-80184540D01*
X138483683Y-80242852D01*
X138392852Y-80333683D01*
X138334540Y-80448126D01*
X138334539Y-80448130D01*
X138331103Y-80469824D01*
X138306561Y-80514096D01*
X138259304Y-80532236D01*
X138211443Y-80515755D01*
X138205688Y-80510573D01*
X138155572Y-80460457D01*
X138134180Y-80414581D01*
X138133898Y-80408131D01*
X138133898Y-80189341D01*
X138132943Y-80184539D01*
X138126500Y-80152151D01*
X138098320Y-80109977D01*
X138089972Y-80104399D01*
X138056147Y-80081797D01*
X138043562Y-80079293D01*
X138035438Y-80077677D01*
X137992164Y-80051418D01*
X137975894Y-80003485D01*
X137994240Y-79956308D01*
X138035438Y-79932522D01*
X138056146Y-79928403D01*
X138098320Y-79900223D01*
X138126500Y-79858049D01*
X138133898Y-79820859D01*
X138133898Y-79389343D01*
X138126500Y-79352153D01*
X138098320Y-79309979D01*
X138098031Y-79309786D01*
X138056147Y-79281799D01*
X138035430Y-79277678D01*
X137992156Y-79251417D01*
X137975886Y-79203484D01*
X137994233Y-79156307D01*
X138035432Y-79132522D01*
X138056146Y-79128402D01*
X138098320Y-79100222D01*
X138126500Y-79058048D01*
X138133898Y-79020858D01*
X138133898Y-78589342D01*
X138126500Y-78552152D01*
X138098320Y-78509978D01*
X138083387Y-78500000D01*
X138056147Y-78481798D01*
X138035435Y-78477678D01*
X137992161Y-78451417D01*
X137975891Y-78403484D01*
X137994238Y-78356307D01*
X138035437Y-78332522D01*
X138056146Y-78328403D01*
X138098320Y-78300223D01*
X138126500Y-78258049D01*
X138133898Y-78220859D01*
X138133898Y-77789343D01*
X138126500Y-77752153D01*
X138098320Y-77709979D01*
X138075415Y-77694674D01*
X138056147Y-77681799D01*
X138035430Y-77677678D01*
X137992156Y-77651417D01*
X137975886Y-77603484D01*
X137994233Y-77556307D01*
X138035432Y-77532522D01*
X138056146Y-77528402D01*
X138098320Y-77500222D01*
X138126500Y-77458048D01*
X138133898Y-77420858D01*
X138133898Y-77086014D01*
X138151211Y-77038448D01*
X138195048Y-77013138D01*
X138244898Y-77021928D01*
X138260224Y-77033688D01*
X138333683Y-77107147D01*
X138448126Y-77165459D01*
X138448129Y-77165459D01*
X138448132Y-77165461D01*
X138575000Y-77185555D01*
X138658997Y-77172250D01*
X138708684Y-77181908D01*
X138722898Y-77193013D01*
X138858086Y-77328201D01*
X138869147Y-77343789D01*
X138871810Y-77347130D01*
X138894251Y-77365025D01*
X138900440Y-77370555D01*
X138905140Y-77375255D01*
X138910757Y-77378784D01*
X138917529Y-77383589D01*
X138939977Y-77401491D01*
X138939979Y-77401491D01*
X138943843Y-77403352D01*
X138956226Y-77408481D01*
X138960273Y-77409897D01*
X138960274Y-77409898D01*
X138968149Y-77412654D01*
X138966895Y-77416236D01*
X138997635Y-77431456D01*
X139017949Y-77477820D01*
X139018100Y-77482544D01*
X139018100Y-77516938D01*
X139021200Y-77532522D01*
X139025498Y-77554129D01*
X139053485Y-77596013D01*
X139053678Y-77596302D01*
X139064427Y-77603484D01*
X139095850Y-77624481D01*
X139095852Y-77624482D01*
X139133042Y-77631880D01*
X139133043Y-77631880D01*
X139716957Y-77631880D01*
X139716958Y-77631880D01*
X139754148Y-77624482D01*
X139796322Y-77596302D01*
X139824502Y-77554128D01*
X139827422Y-77539448D01*
X139853682Y-77496174D01*
X139901614Y-77479903D01*
X139948791Y-77498249D01*
X139972578Y-77539449D01*
X139975497Y-77554128D01*
X140003548Y-77596107D01*
X140003678Y-77596302D01*
X140014427Y-77603484D01*
X140045850Y-77624481D01*
X140045852Y-77624482D01*
X140083042Y-77631880D01*
X140345973Y-77631880D01*
X140357548Y-77632790D01*
X140375000Y-77635555D01*
X140392451Y-77632790D01*
X140404027Y-77631880D01*
X140666957Y-77631880D01*
X140666958Y-77631880D01*
X140704148Y-77624482D01*
X140746322Y-77596302D01*
X140774502Y-77554128D01*
X140781900Y-77516938D01*
X140781900Y-77253901D01*
X140782811Y-77242325D01*
X140785555Y-77224999D01*
X140782811Y-77207674D01*
X140781900Y-77196098D01*
X140781900Y-76933022D01*
X140780605Y-76926511D01*
X140774502Y-76895832D01*
X140774330Y-76895575D01*
X140751969Y-76862110D01*
X140746322Y-76853658D01*
X140745668Y-76853221D01*
X140704149Y-76825478D01*
X140685553Y-76821779D01*
X140666958Y-76818080D01*
X140666957Y-76818080D01*
X140403774Y-76818080D01*
X140392198Y-76817169D01*
X140375000Y-76814445D01*
X140357802Y-76817169D01*
X140346226Y-76818080D01*
X140083042Y-76818080D01*
X140070645Y-76820546D01*
X140045850Y-76825478D01*
X140003680Y-76853656D01*
X140003676Y-76853660D01*
X139975498Y-76895830D01*
X139972578Y-76910511D01*
X139946318Y-76953786D01*
X139898385Y-76970056D01*
X139851208Y-76951710D01*
X139827422Y-76910511D01*
X139826088Y-76903804D01*
X139824502Y-76895832D01*
X139824330Y-76895575D01*
X139801969Y-76862110D01*
X139796322Y-76853658D01*
X139795668Y-76853221D01*
X139754149Y-76825478D01*
X139745038Y-76823665D01*
X139739568Y-76822577D01*
X139696294Y-76796318D01*
X139680024Y-76748386D01*
X139698370Y-76701208D01*
X139739568Y-76677422D01*
X139754148Y-76674522D01*
X139796322Y-76646342D01*
X139824502Y-76604168D01*
X139831900Y-76566978D01*
X139831900Y-76278901D01*
X139832811Y-76267325D01*
X139835555Y-76249999D01*
X139832811Y-76232674D01*
X139831900Y-76221098D01*
X139831900Y-75983065D01*
X139831900Y-75983062D01*
X139831477Y-75980937D01*
X139831607Y-75980090D01*
X139831544Y-75979446D01*
X139831709Y-75979429D01*
X139839176Y-75930909D01*
X139877232Y-75897532D01*
X139904055Y-75892500D01*
X140899500Y-75892500D01*
X140947066Y-75909813D01*
G37*
G04 #@! TD.AperFunction*
G04 #@! TA.AperFunction,Conductor*
G36*
X122543511Y-75909813D02*
G01*
X122568821Y-75953650D01*
X122568523Y-75980935D01*
X122568100Y-75983062D01*
X122568100Y-75983065D01*
X122568100Y-76566977D01*
X122575498Y-76604169D01*
X122603485Y-76646053D01*
X122603678Y-76646342D01*
X122624765Y-76660432D01*
X122645850Y-76674521D01*
X122645852Y-76674522D01*
X122683042Y-76681920D01*
X123081133Y-76681920D01*
X123128699Y-76699233D01*
X123133459Y-76703594D01*
X123283086Y-76853221D01*
X123294147Y-76868809D01*
X123296810Y-76872150D01*
X123315380Y-76886958D01*
X123318962Y-76889815D01*
X123319251Y-76890045D01*
X123325440Y-76895575D01*
X123330140Y-76900275D01*
X123332675Y-76901868D01*
X123335757Y-76903804D01*
X123342529Y-76908609D01*
X123364977Y-76926511D01*
X123364979Y-76926511D01*
X123368843Y-76928372D01*
X123381226Y-76933501D01*
X123385271Y-76934916D01*
X123385274Y-76934918D01*
X123412108Y-76937940D01*
X123413797Y-76938131D01*
X123421983Y-76939521D01*
X123428459Y-76941000D01*
X123435096Y-76941000D01*
X123443377Y-76941465D01*
X123452381Y-76942479D01*
X123497711Y-76965006D01*
X123517956Y-77011400D01*
X123518100Y-77016014D01*
X123518100Y-77516938D01*
X123521200Y-77532522D01*
X123525498Y-77554129D01*
X123553485Y-77596013D01*
X123553678Y-77596302D01*
X123564427Y-77603484D01*
X123595850Y-77624481D01*
X123595852Y-77624482D01*
X123633042Y-77631880D01*
X124031133Y-77631880D01*
X124078699Y-77649193D01*
X124083459Y-77653554D01*
X124124579Y-77694674D01*
X124145971Y-77740550D01*
X124132870Y-77789445D01*
X124091406Y-77818479D01*
X124072253Y-77821000D01*
X123340042Y-77821000D01*
X123327645Y-77823466D01*
X123302850Y-77828398D01*
X123260680Y-77856576D01*
X123260676Y-77856580D01*
X123232498Y-77898750D01*
X123225100Y-77935942D01*
X123225100Y-77973501D01*
X123207787Y-78021067D01*
X123163950Y-78046377D01*
X123151100Y-78047501D01*
X123043301Y-78047501D01*
X122995735Y-78030188D01*
X122970425Y-77986351D01*
X122969301Y-77973501D01*
X122969301Y-77943343D01*
X122967792Y-77935757D01*
X122961903Y-77906153D01*
X122956956Y-77898750D01*
X122933724Y-77863981D01*
X122933723Y-77863979D01*
X122922644Y-77856576D01*
X122891550Y-77835799D01*
X122872954Y-77832100D01*
X122854359Y-77828401D01*
X122854358Y-77828401D01*
X122446500Y-77828401D01*
X122398934Y-77811088D01*
X122373624Y-77767251D01*
X122372500Y-77754401D01*
X122372500Y-75966500D01*
X122389813Y-75918934D01*
X122433650Y-75893624D01*
X122446500Y-75892500D01*
X122495945Y-75892500D01*
X122543511Y-75909813D01*
G37*
G04 #@! TD.AperFunction*
M02*
