M48
; DRILL file {KiCad 7.0.10} date Wed Mar  6 03:44:25 2024
; FORMAT={-:-/ absolute / metric / decimal}
; #@! TF.CreationDate,2024-03-06T03:44:25-08:00
; #@! TF.GenerationSoftware,Kicad,Pcbnew,7.0.10
; #@! TF.FileFunction,Plated,1,4,PTH
FMAT,2
METRIC
; #@! TA.AperFunction,Plated,PTH,ViaDrill
T1C0.310
; #@! TA.AperFunction,Plated,PTH,ComponentDrill
T2C0.600
%
G90
G05
T1
X122.625Y-80.725
X122.675Y-93.925
X122.7Y-94.875
X122.7Y-99.13
X122.725Y-96.15
X122.725Y-98.175
X122.775Y-100.375
X122.925Y-79.5
X122.925Y-87.95
X122.95Y-86.625
X122.95Y-88.7
X122.975Y-77.225
X122.975Y-82.75
X122.975Y-83.7
X123.55Y-79.5
X123.775Y-78.25
X123.875Y-82.75
X123.9Y-93.65
X123.925Y-84.65
X123.925Y-85.675
X124.05Y-99.25
X124.4Y-97.7
X124.575Y-90.85
X124.6Y-89.75
X124.675Y-76.275
X124.825Y-86.675
X124.85Y-92.925
X124.875Y-76.9
X125.0Y-84.1
X125.184Y-93.441
X125.2Y-77.65
X125.5Y-98.025
X125.6Y-82.8
X125.8Y-93.025
X126.075Y-95.85
X126.3Y-98.05
X126.4Y-96.7
X126.525Y-99.475
X126.6Y-78.8
X126.675Y-89.575
X126.8Y-93.425
X126.95Y-84.625
X127.0Y-100.375
X127.25Y-100.95
X127.475Y-93.575
X127.6Y-99.425
X127.7Y-77.2
X127.8Y-94.625
X127.85Y-89.025
X128.225Y-98.025
X128.25Y-84.05
X128.325Y-93.55
X128.475Y-88.475
X128.575Y-92.25
X128.975Y-95.425
X129.1Y-84.75
X129.1Y-93.55
X129.3Y-77.2
X129.675Y-96.15
X129.7Y-79.2
X129.7Y-81.25
X129.9Y-98.875
X130.225Y-84.475
X130.45Y-89.85
X130.45Y-90.5
X130.45Y-91.25
X130.55Y-96.1
X130.55Y-96.7
X130.55Y-97.3
X130.7Y-87.8
X130.85Y-99.25
X130.9Y-77.2
X130.9Y-93.8
X131.3Y-91.95
X131.35Y-96.1
X131.35Y-96.7
X131.35Y-97.3
X131.7Y-79.2
X131.7Y-81.225
X131.7Y-86.95
X131.9Y-88.5
X132.25Y-100.2
X132.45Y-89.2
X132.5Y-77.2
X132.5Y-85.0
X132.6Y-92.075
X132.625Y-96.3
X132.65Y-95.3
X132.65Y-97.375
X133.15Y-100.75
X133.162Y-86.962
X133.3Y-85.0
X133.675Y-79.2
X133.675Y-81.225
X134.075Y-94.575
X134.1Y-77.2
X134.1Y-85.0
X134.375Y-91.025
X134.475Y-89.15
X135.1Y-84.3
X135.225Y-92.85
X135.7Y-77.2
X135.8Y-89.4
X135.85Y-83.95
X136.25Y-87.65
X136.4Y-94.725
X136.4Y-95.35
X136.406Y-84.475
X136.625Y-85.05
X137.1Y-92.65
X137.525Y-91.775
X137.65Y-86.155
X138.225Y-97.95
X138.29Y-90.15
X138.575Y-76.775
X138.725Y-80.575
X138.775Y-89.15
X139.15Y-87.05
X139.375Y-89.325
X139.39Y-83.075
X139.425Y-76.25
X139.625Y-78.275
X139.775Y-81.575
X139.9Y-90.775
X139.925Y-84.9
X140.0Y-87.225
X140.325Y-88.4
X140.375Y-76.275
X140.375Y-77.225
X140.375Y-85.65
X140.4Y-82.0
T2
X135.26Y-91.73G85X136.36Y-91.73
G05
X135.26Y-100.37G85X136.36Y-100.37
G05
X139.61Y-91.73G85X140.41Y-91.73
G05
X139.61Y-100.37G85X140.41Y-100.37
G05
M30
