G04 #@! TF.GenerationSoftware,KiCad,Pcbnew,7.0.10*
G04 #@! TF.CreationDate,2024-03-06T03:44:09-08:00*
G04 #@! TF.ProjectId,Tracker_Band_V1,54726163-6b65-4725-9f42-616e645f5631,1*
G04 #@! TF.SameCoordinates,Original*
G04 #@! TF.FileFunction,Copper,L2,Inr*
G04 #@! TF.FilePolarity,Positive*
%FSLAX46Y46*%
G04 Gerber Fmt 4.6, Leading zero omitted, Abs format (unit mm)*
G04 Created by KiCad (PCBNEW 7.0.10) date 2024-03-06 03:44:09*
%MOMM*%
%LPD*%
G01*
G04 APERTURE LIST*
G04 #@! TA.AperFunction,ComponentPad*
%ADD10O,2.100000X1.000000*%
G04 #@! TD*
G04 #@! TA.AperFunction,ComponentPad*
%ADD11O,1.800000X1.000000*%
G04 #@! TD*
G04 #@! TA.AperFunction,ViaPad*
%ADD12C,0.420000*%
G04 #@! TD*
G04 APERTURE END LIST*
D10*
X135810000Y-100370000D03*
D11*
X140010000Y-100370000D03*
D10*
X135810000Y-91730000D03*
D11*
X140010000Y-91730000D03*
D12*
X130550000Y-96700000D03*
X134075000Y-94575000D03*
X127700000Y-77200000D03*
X130900000Y-93800000D03*
X139775000Y-81575000D03*
X127475000Y-93575000D03*
X127850000Y-89025000D03*
X131700000Y-81225000D03*
X135800000Y-89400000D03*
X125500000Y-98025000D03*
X130450000Y-91250000D03*
X129700000Y-79200000D03*
X122975000Y-83700000D03*
X127250000Y-100950000D03*
X132450000Y-89200000D03*
X122975000Y-77224980D03*
X128225000Y-98025000D03*
X132600000Y-92075000D03*
X131350000Y-97300000D03*
X131700000Y-79200000D03*
X130550000Y-97300000D03*
X129100000Y-84750000D03*
X131350000Y-96100000D03*
X134100000Y-77200000D03*
X140375000Y-76275000D03*
X123925000Y-85675000D03*
X122700000Y-99130000D03*
X132500000Y-77200000D03*
X135225000Y-92850000D03*
X140375000Y-85650000D03*
X124825000Y-86675000D03*
X135700000Y-77200000D03*
X139625000Y-78275000D03*
X134375000Y-91025000D03*
X125200000Y-77650000D03*
X129300000Y-77200000D03*
X133675000Y-81225000D03*
X122975000Y-82750000D03*
X129700000Y-81250000D03*
X130450000Y-89850000D03*
X131350000Y-96700000D03*
X124575000Y-90850000D03*
X130550000Y-96100000D03*
X122700000Y-94875000D03*
X132650000Y-97375000D03*
X128475000Y-88475000D03*
X134475000Y-89150000D03*
X130900000Y-77200000D03*
X137650000Y-86155100D03*
X130450000Y-90500000D03*
X135850000Y-83950000D03*
X129675000Y-96150000D03*
X130850000Y-99250000D03*
X133675000Y-79200000D03*
X128975000Y-95425000D03*
X122625000Y-80725000D03*
X128575000Y-92250000D03*
X122925000Y-79500000D03*
X129100000Y-93550000D03*
X128325000Y-93550000D03*
X126675000Y-89575000D03*
X123550003Y-79500000D03*
X138225000Y-97950000D03*
X133150000Y-100750000D03*
X140325000Y-88400000D03*
X126800000Y-93425000D03*
X137525000Y-91775000D03*
X136400000Y-95350000D03*
X140400000Y-82000000D03*
X136400000Y-94725000D03*
X139900000Y-90775000D03*
X137100000Y-92650000D03*
X132650000Y-95300000D03*
X136406062Y-84475288D03*
X136625000Y-85050000D03*
X132625000Y-96300000D03*
X122675000Y-93925000D03*
X127600000Y-99425000D03*
X122950000Y-86625000D03*
X130700000Y-87800000D03*
X132250000Y-100200000D03*
X126525000Y-99475000D03*
X126400000Y-96700000D03*
X131900000Y-88500000D03*
X126600000Y-78800000D03*
X122775000Y-100375000D03*
X138575000Y-76775000D03*
X122725000Y-96150000D03*
X124600000Y-89750000D03*
X124675000Y-76275000D03*
X122725000Y-98175000D03*
X139150000Y-87050000D03*
X122925000Y-87950000D03*
X123875000Y-82750000D03*
X138775000Y-89150000D03*
X125600000Y-82800000D03*
X122950000Y-88700000D03*
X123775000Y-78250000D03*
X139390000Y-83075000D03*
X123925000Y-84650000D03*
X131300000Y-91950000D03*
X136250000Y-87650000D03*
X130225000Y-84475000D03*
X128250000Y-84050000D03*
X129900000Y-98875000D03*
X126075000Y-95850000D03*
X133300000Y-85000000D03*
X127800000Y-94625000D03*
X133162500Y-86962500D03*
X127000000Y-100375000D03*
X126300000Y-98050000D03*
X124050000Y-99250000D03*
X131700000Y-86950000D03*
X125800000Y-93025000D03*
X135100000Y-84300000D03*
X125184101Y-93441338D03*
X124850000Y-92925000D03*
X134100000Y-85000000D03*
X123900000Y-93650000D03*
X132500000Y-85000000D03*
X124875000Y-76900000D03*
X139425000Y-76250000D03*
X140375000Y-77225000D03*
X139925000Y-84900000D03*
X140000000Y-87225000D03*
X125000000Y-84100000D03*
X124400000Y-97700000D03*
X126950000Y-84625000D03*
X138290000Y-90150000D03*
X138725000Y-80575000D03*
X139375000Y-89325000D03*
G04 #@! TA.AperFunction,Conductor*
G36*
X124279480Y-75912185D02*
G01*
X124325235Y-75964989D01*
X124335179Y-76034147D01*
X124322927Y-76072789D01*
X124297277Y-76123132D01*
X124284537Y-76148136D01*
X124264445Y-76274997D01*
X124264445Y-76275002D01*
X124284537Y-76401863D01*
X124284538Y-76401866D01*
X124284539Y-76401868D01*
X124342854Y-76516318D01*
X124433682Y-76607146D01*
X124433684Y-76607147D01*
X124433687Y-76607150D01*
X124441581Y-76612886D01*
X124440283Y-76614672D01*
X124481509Y-76653608D01*
X124498305Y-76721429D01*
X124487187Y-76763730D01*
X124487554Y-76763850D01*
X124485472Y-76770256D01*
X124484907Y-76772408D01*
X124484538Y-76773131D01*
X124464445Y-76899997D01*
X124464445Y-76900002D01*
X124484537Y-77026863D01*
X124484538Y-77026866D01*
X124484539Y-77026868D01*
X124525442Y-77107144D01*
X124542855Y-77141319D01*
X124542858Y-77141323D01*
X124633676Y-77232141D01*
X124633680Y-77232144D01*
X124633682Y-77232146D01*
X124748132Y-77290461D01*
X124748134Y-77290461D01*
X124748136Y-77290462D01*
X124874998Y-77310555D01*
X124875000Y-77310555D01*
X124875002Y-77310555D01*
X125001863Y-77290462D01*
X125001863Y-77290461D01*
X125001868Y-77290461D01*
X125116318Y-77232146D01*
X125207146Y-77141318D01*
X125265461Y-77026868D01*
X125272301Y-76983682D01*
X125285555Y-76900002D01*
X125285555Y-76899997D01*
X125265462Y-76773136D01*
X125265461Y-76773134D01*
X125265461Y-76773132D01*
X125207146Y-76658682D01*
X125207144Y-76658680D01*
X125207141Y-76658676D01*
X125116323Y-76567858D01*
X125116319Y-76567855D01*
X125116318Y-76567854D01*
X125116316Y-76567853D01*
X125108426Y-76562121D01*
X125109723Y-76560335D01*
X125068489Y-76521393D01*
X125051693Y-76453572D01*
X125062813Y-76411266D01*
X125062446Y-76411147D01*
X125064536Y-76404712D01*
X125065096Y-76402583D01*
X125065461Y-76401868D01*
X125069421Y-76376868D01*
X125085555Y-76275002D01*
X125085555Y-76274997D01*
X125065462Y-76148136D01*
X125065461Y-76148134D01*
X125065461Y-76148132D01*
X125027073Y-76072791D01*
X125014178Y-76004126D01*
X125040454Y-75939385D01*
X125097561Y-75899128D01*
X125137559Y-75892500D01*
X138949703Y-75892500D01*
X139016742Y-75912185D01*
X139062497Y-75964989D01*
X139072441Y-76034147D01*
X139060189Y-76072789D01*
X139034539Y-76123132D01*
X139034537Y-76123136D01*
X139014445Y-76249997D01*
X139014445Y-76250000D01*
X139018404Y-76274997D01*
X139028323Y-76337625D01*
X139019367Y-76406919D01*
X138974370Y-76460370D01*
X138907618Y-76481009D01*
X138840305Y-76462283D01*
X138818168Y-76444703D01*
X138816323Y-76442858D01*
X138816319Y-76442855D01*
X138816318Y-76442854D01*
X138701868Y-76384539D01*
X138701866Y-76384538D01*
X138701863Y-76384537D01*
X138575002Y-76364445D01*
X138574998Y-76364445D01*
X138448136Y-76384537D01*
X138333680Y-76442855D01*
X138333676Y-76442858D01*
X138242858Y-76533676D01*
X138242855Y-76533680D01*
X138184537Y-76648136D01*
X138164445Y-76774997D01*
X138164445Y-76775002D01*
X138184537Y-76901863D01*
X138184538Y-76901866D01*
X138184539Y-76901868D01*
X138242854Y-77016318D01*
X138242855Y-77016319D01*
X138242858Y-77016323D01*
X138333676Y-77107141D01*
X138333680Y-77107144D01*
X138333682Y-77107146D01*
X138448132Y-77165461D01*
X138448134Y-77165461D01*
X138448136Y-77165462D01*
X138574998Y-77185555D01*
X138575000Y-77185555D01*
X138575002Y-77185555D01*
X138701863Y-77165462D01*
X138701863Y-77165461D01*
X138701868Y-77165461D01*
X138816318Y-77107146D01*
X138907146Y-77016318D01*
X138965461Y-76901868D01*
X138965757Y-76900000D01*
X138985555Y-76775002D01*
X138985555Y-76774997D01*
X138971677Y-76687375D01*
X138980632Y-76618081D01*
X139025628Y-76564629D01*
X139092379Y-76543990D01*
X139159693Y-76562715D01*
X139181831Y-76580296D01*
X139183676Y-76582141D01*
X139183680Y-76582144D01*
X139183682Y-76582146D01*
X139298132Y-76640461D01*
X139298134Y-76640461D01*
X139298136Y-76640462D01*
X139424998Y-76660555D01*
X139425000Y-76660555D01*
X139425002Y-76660555D01*
X139551863Y-76640462D01*
X139551863Y-76640461D01*
X139551868Y-76640461D01*
X139666318Y-76582146D01*
X139757146Y-76491318D01*
X139815461Y-76376868D01*
X139831595Y-76275002D01*
X139835555Y-76250002D01*
X139835555Y-76249997D01*
X139815462Y-76123136D01*
X139815461Y-76123134D01*
X139815461Y-76123132D01*
X139789811Y-76072791D01*
X139776916Y-76004126D01*
X139803192Y-75939385D01*
X139860299Y-75899128D01*
X139900297Y-75892500D01*
X140849500Y-75892500D01*
X140916539Y-75912185D01*
X140962294Y-75964989D01*
X140973500Y-76016500D01*
X140973500Y-76989935D01*
X140953815Y-77056974D01*
X140901011Y-77102729D01*
X140831853Y-77112673D01*
X140768297Y-77083648D01*
X140739016Y-77046232D01*
X140707146Y-76983682D01*
X140707144Y-76983680D01*
X140707141Y-76983676D01*
X140616323Y-76892858D01*
X140616319Y-76892855D01*
X140616318Y-76892854D01*
X140501868Y-76834539D01*
X140501866Y-76834538D01*
X140501863Y-76834537D01*
X140375002Y-76814445D01*
X140374998Y-76814445D01*
X140248136Y-76834537D01*
X140133680Y-76892855D01*
X140133676Y-76892858D01*
X140042858Y-76983676D01*
X140042855Y-76983680D01*
X139984537Y-77098136D01*
X139964445Y-77224997D01*
X139964445Y-77225002D01*
X139984537Y-77351863D01*
X139984538Y-77351866D01*
X139984539Y-77351868D01*
X140042854Y-77466318D01*
X140042855Y-77466319D01*
X140042858Y-77466323D01*
X140133676Y-77557141D01*
X140133680Y-77557144D01*
X140133682Y-77557146D01*
X140248132Y-77615461D01*
X140248134Y-77615461D01*
X140248136Y-77615462D01*
X140374998Y-77635555D01*
X140375000Y-77635555D01*
X140375002Y-77635555D01*
X140501863Y-77615462D01*
X140501863Y-77615461D01*
X140501868Y-77615461D01*
X140616318Y-77557146D01*
X140707146Y-77466318D01*
X140739016Y-77403768D01*
X140786989Y-77352974D01*
X140854810Y-77336178D01*
X140920945Y-77358715D01*
X140964397Y-77413430D01*
X140973500Y-77460064D01*
X140973500Y-81715869D01*
X140953815Y-81782908D01*
X140901011Y-81828663D01*
X140831853Y-81838607D01*
X140768297Y-81809582D01*
X140739016Y-81772165D01*
X140737980Y-81770132D01*
X140732146Y-81758682D01*
X140732143Y-81758679D01*
X140732141Y-81758676D01*
X140641323Y-81667858D01*
X140641319Y-81667855D01*
X140641318Y-81667854D01*
X140526868Y-81609539D01*
X140526866Y-81609538D01*
X140526863Y-81609537D01*
X140400002Y-81589445D01*
X140399998Y-81589445D01*
X140273136Y-81609537D01*
X140158680Y-81667855D01*
X140158676Y-81667858D01*
X140067858Y-81758676D01*
X140067855Y-81758680D01*
X140009537Y-81873136D01*
X139989445Y-81999997D01*
X139989445Y-82000002D01*
X140009537Y-82126863D01*
X140009538Y-82126866D01*
X140009539Y-82126868D01*
X140067854Y-82241318D01*
X140067855Y-82241319D01*
X140067858Y-82241323D01*
X140158676Y-82332141D01*
X140158680Y-82332144D01*
X140158682Y-82332146D01*
X140273132Y-82390461D01*
X140273134Y-82390461D01*
X140273136Y-82390462D01*
X140399998Y-82410555D01*
X140400000Y-82410555D01*
X140400002Y-82410555D01*
X140526863Y-82390462D01*
X140526863Y-82390461D01*
X140526868Y-82390461D01*
X140641318Y-82332146D01*
X140732146Y-82241318D01*
X140739015Y-82227835D01*
X140786989Y-82177040D01*
X140854809Y-82160244D01*
X140920945Y-82182781D01*
X140964397Y-82237495D01*
X140973500Y-82284130D01*
X140973500Y-88326755D01*
X140953815Y-88393794D01*
X140947099Y-88399613D01*
X140972477Y-88457351D01*
X140973500Y-88473244D01*
X140973500Y-101039500D01*
X140953815Y-101106539D01*
X140901011Y-101152294D01*
X140849500Y-101163500D01*
X133596764Y-101163500D01*
X133529725Y-101143815D01*
X133483970Y-101091011D01*
X133474026Y-101021853D01*
X133486277Y-100983208D01*
X133540461Y-100876868D01*
X133558106Y-100765462D01*
X133560555Y-100750002D01*
X133560555Y-100749997D01*
X133540462Y-100623136D01*
X133540461Y-100623134D01*
X133540461Y-100623132D01*
X133482146Y-100508682D01*
X133482144Y-100508680D01*
X133482141Y-100508676D01*
X133391323Y-100417858D01*
X133391319Y-100417855D01*
X133391318Y-100417854D01*
X133276868Y-100359539D01*
X133276866Y-100359538D01*
X133276863Y-100359537D01*
X133150002Y-100339445D01*
X133149998Y-100339445D01*
X133023136Y-100359537D01*
X132908680Y-100417855D01*
X132820898Y-100505637D01*
X132790173Y-100522413D01*
X132790466Y-100523197D01*
X132777268Y-100588337D01*
X132759537Y-100623135D01*
X132739445Y-100749997D01*
X132739445Y-100750002D01*
X132759537Y-100876863D01*
X132759538Y-100876866D01*
X132759539Y-100876868D01*
X132813721Y-100983207D01*
X132826617Y-101051875D01*
X132800340Y-101116615D01*
X132743234Y-101156872D01*
X132703236Y-101163500D01*
X122496500Y-101163500D01*
X122429461Y-101143815D01*
X122383706Y-101091011D01*
X122372500Y-101039500D01*
X122372500Y-100827368D01*
X122392185Y-100760329D01*
X122444989Y-100714574D01*
X122514147Y-100704630D01*
X122552787Y-100716880D01*
X122648132Y-100765461D01*
X122648134Y-100765461D01*
X122648136Y-100765462D01*
X122774998Y-100785555D01*
X122775000Y-100785555D01*
X122775002Y-100785555D01*
X122901863Y-100765462D01*
X122901863Y-100765461D01*
X122901868Y-100765461D01*
X123016318Y-100707146D01*
X123107146Y-100616318D01*
X123165461Y-100501868D01*
X123174569Y-100444363D01*
X123185555Y-100375002D01*
X123185555Y-100374997D01*
X123165462Y-100248136D01*
X123165461Y-100248134D01*
X123165461Y-100248132D01*
X123107146Y-100133682D01*
X123107144Y-100133680D01*
X123107141Y-100133676D01*
X123016323Y-100042858D01*
X123016319Y-100042855D01*
X123016318Y-100042854D01*
X122901868Y-99984539D01*
X122901866Y-99984538D01*
X122901863Y-99984537D01*
X122775002Y-99964445D01*
X122774998Y-99964445D01*
X122648134Y-99984537D01*
X122552794Y-100033116D01*
X122484125Y-100046012D01*
X122419385Y-100019735D01*
X122379128Y-99962629D01*
X122372500Y-99922631D01*
X122372500Y-99250002D01*
X123639445Y-99250002D01*
X123659537Y-99376863D01*
X123659538Y-99376866D01*
X123659539Y-99376868D01*
X123709540Y-99475000D01*
X123717855Y-99491319D01*
X123717858Y-99491323D01*
X123808676Y-99582141D01*
X123808680Y-99582144D01*
X123808682Y-99582146D01*
X123923132Y-99640461D01*
X123923134Y-99640461D01*
X123923136Y-99640462D01*
X124049998Y-99660555D01*
X124050000Y-99660555D01*
X124050002Y-99660555D01*
X124176863Y-99640462D01*
X124176863Y-99640461D01*
X124176868Y-99640461D01*
X124291318Y-99582146D01*
X124382146Y-99491318D01*
X124390459Y-99475002D01*
X126114445Y-99475002D01*
X126134537Y-99601863D01*
X126134538Y-99601866D01*
X126134539Y-99601868D01*
X126192854Y-99716318D01*
X126192855Y-99716319D01*
X126192858Y-99716323D01*
X126283676Y-99807141D01*
X126283680Y-99807144D01*
X126283682Y-99807146D01*
X126398132Y-99865461D01*
X126398134Y-99865461D01*
X126398136Y-99865462D01*
X126524998Y-99885555D01*
X126525000Y-99885555D01*
X126525002Y-99885555D01*
X126612624Y-99871677D01*
X126681918Y-99880632D01*
X126735369Y-99925628D01*
X126756009Y-99992379D01*
X126737284Y-100059693D01*
X126719704Y-100081830D01*
X126667858Y-100133676D01*
X126667855Y-100133680D01*
X126609537Y-100248136D01*
X126589445Y-100374997D01*
X126589445Y-100375002D01*
X126609537Y-100501863D01*
X126609538Y-100501866D01*
X126609539Y-100501868D01*
X126654680Y-100590462D01*
X126667855Y-100616319D01*
X126667858Y-100616323D01*
X126758676Y-100707141D01*
X126758680Y-100707144D01*
X126758682Y-100707146D01*
X126873132Y-100765461D01*
X126873134Y-100765461D01*
X126873136Y-100765462D01*
X126999998Y-100785555D01*
X127000000Y-100785555D01*
X127000002Y-100785555D01*
X127126863Y-100765462D01*
X127126863Y-100765461D01*
X127126868Y-100765461D01*
X127241318Y-100707146D01*
X127332146Y-100616318D01*
X127390461Y-100501868D01*
X127399569Y-100444363D01*
X127410555Y-100375002D01*
X127410555Y-100374997D01*
X127390462Y-100248136D01*
X127390461Y-100248134D01*
X127390461Y-100248132D01*
X127365938Y-100200002D01*
X131839445Y-100200002D01*
X131859537Y-100326863D01*
X131859538Y-100326864D01*
X131859539Y-100326868D01*
X131910457Y-100426800D01*
X131917855Y-100441319D01*
X131917858Y-100441323D01*
X132008676Y-100532141D01*
X132008680Y-100532144D01*
X132008682Y-100532146D01*
X132123132Y-100590461D01*
X132123134Y-100590461D01*
X132123136Y-100590462D01*
X132249998Y-100610555D01*
X132250000Y-100610555D01*
X132250002Y-100610555D01*
X132376863Y-100590462D01*
X132376863Y-100590461D01*
X132376868Y-100590461D01*
X132491318Y-100532146D01*
X132579102Y-100444361D01*
X132609825Y-100427585D01*
X132609533Y-100426800D01*
X132622732Y-100361662D01*
X132640461Y-100326868D01*
X132660555Y-100200000D01*
X132650051Y-100133682D01*
X132640462Y-100073136D01*
X132640461Y-100073134D01*
X132640461Y-100073132D01*
X132582146Y-99958682D01*
X132582144Y-99958680D01*
X132582141Y-99958676D01*
X132491323Y-99867858D01*
X132491319Y-99867855D01*
X132491318Y-99867854D01*
X132376868Y-99809539D01*
X132376866Y-99809538D01*
X132376863Y-99809537D01*
X132250002Y-99789445D01*
X132249998Y-99789445D01*
X132123136Y-99809537D01*
X132008680Y-99867855D01*
X132008676Y-99867858D01*
X131917858Y-99958676D01*
X131917855Y-99958680D01*
X131917854Y-99958682D01*
X131866387Y-100059693D01*
X131859537Y-100073136D01*
X131839445Y-100199997D01*
X131839445Y-100200002D01*
X127365938Y-100200002D01*
X127332146Y-100133682D01*
X127332144Y-100133680D01*
X127332141Y-100133676D01*
X127241323Y-100042858D01*
X127241319Y-100042855D01*
X127241318Y-100042854D01*
X127126868Y-99984539D01*
X127126866Y-99984538D01*
X127126863Y-99984537D01*
X127000002Y-99964445D01*
X127000000Y-99964445D01*
X126971354Y-99968982D01*
X126912374Y-99978323D01*
X126843080Y-99969367D01*
X126789629Y-99924370D01*
X126768990Y-99857618D01*
X126787716Y-99790305D01*
X126805297Y-99768167D01*
X126816323Y-99757141D01*
X126857146Y-99716318D01*
X126915461Y-99601868D01*
X126918585Y-99582144D01*
X126935555Y-99475002D01*
X126935555Y-99474997D01*
X126927636Y-99425002D01*
X127189445Y-99425002D01*
X127209537Y-99551863D01*
X127209538Y-99551866D01*
X127209539Y-99551868D01*
X127254680Y-99640462D01*
X127267855Y-99666319D01*
X127267858Y-99666323D01*
X127358676Y-99757141D01*
X127358680Y-99757144D01*
X127358682Y-99757146D01*
X127473132Y-99815461D01*
X127473134Y-99815461D01*
X127473136Y-99815462D01*
X127599998Y-99835555D01*
X127600000Y-99835555D01*
X127600002Y-99835555D01*
X127726863Y-99815462D01*
X127726863Y-99815461D01*
X127726868Y-99815461D01*
X127841318Y-99757146D01*
X127932146Y-99666318D01*
X127990461Y-99551868D01*
X127996221Y-99515500D01*
X128010555Y-99425002D01*
X128010555Y-99424997D01*
X127990462Y-99298136D01*
X127990461Y-99298134D01*
X127990461Y-99298132D01*
X127932146Y-99183682D01*
X127932144Y-99183680D01*
X127932141Y-99183676D01*
X127841323Y-99092858D01*
X127841319Y-99092855D01*
X127841318Y-99092854D01*
X127726868Y-99034539D01*
X127726866Y-99034538D01*
X127726863Y-99034537D01*
X127600002Y-99014445D01*
X127599998Y-99014445D01*
X127473136Y-99034537D01*
X127358680Y-99092855D01*
X127358676Y-99092858D01*
X127267858Y-99183676D01*
X127267855Y-99183680D01*
X127209537Y-99298136D01*
X127189445Y-99424997D01*
X127189445Y-99425002D01*
X126927636Y-99425002D01*
X126915462Y-99348136D01*
X126915461Y-99348134D01*
X126915461Y-99348132D01*
X126857146Y-99233682D01*
X126857144Y-99233680D01*
X126857141Y-99233676D01*
X126766323Y-99142858D01*
X126766319Y-99142855D01*
X126766318Y-99142854D01*
X126651868Y-99084539D01*
X126651866Y-99084538D01*
X126651863Y-99084537D01*
X126525002Y-99064445D01*
X126524998Y-99064445D01*
X126398136Y-99084537D01*
X126283680Y-99142855D01*
X126283676Y-99142858D01*
X126192858Y-99233676D01*
X126192855Y-99233680D01*
X126134537Y-99348136D01*
X126114445Y-99474997D01*
X126114445Y-99475002D01*
X124390459Y-99475002D01*
X124440461Y-99376868D01*
X124445012Y-99348136D01*
X124460555Y-99250002D01*
X124460555Y-99249997D01*
X124440462Y-99123136D01*
X124440461Y-99123134D01*
X124440461Y-99123132D01*
X124382146Y-99008682D01*
X124382144Y-99008680D01*
X124382141Y-99008676D01*
X124291323Y-98917858D01*
X124291319Y-98917855D01*
X124291318Y-98917854D01*
X124207216Y-98875002D01*
X129489445Y-98875002D01*
X129509537Y-99001863D01*
X129509538Y-99001866D01*
X129509539Y-99001868D01*
X129555901Y-99092858D01*
X129567855Y-99116319D01*
X129567858Y-99116323D01*
X129658676Y-99207141D01*
X129658680Y-99207144D01*
X129658682Y-99207146D01*
X129773132Y-99265461D01*
X129773134Y-99265461D01*
X129773136Y-99265462D01*
X129899998Y-99285555D01*
X129900000Y-99285555D01*
X129900002Y-99285555D01*
X130026863Y-99265462D01*
X130026863Y-99265461D01*
X130026868Y-99265461D01*
X130141318Y-99207146D01*
X130232146Y-99116318D01*
X130290461Y-99001868D01*
X130300260Y-98940000D01*
X135749534Y-98940000D01*
X135769312Y-99090234D01*
X135769313Y-99090236D01*
X135827302Y-99230233D01*
X135919549Y-99350451D01*
X136039767Y-99442698D01*
X136179764Y-99500687D01*
X136292280Y-99515500D01*
X136292287Y-99515500D01*
X136367713Y-99515500D01*
X136367720Y-99515500D01*
X136480236Y-99500687D01*
X136620233Y-99442698D01*
X136740451Y-99350451D01*
X136832698Y-99230233D01*
X136890687Y-99090236D01*
X136910466Y-98940000D01*
X136907550Y-98917854D01*
X136890687Y-98789765D01*
X136890687Y-98789764D01*
X136832698Y-98649767D01*
X136740451Y-98529549D01*
X136620233Y-98437302D01*
X136620229Y-98437300D01*
X136487075Y-98382146D01*
X136480236Y-98379313D01*
X136457882Y-98376370D01*
X136367727Y-98364500D01*
X136367720Y-98364500D01*
X136292280Y-98364500D01*
X136292272Y-98364500D01*
X136179764Y-98379313D01*
X136179763Y-98379313D01*
X136039770Y-98437300D01*
X136039767Y-98437301D01*
X136039767Y-98437302D01*
X135978207Y-98484539D01*
X135919549Y-98529549D01*
X135827300Y-98649770D01*
X135769313Y-98789763D01*
X135769312Y-98789765D01*
X135749534Y-98939999D01*
X135749534Y-98940000D01*
X130300260Y-98940000D01*
X130303767Y-98917858D01*
X130310555Y-98875002D01*
X130310555Y-98874997D01*
X130290462Y-98748136D01*
X130290461Y-98748134D01*
X130290461Y-98748132D01*
X130232146Y-98633682D01*
X130232144Y-98633680D01*
X130232141Y-98633676D01*
X130141323Y-98542858D01*
X130141319Y-98542855D01*
X130141318Y-98542854D01*
X130026868Y-98484539D01*
X130026866Y-98484538D01*
X130026863Y-98484537D01*
X129900002Y-98464445D01*
X129899998Y-98464445D01*
X129773136Y-98484537D01*
X129658680Y-98542855D01*
X129658676Y-98542858D01*
X129567858Y-98633676D01*
X129567855Y-98633680D01*
X129509537Y-98748136D01*
X129489445Y-98874997D01*
X129489445Y-98875002D01*
X124207216Y-98875002D01*
X124176868Y-98859539D01*
X124176866Y-98859538D01*
X124176863Y-98859537D01*
X124050002Y-98839445D01*
X124049998Y-98839445D01*
X123923136Y-98859537D01*
X123808680Y-98917855D01*
X123808676Y-98917858D01*
X123717858Y-99008676D01*
X123717855Y-99008680D01*
X123659537Y-99123136D01*
X123639445Y-99249997D01*
X123639445Y-99250002D01*
X122372500Y-99250002D01*
X122372500Y-98652844D01*
X122392185Y-98585805D01*
X122444989Y-98540050D01*
X122514147Y-98530106D01*
X122552789Y-98542357D01*
X122598132Y-98565461D01*
X122598133Y-98565461D01*
X122598135Y-98565462D01*
X122724998Y-98585555D01*
X122725000Y-98585555D01*
X122725002Y-98585555D01*
X122851863Y-98565462D01*
X122851863Y-98565461D01*
X122851868Y-98565461D01*
X122966318Y-98507146D01*
X123057146Y-98416318D01*
X123115461Y-98301868D01*
X123118585Y-98282144D01*
X123135555Y-98175002D01*
X123135555Y-98174997D01*
X123115462Y-98048136D01*
X123115461Y-98048134D01*
X123115461Y-98048132D01*
X123057146Y-97933682D01*
X123057144Y-97933680D01*
X123057141Y-97933676D01*
X122966323Y-97842858D01*
X122966319Y-97842855D01*
X122966318Y-97842854D01*
X122851868Y-97784539D01*
X122851866Y-97784538D01*
X122851863Y-97784537D01*
X122725002Y-97764445D01*
X122724998Y-97764445D01*
X122598136Y-97784537D01*
X122598132Y-97784538D01*
X122598132Y-97784539D01*
X122552792Y-97807640D01*
X122484125Y-97820536D01*
X122419385Y-97794259D01*
X122379128Y-97737153D01*
X122372972Y-97700002D01*
X123989445Y-97700002D01*
X124009537Y-97826863D01*
X124009538Y-97826866D01*
X124009539Y-97826868D01*
X124067854Y-97941318D01*
X124067855Y-97941319D01*
X124067858Y-97941323D01*
X124158676Y-98032141D01*
X124158680Y-98032144D01*
X124158682Y-98032146D01*
X124273132Y-98090461D01*
X124273134Y-98090461D01*
X124273136Y-98090462D01*
X124399998Y-98110555D01*
X124400000Y-98110555D01*
X124400002Y-98110555D01*
X124526863Y-98090462D01*
X124526863Y-98090461D01*
X124526868Y-98090461D01*
X124606274Y-98050002D01*
X125889445Y-98050002D01*
X125909537Y-98176863D01*
X125909538Y-98176866D01*
X125909539Y-98176868D01*
X125963180Y-98282144D01*
X125967855Y-98291319D01*
X125967858Y-98291323D01*
X126058676Y-98382141D01*
X126058680Y-98382144D01*
X126058682Y-98382146D01*
X126173132Y-98440461D01*
X126173134Y-98440461D01*
X126173136Y-98440462D01*
X126299998Y-98460555D01*
X126300000Y-98460555D01*
X126300002Y-98460555D01*
X126426863Y-98440462D01*
X126426863Y-98440461D01*
X126426868Y-98440461D01*
X126541318Y-98382146D01*
X126632146Y-98291318D01*
X126690461Y-98176868D01*
X126690757Y-98175000D01*
X126710555Y-98050002D01*
X126710555Y-98049997D01*
X126694717Y-97950002D01*
X137814445Y-97950002D01*
X137834537Y-98076863D01*
X137834538Y-98076866D01*
X137834539Y-98076868D01*
X137892854Y-98191318D01*
X137892855Y-98191319D01*
X137892858Y-98191323D01*
X137983676Y-98282141D01*
X137983680Y-98282144D01*
X137983682Y-98282146D01*
X138098132Y-98340461D01*
X138098134Y-98340461D01*
X138098136Y-98340462D01*
X138224998Y-98360555D01*
X138225000Y-98360555D01*
X138225002Y-98360555D01*
X138351863Y-98340462D01*
X138351863Y-98340461D01*
X138351868Y-98340461D01*
X138466318Y-98282146D01*
X138557146Y-98191318D01*
X138615461Y-98076868D01*
X138619716Y-98050002D01*
X138635555Y-97950002D01*
X138635555Y-97949997D01*
X138615462Y-97823136D01*
X138615461Y-97823134D01*
X138615461Y-97823132D01*
X138557146Y-97708682D01*
X138557144Y-97708680D01*
X138557141Y-97708676D01*
X138466323Y-97617858D01*
X138466319Y-97617855D01*
X138466318Y-97617854D01*
X138351868Y-97559539D01*
X138351866Y-97559538D01*
X138351863Y-97559537D01*
X138225002Y-97539445D01*
X138224998Y-97539445D01*
X138098136Y-97559537D01*
X137983680Y-97617855D01*
X137983676Y-97617858D01*
X137892858Y-97708676D01*
X137892855Y-97708680D01*
X137892854Y-97708682D01*
X137849251Y-97794259D01*
X137834537Y-97823136D01*
X137814445Y-97949997D01*
X137814445Y-97950002D01*
X126694717Y-97950002D01*
X126690462Y-97923136D01*
X126690461Y-97923134D01*
X126690461Y-97923132D01*
X126632146Y-97808682D01*
X126632144Y-97808680D01*
X126632141Y-97808676D01*
X126541323Y-97717858D01*
X126541319Y-97717855D01*
X126541318Y-97717854D01*
X126426868Y-97659539D01*
X126426866Y-97659538D01*
X126426863Y-97659537D01*
X126300002Y-97639445D01*
X126299998Y-97639445D01*
X126173136Y-97659537D01*
X126058680Y-97717855D01*
X126058676Y-97717858D01*
X125967858Y-97808676D01*
X125967855Y-97808680D01*
X125909537Y-97923136D01*
X125889445Y-98049997D01*
X125889445Y-98050002D01*
X124606274Y-98050002D01*
X124641318Y-98032146D01*
X124732146Y-97941318D01*
X124790461Y-97826868D01*
X124791464Y-97820536D01*
X124810555Y-97700002D01*
X124810555Y-97699997D01*
X124790462Y-97573136D01*
X124790461Y-97573134D01*
X124790461Y-97573132D01*
X124732146Y-97458682D01*
X124732144Y-97458680D01*
X124732141Y-97458676D01*
X124641323Y-97367858D01*
X124641319Y-97367855D01*
X124641318Y-97367854D01*
X124526868Y-97309539D01*
X124526866Y-97309538D01*
X124526863Y-97309537D01*
X124400002Y-97289445D01*
X124399998Y-97289445D01*
X124273136Y-97309537D01*
X124158680Y-97367855D01*
X124158676Y-97367858D01*
X124067858Y-97458676D01*
X124067855Y-97458680D01*
X124009537Y-97573136D01*
X123989445Y-97699997D01*
X123989445Y-97700002D01*
X122372972Y-97700002D01*
X122372500Y-97697155D01*
X122372500Y-96627844D01*
X122392185Y-96560805D01*
X122444989Y-96515050D01*
X122514147Y-96505106D01*
X122552789Y-96517357D01*
X122598132Y-96540461D01*
X122598133Y-96540461D01*
X122598135Y-96540462D01*
X122724998Y-96560555D01*
X122725000Y-96560555D01*
X122725002Y-96560555D01*
X122851863Y-96540462D01*
X122851863Y-96540461D01*
X122851868Y-96540461D01*
X122966318Y-96482146D01*
X123057146Y-96391318D01*
X123115461Y-96276868D01*
X123119939Y-96248596D01*
X123135555Y-96150002D01*
X123135555Y-96149997D01*
X123115462Y-96023136D01*
X123115461Y-96023134D01*
X123115461Y-96023132D01*
X123057146Y-95908682D01*
X123057144Y-95908680D01*
X123057141Y-95908676D01*
X122998467Y-95850002D01*
X125664445Y-95850002D01*
X125684537Y-95976863D01*
X125684538Y-95976866D01*
X125684539Y-95976868D01*
X125742854Y-96091318D01*
X125742855Y-96091319D01*
X125742858Y-96091323D01*
X125833676Y-96182141D01*
X125833680Y-96182144D01*
X125833682Y-96182146D01*
X125948132Y-96240461D01*
X125999501Y-96248597D01*
X126062634Y-96278525D01*
X126099566Y-96337837D01*
X126098568Y-96407699D01*
X126072895Y-96450276D01*
X126073593Y-96450783D01*
X126067855Y-96458680D01*
X126067854Y-96458682D01*
X126025749Y-96541319D01*
X126009537Y-96573136D01*
X125989445Y-96699997D01*
X125989445Y-96700002D01*
X126009537Y-96826863D01*
X126009538Y-96826866D01*
X126009539Y-96826868D01*
X126067854Y-96941318D01*
X126067855Y-96941319D01*
X126067858Y-96941323D01*
X126158676Y-97032141D01*
X126158680Y-97032144D01*
X126158682Y-97032146D01*
X126273132Y-97090461D01*
X126273134Y-97090461D01*
X126273136Y-97090462D01*
X126399998Y-97110555D01*
X126400000Y-97110555D01*
X126400002Y-97110555D01*
X126526863Y-97090462D01*
X126526863Y-97090461D01*
X126526868Y-97090461D01*
X126641318Y-97032146D01*
X126732146Y-96941318D01*
X126790461Y-96826868D01*
X126790462Y-96826863D01*
X126810555Y-96700002D01*
X126810555Y-96699997D01*
X126790462Y-96573136D01*
X126790461Y-96573134D01*
X126790461Y-96573132D01*
X126732146Y-96458682D01*
X126732144Y-96458680D01*
X126732141Y-96458676D01*
X126641323Y-96367858D01*
X126641319Y-96367855D01*
X126641318Y-96367854D01*
X126526868Y-96309539D01*
X126526866Y-96309538D01*
X126526863Y-96309537D01*
X126475499Y-96301402D01*
X126472546Y-96300002D01*
X132214445Y-96300002D01*
X132234537Y-96426863D01*
X132234538Y-96426866D01*
X132234539Y-96426868D01*
X132292418Y-96540462D01*
X132292855Y-96541319D01*
X132292858Y-96541323D01*
X132383676Y-96632141D01*
X132383680Y-96632144D01*
X132383682Y-96632146D01*
X132498132Y-96690461D01*
X132498134Y-96690461D01*
X132498136Y-96690462D01*
X132624998Y-96710555D01*
X132625000Y-96710555D01*
X132625002Y-96710555D01*
X132751863Y-96690462D01*
X132751863Y-96690461D01*
X132751868Y-96690461D01*
X132866318Y-96632146D01*
X132957146Y-96541318D01*
X133015461Y-96426868D01*
X133021091Y-96391323D01*
X133035555Y-96300002D01*
X133035555Y-96299997D01*
X133015462Y-96173136D01*
X133015461Y-96173134D01*
X133015461Y-96173132D01*
X132957146Y-96058682D01*
X132957144Y-96058680D01*
X132957141Y-96058676D01*
X132866323Y-95967858D01*
X132866320Y-95967856D01*
X132866318Y-95967854D01*
X132765791Y-95916633D01*
X132714996Y-95868659D01*
X132698201Y-95800838D01*
X132720738Y-95734703D01*
X132768949Y-95696417D01*
X132768172Y-95694891D01*
X132776865Y-95690461D01*
X132776868Y-95690461D01*
X132891318Y-95632146D01*
X132982146Y-95541318D01*
X133040461Y-95426868D01*
X133040462Y-95426863D01*
X133052636Y-95350002D01*
X135989445Y-95350002D01*
X136009537Y-95476863D01*
X136009538Y-95476866D01*
X136009539Y-95476868D01*
X136067854Y-95591318D01*
X136067855Y-95591319D01*
X136067858Y-95591323D01*
X136158676Y-95682141D01*
X136158680Y-95682144D01*
X136158682Y-95682146D01*
X136273132Y-95740461D01*
X136273134Y-95740461D01*
X136273136Y-95740462D01*
X136399998Y-95760555D01*
X136400000Y-95760555D01*
X136400002Y-95760555D01*
X136526863Y-95740462D01*
X136526863Y-95740461D01*
X136526868Y-95740461D01*
X136641318Y-95682146D01*
X136732146Y-95591318D01*
X136790461Y-95476868D01*
X136796388Y-95439445D01*
X136810555Y-95350002D01*
X136810555Y-95349997D01*
X136790462Y-95223136D01*
X136790461Y-95223134D01*
X136790461Y-95223132D01*
X136732146Y-95108682D01*
X136732144Y-95108680D01*
X136727715Y-95099987D01*
X136729372Y-95099142D01*
X136709903Y-95044582D01*
X136725727Y-94976528D01*
X136731596Y-94967394D01*
X136732142Y-94966321D01*
X136732146Y-94966318D01*
X136790461Y-94851868D01*
X136806300Y-94751868D01*
X136810555Y-94725002D01*
X136810555Y-94724997D01*
X136790462Y-94598136D01*
X136790461Y-94598134D01*
X136790461Y-94598132D01*
X136732146Y-94483682D01*
X136732144Y-94483680D01*
X136732141Y-94483676D01*
X136641323Y-94392858D01*
X136641319Y-94392855D01*
X136641318Y-94392854D01*
X136526868Y-94334539D01*
X136526866Y-94334538D01*
X136526863Y-94334537D01*
X136400002Y-94314445D01*
X136399998Y-94314445D01*
X136273136Y-94334537D01*
X136158680Y-94392855D01*
X136158676Y-94392858D01*
X136067858Y-94483676D01*
X136067855Y-94483680D01*
X136009537Y-94598136D01*
X135989445Y-94724997D01*
X135989445Y-94725002D01*
X136009537Y-94851863D01*
X136009538Y-94851866D01*
X136009539Y-94851868D01*
X136067854Y-94966318D01*
X136067855Y-94966319D01*
X136072285Y-94975013D01*
X136070629Y-94975856D01*
X136090096Y-95030431D01*
X136074266Y-95098483D01*
X136068403Y-95107605D01*
X136009537Y-95223136D01*
X135989445Y-95349997D01*
X135989445Y-95350002D01*
X133052636Y-95350002D01*
X133060555Y-95300002D01*
X133060555Y-95299997D01*
X133040462Y-95173136D01*
X133040461Y-95173134D01*
X133040461Y-95173132D01*
X132982146Y-95058682D01*
X132982144Y-95058680D01*
X132982141Y-95058676D01*
X132891323Y-94967858D01*
X132891319Y-94967855D01*
X132891318Y-94967854D01*
X132776868Y-94909539D01*
X132776866Y-94909538D01*
X132776863Y-94909537D01*
X132650002Y-94889445D01*
X132649998Y-94889445D01*
X132523136Y-94909537D01*
X132408680Y-94967855D01*
X132408676Y-94967858D01*
X132317858Y-95058676D01*
X132317855Y-95058680D01*
X132259537Y-95173136D01*
X132239445Y-95299997D01*
X132239445Y-95300002D01*
X132259537Y-95426863D01*
X132259538Y-95426866D01*
X132259539Y-95426868D01*
X132305901Y-95517858D01*
X132317855Y-95541319D01*
X132317858Y-95541323D01*
X132408676Y-95632141D01*
X132408680Y-95632144D01*
X132408682Y-95632146D01*
X132509209Y-95683366D01*
X132560003Y-95731339D01*
X132576798Y-95799160D01*
X132554261Y-95865295D01*
X132506049Y-95903581D01*
X132506828Y-95905109D01*
X132498134Y-95909538D01*
X132498132Y-95909539D01*
X132386478Y-95966428D01*
X132383680Y-95967855D01*
X132383676Y-95967858D01*
X132292858Y-96058676D01*
X132292855Y-96058680D01*
X132234537Y-96173136D01*
X132214445Y-96299997D01*
X132214445Y-96300002D01*
X126472546Y-96300002D01*
X126412364Y-96271472D01*
X126375433Y-96212161D01*
X126376431Y-96142298D01*
X126402105Y-96099724D01*
X126401407Y-96099217D01*
X126407141Y-96091322D01*
X126407146Y-96091318D01*
X126465461Y-95976868D01*
X126477069Y-95903581D01*
X126485555Y-95850002D01*
X126485555Y-95849997D01*
X126465462Y-95723136D01*
X126465461Y-95723134D01*
X126465461Y-95723132D01*
X126407146Y-95608682D01*
X126407144Y-95608680D01*
X126407141Y-95608676D01*
X126316323Y-95517858D01*
X126316319Y-95517855D01*
X126316318Y-95517854D01*
X126201868Y-95459539D01*
X126201866Y-95459538D01*
X126201863Y-95459537D01*
X126075002Y-95439445D01*
X126074998Y-95439445D01*
X125948136Y-95459537D01*
X125833680Y-95517855D01*
X125833676Y-95517858D01*
X125742858Y-95608676D01*
X125742855Y-95608680D01*
X125684537Y-95723136D01*
X125664445Y-95849997D01*
X125664445Y-95850002D01*
X122998467Y-95850002D01*
X122966323Y-95817858D01*
X122966319Y-95817855D01*
X122966318Y-95817854D01*
X122851868Y-95759539D01*
X122851866Y-95759538D01*
X122851863Y-95759537D01*
X122725002Y-95739445D01*
X122724998Y-95739445D01*
X122598136Y-95759537D01*
X122598132Y-95759538D01*
X122598132Y-95759539D01*
X122552792Y-95782640D01*
X122484125Y-95795536D01*
X122419385Y-95769259D01*
X122379128Y-95712153D01*
X122372500Y-95672155D01*
X122372500Y-94625002D01*
X127389445Y-94625002D01*
X127409537Y-94751863D01*
X127409538Y-94751866D01*
X127409539Y-94751868D01*
X127467854Y-94866318D01*
X127467855Y-94866319D01*
X127467858Y-94866323D01*
X127558676Y-94957141D01*
X127558680Y-94957144D01*
X127558682Y-94957146D01*
X127673132Y-95015461D01*
X127673134Y-95015461D01*
X127673136Y-95015462D01*
X127799998Y-95035555D01*
X127800000Y-95035555D01*
X127800002Y-95035555D01*
X127926863Y-95015462D01*
X127926863Y-95015461D01*
X127926868Y-95015461D01*
X128041318Y-94957146D01*
X128132146Y-94866318D01*
X128190461Y-94751868D01*
X128194716Y-94725002D01*
X128210555Y-94625002D01*
X128210555Y-94624997D01*
X128190462Y-94498136D01*
X128190461Y-94498134D01*
X128190461Y-94498132D01*
X128132146Y-94383682D01*
X128132144Y-94383680D01*
X128132141Y-94383676D01*
X128041323Y-94292858D01*
X128041319Y-94292855D01*
X128041318Y-94292854D01*
X127926868Y-94234539D01*
X127926866Y-94234538D01*
X127926863Y-94234537D01*
X127800002Y-94214445D01*
X127799998Y-94214445D01*
X127673136Y-94234537D01*
X127558680Y-94292855D01*
X127558676Y-94292858D01*
X127467858Y-94383676D01*
X127467855Y-94383680D01*
X127409537Y-94498136D01*
X127389445Y-94624997D01*
X127389445Y-94625002D01*
X122372500Y-94625002D01*
X122372500Y-94428321D01*
X122392185Y-94361282D01*
X122444989Y-94315527D01*
X122514147Y-94305583D01*
X122538570Y-94313326D01*
X122538856Y-94312447D01*
X122548130Y-94315460D01*
X122548132Y-94315461D01*
X122590421Y-94322159D01*
X122674998Y-94335555D01*
X122675000Y-94335555D01*
X122675002Y-94335555D01*
X122801863Y-94315462D01*
X122801863Y-94315461D01*
X122801868Y-94315461D01*
X122916318Y-94257146D01*
X123007146Y-94166318D01*
X123065461Y-94051868D01*
X123076504Y-93982146D01*
X123085555Y-93925002D01*
X123085555Y-93924997D01*
X123065462Y-93798136D01*
X123065461Y-93798134D01*
X123065461Y-93798132D01*
X123007146Y-93683682D01*
X123007144Y-93683680D01*
X123007141Y-93683676D01*
X122973467Y-93650002D01*
X123489445Y-93650002D01*
X123509537Y-93776863D01*
X123509538Y-93776866D01*
X123509539Y-93776868D01*
X123563180Y-93882144D01*
X123567855Y-93891319D01*
X123567858Y-93891323D01*
X123658676Y-93982141D01*
X123658680Y-93982144D01*
X123658682Y-93982146D01*
X123773132Y-94040461D01*
X123773134Y-94040461D01*
X123773136Y-94040462D01*
X123899998Y-94060555D01*
X123900000Y-94060555D01*
X123900002Y-94060555D01*
X124026863Y-94040462D01*
X124026863Y-94040461D01*
X124026868Y-94040461D01*
X124141318Y-93982146D01*
X124232146Y-93891318D01*
X124290461Y-93776868D01*
X124290997Y-93773484D01*
X124310555Y-93650002D01*
X124310555Y-93649997D01*
X124290462Y-93523136D01*
X124290461Y-93523134D01*
X124290461Y-93523132D01*
X124232146Y-93408682D01*
X124232144Y-93408680D01*
X124232141Y-93408676D01*
X124141323Y-93317858D01*
X124141319Y-93317855D01*
X124141318Y-93317854D01*
X124026868Y-93259539D01*
X124026866Y-93259538D01*
X124026863Y-93259537D01*
X123900002Y-93239445D01*
X123899998Y-93239445D01*
X123773136Y-93259537D01*
X123773132Y-93259538D01*
X123773132Y-93259539D01*
X123759818Y-93266323D01*
X123658680Y-93317855D01*
X123658676Y-93317858D01*
X123567858Y-93408676D01*
X123567855Y-93408680D01*
X123509537Y-93523136D01*
X123489445Y-93649997D01*
X123489445Y-93650002D01*
X122973467Y-93650002D01*
X122916323Y-93592858D01*
X122916319Y-93592855D01*
X122916318Y-93592854D01*
X122801868Y-93534539D01*
X122801866Y-93534538D01*
X122801863Y-93534537D01*
X122675002Y-93514445D01*
X122674998Y-93514445D01*
X122548133Y-93534538D01*
X122538856Y-93537553D01*
X122538008Y-93534943D01*
X122484103Y-93545057D01*
X122419368Y-93518769D01*
X122379121Y-93461655D01*
X122372500Y-93421678D01*
X122372500Y-92925002D01*
X124439445Y-92925002D01*
X124459537Y-93051863D01*
X124459538Y-93051866D01*
X124459539Y-93051868D01*
X124514635Y-93160000D01*
X124517855Y-93166319D01*
X124517858Y-93166323D01*
X124608676Y-93257141D01*
X124608678Y-93257142D01*
X124608682Y-93257146D01*
X124706396Y-93306933D01*
X124707957Y-93307729D01*
X124758753Y-93355704D01*
X124775548Y-93423525D01*
X124774136Y-93437605D01*
X124773546Y-93441331D01*
X124773546Y-93441340D01*
X124793638Y-93568201D01*
X124793639Y-93568204D01*
X124793640Y-93568206D01*
X124849006Y-93676868D01*
X124851956Y-93682657D01*
X124851959Y-93682661D01*
X124942777Y-93773479D01*
X124942781Y-93773482D01*
X124942783Y-93773484D01*
X125057233Y-93831799D01*
X125057235Y-93831799D01*
X125057237Y-93831800D01*
X125184099Y-93851893D01*
X125184101Y-93851893D01*
X125184103Y-93851893D01*
X125310964Y-93831800D01*
X125310964Y-93831799D01*
X125310969Y-93831799D01*
X125425419Y-93773484D01*
X125516247Y-93682656D01*
X125574562Y-93568206D01*
X125581176Y-93526440D01*
X125611105Y-93463308D01*
X125670417Y-93426376D01*
X125723048Y-93423367D01*
X125799998Y-93435555D01*
X125800000Y-93435555D01*
X125800002Y-93435555D01*
X125866630Y-93425002D01*
X126389445Y-93425002D01*
X126409537Y-93551863D01*
X126409538Y-93551866D01*
X126409539Y-93551868D01*
X126467854Y-93666318D01*
X126467855Y-93666319D01*
X126467858Y-93666323D01*
X126558676Y-93757141D01*
X126558680Y-93757144D01*
X126558682Y-93757146D01*
X126673132Y-93815461D01*
X126673134Y-93815461D01*
X126673136Y-93815462D01*
X126799998Y-93835555D01*
X126800000Y-93835555D01*
X126800002Y-93835555D01*
X126926863Y-93815462D01*
X126926863Y-93815461D01*
X126926868Y-93815461D01*
X127041318Y-93757146D01*
X127132146Y-93666318D01*
X127190461Y-93551868D01*
X127190757Y-93550002D01*
X127914445Y-93550002D01*
X127934537Y-93676863D01*
X127934538Y-93676866D01*
X127934539Y-93676868D01*
X127992854Y-93791318D01*
X127992855Y-93791319D01*
X127992858Y-93791323D01*
X128083676Y-93882141D01*
X128083680Y-93882144D01*
X128083682Y-93882146D01*
X128198132Y-93940461D01*
X128198134Y-93940461D01*
X128198136Y-93940462D01*
X128324998Y-93960555D01*
X128325000Y-93960555D01*
X128325002Y-93960555D01*
X128451863Y-93940462D01*
X128451863Y-93940461D01*
X128451868Y-93940461D01*
X128566318Y-93882146D01*
X128566323Y-93882141D01*
X128624819Y-93823646D01*
X128686142Y-93790161D01*
X128755834Y-93795145D01*
X128800181Y-93823646D01*
X128858676Y-93882141D01*
X128858680Y-93882144D01*
X128858682Y-93882146D01*
X128973132Y-93940461D01*
X128973134Y-93940461D01*
X128973136Y-93940462D01*
X129099998Y-93960555D01*
X129100000Y-93960555D01*
X129100002Y-93960555D01*
X129226863Y-93940462D01*
X129226863Y-93940461D01*
X129226868Y-93940461D01*
X129341318Y-93882146D01*
X129432146Y-93791318D01*
X129490461Y-93676868D01*
X129492705Y-93662699D01*
X129510555Y-93550002D01*
X129510555Y-93549997D01*
X129490462Y-93423136D01*
X129490461Y-93423134D01*
X129490461Y-93423132D01*
X129432146Y-93308682D01*
X129432144Y-93308680D01*
X129432141Y-93308676D01*
X129341323Y-93217858D01*
X129341319Y-93217855D01*
X129341318Y-93217854D01*
X129227773Y-93160000D01*
X135749534Y-93160000D01*
X135769312Y-93310234D01*
X135769313Y-93310236D01*
X135823617Y-93441338D01*
X135827302Y-93450233D01*
X135919549Y-93570451D01*
X136039767Y-93662698D01*
X136179764Y-93720687D01*
X136292280Y-93735500D01*
X136292287Y-93735500D01*
X136367713Y-93735500D01*
X136367720Y-93735500D01*
X136480236Y-93720687D01*
X136620233Y-93662698D01*
X136740451Y-93570451D01*
X136832698Y-93450233D01*
X136890687Y-93310236D01*
X136910466Y-93160000D01*
X136910465Y-93159998D01*
X136910547Y-93159381D01*
X136938813Y-93095484D01*
X136997138Y-93057013D01*
X137052884Y-93053093D01*
X137099998Y-93060555D01*
X137100000Y-93060555D01*
X137100002Y-93060555D01*
X137226863Y-93040462D01*
X137226863Y-93040461D01*
X137226868Y-93040461D01*
X137341318Y-92982146D01*
X137432146Y-92891318D01*
X137490461Y-92776868D01*
X137503767Y-92692858D01*
X137510555Y-92650002D01*
X137510555Y-92649997D01*
X137490462Y-92523136D01*
X137490461Y-92523134D01*
X137490461Y-92523132D01*
X137432146Y-92408682D01*
X137432144Y-92408680D01*
X137432141Y-92408676D01*
X137419410Y-92395945D01*
X137385925Y-92334622D01*
X137390909Y-92264930D01*
X137432781Y-92208997D01*
X137498245Y-92184580D01*
X137520986Y-92185555D01*
X137525000Y-92185555D01*
X137525002Y-92185555D01*
X137651863Y-92165462D01*
X137651863Y-92165461D01*
X137651868Y-92165461D01*
X137766318Y-92107146D01*
X137857146Y-92016318D01*
X137915461Y-91901868D01*
X137915462Y-91901863D01*
X137935555Y-91775002D01*
X137935555Y-91774997D01*
X137915462Y-91648136D01*
X137915461Y-91648134D01*
X137915461Y-91648132D01*
X137857146Y-91533682D01*
X137857144Y-91533680D01*
X137857141Y-91533676D01*
X137766323Y-91442858D01*
X137766319Y-91442855D01*
X137766318Y-91442854D01*
X137651868Y-91384539D01*
X137651866Y-91384538D01*
X137651863Y-91384537D01*
X137525002Y-91364445D01*
X137524998Y-91364445D01*
X137398136Y-91384537D01*
X137283680Y-91442855D01*
X137283676Y-91442858D01*
X137192858Y-91533676D01*
X137192855Y-91533680D01*
X137134537Y-91648136D01*
X137114445Y-91774997D01*
X137114445Y-91775002D01*
X137134537Y-91901863D01*
X137134538Y-91901866D01*
X137134539Y-91901868D01*
X137192854Y-92016318D01*
X137192855Y-92016319D01*
X137192858Y-92016323D01*
X137205589Y-92029054D01*
X137239074Y-92090377D01*
X137234090Y-92160069D01*
X137192218Y-92216002D01*
X137126754Y-92240419D01*
X137104008Y-92239445D01*
X137099998Y-92239445D01*
X136973136Y-92259537D01*
X136858680Y-92317855D01*
X136858676Y-92317858D01*
X136767858Y-92408676D01*
X136767855Y-92408680D01*
X136709537Y-92523135D01*
X136708704Y-92528400D01*
X136678774Y-92591534D01*
X136619462Y-92628465D01*
X136549600Y-92627467D01*
X136538779Y-92623562D01*
X136480239Y-92599314D01*
X136480237Y-92599313D01*
X136480236Y-92599313D01*
X136466171Y-92597461D01*
X136367727Y-92584500D01*
X136367720Y-92584500D01*
X136292280Y-92584500D01*
X136292272Y-92584500D01*
X136179764Y-92599313D01*
X136179763Y-92599313D01*
X136039770Y-92657300D01*
X136039767Y-92657301D01*
X136039767Y-92657302D01*
X135919549Y-92749549D01*
X135882977Y-92797211D01*
X135827300Y-92869770D01*
X135769313Y-93009763D01*
X135769312Y-93009765D01*
X135749534Y-93159999D01*
X135749534Y-93160000D01*
X129227773Y-93160000D01*
X129226868Y-93159539D01*
X129226866Y-93159538D01*
X129226863Y-93159537D01*
X129100002Y-93139445D01*
X129099998Y-93139445D01*
X128973136Y-93159537D01*
X128973132Y-93159538D01*
X128973132Y-93159539D01*
X128959818Y-93166323D01*
X128858680Y-93217855D01*
X128858676Y-93217858D01*
X128800181Y-93276354D01*
X128738858Y-93309839D01*
X128669166Y-93304855D01*
X128624819Y-93276354D01*
X128566323Y-93217858D01*
X128566319Y-93217855D01*
X128566318Y-93217854D01*
X128451868Y-93159539D01*
X128451866Y-93159538D01*
X128451863Y-93159537D01*
X128325002Y-93139445D01*
X128324998Y-93139445D01*
X128198136Y-93159537D01*
X128198132Y-93159538D01*
X128198132Y-93159539D01*
X128184818Y-93166323D01*
X128083680Y-93217855D01*
X128083676Y-93217858D01*
X127992858Y-93308676D01*
X127992855Y-93308680D01*
X127934537Y-93423136D01*
X127914445Y-93549997D01*
X127914445Y-93550002D01*
X127190757Y-93550002D01*
X127190757Y-93550000D01*
X127210555Y-93425002D01*
X127210555Y-93424997D01*
X127190462Y-93298136D01*
X127190461Y-93298134D01*
X127190461Y-93298132D01*
X127132146Y-93183682D01*
X127132144Y-93183680D01*
X127132141Y-93183676D01*
X127041323Y-93092858D01*
X127041319Y-93092855D01*
X127041318Y-93092854D01*
X126926868Y-93034539D01*
X126926866Y-93034538D01*
X126926863Y-93034537D01*
X126800002Y-93014445D01*
X126799998Y-93014445D01*
X126673136Y-93034537D01*
X126558680Y-93092855D01*
X126558676Y-93092858D01*
X126467858Y-93183676D01*
X126467855Y-93183680D01*
X126467854Y-93183682D01*
X126425749Y-93266319D01*
X126409537Y-93298136D01*
X126389445Y-93424997D01*
X126389445Y-93425002D01*
X125866630Y-93425002D01*
X125926863Y-93415462D01*
X125926863Y-93415461D01*
X125926868Y-93415461D01*
X126041318Y-93357146D01*
X126132146Y-93266318D01*
X126190461Y-93151868D01*
X126199208Y-93096644D01*
X126210555Y-93025002D01*
X126210555Y-93024997D01*
X126190462Y-92898136D01*
X126190461Y-92898134D01*
X126190461Y-92898132D01*
X126132146Y-92783682D01*
X126132144Y-92783680D01*
X126132141Y-92783676D01*
X126041323Y-92692858D01*
X126041319Y-92692855D01*
X126041318Y-92692854D01*
X125926868Y-92634539D01*
X125926866Y-92634538D01*
X125926863Y-92634537D01*
X125800002Y-92614445D01*
X125799998Y-92614445D01*
X125673136Y-92634537D01*
X125558680Y-92692855D01*
X125558676Y-92692858D01*
X125467858Y-92783676D01*
X125467853Y-92783683D01*
X125460960Y-92797212D01*
X125412985Y-92848007D01*
X125345164Y-92864802D01*
X125279029Y-92842264D01*
X125239992Y-92797212D01*
X125182146Y-92683682D01*
X125182144Y-92683680D01*
X125182141Y-92683676D01*
X125091323Y-92592858D01*
X125091319Y-92592855D01*
X125091318Y-92592854D01*
X124976868Y-92534539D01*
X124976866Y-92534538D01*
X124976863Y-92534537D01*
X124850002Y-92514445D01*
X124849998Y-92514445D01*
X124723136Y-92534537D01*
X124608680Y-92592855D01*
X124608676Y-92592858D01*
X124517858Y-92683676D01*
X124517855Y-92683680D01*
X124459537Y-92798136D01*
X124439445Y-92924997D01*
X124439445Y-92925002D01*
X122372500Y-92925002D01*
X122372500Y-92250002D01*
X128164445Y-92250002D01*
X128184537Y-92376863D01*
X128184538Y-92376866D01*
X128184539Y-92376868D01*
X128242854Y-92491318D01*
X128242855Y-92491319D01*
X128242858Y-92491323D01*
X128333676Y-92582141D01*
X128333680Y-92582144D01*
X128333682Y-92582146D01*
X128448132Y-92640461D01*
X128448134Y-92640461D01*
X128448136Y-92640462D01*
X128574998Y-92660555D01*
X128575000Y-92660555D01*
X128575002Y-92660555D01*
X128701863Y-92640462D01*
X128701863Y-92640461D01*
X128701868Y-92640461D01*
X128816318Y-92582146D01*
X128907146Y-92491318D01*
X128965461Y-92376868D01*
X128971227Y-92340462D01*
X128985555Y-92250002D01*
X128985555Y-92249997D01*
X128965462Y-92123136D01*
X128965461Y-92123134D01*
X128965461Y-92123132D01*
X128907146Y-92008682D01*
X128907144Y-92008680D01*
X128907141Y-92008676D01*
X128848467Y-91950002D01*
X130889445Y-91950002D01*
X130909537Y-92076863D01*
X130909538Y-92076866D01*
X130909539Y-92076868D01*
X130954680Y-92165462D01*
X130967855Y-92191319D01*
X130967858Y-92191323D01*
X131058676Y-92282141D01*
X131058680Y-92282144D01*
X131058682Y-92282146D01*
X131173132Y-92340461D01*
X131173134Y-92340461D01*
X131173136Y-92340462D01*
X131299998Y-92360555D01*
X131300000Y-92360555D01*
X131300002Y-92360555D01*
X131426863Y-92340462D01*
X131426863Y-92340461D01*
X131426868Y-92340461D01*
X131541318Y-92282146D01*
X131632146Y-92191318D01*
X131690461Y-92076868D01*
X131698034Y-92029054D01*
X131710555Y-91950002D01*
X131710555Y-91949997D01*
X131690462Y-91823136D01*
X131690461Y-91823134D01*
X131690461Y-91823132D01*
X131632146Y-91708682D01*
X131632144Y-91708680D01*
X131632141Y-91708676D01*
X131541323Y-91617858D01*
X131541319Y-91617855D01*
X131541318Y-91617854D01*
X131426868Y-91559539D01*
X131426866Y-91559538D01*
X131426863Y-91559537D01*
X131300002Y-91539445D01*
X131299998Y-91539445D01*
X131173136Y-91559537D01*
X131058680Y-91617855D01*
X131058676Y-91617858D01*
X130967858Y-91708676D01*
X130967855Y-91708680D01*
X130909537Y-91823136D01*
X130889445Y-91949997D01*
X130889445Y-91950002D01*
X128848467Y-91950002D01*
X128816323Y-91917858D01*
X128816319Y-91917855D01*
X128816318Y-91917854D01*
X128701868Y-91859539D01*
X128701866Y-91859538D01*
X128701863Y-91859537D01*
X128575002Y-91839445D01*
X128574998Y-91839445D01*
X128448136Y-91859537D01*
X128333680Y-91917855D01*
X128333676Y-91917858D01*
X128242858Y-92008676D01*
X128242855Y-92008680D01*
X128184537Y-92123136D01*
X128164445Y-92249997D01*
X128164445Y-92250002D01*
X122372500Y-92250002D01*
X122372500Y-90775002D01*
X139489445Y-90775002D01*
X139509537Y-90901863D01*
X139509538Y-90901866D01*
X139509539Y-90901868D01*
X139567854Y-91016318D01*
X139567855Y-91016319D01*
X139567858Y-91016323D01*
X139658676Y-91107141D01*
X139658680Y-91107144D01*
X139658682Y-91107146D01*
X139773132Y-91165461D01*
X139773134Y-91165461D01*
X139773136Y-91165462D01*
X139899998Y-91185555D01*
X139900000Y-91185555D01*
X139900002Y-91185555D01*
X140026863Y-91165462D01*
X140026863Y-91165461D01*
X140026868Y-91165461D01*
X140141318Y-91107146D01*
X140232146Y-91016318D01*
X140290461Y-90901868D01*
X140310555Y-90775000D01*
X140290461Y-90648132D01*
X140232146Y-90533682D01*
X140232144Y-90533680D01*
X140232141Y-90533676D01*
X140141323Y-90442858D01*
X140141319Y-90442855D01*
X140141318Y-90442854D01*
X140026868Y-90384539D01*
X140026866Y-90384538D01*
X140026863Y-90384537D01*
X139900002Y-90364445D01*
X139899998Y-90364445D01*
X139773136Y-90384537D01*
X139773132Y-90384538D01*
X139773132Y-90384539D01*
X139759818Y-90391323D01*
X139658680Y-90442855D01*
X139658676Y-90442858D01*
X139567858Y-90533676D01*
X139567855Y-90533680D01*
X139509537Y-90648136D01*
X139489445Y-90774997D01*
X139489445Y-90775002D01*
X122372500Y-90775002D01*
X122372500Y-89750002D01*
X124189445Y-89750002D01*
X124209537Y-89876863D01*
X124209538Y-89876866D01*
X124209539Y-89876868D01*
X124254680Y-89965462D01*
X124267855Y-89991319D01*
X124267858Y-89991323D01*
X124358676Y-90082141D01*
X124358680Y-90082144D01*
X124358682Y-90082146D01*
X124473132Y-90140461D01*
X124473134Y-90140461D01*
X124473136Y-90140462D01*
X124599998Y-90160555D01*
X124600000Y-90160555D01*
X124600002Y-90160555D01*
X124666630Y-90150002D01*
X137879445Y-90150002D01*
X137899537Y-90276863D01*
X137899538Y-90276866D01*
X137899539Y-90276868D01*
X137944162Y-90364445D01*
X137957855Y-90391319D01*
X137957858Y-90391323D01*
X138048676Y-90482141D01*
X138048680Y-90482144D01*
X138048682Y-90482146D01*
X138163132Y-90540461D01*
X138163134Y-90540461D01*
X138163136Y-90540462D01*
X138289998Y-90560555D01*
X138290000Y-90560555D01*
X138290002Y-90560555D01*
X138416863Y-90540462D01*
X138416863Y-90540461D01*
X138416868Y-90540461D01*
X138531318Y-90482146D01*
X138622146Y-90391318D01*
X138680461Y-90276868D01*
X138680462Y-90276863D01*
X138700555Y-90150002D01*
X138700555Y-90149997D01*
X138680462Y-90023136D01*
X138680461Y-90023134D01*
X138680461Y-90023132D01*
X138622146Y-89908682D01*
X138622144Y-89908680D01*
X138622141Y-89908676D01*
X138531323Y-89817858D01*
X138531319Y-89817855D01*
X138531318Y-89817854D01*
X138416868Y-89759539D01*
X138416866Y-89759538D01*
X138416863Y-89759537D01*
X138290002Y-89739445D01*
X138289998Y-89739445D01*
X138163136Y-89759537D01*
X138048680Y-89817855D01*
X138048676Y-89817858D01*
X137957858Y-89908676D01*
X137957855Y-89908680D01*
X137957854Y-89908682D01*
X137915749Y-89991319D01*
X137899537Y-90023136D01*
X137879445Y-90149997D01*
X137879445Y-90150002D01*
X124666630Y-90150002D01*
X124726863Y-90140462D01*
X124726863Y-90140461D01*
X124726868Y-90140461D01*
X124841318Y-90082146D01*
X124932146Y-89991318D01*
X124990461Y-89876868D01*
X124990462Y-89876863D01*
X125010555Y-89750002D01*
X125010555Y-89749997D01*
X124990462Y-89623136D01*
X124990461Y-89623134D01*
X124990461Y-89623132D01*
X124965938Y-89575002D01*
X126264445Y-89575002D01*
X126284537Y-89701863D01*
X126284538Y-89701866D01*
X126284539Y-89701868D01*
X126313923Y-89759537D01*
X126342855Y-89816319D01*
X126342858Y-89816323D01*
X126433676Y-89907141D01*
X126433680Y-89907144D01*
X126433682Y-89907146D01*
X126548132Y-89965461D01*
X126548134Y-89965461D01*
X126548136Y-89965462D01*
X126674998Y-89985555D01*
X126675000Y-89985555D01*
X126675002Y-89985555D01*
X126801863Y-89965462D01*
X126801863Y-89965461D01*
X126801868Y-89965461D01*
X126916318Y-89907146D01*
X127007146Y-89816318D01*
X127065461Y-89701868D01*
X127065462Y-89701863D01*
X127085555Y-89575002D01*
X127085555Y-89574997D01*
X127065462Y-89448136D01*
X127065461Y-89448134D01*
X127065461Y-89448132D01*
X127007146Y-89333682D01*
X127007144Y-89333680D01*
X127007141Y-89333676D01*
X126916323Y-89242858D01*
X126916319Y-89242855D01*
X126916318Y-89242854D01*
X126801868Y-89184539D01*
X126801866Y-89184538D01*
X126801863Y-89184537D01*
X126675002Y-89164445D01*
X126674998Y-89164445D01*
X126548136Y-89184537D01*
X126433680Y-89242855D01*
X126433676Y-89242858D01*
X126342858Y-89333676D01*
X126342855Y-89333680D01*
X126284537Y-89448136D01*
X126264445Y-89574997D01*
X126264445Y-89575002D01*
X124965938Y-89575002D01*
X124932146Y-89508682D01*
X124932144Y-89508680D01*
X124932141Y-89508676D01*
X124841323Y-89417858D01*
X124841319Y-89417855D01*
X124841318Y-89417854D01*
X124726868Y-89359539D01*
X124726866Y-89359538D01*
X124726863Y-89359537D01*
X124600002Y-89339445D01*
X124599998Y-89339445D01*
X124473136Y-89359537D01*
X124358680Y-89417855D01*
X124358676Y-89417858D01*
X124267858Y-89508676D01*
X124267855Y-89508680D01*
X124209537Y-89623136D01*
X124189445Y-89749997D01*
X124189445Y-89750002D01*
X122372500Y-89750002D01*
X122372500Y-89150002D01*
X138364445Y-89150002D01*
X138384537Y-89276863D01*
X138384538Y-89276866D01*
X138384539Y-89276868D01*
X138426661Y-89359537D01*
X138442855Y-89391319D01*
X138442858Y-89391323D01*
X138533676Y-89482141D01*
X138533680Y-89482144D01*
X138533682Y-89482146D01*
X138648132Y-89540461D01*
X138648134Y-89540461D01*
X138648136Y-89540462D01*
X138774998Y-89560555D01*
X138775000Y-89560555D01*
X138775002Y-89560555D01*
X138901865Y-89540462D01*
X138911147Y-89537446D01*
X138911932Y-89539862D01*
X138966505Y-89529601D01*
X139031251Y-89555863D01*
X139041839Y-89565304D01*
X139133676Y-89657141D01*
X139133680Y-89657144D01*
X139133682Y-89657146D01*
X139248132Y-89715461D01*
X139248134Y-89715461D01*
X139248136Y-89715462D01*
X139374998Y-89735555D01*
X139375000Y-89735555D01*
X139375002Y-89735555D01*
X139501863Y-89715462D01*
X139501863Y-89715461D01*
X139501868Y-89715461D01*
X139616318Y-89657146D01*
X139707146Y-89566318D01*
X139765461Y-89451868D01*
X139770848Y-89417855D01*
X139785555Y-89325002D01*
X139785555Y-89324997D01*
X139765462Y-89198136D01*
X139765461Y-89198134D01*
X139765461Y-89198132D01*
X139707146Y-89083682D01*
X139707144Y-89083680D01*
X139707141Y-89083676D01*
X139616323Y-88992858D01*
X139616319Y-88992855D01*
X139616318Y-88992854D01*
X139501868Y-88934539D01*
X139501866Y-88934538D01*
X139501863Y-88934537D01*
X139375002Y-88914445D01*
X139374998Y-88914445D01*
X139248130Y-88934538D01*
X139238850Y-88937554D01*
X139238066Y-88935143D01*
X139183441Y-88945391D01*
X139118705Y-88919102D01*
X139108159Y-88909694D01*
X139016323Y-88817858D01*
X139016319Y-88817855D01*
X139016318Y-88817854D01*
X138901868Y-88759539D01*
X138901866Y-88759538D01*
X138901863Y-88759537D01*
X138775002Y-88739445D01*
X138774998Y-88739445D01*
X138648136Y-88759537D01*
X138533680Y-88817855D01*
X138533676Y-88817858D01*
X138442858Y-88908676D01*
X138442855Y-88908680D01*
X138384537Y-89023136D01*
X138364445Y-89149997D01*
X138364445Y-89150002D01*
X122372500Y-89150002D01*
X122372500Y-88976279D01*
X122392185Y-88909240D01*
X122444989Y-88863485D01*
X122514147Y-88853541D01*
X122577703Y-88882566D01*
X122606982Y-88919981D01*
X122617854Y-88941318D01*
X122617855Y-88941319D01*
X122617858Y-88941323D01*
X122708676Y-89032141D01*
X122708680Y-89032144D01*
X122708682Y-89032146D01*
X122823132Y-89090461D01*
X122823134Y-89090461D01*
X122823136Y-89090462D01*
X122949998Y-89110555D01*
X122950000Y-89110555D01*
X122950002Y-89110555D01*
X123076863Y-89090462D01*
X123076863Y-89090461D01*
X123076868Y-89090461D01*
X123191318Y-89032146D01*
X123282146Y-88941318D01*
X123340461Y-88826868D01*
X123346227Y-88790462D01*
X123360555Y-88700002D01*
X123360555Y-88699997D01*
X123340462Y-88573136D01*
X123340461Y-88573134D01*
X123340461Y-88573132D01*
X123303200Y-88500002D01*
X131489445Y-88500002D01*
X131509537Y-88626863D01*
X131509538Y-88626866D01*
X131509539Y-88626868D01*
X131563180Y-88732144D01*
X131567855Y-88741319D01*
X131567858Y-88741323D01*
X131658676Y-88832141D01*
X131658680Y-88832144D01*
X131658682Y-88832146D01*
X131773132Y-88890461D01*
X131773134Y-88890461D01*
X131773136Y-88890462D01*
X131899998Y-88910555D01*
X131900000Y-88910555D01*
X131900002Y-88910555D01*
X132026863Y-88890462D01*
X132026863Y-88890461D01*
X132026868Y-88890461D01*
X132141318Y-88832146D01*
X132232146Y-88741318D01*
X132290461Y-88626868D01*
X132290462Y-88626863D01*
X132310555Y-88500002D01*
X132310555Y-88499997D01*
X132294717Y-88400002D01*
X139914445Y-88400002D01*
X139934537Y-88526863D01*
X139934538Y-88526866D01*
X139934539Y-88526868D01*
X139992854Y-88641318D01*
X139992855Y-88641319D01*
X139992858Y-88641323D01*
X140083676Y-88732141D01*
X140083680Y-88732144D01*
X140083682Y-88732146D01*
X140198132Y-88790461D01*
X140198134Y-88790461D01*
X140198136Y-88790462D01*
X140324998Y-88810555D01*
X140325000Y-88810555D01*
X140325002Y-88810555D01*
X140451863Y-88790462D01*
X140451863Y-88790461D01*
X140451868Y-88790461D01*
X140566318Y-88732146D01*
X140657146Y-88641318D01*
X140715461Y-88526868D01*
X140719716Y-88500002D01*
X140727027Y-88453846D01*
X140753652Y-88397680D01*
X140730523Y-88361690D01*
X140727027Y-88346153D01*
X140715462Y-88273136D01*
X140715461Y-88273134D01*
X140715461Y-88273132D01*
X140657146Y-88158682D01*
X140657144Y-88158680D01*
X140657141Y-88158676D01*
X140566323Y-88067858D01*
X140566319Y-88067855D01*
X140566318Y-88067854D01*
X140451868Y-88009539D01*
X140451866Y-88009538D01*
X140451863Y-88009537D01*
X140325002Y-87989445D01*
X140324998Y-87989445D01*
X140198136Y-88009537D01*
X140083680Y-88067855D01*
X140083676Y-88067858D01*
X139992858Y-88158676D01*
X139992855Y-88158680D01*
X139934537Y-88273136D01*
X139914445Y-88399997D01*
X139914445Y-88400002D01*
X132294717Y-88400002D01*
X132290462Y-88373136D01*
X132290461Y-88373134D01*
X132290461Y-88373132D01*
X132232146Y-88258682D01*
X132232144Y-88258680D01*
X132232141Y-88258676D01*
X132141323Y-88167858D01*
X132141319Y-88167855D01*
X132141318Y-88167854D01*
X132026868Y-88109539D01*
X132026866Y-88109538D01*
X132026863Y-88109537D01*
X131900002Y-88089445D01*
X131899998Y-88089445D01*
X131773136Y-88109537D01*
X131658680Y-88167855D01*
X131658676Y-88167858D01*
X131567858Y-88258676D01*
X131567855Y-88258680D01*
X131509537Y-88373136D01*
X131489445Y-88499997D01*
X131489445Y-88500002D01*
X123303200Y-88500002D01*
X123282146Y-88458682D01*
X123282144Y-88458680D01*
X123282141Y-88458676D01*
X123223645Y-88400180D01*
X123190160Y-88338857D01*
X123195144Y-88269165D01*
X123223645Y-88224818D01*
X123257146Y-88191318D01*
X123315461Y-88076868D01*
X123321091Y-88041323D01*
X123335555Y-87950002D01*
X123335555Y-87949997D01*
X123315462Y-87823136D01*
X123315461Y-87823134D01*
X123315461Y-87823132D01*
X123303676Y-87800002D01*
X130289445Y-87800002D01*
X130309537Y-87926863D01*
X130309538Y-87926866D01*
X130309539Y-87926868D01*
X130367418Y-88040462D01*
X130367855Y-88041319D01*
X130367858Y-88041323D01*
X130458676Y-88132141D01*
X130458680Y-88132144D01*
X130458682Y-88132146D01*
X130573132Y-88190461D01*
X130573134Y-88190461D01*
X130573136Y-88190462D01*
X130699998Y-88210555D01*
X130700000Y-88210555D01*
X130700002Y-88210555D01*
X130826863Y-88190462D01*
X130826863Y-88190461D01*
X130826868Y-88190461D01*
X130941318Y-88132146D01*
X131032146Y-88041318D01*
X131090461Y-87926868D01*
X131096091Y-87891323D01*
X131110555Y-87800002D01*
X131110555Y-87799997D01*
X131090462Y-87673136D01*
X131090461Y-87673134D01*
X131090461Y-87673132D01*
X131078676Y-87650002D01*
X135839445Y-87650002D01*
X135859537Y-87776863D01*
X135859538Y-87776866D01*
X135859539Y-87776868D01*
X135883112Y-87823132D01*
X135917855Y-87891319D01*
X135917858Y-87891323D01*
X136008676Y-87982141D01*
X136008680Y-87982144D01*
X136008682Y-87982146D01*
X136123132Y-88040461D01*
X136123134Y-88040461D01*
X136123136Y-88040462D01*
X136249998Y-88060555D01*
X136250000Y-88060555D01*
X136250002Y-88060555D01*
X136376863Y-88040462D01*
X136376863Y-88040461D01*
X136376868Y-88040461D01*
X136491318Y-87982146D01*
X136582146Y-87891318D01*
X136640461Y-87776868D01*
X136640462Y-87776863D01*
X136660555Y-87650002D01*
X136660555Y-87649997D01*
X136640462Y-87523136D01*
X136640461Y-87523134D01*
X136640461Y-87523132D01*
X136582146Y-87408682D01*
X136582144Y-87408680D01*
X136582141Y-87408676D01*
X136491323Y-87317858D01*
X136491319Y-87317855D01*
X136491318Y-87317854D01*
X136376868Y-87259539D01*
X136376866Y-87259538D01*
X136376863Y-87259537D01*
X136250002Y-87239445D01*
X136249998Y-87239445D01*
X136123136Y-87259537D01*
X136008680Y-87317855D01*
X136008676Y-87317858D01*
X135917858Y-87408676D01*
X135917855Y-87408680D01*
X135859537Y-87523136D01*
X135839445Y-87649997D01*
X135839445Y-87650002D01*
X131078676Y-87650002D01*
X131032146Y-87558682D01*
X131032144Y-87558680D01*
X131032141Y-87558676D01*
X130941323Y-87467858D01*
X130941319Y-87467855D01*
X130941318Y-87467854D01*
X130826868Y-87409539D01*
X130826866Y-87409538D01*
X130826863Y-87409537D01*
X130700002Y-87389445D01*
X130699998Y-87389445D01*
X130573136Y-87409537D01*
X130458680Y-87467855D01*
X130458676Y-87467858D01*
X130367858Y-87558676D01*
X130367855Y-87558680D01*
X130309537Y-87673136D01*
X130289445Y-87799997D01*
X130289445Y-87800002D01*
X123303676Y-87800002D01*
X123257146Y-87708682D01*
X123257144Y-87708680D01*
X123257141Y-87708676D01*
X123166323Y-87617858D01*
X123166319Y-87617855D01*
X123166318Y-87617854D01*
X123051868Y-87559539D01*
X123051866Y-87559538D01*
X123051863Y-87559537D01*
X122925002Y-87539445D01*
X122924998Y-87539445D01*
X122798136Y-87559537D01*
X122683680Y-87617855D01*
X122683676Y-87617858D01*
X122585953Y-87715582D01*
X122583706Y-87713335D01*
X122541489Y-87745891D01*
X122471876Y-87751870D01*
X122410081Y-87719265D01*
X122375723Y-87658427D01*
X122372500Y-87630340D01*
X122372500Y-86901279D01*
X122392185Y-86834240D01*
X122444989Y-86788485D01*
X122514147Y-86778541D01*
X122577703Y-86807566D01*
X122606982Y-86844981D01*
X122617854Y-86866318D01*
X122617855Y-86866319D01*
X122617858Y-86866323D01*
X122708676Y-86957141D01*
X122708680Y-86957144D01*
X122708682Y-86957146D01*
X122823132Y-87015461D01*
X122823134Y-87015461D01*
X122823136Y-87015462D01*
X122949998Y-87035555D01*
X122950000Y-87035555D01*
X122950002Y-87035555D01*
X123076863Y-87015462D01*
X123076863Y-87015461D01*
X123076868Y-87015461D01*
X123191318Y-86957146D01*
X123198462Y-86950002D01*
X131289445Y-86950002D01*
X131309537Y-87076863D01*
X131309538Y-87076866D01*
X131309539Y-87076868D01*
X131367854Y-87191318D01*
X131367855Y-87191319D01*
X131367858Y-87191323D01*
X131458676Y-87282141D01*
X131458680Y-87282144D01*
X131458682Y-87282146D01*
X131573132Y-87340461D01*
X131573134Y-87340461D01*
X131573136Y-87340462D01*
X131699998Y-87360555D01*
X131700000Y-87360555D01*
X131700002Y-87360555D01*
X131826863Y-87340462D01*
X131826863Y-87340461D01*
X131826868Y-87340461D01*
X131941318Y-87282146D01*
X132032146Y-87191318D01*
X132090461Y-87076868D01*
X132094716Y-87050002D01*
X132108575Y-86962502D01*
X132751945Y-86962502D01*
X132772037Y-87089363D01*
X132772038Y-87089366D01*
X132772039Y-87089368D01*
X132823988Y-87191323D01*
X132830355Y-87203819D01*
X132830358Y-87203823D01*
X132921176Y-87294641D01*
X132921180Y-87294644D01*
X132921182Y-87294646D01*
X133035632Y-87352961D01*
X133035634Y-87352961D01*
X133035636Y-87352962D01*
X133162498Y-87373055D01*
X133162500Y-87373055D01*
X133162502Y-87373055D01*
X133289363Y-87352962D01*
X133289363Y-87352961D01*
X133289368Y-87352961D01*
X133403818Y-87294646D01*
X133494646Y-87203818D01*
X133552961Y-87089368D01*
X133559196Y-87050002D01*
X138739445Y-87050002D01*
X138759537Y-87176863D01*
X138759538Y-87176866D01*
X138759539Y-87176868D01*
X138813180Y-87282144D01*
X138817855Y-87291319D01*
X138817858Y-87291323D01*
X138908676Y-87382141D01*
X138908680Y-87382144D01*
X138908682Y-87382146D01*
X139023132Y-87440461D01*
X139023134Y-87440461D01*
X139023136Y-87440462D01*
X139149998Y-87460555D01*
X139150000Y-87460555D01*
X139150002Y-87460555D01*
X139276863Y-87440462D01*
X139276863Y-87440461D01*
X139276868Y-87440461D01*
X139391318Y-87382146D01*
X139425417Y-87348047D01*
X139486739Y-87314561D01*
X139556431Y-87319545D01*
X139612365Y-87361415D01*
X139623581Y-87379427D01*
X139667854Y-87466318D01*
X139667856Y-87466320D01*
X139667858Y-87466323D01*
X139758676Y-87557141D01*
X139758680Y-87557144D01*
X139758682Y-87557146D01*
X139873132Y-87615461D01*
X139873134Y-87615461D01*
X139873136Y-87615462D01*
X139999998Y-87635555D01*
X140000000Y-87635555D01*
X140000002Y-87635555D01*
X140126863Y-87615462D01*
X140126863Y-87615461D01*
X140126868Y-87615461D01*
X140241318Y-87557146D01*
X140332146Y-87466318D01*
X140390461Y-87351868D01*
X140392268Y-87340461D01*
X140410555Y-87225002D01*
X140410555Y-87224997D01*
X140390462Y-87098136D01*
X140390461Y-87098134D01*
X140390461Y-87098132D01*
X140332146Y-86983682D01*
X140332144Y-86983680D01*
X140332141Y-86983676D01*
X140241323Y-86892858D01*
X140241319Y-86892855D01*
X140241318Y-86892854D01*
X140126868Y-86834539D01*
X140126866Y-86834538D01*
X140126863Y-86834537D01*
X140000002Y-86814445D01*
X139999998Y-86814445D01*
X139873136Y-86834537D01*
X139758680Y-86892855D01*
X139758676Y-86892858D01*
X139724580Y-86926954D01*
X139663257Y-86960439D01*
X139593565Y-86955453D01*
X139537632Y-86913581D01*
X139526415Y-86895566D01*
X139482146Y-86808682D01*
X139482143Y-86808679D01*
X139482141Y-86808676D01*
X139391323Y-86717858D01*
X139391319Y-86717855D01*
X139391318Y-86717854D01*
X139276868Y-86659539D01*
X139276866Y-86659538D01*
X139276863Y-86659537D01*
X139150002Y-86639445D01*
X139149998Y-86639445D01*
X139023136Y-86659537D01*
X138908680Y-86717855D01*
X138908676Y-86717858D01*
X138817858Y-86808676D01*
X138817855Y-86808680D01*
X138759537Y-86923136D01*
X138739445Y-87049997D01*
X138739445Y-87050002D01*
X133559196Y-87050002D01*
X133573055Y-86962502D01*
X133573055Y-86962497D01*
X133552962Y-86835636D01*
X133552961Y-86835634D01*
X133552961Y-86835632D01*
X133494646Y-86721182D01*
X133494644Y-86721180D01*
X133494641Y-86721176D01*
X133403823Y-86630358D01*
X133403819Y-86630355D01*
X133403818Y-86630354D01*
X133289368Y-86572039D01*
X133289366Y-86572038D01*
X133289363Y-86572037D01*
X133162502Y-86551945D01*
X133162498Y-86551945D01*
X133035636Y-86572037D01*
X132921180Y-86630355D01*
X132921176Y-86630358D01*
X132830358Y-86721176D01*
X132830355Y-86721180D01*
X132772037Y-86835636D01*
X132751945Y-86962497D01*
X132751945Y-86962502D01*
X132108575Y-86962502D01*
X132110555Y-86950002D01*
X132110555Y-86949997D01*
X132090462Y-86823136D01*
X132090461Y-86823134D01*
X132090461Y-86823132D01*
X132032146Y-86708682D01*
X132032144Y-86708680D01*
X132032141Y-86708676D01*
X131941323Y-86617858D01*
X131941319Y-86617855D01*
X131941318Y-86617854D01*
X131826868Y-86559539D01*
X131826866Y-86559538D01*
X131826863Y-86559537D01*
X131700002Y-86539445D01*
X131699998Y-86539445D01*
X131573136Y-86559537D01*
X131458680Y-86617855D01*
X131458676Y-86617858D01*
X131367858Y-86708676D01*
X131367855Y-86708680D01*
X131309537Y-86823136D01*
X131289445Y-86949997D01*
X131289445Y-86950002D01*
X123198462Y-86950002D01*
X123282146Y-86866318D01*
X123340461Y-86751868D01*
X123345848Y-86717855D01*
X123360555Y-86625002D01*
X123360555Y-86624997D01*
X123340462Y-86498136D01*
X123340461Y-86498134D01*
X123340461Y-86498132D01*
X123282146Y-86383682D01*
X123282144Y-86383680D01*
X123282141Y-86383676D01*
X123191323Y-86292858D01*
X123191319Y-86292855D01*
X123191318Y-86292854D01*
X123076868Y-86234539D01*
X123076866Y-86234538D01*
X123076863Y-86234537D01*
X122950002Y-86214445D01*
X122949998Y-86214445D01*
X122823136Y-86234537D01*
X122708680Y-86292855D01*
X122708676Y-86292858D01*
X122617858Y-86383676D01*
X122617855Y-86383680D01*
X122617854Y-86383682D01*
X122606983Y-86405016D01*
X122559011Y-86455811D01*
X122491190Y-86472606D01*
X122425055Y-86450069D01*
X122381603Y-86395354D01*
X122372500Y-86348720D01*
X122372500Y-84650002D01*
X123514445Y-84650002D01*
X123534537Y-84776863D01*
X123534538Y-84776866D01*
X123534539Y-84776868D01*
X123583588Y-84873132D01*
X123592855Y-84891319D01*
X123592858Y-84891323D01*
X123683676Y-84982141D01*
X123683680Y-84982144D01*
X123683682Y-84982146D01*
X123798132Y-85040461D01*
X123798134Y-85040461D01*
X123798136Y-85040462D01*
X123924998Y-85060555D01*
X123925000Y-85060555D01*
X123925002Y-85060555D01*
X124051863Y-85040462D01*
X124051863Y-85040461D01*
X124051868Y-85040461D01*
X124166318Y-84982146D01*
X124257146Y-84891318D01*
X124315461Y-84776868D01*
X124316053Y-84773132D01*
X124335555Y-84650002D01*
X124335555Y-84649997D01*
X124331596Y-84625002D01*
X126539445Y-84625002D01*
X126559537Y-84751863D01*
X126559538Y-84751866D01*
X126559539Y-84751868D01*
X126617418Y-84865462D01*
X126617855Y-84866319D01*
X126617858Y-84866323D01*
X126708676Y-84957141D01*
X126708680Y-84957144D01*
X126708682Y-84957146D01*
X126823132Y-85015461D01*
X126823134Y-85015461D01*
X126823136Y-85015462D01*
X126949998Y-85035555D01*
X126950000Y-85035555D01*
X126950002Y-85035555D01*
X127076863Y-85015462D01*
X127076863Y-85015461D01*
X127076868Y-85015461D01*
X127107208Y-85000002D01*
X132089445Y-85000002D01*
X132109537Y-85126863D01*
X132109538Y-85126866D01*
X132109539Y-85126868D01*
X132163180Y-85232144D01*
X132167855Y-85241319D01*
X132167858Y-85241323D01*
X132258676Y-85332141D01*
X132258680Y-85332144D01*
X132258682Y-85332146D01*
X132373132Y-85390461D01*
X132373134Y-85390461D01*
X132373136Y-85390462D01*
X132499998Y-85410555D01*
X132500000Y-85410555D01*
X132500002Y-85410555D01*
X132626863Y-85390462D01*
X132626863Y-85390461D01*
X132626868Y-85390461D01*
X132741318Y-85332146D01*
X132762909Y-85310555D01*
X132812319Y-85261146D01*
X132873642Y-85227661D01*
X132943334Y-85232645D01*
X132987681Y-85261146D01*
X133058676Y-85332141D01*
X133058680Y-85332144D01*
X133058682Y-85332146D01*
X133173132Y-85390461D01*
X133173134Y-85390461D01*
X133173136Y-85390462D01*
X133299998Y-85410555D01*
X133300000Y-85410555D01*
X133300002Y-85410555D01*
X133426863Y-85390462D01*
X133426863Y-85390461D01*
X133426868Y-85390461D01*
X133541318Y-85332146D01*
X133562909Y-85310555D01*
X133612319Y-85261146D01*
X133673642Y-85227661D01*
X133743334Y-85232645D01*
X133787681Y-85261146D01*
X133858676Y-85332141D01*
X133858680Y-85332144D01*
X133858682Y-85332146D01*
X133973132Y-85390461D01*
X133973134Y-85390461D01*
X133973136Y-85390462D01*
X134099998Y-85410555D01*
X134100000Y-85410555D01*
X134100002Y-85410555D01*
X134226863Y-85390462D01*
X134226863Y-85390461D01*
X134226868Y-85390461D01*
X134341318Y-85332146D01*
X134432146Y-85241318D01*
X134490461Y-85126868D01*
X134500964Y-85060555D01*
X134510555Y-85000002D01*
X134510555Y-84999997D01*
X134490462Y-84873136D01*
X134490461Y-84873134D01*
X134490461Y-84873132D01*
X134432146Y-84758682D01*
X134432144Y-84758680D01*
X134432141Y-84758676D01*
X134341323Y-84667858D01*
X134341319Y-84667855D01*
X134341318Y-84667854D01*
X134226868Y-84609539D01*
X134226866Y-84609538D01*
X134226863Y-84609537D01*
X134100002Y-84589445D01*
X134099998Y-84589445D01*
X133973136Y-84609537D01*
X133858680Y-84667855D01*
X133858676Y-84667858D01*
X133787681Y-84738854D01*
X133726358Y-84772339D01*
X133656666Y-84767355D01*
X133612319Y-84738854D01*
X133541323Y-84667858D01*
X133541319Y-84667855D01*
X133541318Y-84667854D01*
X133426868Y-84609539D01*
X133426866Y-84609538D01*
X133426863Y-84609537D01*
X133300002Y-84589445D01*
X133299998Y-84589445D01*
X133173136Y-84609537D01*
X133058680Y-84667855D01*
X133058676Y-84667858D01*
X132987681Y-84738854D01*
X132926358Y-84772339D01*
X132856666Y-84767355D01*
X132812319Y-84738854D01*
X132741323Y-84667858D01*
X132741319Y-84667855D01*
X132741318Y-84667854D01*
X132626868Y-84609539D01*
X132626866Y-84609538D01*
X132626863Y-84609537D01*
X132500002Y-84589445D01*
X132499998Y-84589445D01*
X132373136Y-84609537D01*
X132258680Y-84667855D01*
X132258676Y-84667858D01*
X132167858Y-84758676D01*
X132167855Y-84758680D01*
X132109537Y-84873136D01*
X132089445Y-84999997D01*
X132089445Y-85000002D01*
X127107208Y-85000002D01*
X127191318Y-84957146D01*
X127282146Y-84866318D01*
X127340461Y-84751868D01*
X127345848Y-84717858D01*
X127360555Y-84625002D01*
X127360555Y-84624997D01*
X127340462Y-84498136D01*
X127340461Y-84498134D01*
X127340461Y-84498132D01*
X127328676Y-84475002D01*
X129814445Y-84475002D01*
X129834537Y-84601863D01*
X129834538Y-84601866D01*
X129834539Y-84601868D01*
X129892854Y-84716318D01*
X129892855Y-84716319D01*
X129892858Y-84716323D01*
X129983676Y-84807141D01*
X129983680Y-84807144D01*
X129983682Y-84807146D01*
X130098132Y-84865461D01*
X130098134Y-84865461D01*
X130098136Y-84865462D01*
X130224998Y-84885555D01*
X130225000Y-84885555D01*
X130225002Y-84885555D01*
X130351863Y-84865462D01*
X130351863Y-84865461D01*
X130351868Y-84865461D01*
X130466318Y-84807146D01*
X130557146Y-84716318D01*
X130615461Y-84601868D01*
X130617429Y-84589445D01*
X130635555Y-84475002D01*
X130635555Y-84474997D01*
X130615462Y-84348136D01*
X130615461Y-84348134D01*
X130615461Y-84348132D01*
X130590938Y-84300002D01*
X134689445Y-84300002D01*
X134709537Y-84426863D01*
X134709538Y-84426866D01*
X134709539Y-84426868D01*
X134741942Y-84490462D01*
X134767855Y-84541319D01*
X134767858Y-84541323D01*
X134858676Y-84632141D01*
X134858680Y-84632144D01*
X134858682Y-84632146D01*
X134973132Y-84690461D01*
X134973134Y-84690461D01*
X134973136Y-84690462D01*
X135099998Y-84710555D01*
X135100000Y-84710555D01*
X135100002Y-84710555D01*
X135226863Y-84690462D01*
X135226863Y-84690461D01*
X135226868Y-84690461D01*
X135341318Y-84632146D01*
X135432146Y-84541318D01*
X135465789Y-84475290D01*
X135995507Y-84475290D01*
X136015599Y-84602151D01*
X136015600Y-84602154D01*
X136015601Y-84602156D01*
X136073916Y-84716606D01*
X136164744Y-84807434D01*
X136164746Y-84807435D01*
X136164747Y-84807436D01*
X136166012Y-84808081D01*
X136167273Y-84809272D01*
X136172643Y-84813174D01*
X136172138Y-84813867D01*
X136216807Y-84856055D01*
X136233602Y-84923877D01*
X136232189Y-84937962D01*
X136214445Y-85049996D01*
X136214445Y-85050002D01*
X136234537Y-85176863D01*
X136234538Y-85176866D01*
X136234539Y-85176868D01*
X136292418Y-85290462D01*
X136292855Y-85291319D01*
X136292858Y-85291323D01*
X136383676Y-85382141D01*
X136383680Y-85382144D01*
X136383682Y-85382146D01*
X136498132Y-85440461D01*
X136498134Y-85440461D01*
X136498136Y-85440462D01*
X136624998Y-85460555D01*
X136625000Y-85460555D01*
X136625002Y-85460555D01*
X136751863Y-85440462D01*
X136751863Y-85440461D01*
X136751868Y-85440461D01*
X136866318Y-85382146D01*
X136957146Y-85291318D01*
X137015461Y-85176868D01*
X137021091Y-85141323D01*
X137035555Y-85050002D01*
X137035555Y-85049997D01*
X137015462Y-84923136D01*
X137015461Y-84923134D01*
X137015461Y-84923132D01*
X137003676Y-84900002D01*
X139514445Y-84900002D01*
X139534537Y-85026863D01*
X139534538Y-85026866D01*
X139534539Y-85026868D01*
X139592854Y-85141318D01*
X139592855Y-85141319D01*
X139592858Y-85141323D01*
X139683676Y-85232141D01*
X139683680Y-85232144D01*
X139683682Y-85232146D01*
X139798132Y-85290461D01*
X139798134Y-85290461D01*
X139798136Y-85290462D01*
X139924998Y-85310555D01*
X139925000Y-85310555D01*
X139925002Y-85310555D01*
X140051863Y-85290462D01*
X140051863Y-85290461D01*
X140051868Y-85290461D01*
X140166318Y-85232146D01*
X140257146Y-85141318D01*
X140315461Y-85026868D01*
X140319716Y-85000002D01*
X140335555Y-84900002D01*
X140335555Y-84899997D01*
X140315462Y-84773136D01*
X140315461Y-84773134D01*
X140315461Y-84773132D01*
X140257146Y-84658682D01*
X140257144Y-84658680D01*
X140257141Y-84658676D01*
X140166323Y-84567858D01*
X140166319Y-84567855D01*
X140166318Y-84567854D01*
X140051868Y-84509539D01*
X140051866Y-84509538D01*
X140051863Y-84509537D01*
X139925002Y-84489445D01*
X139924998Y-84489445D01*
X139798136Y-84509537D01*
X139683680Y-84567855D01*
X139683676Y-84567858D01*
X139592858Y-84658676D01*
X139592855Y-84658680D01*
X139534537Y-84773136D01*
X139514445Y-84899997D01*
X139514445Y-84900002D01*
X137003676Y-84900002D01*
X136957146Y-84808682D01*
X136957144Y-84808680D01*
X136957141Y-84808676D01*
X136866323Y-84717858D01*
X136866314Y-84717851D01*
X136865045Y-84717205D01*
X136863782Y-84716012D01*
X136858426Y-84712121D01*
X136858929Y-84711428D01*
X136814251Y-84669228D01*
X136797459Y-84601407D01*
X136798872Y-84587325D01*
X136816617Y-84475289D01*
X136816617Y-84475285D01*
X136796524Y-84348424D01*
X136796523Y-84348422D01*
X136796523Y-84348420D01*
X136738208Y-84233970D01*
X136738206Y-84233968D01*
X136738203Y-84233964D01*
X136647385Y-84143146D01*
X136647381Y-84143143D01*
X136647380Y-84143142D01*
X136532930Y-84084827D01*
X136532928Y-84084826D01*
X136532925Y-84084825D01*
X136406064Y-84064733D01*
X136406060Y-84064733D01*
X136279198Y-84084825D01*
X136164742Y-84143143D01*
X136164738Y-84143146D01*
X136073920Y-84233964D01*
X136073917Y-84233968D01*
X136015599Y-84348424D01*
X135995507Y-84475285D01*
X135995507Y-84475290D01*
X135465789Y-84475290D01*
X135490461Y-84426868D01*
X135490462Y-84426863D01*
X135510555Y-84300002D01*
X135510555Y-84299997D01*
X135490462Y-84173136D01*
X135490461Y-84173134D01*
X135490461Y-84173132D01*
X135432146Y-84058682D01*
X135432144Y-84058680D01*
X135432141Y-84058676D01*
X135341323Y-83967858D01*
X135341319Y-83967855D01*
X135341318Y-83967854D01*
X135226868Y-83909539D01*
X135226866Y-83909538D01*
X135226863Y-83909537D01*
X135100002Y-83889445D01*
X135099998Y-83889445D01*
X134973136Y-83909537D01*
X134858680Y-83967855D01*
X134858676Y-83967858D01*
X134767858Y-84058676D01*
X134767855Y-84058680D01*
X134709537Y-84173136D01*
X134689445Y-84299997D01*
X134689445Y-84300002D01*
X130590938Y-84300002D01*
X130557146Y-84233682D01*
X130557144Y-84233680D01*
X130557141Y-84233676D01*
X130466323Y-84142858D01*
X130466319Y-84142855D01*
X130466318Y-84142854D01*
X130351868Y-84084539D01*
X130351866Y-84084538D01*
X130351863Y-84084537D01*
X130225002Y-84064445D01*
X130224998Y-84064445D01*
X130098136Y-84084537D01*
X129983680Y-84142855D01*
X129983676Y-84142858D01*
X129892858Y-84233676D01*
X129892855Y-84233680D01*
X129834537Y-84348136D01*
X129814445Y-84474997D01*
X129814445Y-84475002D01*
X127328676Y-84475002D01*
X127282146Y-84383682D01*
X127282144Y-84383680D01*
X127282141Y-84383676D01*
X127191323Y-84292858D01*
X127191319Y-84292855D01*
X127191318Y-84292854D01*
X127076868Y-84234539D01*
X127076866Y-84234538D01*
X127076863Y-84234537D01*
X126950002Y-84214445D01*
X126949998Y-84214445D01*
X126823136Y-84234537D01*
X126708680Y-84292855D01*
X126708676Y-84292858D01*
X126617858Y-84383676D01*
X126617855Y-84383680D01*
X126559537Y-84498136D01*
X126539445Y-84624997D01*
X126539445Y-84625002D01*
X124331596Y-84625002D01*
X124315462Y-84523136D01*
X124315461Y-84523134D01*
X124315461Y-84523132D01*
X124257146Y-84408682D01*
X124257144Y-84408680D01*
X124257141Y-84408676D01*
X124166323Y-84317858D01*
X124166319Y-84317855D01*
X124166318Y-84317854D01*
X124051868Y-84259539D01*
X124051866Y-84259538D01*
X124051863Y-84259537D01*
X123925002Y-84239445D01*
X123924998Y-84239445D01*
X123798136Y-84259537D01*
X123683680Y-84317855D01*
X123683676Y-84317858D01*
X123592858Y-84408676D01*
X123592855Y-84408680D01*
X123534537Y-84523136D01*
X123514445Y-84649997D01*
X123514445Y-84650002D01*
X122372500Y-84650002D01*
X122372500Y-84100002D01*
X124589445Y-84100002D01*
X124609537Y-84226863D01*
X124609538Y-84226866D01*
X124609539Y-84226868D01*
X124655901Y-84317858D01*
X124667855Y-84341319D01*
X124667858Y-84341323D01*
X124758676Y-84432141D01*
X124758680Y-84432144D01*
X124758682Y-84432146D01*
X124873132Y-84490461D01*
X124873134Y-84490461D01*
X124873136Y-84490462D01*
X124999998Y-84510555D01*
X125000000Y-84510555D01*
X125000002Y-84510555D01*
X125126863Y-84490462D01*
X125126863Y-84490461D01*
X125126868Y-84490461D01*
X125241318Y-84432146D01*
X125332146Y-84341318D01*
X125390461Y-84226868D01*
X125392429Y-84214445D01*
X125410555Y-84100002D01*
X125410555Y-84099997D01*
X125402636Y-84050002D01*
X127839445Y-84050002D01*
X127859537Y-84176863D01*
X127859538Y-84176866D01*
X127859539Y-84176868D01*
X127901661Y-84259537D01*
X127917855Y-84291319D01*
X127917858Y-84291323D01*
X128008676Y-84382141D01*
X128008680Y-84382144D01*
X128008682Y-84382146D01*
X128123132Y-84440461D01*
X128123134Y-84440461D01*
X128123136Y-84440462D01*
X128249998Y-84460555D01*
X128250000Y-84460555D01*
X128250002Y-84460555D01*
X128376863Y-84440462D01*
X128376863Y-84440461D01*
X128376868Y-84440461D01*
X128491318Y-84382146D01*
X128582146Y-84291318D01*
X128640461Y-84176868D01*
X128645848Y-84142855D01*
X128660555Y-84050002D01*
X128660555Y-84049997D01*
X128640462Y-83923136D01*
X128640461Y-83923134D01*
X128640461Y-83923132D01*
X128582146Y-83808682D01*
X128582144Y-83808680D01*
X128582141Y-83808676D01*
X128491323Y-83717858D01*
X128491319Y-83717855D01*
X128491318Y-83717854D01*
X128376868Y-83659539D01*
X128376866Y-83659538D01*
X128376863Y-83659537D01*
X128250002Y-83639445D01*
X128249998Y-83639445D01*
X128123136Y-83659537D01*
X128008680Y-83717855D01*
X128008676Y-83717858D01*
X127917858Y-83808676D01*
X127917855Y-83808680D01*
X127859537Y-83923136D01*
X127839445Y-84049997D01*
X127839445Y-84050002D01*
X125402636Y-84050002D01*
X125390462Y-83973136D01*
X125390461Y-83973134D01*
X125390461Y-83973132D01*
X125332146Y-83858682D01*
X125332144Y-83858680D01*
X125332141Y-83858676D01*
X125241323Y-83767858D01*
X125241319Y-83767855D01*
X125241318Y-83767854D01*
X125126868Y-83709539D01*
X125126866Y-83709538D01*
X125126863Y-83709537D01*
X125000002Y-83689445D01*
X124999998Y-83689445D01*
X124873136Y-83709537D01*
X124758680Y-83767855D01*
X124758676Y-83767858D01*
X124667858Y-83858676D01*
X124667855Y-83858680D01*
X124609537Y-83973136D01*
X124589445Y-84099997D01*
X124589445Y-84100002D01*
X122372500Y-84100002D01*
X122372500Y-82750002D01*
X123464445Y-82750002D01*
X123484537Y-82876863D01*
X123484538Y-82876866D01*
X123484539Y-82876868D01*
X123520850Y-82948132D01*
X123542855Y-82991319D01*
X123542858Y-82991323D01*
X123633676Y-83082141D01*
X123633680Y-83082144D01*
X123633682Y-83082146D01*
X123748132Y-83140461D01*
X123748134Y-83140461D01*
X123748136Y-83140462D01*
X123874998Y-83160555D01*
X123875000Y-83160555D01*
X123875002Y-83160555D01*
X124001863Y-83140462D01*
X124001863Y-83140461D01*
X124001868Y-83140461D01*
X124116318Y-83082146D01*
X124207146Y-82991318D01*
X124265461Y-82876868D01*
X124272301Y-82833682D01*
X124277636Y-82800002D01*
X125189445Y-82800002D01*
X125209537Y-82926863D01*
X125209538Y-82926866D01*
X125209539Y-82926868D01*
X125267854Y-83041318D01*
X125267855Y-83041319D01*
X125267858Y-83041323D01*
X125358676Y-83132141D01*
X125358680Y-83132144D01*
X125358682Y-83132146D01*
X125473132Y-83190461D01*
X125473134Y-83190461D01*
X125473136Y-83190462D01*
X125599998Y-83210555D01*
X125600000Y-83210555D01*
X125600002Y-83210555D01*
X125726863Y-83190462D01*
X125726863Y-83190461D01*
X125726868Y-83190461D01*
X125841318Y-83132146D01*
X125898462Y-83075002D01*
X138979445Y-83075002D01*
X138999537Y-83201863D01*
X138999538Y-83201866D01*
X138999539Y-83201868D01*
X139057854Y-83316318D01*
X139057855Y-83316319D01*
X139057858Y-83316323D01*
X139148676Y-83407141D01*
X139148680Y-83407144D01*
X139148682Y-83407146D01*
X139263132Y-83465461D01*
X139263134Y-83465461D01*
X139263136Y-83465462D01*
X139389998Y-83485555D01*
X139390000Y-83485555D01*
X139390002Y-83485555D01*
X139516863Y-83465462D01*
X139516863Y-83465461D01*
X139516868Y-83465461D01*
X139631318Y-83407146D01*
X139722146Y-83316318D01*
X139780461Y-83201868D01*
X139782268Y-83190461D01*
X139800555Y-83075002D01*
X139800555Y-83074997D01*
X139780462Y-82948136D01*
X139780461Y-82948134D01*
X139780461Y-82948132D01*
X139722146Y-82833682D01*
X139722144Y-82833680D01*
X139722141Y-82833676D01*
X139631323Y-82742858D01*
X139631319Y-82742855D01*
X139631318Y-82742854D01*
X139516868Y-82684539D01*
X139516866Y-82684538D01*
X139516863Y-82684537D01*
X139390002Y-82664445D01*
X139389998Y-82664445D01*
X139263136Y-82684537D01*
X139148680Y-82742855D01*
X139148676Y-82742858D01*
X139057858Y-82833676D01*
X139057855Y-82833680D01*
X138999537Y-82948136D01*
X138979445Y-83074997D01*
X138979445Y-83075002D01*
X125898462Y-83075002D01*
X125932146Y-83041318D01*
X125990461Y-82926868D01*
X125990462Y-82926863D01*
X126010555Y-82800002D01*
X126010555Y-82799997D01*
X125990462Y-82673136D01*
X125990461Y-82673134D01*
X125990461Y-82673132D01*
X125932146Y-82558682D01*
X125932144Y-82558680D01*
X125932141Y-82558676D01*
X125841323Y-82467858D01*
X125841319Y-82467855D01*
X125841318Y-82467854D01*
X125726868Y-82409539D01*
X125726866Y-82409538D01*
X125726863Y-82409537D01*
X125600002Y-82389445D01*
X125599998Y-82389445D01*
X125473136Y-82409537D01*
X125358680Y-82467855D01*
X125358676Y-82467858D01*
X125267858Y-82558676D01*
X125267855Y-82558680D01*
X125209537Y-82673136D01*
X125189445Y-82799997D01*
X125189445Y-82800002D01*
X124277636Y-82800002D01*
X124285555Y-82750002D01*
X124285555Y-82749997D01*
X124265462Y-82623136D01*
X124265461Y-82623134D01*
X124265461Y-82623132D01*
X124207146Y-82508682D01*
X124207144Y-82508680D01*
X124207141Y-82508676D01*
X124116323Y-82417858D01*
X124116319Y-82417855D01*
X124116318Y-82417854D01*
X124001868Y-82359539D01*
X124001866Y-82359538D01*
X124001863Y-82359537D01*
X123875002Y-82339445D01*
X123874998Y-82339445D01*
X123748136Y-82359537D01*
X123633680Y-82417855D01*
X123633676Y-82417858D01*
X123542858Y-82508676D01*
X123542855Y-82508680D01*
X123484537Y-82623136D01*
X123464445Y-82749997D01*
X123464445Y-82750002D01*
X122372500Y-82750002D01*
X122372500Y-81240748D01*
X122392185Y-81173709D01*
X122444989Y-81127954D01*
X122514147Y-81118010D01*
X122515898Y-81118275D01*
X122624998Y-81135555D01*
X122625000Y-81135555D01*
X122625002Y-81135555D01*
X122751863Y-81115462D01*
X122751863Y-81115461D01*
X122751868Y-81115461D01*
X122866318Y-81057146D01*
X122957146Y-80966318D01*
X123015461Y-80851868D01*
X123021091Y-80816323D01*
X123035555Y-80725002D01*
X123035555Y-80724997D01*
X123015462Y-80598136D01*
X123015461Y-80598134D01*
X123015461Y-80598132D01*
X123003676Y-80575002D01*
X138314445Y-80575002D01*
X138334537Y-80701863D01*
X138334538Y-80701866D01*
X138334539Y-80701868D01*
X138392854Y-80816318D01*
X138392855Y-80816319D01*
X138392858Y-80816323D01*
X138483676Y-80907141D01*
X138483680Y-80907144D01*
X138483682Y-80907146D01*
X138598132Y-80965461D01*
X138598134Y-80965461D01*
X138598136Y-80965462D01*
X138724998Y-80985555D01*
X138725000Y-80985555D01*
X138725002Y-80985555D01*
X138851863Y-80965462D01*
X138851863Y-80965461D01*
X138851868Y-80965461D01*
X138966318Y-80907146D01*
X139057146Y-80816318D01*
X139115461Y-80701868D01*
X139131891Y-80598136D01*
X139135555Y-80575002D01*
X139135555Y-80574997D01*
X139115462Y-80448136D01*
X139115461Y-80448134D01*
X139115461Y-80448132D01*
X139057146Y-80333682D01*
X139057144Y-80333680D01*
X139057141Y-80333676D01*
X138966323Y-80242858D01*
X138966319Y-80242855D01*
X138966318Y-80242854D01*
X138851868Y-80184539D01*
X138851866Y-80184538D01*
X138851863Y-80184537D01*
X138725002Y-80164445D01*
X138724998Y-80164445D01*
X138598136Y-80184537D01*
X138483680Y-80242855D01*
X138483676Y-80242858D01*
X138392858Y-80333676D01*
X138392855Y-80333680D01*
X138334537Y-80448136D01*
X138314445Y-80574997D01*
X138314445Y-80575002D01*
X123003676Y-80575002D01*
X122957146Y-80483682D01*
X122957144Y-80483680D01*
X122957141Y-80483676D01*
X122866323Y-80392858D01*
X122866319Y-80392855D01*
X122866318Y-80392854D01*
X122751868Y-80334539D01*
X122751866Y-80334538D01*
X122751863Y-80334537D01*
X122625002Y-80314445D01*
X122624997Y-80314445D01*
X122515897Y-80331724D01*
X122446604Y-80322769D01*
X122393152Y-80277773D01*
X122372513Y-80211021D01*
X122372500Y-80209251D01*
X122372500Y-79819659D01*
X122392185Y-79752620D01*
X122444989Y-79706865D01*
X122514147Y-79696921D01*
X122577703Y-79725946D01*
X122585704Y-79734666D01*
X122585953Y-79734418D01*
X122683676Y-79832141D01*
X122683680Y-79832144D01*
X122683682Y-79832146D01*
X122798132Y-79890461D01*
X122798134Y-79890461D01*
X122798136Y-79890462D01*
X122924998Y-79910555D01*
X122925000Y-79910555D01*
X122925002Y-79910555D01*
X123051863Y-79890462D01*
X123051863Y-79890461D01*
X123051868Y-79890461D01*
X123166318Y-79832146D01*
X123166319Y-79832144D01*
X123175013Y-79827715D01*
X123175857Y-79829372D01*
X123230415Y-79809903D01*
X123298470Y-79825724D01*
X123307611Y-79831598D01*
X123308683Y-79832144D01*
X123308685Y-79832146D01*
X123423135Y-79890461D01*
X123423137Y-79890461D01*
X123423139Y-79890462D01*
X123550001Y-79910555D01*
X123550003Y-79910555D01*
X123550005Y-79910555D01*
X123676866Y-79890462D01*
X123676866Y-79890461D01*
X123676871Y-79890461D01*
X123791321Y-79832146D01*
X123882149Y-79741318D01*
X123940464Y-79626868D01*
X123960558Y-79500000D01*
X123940464Y-79373132D01*
X123882149Y-79258682D01*
X123882147Y-79258680D01*
X123882144Y-79258676D01*
X123791326Y-79167858D01*
X123791322Y-79167855D01*
X123791321Y-79167854D01*
X123676871Y-79109539D01*
X123676869Y-79109538D01*
X123676866Y-79109537D01*
X123550005Y-79089445D01*
X123550001Y-79089445D01*
X123423139Y-79109537D01*
X123423135Y-79109538D01*
X123423135Y-79109539D01*
X123308685Y-79167854D01*
X123308683Y-79167855D01*
X123299990Y-79172285D01*
X123299146Y-79170630D01*
X123244564Y-79190098D01*
X123176512Y-79174264D01*
X123167390Y-79168401D01*
X123166319Y-79167855D01*
X123166318Y-79167854D01*
X123051868Y-79109539D01*
X123051866Y-79109538D01*
X123051863Y-79109537D01*
X122925002Y-79089445D01*
X122924998Y-79089445D01*
X122798136Y-79109537D01*
X122683680Y-79167855D01*
X122683676Y-79167858D01*
X122585953Y-79265582D01*
X122583706Y-79263335D01*
X122541489Y-79295891D01*
X122471876Y-79301870D01*
X122410081Y-79269265D01*
X122375723Y-79208427D01*
X122372500Y-79180340D01*
X122372500Y-78800002D01*
X126189445Y-78800002D01*
X126209537Y-78926863D01*
X126209538Y-78926866D01*
X126209539Y-78926868D01*
X126267854Y-79041318D01*
X126267855Y-79041319D01*
X126267858Y-79041323D01*
X126358676Y-79132141D01*
X126358680Y-79132144D01*
X126358682Y-79132146D01*
X126473132Y-79190461D01*
X126473134Y-79190461D01*
X126473136Y-79190462D01*
X126599998Y-79210555D01*
X126600000Y-79210555D01*
X126600002Y-79210555D01*
X126726863Y-79190462D01*
X126726863Y-79190461D01*
X126726868Y-79190461D01*
X126841318Y-79132146D01*
X126932146Y-79041318D01*
X126990461Y-78926868D01*
X127010555Y-78800000D01*
X126990461Y-78673132D01*
X126932146Y-78558682D01*
X126932144Y-78558680D01*
X126932141Y-78558676D01*
X126841323Y-78467858D01*
X126841319Y-78467855D01*
X126841318Y-78467854D01*
X126726868Y-78409539D01*
X126726866Y-78409538D01*
X126726863Y-78409537D01*
X126600002Y-78389445D01*
X126599998Y-78389445D01*
X126473136Y-78409537D01*
X126358680Y-78467855D01*
X126358676Y-78467858D01*
X126267858Y-78558676D01*
X126267855Y-78558680D01*
X126209537Y-78673136D01*
X126189445Y-78799997D01*
X126189445Y-78800002D01*
X122372500Y-78800002D01*
X122372500Y-78250002D01*
X123364445Y-78250002D01*
X123384537Y-78376863D01*
X123384538Y-78376866D01*
X123384539Y-78376868D01*
X123430901Y-78467858D01*
X123442855Y-78491319D01*
X123442858Y-78491323D01*
X123533676Y-78582141D01*
X123533680Y-78582144D01*
X123533682Y-78582146D01*
X123648132Y-78640461D01*
X123648134Y-78640461D01*
X123648136Y-78640462D01*
X123774998Y-78660555D01*
X123775000Y-78660555D01*
X123775002Y-78660555D01*
X123901863Y-78640462D01*
X123901863Y-78640461D01*
X123901868Y-78640461D01*
X124016318Y-78582146D01*
X124107146Y-78491318D01*
X124165461Y-78376868D01*
X124185555Y-78250000D01*
X124165461Y-78123132D01*
X124107146Y-78008682D01*
X124107144Y-78008680D01*
X124107141Y-78008676D01*
X124016323Y-77917858D01*
X124016319Y-77917855D01*
X124016318Y-77917854D01*
X123901868Y-77859539D01*
X123901866Y-77859538D01*
X123901863Y-77859537D01*
X123775002Y-77839445D01*
X123774998Y-77839445D01*
X123648136Y-77859537D01*
X123533680Y-77917855D01*
X123533676Y-77917858D01*
X123442858Y-78008676D01*
X123442855Y-78008680D01*
X123384537Y-78123136D01*
X123364445Y-78249997D01*
X123364445Y-78250002D01*
X122372500Y-78250002D01*
X122372500Y-76016500D01*
X122392185Y-75949461D01*
X122444989Y-75903706D01*
X122496500Y-75892500D01*
X124212441Y-75892500D01*
X124279480Y-75912185D01*
G37*
G04 #@! TD.AperFunction*
M02*
