G04 #@! TF.GenerationSoftware,KiCad,Pcbnew,7.0.10*
G04 #@! TF.CreationDate,2024-03-06T03:44:09-08:00*
G04 #@! TF.ProjectId,Tracker_Band_V1,54726163-6b65-4725-9f42-616e645f5631,1*
G04 #@! TF.SameCoordinates,Original*
G04 #@! TF.FileFunction,Copper,L3,Inr*
G04 #@! TF.FilePolarity,Positive*
%FSLAX46Y46*%
G04 Gerber Fmt 4.6, Leading zero omitted, Abs format (unit mm)*
G04 Created by KiCad (PCBNEW 7.0.10) date 2024-03-06 03:44:09*
%MOMM*%
%LPD*%
G01*
G04 APERTURE LIST*
G04 #@! TA.AperFunction,ComponentPad*
%ADD10O,2.100000X1.000000*%
G04 #@! TD*
G04 #@! TA.AperFunction,ComponentPad*
%ADD11O,1.800000X1.000000*%
G04 #@! TD*
G04 #@! TA.AperFunction,ViaPad*
%ADD12C,0.420000*%
G04 #@! TD*
G04 APERTURE END LIST*
D10*
X135810000Y-100370000D03*
D11*
X140010000Y-100370000D03*
D10*
X135810000Y-91730000D03*
D11*
X140010000Y-91730000D03*
D12*
X130550000Y-96700000D03*
X134075000Y-94575000D03*
X127700000Y-77200000D03*
X130900000Y-93800000D03*
X139775000Y-81575000D03*
X127475000Y-93575000D03*
X127850000Y-89025000D03*
X131700000Y-81225000D03*
X135800000Y-89400000D03*
X125500000Y-98025000D03*
X130450000Y-91250000D03*
X129700000Y-79200000D03*
X122975000Y-83700000D03*
X127250000Y-100950000D03*
X132450000Y-89200000D03*
X122975000Y-77224980D03*
X128225000Y-98025000D03*
X132600000Y-92075000D03*
X131350000Y-97300000D03*
X131700000Y-79200000D03*
X130550000Y-97300000D03*
X129100000Y-84750000D03*
X131350000Y-96100000D03*
X134100000Y-77200000D03*
X140375000Y-76275000D03*
X123925000Y-85675000D03*
X122700000Y-99130000D03*
X132500000Y-77200000D03*
X135225000Y-92850000D03*
X140375000Y-85650000D03*
X124825000Y-86675000D03*
X135700000Y-77200000D03*
X139625000Y-78275000D03*
X134375000Y-91025000D03*
X125200000Y-77650000D03*
X129300000Y-77200000D03*
X133675000Y-81225000D03*
X122975000Y-82750000D03*
X129700000Y-81250000D03*
X130450000Y-89850000D03*
X131350000Y-96700000D03*
X124575000Y-90850000D03*
X130550000Y-96100000D03*
X122700000Y-94875000D03*
X132650000Y-97375000D03*
X128475000Y-88475000D03*
X134475000Y-89150000D03*
X130900000Y-77200000D03*
X137650000Y-86155100D03*
X130450000Y-90500000D03*
X135850000Y-83950000D03*
X129675000Y-96150000D03*
X130850000Y-99250000D03*
X133675000Y-79200000D03*
X128975000Y-95425000D03*
X122625000Y-80725000D03*
X128575000Y-92250000D03*
X122925000Y-79500000D03*
X129100000Y-93550000D03*
X128325000Y-93550000D03*
X126675000Y-89575000D03*
X123550003Y-79500000D03*
X138225000Y-97950000D03*
X133150000Y-100750000D03*
X140325000Y-88400000D03*
X126800000Y-93425000D03*
X137525000Y-91775000D03*
X136400000Y-95350000D03*
X140400000Y-82000000D03*
X136400000Y-94725000D03*
X139900000Y-90775000D03*
X137100000Y-92650000D03*
X132650000Y-95300000D03*
X136406062Y-84475288D03*
X136625000Y-85050000D03*
X132625000Y-96300000D03*
X122675000Y-93925000D03*
X127600000Y-99425000D03*
X122950000Y-86625000D03*
X130700000Y-87800000D03*
X132250000Y-100200000D03*
X126525000Y-99475000D03*
X126400000Y-96700000D03*
X131900000Y-88500000D03*
X126600000Y-78800000D03*
X122775000Y-100375000D03*
X138575000Y-76775000D03*
X122725000Y-96150000D03*
X124600000Y-89750000D03*
X124675000Y-76275000D03*
X122725000Y-98175000D03*
X139150000Y-87050000D03*
X122925000Y-87950000D03*
X123875000Y-82750000D03*
X138775000Y-89150000D03*
X125600000Y-82800000D03*
X122950000Y-88700000D03*
X123775000Y-78250000D03*
X139390000Y-83075000D03*
X123925000Y-84650000D03*
X131300000Y-91950000D03*
X136250000Y-87650000D03*
X130225000Y-84475000D03*
X128250000Y-84050000D03*
X129900000Y-98875000D03*
X126075000Y-95850000D03*
X133300000Y-85000000D03*
X127800000Y-94625000D03*
X133162500Y-86962500D03*
X127000000Y-100375000D03*
X126300000Y-98050000D03*
X124050000Y-99250000D03*
X131700000Y-86950000D03*
X125800000Y-93025000D03*
X135100000Y-84300000D03*
X125184101Y-93441338D03*
X124850000Y-92925000D03*
X134100000Y-85000000D03*
X123900000Y-93650000D03*
X132500000Y-85000000D03*
X124875000Y-76900000D03*
X139425000Y-76250000D03*
X140375000Y-77225000D03*
X139925000Y-84900000D03*
X140000000Y-87225000D03*
X125000000Y-84100000D03*
X124400000Y-97700000D03*
X126950000Y-84625000D03*
X138290000Y-90150000D03*
X138725000Y-80575000D03*
X139375000Y-89325000D03*
G04 #@! TA.AperFunction,Conductor*
G36*
X137216914Y-83317313D02*
G01*
X137221674Y-83321674D01*
X137953326Y-84053326D01*
X137974718Y-84099202D01*
X137975000Y-84105652D01*
X137975000Y-86294348D01*
X137957687Y-86341914D01*
X137953326Y-86346674D01*
X136875000Y-87425000D01*
X136875000Y-90974884D01*
X136857687Y-91022450D01*
X136813850Y-91047760D01*
X136764000Y-91038970D01*
X136761630Y-91037542D01*
X136709302Y-91004663D01*
X136539154Y-90945126D01*
X136539143Y-90945123D01*
X136404921Y-90930000D01*
X136060000Y-90930000D01*
X136060000Y-91430000D01*
X135560000Y-91430000D01*
X135560000Y-90930000D01*
X135215079Y-90930000D01*
X135080856Y-90945123D01*
X135080845Y-90945126D01*
X134910697Y-91004663D01*
X134758055Y-91100574D01*
X134630574Y-91228055D01*
X134534663Y-91380697D01*
X134534661Y-91380702D01*
X134499916Y-91479999D01*
X134499917Y-91480000D01*
X135093889Y-91480000D01*
X135054390Y-91504457D01*
X134986799Y-91593962D01*
X134956105Y-91701840D01*
X134966454Y-91813521D01*
X135016448Y-91913922D01*
X135088931Y-91980000D01*
X134499916Y-91980000D01*
X134534661Y-92079297D01*
X134534663Y-92079302D01*
X134630574Y-92231944D01*
X134758055Y-92359425D01*
X134910697Y-92455336D01*
X135080845Y-92514873D01*
X135080856Y-92514876D01*
X135215079Y-92530000D01*
X135560000Y-92530000D01*
X135560000Y-92030000D01*
X136060000Y-92030000D01*
X136060000Y-92530000D01*
X136065778Y-92535778D01*
X136087170Y-92581654D01*
X136074069Y-92630549D01*
X136043899Y-92654764D01*
X136043965Y-92654878D01*
X136043230Y-92655301D01*
X136041778Y-92656468D01*
X136039768Y-92657300D01*
X136039767Y-92657301D01*
X135919549Y-92749549D01*
X135827302Y-92869766D01*
X135769312Y-93009764D01*
X135769312Y-93009765D01*
X135749534Y-93160000D01*
X135769312Y-93310234D01*
X135769312Y-93310235D01*
X135827302Y-93450233D01*
X135919549Y-93570451D01*
X136039767Y-93662698D01*
X136179764Y-93720687D01*
X136292280Y-93735500D01*
X136292282Y-93735500D01*
X136367718Y-93735500D01*
X136367720Y-93735500D01*
X136480236Y-93720687D01*
X136620233Y-93662698D01*
X136657453Y-93634137D01*
X136705728Y-93618915D01*
X136752494Y-93638285D01*
X136775869Y-93683184D01*
X136764914Y-93732604D01*
X136754828Y-93745171D01*
X132896674Y-97603326D01*
X132850798Y-97624718D01*
X132844348Y-97625000D01*
X132580652Y-97625000D01*
X132533086Y-97607687D01*
X132528326Y-97603326D01*
X132246674Y-97321674D01*
X132225282Y-97275798D01*
X132225000Y-97269348D01*
X132225000Y-96652116D01*
X132242313Y-96604550D01*
X132286150Y-96579240D01*
X132336000Y-96588030D01*
X132351326Y-96599790D01*
X132383683Y-96632147D01*
X132498126Y-96690459D01*
X132498129Y-96690459D01*
X132498132Y-96690461D01*
X132625000Y-96710555D01*
X132751868Y-96690461D01*
X132751871Y-96690459D01*
X132751873Y-96690459D01*
X132866316Y-96632147D01*
X132866315Y-96632147D01*
X132866318Y-96632146D01*
X132957146Y-96541318D01*
X132959107Y-96537469D01*
X133015459Y-96426873D01*
X133015459Y-96426871D01*
X133015461Y-96426868D01*
X133035555Y-96300000D01*
X133015461Y-96173132D01*
X133015459Y-96173129D01*
X133015459Y-96173126D01*
X132957147Y-96058683D01*
X132866316Y-95967852D01*
X132751873Y-95909540D01*
X132751868Y-95909539D01*
X132625000Y-95889445D01*
X132498131Y-95909539D01*
X132498126Y-95909540D01*
X132383683Y-95967852D01*
X132351326Y-96000210D01*
X132305450Y-96021602D01*
X132256555Y-96008501D01*
X132227521Y-95967037D01*
X132225000Y-95947884D01*
X132225000Y-95627116D01*
X132242313Y-95579550D01*
X132286150Y-95554240D01*
X132336000Y-95563030D01*
X132351326Y-95574790D01*
X132408683Y-95632147D01*
X132523126Y-95690459D01*
X132523129Y-95690459D01*
X132523132Y-95690461D01*
X132650000Y-95710555D01*
X132776868Y-95690461D01*
X132776871Y-95690459D01*
X132776873Y-95690459D01*
X132891316Y-95632147D01*
X132891315Y-95632147D01*
X132891318Y-95632146D01*
X132982146Y-95541318D01*
X133014985Y-95476868D01*
X133040459Y-95426873D01*
X133040459Y-95426871D01*
X133040461Y-95426868D01*
X133060555Y-95300000D01*
X133040461Y-95173132D01*
X133040459Y-95173129D01*
X133040459Y-95173126D01*
X132982147Y-95058683D01*
X132891316Y-94967852D01*
X132776873Y-94909540D01*
X132776868Y-94909539D01*
X132650000Y-94889445D01*
X132523131Y-94909539D01*
X132523126Y-94909540D01*
X132408683Y-94967852D01*
X132351326Y-95025210D01*
X132305450Y-95046602D01*
X132256555Y-95033501D01*
X132227521Y-94992037D01*
X132225000Y-94972884D01*
X132225000Y-88773109D01*
X132233066Y-88739514D01*
X132290459Y-88626872D01*
X132290459Y-88626871D01*
X132290461Y-88626868D01*
X132310555Y-88500000D01*
X132290461Y-88373132D01*
X132233065Y-88260485D01*
X132225000Y-88226890D01*
X132225000Y-87650000D01*
X135839445Y-87650000D01*
X135859539Y-87776868D01*
X135859540Y-87776873D01*
X135917852Y-87891316D01*
X136008683Y-87982147D01*
X136123126Y-88040459D01*
X136123129Y-88040459D01*
X136123132Y-88040461D01*
X136250000Y-88060555D01*
X136376868Y-88040461D01*
X136376871Y-88040459D01*
X136376873Y-88040459D01*
X136491316Y-87982147D01*
X136491315Y-87982147D01*
X136491318Y-87982146D01*
X136582146Y-87891318D01*
X136584107Y-87887469D01*
X136640459Y-87776873D01*
X136640459Y-87776871D01*
X136640461Y-87776868D01*
X136660555Y-87650000D01*
X136640461Y-87523132D01*
X136640459Y-87523129D01*
X136640459Y-87523126D01*
X136582147Y-87408683D01*
X136491316Y-87317852D01*
X136376873Y-87259540D01*
X136376868Y-87259539D01*
X136250000Y-87239445D01*
X136123131Y-87259539D01*
X136123126Y-87259540D01*
X136008683Y-87317852D01*
X135917852Y-87408683D01*
X135859540Y-87523126D01*
X135859539Y-87523131D01*
X135839445Y-87650000D01*
X132225000Y-87650000D01*
X132225000Y-87155651D01*
X132242313Y-87108085D01*
X132246663Y-87103336D01*
X132709345Y-86640654D01*
X132755220Y-86619263D01*
X132804115Y-86632364D01*
X132833149Y-86673828D01*
X132828737Y-86724255D01*
X132827605Y-86726576D01*
X132772039Y-86835631D01*
X132751945Y-86962500D01*
X132772039Y-87089368D01*
X132772040Y-87089373D01*
X132830352Y-87203816D01*
X132921183Y-87294647D01*
X133035626Y-87352959D01*
X133035629Y-87352959D01*
X133035632Y-87352961D01*
X133162500Y-87373055D01*
X133289368Y-87352961D01*
X133289371Y-87352959D01*
X133289373Y-87352959D01*
X133403816Y-87294647D01*
X133403815Y-87294647D01*
X133403818Y-87294646D01*
X133494646Y-87203818D01*
X133519188Y-87155651D01*
X133552959Y-87089373D01*
X133552959Y-87089371D01*
X133552961Y-87089368D01*
X133573055Y-86962500D01*
X133552961Y-86835632D01*
X133552959Y-86835629D01*
X133552959Y-86835626D01*
X133494647Y-86721183D01*
X133403816Y-86630352D01*
X133289373Y-86572040D01*
X133289368Y-86572039D01*
X133162500Y-86551945D01*
X133035631Y-86572039D01*
X132926575Y-86627605D01*
X132876333Y-86633773D01*
X132833881Y-86606204D01*
X132819081Y-86557797D01*
X132838860Y-86511202D01*
X132840597Y-86509402D01*
X133934738Y-85415261D01*
X133980611Y-85393871D01*
X133998631Y-85394499D01*
X134100000Y-85410555D01*
X134226868Y-85390461D01*
X134226871Y-85390459D01*
X134226873Y-85390459D01*
X134341316Y-85332147D01*
X134341315Y-85332147D01*
X134341318Y-85332146D01*
X134432146Y-85241318D01*
X134434107Y-85237469D01*
X134490459Y-85126873D01*
X134490459Y-85126871D01*
X134490461Y-85126868D01*
X134510555Y-85000000D01*
X134494500Y-84898635D01*
X134504158Y-84848949D01*
X134515255Y-84834744D01*
X134735944Y-84614055D01*
X134781817Y-84592665D01*
X134830712Y-84605766D01*
X134840593Y-84614057D01*
X134858683Y-84632147D01*
X134973126Y-84690459D01*
X134973129Y-84690459D01*
X134973132Y-84690461D01*
X135100000Y-84710555D01*
X135226868Y-84690461D01*
X135226871Y-84690459D01*
X135226873Y-84690459D01*
X135341316Y-84632147D01*
X135341315Y-84632147D01*
X135341318Y-84632146D01*
X135432146Y-84541318D01*
X135465790Y-84475288D01*
X135995507Y-84475288D01*
X136015601Y-84602156D01*
X136015602Y-84602161D01*
X136073914Y-84716604D01*
X136164745Y-84807435D01*
X136201019Y-84825918D01*
X136235541Y-84862938D01*
X136238191Y-84913488D01*
X136235536Y-84920059D01*
X136234539Y-84923128D01*
X136214445Y-85050000D01*
X136234539Y-85176868D01*
X136234540Y-85176873D01*
X136292852Y-85291316D01*
X136383683Y-85382147D01*
X136498126Y-85440459D01*
X136498129Y-85440459D01*
X136498132Y-85440461D01*
X136625000Y-85460555D01*
X136751868Y-85440461D01*
X136751871Y-85440459D01*
X136751873Y-85440459D01*
X136866316Y-85382147D01*
X136866315Y-85382147D01*
X136866318Y-85382146D01*
X136957146Y-85291318D01*
X136982623Y-85241316D01*
X137015459Y-85176873D01*
X137015459Y-85176871D01*
X137015461Y-85176868D01*
X137035555Y-85050000D01*
X137015461Y-84923132D01*
X137015459Y-84923128D01*
X137015459Y-84923126D01*
X136957147Y-84808683D01*
X136866316Y-84717852D01*
X136830041Y-84699369D01*
X136795519Y-84662349D01*
X136792869Y-84611799D01*
X136795519Y-84605243D01*
X136796520Y-84602161D01*
X136796523Y-84602156D01*
X136816617Y-84475288D01*
X136796523Y-84348420D01*
X136796521Y-84348417D01*
X136796521Y-84348414D01*
X136738209Y-84233971D01*
X136647378Y-84143140D01*
X136532935Y-84084828D01*
X136532930Y-84084827D01*
X136406062Y-84064733D01*
X136279193Y-84084827D01*
X136279188Y-84084828D01*
X136164745Y-84143140D01*
X136073914Y-84233971D01*
X136015602Y-84348414D01*
X136015601Y-84348419D01*
X135995507Y-84475288D01*
X135465790Y-84475288D01*
X135490459Y-84426873D01*
X135490459Y-84426871D01*
X135490461Y-84426868D01*
X135510555Y-84300000D01*
X135490461Y-84173132D01*
X135490459Y-84173129D01*
X135490459Y-84173126D01*
X135432147Y-84058683D01*
X135414058Y-84040594D01*
X135392666Y-83994718D01*
X135405767Y-83945823D01*
X135414058Y-83935942D01*
X136028326Y-83321674D01*
X136074202Y-83300282D01*
X136080652Y-83300000D01*
X137169348Y-83300000D01*
X137216914Y-83317313D01*
G37*
G04 #@! TD.AperFunction*
G04 #@! TA.AperFunction,Conductor*
G36*
X139016742Y-75912185D02*
G01*
X139062497Y-75964989D01*
X139072441Y-76034147D01*
X139060189Y-76072789D01*
X139034539Y-76123132D01*
X139034537Y-76123136D01*
X139014445Y-76249997D01*
X139014445Y-76250002D01*
X139034537Y-76376863D01*
X139034538Y-76376866D01*
X139034539Y-76376868D01*
X139091900Y-76489445D01*
X139092855Y-76491319D01*
X139092858Y-76491323D01*
X139183676Y-76582141D01*
X139183680Y-76582144D01*
X139183682Y-76582146D01*
X139298132Y-76640461D01*
X139298134Y-76640461D01*
X139298136Y-76640462D01*
X139424998Y-76660555D01*
X139425000Y-76660555D01*
X139425002Y-76660555D01*
X139551863Y-76640462D01*
X139551863Y-76640461D01*
X139551868Y-76640461D01*
X139666318Y-76582146D01*
X139757146Y-76491318D01*
X139783148Y-76440285D01*
X139831118Y-76389493D01*
X139898938Y-76372697D01*
X139965074Y-76395233D01*
X140004114Y-76440287D01*
X140042854Y-76516318D01*
X140042856Y-76516320D01*
X140042858Y-76516323D01*
X140133676Y-76607141D01*
X140133678Y-76607142D01*
X140133682Y-76607146D01*
X140197212Y-76639516D01*
X140248007Y-76687490D01*
X140264802Y-76755311D01*
X140242265Y-76821445D01*
X140197212Y-76860483D01*
X140133682Y-76892854D01*
X140133681Y-76892855D01*
X140133676Y-76892858D01*
X140042858Y-76983676D01*
X140042855Y-76983680D01*
X139984537Y-77098136D01*
X139964445Y-77224997D01*
X139964445Y-77225002D01*
X139984537Y-77351863D01*
X139984538Y-77351866D01*
X139984539Y-77351868D01*
X140042854Y-77466318D01*
X140042855Y-77466319D01*
X140042858Y-77466323D01*
X140133676Y-77557141D01*
X140133680Y-77557144D01*
X140133682Y-77557146D01*
X140248132Y-77615461D01*
X140248134Y-77615461D01*
X140248136Y-77615462D01*
X140374998Y-77635555D01*
X140375000Y-77635555D01*
X140375002Y-77635555D01*
X140501863Y-77615462D01*
X140501863Y-77615461D01*
X140501868Y-77615461D01*
X140616318Y-77557146D01*
X140707146Y-77466318D01*
X140739016Y-77403768D01*
X140786989Y-77352974D01*
X140854810Y-77336178D01*
X140920945Y-77358715D01*
X140964397Y-77413430D01*
X140973500Y-77460064D01*
X140973500Y-81715869D01*
X140953815Y-81782908D01*
X140901011Y-81828663D01*
X140831853Y-81838607D01*
X140768297Y-81809582D01*
X140739016Y-81772165D01*
X140737421Y-81769034D01*
X140732146Y-81758682D01*
X140732143Y-81758679D01*
X140732141Y-81758676D01*
X140641323Y-81667858D01*
X140641319Y-81667855D01*
X140641318Y-81667854D01*
X140526868Y-81609539D01*
X140526866Y-81609538D01*
X140526863Y-81609537D01*
X140400002Y-81589445D01*
X140400000Y-81589445D01*
X140364240Y-81595108D01*
X140315507Y-81602827D01*
X140246213Y-81593871D01*
X140192762Y-81548874D01*
X140173637Y-81499750D01*
X140165462Y-81448136D01*
X140165461Y-81448134D01*
X140165461Y-81448132D01*
X140107146Y-81333682D01*
X140107144Y-81333680D01*
X140107141Y-81333676D01*
X140016323Y-81242858D01*
X140016319Y-81242855D01*
X140016318Y-81242854D01*
X139901868Y-81184539D01*
X139901866Y-81184538D01*
X139901863Y-81184537D01*
X139775002Y-81164445D01*
X139774998Y-81164445D01*
X139648136Y-81184537D01*
X139533680Y-81242855D01*
X139533676Y-81242858D01*
X139442858Y-81333676D01*
X139442855Y-81333680D01*
X139384537Y-81448136D01*
X139364445Y-81574997D01*
X139364445Y-81575002D01*
X139384537Y-81701863D01*
X139384538Y-81701866D01*
X139384539Y-81701868D01*
X139439422Y-81809582D01*
X139442855Y-81816319D01*
X139442858Y-81816323D01*
X139533676Y-81907141D01*
X139533680Y-81907144D01*
X139533682Y-81907146D01*
X139648132Y-81965461D01*
X139648134Y-81965461D01*
X139648136Y-81965462D01*
X139774998Y-81985555D01*
X139775000Y-81985555D01*
X139775002Y-81985555D01*
X139859491Y-81972173D01*
X139928784Y-81981127D01*
X139982236Y-82026124D01*
X140001362Y-82075247D01*
X140009537Y-82126864D01*
X140009538Y-82126867D01*
X140009539Y-82126868D01*
X140067853Y-82241317D01*
X140067855Y-82241319D01*
X140067858Y-82241323D01*
X140158676Y-82332141D01*
X140158680Y-82332144D01*
X140158682Y-82332146D01*
X140273132Y-82390461D01*
X140273134Y-82390461D01*
X140273136Y-82390462D01*
X140399998Y-82410555D01*
X140400000Y-82410555D01*
X140400002Y-82410555D01*
X140526863Y-82390462D01*
X140526863Y-82390461D01*
X140526868Y-82390461D01*
X140641318Y-82332146D01*
X140732146Y-82241318D01*
X140739015Y-82227835D01*
X140786989Y-82177040D01*
X140854809Y-82160244D01*
X140920945Y-82182781D01*
X140964397Y-82237495D01*
X140973500Y-82284130D01*
X140973500Y-85414935D01*
X140953815Y-85481974D01*
X140901011Y-85527729D01*
X140831853Y-85537673D01*
X140768297Y-85508648D01*
X140739016Y-85471232D01*
X140707146Y-85408682D01*
X140707144Y-85408680D01*
X140707141Y-85408676D01*
X140616323Y-85317858D01*
X140616319Y-85317855D01*
X140616318Y-85317854D01*
X140501868Y-85259539D01*
X140501866Y-85259538D01*
X140501863Y-85259537D01*
X140388251Y-85241543D01*
X140325116Y-85211614D01*
X140288185Y-85152302D01*
X140289183Y-85082440D01*
X140297160Y-85062784D01*
X140315461Y-85026868D01*
X140319717Y-85000002D01*
X140335555Y-84900002D01*
X140335555Y-84899997D01*
X140315462Y-84773136D01*
X140315461Y-84773134D01*
X140315461Y-84773132D01*
X140257146Y-84658682D01*
X140257144Y-84658680D01*
X140257141Y-84658676D01*
X140166323Y-84567858D01*
X140166319Y-84567855D01*
X140166318Y-84567854D01*
X140051868Y-84509539D01*
X140051866Y-84509538D01*
X140051863Y-84509537D01*
X139925002Y-84489445D01*
X139924998Y-84489445D01*
X139798136Y-84509537D01*
X139683680Y-84567855D01*
X139683676Y-84567858D01*
X139592858Y-84658676D01*
X139592855Y-84658680D01*
X139534537Y-84773136D01*
X139514445Y-84899997D01*
X139514445Y-84900002D01*
X139534537Y-85026863D01*
X139534538Y-85026864D01*
X139534539Y-85026868D01*
X139586715Y-85129269D01*
X139592855Y-85141319D01*
X139592858Y-85141323D01*
X139683676Y-85232141D01*
X139683680Y-85232144D01*
X139683682Y-85232146D01*
X139798132Y-85290461D01*
X139798134Y-85290461D01*
X139798136Y-85290462D01*
X139911747Y-85308456D01*
X139974882Y-85338385D01*
X140011814Y-85397696D01*
X140010816Y-85467559D01*
X140002836Y-85487222D01*
X139984537Y-85523135D01*
X139964445Y-85649997D01*
X139964445Y-85650002D01*
X139984537Y-85776863D01*
X139984538Y-85776866D01*
X139984539Y-85776868D01*
X140042854Y-85891318D01*
X140042855Y-85891319D01*
X140042858Y-85891323D01*
X140133676Y-85982141D01*
X140133680Y-85982144D01*
X140133682Y-85982146D01*
X140248132Y-86040461D01*
X140248134Y-86040461D01*
X140248136Y-86040462D01*
X140374998Y-86060555D01*
X140375000Y-86060555D01*
X140375002Y-86060555D01*
X140501863Y-86040462D01*
X140501863Y-86040461D01*
X140501868Y-86040461D01*
X140616318Y-85982146D01*
X140707146Y-85891318D01*
X140739016Y-85828768D01*
X140786989Y-85777974D01*
X140854810Y-85761178D01*
X140920945Y-85783715D01*
X140964397Y-85838430D01*
X140973500Y-85885064D01*
X140973500Y-88326755D01*
X140953815Y-88393794D01*
X140947099Y-88399613D01*
X140972477Y-88457351D01*
X140973500Y-88473244D01*
X140973500Y-91087794D01*
X140953815Y-91154833D01*
X140901011Y-91200588D01*
X140831853Y-91210532D01*
X140789763Y-91196456D01*
X140651371Y-91120374D01*
X140651361Y-91120371D01*
X140492180Y-91079500D01*
X140492177Y-91079500D01*
X140402302Y-91079500D01*
X140335263Y-91059815D01*
X140289508Y-91007011D01*
X140279564Y-90937853D01*
X140287977Y-90911316D01*
X140287447Y-90911144D01*
X140290459Y-90901871D01*
X140290461Y-90901868D01*
X140310555Y-90775000D01*
X140305221Y-90741323D01*
X140290462Y-90648136D01*
X140290461Y-90648134D01*
X140290461Y-90648132D01*
X140232146Y-90533682D01*
X140232144Y-90533680D01*
X140232141Y-90533676D01*
X140141323Y-90442858D01*
X140141319Y-90442855D01*
X140141318Y-90442854D01*
X140026868Y-90384539D01*
X140026866Y-90384538D01*
X140026863Y-90384537D01*
X139900002Y-90364445D01*
X139899998Y-90364445D01*
X139773136Y-90384537D01*
X139773132Y-90384538D01*
X139773132Y-90384539D01*
X139759818Y-90391323D01*
X139658680Y-90442855D01*
X139658676Y-90442858D01*
X139567858Y-90533676D01*
X139567855Y-90533680D01*
X139509537Y-90648136D01*
X139489445Y-90774997D01*
X139489445Y-90775002D01*
X139509537Y-90901863D01*
X139509538Y-90901866D01*
X139509539Y-90901868D01*
X139519020Y-90920476D01*
X139531916Y-90989144D01*
X139505639Y-91053884D01*
X139454183Y-91092061D01*
X139294130Y-91155431D01*
X139294121Y-91155436D01*
X139161164Y-91252034D01*
X139161162Y-91252037D01*
X139056400Y-91378673D01*
X138986420Y-91527387D01*
X138975975Y-91582146D01*
X138955624Y-91688830D01*
X138955624Y-91688832D01*
X138955624Y-91688833D01*
X138965944Y-91852860D01*
X139016732Y-92009171D01*
X139016734Y-92009175D01*
X139104798Y-92147940D01*
X139224603Y-92260445D01*
X139224611Y-92260451D01*
X139329027Y-92317854D01*
X139368632Y-92339627D01*
X139527823Y-92380500D01*
X139527827Y-92380500D01*
X140450923Y-92380500D01*
X140450925Y-92380500D01*
X140450930Y-92380499D01*
X140450934Y-92380499D01*
X140464174Y-92378826D01*
X140573058Y-92365071D01*
X140725871Y-92304568D01*
X140776614Y-92267700D01*
X140842421Y-92244221D01*
X140910475Y-92260046D01*
X140959170Y-92310152D01*
X140973500Y-92368019D01*
X140973500Y-99727794D01*
X140953815Y-99794833D01*
X140901011Y-99840588D01*
X140831853Y-99850532D01*
X140789763Y-99836456D01*
X140651371Y-99760374D01*
X140651361Y-99760371D01*
X140492180Y-99719500D01*
X140492177Y-99719500D01*
X139569075Y-99719500D01*
X139569065Y-99719500D01*
X139446942Y-99734929D01*
X139446939Y-99734929D01*
X139294130Y-99795431D01*
X139294121Y-99795436D01*
X139161164Y-99892034D01*
X139161162Y-99892037D01*
X139056400Y-100018673D01*
X138986420Y-100167387D01*
X138971207Y-100247139D01*
X138955624Y-100328830D01*
X138955624Y-100328832D01*
X138955624Y-100328833D01*
X138965944Y-100492860D01*
X139016732Y-100649171D01*
X139016734Y-100649175D01*
X139104798Y-100787940D01*
X139224603Y-100900445D01*
X139224611Y-100900451D01*
X139279885Y-100930838D01*
X139329149Y-100980384D01*
X139343806Y-101048699D01*
X139319202Y-101114094D01*
X139263150Y-101155805D01*
X139220148Y-101163500D01*
X136756170Y-101163500D01*
X136689131Y-101143815D01*
X136643376Y-101091011D01*
X136633432Y-101021853D01*
X136662457Y-100958297D01*
X136683285Y-100939182D01*
X136808835Y-100847965D01*
X136808835Y-100847963D01*
X136808837Y-100847963D01*
X136913600Y-100721326D01*
X136983579Y-100572613D01*
X137014376Y-100411170D01*
X137004056Y-100247140D01*
X136953268Y-100090829D01*
X136865202Y-99952060D01*
X136757086Y-99850532D01*
X136745396Y-99839554D01*
X136745388Y-99839548D01*
X136601371Y-99760374D01*
X136601361Y-99760371D01*
X136499555Y-99734232D01*
X136439517Y-99698494D01*
X136408331Y-99635971D01*
X136415899Y-99566512D01*
X136459817Y-99512171D01*
X136482940Y-99499567D01*
X136620228Y-99442700D01*
X136620229Y-99442700D01*
X136620229Y-99442699D01*
X136620233Y-99442698D01*
X136740451Y-99350451D01*
X136832698Y-99230233D01*
X136890687Y-99090236D01*
X136910466Y-98940000D01*
X136909341Y-98931458D01*
X136897228Y-98839445D01*
X136890687Y-98789764D01*
X136832698Y-98649767D01*
X136740451Y-98529549D01*
X136620233Y-98437302D01*
X136620229Y-98437300D01*
X136487075Y-98382146D01*
X136480236Y-98379313D01*
X136466171Y-98377461D01*
X136367727Y-98364500D01*
X136367720Y-98364500D01*
X136292280Y-98364500D01*
X136292272Y-98364500D01*
X136179764Y-98379313D01*
X136179763Y-98379313D01*
X136039770Y-98437300D01*
X136039767Y-98437301D01*
X136039767Y-98437302D01*
X135978207Y-98484539D01*
X135919549Y-98529549D01*
X135827300Y-98649770D01*
X135769313Y-98789763D01*
X135769312Y-98789765D01*
X135749534Y-98939999D01*
X135749534Y-98940000D01*
X135769312Y-99090234D01*
X135769313Y-99090236D01*
X135784986Y-99128075D01*
X135827302Y-99230233D01*
X135919549Y-99350451D01*
X136039767Y-99442698D01*
X136039770Y-99442699D01*
X136039771Y-99442700D01*
X136132088Y-99480939D01*
X136186492Y-99524780D01*
X136208557Y-99591074D01*
X136191278Y-99658773D01*
X136140141Y-99706384D01*
X136084636Y-99719500D01*
X135219065Y-99719500D01*
X135096942Y-99734929D01*
X135096939Y-99734929D01*
X134944130Y-99795431D01*
X134944121Y-99795436D01*
X134811164Y-99892034D01*
X134811162Y-99892037D01*
X134706400Y-100018673D01*
X134636420Y-100167387D01*
X134621207Y-100247139D01*
X134605624Y-100328830D01*
X134605624Y-100328832D01*
X134605624Y-100328833D01*
X134615944Y-100492860D01*
X134666732Y-100649171D01*
X134666734Y-100649175D01*
X134754798Y-100787940D01*
X134874603Y-100900445D01*
X134874611Y-100900451D01*
X134929885Y-100930838D01*
X134979149Y-100980384D01*
X134993806Y-101048699D01*
X134969202Y-101114094D01*
X134913150Y-101155805D01*
X134870148Y-101163500D01*
X133596764Y-101163500D01*
X133529725Y-101143815D01*
X133483970Y-101091011D01*
X133474026Y-101021853D01*
X133486277Y-100983208D01*
X133540461Y-100876868D01*
X133545039Y-100847963D01*
X133560555Y-100750002D01*
X133560555Y-100749997D01*
X133540462Y-100623136D01*
X133540461Y-100623134D01*
X133540461Y-100623132D01*
X133482146Y-100508682D01*
X133482144Y-100508680D01*
X133482141Y-100508676D01*
X133391323Y-100417858D01*
X133391319Y-100417855D01*
X133391318Y-100417854D01*
X133276868Y-100359539D01*
X133276866Y-100359538D01*
X133276863Y-100359537D01*
X133150002Y-100339445D01*
X133149998Y-100339445D01*
X133023136Y-100359537D01*
X132908680Y-100417855D01*
X132908676Y-100417858D01*
X132817858Y-100508676D01*
X132817855Y-100508680D01*
X132759537Y-100623136D01*
X132739445Y-100749997D01*
X132739445Y-100750002D01*
X132759537Y-100876863D01*
X132759538Y-100876866D01*
X132759539Y-100876868D01*
X132813721Y-100983207D01*
X132826617Y-101051875D01*
X132800340Y-101116615D01*
X132743234Y-101156872D01*
X132703236Y-101163500D01*
X127771925Y-101163500D01*
X127704886Y-101143815D01*
X127659131Y-101091011D01*
X127649187Y-101021853D01*
X127649452Y-101020102D01*
X127660555Y-100950001D01*
X127660555Y-100949997D01*
X127640462Y-100823136D01*
X127640461Y-100823134D01*
X127640461Y-100823132D01*
X127582146Y-100708682D01*
X127582144Y-100708680D01*
X127582141Y-100708676D01*
X127491323Y-100617858D01*
X127491319Y-100617855D01*
X127491318Y-100617854D01*
X127461263Y-100602540D01*
X127410469Y-100554568D01*
X127393674Y-100486747D01*
X127395087Y-100472658D01*
X127403768Y-100417854D01*
X127410555Y-100375000D01*
X127408106Y-100359539D01*
X127390462Y-100248136D01*
X127390461Y-100248134D01*
X127390461Y-100248132D01*
X127332146Y-100133682D01*
X127332144Y-100133680D01*
X127332141Y-100133676D01*
X127241323Y-100042858D01*
X127241319Y-100042855D01*
X127241318Y-100042854D01*
X127126868Y-99984539D01*
X127126866Y-99984538D01*
X127126863Y-99984537D01*
X127000002Y-99964445D01*
X126999998Y-99964445D01*
X126873136Y-99984537D01*
X126758680Y-100042855D01*
X126758676Y-100042858D01*
X126667858Y-100133676D01*
X126667855Y-100133680D01*
X126609537Y-100248136D01*
X126589445Y-100374997D01*
X126589445Y-100375002D01*
X126609537Y-100501863D01*
X126609538Y-100501866D01*
X126609539Y-100501868D01*
X126660835Y-100602542D01*
X126667855Y-100616319D01*
X126667858Y-100616323D01*
X126758676Y-100707141D01*
X126758682Y-100707146D01*
X126788734Y-100722458D01*
X126839529Y-100770430D01*
X126856325Y-100838251D01*
X126854912Y-100852339D01*
X126839445Y-100949996D01*
X126839445Y-100950001D01*
X126850548Y-101020102D01*
X126841594Y-101089395D01*
X126796598Y-101142847D01*
X126729846Y-101163487D01*
X126728075Y-101163500D01*
X122496500Y-101163500D01*
X122429461Y-101143815D01*
X122383706Y-101091011D01*
X122372500Y-101039500D01*
X122372500Y-99620583D01*
X122392185Y-99553544D01*
X122444989Y-99507789D01*
X122514147Y-99497845D01*
X122552790Y-99510096D01*
X122573132Y-99520461D01*
X122573134Y-99520461D01*
X122573136Y-99520462D01*
X122699998Y-99540555D01*
X122700000Y-99540555D01*
X122700002Y-99540555D01*
X122826863Y-99520462D01*
X122826863Y-99520461D01*
X122826868Y-99520461D01*
X122941318Y-99462146D01*
X123032146Y-99371318D01*
X123090461Y-99256868D01*
X123090462Y-99256863D01*
X123091549Y-99250002D01*
X123639445Y-99250002D01*
X123659537Y-99376863D01*
X123659538Y-99376866D01*
X123659539Y-99376868D01*
X123712566Y-99480939D01*
X123717855Y-99491319D01*
X123717858Y-99491323D01*
X123808676Y-99582141D01*
X123808680Y-99582144D01*
X123808682Y-99582146D01*
X123923132Y-99640461D01*
X123923134Y-99640461D01*
X123923136Y-99640462D01*
X124049998Y-99660555D01*
X124050000Y-99660555D01*
X124050002Y-99660555D01*
X124176863Y-99640462D01*
X124176863Y-99640461D01*
X124176868Y-99640461D01*
X124291318Y-99582146D01*
X124382146Y-99491318D01*
X124440461Y-99376868D01*
X124458106Y-99265462D01*
X124460555Y-99250002D01*
X124460555Y-99249997D01*
X124440462Y-99123136D01*
X124440461Y-99123134D01*
X124440461Y-99123132D01*
X124382146Y-99008682D01*
X124382144Y-99008680D01*
X124382141Y-99008676D01*
X124291323Y-98917858D01*
X124291319Y-98917855D01*
X124291318Y-98917854D01*
X124207216Y-98875002D01*
X129489445Y-98875002D01*
X129509537Y-99001863D01*
X129509538Y-99001866D01*
X129509539Y-99001868D01*
X129567854Y-99116318D01*
X129567855Y-99116319D01*
X129567858Y-99116323D01*
X129658676Y-99207141D01*
X129658680Y-99207144D01*
X129658682Y-99207146D01*
X129773132Y-99265461D01*
X129773134Y-99265461D01*
X129773136Y-99265462D01*
X129899998Y-99285555D01*
X129900000Y-99285555D01*
X129900002Y-99285555D01*
X130026863Y-99265462D01*
X130026863Y-99265461D01*
X130026868Y-99265461D01*
X130141318Y-99207146D01*
X130232146Y-99116318D01*
X130232147Y-99116315D01*
X130233758Y-99114705D01*
X130295081Y-99081220D01*
X130364773Y-99086204D01*
X130420707Y-99128075D01*
X130445124Y-99193539D01*
X130443914Y-99221782D01*
X130439446Y-99249997D01*
X130439445Y-99250001D01*
X130439445Y-99250002D01*
X130459537Y-99376863D01*
X130459538Y-99376866D01*
X130459539Y-99376868D01*
X130512566Y-99480939D01*
X130517855Y-99491319D01*
X130517858Y-99491323D01*
X130608676Y-99582141D01*
X130608680Y-99582144D01*
X130608682Y-99582146D01*
X130723132Y-99640461D01*
X130723134Y-99640461D01*
X130723136Y-99640462D01*
X130849998Y-99660555D01*
X130850000Y-99660555D01*
X130850002Y-99660555D01*
X130976863Y-99640462D01*
X130976863Y-99640461D01*
X130976868Y-99640461D01*
X131091318Y-99582146D01*
X131182146Y-99491318D01*
X131240461Y-99376868D01*
X131258106Y-99265462D01*
X131260555Y-99250002D01*
X131260555Y-99249997D01*
X131240462Y-99123136D01*
X131240461Y-99123134D01*
X131240461Y-99123132D01*
X131182146Y-99008682D01*
X131182144Y-99008680D01*
X131182141Y-99008676D01*
X131091323Y-98917858D01*
X131091319Y-98917855D01*
X131091318Y-98917854D01*
X130976868Y-98859539D01*
X130976866Y-98859538D01*
X130976863Y-98859537D01*
X130850002Y-98839445D01*
X130849998Y-98839445D01*
X130723136Y-98859537D01*
X130608680Y-98917855D01*
X130516240Y-99010295D01*
X130454916Y-99043779D01*
X130385225Y-99038795D01*
X130329292Y-98996923D01*
X130304875Y-98931458D01*
X130306086Y-98903213D01*
X130310555Y-98874999D01*
X130310555Y-98874997D01*
X130290462Y-98748136D01*
X130290461Y-98748134D01*
X130290461Y-98748132D01*
X130232146Y-98633682D01*
X130232144Y-98633680D01*
X130232141Y-98633676D01*
X130141323Y-98542858D01*
X130141319Y-98542855D01*
X130141318Y-98542854D01*
X130026868Y-98484539D01*
X130026866Y-98484538D01*
X130026863Y-98484537D01*
X129900002Y-98464445D01*
X129899998Y-98464445D01*
X129773136Y-98484537D01*
X129658680Y-98542855D01*
X129658676Y-98542858D01*
X129567858Y-98633676D01*
X129567855Y-98633680D01*
X129509537Y-98748136D01*
X129489445Y-98874997D01*
X129489445Y-98875002D01*
X124207216Y-98875002D01*
X124176868Y-98859539D01*
X124176866Y-98859538D01*
X124176863Y-98859537D01*
X124050002Y-98839445D01*
X124049998Y-98839445D01*
X123923136Y-98859537D01*
X123808680Y-98917855D01*
X123808676Y-98917858D01*
X123717858Y-99008676D01*
X123717855Y-99008680D01*
X123659537Y-99123136D01*
X123639445Y-99249997D01*
X123639445Y-99250002D01*
X123091549Y-99250002D01*
X123110555Y-99130002D01*
X123110555Y-99129997D01*
X123090462Y-99003136D01*
X123090461Y-99003134D01*
X123090461Y-99003132D01*
X123032146Y-98888682D01*
X123032144Y-98888680D01*
X123032141Y-98888676D01*
X122941323Y-98797858D01*
X122941319Y-98797855D01*
X122941318Y-98797854D01*
X122826868Y-98739539D01*
X122826866Y-98739538D01*
X122826863Y-98739537D01*
X122700002Y-98719445D01*
X122699998Y-98719445D01*
X122573133Y-98739538D01*
X122552792Y-98749902D01*
X122484122Y-98762797D01*
X122419382Y-98736518D01*
X122379127Y-98679411D01*
X122372500Y-98639416D01*
X122372500Y-97700002D01*
X123989445Y-97700002D01*
X124009537Y-97826863D01*
X124009538Y-97826866D01*
X124009539Y-97826868D01*
X124045850Y-97898132D01*
X124067855Y-97941319D01*
X124067858Y-97941323D01*
X124158676Y-98032141D01*
X124158680Y-98032144D01*
X124158682Y-98032146D01*
X124273132Y-98090461D01*
X124273134Y-98090461D01*
X124273136Y-98090462D01*
X124399998Y-98110555D01*
X124400000Y-98110555D01*
X124400002Y-98110555D01*
X124526863Y-98090462D01*
X124526863Y-98090461D01*
X124526868Y-98090461D01*
X124641318Y-98032146D01*
X124648462Y-98025002D01*
X125089445Y-98025002D01*
X125109537Y-98151863D01*
X125109538Y-98151866D01*
X125109539Y-98151868D01*
X125167854Y-98266318D01*
X125167855Y-98266319D01*
X125167858Y-98266323D01*
X125258676Y-98357141D01*
X125258680Y-98357144D01*
X125258682Y-98357146D01*
X125373132Y-98415461D01*
X125373134Y-98415461D01*
X125373136Y-98415462D01*
X125499998Y-98435555D01*
X125500000Y-98435555D01*
X125500002Y-98435555D01*
X125626863Y-98415462D01*
X125626863Y-98415461D01*
X125626868Y-98415461D01*
X125741318Y-98357146D01*
X125758003Y-98340461D01*
X125799819Y-98298646D01*
X125861142Y-98265161D01*
X125930834Y-98270145D01*
X125975181Y-98298646D01*
X126058676Y-98382141D01*
X126058680Y-98382144D01*
X126058682Y-98382146D01*
X126173132Y-98440461D01*
X126173134Y-98440461D01*
X126173136Y-98440462D01*
X126299998Y-98460555D01*
X126300000Y-98460555D01*
X126300002Y-98460555D01*
X126426863Y-98440462D01*
X126426863Y-98440461D01*
X126426868Y-98440461D01*
X126541318Y-98382146D01*
X126632146Y-98291318D01*
X126690461Y-98176868D01*
X126694421Y-98151868D01*
X126710555Y-98050002D01*
X126710555Y-98049997D01*
X126706596Y-98025002D01*
X127814445Y-98025002D01*
X127834537Y-98151863D01*
X127834538Y-98151866D01*
X127834539Y-98151868D01*
X127892854Y-98266318D01*
X127892855Y-98266319D01*
X127892858Y-98266323D01*
X127983676Y-98357141D01*
X127983680Y-98357144D01*
X127983682Y-98357146D01*
X128098132Y-98415461D01*
X128098134Y-98415461D01*
X128098136Y-98415462D01*
X128224998Y-98435555D01*
X128225000Y-98435555D01*
X128225002Y-98435555D01*
X128351863Y-98415462D01*
X128351863Y-98415461D01*
X128351868Y-98415461D01*
X128466318Y-98357146D01*
X128557146Y-98266318D01*
X128615461Y-98151868D01*
X128615462Y-98151863D01*
X128635555Y-98025002D01*
X128635555Y-98024997D01*
X128623677Y-97950002D01*
X137814445Y-97950002D01*
X137834537Y-98076863D01*
X137834538Y-98076866D01*
X137834539Y-98076868D01*
X137892854Y-98191318D01*
X137892855Y-98191319D01*
X137892858Y-98191323D01*
X137983676Y-98282141D01*
X137983680Y-98282144D01*
X137983682Y-98282146D01*
X138098132Y-98340461D01*
X138098134Y-98340461D01*
X138098136Y-98340462D01*
X138224998Y-98360555D01*
X138225000Y-98360555D01*
X138225002Y-98360555D01*
X138351863Y-98340462D01*
X138351863Y-98340461D01*
X138351868Y-98340461D01*
X138466318Y-98282146D01*
X138557146Y-98191318D01*
X138615461Y-98076868D01*
X138619716Y-98050002D01*
X138635555Y-97950002D01*
X138635555Y-97949997D01*
X138615462Y-97823136D01*
X138615461Y-97823134D01*
X138615461Y-97823132D01*
X138557146Y-97708682D01*
X138557144Y-97708680D01*
X138557141Y-97708676D01*
X138466323Y-97617858D01*
X138466319Y-97617855D01*
X138466318Y-97617854D01*
X138351868Y-97559539D01*
X138351866Y-97559538D01*
X138351863Y-97559537D01*
X138225002Y-97539445D01*
X138224998Y-97539445D01*
X138098136Y-97559537D01*
X137983680Y-97617855D01*
X137983676Y-97617858D01*
X137892858Y-97708676D01*
X137892855Y-97708680D01*
X137834537Y-97823136D01*
X137814445Y-97949997D01*
X137814445Y-97950002D01*
X128623677Y-97950002D01*
X128615462Y-97898136D01*
X128615461Y-97898134D01*
X128615461Y-97898132D01*
X128557146Y-97783682D01*
X128557144Y-97783680D01*
X128557141Y-97783676D01*
X128466323Y-97692858D01*
X128466319Y-97692855D01*
X128466318Y-97692854D01*
X128351868Y-97634539D01*
X128351866Y-97634538D01*
X128351863Y-97634537D01*
X128225002Y-97614445D01*
X128224998Y-97614445D01*
X128098136Y-97634537D01*
X127983680Y-97692855D01*
X127983676Y-97692858D01*
X127892858Y-97783676D01*
X127892855Y-97783680D01*
X127834537Y-97898136D01*
X127814445Y-98024997D01*
X127814445Y-98025002D01*
X126706596Y-98025002D01*
X126690462Y-97923136D01*
X126690461Y-97923134D01*
X126690461Y-97923132D01*
X126632146Y-97808682D01*
X126632144Y-97808680D01*
X126632141Y-97808676D01*
X126541323Y-97717858D01*
X126541319Y-97717855D01*
X126541318Y-97717854D01*
X126426868Y-97659539D01*
X126426866Y-97659538D01*
X126426863Y-97659537D01*
X126300002Y-97639445D01*
X126299998Y-97639445D01*
X126173136Y-97659537D01*
X126058680Y-97717855D01*
X126058676Y-97717858D01*
X126000181Y-97776354D01*
X125938858Y-97809839D01*
X125869166Y-97804855D01*
X125824819Y-97776354D01*
X125741323Y-97692858D01*
X125741319Y-97692855D01*
X125741318Y-97692854D01*
X125626868Y-97634539D01*
X125626866Y-97634538D01*
X125626863Y-97634537D01*
X125500002Y-97614445D01*
X125499998Y-97614445D01*
X125373136Y-97634537D01*
X125258680Y-97692855D01*
X125258676Y-97692858D01*
X125167858Y-97783676D01*
X125167855Y-97783680D01*
X125109537Y-97898136D01*
X125089445Y-98024997D01*
X125089445Y-98025002D01*
X124648462Y-98025002D01*
X124732146Y-97941318D01*
X124790461Y-97826868D01*
X124793158Y-97809839D01*
X124810555Y-97700002D01*
X124810555Y-97699997D01*
X124790462Y-97573136D01*
X124790461Y-97573134D01*
X124790461Y-97573132D01*
X124732146Y-97458682D01*
X124732144Y-97458680D01*
X124732141Y-97458676D01*
X124641323Y-97367858D01*
X124641319Y-97367855D01*
X124641318Y-97367854D01*
X124526868Y-97309539D01*
X124526866Y-97309538D01*
X124526863Y-97309537D01*
X124400002Y-97289445D01*
X124399998Y-97289445D01*
X124273136Y-97309537D01*
X124158680Y-97367855D01*
X124158676Y-97367858D01*
X124067858Y-97458676D01*
X124067855Y-97458680D01*
X124067854Y-97458682D01*
X124025749Y-97541319D01*
X124009537Y-97573136D01*
X123989445Y-97699997D01*
X123989445Y-97700002D01*
X122372500Y-97700002D01*
X122372500Y-95850002D01*
X125664445Y-95850002D01*
X125684537Y-95976863D01*
X125684538Y-95976866D01*
X125684539Y-95976868D01*
X125724976Y-96056230D01*
X125742855Y-96091319D01*
X125742858Y-96091323D01*
X125833676Y-96182141D01*
X125833680Y-96182144D01*
X125833682Y-96182146D01*
X125948132Y-96240461D01*
X125948134Y-96240461D01*
X125948136Y-96240462D01*
X126074998Y-96260555D01*
X126075000Y-96260555D01*
X126075002Y-96260555D01*
X126201863Y-96240462D01*
X126201863Y-96240461D01*
X126201868Y-96240461D01*
X126316318Y-96182146D01*
X126407146Y-96091318D01*
X126465461Y-95976868D01*
X126466838Y-95968177D01*
X126485555Y-95850002D01*
X126485555Y-95849997D01*
X126465462Y-95723136D01*
X126465461Y-95723134D01*
X126465461Y-95723132D01*
X126407146Y-95608682D01*
X126407144Y-95608680D01*
X126407141Y-95608676D01*
X126316323Y-95517858D01*
X126316319Y-95517855D01*
X126316318Y-95517854D01*
X126201868Y-95459539D01*
X126201866Y-95459538D01*
X126201863Y-95459537D01*
X126075002Y-95439445D01*
X126074998Y-95439445D01*
X125948136Y-95459537D01*
X125833680Y-95517855D01*
X125833676Y-95517858D01*
X125742858Y-95608676D01*
X125742855Y-95608680D01*
X125684537Y-95723136D01*
X125664445Y-95849997D01*
X125664445Y-95850002D01*
X122372500Y-95850002D01*
X122372500Y-95425002D01*
X128564445Y-95425002D01*
X128584537Y-95551863D01*
X128584538Y-95551864D01*
X128584539Y-95551868D01*
X128622880Y-95627116D01*
X128642855Y-95666319D01*
X128642858Y-95666323D01*
X128733676Y-95757141D01*
X128733680Y-95757144D01*
X128733682Y-95757146D01*
X128848132Y-95815461D01*
X128848134Y-95815461D01*
X128848136Y-95815462D01*
X128974998Y-95835555D01*
X128975000Y-95835555D01*
X128975002Y-95835555D01*
X129101863Y-95815462D01*
X129101863Y-95815461D01*
X129101868Y-95815461D01*
X129151476Y-95790184D01*
X129220142Y-95777289D01*
X129284883Y-95803565D01*
X129325140Y-95860672D01*
X129328132Y-95930477D01*
X129318253Y-95956964D01*
X129284537Y-96023134D01*
X129264445Y-96149997D01*
X129264445Y-96150002D01*
X129284537Y-96276863D01*
X129284538Y-96276866D01*
X129284539Y-96276868D01*
X129342854Y-96391318D01*
X129342855Y-96391319D01*
X129342858Y-96391323D01*
X129433676Y-96482141D01*
X129433680Y-96482144D01*
X129433682Y-96482146D01*
X129548132Y-96540461D01*
X129548134Y-96540461D01*
X129548136Y-96540462D01*
X129674998Y-96560555D01*
X129675000Y-96560555D01*
X129675002Y-96560555D01*
X129801863Y-96540462D01*
X129801863Y-96540461D01*
X129801868Y-96540461D01*
X129916318Y-96482146D01*
X129955175Y-96443289D01*
X130016498Y-96409803D01*
X130086189Y-96414787D01*
X130142123Y-96456657D01*
X130166541Y-96522122D01*
X130160788Y-96569288D01*
X130159537Y-96573135D01*
X130139445Y-96699997D01*
X130139445Y-96700002D01*
X130159537Y-96826865D01*
X130219070Y-96943706D01*
X130231966Y-97012375D01*
X130219070Y-97056294D01*
X130159537Y-97173134D01*
X130139445Y-97299997D01*
X130139445Y-97300002D01*
X130159537Y-97426863D01*
X130159538Y-97426866D01*
X130159539Y-97426868D01*
X130213435Y-97532645D01*
X130217855Y-97541319D01*
X130217858Y-97541323D01*
X130308676Y-97632141D01*
X130308680Y-97632144D01*
X130308682Y-97632146D01*
X130423132Y-97690461D01*
X130423134Y-97690461D01*
X130423136Y-97690462D01*
X130549998Y-97710555D01*
X130550000Y-97710555D01*
X130550002Y-97710555D01*
X130676863Y-97690462D01*
X130676863Y-97690461D01*
X130676868Y-97690461D01*
X130791318Y-97632146D01*
X130814393Y-97609071D01*
X130862319Y-97561146D01*
X130923642Y-97527661D01*
X130993334Y-97532645D01*
X131037681Y-97561146D01*
X131108676Y-97632141D01*
X131108680Y-97632144D01*
X131108682Y-97632146D01*
X131223132Y-97690461D01*
X131223134Y-97690461D01*
X131223136Y-97690462D01*
X131349998Y-97710555D01*
X131350000Y-97710555D01*
X131350002Y-97710555D01*
X131476863Y-97690462D01*
X131476863Y-97690461D01*
X131476868Y-97690461D01*
X131591318Y-97632146D01*
X131682146Y-97541318D01*
X131740461Y-97426868D01*
X131746714Y-97387390D01*
X131760555Y-97300002D01*
X131760555Y-97299997D01*
X131740462Y-97173136D01*
X131740461Y-97173134D01*
X131740461Y-97173132D01*
X131682146Y-97058682D01*
X131682144Y-97058680D01*
X131680929Y-97056295D01*
X131668033Y-96987625D01*
X131680929Y-96943705D01*
X131682144Y-96941319D01*
X131682146Y-96941318D01*
X131740461Y-96826868D01*
X131760555Y-96700000D01*
X131752970Y-96652113D01*
X131740462Y-96573136D01*
X131740461Y-96573134D01*
X131740461Y-96573132D01*
X131682146Y-96458682D01*
X131682144Y-96458680D01*
X131680929Y-96456295D01*
X131668033Y-96387625D01*
X131680929Y-96343705D01*
X131682144Y-96341319D01*
X131682146Y-96341318D01*
X131740461Y-96226868D01*
X131740462Y-96226863D01*
X131760555Y-96100002D01*
X131760555Y-96099997D01*
X131740462Y-95973136D01*
X131740461Y-95973134D01*
X131740461Y-95973132D01*
X131682146Y-95858682D01*
X131682144Y-95858680D01*
X131682141Y-95858676D01*
X131591323Y-95767858D01*
X131591319Y-95767855D01*
X131591318Y-95767854D01*
X131476868Y-95709539D01*
X131476866Y-95709538D01*
X131476863Y-95709537D01*
X131350002Y-95689445D01*
X131349998Y-95689445D01*
X131223136Y-95709537D01*
X131108680Y-95767855D01*
X131108676Y-95767858D01*
X131037681Y-95838854D01*
X130976358Y-95872339D01*
X130906666Y-95867355D01*
X130862319Y-95838854D01*
X130791323Y-95767858D01*
X130791319Y-95767855D01*
X130791318Y-95767854D01*
X130676868Y-95709539D01*
X130676866Y-95709538D01*
X130676863Y-95709537D01*
X130550002Y-95689445D01*
X130549998Y-95689445D01*
X130423136Y-95709537D01*
X130308680Y-95767855D01*
X130308676Y-95767858D01*
X130217858Y-95858676D01*
X130217854Y-95858681D01*
X130207337Y-95879323D01*
X130159362Y-95930118D01*
X130091541Y-95946912D01*
X130025406Y-95924374D01*
X130009172Y-95910707D01*
X129916323Y-95817858D01*
X129916319Y-95817855D01*
X129916318Y-95817854D01*
X129801868Y-95759539D01*
X129801866Y-95759538D01*
X129801863Y-95759537D01*
X129675002Y-95739445D01*
X129674998Y-95739445D01*
X129548135Y-95759537D01*
X129498524Y-95784815D01*
X129429854Y-95797710D01*
X129365114Y-95771432D01*
X129324858Y-95714325D01*
X129321867Y-95644519D01*
X129331743Y-95618042D01*
X129365461Y-95551868D01*
X129369501Y-95526365D01*
X129385555Y-95425002D01*
X129385555Y-95424997D01*
X129365462Y-95298136D01*
X129365461Y-95298134D01*
X129365461Y-95298132D01*
X129307146Y-95183682D01*
X129307144Y-95183680D01*
X129307141Y-95183676D01*
X129216323Y-95092858D01*
X129216319Y-95092855D01*
X129216318Y-95092854D01*
X129101868Y-95034539D01*
X129101866Y-95034538D01*
X129101863Y-95034537D01*
X128975002Y-95014445D01*
X128974998Y-95014445D01*
X128848136Y-95034537D01*
X128733680Y-95092855D01*
X128733676Y-95092858D01*
X128642858Y-95183676D01*
X128642855Y-95183680D01*
X128584537Y-95298136D01*
X128564445Y-95424997D01*
X128564445Y-95425002D01*
X122372500Y-95425002D01*
X122372500Y-95365583D01*
X122392185Y-95298544D01*
X122444989Y-95252789D01*
X122514147Y-95242845D01*
X122552790Y-95255096D01*
X122573132Y-95265461D01*
X122573134Y-95265461D01*
X122573136Y-95265462D01*
X122699998Y-95285555D01*
X122700000Y-95285555D01*
X122700002Y-95285555D01*
X122826863Y-95265462D01*
X122826863Y-95265461D01*
X122826868Y-95265461D01*
X122941318Y-95207146D01*
X123032146Y-95116318D01*
X123090461Y-95001868D01*
X123091838Y-94993177D01*
X123110555Y-94875002D01*
X123110555Y-94874997D01*
X123090462Y-94748136D01*
X123090461Y-94748134D01*
X123090461Y-94748132D01*
X123032146Y-94633682D01*
X123032144Y-94633680D01*
X123032141Y-94633676D01*
X122941323Y-94542858D01*
X122941319Y-94542855D01*
X122941318Y-94542854D01*
X122826868Y-94484539D01*
X122826866Y-94484538D01*
X122826863Y-94484537D01*
X122700002Y-94464445D01*
X122699998Y-94464445D01*
X122573133Y-94484538D01*
X122552792Y-94494902D01*
X122484122Y-94507797D01*
X122419382Y-94481518D01*
X122379127Y-94424411D01*
X122372500Y-94384416D01*
X122372500Y-93650002D01*
X123489445Y-93650002D01*
X123509537Y-93776863D01*
X123509538Y-93776866D01*
X123509539Y-93776868D01*
X123549424Y-93855146D01*
X123567855Y-93891319D01*
X123567858Y-93891323D01*
X123658676Y-93982141D01*
X123658680Y-93982144D01*
X123658682Y-93982146D01*
X123773132Y-94040461D01*
X123773134Y-94040461D01*
X123773136Y-94040462D01*
X123899998Y-94060555D01*
X123900000Y-94060555D01*
X123900002Y-94060555D01*
X124026863Y-94040462D01*
X124026863Y-94040461D01*
X124026868Y-94040461D01*
X124141318Y-93982146D01*
X124232146Y-93891318D01*
X124290461Y-93776868D01*
X124290997Y-93773484D01*
X124310555Y-93650002D01*
X124310555Y-93649997D01*
X124290462Y-93523136D01*
X124290461Y-93523134D01*
X124290461Y-93523132D01*
X124232146Y-93408682D01*
X124232144Y-93408680D01*
X124232141Y-93408676D01*
X124141323Y-93317858D01*
X124141319Y-93317855D01*
X124141318Y-93317854D01*
X124026868Y-93259539D01*
X124026866Y-93259538D01*
X124026863Y-93259537D01*
X123900002Y-93239445D01*
X123899998Y-93239445D01*
X123773136Y-93259537D01*
X123658680Y-93317855D01*
X123658676Y-93317858D01*
X123567858Y-93408676D01*
X123567855Y-93408680D01*
X123509537Y-93523136D01*
X123489445Y-93649997D01*
X123489445Y-93650002D01*
X122372500Y-93650002D01*
X122372500Y-90850002D01*
X124164445Y-90850002D01*
X124184537Y-90976863D01*
X124184538Y-90976866D01*
X124184539Y-90976868D01*
X124242854Y-91091318D01*
X124242855Y-91091319D01*
X124242858Y-91091323D01*
X124333676Y-91182141D01*
X124333680Y-91182144D01*
X124333682Y-91182146D01*
X124448132Y-91240461D01*
X124448134Y-91240461D01*
X124448136Y-91240462D01*
X124574998Y-91260555D01*
X124575000Y-91260555D01*
X124575002Y-91260555D01*
X124701863Y-91240462D01*
X124701863Y-91240461D01*
X124701868Y-91240461D01*
X124816318Y-91182146D01*
X124907146Y-91091318D01*
X124965461Y-90976868D01*
X124967708Y-90962681D01*
X124985555Y-90850002D01*
X124985555Y-90849997D01*
X124965462Y-90723136D01*
X124965461Y-90723134D01*
X124965461Y-90723132D01*
X124907146Y-90608682D01*
X124907144Y-90608680D01*
X124907141Y-90608676D01*
X124816323Y-90517858D01*
X124816319Y-90517855D01*
X124816318Y-90517854D01*
X124701868Y-90459539D01*
X124701866Y-90459538D01*
X124701863Y-90459537D01*
X124575002Y-90439445D01*
X124574998Y-90439445D01*
X124448136Y-90459537D01*
X124333680Y-90517855D01*
X124333676Y-90517858D01*
X124242858Y-90608676D01*
X124242855Y-90608680D01*
X124184537Y-90723136D01*
X124164445Y-90849997D01*
X124164445Y-90850002D01*
X122372500Y-90850002D01*
X122372500Y-88976279D01*
X122392185Y-88909240D01*
X122444989Y-88863485D01*
X122514147Y-88853541D01*
X122577703Y-88882566D01*
X122606982Y-88919981D01*
X122617854Y-88941318D01*
X122617855Y-88941319D01*
X122617858Y-88941323D01*
X122708676Y-89032141D01*
X122708680Y-89032144D01*
X122708682Y-89032146D01*
X122823132Y-89090461D01*
X122823134Y-89090461D01*
X122823136Y-89090462D01*
X122949998Y-89110555D01*
X122950000Y-89110555D01*
X122950002Y-89110555D01*
X123076863Y-89090462D01*
X123076863Y-89090461D01*
X123076868Y-89090461D01*
X123191318Y-89032146D01*
X123282146Y-88941318D01*
X123340461Y-88826868D01*
X123346227Y-88790462D01*
X123360555Y-88700002D01*
X123360555Y-88699997D01*
X123340462Y-88573136D01*
X123340461Y-88573134D01*
X123340461Y-88573132D01*
X123282146Y-88458682D01*
X123282144Y-88458680D01*
X123282141Y-88458676D01*
X123223645Y-88400180D01*
X123190160Y-88338857D01*
X123195144Y-88269165D01*
X123223645Y-88224818D01*
X123257146Y-88191318D01*
X123315461Y-88076868D01*
X123326125Y-88009537D01*
X123335555Y-87950002D01*
X123335555Y-87949997D01*
X123315462Y-87823136D01*
X123315461Y-87823134D01*
X123315461Y-87823132D01*
X123257146Y-87708682D01*
X123257144Y-87708680D01*
X123257141Y-87708676D01*
X123166323Y-87617858D01*
X123166319Y-87617855D01*
X123166318Y-87617854D01*
X123051868Y-87559539D01*
X123051866Y-87559538D01*
X123051863Y-87559537D01*
X122925002Y-87539445D01*
X122924998Y-87539445D01*
X122798136Y-87559537D01*
X122683680Y-87617855D01*
X122683676Y-87617858D01*
X122585953Y-87715582D01*
X122583706Y-87713335D01*
X122541489Y-87745891D01*
X122471876Y-87751870D01*
X122410081Y-87719265D01*
X122375723Y-87658427D01*
X122372500Y-87630340D01*
X122372500Y-86675002D01*
X124414445Y-86675002D01*
X124434537Y-86801863D01*
X124434538Y-86801866D01*
X124434539Y-86801868D01*
X124480901Y-86892858D01*
X124492855Y-86916319D01*
X124492858Y-86916323D01*
X124583676Y-87007141D01*
X124583680Y-87007144D01*
X124583682Y-87007146D01*
X124698132Y-87065461D01*
X124698134Y-87065461D01*
X124698136Y-87065462D01*
X124824998Y-87085555D01*
X124825000Y-87085555D01*
X124825002Y-87085555D01*
X124951863Y-87065462D01*
X124951863Y-87065461D01*
X124951868Y-87065461D01*
X125066318Y-87007146D01*
X125157146Y-86916318D01*
X125215461Y-86801868D01*
X125230220Y-86708683D01*
X125235555Y-86675002D01*
X125235555Y-86674997D01*
X125215462Y-86548136D01*
X125215461Y-86548134D01*
X125215461Y-86548132D01*
X125157146Y-86433682D01*
X125157144Y-86433680D01*
X125157141Y-86433676D01*
X125066323Y-86342858D01*
X125066319Y-86342855D01*
X125066318Y-86342854D01*
X124951868Y-86284539D01*
X124951866Y-86284538D01*
X124951863Y-86284537D01*
X124825002Y-86264445D01*
X124824998Y-86264445D01*
X124698136Y-86284537D01*
X124583680Y-86342855D01*
X124583676Y-86342858D01*
X124492858Y-86433676D01*
X124492855Y-86433680D01*
X124434537Y-86548136D01*
X124414445Y-86674997D01*
X124414445Y-86675002D01*
X122372500Y-86675002D01*
X122372500Y-85675002D01*
X123514445Y-85675002D01*
X123534537Y-85801863D01*
X123534538Y-85801866D01*
X123534539Y-85801868D01*
X123592854Y-85916318D01*
X123592855Y-85916319D01*
X123592858Y-85916323D01*
X123683676Y-86007141D01*
X123683680Y-86007144D01*
X123683682Y-86007146D01*
X123798132Y-86065461D01*
X123798134Y-86065461D01*
X123798136Y-86065462D01*
X123924998Y-86085555D01*
X123925000Y-86085555D01*
X123925002Y-86085555D01*
X124051863Y-86065462D01*
X124051863Y-86065461D01*
X124051868Y-86065461D01*
X124166318Y-86007146D01*
X124257146Y-85916318D01*
X124315461Y-85801868D01*
X124318336Y-85783715D01*
X124335555Y-85675002D01*
X124335555Y-85674997D01*
X124315462Y-85548136D01*
X124315461Y-85548134D01*
X124315461Y-85548132D01*
X124257146Y-85433682D01*
X124257144Y-85433680D01*
X124257141Y-85433676D01*
X124166323Y-85342858D01*
X124166319Y-85342855D01*
X124166318Y-85342854D01*
X124051868Y-85284539D01*
X124051866Y-85284538D01*
X124051861Y-85284536D01*
X124042582Y-85281521D01*
X124043215Y-85279571D01*
X123991478Y-85255045D01*
X123954546Y-85195733D01*
X123955544Y-85125871D01*
X123994153Y-85067638D01*
X124043159Y-85045256D01*
X124042582Y-85043479D01*
X124051861Y-85040463D01*
X124051863Y-85040461D01*
X124051868Y-85040461D01*
X124166318Y-84982146D01*
X124257146Y-84891318D01*
X124315461Y-84776868D01*
X124316053Y-84773132D01*
X124335555Y-84650002D01*
X124335555Y-84649997D01*
X124315462Y-84523136D01*
X124315461Y-84523134D01*
X124315461Y-84523132D01*
X124257146Y-84408682D01*
X124257144Y-84408680D01*
X124257141Y-84408676D01*
X124166323Y-84317858D01*
X124166319Y-84317855D01*
X124166318Y-84317854D01*
X124051868Y-84259539D01*
X124051866Y-84259538D01*
X124051863Y-84259537D01*
X123925002Y-84239445D01*
X123924998Y-84239445D01*
X123798136Y-84259537D01*
X123683680Y-84317855D01*
X123683676Y-84317858D01*
X123592858Y-84408676D01*
X123592855Y-84408680D01*
X123534537Y-84523136D01*
X123514445Y-84649997D01*
X123514445Y-84650002D01*
X123534537Y-84776863D01*
X123534538Y-84776866D01*
X123534539Y-84776868D01*
X123589918Y-84885555D01*
X123592855Y-84891319D01*
X123592858Y-84891323D01*
X123683676Y-84982141D01*
X123683680Y-84982144D01*
X123683682Y-84982146D01*
X123798132Y-85040461D01*
X123798135Y-85040461D01*
X123798138Y-85040463D01*
X123807418Y-85043479D01*
X123806784Y-85045429D01*
X123858523Y-85069957D01*
X123895453Y-85129269D01*
X123894455Y-85199132D01*
X123855844Y-85257364D01*
X123806840Y-85279743D01*
X123807418Y-85281521D01*
X123798138Y-85284536D01*
X123798132Y-85284538D01*
X123798132Y-85284539D01*
X123763082Y-85302398D01*
X123683680Y-85342855D01*
X123683676Y-85342858D01*
X123592858Y-85433676D01*
X123592855Y-85433680D01*
X123534537Y-85548136D01*
X123514445Y-85674997D01*
X123514445Y-85675002D01*
X122372500Y-85675002D01*
X122372500Y-83927214D01*
X122392185Y-83860175D01*
X122444989Y-83814420D01*
X122514147Y-83804476D01*
X122577703Y-83833501D01*
X122606983Y-83870918D01*
X122617122Y-83890815D01*
X122642853Y-83941316D01*
X122642858Y-83941323D01*
X122733676Y-84032141D01*
X122733680Y-84032144D01*
X122733682Y-84032146D01*
X122848132Y-84090461D01*
X122848134Y-84090461D01*
X122848136Y-84090462D01*
X122974998Y-84110555D01*
X122975000Y-84110555D01*
X122975002Y-84110555D01*
X123101863Y-84090462D01*
X123101863Y-84090461D01*
X123101868Y-84090461D01*
X123216318Y-84032146D01*
X123307146Y-83941318D01*
X123365461Y-83826868D01*
X123367433Y-83814420D01*
X123385555Y-83700002D01*
X123385555Y-83699997D01*
X123365462Y-83573136D01*
X123365461Y-83573134D01*
X123365461Y-83573132D01*
X123307146Y-83458682D01*
X123307144Y-83458680D01*
X123307141Y-83458676D01*
X123216323Y-83367858D01*
X123216319Y-83367855D01*
X123216318Y-83367854D01*
X123152787Y-83335483D01*
X123101993Y-83287511D01*
X123085197Y-83219690D01*
X123107734Y-83153555D01*
X123152787Y-83114516D01*
X123216318Y-83082146D01*
X123307146Y-82991318D01*
X123314515Y-82976854D01*
X123362489Y-82926058D01*
X123430310Y-82909263D01*
X123496445Y-82931800D01*
X123535485Y-82976855D01*
X123542853Y-82991316D01*
X123542858Y-82991323D01*
X123633676Y-83082141D01*
X123633680Y-83082144D01*
X123633682Y-83082146D01*
X123748132Y-83140461D01*
X123748134Y-83140461D01*
X123748136Y-83140462D01*
X123811566Y-83150508D01*
X123875000Y-83160555D01*
X123885085Y-83158957D01*
X123954375Y-83167909D01*
X124007829Y-83212903D01*
X124009842Y-83216155D01*
X124041603Y-83261514D01*
X124594333Y-83814244D01*
X124627818Y-83875567D01*
X124622834Y-83945259D01*
X124617138Y-83958218D01*
X124609538Y-83973133D01*
X124589445Y-84099997D01*
X124589445Y-84100002D01*
X124609537Y-84226863D01*
X124609538Y-84226866D01*
X124609539Y-84226868D01*
X124660557Y-84326996D01*
X124667855Y-84341319D01*
X124667858Y-84341323D01*
X124758676Y-84432141D01*
X124758680Y-84432144D01*
X124758682Y-84432146D01*
X124873132Y-84490461D01*
X124873134Y-84490461D01*
X124873136Y-84490462D01*
X124999998Y-84510555D01*
X125000000Y-84510555D01*
X125000002Y-84510555D01*
X125126863Y-84490462D01*
X125126863Y-84490461D01*
X125126868Y-84490461D01*
X125141779Y-84482863D01*
X125210444Y-84469966D01*
X125275185Y-84496239D01*
X125285755Y-84505665D01*
X125405092Y-84625002D01*
X125608181Y-84828091D01*
X125641666Y-84889414D01*
X125644500Y-84915772D01*
X125644500Y-92369328D01*
X125644648Y-92376151D01*
X125644929Y-92382584D01*
X125644929Y-92382588D01*
X125644930Y-92382590D01*
X125649737Y-92402231D01*
X125659349Y-92441508D01*
X125659351Y-92441514D01*
X125680743Y-92487390D01*
X125680745Y-92487393D01*
X125683032Y-92492297D01*
X125681307Y-92493101D01*
X125695796Y-92552835D01*
X125672943Y-92618861D01*
X125628233Y-92657416D01*
X125558682Y-92692854D01*
X125558681Y-92692855D01*
X125558676Y-92692858D01*
X125467858Y-92783676D01*
X125467853Y-92783683D01*
X125460960Y-92797212D01*
X125412985Y-92848007D01*
X125345164Y-92864802D01*
X125279029Y-92842264D01*
X125239992Y-92797212D01*
X125182146Y-92683682D01*
X125182144Y-92683680D01*
X125182141Y-92683676D01*
X125091323Y-92592858D01*
X125091319Y-92592855D01*
X125091318Y-92592854D01*
X124976868Y-92534539D01*
X124976866Y-92534538D01*
X124976863Y-92534537D01*
X124850002Y-92514445D01*
X124849998Y-92514445D01*
X124723136Y-92534537D01*
X124608680Y-92592855D01*
X124608676Y-92592858D01*
X124517858Y-92683676D01*
X124517855Y-92683680D01*
X124459537Y-92798136D01*
X124439445Y-92924997D01*
X124439445Y-92925002D01*
X124459537Y-93051863D01*
X124459538Y-93051866D01*
X124459539Y-93051868D01*
X124514332Y-93159405D01*
X124517855Y-93166319D01*
X124517858Y-93166323D01*
X124608676Y-93257141D01*
X124608678Y-93257142D01*
X124608682Y-93257146D01*
X124706396Y-93306933D01*
X124707957Y-93307729D01*
X124758753Y-93355704D01*
X124775548Y-93423525D01*
X124774136Y-93437605D01*
X124773546Y-93441331D01*
X124773546Y-93441340D01*
X124793638Y-93568201D01*
X124793639Y-93568204D01*
X124793640Y-93568206D01*
X124851955Y-93682656D01*
X124851956Y-93682657D01*
X124851959Y-93682661D01*
X124942777Y-93773479D01*
X124942781Y-93773482D01*
X124942783Y-93773484D01*
X125057233Y-93831799D01*
X125057235Y-93831799D01*
X125057237Y-93831800D01*
X125184099Y-93851893D01*
X125184101Y-93851893D01*
X125184103Y-93851893D01*
X125310964Y-93831800D01*
X125310964Y-93831799D01*
X125310969Y-93831799D01*
X125425419Y-93773484D01*
X125516247Y-93682656D01*
X125574562Y-93568206D01*
X125581176Y-93526440D01*
X125611105Y-93463308D01*
X125670417Y-93426376D01*
X125723048Y-93423367D01*
X125799998Y-93435555D01*
X125800000Y-93435555D01*
X125800002Y-93435555D01*
X125926863Y-93415462D01*
X125926863Y-93415461D01*
X125926868Y-93415461D01*
X126041318Y-93357146D01*
X126132146Y-93266318D01*
X126160740Y-93210198D01*
X126208711Y-93159405D01*
X126276532Y-93142609D01*
X126342667Y-93165146D01*
X126358904Y-93178814D01*
X126367101Y-93187011D01*
X126367106Y-93187015D01*
X126367991Y-93187784D01*
X126368199Y-93188109D01*
X126370163Y-93190073D01*
X126369732Y-93190503D01*
X126405677Y-93246619D01*
X126409120Y-93300771D01*
X126389445Y-93424996D01*
X126389445Y-93425002D01*
X126409537Y-93551863D01*
X126409538Y-93551866D01*
X126409539Y-93551868D01*
X126459540Y-93650000D01*
X126467855Y-93666319D01*
X126467858Y-93666323D01*
X126558676Y-93757141D01*
X126558680Y-93757144D01*
X126558682Y-93757146D01*
X126673132Y-93815461D01*
X126673134Y-93815461D01*
X126673136Y-93815462D01*
X126799998Y-93835555D01*
X126800000Y-93835555D01*
X126800002Y-93835555D01*
X126926863Y-93815462D01*
X126926863Y-93815461D01*
X126926868Y-93815461D01*
X126989684Y-93783454D01*
X127058352Y-93770559D01*
X127123092Y-93796836D01*
X127135540Y-93809830D01*
X127135953Y-93809418D01*
X127233676Y-93907141D01*
X127233682Y-93907146D01*
X127348132Y-93965461D01*
X127348135Y-93965461D01*
X127356707Y-93969829D01*
X127407503Y-94017803D01*
X127420185Y-94048215D01*
X127438511Y-94116602D01*
X127447486Y-94132146D01*
X127463823Y-94160443D01*
X127479365Y-94182639D01*
X127486449Y-94189723D01*
X127519934Y-94251046D01*
X127514950Y-94320738D01*
X127486451Y-94365084D01*
X127467855Y-94383680D01*
X127409537Y-94498136D01*
X127389445Y-94624997D01*
X127389445Y-94625002D01*
X127409537Y-94751863D01*
X127409538Y-94751866D01*
X127409539Y-94751868D01*
X127467854Y-94866318D01*
X127467855Y-94866319D01*
X127467858Y-94866323D01*
X127558676Y-94957141D01*
X127558680Y-94957144D01*
X127558682Y-94957146D01*
X127673132Y-95015461D01*
X127673134Y-95015461D01*
X127673136Y-95015462D01*
X127799998Y-95035555D01*
X127800000Y-95035555D01*
X127800002Y-95035555D01*
X127926863Y-95015462D01*
X127926863Y-95015461D01*
X127926868Y-95015461D01*
X128041318Y-94957146D01*
X128132146Y-94866318D01*
X128190461Y-94751868D01*
X128191053Y-94748132D01*
X128210555Y-94625002D01*
X128210555Y-94624997D01*
X128190462Y-94498136D01*
X128190461Y-94498134D01*
X128190461Y-94498132D01*
X128158697Y-94435792D01*
X128145802Y-94367125D01*
X128172078Y-94302385D01*
X128229185Y-94262128D01*
X128269183Y-94255500D01*
X129119329Y-94255500D01*
X129119348Y-94255500D01*
X129126140Y-94255352D01*
X129132590Y-94255070D01*
X129191514Y-94240649D01*
X129237390Y-94219257D01*
X129281629Y-94188281D01*
X129669908Y-93800002D01*
X130489445Y-93800002D01*
X130509537Y-93926863D01*
X130509538Y-93926866D01*
X130509539Y-93926868D01*
X130567418Y-94040462D01*
X130567855Y-94041319D01*
X130567858Y-94041323D01*
X130658676Y-94132141D01*
X130658680Y-94132144D01*
X130658682Y-94132146D01*
X130773132Y-94190461D01*
X130773134Y-94190461D01*
X130773136Y-94190462D01*
X130899998Y-94210555D01*
X130900000Y-94210555D01*
X130900002Y-94210555D01*
X131026863Y-94190462D01*
X131026863Y-94190461D01*
X131026868Y-94190461D01*
X131141318Y-94132146D01*
X131232146Y-94041318D01*
X131290461Y-93926868D01*
X131293585Y-93907146D01*
X131310555Y-93800002D01*
X131310555Y-93799997D01*
X131290462Y-93673136D01*
X131290461Y-93673134D01*
X131290461Y-93673132D01*
X131232146Y-93558682D01*
X131232144Y-93558680D01*
X131232141Y-93558676D01*
X131141323Y-93467858D01*
X131141319Y-93467855D01*
X131141318Y-93467854D01*
X131026868Y-93409539D01*
X131026866Y-93409538D01*
X131026863Y-93409537D01*
X130900002Y-93389445D01*
X130899998Y-93389445D01*
X130773136Y-93409537D01*
X130658680Y-93467855D01*
X130658676Y-93467858D01*
X130567858Y-93558676D01*
X130567855Y-93558680D01*
X130509537Y-93673136D01*
X130489445Y-93799997D01*
X130489445Y-93800002D01*
X129669908Y-93800002D01*
X129738281Y-93731629D01*
X129742981Y-93726719D01*
X129747342Y-93721959D01*
X129778809Y-93670099D01*
X129796122Y-93622533D01*
X129805500Y-93569348D01*
X129805500Y-91950002D01*
X130889445Y-91950002D01*
X130909537Y-92076863D01*
X130909538Y-92076866D01*
X130909539Y-92076868D01*
X130954680Y-92165462D01*
X130967855Y-92191319D01*
X130967858Y-92191323D01*
X131058676Y-92282141D01*
X131058680Y-92282144D01*
X131058682Y-92282146D01*
X131173132Y-92340461D01*
X131173134Y-92340461D01*
X131173136Y-92340462D01*
X131299998Y-92360555D01*
X131300000Y-92360555D01*
X131300002Y-92360555D01*
X131426863Y-92340462D01*
X131426863Y-92340461D01*
X131426868Y-92340461D01*
X131541318Y-92282146D01*
X131632146Y-92191318D01*
X131690461Y-92076868D01*
X131693087Y-92060287D01*
X131710555Y-91950002D01*
X131710555Y-91949997D01*
X131690462Y-91823136D01*
X131690461Y-91823134D01*
X131690461Y-91823132D01*
X131632146Y-91708682D01*
X131632144Y-91708680D01*
X131632141Y-91708676D01*
X131541323Y-91617858D01*
X131541319Y-91617855D01*
X131541318Y-91617854D01*
X131426868Y-91559539D01*
X131426866Y-91559538D01*
X131426863Y-91559537D01*
X131300002Y-91539445D01*
X131299998Y-91539445D01*
X131173136Y-91559537D01*
X131058680Y-91617855D01*
X131058676Y-91617858D01*
X130967858Y-91708676D01*
X130967855Y-91708680D01*
X130909537Y-91823136D01*
X130889445Y-91949997D01*
X130889445Y-91950002D01*
X129805500Y-91950002D01*
X129805500Y-91480652D01*
X129805352Y-91473860D01*
X129805070Y-91467410D01*
X129790649Y-91408486D01*
X129769257Y-91362610D01*
X129769254Y-91362606D01*
X129769253Y-91362603D01*
X129738279Y-91318368D01*
X129669913Y-91250002D01*
X130039445Y-91250002D01*
X130059537Y-91376863D01*
X130059538Y-91376866D01*
X130059539Y-91376868D01*
X130117854Y-91491318D01*
X130117855Y-91491319D01*
X130117858Y-91491323D01*
X130208676Y-91582141D01*
X130208680Y-91582144D01*
X130208682Y-91582146D01*
X130323132Y-91640461D01*
X130323134Y-91640461D01*
X130323136Y-91640462D01*
X130449998Y-91660555D01*
X130450000Y-91660555D01*
X130450002Y-91660555D01*
X130576863Y-91640462D01*
X130576863Y-91640461D01*
X130576868Y-91640461D01*
X130691318Y-91582146D01*
X130782146Y-91491318D01*
X130840461Y-91376868D01*
X130842719Y-91362610D01*
X130860555Y-91250002D01*
X130860555Y-91249997D01*
X130840462Y-91123136D01*
X130840461Y-91123134D01*
X130840461Y-91123132D01*
X130782146Y-91008682D01*
X130782144Y-91008680D01*
X130782141Y-91008676D01*
X130736146Y-90962681D01*
X130702661Y-90901358D01*
X130707645Y-90831666D01*
X130736146Y-90787319D01*
X130782141Y-90741323D01*
X130782146Y-90741318D01*
X130840461Y-90626868D01*
X130840462Y-90626863D01*
X130860555Y-90500002D01*
X130860555Y-90499997D01*
X130840462Y-90373136D01*
X130840461Y-90373134D01*
X130840461Y-90373132D01*
X130782146Y-90258682D01*
X130782144Y-90258680D01*
X130776407Y-90250783D01*
X130778730Y-90249095D01*
X130752664Y-90201379D01*
X130757637Y-90131686D01*
X130777836Y-90100255D01*
X130776407Y-90099217D01*
X130782141Y-90091322D01*
X130782146Y-90091318D01*
X130840461Y-89976868D01*
X130860555Y-89850000D01*
X130855464Y-89817858D01*
X130840462Y-89723136D01*
X130840461Y-89723134D01*
X130840461Y-89723132D01*
X130782146Y-89608682D01*
X130782144Y-89608680D01*
X130782141Y-89608676D01*
X130691323Y-89517858D01*
X130691319Y-89517855D01*
X130691318Y-89517854D01*
X130576868Y-89459539D01*
X130576866Y-89459538D01*
X130576863Y-89459537D01*
X130450002Y-89439445D01*
X130449998Y-89439445D01*
X130323136Y-89459537D01*
X130208680Y-89517855D01*
X130208676Y-89517858D01*
X130117858Y-89608676D01*
X130117855Y-89608680D01*
X130059537Y-89723136D01*
X130039445Y-89849997D01*
X130039445Y-89850002D01*
X130059537Y-89976863D01*
X130059538Y-89976866D01*
X130059539Y-89976868D01*
X130083112Y-90023132D01*
X130117855Y-90091319D01*
X130123593Y-90099217D01*
X130121271Y-90100903D01*
X130147339Y-90148642D01*
X130142355Y-90218334D01*
X130122166Y-90249746D01*
X130123593Y-90250783D01*
X130117855Y-90258680D01*
X130059537Y-90373136D01*
X130039445Y-90499997D01*
X130039445Y-90500002D01*
X130059537Y-90626863D01*
X130059538Y-90626866D01*
X130059539Y-90626868D01*
X130070374Y-90648132D01*
X130117855Y-90741319D01*
X130117858Y-90741323D01*
X130163854Y-90787319D01*
X130197339Y-90848642D01*
X130192355Y-90918334D01*
X130163854Y-90962681D01*
X130117858Y-91008676D01*
X130117855Y-91008680D01*
X130117854Y-91008682D01*
X130075749Y-91091319D01*
X130059537Y-91123136D01*
X130039445Y-91249997D01*
X130039445Y-91250002D01*
X129669913Y-91250002D01*
X129591819Y-91171908D01*
X129558334Y-91110585D01*
X129555500Y-91084227D01*
X129555500Y-86950002D01*
X131289445Y-86950002D01*
X131309537Y-87076863D01*
X131309538Y-87076866D01*
X131309539Y-87076868D01*
X131320374Y-87098132D01*
X131367855Y-87191319D01*
X131367858Y-87191323D01*
X131458676Y-87282141D01*
X131458680Y-87282144D01*
X131458682Y-87282146D01*
X131573132Y-87340461D01*
X131573134Y-87340461D01*
X131573136Y-87340462D01*
X131699998Y-87360555D01*
X131700000Y-87360555D01*
X131700002Y-87360555D01*
X131826863Y-87340462D01*
X131826863Y-87340461D01*
X131826868Y-87340461D01*
X131889207Y-87308697D01*
X131957875Y-87295802D01*
X132022615Y-87322078D01*
X132062872Y-87379185D01*
X132069500Y-87419183D01*
X132069500Y-88226896D01*
X132073795Y-88263187D01*
X132075349Y-88269659D01*
X132081861Y-88296784D01*
X132081862Y-88296788D01*
X132081863Y-88296790D01*
X132094513Y-88331081D01*
X132131811Y-88404283D01*
X132143799Y-88441179D01*
X132150043Y-88480601D01*
X132150043Y-88519397D01*
X132143799Y-88558819D01*
X132131812Y-88595714D01*
X132094516Y-88668914D01*
X132094513Y-88668921D01*
X132081862Y-88703210D01*
X132073795Y-88736811D01*
X132069500Y-88773104D01*
X132069500Y-89023811D01*
X132060083Y-89063047D01*
X132062554Y-89063850D01*
X132059538Y-89073130D01*
X132039445Y-89199997D01*
X132039445Y-89200002D01*
X132059537Y-89326864D01*
X132062555Y-89336150D01*
X132060079Y-89336954D01*
X132069500Y-89376188D01*
X132069500Y-94972884D01*
X132070830Y-94993177D01*
X132071916Y-95001431D01*
X132073350Y-95012329D01*
X132083139Y-95037500D01*
X132100144Y-95081229D01*
X132129178Y-95122693D01*
X132146601Y-95143457D01*
X132146603Y-95143458D01*
X132146604Y-95143459D01*
X132180577Y-95163073D01*
X132228792Y-95213639D01*
X132242016Y-95282246D01*
X132241051Y-95289852D01*
X132239445Y-95299995D01*
X132239445Y-95300001D01*
X132240864Y-95308963D01*
X132231907Y-95378256D01*
X132186909Y-95431707D01*
X132180394Y-95435742D01*
X132164559Y-95444884D01*
X132164558Y-95444885D01*
X132142361Y-95460427D01*
X132096190Y-95526366D01*
X132078877Y-95573934D01*
X132069500Y-95627113D01*
X132069500Y-95627116D01*
X132069500Y-95947884D01*
X132070830Y-95968177D01*
X132071482Y-95973132D01*
X132073350Y-95987329D01*
X132086747Y-96021779D01*
X132100144Y-96056229D01*
X132129178Y-96097693D01*
X132146601Y-96118457D01*
X132161298Y-96126942D01*
X132209514Y-96177508D01*
X132222739Y-96246114D01*
X132221774Y-96253727D01*
X132214445Y-96300000D01*
X132221596Y-96345150D01*
X132212640Y-96414444D01*
X132167643Y-96467895D01*
X132165761Y-96469119D01*
X132164560Y-96469884D01*
X132142361Y-96485427D01*
X132096190Y-96551366D01*
X132078877Y-96598934D01*
X132069500Y-96652113D01*
X132069500Y-97269328D01*
X132069648Y-97276151D01*
X132069929Y-97282584D01*
X132069931Y-97282593D01*
X132084349Y-97341508D01*
X132084351Y-97341514D01*
X132105746Y-97387396D01*
X132136720Y-97431631D01*
X132301507Y-97596418D01*
X132314140Y-97611207D01*
X132317856Y-97616321D01*
X132408676Y-97707141D01*
X132408679Y-97707143D01*
X132408682Y-97707146D01*
X132408684Y-97707147D01*
X132416380Y-97712738D01*
X132427269Y-97721635D01*
X132428040Y-97722341D01*
X132428042Y-97722343D01*
X132479893Y-97753805D01*
X132479901Y-97753809D01*
X132527467Y-97771122D01*
X132580652Y-97780500D01*
X132608327Y-97780500D01*
X132627724Y-97782026D01*
X132650000Y-97785555D01*
X132672275Y-97782026D01*
X132691673Y-97780500D01*
X132844329Y-97780500D01*
X132844348Y-97780500D01*
X132851140Y-97780352D01*
X132857590Y-97780070D01*
X132916514Y-97765649D01*
X132962390Y-97744257D01*
X133006629Y-97713281D01*
X135841097Y-94878811D01*
X135902418Y-94845328D01*
X135972109Y-94850312D01*
X136028043Y-94892184D01*
X136039261Y-94910200D01*
X136072285Y-94975014D01*
X136070629Y-94975857D01*
X136090096Y-95030431D01*
X136074266Y-95098483D01*
X136068403Y-95107605D01*
X136067854Y-95108681D01*
X136067854Y-95108682D01*
X136029643Y-95183676D01*
X136009537Y-95223136D01*
X135989445Y-95349997D01*
X135989445Y-95350002D01*
X136009537Y-95476863D01*
X136009538Y-95476866D01*
X136009539Y-95476868D01*
X136067854Y-95591318D01*
X136067855Y-95591319D01*
X136067858Y-95591323D01*
X136158676Y-95682141D01*
X136158680Y-95682144D01*
X136158682Y-95682146D01*
X136273132Y-95740461D01*
X136273134Y-95740461D01*
X136273136Y-95740462D01*
X136399998Y-95760555D01*
X136400000Y-95760555D01*
X136400002Y-95760555D01*
X136526863Y-95740462D01*
X136526863Y-95740461D01*
X136526868Y-95740461D01*
X136641318Y-95682146D01*
X136732146Y-95591318D01*
X136790461Y-95476868D01*
X136810555Y-95350000D01*
X136804055Y-95308963D01*
X136790462Y-95223136D01*
X136790461Y-95223134D01*
X136790461Y-95223132D01*
X136732146Y-95108682D01*
X136732144Y-95108680D01*
X136727715Y-95099987D01*
X136729372Y-95099142D01*
X136709903Y-95044582D01*
X136725727Y-94976528D01*
X136731596Y-94967394D01*
X136732142Y-94966321D01*
X136732146Y-94966318D01*
X136790461Y-94851868D01*
X136790462Y-94851863D01*
X136810555Y-94725002D01*
X136810555Y-94724997D01*
X136790462Y-94598136D01*
X136790461Y-94598134D01*
X136790461Y-94598132D01*
X136732146Y-94483682D01*
X136732144Y-94483680D01*
X136732141Y-94483676D01*
X136641323Y-94392858D01*
X136641320Y-94392856D01*
X136641318Y-94392854D01*
X136585198Y-94364260D01*
X136534404Y-94316286D01*
X136517609Y-94248465D01*
X136540146Y-94182330D01*
X136553814Y-94166095D01*
X136864763Y-93855146D01*
X136864783Y-93855126D01*
X136876100Y-93842502D01*
X136886186Y-93829935D01*
X136916729Y-93766257D01*
X136927684Y-93716837D01*
X136931221Y-93689961D01*
X136913797Y-93611377D01*
X136890422Y-93566478D01*
X136875859Y-93543620D01*
X136875853Y-93543615D01*
X136872868Y-93540358D01*
X136842086Y-93477634D01*
X136849724Y-93409127D01*
X136890687Y-93310236D01*
X136910466Y-93160000D01*
X136910465Y-93159998D01*
X136910547Y-93159381D01*
X136938813Y-93095484D01*
X136997138Y-93057013D01*
X137052884Y-93053093D01*
X137099998Y-93060555D01*
X137100000Y-93060555D01*
X137100002Y-93060555D01*
X137226863Y-93040462D01*
X137226863Y-93040461D01*
X137226868Y-93040461D01*
X137341318Y-92982146D01*
X137432146Y-92891318D01*
X137490461Y-92776868D01*
X137503767Y-92692858D01*
X137510555Y-92650002D01*
X137510555Y-92649997D01*
X137490462Y-92523136D01*
X137490461Y-92523134D01*
X137490461Y-92523132D01*
X137432146Y-92408682D01*
X137432144Y-92408680D01*
X137432141Y-92408676D01*
X137419410Y-92395945D01*
X137385925Y-92334622D01*
X137390909Y-92264930D01*
X137432781Y-92208997D01*
X137498245Y-92184580D01*
X137520986Y-92185555D01*
X137525000Y-92185555D01*
X137525002Y-92185555D01*
X137651863Y-92165462D01*
X137651863Y-92165461D01*
X137651868Y-92165461D01*
X137766318Y-92107146D01*
X137857146Y-92016318D01*
X137915461Y-91901868D01*
X137935555Y-91775000D01*
X137934948Y-91771170D01*
X137915462Y-91648136D01*
X137915461Y-91648134D01*
X137915461Y-91648132D01*
X137857146Y-91533682D01*
X137857144Y-91533680D01*
X137857141Y-91533676D01*
X137766323Y-91442858D01*
X137766319Y-91442855D01*
X137766318Y-91442854D01*
X137651868Y-91384539D01*
X137651866Y-91384538D01*
X137651863Y-91384537D01*
X137525002Y-91364445D01*
X137524998Y-91364445D01*
X137398136Y-91384537D01*
X137283680Y-91442855D01*
X137283676Y-91442858D01*
X137192853Y-91533681D01*
X137188951Y-91539053D01*
X137133621Y-91581719D01*
X137064008Y-91587698D01*
X137002213Y-91555093D01*
X136970702Y-91504486D01*
X136966424Y-91491319D01*
X136953268Y-91450829D01*
X136953266Y-91450826D01*
X136953265Y-91450823D01*
X136881359Y-91337518D01*
X136862057Y-91270367D01*
X136882124Y-91203441D01*
X136924057Y-91163687D01*
X136935439Y-91157116D01*
X136957640Y-91141571D01*
X137003809Y-91075635D01*
X137021122Y-91028069D01*
X137030500Y-90974884D01*
X137030500Y-90150002D01*
X137879445Y-90150002D01*
X137899537Y-90276863D01*
X137899538Y-90276866D01*
X137899539Y-90276868D01*
X137944162Y-90364445D01*
X137957855Y-90391319D01*
X137957858Y-90391323D01*
X138048676Y-90482141D01*
X138048680Y-90482144D01*
X138048682Y-90482146D01*
X138163132Y-90540461D01*
X138163134Y-90540461D01*
X138163136Y-90540462D01*
X138289998Y-90560555D01*
X138290000Y-90560555D01*
X138290002Y-90560555D01*
X138416863Y-90540462D01*
X138416863Y-90540461D01*
X138416868Y-90540461D01*
X138531318Y-90482146D01*
X138622146Y-90391318D01*
X138680461Y-90276868D01*
X138680462Y-90276863D01*
X138700555Y-90150002D01*
X138700555Y-90149997D01*
X138680462Y-90023136D01*
X138680461Y-90023134D01*
X138680461Y-90023132D01*
X138622146Y-89908682D01*
X138622144Y-89908680D01*
X138622141Y-89908676D01*
X138531323Y-89817858D01*
X138531319Y-89817855D01*
X138531318Y-89817854D01*
X138416868Y-89759539D01*
X138416866Y-89759538D01*
X138416863Y-89759537D01*
X138290002Y-89739445D01*
X138289998Y-89739445D01*
X138163136Y-89759537D01*
X138048680Y-89817855D01*
X138048676Y-89817858D01*
X137957858Y-89908676D01*
X137957855Y-89908680D01*
X137899537Y-90023136D01*
X137879445Y-90149997D01*
X137879445Y-90150002D01*
X137030500Y-90150002D01*
X137030500Y-89150002D01*
X138364445Y-89150002D01*
X138384537Y-89276863D01*
X138384538Y-89276866D01*
X138384539Y-89276868D01*
X138419976Y-89346417D01*
X138442855Y-89391319D01*
X138442858Y-89391323D01*
X138533676Y-89482141D01*
X138533680Y-89482144D01*
X138533682Y-89482146D01*
X138648132Y-89540461D01*
X138648134Y-89540461D01*
X138648136Y-89540462D01*
X138774998Y-89560555D01*
X138775000Y-89560555D01*
X138775002Y-89560555D01*
X138901865Y-89540462D01*
X138911147Y-89537446D01*
X138911932Y-89539862D01*
X138966505Y-89529601D01*
X139031251Y-89555863D01*
X139041839Y-89565304D01*
X139133676Y-89657141D01*
X139133680Y-89657144D01*
X139133682Y-89657146D01*
X139248132Y-89715461D01*
X139248134Y-89715461D01*
X139248136Y-89715462D01*
X139374998Y-89735555D01*
X139375000Y-89735555D01*
X139375002Y-89735555D01*
X139501863Y-89715462D01*
X139501863Y-89715461D01*
X139501868Y-89715461D01*
X139616318Y-89657146D01*
X139707146Y-89566318D01*
X139765461Y-89451868D01*
X139767429Y-89439445D01*
X139785555Y-89325002D01*
X139785555Y-89324997D01*
X139765462Y-89198136D01*
X139765461Y-89198134D01*
X139765461Y-89198132D01*
X139707146Y-89083682D01*
X139707144Y-89083680D01*
X139707141Y-89083676D01*
X139616323Y-88992858D01*
X139616319Y-88992855D01*
X139616318Y-88992854D01*
X139501868Y-88934539D01*
X139501866Y-88934538D01*
X139501863Y-88934537D01*
X139375002Y-88914445D01*
X139374998Y-88914445D01*
X139248130Y-88934538D01*
X139238850Y-88937554D01*
X139238066Y-88935143D01*
X139183441Y-88945391D01*
X139118705Y-88919102D01*
X139108159Y-88909694D01*
X139016323Y-88817858D01*
X139016319Y-88817855D01*
X139016318Y-88817854D01*
X138901868Y-88759539D01*
X138901866Y-88759538D01*
X138901863Y-88759537D01*
X138775002Y-88739445D01*
X138774998Y-88739445D01*
X138648136Y-88759537D01*
X138648132Y-88759538D01*
X138648132Y-88759539D01*
X138621509Y-88773104D01*
X138533680Y-88817855D01*
X138533676Y-88817858D01*
X138442858Y-88908676D01*
X138442855Y-88908680D01*
X138384537Y-89023136D01*
X138364445Y-89149997D01*
X138364445Y-89150002D01*
X137030500Y-89150002D01*
X137030500Y-88400002D01*
X139914445Y-88400002D01*
X139934537Y-88526863D01*
X139934538Y-88526866D01*
X139934539Y-88526868D01*
X139969618Y-88595714D01*
X139992855Y-88641319D01*
X139992858Y-88641323D01*
X140083676Y-88732141D01*
X140083680Y-88732144D01*
X140083682Y-88732146D01*
X140198132Y-88790461D01*
X140198134Y-88790461D01*
X140198136Y-88790462D01*
X140324998Y-88810555D01*
X140325000Y-88810555D01*
X140325002Y-88810555D01*
X140451863Y-88790462D01*
X140451863Y-88790461D01*
X140451868Y-88790461D01*
X140566318Y-88732146D01*
X140657146Y-88641318D01*
X140715461Y-88526868D01*
X140715746Y-88525069D01*
X140727027Y-88453846D01*
X140753652Y-88397680D01*
X140730523Y-88361690D01*
X140727027Y-88346153D01*
X140715462Y-88273136D01*
X140715461Y-88273134D01*
X140715461Y-88273132D01*
X140657146Y-88158682D01*
X140657144Y-88158680D01*
X140657141Y-88158676D01*
X140566323Y-88067858D01*
X140566319Y-88067855D01*
X140566318Y-88067854D01*
X140451868Y-88009539D01*
X140451866Y-88009538D01*
X140451863Y-88009537D01*
X140325002Y-87989445D01*
X140324998Y-87989445D01*
X140198136Y-88009537D01*
X140083680Y-88067855D01*
X140083676Y-88067858D01*
X139992858Y-88158676D01*
X139992855Y-88158680D01*
X139934537Y-88273136D01*
X139914445Y-88399997D01*
X139914445Y-88400002D01*
X137030500Y-88400002D01*
X137030500Y-87540772D01*
X137050185Y-87473733D01*
X137066819Y-87453091D01*
X137294908Y-87225002D01*
X139589445Y-87225002D01*
X139609537Y-87351863D01*
X139609538Y-87351866D01*
X139609539Y-87351868D01*
X139623458Y-87379185D01*
X139667855Y-87466319D01*
X139667858Y-87466323D01*
X139758676Y-87557141D01*
X139758680Y-87557144D01*
X139758682Y-87557146D01*
X139873132Y-87615461D01*
X139873134Y-87615461D01*
X139873136Y-87615462D01*
X139999998Y-87635555D01*
X140000000Y-87635555D01*
X140000002Y-87635555D01*
X140126863Y-87615462D01*
X140126863Y-87615461D01*
X140126868Y-87615461D01*
X140241318Y-87557146D01*
X140332146Y-87466318D01*
X140390461Y-87351868D01*
X140392268Y-87340461D01*
X140410555Y-87225002D01*
X140410555Y-87224997D01*
X140390462Y-87098136D01*
X140390461Y-87098134D01*
X140390461Y-87098132D01*
X140332146Y-86983682D01*
X140332144Y-86983680D01*
X140332141Y-86983676D01*
X140241323Y-86892858D01*
X140241319Y-86892855D01*
X140241318Y-86892854D01*
X140126868Y-86834539D01*
X140126866Y-86834538D01*
X140126863Y-86834537D01*
X140000002Y-86814445D01*
X139999998Y-86814445D01*
X139873136Y-86834537D01*
X139758680Y-86892855D01*
X139758676Y-86892858D01*
X139667858Y-86983676D01*
X139667855Y-86983680D01*
X139667854Y-86983682D01*
X139625990Y-87065846D01*
X139609537Y-87098136D01*
X139589445Y-87224997D01*
X139589445Y-87225002D01*
X137294908Y-87225002D01*
X137557408Y-86962502D01*
X138063281Y-86456629D01*
X138067981Y-86451719D01*
X138072342Y-86446959D01*
X138103809Y-86395099D01*
X138121122Y-86347533D01*
X138130500Y-86294348D01*
X138130500Y-84105652D01*
X138130352Y-84098860D01*
X138130070Y-84092410D01*
X138115649Y-84033486D01*
X138094257Y-83987610D01*
X138094254Y-83987606D01*
X138094253Y-83987603D01*
X138063279Y-83943368D01*
X137331651Y-83211741D01*
X137331629Y-83211719D01*
X137326719Y-83207019D01*
X137321959Y-83202658D01*
X137321957Y-83202656D01*
X137270106Y-83171194D01*
X137270098Y-83171190D01*
X137222533Y-83153878D01*
X137222530Y-83153877D01*
X137169350Y-83144500D01*
X137169348Y-83144500D01*
X136080652Y-83144500D01*
X136076489Y-83144590D01*
X136073848Y-83144648D01*
X136067415Y-83144929D01*
X136067406Y-83144931D01*
X136008491Y-83159349D01*
X136008485Y-83159351D01*
X135962603Y-83180746D01*
X135918368Y-83211720D01*
X135304102Y-83825986D01*
X135294941Y-83835984D01*
X135286640Y-83845876D01*
X135286549Y-83846014D01*
X135286470Y-83846079D01*
X135282294Y-83851057D01*
X135281405Y-83850311D01*
X135232934Y-83890815D01*
X135164055Y-83899590D01*
X135136567Y-83895236D01*
X135100000Y-83889445D01*
X135099998Y-83889445D01*
X135099997Y-83889445D01*
X134973136Y-83909537D01*
X134858680Y-83967855D01*
X134858676Y-83967858D01*
X134767858Y-84058676D01*
X134767855Y-84058680D01*
X134709537Y-84173136D01*
X134695853Y-84259539D01*
X134689445Y-84300000D01*
X134693721Y-84326996D01*
X134700088Y-84367198D01*
X134691132Y-84436491D01*
X134648741Y-84488168D01*
X134625985Y-84504102D01*
X134485124Y-84644964D01*
X134423801Y-84678449D01*
X134354109Y-84673465D01*
X134341156Y-84667771D01*
X134226868Y-84609539D01*
X134226866Y-84609538D01*
X134226863Y-84609537D01*
X134100002Y-84589445D01*
X134099998Y-84589445D01*
X133973136Y-84609537D01*
X133858680Y-84667855D01*
X133858676Y-84667858D01*
X133787681Y-84738854D01*
X133726358Y-84772339D01*
X133656666Y-84767355D01*
X133612319Y-84738854D01*
X133541323Y-84667858D01*
X133541319Y-84667855D01*
X133541318Y-84667854D01*
X133426868Y-84609539D01*
X133426866Y-84609538D01*
X133426863Y-84609537D01*
X133300002Y-84589445D01*
X133299998Y-84589445D01*
X133173136Y-84609537D01*
X133058680Y-84667855D01*
X133058676Y-84667858D01*
X132987681Y-84738854D01*
X132926358Y-84772339D01*
X132856666Y-84767355D01*
X132812319Y-84738854D01*
X132741323Y-84667858D01*
X132741319Y-84667855D01*
X132741318Y-84667854D01*
X132626868Y-84609539D01*
X132626866Y-84609538D01*
X132626863Y-84609537D01*
X132500002Y-84589445D01*
X132499998Y-84589445D01*
X132373136Y-84609537D01*
X132258680Y-84667855D01*
X132258676Y-84667858D01*
X132167858Y-84758676D01*
X132167855Y-84758680D01*
X132109537Y-84873136D01*
X132089445Y-84999997D01*
X132089445Y-85000002D01*
X132109537Y-85126863D01*
X132109538Y-85126866D01*
X132109539Y-85126868D01*
X132163180Y-85232144D01*
X132167855Y-85241319D01*
X132167858Y-85241323D01*
X132258676Y-85332141D01*
X132258680Y-85332144D01*
X132258682Y-85332146D01*
X132373132Y-85390461D01*
X132373134Y-85390461D01*
X132373136Y-85390462D01*
X132499998Y-85410555D01*
X132500000Y-85410555D01*
X132500002Y-85410555D01*
X132626863Y-85390462D01*
X132626863Y-85390461D01*
X132626868Y-85390461D01*
X132741318Y-85332146D01*
X132771066Y-85302398D01*
X132812319Y-85261146D01*
X132873642Y-85227661D01*
X132943334Y-85232645D01*
X132987681Y-85261146D01*
X133058676Y-85332141D01*
X133058680Y-85332144D01*
X133058682Y-85332146D01*
X133173132Y-85390461D01*
X133173134Y-85390461D01*
X133173136Y-85390462D01*
X133299998Y-85410555D01*
X133300000Y-85410555D01*
X133300002Y-85410555D01*
X133421552Y-85391303D01*
X133490845Y-85400257D01*
X133544297Y-85445254D01*
X133564937Y-85512005D01*
X133546212Y-85579319D01*
X133528631Y-85601457D01*
X132730698Y-86399389D01*
X132728692Y-86401431D01*
X132726963Y-86403223D01*
X132706815Y-86433676D01*
X132698027Y-86446959D01*
X132692589Y-86455178D01*
X132690860Y-86454034D01*
X132648216Y-86497247D01*
X132645654Y-86498552D01*
X132643635Y-86499718D01*
X132599386Y-86530701D01*
X132284219Y-86845869D01*
X132222896Y-86879354D01*
X132153204Y-86874370D01*
X132097271Y-86832498D01*
X132086056Y-86814487D01*
X132032146Y-86708682D01*
X132032143Y-86708679D01*
X132032141Y-86708676D01*
X131941323Y-86617858D01*
X131941319Y-86617855D01*
X131941318Y-86617854D01*
X131826868Y-86559539D01*
X131826866Y-86559538D01*
X131826863Y-86559537D01*
X131700002Y-86539445D01*
X131699998Y-86539445D01*
X131573136Y-86559537D01*
X131458680Y-86617855D01*
X131458676Y-86617858D01*
X131367858Y-86708676D01*
X131367855Y-86708680D01*
X131309537Y-86823136D01*
X131289445Y-86949997D01*
X131289445Y-86950002D01*
X129555500Y-86950002D01*
X129555500Y-85173003D01*
X129547465Y-85123663D01*
X129532564Y-85079128D01*
X129523649Y-85057869D01*
X129523648Y-85057868D01*
X129523648Y-85057867D01*
X129500584Y-85032253D01*
X129470354Y-84969262D01*
X129478978Y-84899927D01*
X129482238Y-84893004D01*
X129490461Y-84876868D01*
X129492435Y-84864410D01*
X129510555Y-84750002D01*
X129510555Y-84749997D01*
X129490462Y-84623134D01*
X129490461Y-84623133D01*
X129490461Y-84623132D01*
X129482815Y-84608127D01*
X129469918Y-84539460D01*
X129491723Y-84480710D01*
X129495720Y-84475002D01*
X129814445Y-84475002D01*
X129834537Y-84601863D01*
X129834538Y-84601866D01*
X129834539Y-84601868D01*
X129873559Y-84678449D01*
X129892855Y-84716319D01*
X129892858Y-84716323D01*
X129983676Y-84807141D01*
X129983680Y-84807144D01*
X129983682Y-84807146D01*
X130098132Y-84865461D01*
X130098134Y-84865461D01*
X130098136Y-84865462D01*
X130224998Y-84885555D01*
X130225000Y-84885555D01*
X130225002Y-84885555D01*
X130351863Y-84865462D01*
X130351863Y-84865461D01*
X130351868Y-84865461D01*
X130466318Y-84807146D01*
X130557146Y-84716318D01*
X130615461Y-84601868D01*
X130620848Y-84567855D01*
X130635555Y-84475002D01*
X130635555Y-84474997D01*
X130615462Y-84348136D01*
X130615461Y-84348134D01*
X130615461Y-84348132D01*
X130557146Y-84233682D01*
X130557144Y-84233680D01*
X130557141Y-84233676D01*
X130466323Y-84142858D01*
X130466319Y-84142855D01*
X130466318Y-84142854D01*
X130351868Y-84084539D01*
X130351866Y-84084538D01*
X130351863Y-84084537D01*
X130225002Y-84064445D01*
X130224998Y-84064445D01*
X130098136Y-84084537D01*
X129983680Y-84142855D01*
X129983676Y-84142858D01*
X129892858Y-84233676D01*
X129892855Y-84233680D01*
X129834537Y-84348136D01*
X129814445Y-84474997D01*
X129814445Y-84475002D01*
X129495720Y-84475002D01*
X129528809Y-84427747D01*
X129546122Y-84380181D01*
X129555500Y-84326996D01*
X129555500Y-83430652D01*
X129555352Y-83423860D01*
X129555070Y-83417410D01*
X129540649Y-83358486D01*
X129519257Y-83312610D01*
X129519254Y-83312606D01*
X129519253Y-83312603D01*
X129488279Y-83268368D01*
X129294913Y-83075002D01*
X138979445Y-83075002D01*
X138999537Y-83201863D01*
X138999538Y-83201866D01*
X138999539Y-83201868D01*
X139055965Y-83312610D01*
X139057855Y-83316319D01*
X139057858Y-83316323D01*
X139148676Y-83407141D01*
X139148680Y-83407144D01*
X139148682Y-83407146D01*
X139263132Y-83465461D01*
X139263134Y-83465461D01*
X139263136Y-83465462D01*
X139389998Y-83485555D01*
X139390000Y-83485555D01*
X139390002Y-83485555D01*
X139516863Y-83465462D01*
X139516863Y-83465461D01*
X139516868Y-83465461D01*
X139631318Y-83407146D01*
X139722146Y-83316318D01*
X139780461Y-83201868D01*
X139780462Y-83201863D01*
X139800555Y-83075002D01*
X139800555Y-83074997D01*
X139780462Y-82948136D01*
X139780461Y-82948134D01*
X139780461Y-82948132D01*
X139722146Y-82833682D01*
X139722144Y-82833680D01*
X139722141Y-82833676D01*
X139631323Y-82742858D01*
X139631319Y-82742855D01*
X139631318Y-82742854D01*
X139516868Y-82684539D01*
X139516866Y-82684538D01*
X139516863Y-82684537D01*
X139390002Y-82664445D01*
X139389998Y-82664445D01*
X139263136Y-82684537D01*
X139148680Y-82742855D01*
X139148676Y-82742858D01*
X139057858Y-82833676D01*
X139057855Y-82833680D01*
X138999537Y-82948136D01*
X138979445Y-83074997D01*
X138979445Y-83075002D01*
X129294913Y-83075002D01*
X127469913Y-81250002D01*
X129289445Y-81250002D01*
X129309537Y-81376863D01*
X129309538Y-81376866D01*
X129309539Y-81376868D01*
X129367854Y-81491318D01*
X129367855Y-81491319D01*
X129367858Y-81491323D01*
X129458676Y-81582141D01*
X129458680Y-81582144D01*
X129458682Y-81582146D01*
X129573132Y-81640461D01*
X129573134Y-81640461D01*
X129573136Y-81640462D01*
X129699998Y-81660555D01*
X129700000Y-81660555D01*
X129700002Y-81660555D01*
X129826863Y-81640462D01*
X129826863Y-81640461D01*
X129826868Y-81640461D01*
X129941318Y-81582146D01*
X130032146Y-81491318D01*
X130090461Y-81376868D01*
X130094421Y-81351868D01*
X130110555Y-81250002D01*
X130110555Y-81249997D01*
X130106596Y-81225002D01*
X131289445Y-81225002D01*
X131309537Y-81351863D01*
X131309538Y-81351866D01*
X131309539Y-81351868D01*
X131358588Y-81448132D01*
X131367855Y-81466319D01*
X131367858Y-81466323D01*
X131458676Y-81557141D01*
X131458680Y-81557144D01*
X131458682Y-81557146D01*
X131573132Y-81615461D01*
X131573134Y-81615461D01*
X131573136Y-81615462D01*
X131699998Y-81635555D01*
X131700000Y-81635555D01*
X131700002Y-81635555D01*
X131826863Y-81615462D01*
X131826863Y-81615461D01*
X131826868Y-81615461D01*
X131941318Y-81557146D01*
X132032146Y-81466318D01*
X132090461Y-81351868D01*
X132090462Y-81351863D01*
X132110555Y-81225002D01*
X133264445Y-81225002D01*
X133284537Y-81351863D01*
X133284538Y-81351866D01*
X133284539Y-81351868D01*
X133333588Y-81448132D01*
X133342855Y-81466319D01*
X133342858Y-81466323D01*
X133433676Y-81557141D01*
X133433680Y-81557144D01*
X133433682Y-81557146D01*
X133548132Y-81615461D01*
X133548134Y-81615461D01*
X133548136Y-81615462D01*
X133674998Y-81635555D01*
X133675000Y-81635555D01*
X133675002Y-81635555D01*
X133801863Y-81615462D01*
X133801863Y-81615461D01*
X133801868Y-81615461D01*
X133916318Y-81557146D01*
X134007146Y-81466318D01*
X134065461Y-81351868D01*
X134065462Y-81351863D01*
X134085555Y-81225002D01*
X134085555Y-81224997D01*
X134065462Y-81098136D01*
X134065461Y-81098134D01*
X134065461Y-81098132D01*
X134007146Y-80983682D01*
X134007144Y-80983680D01*
X134007141Y-80983676D01*
X133916323Y-80892858D01*
X133916319Y-80892855D01*
X133916318Y-80892854D01*
X133801868Y-80834539D01*
X133801866Y-80834538D01*
X133801863Y-80834537D01*
X133675002Y-80814445D01*
X133674998Y-80814445D01*
X133548136Y-80834537D01*
X133433680Y-80892855D01*
X133433676Y-80892858D01*
X133342858Y-80983676D01*
X133342855Y-80983680D01*
X133284537Y-81098136D01*
X133264445Y-81224997D01*
X133264445Y-81225002D01*
X132110555Y-81225002D01*
X132110555Y-81224997D01*
X132090462Y-81098136D01*
X132090461Y-81098134D01*
X132090461Y-81098132D01*
X132032146Y-80983682D01*
X132032144Y-80983680D01*
X132032141Y-80983676D01*
X131941323Y-80892858D01*
X131941319Y-80892855D01*
X131941318Y-80892854D01*
X131826868Y-80834539D01*
X131826866Y-80834538D01*
X131826863Y-80834537D01*
X131700002Y-80814445D01*
X131699998Y-80814445D01*
X131573136Y-80834537D01*
X131458680Y-80892855D01*
X131458676Y-80892858D01*
X131367858Y-80983676D01*
X131367855Y-80983680D01*
X131309537Y-81098136D01*
X131289445Y-81224997D01*
X131289445Y-81225002D01*
X130106596Y-81225002D01*
X130090462Y-81123136D01*
X130090461Y-81123134D01*
X130090461Y-81123132D01*
X130032146Y-81008682D01*
X130032144Y-81008680D01*
X130032141Y-81008676D01*
X129941323Y-80917858D01*
X129941319Y-80917855D01*
X129941318Y-80917854D01*
X129826868Y-80859539D01*
X129826866Y-80859538D01*
X129826863Y-80859537D01*
X129700002Y-80839445D01*
X129699998Y-80839445D01*
X129573136Y-80859537D01*
X129458680Y-80917855D01*
X129458676Y-80917858D01*
X129367858Y-81008676D01*
X129367855Y-81008680D01*
X129309537Y-81123136D01*
X129289445Y-81249997D01*
X129289445Y-81250002D01*
X127469913Y-81250002D01*
X126794913Y-80575002D01*
X138314445Y-80575002D01*
X138334537Y-80701863D01*
X138334538Y-80701866D01*
X138334539Y-80701868D01*
X138391900Y-80814445D01*
X138392855Y-80816319D01*
X138392858Y-80816323D01*
X138483676Y-80907141D01*
X138483680Y-80907144D01*
X138483682Y-80907146D01*
X138598132Y-80965461D01*
X138598134Y-80965461D01*
X138598136Y-80965462D01*
X138724998Y-80985555D01*
X138725000Y-80985555D01*
X138725002Y-80985555D01*
X138851863Y-80965462D01*
X138851863Y-80965461D01*
X138851868Y-80965461D01*
X138966318Y-80907146D01*
X139057146Y-80816318D01*
X139115461Y-80701868D01*
X139135555Y-80575000D01*
X139115461Y-80448132D01*
X139057146Y-80333682D01*
X139057144Y-80333680D01*
X139057141Y-80333676D01*
X138966323Y-80242858D01*
X138966319Y-80242855D01*
X138966318Y-80242854D01*
X138851868Y-80184539D01*
X138851866Y-80184538D01*
X138851863Y-80184537D01*
X138725002Y-80164445D01*
X138724998Y-80164445D01*
X138598136Y-80184537D01*
X138483680Y-80242855D01*
X138483676Y-80242858D01*
X138392858Y-80333676D01*
X138392855Y-80333680D01*
X138334537Y-80448136D01*
X138314445Y-80574997D01*
X138314445Y-80575002D01*
X126794913Y-80575002D01*
X125419912Y-79200002D01*
X129289445Y-79200002D01*
X129309537Y-79326863D01*
X129309538Y-79326866D01*
X129309539Y-79326868D01*
X129367854Y-79441318D01*
X129367855Y-79441319D01*
X129367858Y-79441323D01*
X129458676Y-79532141D01*
X129458680Y-79532144D01*
X129458682Y-79532146D01*
X129573132Y-79590461D01*
X129573134Y-79590461D01*
X129573136Y-79590462D01*
X129699998Y-79610555D01*
X129700000Y-79610555D01*
X129700002Y-79610555D01*
X129826863Y-79590462D01*
X129826863Y-79590461D01*
X129826868Y-79590461D01*
X129941318Y-79532146D01*
X130032146Y-79441318D01*
X130090461Y-79326868D01*
X130110555Y-79200002D01*
X131289445Y-79200002D01*
X131309537Y-79326863D01*
X131309538Y-79326866D01*
X131309539Y-79326868D01*
X131367854Y-79441318D01*
X131367855Y-79441319D01*
X131367858Y-79441323D01*
X131458676Y-79532141D01*
X131458680Y-79532144D01*
X131458682Y-79532146D01*
X131573132Y-79590461D01*
X131573134Y-79590461D01*
X131573136Y-79590462D01*
X131699998Y-79610555D01*
X131700000Y-79610555D01*
X131700002Y-79610555D01*
X131826863Y-79590462D01*
X131826863Y-79590461D01*
X131826868Y-79590461D01*
X131941318Y-79532146D01*
X132032146Y-79441318D01*
X132090461Y-79326868D01*
X132110555Y-79200002D01*
X133264445Y-79200002D01*
X133284537Y-79326863D01*
X133284538Y-79326866D01*
X133284539Y-79326868D01*
X133342854Y-79441318D01*
X133342855Y-79441319D01*
X133342858Y-79441323D01*
X133433676Y-79532141D01*
X133433680Y-79532144D01*
X133433682Y-79532146D01*
X133548132Y-79590461D01*
X133548134Y-79590461D01*
X133548136Y-79590462D01*
X133674998Y-79610555D01*
X133675000Y-79610555D01*
X133675002Y-79610555D01*
X133801863Y-79590462D01*
X133801863Y-79590461D01*
X133801868Y-79590461D01*
X133916318Y-79532146D01*
X134007146Y-79441318D01*
X134065461Y-79326868D01*
X134085555Y-79200000D01*
X134065461Y-79073132D01*
X134007146Y-78958682D01*
X134007144Y-78958680D01*
X134007141Y-78958676D01*
X133916323Y-78867858D01*
X133916319Y-78867855D01*
X133916318Y-78867854D01*
X133801868Y-78809539D01*
X133801866Y-78809538D01*
X133801863Y-78809537D01*
X133675002Y-78789445D01*
X133674998Y-78789445D01*
X133548136Y-78809537D01*
X133433680Y-78867855D01*
X133433676Y-78867858D01*
X133342858Y-78958676D01*
X133342855Y-78958680D01*
X133284537Y-79073136D01*
X133264445Y-79199997D01*
X133264445Y-79200002D01*
X132110555Y-79200002D01*
X132110555Y-79200000D01*
X132090461Y-79073132D01*
X132032146Y-78958682D01*
X132032144Y-78958680D01*
X132032141Y-78958676D01*
X131941323Y-78867858D01*
X131941319Y-78867855D01*
X131941318Y-78867854D01*
X131826868Y-78809539D01*
X131826866Y-78809538D01*
X131826863Y-78809537D01*
X131700002Y-78789445D01*
X131699998Y-78789445D01*
X131573136Y-78809537D01*
X131458680Y-78867855D01*
X131458676Y-78867858D01*
X131367858Y-78958676D01*
X131367855Y-78958680D01*
X131309537Y-79073136D01*
X131289445Y-79199997D01*
X131289445Y-79200002D01*
X130110555Y-79200002D01*
X130110555Y-79200000D01*
X130090461Y-79073132D01*
X130032146Y-78958682D01*
X130032144Y-78958680D01*
X130032141Y-78958676D01*
X129941323Y-78867858D01*
X129941319Y-78867855D01*
X129941318Y-78867854D01*
X129826868Y-78809539D01*
X129826866Y-78809538D01*
X129826863Y-78809537D01*
X129700002Y-78789445D01*
X129699998Y-78789445D01*
X129573136Y-78809537D01*
X129458680Y-78867855D01*
X129458676Y-78867858D01*
X129367858Y-78958676D01*
X129367855Y-78958680D01*
X129309537Y-79073136D01*
X129289445Y-79199997D01*
X129289445Y-79200002D01*
X125419912Y-79200002D01*
X125131651Y-78911741D01*
X125131629Y-78911719D01*
X125126719Y-78907019D01*
X125121959Y-78902658D01*
X125121957Y-78902656D01*
X125070106Y-78871194D01*
X125070098Y-78871190D01*
X125022533Y-78853878D01*
X125022530Y-78853877D01*
X124969350Y-78844500D01*
X124969348Y-78844500D01*
X124017915Y-78844500D01*
X123950876Y-78824815D01*
X123905121Y-78772011D01*
X123895177Y-78702853D01*
X123924202Y-78639297D01*
X123961619Y-78610016D01*
X124016318Y-78582146D01*
X124107146Y-78491318D01*
X124165461Y-78376868D01*
X124181595Y-78275002D01*
X139214445Y-78275002D01*
X139234537Y-78401863D01*
X139234538Y-78401866D01*
X139234539Y-78401868D01*
X139292854Y-78516318D01*
X139292855Y-78516319D01*
X139292858Y-78516323D01*
X139383676Y-78607141D01*
X139383680Y-78607144D01*
X139383682Y-78607146D01*
X139498132Y-78665461D01*
X139498134Y-78665461D01*
X139498136Y-78665462D01*
X139624998Y-78685555D01*
X139625000Y-78685555D01*
X139625002Y-78685555D01*
X139751863Y-78665462D01*
X139751863Y-78665461D01*
X139751868Y-78665461D01*
X139866318Y-78607146D01*
X139957146Y-78516318D01*
X140015461Y-78401868D01*
X140019421Y-78376868D01*
X140035555Y-78275002D01*
X140035555Y-78274997D01*
X140015462Y-78148136D01*
X140015461Y-78148134D01*
X140015461Y-78148132D01*
X139957146Y-78033682D01*
X139957144Y-78033680D01*
X139957141Y-78033676D01*
X139866323Y-77942858D01*
X139866319Y-77942855D01*
X139866318Y-77942854D01*
X139751868Y-77884539D01*
X139751866Y-77884538D01*
X139751863Y-77884537D01*
X139625002Y-77864445D01*
X139624998Y-77864445D01*
X139498136Y-77884537D01*
X139498132Y-77884538D01*
X139498132Y-77884539D01*
X139484818Y-77891323D01*
X139383680Y-77942855D01*
X139383676Y-77942858D01*
X139292858Y-78033676D01*
X139292855Y-78033680D01*
X139234537Y-78148136D01*
X139214445Y-78274997D01*
X139214445Y-78275002D01*
X124181595Y-78275002D01*
X124185555Y-78250002D01*
X124185555Y-78249997D01*
X124165462Y-78123136D01*
X124165461Y-78123134D01*
X124165461Y-78123132D01*
X124107146Y-78008682D01*
X124107144Y-78008680D01*
X124107141Y-78008676D01*
X124016323Y-77917858D01*
X124016319Y-77917855D01*
X124016318Y-77917854D01*
X123901868Y-77859539D01*
X123901866Y-77859538D01*
X123901863Y-77859537D01*
X123775002Y-77839445D01*
X123774998Y-77839445D01*
X123648136Y-77859537D01*
X123533680Y-77917855D01*
X123533676Y-77917858D01*
X123442858Y-78008676D01*
X123442855Y-78008680D01*
X123384537Y-78123136D01*
X123364445Y-78249997D01*
X123364445Y-78250002D01*
X123384537Y-78376863D01*
X123384538Y-78376866D01*
X123384539Y-78376868D01*
X123442854Y-78491318D01*
X123442855Y-78491319D01*
X123442858Y-78491323D01*
X123533676Y-78582141D01*
X123533679Y-78582143D01*
X123533682Y-78582146D01*
X123588379Y-78610015D01*
X123639176Y-78657989D01*
X123655971Y-78725810D01*
X123633434Y-78791945D01*
X123578719Y-78835397D01*
X123532085Y-78844500D01*
X122830652Y-78844500D01*
X122826489Y-78844590D01*
X122823848Y-78844648D01*
X122817415Y-78844929D01*
X122817406Y-78844931D01*
X122758491Y-78859349D01*
X122758485Y-78859351D01*
X122712603Y-78880746D01*
X122668368Y-78911720D01*
X122584181Y-78995908D01*
X122522858Y-79029393D01*
X122453166Y-79024409D01*
X122397233Y-78982537D01*
X122372816Y-78917073D01*
X122372500Y-78908227D01*
X122372500Y-77452194D01*
X122392185Y-77385155D01*
X122444989Y-77339400D01*
X122514147Y-77329456D01*
X122577703Y-77358481D01*
X122606983Y-77395898D01*
X122630126Y-77441318D01*
X122642853Y-77466296D01*
X122642858Y-77466303D01*
X122733676Y-77557121D01*
X122733680Y-77557124D01*
X122733682Y-77557126D01*
X122848132Y-77615441D01*
X122848134Y-77615441D01*
X122848136Y-77615442D01*
X122974998Y-77635535D01*
X122975000Y-77635535D01*
X122975002Y-77635535D01*
X123101863Y-77615442D01*
X123101863Y-77615441D01*
X123101868Y-77615441D01*
X123216318Y-77557126D01*
X123307146Y-77466298D01*
X123365461Y-77351848D01*
X123369008Y-77329456D01*
X123385555Y-77224982D01*
X123385555Y-77224977D01*
X123365462Y-77098116D01*
X123365461Y-77098114D01*
X123365461Y-77098112D01*
X123307146Y-76983662D01*
X123307144Y-76983660D01*
X123307141Y-76983656D01*
X123223487Y-76900002D01*
X124464445Y-76900002D01*
X124484537Y-77026863D01*
X124484538Y-77026864D01*
X124484539Y-77026868D01*
X124542854Y-77141318D01*
X124542855Y-77141319D01*
X124542858Y-77141323D01*
X124633676Y-77232141D01*
X124633680Y-77232144D01*
X124633682Y-77232146D01*
X124748132Y-77290461D01*
X124748135Y-77290461D01*
X124748138Y-77290463D01*
X124757418Y-77293479D01*
X124756845Y-77295239D01*
X124809217Y-77320066D01*
X124846148Y-77379378D01*
X124845150Y-77449241D01*
X124837169Y-77468904D01*
X124809537Y-77523134D01*
X124789445Y-77649997D01*
X124789445Y-77650002D01*
X124809537Y-77776863D01*
X124809538Y-77776866D01*
X124809539Y-77776868D01*
X124851661Y-77859537D01*
X124867855Y-77891319D01*
X124867858Y-77891323D01*
X124958676Y-77982141D01*
X124958680Y-77982144D01*
X124958682Y-77982146D01*
X125073132Y-78040461D01*
X125073134Y-78040461D01*
X125073136Y-78040462D01*
X125199998Y-78060555D01*
X125200000Y-78060555D01*
X125200002Y-78060555D01*
X125326863Y-78040462D01*
X125326863Y-78040461D01*
X125326868Y-78040461D01*
X125441318Y-77982146D01*
X125532146Y-77891318D01*
X125590461Y-77776868D01*
X125610555Y-77650000D01*
X125608267Y-77635555D01*
X125590462Y-77523136D01*
X125590461Y-77523134D01*
X125590461Y-77523132D01*
X125532146Y-77408682D01*
X125532144Y-77408680D01*
X125532141Y-77408676D01*
X125441323Y-77317858D01*
X125441319Y-77317855D01*
X125441318Y-77317854D01*
X125326868Y-77259539D01*
X125326866Y-77259538D01*
X125326861Y-77259536D01*
X125317582Y-77256521D01*
X125318153Y-77254762D01*
X125265772Y-77229924D01*
X125247145Y-77200002D01*
X127289445Y-77200002D01*
X127309537Y-77326863D01*
X127309538Y-77326866D01*
X127309539Y-77326868D01*
X127367854Y-77441318D01*
X127367855Y-77441319D01*
X127367858Y-77441323D01*
X127458676Y-77532141D01*
X127458680Y-77532144D01*
X127458682Y-77532146D01*
X127573132Y-77590461D01*
X127573134Y-77590461D01*
X127573136Y-77590462D01*
X127699998Y-77610555D01*
X127700000Y-77610555D01*
X127700002Y-77610555D01*
X127826863Y-77590462D01*
X127826863Y-77590461D01*
X127826868Y-77590461D01*
X127941318Y-77532146D01*
X128032146Y-77441318D01*
X128090461Y-77326868D01*
X128090462Y-77326863D01*
X128110555Y-77200002D01*
X128889445Y-77200002D01*
X128909537Y-77326863D01*
X128909538Y-77326866D01*
X128909539Y-77326868D01*
X128967854Y-77441318D01*
X128967855Y-77441319D01*
X128967858Y-77441323D01*
X129058676Y-77532141D01*
X129058680Y-77532144D01*
X129058682Y-77532146D01*
X129173132Y-77590461D01*
X129173134Y-77590461D01*
X129173136Y-77590462D01*
X129299998Y-77610555D01*
X129300000Y-77610555D01*
X129300002Y-77610555D01*
X129426863Y-77590462D01*
X129426863Y-77590461D01*
X129426868Y-77590461D01*
X129541318Y-77532146D01*
X129632146Y-77441318D01*
X129690461Y-77326868D01*
X129690462Y-77326863D01*
X129710555Y-77200002D01*
X130489445Y-77200002D01*
X130509537Y-77326863D01*
X130509538Y-77326866D01*
X130509539Y-77326868D01*
X130567854Y-77441318D01*
X130567855Y-77441319D01*
X130567858Y-77441323D01*
X130658676Y-77532141D01*
X130658680Y-77532144D01*
X130658682Y-77532146D01*
X130773132Y-77590461D01*
X130773134Y-77590461D01*
X130773136Y-77590462D01*
X130899998Y-77610555D01*
X130900000Y-77610555D01*
X130900002Y-77610555D01*
X131026863Y-77590462D01*
X131026863Y-77590461D01*
X131026868Y-77590461D01*
X131141318Y-77532146D01*
X131232146Y-77441318D01*
X131290461Y-77326868D01*
X131290462Y-77326863D01*
X131310555Y-77200002D01*
X132089445Y-77200002D01*
X132109537Y-77326863D01*
X132109538Y-77326866D01*
X132109539Y-77326868D01*
X132167854Y-77441318D01*
X132167855Y-77441319D01*
X132167858Y-77441323D01*
X132258676Y-77532141D01*
X132258680Y-77532144D01*
X132258682Y-77532146D01*
X132373132Y-77590461D01*
X132373134Y-77590461D01*
X132373136Y-77590462D01*
X132499998Y-77610555D01*
X132500000Y-77610555D01*
X132500002Y-77610555D01*
X132626863Y-77590462D01*
X132626863Y-77590461D01*
X132626868Y-77590461D01*
X132741318Y-77532146D01*
X132832146Y-77441318D01*
X132890461Y-77326868D01*
X132890462Y-77326863D01*
X132910555Y-77200002D01*
X133689445Y-77200002D01*
X133709537Y-77326863D01*
X133709538Y-77326866D01*
X133709539Y-77326868D01*
X133767854Y-77441318D01*
X133767855Y-77441319D01*
X133767858Y-77441323D01*
X133858676Y-77532141D01*
X133858680Y-77532144D01*
X133858682Y-77532146D01*
X133973132Y-77590461D01*
X133973134Y-77590461D01*
X133973136Y-77590462D01*
X134099998Y-77610555D01*
X134100000Y-77610555D01*
X134100002Y-77610555D01*
X134226863Y-77590462D01*
X134226863Y-77590461D01*
X134226868Y-77590461D01*
X134341318Y-77532146D01*
X134432146Y-77441318D01*
X134490461Y-77326868D01*
X134490462Y-77326863D01*
X134510555Y-77200002D01*
X135289445Y-77200002D01*
X135309537Y-77326863D01*
X135309538Y-77326866D01*
X135309539Y-77326868D01*
X135367854Y-77441318D01*
X135367855Y-77441319D01*
X135367858Y-77441323D01*
X135458676Y-77532141D01*
X135458680Y-77532144D01*
X135458682Y-77532146D01*
X135573132Y-77590461D01*
X135573134Y-77590461D01*
X135573136Y-77590462D01*
X135699998Y-77610555D01*
X135700000Y-77610555D01*
X135700002Y-77610555D01*
X135826863Y-77590462D01*
X135826863Y-77590461D01*
X135826868Y-77590461D01*
X135941318Y-77532146D01*
X136032146Y-77441318D01*
X136090461Y-77326868D01*
X136090462Y-77326863D01*
X136110555Y-77200002D01*
X136110555Y-77199997D01*
X136090462Y-77073136D01*
X136090461Y-77073134D01*
X136090461Y-77073132D01*
X136032146Y-76958682D01*
X136032144Y-76958680D01*
X136032141Y-76958676D01*
X135941323Y-76867858D01*
X135941319Y-76867855D01*
X135941318Y-76867854D01*
X135826868Y-76809539D01*
X135826866Y-76809538D01*
X135826863Y-76809537D01*
X135700002Y-76789445D01*
X135699998Y-76789445D01*
X135573136Y-76809537D01*
X135458680Y-76867855D01*
X135458676Y-76867858D01*
X135367858Y-76958676D01*
X135367855Y-76958680D01*
X135309537Y-77073136D01*
X135289445Y-77199997D01*
X135289445Y-77200002D01*
X134510555Y-77200002D01*
X134510555Y-77199997D01*
X134490462Y-77073136D01*
X134490461Y-77073134D01*
X134490461Y-77073132D01*
X134432146Y-76958682D01*
X134432144Y-76958680D01*
X134432141Y-76958676D01*
X134341323Y-76867858D01*
X134341319Y-76867855D01*
X134341318Y-76867854D01*
X134226868Y-76809539D01*
X134226866Y-76809538D01*
X134226863Y-76809537D01*
X134100002Y-76789445D01*
X134099998Y-76789445D01*
X133973136Y-76809537D01*
X133858680Y-76867855D01*
X133858676Y-76867858D01*
X133767858Y-76958676D01*
X133767855Y-76958680D01*
X133709537Y-77073136D01*
X133689445Y-77199997D01*
X133689445Y-77200002D01*
X132910555Y-77200002D01*
X132910555Y-77199997D01*
X132890462Y-77073136D01*
X132890461Y-77073134D01*
X132890461Y-77073132D01*
X132832146Y-76958682D01*
X132832144Y-76958680D01*
X132832141Y-76958676D01*
X132741323Y-76867858D01*
X132741319Y-76867855D01*
X132741318Y-76867854D01*
X132626868Y-76809539D01*
X132626866Y-76809538D01*
X132626863Y-76809537D01*
X132500002Y-76789445D01*
X132499998Y-76789445D01*
X132373136Y-76809537D01*
X132258680Y-76867855D01*
X132258676Y-76867858D01*
X132167858Y-76958676D01*
X132167855Y-76958680D01*
X132109537Y-77073136D01*
X132089445Y-77199997D01*
X132089445Y-77200002D01*
X131310555Y-77200002D01*
X131310555Y-77199997D01*
X131290462Y-77073136D01*
X131290461Y-77073134D01*
X131290461Y-77073132D01*
X131232146Y-76958682D01*
X131232144Y-76958680D01*
X131232141Y-76958676D01*
X131141323Y-76867858D01*
X131141319Y-76867855D01*
X131141318Y-76867854D01*
X131026868Y-76809539D01*
X131026866Y-76809538D01*
X131026863Y-76809537D01*
X130900002Y-76789445D01*
X130899998Y-76789445D01*
X130773136Y-76809537D01*
X130658680Y-76867855D01*
X130658676Y-76867858D01*
X130567858Y-76958676D01*
X130567855Y-76958680D01*
X130509537Y-77073136D01*
X130489445Y-77199997D01*
X130489445Y-77200002D01*
X129710555Y-77200002D01*
X129710555Y-77199997D01*
X129690462Y-77073136D01*
X129690461Y-77073134D01*
X129690461Y-77073132D01*
X129632146Y-76958682D01*
X129632144Y-76958680D01*
X129632141Y-76958676D01*
X129541323Y-76867858D01*
X129541319Y-76867855D01*
X129541318Y-76867854D01*
X129426868Y-76809539D01*
X129426866Y-76809538D01*
X129426863Y-76809537D01*
X129300002Y-76789445D01*
X129299998Y-76789445D01*
X129173136Y-76809537D01*
X129058680Y-76867855D01*
X129058676Y-76867858D01*
X128967858Y-76958676D01*
X128967855Y-76958680D01*
X128909537Y-77073136D01*
X128889445Y-77199997D01*
X128889445Y-77200002D01*
X128110555Y-77200002D01*
X128110555Y-77199997D01*
X128090462Y-77073136D01*
X128090461Y-77073134D01*
X128090461Y-77073132D01*
X128032146Y-76958682D01*
X128032144Y-76958680D01*
X128032141Y-76958676D01*
X127941323Y-76867858D01*
X127941319Y-76867855D01*
X127941318Y-76867854D01*
X127826868Y-76809539D01*
X127826866Y-76809538D01*
X127826863Y-76809537D01*
X127700002Y-76789445D01*
X127699998Y-76789445D01*
X127573136Y-76809537D01*
X127458680Y-76867855D01*
X127458676Y-76867858D01*
X127367858Y-76958676D01*
X127367855Y-76958680D01*
X127309537Y-77073136D01*
X127289445Y-77199997D01*
X127289445Y-77200002D01*
X125247145Y-77200002D01*
X125228847Y-77170608D01*
X125229853Y-77100746D01*
X125237826Y-77081103D01*
X125265461Y-77026868D01*
X125270071Y-76997765D01*
X125285555Y-76900002D01*
X125285555Y-76899997D01*
X125265462Y-76773136D01*
X125265461Y-76773134D01*
X125265461Y-76773132D01*
X125207146Y-76658682D01*
X125207144Y-76658680D01*
X125207141Y-76658676D01*
X125116323Y-76567858D01*
X125116319Y-76567855D01*
X125116318Y-76567854D01*
X125001868Y-76509539D01*
X125001866Y-76509538D01*
X125001863Y-76509537D01*
X124875002Y-76489445D01*
X124874998Y-76489445D01*
X124748136Y-76509537D01*
X124633680Y-76567855D01*
X124633676Y-76567858D01*
X124542858Y-76658676D01*
X124542855Y-76658680D01*
X124484537Y-76773136D01*
X124464445Y-76899997D01*
X124464445Y-76900002D01*
X123223487Y-76900002D01*
X123216323Y-76892838D01*
X123216319Y-76892835D01*
X123216318Y-76892834D01*
X123101868Y-76834519D01*
X123101866Y-76834518D01*
X123101863Y-76834517D01*
X122975002Y-76814425D01*
X122974998Y-76814425D01*
X122848136Y-76834517D01*
X122733680Y-76892835D01*
X122733676Y-76892838D01*
X122642858Y-76983656D01*
X122642856Y-76983660D01*
X122642854Y-76983662D01*
X122606985Y-77054060D01*
X122559010Y-77104856D01*
X122491189Y-77121651D01*
X122425054Y-77099114D01*
X122381603Y-77044398D01*
X122372500Y-76997765D01*
X122372500Y-76016500D01*
X122392185Y-75949461D01*
X122444989Y-75903706D01*
X122496500Y-75892500D01*
X138949703Y-75892500D01*
X139016742Y-75912185D01*
G37*
G04 #@! TD.AperFunction*
G04 #@! TA.AperFunction,Conductor*
G36*
X125016914Y-79017313D02*
G01*
X125021674Y-79021674D01*
X129378326Y-83378326D01*
X129399718Y-83424202D01*
X129400000Y-83430652D01*
X129400000Y-84326996D01*
X129382687Y-84374562D01*
X129338850Y-84399872D01*
X129292405Y-84392931D01*
X129226868Y-84359539D01*
X129100000Y-84339445D01*
X128973131Y-84359539D01*
X128973126Y-84359540D01*
X128858683Y-84417852D01*
X128767852Y-84508683D01*
X128709540Y-84623126D01*
X128709539Y-84623131D01*
X128689445Y-84750000D01*
X128709539Y-84876868D01*
X128709540Y-84876873D01*
X128767852Y-84991316D01*
X128858683Y-85082147D01*
X128973126Y-85140459D01*
X128973129Y-85140459D01*
X128973132Y-85140461D01*
X129100000Y-85160555D01*
X129226868Y-85140461D01*
X129292404Y-85107069D01*
X129342646Y-85100900D01*
X129385099Y-85128468D01*
X129400000Y-85173003D01*
X129400000Y-91200000D01*
X129628326Y-91428326D01*
X129649718Y-91474202D01*
X129650000Y-91480652D01*
X129650000Y-93569348D01*
X129632687Y-93616914D01*
X129628326Y-93621674D01*
X129171674Y-94078326D01*
X129125798Y-94099718D01*
X129119348Y-94100000D01*
X127646053Y-94100000D01*
X127598487Y-94082687D01*
X127573177Y-94038850D01*
X127581967Y-93989000D01*
X127612458Y-93960065D01*
X127716318Y-93907146D01*
X127807146Y-93816318D01*
X127837296Y-93757146D01*
X127865459Y-93701873D01*
X127865459Y-93701871D01*
X127865461Y-93701868D01*
X127885555Y-93575000D01*
X127865461Y-93448132D01*
X127865459Y-93448129D01*
X127865459Y-93448126D01*
X127807147Y-93333683D01*
X127716316Y-93242852D01*
X127601873Y-93184540D01*
X127601868Y-93184539D01*
X127475000Y-93164445D01*
X127348131Y-93184539D01*
X127242942Y-93238135D01*
X127192700Y-93244303D01*
X127150248Y-93216734D01*
X127143418Y-93205804D01*
X127132146Y-93183682D01*
X127041318Y-93092854D01*
X127041316Y-93092852D01*
X126926873Y-93034540D01*
X126926868Y-93034539D01*
X126800000Y-93014445D01*
X126673131Y-93034539D01*
X126562977Y-93090665D01*
X126512735Y-93096833D01*
X126477056Y-93077056D01*
X125821674Y-92421674D01*
X125800282Y-92375798D01*
X125800000Y-92369348D01*
X125800000Y-92250000D01*
X128164445Y-92250000D01*
X128184539Y-92376868D01*
X128184540Y-92376873D01*
X128242852Y-92491316D01*
X128333683Y-92582147D01*
X128448126Y-92640459D01*
X128448129Y-92640459D01*
X128448132Y-92640461D01*
X128575000Y-92660555D01*
X128701868Y-92640461D01*
X128701871Y-92640459D01*
X128701873Y-92640459D01*
X128816316Y-92582147D01*
X128816315Y-92582147D01*
X128816318Y-92582146D01*
X128907146Y-92491318D01*
X128909107Y-92487469D01*
X128965459Y-92376873D01*
X128965459Y-92376871D01*
X128965461Y-92376868D01*
X128985555Y-92250000D01*
X128965461Y-92123132D01*
X128965459Y-92123129D01*
X128965459Y-92123126D01*
X128907147Y-92008683D01*
X128816316Y-91917852D01*
X128701873Y-91859540D01*
X128701868Y-91859539D01*
X128575000Y-91839445D01*
X128448131Y-91859539D01*
X128448126Y-91859540D01*
X128333683Y-91917852D01*
X128242852Y-92008683D01*
X128184540Y-92123126D01*
X128184539Y-92123131D01*
X128164445Y-92250000D01*
X125800000Y-92250000D01*
X125800000Y-89025000D01*
X127439445Y-89025000D01*
X127459539Y-89151868D01*
X127459540Y-89151873D01*
X127517852Y-89266316D01*
X127608683Y-89357147D01*
X127723126Y-89415459D01*
X127723129Y-89415459D01*
X127723132Y-89415461D01*
X127850000Y-89435555D01*
X127976868Y-89415461D01*
X127976871Y-89415459D01*
X127976873Y-89415459D01*
X128091316Y-89357147D01*
X128091315Y-89357147D01*
X128091318Y-89357146D01*
X128182146Y-89266318D01*
X128184107Y-89262469D01*
X128240459Y-89151873D01*
X128240459Y-89151871D01*
X128240461Y-89151868D01*
X128260555Y-89025000D01*
X128248054Y-88946074D01*
X128257712Y-88896388D01*
X128297050Y-88864532D01*
X128344010Y-88864122D01*
X128348130Y-88865460D01*
X128348132Y-88865461D01*
X128475000Y-88885555D01*
X128601868Y-88865461D01*
X128601871Y-88865459D01*
X128601873Y-88865459D01*
X128716316Y-88807147D01*
X128716315Y-88807147D01*
X128716318Y-88807146D01*
X128807146Y-88716318D01*
X128815460Y-88700000D01*
X128865459Y-88601873D01*
X128865459Y-88601871D01*
X128865461Y-88601868D01*
X128885555Y-88475000D01*
X128865461Y-88348132D01*
X128865459Y-88348129D01*
X128865459Y-88348126D01*
X128807147Y-88233683D01*
X128716316Y-88142852D01*
X128601873Y-88084540D01*
X128601868Y-88084539D01*
X128475000Y-88064445D01*
X128348131Y-88084539D01*
X128348126Y-88084540D01*
X128233683Y-88142852D01*
X128142852Y-88233683D01*
X128084540Y-88348126D01*
X128084539Y-88348131D01*
X128064445Y-88475000D01*
X128076945Y-88553923D01*
X128067286Y-88603612D01*
X128027948Y-88635467D01*
X127980994Y-88635879D01*
X127976869Y-88634539D01*
X127850000Y-88614445D01*
X127723131Y-88634539D01*
X127723126Y-88634540D01*
X127608683Y-88692852D01*
X127517852Y-88783683D01*
X127459540Y-88898126D01*
X127459539Y-88898131D01*
X127439445Y-89025000D01*
X125800000Y-89025000D01*
X125800000Y-84800000D01*
X125625000Y-84625000D01*
X126539445Y-84625000D01*
X126559539Y-84751868D01*
X126559540Y-84751873D01*
X126617852Y-84866316D01*
X126708683Y-84957147D01*
X126823126Y-85015459D01*
X126823129Y-85015459D01*
X126823132Y-85015461D01*
X126950000Y-85035555D01*
X127076868Y-85015461D01*
X127076871Y-85015459D01*
X127076873Y-85015459D01*
X127191316Y-84957147D01*
X127191315Y-84957147D01*
X127191318Y-84957146D01*
X127282146Y-84866318D01*
X127327723Y-84776868D01*
X127340459Y-84751873D01*
X127340459Y-84751871D01*
X127340461Y-84751868D01*
X127360555Y-84625000D01*
X127340461Y-84498132D01*
X127340459Y-84498129D01*
X127340459Y-84498126D01*
X127282147Y-84383683D01*
X127191316Y-84292852D01*
X127076873Y-84234540D01*
X127076868Y-84234539D01*
X126950000Y-84214445D01*
X126823131Y-84234539D01*
X126823126Y-84234540D01*
X126708683Y-84292852D01*
X126617852Y-84383683D01*
X126559540Y-84498126D01*
X126559539Y-84498131D01*
X126539445Y-84625000D01*
X125625000Y-84625000D01*
X125373258Y-84373258D01*
X125351866Y-84327382D01*
X125359649Y-84287339D01*
X125390461Y-84226868D01*
X125410555Y-84100000D01*
X125402636Y-84050000D01*
X127839445Y-84050000D01*
X127859539Y-84176868D01*
X127859540Y-84176873D01*
X127917852Y-84291316D01*
X128008683Y-84382147D01*
X128123126Y-84440459D01*
X128123129Y-84440459D01*
X128123132Y-84440461D01*
X128250000Y-84460555D01*
X128376868Y-84440461D01*
X128376871Y-84440459D01*
X128376873Y-84440459D01*
X128491316Y-84382147D01*
X128491315Y-84382147D01*
X128491318Y-84382146D01*
X128582146Y-84291318D01*
X128611076Y-84234540D01*
X128640459Y-84176873D01*
X128640459Y-84176871D01*
X128640461Y-84176868D01*
X128660555Y-84050000D01*
X128640461Y-83923132D01*
X128640459Y-83923129D01*
X128640459Y-83923126D01*
X128582147Y-83808683D01*
X128491316Y-83717852D01*
X128376873Y-83659540D01*
X128376868Y-83659539D01*
X128250000Y-83639445D01*
X128123131Y-83659539D01*
X128123126Y-83659540D01*
X128008683Y-83717852D01*
X127917852Y-83808683D01*
X127859540Y-83923126D01*
X127859539Y-83923131D01*
X127839445Y-84050000D01*
X125402636Y-84050000D01*
X125390461Y-83973132D01*
X125390459Y-83973129D01*
X125390459Y-83973126D01*
X125332147Y-83858683D01*
X125241316Y-83767852D01*
X125126873Y-83709540D01*
X125126868Y-83709539D01*
X125000000Y-83689445D01*
X124873131Y-83709539D01*
X124873129Y-83709539D01*
X124812660Y-83740349D01*
X124762418Y-83746517D01*
X124726740Y-83726740D01*
X124151557Y-83151557D01*
X124130165Y-83105681D01*
X124143266Y-83056786D01*
X124151547Y-83046916D01*
X124207146Y-82991318D01*
X124207148Y-82991315D01*
X124265459Y-82876873D01*
X124265459Y-82876871D01*
X124265461Y-82876868D01*
X124277636Y-82800000D01*
X125189445Y-82800000D01*
X125209539Y-82926868D01*
X125209540Y-82926873D01*
X125267852Y-83041316D01*
X125358683Y-83132147D01*
X125473126Y-83190459D01*
X125473129Y-83190459D01*
X125473132Y-83190461D01*
X125600000Y-83210555D01*
X125726868Y-83190461D01*
X125726871Y-83190459D01*
X125726873Y-83190459D01*
X125841316Y-83132147D01*
X125841315Y-83132147D01*
X125841318Y-83132146D01*
X125932146Y-83041318D01*
X125957624Y-82991315D01*
X125990459Y-82926873D01*
X125990459Y-82926871D01*
X125990461Y-82926868D01*
X126010555Y-82800000D01*
X125990461Y-82673132D01*
X125990459Y-82673129D01*
X125990459Y-82673126D01*
X125932147Y-82558683D01*
X125841316Y-82467852D01*
X125726873Y-82409540D01*
X125726868Y-82409539D01*
X125600000Y-82389445D01*
X125473131Y-82409539D01*
X125473126Y-82409540D01*
X125358683Y-82467852D01*
X125267852Y-82558683D01*
X125209540Y-82673126D01*
X125209539Y-82673131D01*
X125189445Y-82800000D01*
X124277636Y-82800000D01*
X124285555Y-82750000D01*
X124265461Y-82623132D01*
X124265459Y-82623129D01*
X124265459Y-82623126D01*
X124207147Y-82508683D01*
X124116316Y-82417852D01*
X124001873Y-82359540D01*
X124001868Y-82359539D01*
X123875000Y-82339445D01*
X123748131Y-82359539D01*
X123748126Y-82359540D01*
X123633683Y-82417852D01*
X123578094Y-82473442D01*
X123532218Y-82494834D01*
X123483323Y-82481733D01*
X123473442Y-82473442D01*
X122421674Y-81421674D01*
X122400282Y-81375798D01*
X122400000Y-81369348D01*
X122400000Y-81185427D01*
X122417313Y-81137861D01*
X122461150Y-81112551D01*
X122492350Y-81114735D01*
X122492380Y-81114550D01*
X122494507Y-81114886D01*
X122496879Y-81115053D01*
X122498124Y-81115457D01*
X122498132Y-81115461D01*
X122625000Y-81135555D01*
X122751868Y-81115461D01*
X122751871Y-81115459D01*
X122751873Y-81115459D01*
X122866316Y-81057147D01*
X122866315Y-81057147D01*
X122866318Y-81057146D01*
X122957146Y-80966318D01*
X122981840Y-80917854D01*
X123015459Y-80851873D01*
X123015459Y-80851871D01*
X123015461Y-80851868D01*
X123035555Y-80725000D01*
X123015461Y-80598132D01*
X123015459Y-80598129D01*
X123015459Y-80598126D01*
X122957147Y-80483683D01*
X122866316Y-80392852D01*
X122751873Y-80334540D01*
X122751868Y-80334539D01*
X122625000Y-80314445D01*
X122498125Y-80334540D01*
X122496860Y-80334951D01*
X122495771Y-80334912D01*
X122492380Y-80335450D01*
X122492275Y-80334790D01*
X122446272Y-80333180D01*
X122408658Y-80299305D01*
X122400000Y-80264571D01*
X122400000Y-79430652D01*
X122417313Y-79383086D01*
X122421674Y-79378326D01*
X122778326Y-79021674D01*
X122824202Y-79000282D01*
X122830652Y-79000000D01*
X124969348Y-79000000D01*
X125016914Y-79017313D01*
G37*
G04 #@! TD.AperFunction*
M02*
