%TF.GenerationSoftware,KiCad,Pcbnew,7.0.10*%
%TF.CreationDate,2024-03-03T23:10:31-08:00*%
%TF.ProjectId,Tracker_Band_V1,54726163-6b65-4725-9f42-616e645f5631,1*%
%TF.SameCoordinates,Original*%
%TF.FileFunction,Copper,L4,Bot*%
%TF.FilePolarity,Positive*%
%FSLAX46Y46*%
G04 Gerber Fmt 4.6, Leading zero omitted, Abs format (unit mm)*
G04 Created by KiCad (PCBNEW 7.0.10) date 2024-03-03 23:10:31*
%MOMM*%
%LPD*%
G01*
G04 APERTURE LIST*
%TA.AperFunction,ComponentPad*%
%ADD10O,2.100000X1.000000*%
%TD*%
%TA.AperFunction,ComponentPad*%
%ADD11O,1.800000X1.000000*%
%TD*%
%TA.AperFunction,SMDPad,CuDef*%
%ADD12C,1.000000*%
%TD*%
%TA.AperFunction,SMDPad,CuDef*%
%ADD13C,1.500000*%
%TD*%
%TA.AperFunction,ViaPad*%
%ADD14C,0.250000*%
%TD*%
%TA.AperFunction,ViaPad*%
%ADD15C,0.450000*%
%TD*%
%TA.AperFunction,ViaPad*%
%ADD16C,0.350000*%
%TD*%
%TA.AperFunction,Conductor*%
%ADD17C,0.500000*%
%TD*%
%TA.AperFunction,Conductor*%
%ADD18C,0.127000*%
%TD*%
G04 APERTURE END LIST*
D10*
%TO.P,J1,S1,SHIELD*%
%TO.N,GND*%
X135810000Y-100370000D03*
D11*
X140010000Y-100370000D03*
D10*
X135810000Y-91730000D03*
D11*
X140010000Y-91730000D03*
%TD*%
D12*
%TO.P,TP9,1,1*%
%TO.N,/CHRG_ST*%
X128250000Y-84050000D03*
%TD*%
%TO.P,TP20,1,1*%
%TO.N,/XIN32*%
X124400000Y-97700000D03*
%TD*%
%TO.P,TP11,1,1*%
%TO.N,/BUCK_EN*%
X134100000Y-99150000D03*
%TD*%
%TO.P,TP8,1,1*%
%TO.N,VCC*%
X128575000Y-92250000D03*
%TD*%
D13*
%TO.P,TP3,1,1*%
%TO.N,/BNO_SCL*%
X128280000Y-100375000D03*
%TD*%
%TO.P,TP5,1,1*%
%TO.N,+BATT*%
X123350000Y-79390000D03*
%TD*%
D12*
%TO.P,TP21,1,1*%
%TO.N,/GPIO0*%
X137600000Y-89300000D03*
%TD*%
%TO.P,TP16,1,1*%
%TO.N,/BNO_SCLK*%
X124450000Y-92050000D03*
%TD*%
D13*
%TO.P,TP6,1,1*%
%TO.N,GND*%
X123350000Y-76850000D03*
%TD*%
D12*
%TO.P,TP7,1,1*%
%TO.N,VBUS*%
X138225000Y-97950000D03*
%TD*%
%TO.P,TP15,1,1*%
%TO.N,/BNO_MISO*%
X124200000Y-94500000D03*
%TD*%
D13*
%TO.P,TP4,1,1*%
%TO.N,GND*%
X130819999Y-100375000D03*
%TD*%
D12*
%TO.P,TP12,1,1*%
%TO.N,/VBAT_ADC*%
X123450000Y-84975000D03*
%TD*%
%TO.P,TP14,1,1*%
%TO.N,/BNO_MOSI*%
X126450000Y-92100000D03*
%TD*%
%TO.P,TP10,1,1*%
%TO.N,/OR_ST*%
X131700000Y-84150000D03*
%TD*%
%TO.P,TP18,1,1*%
%TO.N,/BNO_RSTn*%
X125875000Y-95650000D03*
%TD*%
%TO.P,TP19,1,1*%
%TO.N,/BNO_INTn*%
X128925000Y-90175000D03*
%TD*%
%TO.P,TP17,1,1*%
%TO.N,/BNO_CSn*%
X135100000Y-84300000D03*
%TD*%
%TO.P,TP13,1,1*%
%TO.N,/RST_N*%
X126100000Y-84050000D03*
%TD*%
D13*
%TO.P,TP2,1,1*%
%TO.N,/BNO_SDA*%
X125740000Y-100374999D03*
%TD*%
%TO.P,TP1,1,1*%
%TO.N,+3.3V*%
X123200000Y-100375000D03*
%TD*%
D14*
%TO.N,GND*%
X132675000Y-89200000D03*
X134300000Y-92725000D03*
X133700000Y-84500000D03*
X122685000Y-95440000D03*
D15*
X132700000Y-80225000D03*
X127700000Y-77200000D03*
D14*
X128500000Y-85000000D03*
D15*
X134675000Y-80225000D03*
D14*
X129025000Y-96200000D03*
X128650000Y-98450000D03*
D16*
X128000000Y-89000000D03*
D14*
X130648811Y-90128973D03*
X130929003Y-95963024D03*
X130471040Y-97324992D03*
X134300000Y-90950000D03*
X129725000Y-96425000D03*
X133975000Y-89200000D03*
X130924937Y-97325000D03*
X139710000Y-79480000D03*
X131377710Y-96426655D03*
D15*
X130725000Y-80225000D03*
D16*
X130900000Y-93600000D03*
D14*
X130650266Y-90582974D03*
X124400000Y-91100000D03*
X136775000Y-85300000D03*
X131378836Y-97334687D03*
D15*
X132700000Y-82200000D03*
D14*
X128675000Y-94525000D03*
X132200000Y-89850000D03*
D15*
X130725000Y-82200000D03*
D14*
X130923811Y-96416997D03*
X135525000Y-89200000D03*
D15*
X134100000Y-77200000D03*
D14*
X138500000Y-76750000D03*
X130650000Y-91600000D03*
X131349937Y-96879001D03*
X130196492Y-90582966D03*
X124500000Y-85675000D03*
D15*
X132500000Y-77200000D03*
D14*
X134300000Y-91800000D03*
D15*
X128700000Y-82200000D03*
D14*
X132350000Y-99875000D03*
X125100000Y-86175000D03*
X130654003Y-89675000D03*
X123350000Y-83250000D03*
X132600000Y-86950000D03*
X130475000Y-95963024D03*
D15*
X135700000Y-77200000D03*
D14*
X132600000Y-92625000D03*
X130200000Y-89675000D03*
X123250000Y-99150000D03*
X130925266Y-96870998D03*
X123350000Y-82250000D03*
D15*
X129300000Y-77200000D03*
D16*
X128600000Y-89000000D03*
D14*
X125225000Y-96100000D03*
X130200000Y-91600000D03*
X124550000Y-90400000D03*
X130649937Y-91036976D03*
X130471492Y-96870990D03*
X124675000Y-86800000D03*
X130700000Y-84300000D03*
X130196040Y-91036968D03*
X131382913Y-95972199D03*
X127000000Y-91050000D03*
X123175000Y-96650000D03*
X139800000Y-81490000D03*
X140400000Y-85025000D03*
X132700000Y-84500000D03*
X134250000Y-94900000D03*
X127425000Y-99675000D03*
X129400000Y-84500000D03*
X126700000Y-100900000D03*
X125225000Y-98075000D03*
X129725000Y-95950000D03*
X123100000Y-77730000D03*
X130469409Y-96416992D03*
D15*
X128700000Y-80225000D03*
D14*
X136175000Y-83950000D03*
X127125000Y-93700000D03*
X130194409Y-90128968D03*
D15*
X130900000Y-77200000D03*
D16*
X128600000Y-88400000D03*
D14*
X124900000Y-95300000D03*
X134750000Y-89200000D03*
D15*
X134675000Y-82200000D03*
D14*
%TO.N,VCC*%
X123075000Y-80724999D03*
X129300000Y-92475000D03*
D15*
%TO.N,+BATT*%
X122975000Y-79500000D03*
X130086333Y-94454815D03*
D14*
X126575000Y-89575000D03*
D15*
X129579386Y-94183462D03*
X123725000Y-79500000D03*
D16*
%TO.N,VBUS*%
X137450000Y-97950000D03*
D14*
%TO.N,/BUCK_EN*%
X126725000Y-93275000D03*
X133150000Y-100075000D03*
X140150000Y-88500000D03*
%TO.N,/USB_SBU*%
X136075000Y-94800000D03*
X137588500Y-91663500D03*
%TO.N,/USB_D+*%
X136450000Y-84375000D03*
X133050000Y-94875000D03*
%TO.N,/USB_D-*%
X136537500Y-84825000D03*
X133050000Y-95900000D03*
%TO.N,Net-(J1-CC2)*%
X134250000Y-94300000D03*
X139900000Y-90775000D03*
X137250000Y-92750000D03*
X139900000Y-82450000D03*
%TO.N,+3.3V*%
X126450000Y-96700000D03*
X132150000Y-100850000D03*
D16*
X132050000Y-88600000D03*
D14*
X139425000Y-87200000D03*
X123075000Y-97750000D03*
X123100000Y-95725000D03*
D15*
X126600000Y-78800000D03*
D14*
X122975000Y-87200000D03*
X124525000Y-89825000D03*
X127575000Y-99125000D03*
X123150000Y-93575000D03*
X126500000Y-99450000D03*
D16*
X130550000Y-88150000D03*
D14*
X138850000Y-77225000D03*
D16*
X130550000Y-87620997D03*
D14*
X124525000Y-76275000D03*
X122675000Y-100375000D03*
%TO.N,/VBAT_ADC*%
X123450000Y-87375000D03*
X124475000Y-82750000D03*
%TO.N,/RST_N*%
X122975000Y-88725000D03*
X138700000Y-89175000D03*
X124625000Y-83700000D03*
%TO.N,/BUCK_EN_SW*%
X124425000Y-84650000D03*
X124360000Y-78520000D03*
X139790000Y-83660000D03*
%TO.N,/OR_ST*%
X131000000Y-92100000D03*
X130100000Y-84750000D03*
X136625000Y-88075000D03*
%TO.N,/CHRG_ST*%
X127700000Y-84700000D03*
X129850000Y-98875000D03*
%TO.N,/BNO_RSTn*%
X133300000Y-85225000D03*
X126450000Y-96200000D03*
%TO.N,/BNO_INTn*%
X133200000Y-86925000D03*
X127750000Y-94700000D03*
%TO.N,/BNO_SCL*%
X126375000Y-98125000D03*
X127000000Y-100375000D03*
%TO.N,/BNO_SDA*%
X124050000Y-99250000D03*
%TO.N,/BNO_MOSI*%
X125900000Y-93125000D03*
X131700000Y-86950000D03*
%TO.N,/BNO_CSn*%
X125350000Y-93125000D03*
X134775000Y-85225000D03*
%TO.N,/BNO_SCLK*%
X124800000Y-93125000D03*
X134100000Y-85225000D03*
%TO.N,/BNO_MISO*%
X123775000Y-93650000D03*
X132500000Y-85225000D03*
%TO.N,/RGB_LED1*%
X124625000Y-76750000D03*
X138850000Y-76275000D03*
%TO.N,/RGB_LED2*%
X139925000Y-84800000D03*
X140270000Y-77740000D03*
%TO.N,/RGB_LED3*%
X140050000Y-87250000D03*
X125000000Y-84100000D03*
%TO.N,/XIN32*%
X124400000Y-97700000D03*
%TO.N,/GPIO0*%
X126900000Y-84700000D03*
X138275000Y-90725000D03*
%TO.N,/SW2*%
X138720000Y-80580000D03*
X138825000Y-89650000D03*
%TD*%
D17*
%TO.N,VCC*%
X128800000Y-92475000D02*
X128575000Y-92250000D01*
D18*
X126225000Y-93296288D02*
X126225000Y-94625000D01*
X125587500Y-97675000D02*
X122450000Y-94537500D01*
X128700000Y-99275000D02*
X127100000Y-97675000D01*
X126225000Y-94625000D02*
X130225000Y-98625000D01*
X130225000Y-99025000D02*
X129975000Y-99275000D01*
X128575000Y-92250000D02*
X127888500Y-92936500D01*
X127888500Y-92936500D02*
X126584788Y-92936500D01*
X127100000Y-97675000D02*
X125587500Y-97675000D01*
X130225000Y-98625000D02*
X130225000Y-99025000D01*
D17*
X129300000Y-92475000D02*
X128800000Y-92475000D01*
D18*
X126584788Y-92936500D02*
X126225000Y-93296288D01*
X122450000Y-81349999D02*
X123075000Y-80724999D01*
X129975000Y-99275000D02*
X128700000Y-99275000D01*
X122450000Y-94537500D02*
X122450000Y-81349999D01*
D17*
%TO.N,VBUS*%
X138225000Y-97950000D02*
X137450000Y-97950000D01*
D18*
%TO.N,/BUCK_EN*%
X133150000Y-100075000D02*
X131175000Y-98100000D01*
X140150000Y-88500000D02*
X140150000Y-89225000D01*
X130325000Y-98100000D02*
X126725000Y-94500000D01*
X138800000Y-94425000D02*
X133150000Y-100075000D01*
X126725000Y-94500000D02*
X126725000Y-93275000D01*
X131175000Y-98100000D02*
X130325000Y-98100000D01*
X138800000Y-90575000D02*
X138800000Y-94425000D01*
X140150000Y-89225000D02*
X138800000Y-90575000D01*
%TO.N,/USB_SBU*%
X136675000Y-94800000D02*
X136075000Y-94800000D01*
X137588500Y-93886500D02*
X136675000Y-94800000D01*
X137588500Y-91663500D02*
X137588500Y-93886500D01*
%TO.N,/USB_D+*%
X136450000Y-84375000D02*
X136450000Y-84425000D01*
X133200000Y-94725000D02*
X133050000Y-94875000D01*
X133200000Y-87675000D02*
X133200000Y-94725000D01*
X136450000Y-84425000D02*
X133200000Y-87675000D01*
%TO.N,/USB_D-*%
X136475000Y-84825000D02*
X133475000Y-87825000D01*
X136537500Y-84825000D02*
X136475000Y-84825000D01*
X133475000Y-87825000D02*
X133475000Y-95475000D01*
X133475000Y-95475000D02*
X133050000Y-95900000D01*
%TO.N,Net-(J1-CC2)*%
X140750000Y-89925000D02*
X140750000Y-86600000D01*
X140150000Y-83778712D02*
X140150000Y-82700000D01*
X140750000Y-86600000D02*
X139500000Y-85350000D01*
X140150000Y-82700000D02*
X139900000Y-82450000D01*
X136475000Y-94300000D02*
X134250000Y-94300000D01*
X139900000Y-90775000D02*
X140750000Y-89925000D01*
X139500000Y-84428712D02*
X140150000Y-83778712D01*
X139500000Y-85350000D02*
X139500000Y-84428712D01*
X137250000Y-92750000D02*
X137250000Y-93525000D01*
X137250000Y-93525000D02*
X136475000Y-94300000D01*
%TO.N,/VBAT_ADC*%
X124475000Y-82750000D02*
X123450000Y-83775000D01*
X123450000Y-83775000D02*
X123450000Y-87375000D01*
%TO.N,/RST_N*%
X125000000Y-84650000D02*
X124000000Y-85650000D01*
X126100000Y-84050000D02*
X127217000Y-82933000D01*
X126200000Y-84050000D02*
X126100000Y-84050000D01*
X127217000Y-82933000D02*
X136858000Y-82933000D01*
X124500000Y-83825000D02*
X124500000Y-84150000D01*
X125500000Y-84650000D02*
X126100000Y-84050000D01*
X138000000Y-88475000D02*
X138700000Y-89175000D01*
X124000000Y-85650000D02*
X124000000Y-87700000D01*
X125000000Y-84650000D02*
X125500000Y-84650000D01*
X136858000Y-82933000D02*
X138000000Y-84075000D01*
X124625000Y-83700000D02*
X124500000Y-83825000D01*
X124000000Y-87700000D02*
X122975000Y-88725000D01*
X138000000Y-84075000D02*
X138000000Y-88475000D01*
X124500000Y-84150000D02*
X125000000Y-84650000D01*
%TO.N,/BUCK_EN_SW*%
X124875000Y-82550000D02*
X124875000Y-82950000D01*
X124125000Y-84350000D02*
X124425000Y-84650000D01*
X124125000Y-83700000D02*
X124125000Y-84350000D01*
X139790000Y-83660000D02*
X139300000Y-83170000D01*
X139300000Y-83170000D02*
X139300000Y-82210000D01*
X137170000Y-76660000D02*
X126220000Y-76660000D01*
X139300000Y-78790000D02*
X137170000Y-76660000D01*
X139300000Y-82210000D02*
X139300000Y-78790000D01*
X126220000Y-76660000D02*
X124360000Y-78520000D01*
X124360000Y-78520000D02*
X124360000Y-82035000D01*
X124875000Y-82950000D02*
X124125000Y-83700000D01*
X124360000Y-82035000D02*
X124875000Y-82550000D01*
%TO.N,/OR_ST*%
X131000000Y-92100000D02*
X132050000Y-93150000D01*
X136300000Y-83475000D02*
X137200000Y-84375000D01*
X137200000Y-84375000D02*
X137200000Y-87500000D01*
X136625000Y-90100000D02*
X136625000Y-88075000D01*
X132850000Y-96475000D02*
X135600000Y-96475000D01*
X137200000Y-87500000D02*
X136625000Y-88075000D01*
X138013500Y-91488500D02*
X136625000Y-90100000D01*
X132050000Y-95675000D02*
X132850000Y-96475000D01*
X138013500Y-94061500D02*
X138013500Y-91488500D01*
X132350000Y-83475000D02*
X136300000Y-83475000D01*
X135600000Y-96475000D02*
X138013500Y-94061500D01*
X131075000Y-84750000D02*
X132350000Y-83475000D01*
X132050000Y-93150000D02*
X132050000Y-95675000D01*
X130100000Y-84750000D02*
X131075000Y-84750000D01*
%TO.N,/CHRG_ST*%
X122800000Y-94350000D02*
X125675000Y-97225000D01*
X127700000Y-84700000D02*
X128250000Y-84150000D01*
X125675000Y-97225000D02*
X128200000Y-97225000D01*
X122800000Y-89600000D02*
X122800000Y-94350000D01*
X128250000Y-84150000D02*
X128250000Y-84050000D01*
X127700000Y-84700000D02*
X122800000Y-89600000D01*
X128200000Y-97225000D02*
X129850000Y-98875000D01*
%TO.N,/BNO_RSTn*%
X125900000Y-95675000D02*
X125900000Y-94950000D01*
X125900000Y-94950000D02*
X123650000Y-92700000D01*
X132850000Y-85675000D02*
X133300000Y-85225000D01*
X126425000Y-96200000D02*
X125900000Y-95675000D01*
X123650000Y-92700000D02*
X123650000Y-90000000D01*
X127975000Y-85675000D02*
X132850000Y-85675000D01*
X123650000Y-90000000D02*
X127975000Y-85675000D01*
X126450000Y-96200000D02*
X126425000Y-96200000D01*
%TO.N,/BNO_INTn*%
X131550000Y-87850000D02*
X131546288Y-87850000D01*
X132275000Y-87850000D02*
X131550000Y-87850000D01*
X128925000Y-90175000D02*
X129775000Y-90175000D01*
X129775000Y-89621288D02*
X129775000Y-90175000D01*
X129775000Y-92675000D02*
X127750000Y-94700000D01*
X133200000Y-86925000D02*
X133175000Y-86925000D01*
X131546288Y-87850000D02*
X129775000Y-89621288D01*
X129775000Y-90175000D02*
X129775000Y-92675000D01*
X133200000Y-86925000D02*
X132275000Y-87850000D01*
%TO.N,/BNO_SCL*%
X127000000Y-98750000D02*
X127000000Y-100375000D01*
X127937500Y-100032500D02*
X128280000Y-100375000D01*
X128275000Y-100370000D02*
X128280000Y-100375000D01*
X126375000Y-98125000D02*
X127000000Y-98750000D01*
X127000000Y-100375000D02*
X128280000Y-100375000D01*
%TO.N,/BNO_SDA*%
X124050000Y-99250000D02*
X124615001Y-99250000D01*
X124615001Y-99250000D02*
X125740000Y-100374999D01*
%TO.N,/BNO_MOSI*%
X125900000Y-92600000D02*
X126400000Y-92100000D01*
X125900000Y-89647460D02*
X128597460Y-86950000D01*
X128597460Y-86950000D02*
X131700000Y-86950000D01*
X126450000Y-92100000D02*
X125900000Y-91550000D01*
X126400000Y-92100000D02*
X126450000Y-92100000D01*
X125900000Y-91550000D02*
X125900000Y-89647460D01*
X125900000Y-93125000D02*
X125900000Y-92600000D01*
%TO.N,/BNO_CSn*%
X133525000Y-86475000D02*
X128425000Y-86475000D01*
X134775000Y-85225000D02*
X133525000Y-86475000D01*
X135100000Y-84900000D02*
X135100000Y-84300000D01*
X125450000Y-89450000D02*
X125450000Y-93025000D01*
X128425000Y-86475000D02*
X125450000Y-89450000D01*
X125450000Y-93025000D02*
X125350000Y-93125000D01*
X134775000Y-85225000D02*
X135100000Y-84900000D01*
%TO.N,/BNO_SCLK*%
X124800000Y-93125000D02*
X124800000Y-92550000D01*
X124450000Y-92200000D02*
X124450000Y-92050000D01*
X128175000Y-86075000D02*
X133250000Y-86075000D01*
X133250000Y-86075000D02*
X134100000Y-85225000D01*
X124800000Y-92550000D02*
X124450000Y-92200000D01*
X125000000Y-89250000D02*
X125000000Y-91500000D01*
X125000000Y-91500000D02*
X124450000Y-92050000D01*
X125000000Y-89250000D02*
X128175000Y-86075000D01*
%TO.N,/BNO_MISO*%
X123775000Y-93650000D02*
X123775000Y-94075000D01*
X123775000Y-94075000D02*
X124200000Y-94500000D01*
X123200000Y-93075000D02*
X123200000Y-89825000D01*
X123200000Y-89825000D02*
X127675000Y-85350000D01*
X127675000Y-85350000D02*
X132375000Y-85350000D01*
X123775000Y-93650000D02*
X123200000Y-93075000D01*
X132375000Y-85350000D02*
X132500000Y-85225000D01*
%TO.N,/RGB_LED1*%
X124625000Y-76750000D02*
X125100000Y-76275000D01*
X125100000Y-76275000D02*
X138850000Y-76275000D01*
%TO.N,/RGB_LED2*%
X139925000Y-84800000D02*
X140600000Y-84125000D01*
X140600000Y-78070000D02*
X140270000Y-77740000D01*
X140600000Y-84125000D02*
X140600000Y-78070000D01*
%TO.N,/RGB_LED3*%
X125000000Y-84100000D02*
X126450000Y-82650000D01*
X126450000Y-82650000D02*
X137100000Y-82650000D01*
X138400000Y-85600000D02*
X140050000Y-87250000D01*
X138400000Y-83950000D02*
X138400000Y-85600000D01*
X137100000Y-82650000D02*
X138400000Y-83950000D01*
%TO.N,/GPIO0*%
X126900000Y-84150000D02*
X126900000Y-84700000D01*
X127850000Y-83200000D02*
X126900000Y-84150000D01*
X137600000Y-84225000D02*
X136575000Y-83200000D01*
X138275000Y-90725000D02*
X137600000Y-90050000D01*
X136575000Y-83200000D02*
X127850000Y-83200000D01*
X137600000Y-90050000D02*
X137600000Y-84225000D01*
%TO.N,/SW2*%
X138781500Y-85406500D02*
X138781500Y-80641500D01*
X138781500Y-80641500D02*
X138720000Y-80580000D01*
X140388500Y-87586500D02*
X140388500Y-87013500D01*
X140388500Y-87013500D02*
X138781500Y-85406500D01*
X139200000Y-89275000D02*
X139200000Y-88775000D01*
X139200000Y-88775000D02*
X140388500Y-87586500D01*
X138825000Y-89650000D02*
X139200000Y-89275000D01*
%TD*%
%TA.AperFunction,Conductor*%
%TO.N,GND*%
G36*
X122491000Y-94842521D02*
G01*
X122507361Y-94855076D01*
X122999528Y-95347243D01*
X123022366Y-95396219D01*
X123008380Y-95448417D01*
X122987558Y-95468790D01*
X122935364Y-95503665D01*
X122910392Y-95520352D01*
X122901375Y-95526377D01*
X122840485Y-95617503D01*
X122819103Y-95724999D01*
X122819103Y-95725000D01*
X122840485Y-95832496D01*
X122901375Y-95923624D01*
X122992503Y-95984514D01*
X122992505Y-95984515D01*
X123100000Y-96005897D01*
X123207495Y-95984515D01*
X123298624Y-95923624D01*
X123356209Y-95837441D01*
X123399788Y-95805488D01*
X123453712Y-95809022D01*
X123477756Y-95825471D01*
X124615284Y-96962999D01*
X124638122Y-97011975D01*
X124624136Y-97064173D01*
X124579870Y-97095168D01*
X124540517Y-97095564D01*
X124475345Y-97079500D01*
X124475342Y-97079500D01*
X124324658Y-97079500D01*
X124324654Y-97079500D01*
X124178353Y-97115561D01*
X124178352Y-97115561D01*
X124044927Y-97185588D01*
X124044924Y-97185590D01*
X123932138Y-97285510D01*
X123846537Y-97409525D01*
X123793106Y-97550412D01*
X123774943Y-97699999D01*
X123774943Y-97700000D01*
X123793106Y-97849587D01*
X123846537Y-97990474D01*
X123859680Y-98009515D01*
X123932138Y-98114489D01*
X124044927Y-98214412D01*
X124178352Y-98284438D01*
X124324658Y-98320500D01*
X124475342Y-98320500D01*
X124621648Y-98284438D01*
X124755073Y-98214412D01*
X124867862Y-98114489D01*
X124953460Y-97990478D01*
X124956785Y-97981713D01*
X124982197Y-97914706D01*
X125006894Y-97849586D01*
X125025057Y-97700000D01*
X125007427Y-97554808D01*
X125019654Y-97502173D01*
X125062855Y-97469709D01*
X125116816Y-97472609D01*
X125141712Y-97489427D01*
X125440490Y-97788205D01*
X125449643Y-97799187D01*
X125461834Y-97816848D01*
X125494953Y-97834230D01*
X125499103Y-97836571D01*
X125531118Y-97855925D01*
X125536579Y-97857626D01*
X125542146Y-97858999D01*
X125542148Y-97859000D01*
X125579548Y-97859000D01*
X125584316Y-97859143D01*
X125621660Y-97861403D01*
X125621662Y-97861402D01*
X125627714Y-97860294D01*
X125641953Y-97859000D01*
X126073596Y-97859000D01*
X126124376Y-97877482D01*
X126151396Y-97924282D01*
X126142012Y-97977500D01*
X126139282Y-97981890D01*
X126115485Y-98017503D01*
X126094103Y-98124999D01*
X126094103Y-98125000D01*
X126115485Y-98232496D01*
X126176375Y-98323624D01*
X126267503Y-98384514D01*
X126267505Y-98384515D01*
X126375000Y-98405897D01*
X126375000Y-98405896D01*
X126377314Y-98406357D01*
X126417763Y-98427978D01*
X126792861Y-98803076D01*
X126815699Y-98852052D01*
X126816000Y-98858937D01*
X126816000Y-99182005D01*
X126797518Y-99232785D01*
X126750718Y-99259805D01*
X126697500Y-99250421D01*
X126693110Y-99247691D01*
X126607496Y-99190485D01*
X126500000Y-99169103D01*
X126392503Y-99190485D01*
X126301375Y-99251375D01*
X126240485Y-99342503D01*
X126219103Y-99449999D01*
X126219103Y-99450000D01*
X126229806Y-99503808D01*
X126221585Y-99557218D01*
X126180957Y-99592849D01*
X126126930Y-99594027D01*
X126120192Y-99591390D01*
X126010484Y-99542545D01*
X126010479Y-99542543D01*
X125938274Y-99527196D01*
X125831493Y-99504499D01*
X125648507Y-99504499D01*
X125568650Y-99521473D01*
X125469520Y-99542543D01*
X125469515Y-99542545D01*
X125310322Y-99613422D01*
X125256414Y-99617192D01*
X125222329Y-99597113D01*
X125009731Y-99384515D01*
X124762009Y-99136792D01*
X124752854Y-99125808D01*
X124752296Y-99124999D01*
X124740667Y-99108152D01*
X124740666Y-99108151D01*
X124707549Y-99090769D01*
X124703396Y-99088427D01*
X124673494Y-99070352D01*
X124671380Y-99069074D01*
X124671379Y-99069073D01*
X124671378Y-99069073D01*
X124665926Y-99067373D01*
X124660353Y-99066000D01*
X124622953Y-99066000D01*
X124618184Y-99065856D01*
X124580841Y-99063597D01*
X124580840Y-99063597D01*
X124580838Y-99063597D01*
X124574787Y-99064706D01*
X124560548Y-99066000D01*
X124294474Y-99066000D01*
X124250583Y-99052686D01*
X124248625Y-99051377D01*
X124248624Y-99051376D01*
X124157495Y-98990485D01*
X124050000Y-98969103D01*
X123942503Y-98990485D01*
X123851375Y-99051375D01*
X123790485Y-99142503D01*
X123769103Y-99249999D01*
X123769103Y-99250000D01*
X123790485Y-99357496D01*
X123851375Y-99448624D01*
X123942503Y-99509514D01*
X123942505Y-99509515D01*
X124050000Y-99530897D01*
X124157495Y-99509515D01*
X124248624Y-99448624D01*
X124248625Y-99448622D01*
X124250583Y-99447314D01*
X124294474Y-99434000D01*
X124506064Y-99434000D01*
X124556844Y-99452482D01*
X124561925Y-99457139D01*
X124964640Y-99859854D01*
X124987478Y-99908830D01*
X124977195Y-99955215D01*
X124940378Y-100018984D01*
X124940375Y-100018991D01*
X124883834Y-100193005D01*
X124883832Y-100193014D01*
X124864705Y-100374997D01*
X124864705Y-100375000D01*
X124883832Y-100556983D01*
X124883834Y-100556992D01*
X124940375Y-100731006D01*
X124940380Y-100731018D01*
X125031867Y-100889478D01*
X125031870Y-100889483D01*
X125154318Y-101025475D01*
X125154670Y-101025792D01*
X125154766Y-101025972D01*
X125157084Y-101028547D01*
X125156442Y-101029124D01*
X125180040Y-101073505D01*
X125168805Y-101126364D01*
X125126221Y-101159634D01*
X125101809Y-101163500D01*
X123838193Y-101163500D01*
X123787413Y-101145018D01*
X123760393Y-101098218D01*
X123769777Y-101045000D01*
X123783020Y-101028642D01*
X123782916Y-101028548D01*
X123784716Y-101026548D01*
X123785324Y-101025798D01*
X123785684Y-101025473D01*
X123785683Y-101025473D01*
X123785687Y-101025471D01*
X123908129Y-100889485D01*
X123999622Y-100731015D01*
X124056168Y-100556984D01*
X124075295Y-100375000D01*
X124056168Y-100193016D01*
X124056164Y-100193005D01*
X123999624Y-100018992D01*
X123999624Y-100018991D01*
X123999622Y-100018985D01*
X123908129Y-99860515D01*
X123785687Y-99724529D01*
X123785686Y-99724528D01*
X123785678Y-99724521D01*
X123637654Y-99616975D01*
X123637648Y-99616972D01*
X123470484Y-99542546D01*
X123470479Y-99542544D01*
X123398274Y-99527197D01*
X123291493Y-99504500D01*
X123108507Y-99504500D01*
X123028655Y-99521473D01*
X122929520Y-99542544D01*
X122929515Y-99542546D01*
X122762357Y-99616970D01*
X122762347Y-99616975D01*
X122614316Y-99724525D01*
X122614314Y-99724528D01*
X122614313Y-99724529D01*
X122535126Y-99812476D01*
X122510209Y-99840149D01*
X122462495Y-99865519D01*
X122409636Y-99854284D01*
X122376367Y-99811700D01*
X122372500Y-99787288D01*
X122372500Y-97750000D01*
X122794103Y-97750000D01*
X122815485Y-97857496D01*
X122876375Y-97948624D01*
X122967503Y-98009514D01*
X122967505Y-98009515D01*
X123075000Y-98030897D01*
X123182495Y-98009515D01*
X123273624Y-97948624D01*
X123334515Y-97857495D01*
X123355897Y-97750000D01*
X123334515Y-97642505D01*
X123334514Y-97642503D01*
X123273624Y-97551375D01*
X123182496Y-97490485D01*
X123075000Y-97469103D01*
X122967503Y-97490485D01*
X122876375Y-97551375D01*
X122815485Y-97642503D01*
X122794103Y-97749999D01*
X122794103Y-97750000D01*
X122372500Y-97750000D01*
X122372500Y-94910937D01*
X122390982Y-94860157D01*
X122437782Y-94833137D01*
X122491000Y-94842521D01*
G37*
%TD.AperFunction*%
%TA.AperFunction,Conductor*%
G36*
X126724707Y-100467670D02*
G01*
X126743958Y-100487693D01*
X126801375Y-100573624D01*
X126892503Y-100634514D01*
X126892505Y-100634515D01*
X127000000Y-100655897D01*
X127107495Y-100634515D01*
X127198624Y-100573624D01*
X127198625Y-100573622D01*
X127200583Y-100572314D01*
X127244474Y-100559000D01*
X127367091Y-100559000D01*
X127417871Y-100577482D01*
X127442222Y-100613584D01*
X127455971Y-100655897D01*
X127480378Y-100731016D01*
X127480380Y-100731019D01*
X127571867Y-100889479D01*
X127571870Y-100889484D01*
X127694315Y-101025473D01*
X127694676Y-101025798D01*
X127694774Y-101025982D01*
X127697084Y-101028548D01*
X127696444Y-101029124D01*
X127720040Y-101073516D01*
X127708797Y-101126372D01*
X127666210Y-101159637D01*
X127641807Y-101163500D01*
X126378191Y-101163500D01*
X126327411Y-101145018D01*
X126300391Y-101098218D01*
X126309775Y-101045000D01*
X126323021Y-101028642D01*
X126322916Y-101028547D01*
X126324734Y-101026527D01*
X126325330Y-101025792D01*
X126325681Y-101025475D01*
X126325682Y-101025473D01*
X126325687Y-101025470D01*
X126448129Y-100889484D01*
X126539622Y-100731014D01*
X126596168Y-100556983D01*
X126599705Y-100523324D01*
X126623394Y-100474756D01*
X126672761Y-100452775D01*
X126724707Y-100467670D01*
G37*
%TD.AperFunction*%
%TA.AperFunction,Conductor*%
G36*
X140539088Y-88563495D02*
G01*
X140565080Y-88610872D01*
X140566000Y-88622891D01*
X140566000Y-89816061D01*
X140547518Y-89866841D01*
X140542861Y-89871922D01*
X139942761Y-90472022D01*
X139902312Y-90493643D01*
X139792503Y-90515485D01*
X139701375Y-90576375D01*
X139640485Y-90667503D01*
X139619103Y-90774999D01*
X139619103Y-90775000D01*
X139640485Y-90882496D01*
X139701375Y-90973624D01*
X139792503Y-91034514D01*
X139792505Y-91034515D01*
X139900000Y-91055897D01*
X140007495Y-91034515D01*
X140098624Y-90973624D01*
X140159515Y-90882495D01*
X140180897Y-90775000D01*
X140180896Y-90774998D01*
X140181357Y-90772684D01*
X140202976Y-90732237D01*
X140838639Y-90096575D01*
X140887615Y-90073737D01*
X140939813Y-90087723D01*
X140970808Y-90131989D01*
X140973500Y-90152436D01*
X140973500Y-101084500D01*
X140955018Y-101135280D01*
X140908218Y-101162300D01*
X140894500Y-101163500D01*
X132419665Y-101163500D01*
X132368885Y-101145018D01*
X132341865Y-101098218D01*
X132351249Y-101045000D01*
X132353979Y-101040610D01*
X132372654Y-101012659D01*
X132409515Y-100957495D01*
X132430897Y-100850000D01*
X132409515Y-100742505D01*
X132409514Y-100742503D01*
X132348624Y-100651375D01*
X132257496Y-100590485D01*
X132150000Y-100569103D01*
X132042503Y-100590485D01*
X131951375Y-100651375D01*
X131890485Y-100742503D01*
X131869103Y-100849999D01*
X131869103Y-100850000D01*
X131890485Y-100957496D01*
X131946021Y-101040610D01*
X131958866Y-101093100D01*
X131934965Y-101141566D01*
X131885502Y-101163331D01*
X131880335Y-101163500D01*
X128918193Y-101163500D01*
X128867413Y-101145018D01*
X128840393Y-101098218D01*
X128849777Y-101045000D01*
X128863020Y-101028642D01*
X128862916Y-101028548D01*
X128864716Y-101026548D01*
X128865324Y-101025798D01*
X128865684Y-101025473D01*
X128865683Y-101025473D01*
X128865687Y-101025471D01*
X128988129Y-100889485D01*
X129079622Y-100731015D01*
X129136168Y-100556984D01*
X129155295Y-100375000D01*
X129136168Y-100193016D01*
X129136164Y-100193005D01*
X129079624Y-100018992D01*
X129079624Y-100018991D01*
X129079622Y-100018985D01*
X128988129Y-99860515D01*
X128865687Y-99724529D01*
X128865686Y-99724528D01*
X128865678Y-99724521D01*
X128717654Y-99616975D01*
X128717644Y-99616970D01*
X128708183Y-99612757D01*
X128669312Y-99575217D01*
X128663667Y-99521473D01*
X128693887Y-99476674D01*
X128726085Y-99462882D01*
X128734159Y-99461402D01*
X128734160Y-99461403D01*
X128734160Y-99461402D01*
X128740219Y-99460293D01*
X128754453Y-99459000D01*
X129951101Y-99459000D01*
X129965340Y-99460293D01*
X129986442Y-99464161D01*
X130022170Y-99453026D01*
X130026709Y-99451761D01*
X130063068Y-99442800D01*
X130063072Y-99442796D01*
X130068141Y-99440135D01*
X130073033Y-99437177D01*
X130073039Y-99437176D01*
X130099494Y-99410719D01*
X130102953Y-99407464D01*
X130118957Y-99393286D01*
X130130961Y-99382652D01*
X130130961Y-99382649D01*
X130134458Y-99377585D01*
X130143608Y-99366605D01*
X130338208Y-99172005D01*
X130349188Y-99162855D01*
X130366848Y-99150666D01*
X130384239Y-99117528D01*
X130386568Y-99113399D01*
X130405926Y-99081379D01*
X130405926Y-99081377D01*
X130407626Y-99075922D01*
X130409000Y-99070351D01*
X130409000Y-99032943D01*
X130409144Y-99028174D01*
X130409789Y-99017505D01*
X130411402Y-98990841D01*
X130411400Y-98990837D01*
X130410293Y-98984789D01*
X130409000Y-98970552D01*
X130409000Y-98648897D01*
X130410294Y-98634656D01*
X130414161Y-98613557D01*
X130403064Y-98577948D01*
X130403033Y-98577848D01*
X130401752Y-98573250D01*
X130392801Y-98536934D01*
X130390143Y-98531870D01*
X130387176Y-98526961D01*
X130360717Y-98500502D01*
X130357462Y-98497044D01*
X130332651Y-98469038D01*
X130327581Y-98465538D01*
X130316601Y-98456386D01*
X130280227Y-98420012D01*
X130257389Y-98371036D01*
X130271375Y-98318838D01*
X130315641Y-98287843D01*
X130340854Y-98285295D01*
X130359160Y-98286403D01*
X130359162Y-98286401D01*
X130359163Y-98286402D01*
X130365214Y-98285294D01*
X130379453Y-98284000D01*
X131066063Y-98284000D01*
X131116843Y-98302482D01*
X131121924Y-98307139D01*
X132847021Y-100032237D01*
X132868642Y-100072685D01*
X132890485Y-100182496D01*
X132951375Y-100273624D01*
X133042503Y-100334514D01*
X133042505Y-100334515D01*
X133150000Y-100355897D01*
X133257495Y-100334515D01*
X133348624Y-100273624D01*
X133409515Y-100182495D01*
X133430897Y-100075000D01*
X133430896Y-100074998D01*
X133431357Y-100072684D01*
X133452976Y-100032237D01*
X133753584Y-99731629D01*
X133802559Y-99708792D01*
X133846156Y-99717540D01*
X133865610Y-99727750D01*
X133878353Y-99734439D01*
X133986444Y-99761081D01*
X134024658Y-99770500D01*
X134175342Y-99770500D01*
X134321648Y-99734438D01*
X134455073Y-99664412D01*
X134567862Y-99564489D01*
X134653460Y-99440478D01*
X134653591Y-99440135D01*
X134687218Y-99351467D01*
X134706894Y-99299586D01*
X134725057Y-99150000D01*
X134722022Y-99125000D01*
X134706894Y-99000413D01*
X134697711Y-98976199D01*
X135800796Y-98976199D01*
X135816418Y-99051376D01*
X135830186Y-99117635D01*
X135896643Y-99245890D01*
X135896646Y-99245895D01*
X135896648Y-99245897D01*
X135995242Y-99351467D01*
X135995245Y-99351470D01*
X136102757Y-99416848D01*
X136118672Y-99426526D01*
X136257772Y-99465500D01*
X136257775Y-99465500D01*
X136365952Y-99465500D01*
X136395757Y-99461403D01*
X136473111Y-99450771D01*
X136605609Y-99393219D01*
X136717665Y-99302054D01*
X136800971Y-99184037D01*
X136849346Y-99047921D01*
X136859204Y-98903801D01*
X136829814Y-98762366D01*
X136763354Y-98634105D01*
X136744163Y-98613556D01*
X136664757Y-98528532D01*
X136664754Y-98528529D01*
X136541329Y-98453474D01*
X136506553Y-98443730D01*
X136402228Y-98414500D01*
X136294051Y-98414500D01*
X136294048Y-98414500D01*
X136213679Y-98425546D01*
X136186889Y-98429229D01*
X136186887Y-98429229D01*
X136054391Y-98486780D01*
X136054391Y-98486781D01*
X135942336Y-98577943D01*
X135942332Y-98577948D01*
X135859032Y-98695957D01*
X135859029Y-98695963D01*
X135810654Y-98832079D01*
X135800796Y-98976199D01*
X134697711Y-98976199D01*
X134689237Y-98953857D01*
X134663935Y-98887144D01*
X134663210Y-98833114D01*
X134681939Y-98803274D01*
X135504196Y-97981017D01*
X137075659Y-97981017D01*
X137106014Y-98100887D01*
X137173642Y-98204400D01*
X137173644Y-98204401D01*
X137173645Y-98204403D01*
X137271223Y-98280351D01*
X137388174Y-98320500D01*
X137685313Y-98320500D01*
X137736093Y-98338982D01*
X137750325Y-98354618D01*
X137757138Y-98364489D01*
X137757140Y-98364491D01*
X137757141Y-98364492D01*
X137800004Y-98402465D01*
X137869927Y-98464412D01*
X138003352Y-98534438D01*
X138149658Y-98570500D01*
X138300342Y-98570500D01*
X138446648Y-98534438D01*
X138580073Y-98464412D01*
X138692862Y-98364489D01*
X138778460Y-98240478D01*
X138781488Y-98232496D01*
X138801842Y-98178823D01*
X138831894Y-98099586D01*
X138850057Y-97950000D01*
X138831894Y-97800414D01*
X138810708Y-97744552D01*
X138778462Y-97659525D01*
X138766713Y-97642503D01*
X138692862Y-97535511D01*
X138692857Y-97535507D01*
X138580075Y-97435590D01*
X138580076Y-97435590D01*
X138580073Y-97435588D01*
X138484325Y-97385336D01*
X138446647Y-97365561D01*
X138300345Y-97329500D01*
X138300342Y-97329500D01*
X138149658Y-97329500D01*
X138149654Y-97329500D01*
X138003353Y-97365561D01*
X138003352Y-97365561D01*
X137869927Y-97435588D01*
X137869924Y-97435590D01*
X137757141Y-97535507D01*
X137757138Y-97535510D01*
X137757138Y-97535511D01*
X137750327Y-97545378D01*
X137706272Y-97576669D01*
X137685313Y-97579500D01*
X137419299Y-97579500D01*
X137354110Y-97590377D01*
X137328033Y-97594729D01*
X137328031Y-97594730D01*
X137219289Y-97653579D01*
X137219287Y-97653581D01*
X137135541Y-97744552D01*
X137135539Y-97744556D01*
X137085870Y-97857790D01*
X137075659Y-97981017D01*
X135504196Y-97981017D01*
X138913208Y-94572005D01*
X138924188Y-94562855D01*
X138929027Y-94559515D01*
X138941848Y-94550666D01*
X138957437Y-94520961D01*
X138959226Y-94517553D01*
X138961563Y-94513407D01*
X138980926Y-94481379D01*
X138980926Y-94481376D01*
X138982628Y-94475911D01*
X138984000Y-94470351D01*
X138984000Y-94432952D01*
X138984144Y-94428182D01*
X138984721Y-94418643D01*
X138986403Y-94390840D01*
X138986401Y-94390836D01*
X138985293Y-94384783D01*
X138984000Y-94370546D01*
X138984000Y-90683936D01*
X139002482Y-90633156D01*
X139007128Y-90628086D01*
X140263208Y-89372005D01*
X140274188Y-89362855D01*
X140278962Y-89359560D01*
X140291848Y-89350666D01*
X140309239Y-89317528D01*
X140311568Y-89313399D01*
X140330926Y-89281379D01*
X140330926Y-89281377D01*
X140332626Y-89275922D01*
X140334000Y-89270351D01*
X140334000Y-89232943D01*
X140334144Y-89228174D01*
X140334605Y-89220551D01*
X140336402Y-89190841D01*
X140336400Y-89190837D01*
X140335293Y-89184789D01*
X140334000Y-89170552D01*
X140334000Y-88744474D01*
X140347314Y-88700583D01*
X140348622Y-88698625D01*
X140348624Y-88698624D01*
X140409515Y-88607495D01*
X140409518Y-88607480D01*
X140409529Y-88607461D01*
X140412492Y-88600308D01*
X140413593Y-88600764D01*
X140437551Y-88561281D01*
X140488723Y-88543910D01*
X140539088Y-88563495D01*
G37*
%TD.AperFunction*%
%TA.AperFunction,Conductor*%
G36*
X128001563Y-98840657D02*
G01*
X128018094Y-98853310D01*
X128552992Y-99388208D01*
X128562143Y-99399187D01*
X128567298Y-99406655D01*
X128580937Y-99458944D01*
X128557773Y-99507767D01*
X128508646Y-99530278D01*
X128485861Y-99528809D01*
X128417939Y-99514372D01*
X128371493Y-99504500D01*
X128188507Y-99504500D01*
X128108655Y-99521473D01*
X128009520Y-99542544D01*
X128009515Y-99542546D01*
X127842357Y-99616970D01*
X127842347Y-99616975D01*
X127694316Y-99724525D01*
X127694313Y-99724529D01*
X127571870Y-99860515D01*
X127571867Y-99860520D01*
X127480380Y-100018980D01*
X127480378Y-100018983D01*
X127467682Y-100058056D01*
X127442222Y-100136414D01*
X127408955Y-100178996D01*
X127367091Y-100191000D01*
X127263000Y-100191000D01*
X127212220Y-100172518D01*
X127185200Y-100125718D01*
X127184000Y-100112000D01*
X127184000Y-99296142D01*
X127202482Y-99245362D01*
X127249282Y-99218342D01*
X127302500Y-99227726D01*
X127328686Y-99252252D01*
X127376375Y-99323624D01*
X127467503Y-99384514D01*
X127467505Y-99384515D01*
X127575000Y-99405897D01*
X127682495Y-99384515D01*
X127773624Y-99323624D01*
X127834515Y-99232495D01*
X127855897Y-99125000D01*
X127834515Y-99017505D01*
X127834512Y-99017501D01*
X127831538Y-99010320D01*
X127834748Y-99008989D01*
X127825330Y-98970480D01*
X127843216Y-98928460D01*
X127844957Y-98926375D01*
X127901591Y-98858539D01*
X127948322Y-98831405D01*
X128001563Y-98840657D01*
G37*
%TD.AperFunction*%
%TA.AperFunction,Conductor*%
G36*
X133258739Y-87213056D02*
G01*
X133294370Y-87253684D01*
X133295550Y-87307711D01*
X133276603Y-87338179D01*
X133086789Y-87527993D01*
X133075806Y-87537147D01*
X133058152Y-87549333D01*
X133040770Y-87582451D01*
X133038427Y-87586604D01*
X133019073Y-87618621D01*
X133017369Y-87624089D01*
X133016000Y-87629646D01*
X133016000Y-87667046D01*
X133015856Y-87671816D01*
X133013597Y-87709160D01*
X133014706Y-87715212D01*
X133016000Y-87729452D01*
X133016000Y-94536032D01*
X132997518Y-94586812D01*
X132952413Y-94613514D01*
X132942504Y-94615485D01*
X132942503Y-94615485D01*
X132851375Y-94676375D01*
X132790485Y-94767503D01*
X132769103Y-94874999D01*
X132769103Y-94875000D01*
X132790485Y-94982496D01*
X132851375Y-95073624D01*
X132942503Y-95134514D01*
X132942505Y-95134515D01*
X133050000Y-95155897D01*
X133157495Y-95134515D01*
X133168109Y-95127422D01*
X133220598Y-95114577D01*
X133269065Y-95138477D01*
X133290831Y-95187938D01*
X133291000Y-95193108D01*
X133291000Y-95366060D01*
X133272518Y-95416840D01*
X133267861Y-95421922D01*
X133092759Y-95597023D01*
X133052310Y-95618643D01*
X132942503Y-95640485D01*
X132851375Y-95701375D01*
X132790485Y-95792503D01*
X132769103Y-95899999D01*
X132769103Y-95900000D01*
X132776371Y-95936539D01*
X132768150Y-95989949D01*
X132727522Y-96025580D01*
X132673495Y-96026759D01*
X132643028Y-96007812D01*
X132257139Y-95621923D01*
X132234301Y-95572947D01*
X132234000Y-95566062D01*
X132234000Y-93173897D01*
X132235294Y-93159656D01*
X132239161Y-93138557D01*
X132228033Y-93102848D01*
X132226752Y-93098250D01*
X132217801Y-93061934D01*
X132215143Y-93056870D01*
X132212176Y-93051961D01*
X132199300Y-93039085D01*
X132185717Y-93025502D01*
X132182462Y-93022044D01*
X132157652Y-92994039D01*
X132152582Y-92990539D01*
X132141604Y-92981388D01*
X131302977Y-92142761D01*
X131281356Y-92102312D01*
X131280896Y-92100002D01*
X131280897Y-92100000D01*
X131259515Y-91992505D01*
X131248091Y-91975408D01*
X131198624Y-91901375D01*
X131107496Y-91840485D01*
X131000000Y-91819103D01*
X130892503Y-91840485D01*
X130801375Y-91901375D01*
X130740485Y-91992503D01*
X130719103Y-92099999D01*
X130719103Y-92100000D01*
X130740485Y-92207496D01*
X130801375Y-92298624D01*
X130892503Y-92359514D01*
X130892505Y-92359515D01*
X131000000Y-92380897D01*
X131000000Y-92380896D01*
X131002314Y-92381357D01*
X131042763Y-92402978D01*
X131842861Y-93203076D01*
X131865699Y-93252052D01*
X131866000Y-93258937D01*
X131866000Y-95651100D01*
X131864706Y-95665340D01*
X131860838Y-95686442D01*
X131860839Y-95686444D01*
X131871964Y-95722148D01*
X131873245Y-95726741D01*
X131882199Y-95763068D01*
X131884851Y-95768120D01*
X131887823Y-95773037D01*
X131887824Y-95773039D01*
X131887825Y-95773040D01*
X131887827Y-95773043D01*
X131914264Y-95799480D01*
X131917534Y-95802953D01*
X131942347Y-95830961D01*
X131947410Y-95834455D01*
X131958396Y-95843611D01*
X132702992Y-96588208D01*
X132712146Y-96599191D01*
X132724334Y-96616848D01*
X132757447Y-96634227D01*
X132761603Y-96636571D01*
X132784828Y-96650611D01*
X132793621Y-96655926D01*
X132793622Y-96655926D01*
X132799077Y-96657625D01*
X132804645Y-96658998D01*
X132804648Y-96659000D01*
X132842048Y-96659000D01*
X132846816Y-96659143D01*
X132884160Y-96661403D01*
X132884162Y-96661402D01*
X132890214Y-96660294D01*
X132904453Y-96659000D01*
X135576101Y-96659000D01*
X135590340Y-96660293D01*
X135611442Y-96664161D01*
X135621020Y-96663582D01*
X135621268Y-96667690D01*
X135656834Y-96669338D01*
X135689569Y-96694790D01*
X135897382Y-96971384D01*
X135913108Y-97023085D01*
X135891922Y-97072798D01*
X135890083Y-97074699D01*
X134413624Y-98551158D01*
X134364648Y-98573996D01*
X134326465Y-98566333D01*
X134326116Y-98567256D01*
X134321646Y-98565561D01*
X134175345Y-98529500D01*
X134175342Y-98529500D01*
X134024658Y-98529500D01*
X134024654Y-98529500D01*
X133878353Y-98565561D01*
X133878352Y-98565561D01*
X133744927Y-98635588D01*
X133744924Y-98635590D01*
X133632138Y-98735510D01*
X133546537Y-98859525D01*
X133493106Y-99000412D01*
X133474943Y-99149999D01*
X133474943Y-99150000D01*
X133493106Y-99299587D01*
X133522313Y-99376599D01*
X133523039Y-99430633D01*
X133504308Y-99460474D01*
X133205860Y-99758922D01*
X133156884Y-99781760D01*
X133104686Y-99767774D01*
X133094138Y-99758922D01*
X131322008Y-97986792D01*
X131312853Y-97975808D01*
X131300665Y-97958151D01*
X131267548Y-97940769D01*
X131263395Y-97938427D01*
X131231377Y-97919073D01*
X131225925Y-97917373D01*
X131220352Y-97916000D01*
X131182952Y-97916000D01*
X131178183Y-97915856D01*
X131140840Y-97913597D01*
X131140839Y-97913597D01*
X131140837Y-97913597D01*
X131134786Y-97914706D01*
X131120547Y-97916000D01*
X130433937Y-97916000D01*
X130383157Y-97897518D01*
X130378076Y-97892861D01*
X127579772Y-95094556D01*
X127556934Y-95045580D01*
X127570920Y-94993382D01*
X127615186Y-94962387D01*
X127651042Y-94961213D01*
X127750000Y-94980897D01*
X127857495Y-94959515D01*
X127948624Y-94898624D01*
X128009515Y-94807495D01*
X128030897Y-94700000D01*
X128030896Y-94699998D01*
X128031357Y-94697684D01*
X128052976Y-94657237D01*
X128526749Y-94183464D01*
X129224517Y-94183464D01*
X129241884Y-94293117D01*
X129241885Y-94293120D01*
X129241886Y-94293123D01*
X129268400Y-94345159D01*
X129292292Y-94392051D01*
X129370796Y-94470555D01*
X129370798Y-94470556D01*
X129370799Y-94470557D01*
X129469725Y-94520962D01*
X129509566Y-94527271D01*
X129511635Y-94527807D01*
X129511644Y-94527758D01*
X129522037Y-94529593D01*
X129526377Y-94529935D01*
X129579384Y-94538331D01*
X129579386Y-94538331D01*
X129579388Y-94538331D01*
X129632395Y-94529935D01*
X129636735Y-94529593D01*
X129640305Y-94528962D01*
X129640307Y-94528962D01*
X129640308Y-94528961D01*
X129647129Y-94527756D01*
X129647138Y-94527808D01*
X129649211Y-94527271D01*
X129667162Y-94524428D01*
X129720209Y-94534739D01*
X129749910Y-94566590D01*
X129799239Y-94663404D01*
X129877743Y-94741908D01*
X129877745Y-94741909D01*
X129877746Y-94741910D01*
X129976672Y-94792315D01*
X130016513Y-94798624D01*
X130018582Y-94799160D01*
X130018591Y-94799111D01*
X130028984Y-94800946D01*
X130033324Y-94801288D01*
X130086331Y-94809684D01*
X130086333Y-94809684D01*
X130086335Y-94809684D01*
X130139342Y-94801288D01*
X130143682Y-94800946D01*
X130147252Y-94800315D01*
X130147254Y-94800315D01*
X130147255Y-94800314D01*
X130154076Y-94799109D01*
X130154085Y-94799161D01*
X130156154Y-94798624D01*
X130195994Y-94792315D01*
X130294920Y-94741910D01*
X130373428Y-94663402D01*
X130423833Y-94564476D01*
X130426020Y-94550666D01*
X130441202Y-94454817D01*
X130441202Y-94454812D01*
X130423834Y-94345159D01*
X130423833Y-94345158D01*
X130423833Y-94345154D01*
X130373428Y-94246228D01*
X130373427Y-94246227D01*
X130373426Y-94246225D01*
X130294922Y-94167721D01*
X130263932Y-94151931D01*
X130195994Y-94117315D01*
X130195990Y-94117314D01*
X130195987Y-94117313D01*
X130156137Y-94111002D01*
X130154071Y-94110467D01*
X130154063Y-94110516D01*
X130143673Y-94108683D01*
X130139342Y-94108342D01*
X130086335Y-94099946D01*
X130086331Y-94099946D01*
X130033324Y-94108342D01*
X130029003Y-94108682D01*
X130025414Y-94109315D01*
X130025412Y-94109315D01*
X130025410Y-94109315D01*
X130018609Y-94110515D01*
X130018600Y-94110468D01*
X130016541Y-94111000D01*
X130003530Y-94113060D01*
X129998554Y-94113849D01*
X129945508Y-94103536D01*
X129915808Y-94071687D01*
X129866481Y-93974875D01*
X129866480Y-93974873D01*
X129787975Y-93896368D01*
X129779508Y-93892054D01*
X129689047Y-93845962D01*
X129689043Y-93845961D01*
X129689040Y-93845960D01*
X129649190Y-93839649D01*
X129647124Y-93839114D01*
X129647116Y-93839163D01*
X129636726Y-93837330D01*
X129632395Y-93836989D01*
X129579388Y-93828593D01*
X129579384Y-93828593D01*
X129526377Y-93836989D01*
X129522056Y-93837329D01*
X129518467Y-93837962D01*
X129518465Y-93837962D01*
X129518463Y-93837962D01*
X129511662Y-93839162D01*
X129511653Y-93839114D01*
X129509592Y-93839647D01*
X129469731Y-93845960D01*
X129469726Y-93845961D01*
X129469725Y-93845962D01*
X129445324Y-93858395D01*
X129370796Y-93896368D01*
X129292292Y-93974872D01*
X129291243Y-93976931D01*
X129241886Y-94073801D01*
X129241886Y-94073802D01*
X129241884Y-94073806D01*
X129224517Y-94183459D01*
X129224517Y-94183464D01*
X128526749Y-94183464D01*
X129888208Y-92822005D01*
X129899188Y-92812855D01*
X129906616Y-92807728D01*
X129916848Y-92800666D01*
X129934239Y-92767528D01*
X129936568Y-92763399D01*
X129955926Y-92731379D01*
X129955926Y-92731377D01*
X129957626Y-92725922D01*
X129959000Y-92720351D01*
X129959000Y-92682943D01*
X129959144Y-92678174D01*
X129959428Y-92673474D01*
X129961402Y-92640841D01*
X129961400Y-92640837D01*
X129960293Y-92634789D01*
X129959000Y-92620552D01*
X129959000Y-90223196D01*
X129962098Y-90206285D01*
X129963122Y-90197848D01*
X129963125Y-90197843D01*
X129959576Y-90168612D01*
X129959000Y-90159091D01*
X129959000Y-89730225D01*
X129977482Y-89679445D01*
X129982139Y-89674364D01*
X131056503Y-88600000D01*
X131744864Y-88600000D01*
X131763265Y-88704362D01*
X131802210Y-88771816D01*
X131816252Y-88796138D01*
X131897432Y-88864256D01*
X131997014Y-88900500D01*
X132102986Y-88900500D01*
X132202568Y-88864256D01*
X132283748Y-88796138D01*
X132336734Y-88704363D01*
X132355136Y-88600000D01*
X132336734Y-88495637D01*
X132283748Y-88403862D01*
X132202568Y-88335744D01*
X132202566Y-88335743D01*
X132102986Y-88299500D01*
X131997014Y-88299500D01*
X131897433Y-88335743D01*
X131816251Y-88403862D01*
X131763265Y-88495637D01*
X131744864Y-88600000D01*
X131056503Y-88600000D01*
X131599364Y-88057139D01*
X131648340Y-88034301D01*
X131655225Y-88034000D01*
X132251101Y-88034000D01*
X132265340Y-88035293D01*
X132286442Y-88039161D01*
X132322170Y-88028026D01*
X132326709Y-88026761D01*
X132363068Y-88017800D01*
X132363072Y-88017796D01*
X132368141Y-88015135D01*
X132373033Y-88012177D01*
X132373039Y-88012176D01*
X132399494Y-87985719D01*
X132402953Y-87982464D01*
X132430961Y-87957652D01*
X132430961Y-87957649D01*
X132434458Y-87952585D01*
X132443608Y-87941605D01*
X132936633Y-87448580D01*
X132945535Y-87444429D01*
X132946744Y-87440038D01*
X132955285Y-87429928D01*
X133157237Y-87227976D01*
X133197683Y-87206357D01*
X133199997Y-87205896D01*
X133200000Y-87205897D01*
X133205331Y-87204836D01*
X133258739Y-87213056D01*
G37*
%TD.AperFunction*%
%TA.AperFunction,Conductor*%
G36*
X128141843Y-97427482D02*
G01*
X128146924Y-97432139D01*
X129547021Y-98832236D01*
X129568642Y-98872685D01*
X129592003Y-98990126D01*
X129590562Y-98990412D01*
X129592539Y-99035762D01*
X129559638Y-99078632D01*
X129517197Y-99091000D01*
X128808938Y-99091000D01*
X128758158Y-99072518D01*
X128753077Y-99067861D01*
X127247008Y-97561792D01*
X127237853Y-97550808D01*
X127227294Y-97535511D01*
X127225666Y-97533152D01*
X127225665Y-97533151D01*
X127225476Y-97532877D01*
X127211841Y-97480587D01*
X127235007Y-97431765D01*
X127284135Y-97409256D01*
X127290492Y-97409000D01*
X128091063Y-97409000D01*
X128141843Y-97427482D01*
G37*
%TD.AperFunction*%
%TA.AperFunction,Conductor*%
G36*
X124924583Y-94234798D02*
G01*
X125644323Y-94954538D01*
X125667161Y-95003514D01*
X125653175Y-95055712D01*
X125625175Y-95080350D01*
X125519927Y-95135588D01*
X125519924Y-95135590D01*
X125407138Y-95235510D01*
X125321537Y-95359525D01*
X125268106Y-95500412D01*
X125249943Y-95649999D01*
X125249943Y-95650000D01*
X125268106Y-95799587D01*
X125321537Y-95940474D01*
X125366695Y-96005897D01*
X125407138Y-96064489D01*
X125519927Y-96164412D01*
X125653352Y-96234438D01*
X125799658Y-96270500D01*
X125950342Y-96270500D01*
X126091985Y-96235587D01*
X126145712Y-96241379D01*
X126183147Y-96280352D01*
X126188373Y-96296878D01*
X126190485Y-96307495D01*
X126190485Y-96307496D01*
X126255699Y-96405094D01*
X126252877Y-96406979D01*
X126269728Y-96443115D01*
X126255742Y-96495313D01*
X126254196Y-96497154D01*
X126190485Y-96592503D01*
X126169103Y-96699999D01*
X126169103Y-96700000D01*
X126190485Y-96807496D01*
X126251377Y-96898626D01*
X126256877Y-96904126D01*
X126255012Y-96905990D01*
X126279872Y-96939890D01*
X126276340Y-96993813D01*
X126238973Y-97032851D01*
X126204029Y-97041000D01*
X125783937Y-97041000D01*
X125733157Y-97022518D01*
X125728076Y-97017861D01*
X123934950Y-95224734D01*
X123912112Y-95175758D01*
X123926098Y-95123560D01*
X123970364Y-95092565D01*
X124009717Y-95092169D01*
X124124658Y-95120500D01*
X124275342Y-95120500D01*
X124421648Y-95084438D01*
X124555073Y-95014412D01*
X124667862Y-94914489D01*
X124753460Y-94790478D01*
X124757070Y-94780961D01*
X124787774Y-94700000D01*
X124806894Y-94649586D01*
X124825057Y-94500000D01*
X124822087Y-94475535D01*
X124806894Y-94350413D01*
X124794856Y-94318674D01*
X124794130Y-94264640D01*
X124828306Y-94222780D01*
X124881393Y-94212682D01*
X124924583Y-94234798D01*
G37*
%TD.AperFunction*%
%TA.AperFunction,Conductor*%
G36*
X136863179Y-84298394D02*
G01*
X136992861Y-84428076D01*
X137015699Y-84477052D01*
X137016000Y-84483937D01*
X137016000Y-87391062D01*
X136997518Y-87441842D01*
X136992871Y-87446912D01*
X136821163Y-87618621D01*
X136667762Y-87772022D01*
X136627314Y-87793642D01*
X136517503Y-87815485D01*
X136426375Y-87876375D01*
X136365485Y-87967503D01*
X136347656Y-88057139D01*
X136344103Y-88075000D01*
X136365485Y-88182495D01*
X136426376Y-88273624D01*
X136426377Y-88273625D01*
X136427686Y-88275583D01*
X136441000Y-88319474D01*
X136441000Y-90076100D01*
X136439706Y-90090340D01*
X136435838Y-90111442D01*
X136435839Y-90111444D01*
X136446964Y-90147148D01*
X136448245Y-90151741D01*
X136457199Y-90188068D01*
X136459851Y-90193120D01*
X136462823Y-90198037D01*
X136462824Y-90198039D01*
X136462825Y-90198040D01*
X136462827Y-90198043D01*
X136489263Y-90224479D01*
X136492533Y-90227952D01*
X136517346Y-90255960D01*
X136522413Y-90259457D01*
X136533397Y-90268612D01*
X137533108Y-91268323D01*
X137555946Y-91317299D01*
X137541960Y-91369497D01*
X137497694Y-91400492D01*
X137492663Y-91401665D01*
X137481005Y-91403984D01*
X137481004Y-91403984D01*
X137389875Y-91464875D01*
X137328985Y-91556003D01*
X137311982Y-91641483D01*
X137307603Y-91663500D01*
X137328985Y-91770995D01*
X137389876Y-91862124D01*
X137389877Y-91862125D01*
X137391186Y-91864083D01*
X137404500Y-91907974D01*
X137404500Y-92403573D01*
X137386018Y-92454353D01*
X137339218Y-92481373D01*
X137310088Y-92481055D01*
X137250001Y-92469103D01*
X137250000Y-92469103D01*
X137142503Y-92490485D01*
X137051375Y-92551375D01*
X136990485Y-92642503D01*
X136969395Y-92748531D01*
X136969103Y-92750000D01*
X136990485Y-92857495D01*
X137051376Y-92948624D01*
X137051377Y-92948625D01*
X137052686Y-92950583D01*
X137066000Y-92994474D01*
X137066000Y-93416062D01*
X137047518Y-93466842D01*
X137042861Y-93471923D01*
X136421923Y-94092861D01*
X136372947Y-94115699D01*
X136366062Y-94116000D01*
X134494474Y-94116000D01*
X134450583Y-94102686D01*
X134448625Y-94101377D01*
X134448624Y-94101376D01*
X134357495Y-94040485D01*
X134250000Y-94019103D01*
X134142503Y-94040485D01*
X134051375Y-94101375D01*
X133990485Y-94192503D01*
X133969103Y-94299999D01*
X133969103Y-94300000D01*
X133990485Y-94407496D01*
X134051375Y-94498624D01*
X134142503Y-94559514D01*
X134142505Y-94559515D01*
X134250000Y-94580897D01*
X134357495Y-94559515D01*
X134448624Y-94498624D01*
X134448625Y-94498622D01*
X134450583Y-94497314D01*
X134494474Y-94484000D01*
X135807005Y-94484000D01*
X135857785Y-94502482D01*
X135884805Y-94549282D01*
X135875421Y-94602500D01*
X135872691Y-94606890D01*
X135815485Y-94692503D01*
X135794103Y-94799999D01*
X135794103Y-94800000D01*
X135815485Y-94907496D01*
X135876375Y-94998624D01*
X135967503Y-95059514D01*
X135967505Y-95059515D01*
X136075000Y-95080897D01*
X136182495Y-95059515D01*
X136273624Y-94998624D01*
X136273625Y-94998622D01*
X136275583Y-94997314D01*
X136319474Y-94984000D01*
X136640062Y-94984000D01*
X136690842Y-95002482D01*
X136717862Y-95049282D01*
X136708478Y-95102500D01*
X136695923Y-95118861D01*
X135546923Y-96267861D01*
X135497947Y-96290699D01*
X135491062Y-96291000D01*
X133221142Y-96291000D01*
X133170362Y-96272518D01*
X133143342Y-96225718D01*
X133152726Y-96172500D01*
X133177252Y-96146314D01*
X133248624Y-96098624D01*
X133309514Y-96007496D01*
X133309513Y-96007496D01*
X133309515Y-96007495D01*
X133330897Y-95900000D01*
X133330896Y-95899998D01*
X133331357Y-95897685D01*
X133352976Y-95857237D01*
X133588213Y-95622001D01*
X133599186Y-95612856D01*
X133616848Y-95600666D01*
X133634240Y-95567525D01*
X133636552Y-95563427D01*
X133655926Y-95531379D01*
X133655926Y-95531375D01*
X133657627Y-95525917D01*
X133659000Y-95520351D01*
X133659000Y-95482952D01*
X133659144Y-95478182D01*
X133659912Y-95465485D01*
X133661403Y-95440840D01*
X133661401Y-95440836D01*
X133660293Y-95434783D01*
X133659000Y-95420546D01*
X133659000Y-93196199D01*
X135800796Y-93196199D01*
X135808451Y-93233036D01*
X135830186Y-93337635D01*
X135896643Y-93465890D01*
X135896646Y-93465895D01*
X135902276Y-93471923D01*
X135995242Y-93571467D01*
X135995245Y-93571470D01*
X136118670Y-93646525D01*
X136118672Y-93646526D01*
X136257772Y-93685500D01*
X136257775Y-93685500D01*
X136365952Y-93685500D01*
X136392139Y-93681900D01*
X136473111Y-93670771D01*
X136605609Y-93613219D01*
X136717665Y-93522054D01*
X136800971Y-93404037D01*
X136849346Y-93267921D01*
X136859204Y-93123801D01*
X136829814Y-92982366D01*
X136763354Y-92854105D01*
X136739766Y-92828848D01*
X136664757Y-92748532D01*
X136664754Y-92748529D01*
X136541329Y-92673474D01*
X136498799Y-92661558D01*
X136402228Y-92634500D01*
X136294051Y-92634500D01*
X136294048Y-92634500D01*
X136213679Y-92645546D01*
X136186889Y-92649229D01*
X136186887Y-92649229D01*
X136054391Y-92706780D01*
X136054391Y-92706781D01*
X135942336Y-92797943D01*
X135942332Y-92797948D01*
X135859032Y-92915957D01*
X135859029Y-92915963D01*
X135813472Y-93044152D01*
X135810654Y-93052080D01*
X135802313Y-93174026D01*
X135800796Y-93196199D01*
X133659000Y-93196199D01*
X133659000Y-87933937D01*
X133677482Y-87883157D01*
X133682139Y-87878076D01*
X135058254Y-86501961D01*
X136438261Y-85121953D01*
X136487236Y-85099116D01*
X136509525Y-85100332D01*
X136537500Y-85105897D01*
X136644995Y-85084515D01*
X136736124Y-85023624D01*
X136797015Y-84932495D01*
X136818397Y-84825000D01*
X136816192Y-84813917D01*
X136807008Y-84767745D01*
X136797015Y-84717505D01*
X136785318Y-84700000D01*
X136736124Y-84626376D01*
X136735780Y-84626146D01*
X136716948Y-84613563D01*
X136684995Y-84569985D01*
X136688529Y-84516062D01*
X136695150Y-84503992D01*
X136709515Y-84482495D01*
X136730897Y-84375000D01*
X136729836Y-84369667D01*
X136738056Y-84316258D01*
X136778684Y-84280627D01*
X136832710Y-84279447D01*
X136863179Y-84298394D01*
G37*
%TD.AperFunction*%
%TA.AperFunction,Conductor*%
G36*
X128337551Y-92826145D02*
G01*
X128353352Y-92834438D01*
X128353354Y-92834438D01*
X128353355Y-92834439D01*
X128450320Y-92858339D01*
X128499658Y-92870500D01*
X128650343Y-92870500D01*
X128650343Y-92870499D01*
X128732798Y-92850175D01*
X128748434Y-92847948D01*
X128753535Y-92847737D01*
X128753538Y-92847738D01*
X128802237Y-92845723D01*
X128806029Y-92845567D01*
X128809292Y-92845500D01*
X129153562Y-92845500D01*
X129204342Y-92863982D01*
X129231362Y-92910782D01*
X129221978Y-92964000D01*
X129209423Y-92980361D01*
X127792760Y-94397022D01*
X127752311Y-94418643D01*
X127642503Y-94440485D01*
X127551375Y-94501375D01*
X127490485Y-94592503D01*
X127469103Y-94699999D01*
X127469103Y-94700000D01*
X127488786Y-94798954D01*
X127480565Y-94852364D01*
X127439937Y-94887995D01*
X127385910Y-94889173D01*
X127355443Y-94870227D01*
X126932139Y-94446923D01*
X126909301Y-94397947D01*
X126909000Y-94391062D01*
X126909000Y-93519474D01*
X126922314Y-93475583D01*
X126923622Y-93473625D01*
X126923624Y-93473624D01*
X126984515Y-93382495D01*
X127005897Y-93275000D01*
X127001332Y-93252052D01*
X126993945Y-93214912D01*
X127002166Y-93161502D01*
X127042795Y-93125871D01*
X127071427Y-93120500D01*
X127864601Y-93120500D01*
X127878840Y-93121793D01*
X127899942Y-93125661D01*
X127935670Y-93114526D01*
X127940209Y-93113261D01*
X127976568Y-93104300D01*
X127976572Y-93104296D01*
X127981641Y-93101635D01*
X127986533Y-93098677D01*
X127986539Y-93098676D01*
X128012994Y-93072219D01*
X128016453Y-93068964D01*
X128044461Y-93044152D01*
X128044461Y-93044149D01*
X128047958Y-93039085D01*
X128057108Y-93028105D01*
X128244979Y-92840234D01*
X128293954Y-92817397D01*
X128337551Y-92826145D01*
G37*
%TD.AperFunction*%
%TA.AperFunction,Conductor*%
G36*
X132949376Y-86677482D02*
G01*
X132976396Y-86724282D01*
X132967012Y-86777500D01*
X132964282Y-86781890D01*
X132940485Y-86817503D01*
X132918643Y-86927312D01*
X132897022Y-86967761D01*
X132221923Y-87642861D01*
X132172947Y-87665699D01*
X132166062Y-87666000D01*
X131570188Y-87666000D01*
X131555949Y-87664706D01*
X131553682Y-87664290D01*
X131534845Y-87660838D01*
X131534842Y-87660839D01*
X131499136Y-87671965D01*
X131494542Y-87673246D01*
X131458218Y-87682199D01*
X131453147Y-87684861D01*
X131448249Y-87687821D01*
X131421798Y-87714273D01*
X131418325Y-87717542D01*
X131390325Y-87742348D01*
X131386830Y-87747412D01*
X131377679Y-87758391D01*
X130982071Y-88153999D01*
X130933095Y-88176837D01*
X130880897Y-88162851D01*
X130849902Y-88118585D01*
X130848410Y-88111856D01*
X130836734Y-88045637D01*
X130832995Y-88039161D01*
X130783748Y-87953862D01*
X130781740Y-87952177D01*
X130774397Y-87946015D01*
X130747378Y-87899215D01*
X130756763Y-87845997D01*
X130774396Y-87824981D01*
X130783748Y-87817135D01*
X130836734Y-87725360D01*
X130855136Y-87620997D01*
X130836734Y-87516634D01*
X130783748Y-87424859D01*
X130702568Y-87356741D01*
X130702566Y-87356740D01*
X130602986Y-87320497D01*
X130497014Y-87320497D01*
X130397433Y-87356740D01*
X130316251Y-87424859D01*
X130263265Y-87516634D01*
X130244864Y-87620997D01*
X130263265Y-87725359D01*
X130316252Y-87817135D01*
X130325602Y-87824981D01*
X130352621Y-87871780D01*
X130343237Y-87924999D01*
X130325604Y-87946013D01*
X130316253Y-87953860D01*
X130263265Y-88045637D01*
X130244864Y-88150000D01*
X130263265Y-88254362D01*
X130300858Y-88319474D01*
X130316252Y-88346138D01*
X130397432Y-88414256D01*
X130497014Y-88450500D01*
X130497015Y-88450500D01*
X130503819Y-88451700D01*
X130503476Y-88453640D01*
X130545629Y-88468982D01*
X130572649Y-88515782D01*
X130563265Y-88569000D01*
X130550710Y-88585361D01*
X129661789Y-89474281D01*
X129650808Y-89483434D01*
X129633151Y-89495622D01*
X129615769Y-89528740D01*
X129613427Y-89532892D01*
X129594073Y-89564909D01*
X129592369Y-89570377D01*
X129591000Y-89575934D01*
X129591000Y-89613334D01*
X129590856Y-89618104D01*
X129588597Y-89655448D01*
X129589706Y-89661500D01*
X129591000Y-89675740D01*
X129591000Y-89794044D01*
X129572518Y-89844824D01*
X129525718Y-89871844D01*
X129472500Y-89862460D01*
X129446984Y-89838921D01*
X129392861Y-89760510D01*
X129321741Y-89697503D01*
X129280073Y-89660588D01*
X129181238Y-89608716D01*
X129146647Y-89590561D01*
X129000345Y-89554500D01*
X129000342Y-89554500D01*
X128849658Y-89554500D01*
X128849654Y-89554500D01*
X128703353Y-89590561D01*
X128703352Y-89590561D01*
X128569927Y-89660588D01*
X128569924Y-89660590D01*
X128457138Y-89760510D01*
X128371537Y-89884525D01*
X128318106Y-90025412D01*
X128299943Y-90174999D01*
X128299943Y-90175000D01*
X128318106Y-90324587D01*
X128371537Y-90465474D01*
X128448086Y-90576375D01*
X128457138Y-90589489D01*
X128569927Y-90689412D01*
X128703352Y-90759438D01*
X128849658Y-90795500D01*
X129000342Y-90795500D01*
X129146648Y-90759438D01*
X129280073Y-90689412D01*
X129392862Y-90589489D01*
X129446985Y-90511076D01*
X129491041Y-90479786D01*
X129544905Y-90484134D01*
X129583372Y-90522088D01*
X129591000Y-90555955D01*
X129591000Y-92072801D01*
X129572518Y-92123581D01*
X129525718Y-92150601D01*
X129485870Y-92144149D01*
X129484969Y-92146775D01*
X129478777Y-92144649D01*
X129361826Y-92104500D01*
X129237973Y-92104500D01*
X129187193Y-92086018D01*
X129164107Y-92053514D01*
X129128461Y-91959525D01*
X129128460Y-91959522D01*
X129042862Y-91835511D01*
X128930073Y-91735588D01*
X128834658Y-91685511D01*
X128796647Y-91665561D01*
X128650345Y-91629500D01*
X128650342Y-91629500D01*
X128499658Y-91629500D01*
X128499654Y-91629500D01*
X128353353Y-91665561D01*
X128353352Y-91665561D01*
X128219927Y-91735588D01*
X128219924Y-91735590D01*
X128107138Y-91835510D01*
X128021537Y-91959525D01*
X127968106Y-92100412D01*
X127949943Y-92249999D01*
X127949943Y-92250000D01*
X127968106Y-92399587D01*
X128004187Y-92494724D01*
X128004913Y-92548758D01*
X127986183Y-92578599D01*
X127835423Y-92729361D01*
X127786447Y-92752199D01*
X127779561Y-92752500D01*
X126857510Y-92752500D01*
X126806730Y-92734018D01*
X126779710Y-92687218D01*
X126789094Y-92634000D01*
X126805123Y-92614368D01*
X126845497Y-92578599D01*
X126917862Y-92514489D01*
X127003460Y-92390478D01*
X127006920Y-92381357D01*
X127038296Y-92298624D01*
X127056894Y-92249586D01*
X127075057Y-92100000D01*
X127056894Y-91950414D01*
X127045202Y-91919586D01*
X127003462Y-91809525D01*
X126940710Y-91718612D01*
X126917862Y-91685511D01*
X126805073Y-91585588D01*
X126709805Y-91535588D01*
X126671647Y-91515561D01*
X126525345Y-91479500D01*
X126525342Y-91479500D01*
X126374658Y-91479500D01*
X126374654Y-91479500D01*
X126228355Y-91515560D01*
X126212550Y-91523855D01*
X126158997Y-91531086D01*
X126119977Y-91509761D01*
X126107136Y-91496920D01*
X126084300Y-91447943D01*
X126084000Y-91441061D01*
X126084000Y-89756397D01*
X126102482Y-89705617D01*
X126107139Y-89700536D01*
X126179402Y-89628273D01*
X126228378Y-89605435D01*
X126280576Y-89619421D01*
X126311571Y-89663687D01*
X126312745Y-89668720D01*
X126315485Y-89682496D01*
X126376375Y-89773624D01*
X126467503Y-89834514D01*
X126467505Y-89834515D01*
X126575000Y-89855897D01*
X126682495Y-89834515D01*
X126773624Y-89773624D01*
X126834515Y-89682495D01*
X126855897Y-89575000D01*
X126854977Y-89570377D01*
X126844744Y-89518929D01*
X126834515Y-89467505D01*
X126823738Y-89451376D01*
X126773624Y-89376375D01*
X126682496Y-89315485D01*
X126668720Y-89312745D01*
X126622521Y-89284711D01*
X126605151Y-89233539D01*
X126624737Y-89183174D01*
X126628255Y-89179418D01*
X128650536Y-87157139D01*
X128699512Y-87134301D01*
X128706397Y-87134000D01*
X131455526Y-87134000D01*
X131499417Y-87147314D01*
X131501374Y-87148622D01*
X131501376Y-87148624D01*
X131592505Y-87209515D01*
X131700000Y-87230897D01*
X131807495Y-87209515D01*
X131898624Y-87148624D01*
X131959515Y-87057495D01*
X131980897Y-86950000D01*
X131959515Y-86842505D01*
X131919012Y-86781889D01*
X131906168Y-86729400D01*
X131930069Y-86680934D01*
X131979531Y-86659169D01*
X131984699Y-86659000D01*
X132898596Y-86659000D01*
X132949376Y-86677482D01*
G37*
%TD.AperFunction*%
%TA.AperFunction,Conductor*%
G36*
X124214405Y-89788130D02*
G01*
X124245401Y-89832396D01*
X124246575Y-89837430D01*
X124265485Y-89932496D01*
X124326375Y-90023624D01*
X124417503Y-90084514D01*
X124417505Y-90084515D01*
X124525000Y-90105897D01*
X124632495Y-90084515D01*
X124693110Y-90044012D01*
X124745600Y-90031168D01*
X124794066Y-90055069D01*
X124815831Y-90104531D01*
X124816000Y-90109699D01*
X124816000Y-91391062D01*
X124797518Y-91441842D01*
X124792869Y-91446914D01*
X124780018Y-91459766D01*
X124731041Y-91482602D01*
X124687446Y-91473853D01*
X124671647Y-91465561D01*
X124525345Y-91429500D01*
X124525342Y-91429500D01*
X124374658Y-91429500D01*
X124374654Y-91429500D01*
X124228353Y-91465561D01*
X124228352Y-91465561D01*
X124094927Y-91535588D01*
X124094924Y-91535590D01*
X123982138Y-91635510D01*
X123978016Y-91641483D01*
X123933958Y-91672775D01*
X123880094Y-91668427D01*
X123841627Y-91630472D01*
X123834000Y-91596606D01*
X123834000Y-90108937D01*
X123852482Y-90058157D01*
X123857126Y-90053088D01*
X124113234Y-89796980D01*
X124162208Y-89774144D01*
X124214405Y-89788130D01*
G37*
%TD.AperFunction*%
%TA.AperFunction,Conductor*%
G36*
X126612804Y-84511887D02*
G01*
X126641071Y-84557944D01*
X126641150Y-84589159D01*
X126619103Y-84699999D01*
X126619103Y-84700000D01*
X126640485Y-84807496D01*
X126701375Y-84898624D01*
X126792503Y-84959514D01*
X126792505Y-84959515D01*
X126900000Y-84980897D01*
X126967747Y-84967421D01*
X127021156Y-84975641D01*
X127056786Y-85016270D01*
X127057966Y-85070296D01*
X127039019Y-85100764D01*
X124315551Y-87824231D01*
X124266575Y-87847069D01*
X124214377Y-87833083D01*
X124183382Y-87788817D01*
X124182988Y-87749456D01*
X124184000Y-87745352D01*
X124184000Y-87707952D01*
X124184144Y-87703182D01*
X124184170Y-87702747D01*
X124186403Y-87665840D01*
X124186401Y-87665836D01*
X124185293Y-87659783D01*
X124184000Y-87645546D01*
X124184000Y-85758937D01*
X124202482Y-85708157D01*
X124207139Y-85703076D01*
X125053076Y-84857139D01*
X125102052Y-84834301D01*
X125108937Y-84834000D01*
X125476101Y-84834000D01*
X125490340Y-84835293D01*
X125511442Y-84839161D01*
X125547170Y-84828026D01*
X125551709Y-84826761D01*
X125588068Y-84817800D01*
X125588072Y-84817796D01*
X125593141Y-84815135D01*
X125598033Y-84812177D01*
X125598039Y-84812176D01*
X125624494Y-84785719D01*
X125627953Y-84782464D01*
X125641459Y-84770499D01*
X125655961Y-84757652D01*
X125655961Y-84757649D01*
X125659458Y-84752585D01*
X125668608Y-84741605D01*
X125769979Y-84640234D01*
X125818954Y-84617397D01*
X125862551Y-84626145D01*
X125878352Y-84634438D01*
X125878354Y-84634438D01*
X125878355Y-84634439D01*
X126001512Y-84664795D01*
X126024658Y-84670500D01*
X126175342Y-84670500D01*
X126321648Y-84634438D01*
X126455073Y-84564412D01*
X126511282Y-84514614D01*
X126561546Y-84494775D01*
X126612804Y-84511887D01*
G37*
%TD.AperFunction*%
%TA.AperFunction,Conductor*%
G36*
X136241843Y-83677482D02*
G01*
X136246924Y-83682139D01*
X136526605Y-83961820D01*
X136549443Y-84010796D01*
X136535457Y-84062994D01*
X136491191Y-84093989D01*
X136455335Y-84095164D01*
X136450000Y-84094103D01*
X136342503Y-84115485D01*
X136251375Y-84176375D01*
X136190485Y-84267503D01*
X136169337Y-84373825D01*
X136169103Y-84375000D01*
X136170621Y-84382632D01*
X136172592Y-84392543D01*
X136164369Y-84445953D01*
X136150970Y-84463813D01*
X135102747Y-85512035D01*
X135075361Y-85524804D01*
X135069884Y-85543600D01*
X135062035Y-85552748D01*
X133613179Y-87001603D01*
X133564203Y-87024441D01*
X133512005Y-87010455D01*
X133481010Y-86966189D01*
X133479837Y-86930328D01*
X133480897Y-86925000D01*
X133459515Y-86817505D01*
X133435759Y-86781953D01*
X133422915Y-86729463D01*
X133446816Y-86680997D01*
X133496279Y-86659232D01*
X133515683Y-86660356D01*
X133536442Y-86664161D01*
X133572170Y-86653026D01*
X133576709Y-86651761D01*
X133613068Y-86642800D01*
X133613072Y-86642796D01*
X133618141Y-86640135D01*
X133623036Y-86637176D01*
X133623039Y-86637176D01*
X133649510Y-86610703D01*
X133652933Y-86607480D01*
X133680961Y-86582652D01*
X133680963Y-86582645D01*
X133684456Y-86577587D01*
X133693606Y-86566608D01*
X134732238Y-85527976D01*
X134772685Y-85506357D01*
X134774998Y-85505896D01*
X134775000Y-85505897D01*
X134882495Y-85484515D01*
X134962285Y-85431200D01*
X134974820Y-85428133D01*
X134975288Y-85422787D01*
X134981196Y-85412291D01*
X135034515Y-85332495D01*
X135055897Y-85225000D01*
X135055896Y-85224998D01*
X135056357Y-85222684D01*
X135077976Y-85182237D01*
X135213208Y-85047005D01*
X135224188Y-85037855D01*
X135241848Y-85025666D01*
X135259239Y-84992528D01*
X135261568Y-84988399D01*
X135280926Y-84956379D01*
X135280926Y-84956377D01*
X135282626Y-84950922D01*
X135286298Y-84936033D01*
X135289506Y-84936824D01*
X135302482Y-84901174D01*
X135326285Y-84882003D01*
X135455073Y-84814412D01*
X135567862Y-84714489D01*
X135653460Y-84590478D01*
X135653961Y-84589159D01*
X135685513Y-84505961D01*
X135706894Y-84449586D01*
X135725057Y-84300000D01*
X135706894Y-84150414D01*
X135677832Y-84073784D01*
X135653462Y-84009525D01*
X135625601Y-83969161D01*
X135567862Y-83885511D01*
X135468102Y-83797131D01*
X135442350Y-83749624D01*
X135453159Y-83696677D01*
X135495473Y-83663066D01*
X135520490Y-83659000D01*
X136191063Y-83659000D01*
X136241843Y-83677482D01*
G37*
%TD.AperFunction*%
%TA.AperFunction,Conductor*%
G36*
X140945280Y-75910982D02*
G01*
X140972300Y-75957782D01*
X140973500Y-75971500D01*
X140973500Y-86372562D01*
X140955018Y-86423342D01*
X140908218Y-86450362D01*
X140855000Y-86440978D01*
X140838639Y-86428423D01*
X139707139Y-85296923D01*
X139684301Y-85247947D01*
X139684000Y-85241062D01*
X139684000Y-85118108D01*
X139702482Y-85067328D01*
X139749282Y-85040308D01*
X139802500Y-85049692D01*
X139806880Y-85052415D01*
X139817505Y-85059515D01*
X139925000Y-85080897D01*
X140032495Y-85059515D01*
X140123624Y-84998624D01*
X140184515Y-84907495D01*
X140205897Y-84800000D01*
X140205896Y-84799998D01*
X140206357Y-84797684D01*
X140227976Y-84757237D01*
X140713208Y-84272005D01*
X140724188Y-84262855D01*
X140741848Y-84250666D01*
X140759239Y-84217528D01*
X140761568Y-84213399D01*
X140780926Y-84181379D01*
X140780926Y-84181377D01*
X140782626Y-84175922D01*
X140784000Y-84170351D01*
X140784000Y-84132942D01*
X140784144Y-84128173D01*
X140785177Y-84111093D01*
X140786402Y-84090840D01*
X140786400Y-84090836D01*
X140785293Y-84084788D01*
X140784000Y-84070551D01*
X140784000Y-78093897D01*
X140785294Y-78079656D01*
X140789161Y-78058557D01*
X140778033Y-78022848D01*
X140776752Y-78018250D01*
X140767801Y-77981934D01*
X140765143Y-77976870D01*
X140762176Y-77971961D01*
X140735717Y-77945502D01*
X140732462Y-77942044D01*
X140707652Y-77914038D01*
X140702585Y-77910541D01*
X140691601Y-77901386D01*
X140572978Y-77782763D01*
X140551357Y-77742314D01*
X140550897Y-77739999D01*
X140529515Y-77632505D01*
X140529514Y-77632503D01*
X140468624Y-77541375D01*
X140377496Y-77480485D01*
X140270000Y-77459103D01*
X140162503Y-77480485D01*
X140071375Y-77541375D01*
X140010485Y-77632503D01*
X139989103Y-77739999D01*
X139989103Y-77740000D01*
X140010485Y-77847496D01*
X140071375Y-77938624D01*
X140162503Y-77999514D01*
X140162505Y-77999515D01*
X140270000Y-78020897D01*
X140270000Y-78020896D01*
X140272314Y-78021357D01*
X140312763Y-78042978D01*
X140392861Y-78123076D01*
X140415699Y-78172052D01*
X140416000Y-78178937D01*
X140416000Y-82514471D01*
X140397518Y-82565251D01*
X140350718Y-82592271D01*
X140297500Y-82582887D01*
X140277867Y-82566857D01*
X140257652Y-82544038D01*
X140252585Y-82540541D01*
X140241601Y-82531386D01*
X140202978Y-82492763D01*
X140181357Y-82452314D01*
X140180897Y-82450000D01*
X140159515Y-82342505D01*
X140149227Y-82327108D01*
X140098624Y-82251375D01*
X140007496Y-82190485D01*
X139900000Y-82169103D01*
X139792503Y-82190485D01*
X139701375Y-82251375D01*
X139640485Y-82342503D01*
X139640482Y-82342521D01*
X139640469Y-82342541D01*
X139637508Y-82349692D01*
X139636407Y-82349236D01*
X139612447Y-82388720D01*
X139561275Y-82406089D01*
X139510911Y-82386503D01*
X139484919Y-82339125D01*
X139484000Y-82327108D01*
X139484000Y-78813898D01*
X139485294Y-78799657D01*
X139489161Y-78778558D01*
X139478029Y-78742836D01*
X139476759Y-78738282D01*
X139467800Y-78701932D01*
X139467798Y-78701930D01*
X139465143Y-78696870D01*
X139462176Y-78691961D01*
X139460554Y-78690339D01*
X139435717Y-78665502D01*
X139432462Y-78662044D01*
X139407652Y-78634039D01*
X139402582Y-78630539D01*
X139391604Y-78621388D01*
X137995216Y-77225000D01*
X138569103Y-77225000D01*
X138590485Y-77332496D01*
X138651375Y-77423624D01*
X138742503Y-77484514D01*
X138742505Y-77484515D01*
X138850000Y-77505897D01*
X138957495Y-77484515D01*
X139048624Y-77423624D01*
X139109515Y-77332495D01*
X139130897Y-77225000D01*
X139109515Y-77117505D01*
X139109514Y-77117503D01*
X139048624Y-77026375D01*
X138957496Y-76965485D01*
X138850000Y-76944103D01*
X138742503Y-76965485D01*
X138651375Y-77026375D01*
X138590485Y-77117503D01*
X138569103Y-77224999D01*
X138569103Y-77225000D01*
X137995216Y-77225000D01*
X137364077Y-76593861D01*
X137341239Y-76544885D01*
X137355225Y-76492687D01*
X137399491Y-76461692D01*
X137419938Y-76459000D01*
X138605526Y-76459000D01*
X138649417Y-76472314D01*
X138651374Y-76473622D01*
X138651376Y-76473624D01*
X138742505Y-76534515D01*
X138850000Y-76555897D01*
X138957495Y-76534515D01*
X139048624Y-76473624D01*
X139109515Y-76382495D01*
X139130897Y-76275000D01*
X139109515Y-76167505D01*
X139109514Y-76167503D01*
X139048624Y-76076375D01*
X138989973Y-76037186D01*
X138958019Y-75993606D01*
X138961554Y-75939683D01*
X138998923Y-75900647D01*
X139033863Y-75892500D01*
X140894500Y-75892500D01*
X140945280Y-75910982D01*
G37*
%TD.AperFunction*%
%TA.AperFunction,Conductor*%
G36*
X134730290Y-83677482D02*
G01*
X134757310Y-83724282D01*
X134747926Y-83777500D01*
X134731898Y-83797130D01*
X134711489Y-83815212D01*
X134632138Y-83885510D01*
X134546537Y-84009525D01*
X134493106Y-84150412D01*
X134474943Y-84299999D01*
X134474943Y-84300000D01*
X134493106Y-84449587D01*
X134546537Y-84590474D01*
X134632138Y-84714489D01*
X134748504Y-84817581D01*
X134747459Y-84818759D01*
X134775133Y-84857711D01*
X134770791Y-84911576D01*
X134732842Y-84950047D01*
X134714379Y-84956161D01*
X134667503Y-84965485D01*
X134576375Y-85026375D01*
X134515485Y-85117503D01*
X134514982Y-85120035D01*
X134513264Y-85122864D01*
X134512508Y-85124692D01*
X134512226Y-85124575D01*
X134486948Y-85166233D01*
X134435776Y-85183603D01*
X134385411Y-85164017D01*
X134362665Y-85124620D01*
X134362492Y-85124692D01*
X134361946Y-85123376D01*
X134360018Y-85120035D01*
X134359515Y-85117505D01*
X134348329Y-85100764D01*
X134298624Y-85026375D01*
X134207496Y-84965485D01*
X134100000Y-84944103D01*
X133992503Y-84965485D01*
X133901375Y-85026375D01*
X133840485Y-85117503D01*
X133818643Y-85227312D01*
X133797023Y-85267759D01*
X133738683Y-85326100D01*
X133700764Y-85364019D01*
X133651788Y-85386856D01*
X133599590Y-85372870D01*
X133568595Y-85328603D01*
X133567421Y-85292748D01*
X133580897Y-85225000D01*
X133580436Y-85222684D01*
X133573502Y-85187823D01*
X133559515Y-85117505D01*
X133548329Y-85100764D01*
X133498624Y-85026375D01*
X133407496Y-84965485D01*
X133300000Y-84944103D01*
X133192503Y-84965485D01*
X133101375Y-85026375D01*
X133040485Y-85117503D01*
X133018642Y-85227314D01*
X132997021Y-85267762D01*
X132900764Y-85364019D01*
X132851788Y-85386857D01*
X132799590Y-85372871D01*
X132768595Y-85328605D01*
X132767421Y-85292748D01*
X132780897Y-85225000D01*
X132780436Y-85222684D01*
X132773502Y-85187823D01*
X132759515Y-85117505D01*
X132748329Y-85100764D01*
X132698624Y-85026375D01*
X132607496Y-84965485D01*
X132500000Y-84944103D01*
X132392503Y-84965485D01*
X132301375Y-85026375D01*
X132236162Y-85123974D01*
X132235080Y-85123251D01*
X132204096Y-85157071D01*
X132167612Y-85166000D01*
X130222891Y-85166000D01*
X130172111Y-85147518D01*
X130145091Y-85100718D01*
X130154475Y-85047500D01*
X130195871Y-85012764D01*
X130207480Y-85009518D01*
X130207481Y-85009517D01*
X130207495Y-85009515D01*
X130298624Y-84948624D01*
X130298625Y-84948622D01*
X130300583Y-84947314D01*
X130344474Y-84934000D01*
X131051101Y-84934000D01*
X131065340Y-84935293D01*
X131086442Y-84939161D01*
X131122170Y-84928026D01*
X131126709Y-84926761D01*
X131163068Y-84917800D01*
X131163072Y-84917796D01*
X131168141Y-84915135D01*
X131173033Y-84912177D01*
X131173039Y-84912176D01*
X131199494Y-84885719D01*
X131202953Y-84882464D01*
X131230961Y-84857652D01*
X131230961Y-84857649D01*
X131234458Y-84852585D01*
X131243608Y-84841605D01*
X131353584Y-84731629D01*
X131402559Y-84708792D01*
X131446156Y-84717540D01*
X131465610Y-84727750D01*
X131478353Y-84734439D01*
X131613481Y-84767745D01*
X131624658Y-84770500D01*
X131775342Y-84770500D01*
X131921648Y-84734438D01*
X132055073Y-84664412D01*
X132167862Y-84564489D01*
X132253460Y-84440478D01*
X132257195Y-84430632D01*
X132283435Y-84361441D01*
X132306894Y-84299586D01*
X132325057Y-84150000D01*
X132306894Y-84000414D01*
X132269026Y-83900566D01*
X132263937Y-83887147D01*
X132263211Y-83833113D01*
X132281939Y-83803274D01*
X132403077Y-83682138D01*
X132452053Y-83659301D01*
X132458938Y-83659000D01*
X134679510Y-83659000D01*
X134730290Y-83677482D01*
G37*
%TD.AperFunction*%
%TA.AperFunction,Conductor*%
G36*
X131615132Y-83402482D02*
G01*
X131642152Y-83449282D01*
X131632768Y-83502500D01*
X131591372Y-83537236D01*
X131583258Y-83539704D01*
X131478353Y-83565561D01*
X131478352Y-83565561D01*
X131344927Y-83635588D01*
X131344924Y-83635590D01*
X131232138Y-83735510D01*
X131146537Y-83859525D01*
X131093106Y-84000412D01*
X131074943Y-84149999D01*
X131074943Y-84150000D01*
X131093106Y-84299587D01*
X131122313Y-84376598D01*
X131123039Y-84430632D01*
X131104309Y-84460473D01*
X131021923Y-84542861D01*
X130972947Y-84565699D01*
X130966061Y-84566000D01*
X130344474Y-84566000D01*
X130300583Y-84552686D01*
X130298625Y-84551377D01*
X130298624Y-84551376D01*
X130207495Y-84490485D01*
X130100000Y-84469103D01*
X129992503Y-84490485D01*
X129901375Y-84551375D01*
X129840485Y-84642503D01*
X129819103Y-84749999D01*
X129819103Y-84750000D01*
X129840485Y-84857496D01*
X129901375Y-84948624D01*
X129992503Y-85009514D01*
X129992505Y-85009515D01*
X129992519Y-85009517D01*
X129992520Y-85009518D01*
X129992538Y-85009529D01*
X129999692Y-85012492D01*
X129999235Y-85013593D01*
X130038719Y-85037551D01*
X130056090Y-85088723D01*
X130036505Y-85139088D01*
X129989128Y-85165080D01*
X129977109Y-85166000D01*
X127698899Y-85166000D01*
X127684662Y-85164706D01*
X127672854Y-85162542D01*
X127626239Y-85135208D01*
X127608100Y-85084304D01*
X127626924Y-85033650D01*
X127631224Y-85028989D01*
X127657237Y-85002976D01*
X127697684Y-84981357D01*
X127699998Y-84980896D01*
X127700000Y-84980897D01*
X127807495Y-84959515D01*
X127898624Y-84898624D01*
X127959515Y-84807495D01*
X127979420Y-84707425D01*
X128007453Y-84661228D01*
X128058624Y-84643858D01*
X128075807Y-84646135D01*
X128091484Y-84649999D01*
X128174658Y-84670500D01*
X128325342Y-84670500D01*
X128471648Y-84634438D01*
X128605073Y-84564412D01*
X128717862Y-84464489D01*
X128803460Y-84340478D01*
X128803513Y-84340340D01*
X128834385Y-84258937D01*
X128856894Y-84199586D01*
X128875057Y-84050000D01*
X128856894Y-83900414D01*
X128832120Y-83835091D01*
X128803462Y-83759525D01*
X128789441Y-83739212D01*
X128717862Y-83635511D01*
X128605073Y-83535588D01*
X128600045Y-83532949D01*
X128563673Y-83492986D01*
X128561498Y-83438991D01*
X128594539Y-83396230D01*
X128636761Y-83384000D01*
X131564352Y-83384000D01*
X131615132Y-83402482D01*
G37*
%TD.AperFunction*%
%TA.AperFunction,Conductor*%
G36*
X122491000Y-79628933D02*
G01*
X122525736Y-79670329D01*
X122526633Y-79672937D01*
X122550375Y-79746007D01*
X122550380Y-79746019D01*
X122641867Y-79904479D01*
X122641870Y-79904484D01*
X122764312Y-80040470D01*
X122764321Y-80040478D01*
X122912345Y-80148024D01*
X122912349Y-80148026D01*
X122912352Y-80148028D01*
X123079519Y-80222455D01*
X123258507Y-80260500D01*
X123258511Y-80260500D01*
X123441489Y-80260500D01*
X123441493Y-80260500D01*
X123620481Y-80222455D01*
X123787648Y-80148028D01*
X123787654Y-80148024D01*
X123935678Y-80040478D01*
X123935680Y-80040475D01*
X123935687Y-80040471D01*
X124038293Y-79926514D01*
X124086005Y-79901146D01*
X124138863Y-79912381D01*
X124172133Y-79954964D01*
X124176000Y-79979377D01*
X124176000Y-82011100D01*
X124174706Y-82025340D01*
X124170838Y-82046442D01*
X124170839Y-82046444D01*
X124181964Y-82082148D01*
X124183245Y-82086741D01*
X124192199Y-82123068D01*
X124194851Y-82128120D01*
X124197823Y-82133037D01*
X124197824Y-82133039D01*
X124197825Y-82133040D01*
X124197827Y-82133043D01*
X124224264Y-82159480D01*
X124227534Y-82162953D01*
X124252347Y-82190961D01*
X124257410Y-82194455D01*
X124268396Y-82203611D01*
X124419608Y-82354823D01*
X124442446Y-82403799D01*
X124428460Y-82455997D01*
X124384194Y-82486992D01*
X124379163Y-82488165D01*
X124367505Y-82490484D01*
X124367504Y-82490484D01*
X124276375Y-82551375D01*
X124215485Y-82642503D01*
X124193642Y-82752314D01*
X124172021Y-82792762D01*
X123336789Y-83627993D01*
X123325808Y-83637146D01*
X123308151Y-83649334D01*
X123290769Y-83682452D01*
X123288427Y-83686604D01*
X123269073Y-83718621D01*
X123267369Y-83724089D01*
X123266000Y-83729646D01*
X123266000Y-83767046D01*
X123265856Y-83771816D01*
X123263597Y-83809160D01*
X123264706Y-83815212D01*
X123266000Y-83829452D01*
X123266000Y-84323045D01*
X123247518Y-84373825D01*
X123223713Y-84392996D01*
X123094927Y-84460588D01*
X123094924Y-84460590D01*
X122982138Y-84560510D01*
X122896538Y-84684525D01*
X122872081Y-84749014D01*
X122836793Y-84789940D01*
X122798215Y-84800000D01*
X122713000Y-84800000D01*
X122662220Y-84781518D01*
X122635200Y-84734718D01*
X122634000Y-84721000D01*
X122634000Y-81458936D01*
X122652482Y-81408156D01*
X122657127Y-81403086D01*
X123032237Y-81027975D01*
X123072685Y-81006356D01*
X123074998Y-81005895D01*
X123075000Y-81005896D01*
X123182495Y-80984514D01*
X123273624Y-80923623D01*
X123334515Y-80832494D01*
X123355897Y-80724999D01*
X123334515Y-80617504D01*
X123334514Y-80617502D01*
X123273624Y-80526374D01*
X123182496Y-80465484D01*
X123075000Y-80444102D01*
X122967503Y-80465484D01*
X122876375Y-80526374D01*
X122815485Y-80617502D01*
X122793642Y-80727313D01*
X122772022Y-80767761D01*
X122507360Y-81032422D01*
X122458385Y-81055260D01*
X122406188Y-81041274D01*
X122375192Y-80997008D01*
X122372500Y-80976561D01*
X122372500Y-79697349D01*
X122390982Y-79646569D01*
X122437782Y-79619549D01*
X122491000Y-79628933D01*
G37*
%TD.AperFunction*%
%TA.AperFunction,Conductor*%
G36*
X137111843Y-76862482D02*
G01*
X137116924Y-76867139D01*
X139092861Y-78843076D01*
X139115699Y-78892052D01*
X139116000Y-78898937D01*
X139116000Y-80416340D01*
X139097518Y-80467120D01*
X139050718Y-80494140D01*
X138997500Y-80484756D01*
X138971314Y-80460231D01*
X138941986Y-80416340D01*
X138918624Y-80381376D01*
X138888108Y-80360986D01*
X138827496Y-80320485D01*
X138720000Y-80299103D01*
X138612503Y-80320485D01*
X138521375Y-80381375D01*
X138460485Y-80472503D01*
X138439103Y-80579999D01*
X138439103Y-80580000D01*
X138460485Y-80687496D01*
X138521375Y-80778623D01*
X138521376Y-80778624D01*
X138562390Y-80806028D01*
X138594344Y-80849606D01*
X138597500Y-80871714D01*
X138597500Y-83696562D01*
X138579018Y-83747342D01*
X138532218Y-83774362D01*
X138479000Y-83764978D01*
X138462639Y-83752423D01*
X137247008Y-82536792D01*
X137237853Y-82525808D01*
X137232147Y-82517542D01*
X137225666Y-82508152D01*
X137225665Y-82508151D01*
X137192548Y-82490769D01*
X137188395Y-82488427D01*
X137162339Y-82472677D01*
X137156379Y-82469074D01*
X137156378Y-82469073D01*
X137156377Y-82469073D01*
X137150925Y-82467373D01*
X137145352Y-82466000D01*
X137107952Y-82466000D01*
X137103183Y-82465856D01*
X137065840Y-82463597D01*
X137065839Y-82463597D01*
X137065837Y-82463597D01*
X137059786Y-82464706D01*
X137045547Y-82466000D01*
X126473899Y-82466000D01*
X126459660Y-82464706D01*
X126453608Y-82463597D01*
X126438557Y-82460838D01*
X126438555Y-82460839D01*
X126402848Y-82471965D01*
X126398254Y-82473246D01*
X126361930Y-82482199D01*
X126356859Y-82484861D01*
X126351961Y-82487821D01*
X126325510Y-82514273D01*
X126322037Y-82517542D01*
X126294037Y-82542348D01*
X126290542Y-82547412D01*
X126281391Y-82558391D01*
X125042760Y-83797022D01*
X125002304Y-83818644D01*
X124993306Y-83820433D01*
X124939897Y-83812208D01*
X124904270Y-83771576D01*
X124900419Y-83727538D01*
X124905897Y-83700000D01*
X124902406Y-83682452D01*
X124898550Y-83663066D01*
X124884515Y-83592505D01*
X124872373Y-83574334D01*
X124842416Y-83529500D01*
X124823624Y-83501376D01*
X124759919Y-83458809D01*
X124727967Y-83415230D01*
X124731502Y-83361306D01*
X124747947Y-83337266D01*
X124988208Y-83097005D01*
X124999188Y-83087855D01*
X125016848Y-83075666D01*
X125034239Y-83042528D01*
X125036568Y-83038399D01*
X125055926Y-83006379D01*
X125055926Y-83006377D01*
X125057626Y-83000922D01*
X125059000Y-82995351D01*
X125059000Y-82957942D01*
X125059144Y-82953173D01*
X125059185Y-82952500D01*
X125061402Y-82915840D01*
X125061400Y-82915836D01*
X125060293Y-82909788D01*
X125059000Y-82895551D01*
X125059000Y-82573898D01*
X125060294Y-82559657D01*
X125060690Y-82557496D01*
X125064161Y-82538558D01*
X125053029Y-82502836D01*
X125051759Y-82498282D01*
X125042800Y-82461932D01*
X125042798Y-82461930D01*
X125040143Y-82456870D01*
X125037176Y-82451961D01*
X125035215Y-82450000D01*
X125010717Y-82425502D01*
X125007462Y-82422044D01*
X124982651Y-82394037D01*
X124977590Y-82390544D01*
X124966604Y-82381389D01*
X124567138Y-81981922D01*
X124544301Y-81932946D01*
X124544000Y-81926061D01*
X124544000Y-78800002D01*
X126245131Y-78800002D01*
X126262498Y-78909655D01*
X126262499Y-78909658D01*
X126262500Y-78909661D01*
X126311981Y-79006774D01*
X126312906Y-79008589D01*
X126391410Y-79087093D01*
X126391412Y-79087094D01*
X126391413Y-79087095D01*
X126490339Y-79137500D01*
X126530180Y-79143809D01*
X126532249Y-79144345D01*
X126532258Y-79144296D01*
X126542651Y-79146131D01*
X126546991Y-79146473D01*
X126599998Y-79154869D01*
X126600000Y-79154869D01*
X126600002Y-79154869D01*
X126653009Y-79146473D01*
X126657349Y-79146131D01*
X126660919Y-79145500D01*
X126660921Y-79145500D01*
X126660922Y-79145499D01*
X126667743Y-79144294D01*
X126667752Y-79144346D01*
X126669821Y-79143809D01*
X126709661Y-79137500D01*
X126808587Y-79087095D01*
X126887095Y-79008587D01*
X126937500Y-78909661D01*
X126953805Y-78806720D01*
X126954869Y-78800002D01*
X126954869Y-78799997D01*
X126937501Y-78690344D01*
X126937500Y-78690343D01*
X126937500Y-78690339D01*
X126887095Y-78591413D01*
X126887094Y-78591412D01*
X126887093Y-78591410D01*
X126808589Y-78512906D01*
X126806774Y-78511981D01*
X126709661Y-78462500D01*
X126709657Y-78462499D01*
X126709654Y-78462498D01*
X126669804Y-78456187D01*
X126667738Y-78455652D01*
X126667730Y-78455701D01*
X126657340Y-78453868D01*
X126653009Y-78453527D01*
X126600002Y-78445131D01*
X126599998Y-78445131D01*
X126546991Y-78453527D01*
X126542670Y-78453867D01*
X126539081Y-78454500D01*
X126539079Y-78454500D01*
X126539077Y-78454500D01*
X126532276Y-78455700D01*
X126532267Y-78455652D01*
X126530206Y-78456185D01*
X126490345Y-78462498D01*
X126490340Y-78462499D01*
X126490339Y-78462500D01*
X126461420Y-78477235D01*
X126391410Y-78512906D01*
X126312906Y-78591410D01*
X126297632Y-78621388D01*
X126262500Y-78690339D01*
X126262500Y-78690340D01*
X126262498Y-78690344D01*
X126245131Y-78799997D01*
X126245131Y-78800002D01*
X124544000Y-78800002D01*
X124544000Y-78764474D01*
X124557314Y-78720583D01*
X124558622Y-78718625D01*
X124558624Y-78718624D01*
X124619515Y-78627495D01*
X124640897Y-78520000D01*
X124640896Y-78519998D01*
X124641357Y-78517684D01*
X124662976Y-78477237D01*
X126273076Y-76867139D01*
X126322052Y-76844301D01*
X126328937Y-76844000D01*
X137061063Y-76844000D01*
X137111843Y-76862482D01*
G37*
%TD.AperFunction*%
%TA.AperFunction,Conductor*%
G36*
X124391917Y-75910982D02*
G01*
X124418937Y-75957782D01*
X124409553Y-76011000D01*
X124385027Y-76037186D01*
X124326375Y-76076375D01*
X124265485Y-76167503D01*
X124244103Y-76274999D01*
X124244103Y-76275000D01*
X124265485Y-76382496D01*
X124326358Y-76473597D01*
X124326376Y-76473624D01*
X124365740Y-76499926D01*
X124397694Y-76543505D01*
X124394160Y-76597429D01*
X124387536Y-76609502D01*
X124365485Y-76642503D01*
X124344103Y-76749999D01*
X124344103Y-76750000D01*
X124365485Y-76857496D01*
X124426375Y-76948624D01*
X124517503Y-77009514D01*
X124517505Y-77009515D01*
X124625000Y-77030897D01*
X124732495Y-77009515D01*
X124823624Y-76948624D01*
X124884515Y-76857495D01*
X124905897Y-76750000D01*
X124905896Y-76749998D01*
X124906357Y-76747685D01*
X124927976Y-76707237D01*
X125153077Y-76482138D01*
X125202053Y-76459301D01*
X125208938Y-76459000D01*
X125970061Y-76459000D01*
X126020841Y-76477482D01*
X126047861Y-76524282D01*
X126038477Y-76577500D01*
X126025922Y-76593861D01*
X124402760Y-78217022D01*
X124362311Y-78238643D01*
X124252503Y-78260485D01*
X124161375Y-78321375D01*
X124100485Y-78412503D01*
X124079202Y-78519500D01*
X124079103Y-78520000D01*
X124100485Y-78627495D01*
X124161376Y-78718624D01*
X124161377Y-78718625D01*
X124162686Y-78720583D01*
X124176000Y-78764474D01*
X124176000Y-78800622D01*
X124157518Y-78851402D01*
X124110718Y-78878422D01*
X124057500Y-78869038D01*
X124038292Y-78853483D01*
X123935692Y-78739534D01*
X123935678Y-78739521D01*
X123787654Y-78631975D01*
X123787648Y-78631972D01*
X123620484Y-78557546D01*
X123620479Y-78557544D01*
X123548274Y-78542197D01*
X123441493Y-78519500D01*
X123258507Y-78519500D01*
X123178420Y-78536522D01*
X123079520Y-78557544D01*
X123079515Y-78557546D01*
X122912357Y-78631970D01*
X122912347Y-78631975D01*
X122764316Y-78739525D01*
X122764313Y-78739529D01*
X122641870Y-78875515D01*
X122641867Y-78875520D01*
X122550380Y-79033980D01*
X122550376Y-79033989D01*
X122526633Y-79107063D01*
X122493363Y-79149646D01*
X122440505Y-79160881D01*
X122392791Y-79135511D01*
X122372548Y-79085407D01*
X122372500Y-79082650D01*
X122372500Y-75971500D01*
X122390982Y-75920720D01*
X122437782Y-75893700D01*
X122451500Y-75892500D01*
X124341137Y-75892500D01*
X124391917Y-75910982D01*
G37*
%TD.AperFunction*%
%TD*%
M02*
